<?xml version="1.0" standalone="yes"?>
<!-- SVG graphic -->
<svg xmlns='http://www.w3.org/2000/svg' xmlns:xlink='http://www.w3.org/1999/xlink'
 version="1.1">
<rect x="0" y="0" width="6" height="200" stroke="black" stroke-width="1" fill="blue" tooltip="enable"><title>(0,10443)</title></rect><rect x="6" y="23.3841" width="6" height="176.616" stroke="black" stroke-width="1" fill="blue" tooltip="enable"><title>(0.039889,9222)</title></rect><rect x="12" y="32.1747" width="6" height="167.825" stroke="black" stroke-width="1" fill="blue" tooltip="enable"><title>(0.079778,8763)</title></rect><rect x="18" y="42.3058" width="6" height="157.694" stroke="black" stroke-width="1" fill="blue" tooltip="enable"><title>(0.119667,8234)</title></rect><rect x="24" y="51.1156" width="6" height="148.884" stroke="black" stroke-width="1" fill="blue" tooltip="enable"><title>(0.159556,7774)</title></rect><rect x="30" y="58.5847" width="6" height="141.415" stroke="black" stroke-width="1" fill="blue" tooltip="enable"><title>(0.199445,7384)</title></rect><rect x="36" y="64.3493" width="6" height="135.651" stroke="black" stroke-width="1" fill="blue" tooltip="enable"><title>(0.239334,7083)</title></rect><rect x="42" y="71.4737" width="6" height="128.526" stroke="black" stroke-width="1" fill="blue" tooltip="enable"><title>(0.279223,6711)</title></rect><rect x="48" y="73.7144" width="6" height="126.286" stroke="black" stroke-width="1" fill="blue" tooltip="enable"><title>(0.319112,6594)</title></rect><rect x="54" y="79.6323" width="6" height="120.368" stroke="black" stroke-width="1" fill="blue" tooltip="enable"><title>(0.359001,6285)</title></rect><rect x="60" y="85.5118" width="6" height="114.488" stroke="black" stroke-width="1" fill="blue" tooltip="enable"><title>(0.39889,5978)</title></rect><rect x="66" y="90.8743" width="6" height="109.126" stroke="black" stroke-width="1" fill="blue" tooltip="enable"><title>(0.438779,5698)</title></rect><rect x="72" y="97.3858" width="6" height="102.614" stroke="black" stroke-width="1" fill="blue" tooltip="enable"><title>(0.478668,5358)</title></rect><rect x="78" y="97.5965" width="6" height="102.404" stroke="black" stroke-width="1" fill="blue" tooltip="enable"><title>(0.518557,5347)</title></rect><rect x="84" y="101.81" width="6" height="98.1902" stroke="black" stroke-width="1" fill="blue" tooltip="enable"><title>(0.558446,5127)</title></rect><rect x="90" y="103.993" width="6" height="96.0069" stroke="black" stroke-width="1" fill="blue" tooltip="enable"><title>(0.598335,5013)</title></rect><rect x="96" y="106.713" width="6" height="93.2874" stroke="black" stroke-width="1" fill="blue" tooltip="enable"><title>(0.638224,4871)</title></rect><rect x="102" y="111.156" width="6" height="88.8442" stroke="black" stroke-width="1" fill="blue" tooltip="enable"><title>(0.678113,4639)</title></rect><rect x="108" y="112.918" width="6" height="87.0823" stroke="black" stroke-width="1" fill="blue" tooltip="enable"><title>(0.718002,4547)</title></rect><rect x="114" y="115.446" width="6" height="84.5542" stroke="black" stroke-width="1" fill="blue" tooltip="enable"><title>(0.757891,4415)</title></rect><rect x="120" y="119.372" width="6" height="80.6282" stroke="black" stroke-width="1" fill="blue" tooltip="enable"><title>(0.79778,4210)</title></rect><rect x="126" y="121.383" width="6" height="78.6173" stroke="black" stroke-width="1" fill="blue" tooltip="enable"><title>(0.837669,4105)</title></rect><rect x="132" y="124.217" width="6" height="75.7828" stroke="black" stroke-width="1" fill="blue" tooltip="enable"><title>(0.877558,3957)</title></rect><rect x="138" y="125.194" width="6" height="74.8061" stroke="black" stroke-width="1" fill="blue" tooltip="enable"><title>(0.917447,3906)</title></rect><rect x="144" y="131.303" width="6" height="68.6967" stroke="black" stroke-width="1" fill="blue" tooltip="enable"><title>(0.957336,3587)</title></rect><rect x="150" y="132.127" width="6" height="67.8732" stroke="black" stroke-width="1" fill="blue" tooltip="enable"><title>(0.997225,3544)</title></rect><rect x="156" y="133.027" width="6" height="66.9731" stroke="black" stroke-width="1" fill="blue" tooltip="enable"><title>(1.03711,3497)</title></rect><rect x="162" y="136.551" width="6" height="63.4492" stroke="black" stroke-width="1" fill="blue" tooltip="enable"><title>(1.077,3313)</title></rect><rect x="168" y="137.336" width="6" height="62.664" stroke="black" stroke-width="1" fill="blue" tooltip="enable"><title>(1.11689,3272)</title></rect><rect x="174" y="144.116" width="6" height="55.8843" stroke="black" stroke-width="1" fill="blue" tooltip="enable"><title>(1.15678,2918)</title></rect><rect x="180" y="144.154" width="6" height="55.846" stroke="black" stroke-width="1" fill="blue" tooltip="enable"><title>(1.19667,2916)</title></rect><rect x="186" y="146.012" width="6" height="53.9883" stroke="black" stroke-width="1" fill="blue" tooltip="enable"><title>(1.23656,2819)</title></rect><rect x="192" y="147.122" width="6" height="52.8775" stroke="black" stroke-width="1" fill="blue" tooltip="enable"><title>(1.27645,2761)</title></rect><rect x="198" y="149.727" width="6" height="50.2729" stroke="black" stroke-width="1" fill="blue" tooltip="enable"><title>(1.31634,2625)</title></rect><rect x="204" y="152.025" width="6" height="47.9747" stroke="black" stroke-width="1" fill="blue" tooltip="enable"><title>(1.35623,2505)</title></rect><rect x="210" y="152.657" width="6" height="47.3427" stroke="black" stroke-width="1" fill="blue" tooltip="enable"><title>(1.39611,2472)</title></rect><rect x="216" y="154.955" width="6" height="45.0445" stroke="black" stroke-width="1" fill="blue" tooltip="enable"><title>(1.436,2352)</title></rect><rect x="222" y="156.717" width="6" height="43.2826" stroke="black" stroke-width="1" fill="blue" tooltip="enable"><title>(1.47589,2260)</title></rect><rect x="228" y="157.867" width="6" height="42.1335" stroke="black" stroke-width="1" fill="blue" tooltip="enable"><title>(1.51578,2200)</title></rect><rect x="234" y="160.797" width="6" height="39.2033" stroke="black" stroke-width="1" fill="blue" tooltip="enable"><title>(1.55567,2047)</title></rect><rect x="240" y="163.248" width="6" height="36.7519" stroke="black" stroke-width="1" fill="blue" tooltip="enable"><title>(1.59556,1919)</title></rect><rect x="246" y="164.148" width="6" height="35.8518" stroke="black" stroke-width="1" fill="blue" tooltip="enable"><title>(1.63545,1872)</title></rect><rect x="252" y="164.091" width="6" height="35.9092" stroke="black" stroke-width="1" fill="blue" tooltip="enable"><title>(1.67534,1875)</title></rect><rect x="258" y="165.929" width="6" height="34.0707" stroke="black" stroke-width="1" fill="blue" tooltip="enable"><title>(1.71523,1779)</title></rect><rect x="264" y="167.596" width="6" height="32.4045" stroke="black" stroke-width="1" fill="blue" tooltip="enable"><title>(1.75512,1692)</title></rect><rect x="270" y="168.917" width="6" height="31.083" stroke="black" stroke-width="1" fill="blue" tooltip="enable"><title>(1.795,1623)</title></rect><rect x="276" y="170.258" width="6" height="29.7424" stroke="black" stroke-width="1" fill="blue" tooltip="enable"><title>(1.83489,1553)</title></rect><rect x="282" y="171.828" width="6" height="28.172" stroke="black" stroke-width="1" fill="blue" tooltip="enable"><title>(1.87478,1471)</title></rect><rect x="288" y="173.647" width="6" height="26.3526" stroke="black" stroke-width="1" fill="blue" tooltip="enable"><title>(1.91467,1376)</title></rect><rect x="294" y="175.218" width="6" height="24.7822" stroke="black" stroke-width="1" fill="blue" tooltip="enable"><title>(1.95456,1294)</title></rect><rect x="300" y="174.413" width="6" height="25.5865" stroke="black" stroke-width="1" fill="blue" tooltip="enable"><title>(1.99445,1336)</title></rect><rect x="306" y="176.807" width="6" height="23.1926" stroke="black" stroke-width="1" fill="blue" tooltip="enable"><title>(2.03434,1211)</title></rect><rect x="312" y="176.693" width="6" height="23.3075" stroke="black" stroke-width="1" fill="blue" tooltip="enable"><title>(2.07423,1217)</title></rect><rect x="318" y="178.091" width="6" height="21.9094" stroke="black" stroke-width="1" fill="blue" tooltip="enable"><title>(2.11412,1144)</title></rect><rect x="324" y="178.665" width="6" height="21.3349" stroke="black" stroke-width="1" fill="blue" tooltip="enable"><title>(2.15401,1114)</title></rect><rect x="330" y="180.599" width="6" height="19.4006" stroke="black" stroke-width="1" fill="blue" tooltip="enable"><title>(2.19389,1013)</title></rect><rect x="336" y="181.231" width="6" height="18.7686" stroke="black" stroke-width="1" fill="blue" tooltip="enable"><title>(2.23378,980)</title></rect><rect x="342" y="181.308" width="6" height="18.6919" stroke="black" stroke-width="1" fill="blue" tooltip="enable"><title>(2.27367,976)</title></rect><rect x="348" y="181.844" width="6" height="18.1557" stroke="black" stroke-width="1" fill="blue" tooltip="enable"><title>(2.31356,948)</title></rect><rect x="354" y="183.664" width="6" height="16.3363" stroke="black" stroke-width="1" fill="blue" tooltip="enable"><title>(2.35345,853)</title></rect><rect x="360" y="184.621" width="6" height="15.3787" stroke="black" stroke-width="1" fill="blue" tooltip="enable"><title>(2.39334,803)</title></rect><rect x="366" y="184.372" width="6" height="15.6277" stroke="black" stroke-width="1" fill="blue" tooltip="enable"><title>(2.43323,816)</title></rect><rect x="372" y="185.56" width="6" height="14.4403" stroke="black" stroke-width="1" fill="blue" tooltip="enable"><title>(2.47312,754)</title></rect><rect x="378" y="186.594" width="6" height="13.4061" stroke="black" stroke-width="1" fill="blue" tooltip="enable"><title>(2.51301,700)</title></rect><rect x="384" y="187.398" width="6" height="12.6017" stroke="black" stroke-width="1" fill="blue" tooltip="enable"><title>(2.5529,658)</title></rect><rect x="390" y="187.283" width="6" height="12.7167" stroke="black" stroke-width="1" fill="blue" tooltip="enable"><title>(2.59278,664)</title></rect><rect x="396" y="188.164" width="6" height="11.8357" stroke="black" stroke-width="1" fill="blue" tooltip="enable"><title>(2.63267,618)</title></rect><rect x="402" y="188.509" width="6" height="11.491" stroke="black" stroke-width="1" fill="blue" tooltip="enable"><title>(2.67256,600)</title></rect><rect x="408" y="189.294" width="6" height="10.7057" stroke="black" stroke-width="1" fill="blue" tooltip="enable"><title>(2.71245,559)</title></rect><rect x="414" y="190.52" width="6" height="9.48003" stroke="black" stroke-width="1" fill="blue" tooltip="enable"><title>(2.75234,495)</title></rect><rect x="420" y="190.769" width="6" height="9.23106" stroke="black" stroke-width="1" fill="blue" tooltip="enable"><title>(2.79223,482)</title></rect><rect x="426" y="190.903" width="6" height="9.097" stroke="black" stroke-width="1" fill="blue" tooltip="enable"><title>(2.83212,475)</title></rect><rect x="432" y="191.707" width="6" height="8.29264" stroke="black" stroke-width="1" fill="blue" tooltip="enable"><title>(2.87201,433)</title></rect><rect x="438" y="191.669" width="6" height="8.33094" stroke="black" stroke-width="1" fill="blue" tooltip="enable"><title>(2.9119,435)</title></rect><rect x="444" y="192.32" width="6" height="7.67979" stroke="black" stroke-width="1" fill="blue" tooltip="enable"><title>(2.95178,401)</title></rect><rect x="450" y="192.703" width="6" height="7.29675" stroke="black" stroke-width="1" fill="blue" tooltip="enable"><title>(2.99167,381)</title></rect><rect x="456" y="192.742" width="6" height="7.25845" stroke="black" stroke-width="1" fill="blue" tooltip="enable"><title>(3.03156,379)</title></rect><rect x="462" y="194.178" width="6" height="5.82208" stroke="black" stroke-width="1" fill="blue" tooltip="enable"><title>(3.07145,304)</title></rect><rect x="468" y="194.312" width="6" height="5.68802" stroke="black" stroke-width="1" fill="blue" tooltip="enable"><title>(3.11134,297)</title></rect><rect x="474" y="194.599" width="6" height="5.40075" stroke="black" stroke-width="1" fill="blue" tooltip="enable"><title>(3.15123,282)</title></rect><rect x="480" y="194.657" width="6" height="5.34329" stroke="black" stroke-width="1" fill="blue" tooltip="enable"><title>(3.19112,279)</title></rect><rect x="486" y="194.733" width="6" height="5.26669" stroke="black" stroke-width="1" fill="blue" tooltip="enable"><title>(3.23101,275)</title></rect><rect x="492" y="195.308" width="6" height="4.69214" stroke="black" stroke-width="1" fill="blue" tooltip="enable"><title>(3.2709,245)</title></rect><rect x="498" y="195.748" width="6" height="4.25165" stroke="black" stroke-width="1" fill="blue" tooltip="enable"><title>(3.31079,222)</title></rect><rect x="504" y="196.131" width="6" height="3.86862" stroke="black" stroke-width="1" fill="blue" tooltip="enable"><title>(3.35067,202)</title></rect><rect x="510" y="196.744" width="6" height="3.25577" stroke="black" stroke-width="1" fill="blue" tooltip="enable"><title>(3.39056,170)</title></rect><rect x="516" y="197.185" width="6" height="2.81528" stroke="black" stroke-width="1" fill="blue" tooltip="enable"><title>(3.43045,147)</title></rect><rect x="522" y="197.28" width="6" height="2.71953" stroke="black" stroke-width="1" fill="blue" tooltip="enable"><title>(3.47034,142)</title></rect><rect x="528" y="197.395" width="6" height="2.60462" stroke="black" stroke-width="1" fill="blue" tooltip="enable"><title>(3.51023,136)</title></rect><rect x="534" y="197.338" width="6" height="2.66207" stroke="black" stroke-width="1" fill="blue" tooltip="enable"><title>(3.55012,139)</title></rect><rect x="540" y="197.97" width="6" height="2.03007" stroke="black" stroke-width="1" fill="blue" tooltip="enable"><title>(3.59001,106)</title></rect><rect x="546" y="197.932" width="6" height="2.06837" stroke="black" stroke-width="1" fill="blue" tooltip="enable"><title>(3.6299,108)</title></rect><rect x="552" y="198.257" width="6" height="1.74279" stroke="black" stroke-width="1" fill="blue" tooltip="enable"><title>(3.66979,91)</title></rect><rect x="558" y="198.468" width="6" height="1.53213" stroke="black" stroke-width="1" fill="blue" tooltip="enable"><title>(3.70968,80)</title></rect><rect x="564" y="198.679" width="6" height="1.32146" stroke="black" stroke-width="1" fill="blue" tooltip="enable"><title>(3.74956,69)</title></rect><rect x="570" y="199.004" width="6" height="0.995882" stroke="black" stroke-width="1" fill="blue" tooltip="enable"><title>(3.78945,52)</title></rect><rect x="576" y="199.1" width="6" height="0.900124" stroke="black" stroke-width="1" fill="blue" tooltip="enable"><title>(3.82934,47)</title></rect><rect x="582" y="199.291" width="6" height="0.708609" stroke="black" stroke-width="1" fill="blue" tooltip="enable"><title>(3.86923,37)</title></rect><rect x="588" y="199.215" width="6" height="0.785215" stroke="black" stroke-width="1" fill="blue" tooltip="enable"><title>(3.90912,41)</title></rect><rect x="594" y="199.617" width="6" height="0.383032" stroke="black" stroke-width="1" fill="blue" tooltip="enable"><title>(3.94901,20)</title></rect><text x="30" y="240" font-size="20" fill="black">0</text>
<text x="600" y="240" font-size="20" fill="black">3.9889</text>
<polyline points="0,220,600,220" stroke="black" stroke-width="1" fill="none"/>
<text x="720" y="20" font-size="20" fill="black">10443</text>
<text x="720" y="200" font-size="20" fill="black">0</text>
<polyline points="660,0,660,200" stroke="black" stroke-width="1" fill="none"/>
</svg>