%TF.GenerationSoftware,KiCad,Pcbnew,(5.1.9)-1*%
%TF.CreationDate,2021-12-20T00:37:58+00:00*%
%TF.ProjectId,ICS 43432 mic breakout,49435320-3433-4343-9332-206d69632062,rev?*%
%TF.SameCoordinates,Original*%
%TF.FileFunction,Paste,Top*%
%TF.FilePolarity,Positive*%
%FSLAX46Y46*%
G04 Gerber Fmt 4.6, Leading zero omitted, Abs format (unit mm)*
G04 Created by KiCad (PCBNEW (5.1.9)-1) date 2021-12-20 00:37:58*
%MOMM*%
%LPD*%
G01*
G04 APERTURE LIST*
%ADD10R,0.600000X0.400000*%
%ADD11C,0.100000*%
G04 APERTURE END LIST*
D10*
%TO.C,U1*%
X51900000Y-44150000D03*
X49750000Y-44150000D03*
X51900000Y-43500000D03*
X49750000Y-43500000D03*
X51900000Y-44800000D03*
X49750000Y-44800000D03*
D11*
G36*
X50013929Y-42098947D02*
G01*
X50029724Y-42019541D01*
X50053226Y-41942066D01*
X50084209Y-41867267D01*
X50122374Y-41795865D01*
X50167354Y-41728548D01*
X50218715Y-41665964D01*
X50275964Y-41608715D01*
X50338548Y-41557354D01*
X50405865Y-41512374D01*
X50477267Y-41474209D01*
X50552066Y-41443226D01*
X50629541Y-41419724D01*
X50708947Y-41403929D01*
X50789519Y-41395994D01*
X50870481Y-41395994D01*
X50951053Y-41403929D01*
X51030459Y-41419724D01*
X51107934Y-41443226D01*
X51182733Y-41474209D01*
X51254135Y-41512374D01*
X51321452Y-41557354D01*
X51384036Y-41608715D01*
X51441285Y-41665964D01*
X51492646Y-41728548D01*
X51537626Y-41795865D01*
X51575791Y-41867267D01*
X51606774Y-41942066D01*
X51630276Y-42019541D01*
X51646071Y-42098947D01*
X51654006Y-42179519D01*
X51654006Y-42260481D01*
X51646071Y-42341053D01*
X51630276Y-42420459D01*
X51606774Y-42497934D01*
X51575791Y-42572733D01*
X51537626Y-42644135D01*
X51492646Y-42711452D01*
X51441285Y-42774036D01*
X51384036Y-42831285D01*
X51321452Y-42882646D01*
X51254135Y-42927626D01*
X51182733Y-42965791D01*
X51107934Y-42996774D01*
X51030459Y-43020276D01*
X50951053Y-43036071D01*
X50880000Y-43043069D01*
X50880000Y-43050000D01*
X50804239Y-43050000D01*
X50804239Y-42744368D01*
X50855761Y-42744368D01*
X50907033Y-42739318D01*
X50957565Y-42729266D01*
X51006867Y-42714311D01*
X51054466Y-42694594D01*
X51099904Y-42670308D01*
X51142742Y-42641684D01*
X51182568Y-42608999D01*
X51218999Y-42572568D01*
X51251684Y-42532742D01*
X51280308Y-42489904D01*
X51304594Y-42444466D01*
X51324311Y-42396867D01*
X51339266Y-42347565D01*
X51349318Y-42297033D01*
X51354368Y-42245761D01*
X51354368Y-42194239D01*
X51349318Y-42142967D01*
X51339266Y-42092435D01*
X51324311Y-42043133D01*
X51304594Y-41995534D01*
X51280308Y-41950096D01*
X51251684Y-41907258D01*
X51218999Y-41867432D01*
X51182568Y-41831001D01*
X51142742Y-41798316D01*
X51099904Y-41769692D01*
X51054466Y-41745406D01*
X51006867Y-41725689D01*
X50957565Y-41710734D01*
X50907033Y-41700682D01*
X50855761Y-41695632D01*
X50804239Y-41695632D01*
X50752967Y-41700682D01*
X50702435Y-41710734D01*
X50653133Y-41725689D01*
X50605534Y-41745406D01*
X50560096Y-41769692D01*
X50517258Y-41798316D01*
X50477432Y-41831001D01*
X50441001Y-41867432D01*
X50408316Y-41907258D01*
X50379692Y-41950096D01*
X50355406Y-41995534D01*
X50335689Y-42043133D01*
X50320734Y-42092435D01*
X50310682Y-42142967D01*
X50305632Y-42194239D01*
X50305632Y-42245761D01*
X50310682Y-42297033D01*
X50320734Y-42347565D01*
X50335689Y-42396867D01*
X50355406Y-42444466D01*
X50379692Y-42489904D01*
X50408316Y-42532742D01*
X50441001Y-42572568D01*
X50477432Y-42608999D01*
X50517258Y-42641684D01*
X50560096Y-42670308D01*
X50605534Y-42694594D01*
X50653133Y-42714311D01*
X50702435Y-42729266D01*
X50752967Y-42739318D01*
X50804239Y-42744368D01*
X50804239Y-43050000D01*
X50780000Y-43050000D01*
X50780000Y-43043069D01*
X50708947Y-43036071D01*
X50629541Y-43020276D01*
X50552066Y-42996774D01*
X50477267Y-42965791D01*
X50405865Y-42927626D01*
X50338548Y-42882646D01*
X50275964Y-42831285D01*
X50218715Y-42774036D01*
X50167354Y-42711452D01*
X50122374Y-42644135D01*
X50084209Y-42572733D01*
X50053226Y-42497934D01*
X50029724Y-42420459D01*
X50013929Y-42341053D01*
X50005994Y-42260481D01*
X50005994Y-42179519D01*
X50013929Y-42098947D01*
G37*
%TD*%
%TO.C,C1*%
G36*
G01*
X50675000Y-38762500D02*
X50675000Y-39237500D01*
G75*
G02*
X50437500Y-39475000I-237500J0D01*
G01*
X49837500Y-39475000D01*
G75*
G02*
X49600000Y-39237500I0J237500D01*
G01*
X49600000Y-38762500D01*
G75*
G02*
X49837500Y-38525000I237500J0D01*
G01*
X50437500Y-38525000D01*
G75*
G02*
X50675000Y-38762500I0J-237500D01*
G01*
G37*
G36*
G01*
X52400000Y-38762500D02*
X52400000Y-39237500D01*
G75*
G02*
X52162500Y-39475000I-237500J0D01*
G01*
X51562500Y-39475000D01*
G75*
G02*
X51325000Y-39237500I0J237500D01*
G01*
X51325000Y-38762500D01*
G75*
G02*
X51562500Y-38525000I237500J0D01*
G01*
X52162500Y-38525000D01*
G75*
G02*
X52400000Y-38762500I0J-237500D01*
G01*
G37*
%TD*%
M02*
