%TF.GenerationSoftware,KiCad,Pcbnew,(5.1.9)-1*%
%TF.CreationDate,2021-12-20T00:37:58+00:00*%
%TF.ProjectId,ICS 43432 mic breakout,49435320-3433-4343-9332-206d69632062,rev?*%
%TF.SameCoordinates,Original*%
%TF.FileFunction,Copper,L1,Top*%
%TF.FilePolarity,Positive*%
%FSLAX46Y46*%
G04 Gerber Fmt 4.6, Leading zero omitted, Abs format (unit mm)*
G04 Created by KiCad (PCBNEW (5.1.9)-1) date 2021-12-20 00:37:58*
%MOMM*%
%LPD*%
G01*
G04 APERTURE LIST*
%TA.AperFunction,SMDPad,CuDef*%
%ADD10R,0.600000X0.400000*%
%TD*%
%TA.AperFunction,SMDPad,CuDef*%
%ADD11C,0.100000*%
%TD*%
%TA.AperFunction,ComponentPad*%
%ADD12C,0.500000*%
%TD*%
%TA.AperFunction,ComponentPad*%
%ADD13O,1.700000X1.700000*%
%TD*%
%TA.AperFunction,ComponentPad*%
%ADD14R,1.700000X1.700000*%
%TD*%
%TA.AperFunction,Conductor*%
%ADD15C,0.250000*%
%TD*%
%TA.AperFunction,Conductor*%
%ADD16C,0.254000*%
%TD*%
%TA.AperFunction,Conductor*%
%ADD17C,0.100000*%
%TD*%
G04 APERTURE END LIST*
D10*
%TO.P,U1,2*%
%TO.N,Net-(J1-Pad2)*%
X51900000Y-44150000D03*
%TO.P,U1,6*%
%TO.N,Net-(J1-Pad6)*%
X49750000Y-44150000D03*
%TO.P,U1,3*%
%TO.N,Net-(C1-Pad1)*%
X51900000Y-43500000D03*
%TO.P,U1,5*%
%TO.N,Net-(J1-Pad5)*%
X49750000Y-43500000D03*
%TO.P,U1,1*%
%TO.N,Net-(J1-Pad1)*%
X51900000Y-44800000D03*
%TO.P,U1,7*%
%TO.N,Net-(J1-Pad7)*%
X49750000Y-44800000D03*
%TA.AperFunction,SMDPad,CuDef*%
D11*
%TO.P,U1,4*%
%TO.N,Net-(C1-Pad2)*%
G36*
X50013929Y-42098947D02*
G01*
X50029724Y-42019541D01*
X50053226Y-41942066D01*
X50084209Y-41867267D01*
X50122374Y-41795865D01*
X50167354Y-41728548D01*
X50218715Y-41665964D01*
X50275964Y-41608715D01*
X50338548Y-41557354D01*
X50405865Y-41512374D01*
X50477267Y-41474209D01*
X50552066Y-41443226D01*
X50629541Y-41419724D01*
X50708947Y-41403929D01*
X50789519Y-41395994D01*
X50870481Y-41395994D01*
X50951053Y-41403929D01*
X51030459Y-41419724D01*
X51107934Y-41443226D01*
X51182733Y-41474209D01*
X51254135Y-41512374D01*
X51321452Y-41557354D01*
X51384036Y-41608715D01*
X51441285Y-41665964D01*
X51492646Y-41728548D01*
X51537626Y-41795865D01*
X51575791Y-41867267D01*
X51606774Y-41942066D01*
X51630276Y-42019541D01*
X51646071Y-42098947D01*
X51654006Y-42179519D01*
X51654006Y-42260481D01*
X51646071Y-42341053D01*
X51630276Y-42420459D01*
X51606774Y-42497934D01*
X51575791Y-42572733D01*
X51537626Y-42644135D01*
X51492646Y-42711452D01*
X51441285Y-42774036D01*
X51384036Y-42831285D01*
X51321452Y-42882646D01*
X51254135Y-42927626D01*
X51182733Y-42965791D01*
X51107934Y-42996774D01*
X51030459Y-43020276D01*
X50951053Y-43036071D01*
X50880000Y-43043069D01*
X50880000Y-43050000D01*
X50804239Y-43050000D01*
X50804239Y-42744368D01*
X50855761Y-42744368D01*
X50907033Y-42739318D01*
X50957565Y-42729266D01*
X51006867Y-42714311D01*
X51054466Y-42694594D01*
X51099904Y-42670308D01*
X51142742Y-42641684D01*
X51182568Y-42608999D01*
X51218999Y-42572568D01*
X51251684Y-42532742D01*
X51280308Y-42489904D01*
X51304594Y-42444466D01*
X51324311Y-42396867D01*
X51339266Y-42347565D01*
X51349318Y-42297033D01*
X51354368Y-42245761D01*
X51354368Y-42194239D01*
X51349318Y-42142967D01*
X51339266Y-42092435D01*
X51324311Y-42043133D01*
X51304594Y-41995534D01*
X51280308Y-41950096D01*
X51251684Y-41907258D01*
X51218999Y-41867432D01*
X51182568Y-41831001D01*
X51142742Y-41798316D01*
X51099904Y-41769692D01*
X51054466Y-41745406D01*
X51006867Y-41725689D01*
X50957565Y-41710734D01*
X50907033Y-41700682D01*
X50855761Y-41695632D01*
X50804239Y-41695632D01*
X50752967Y-41700682D01*
X50702435Y-41710734D01*
X50653133Y-41725689D01*
X50605534Y-41745406D01*
X50560096Y-41769692D01*
X50517258Y-41798316D01*
X50477432Y-41831001D01*
X50441001Y-41867432D01*
X50408316Y-41907258D01*
X50379692Y-41950096D01*
X50355406Y-41995534D01*
X50335689Y-42043133D01*
X50320734Y-42092435D01*
X50310682Y-42142967D01*
X50305632Y-42194239D01*
X50305632Y-42245761D01*
X50310682Y-42297033D01*
X50320734Y-42347565D01*
X50335689Y-42396867D01*
X50355406Y-42444466D01*
X50379692Y-42489904D01*
X50408316Y-42532742D01*
X50441001Y-42572568D01*
X50477432Y-42608999D01*
X50517258Y-42641684D01*
X50560096Y-42670308D01*
X50605534Y-42694594D01*
X50653133Y-42714311D01*
X50702435Y-42729266D01*
X50752967Y-42739318D01*
X50804239Y-42744368D01*
X50804239Y-43050000D01*
X50780000Y-43050000D01*
X50780000Y-43043069D01*
X50708947Y-43036071D01*
X50629541Y-43020276D01*
X50552066Y-42996774D01*
X50477267Y-42965791D01*
X50405865Y-42927626D01*
X50338548Y-42882646D01*
X50275964Y-42831285D01*
X50218715Y-42774036D01*
X50167354Y-42711452D01*
X50122374Y-42644135D01*
X50084209Y-42572733D01*
X50053226Y-42497934D01*
X50029724Y-42420459D01*
X50013929Y-42341053D01*
X50005994Y-42260481D01*
X50005994Y-42179519D01*
X50013929Y-42098947D01*
G37*
%TD.AperFunction*%
D12*
%TO.P,U1,12*%
%TO.N,N/C*%
X50825000Y-42225000D03*
%TD*%
D13*
%TO.P,J1,7*%
%TO.N,Net-(J1-Pad7)*%
X46650000Y-48910000D03*
%TO.P,J1,6*%
%TO.N,Net-(J1-Pad6)*%
X46650000Y-46370000D03*
%TO.P,J1,5*%
%TO.N,Net-(J1-Pad5)*%
X46650000Y-43830000D03*
%TO.P,J1,4*%
%TO.N,Net-(C1-Pad2)*%
X46650000Y-41290000D03*
%TO.P,J1,3*%
%TO.N,Net-(C1-Pad1)*%
X46650000Y-38750000D03*
%TO.P,J1,2*%
%TO.N,Net-(J1-Pad2)*%
X46650000Y-36210000D03*
D14*
%TO.P,J1,1*%
%TO.N,Net-(J1-Pad1)*%
X46650000Y-33670000D03*
%TD*%
%TO.P,C1,2*%
%TO.N,Net-(C1-Pad2)*%
%TA.AperFunction,SMDPad,CuDef*%
G36*
G01*
X50675000Y-38762500D02*
X50675000Y-39237500D01*
G75*
G02*
X50437500Y-39475000I-237500J0D01*
G01*
X49837500Y-39475000D01*
G75*
G02*
X49600000Y-39237500I0J237500D01*
G01*
X49600000Y-38762500D01*
G75*
G02*
X49837500Y-38525000I237500J0D01*
G01*
X50437500Y-38525000D01*
G75*
G02*
X50675000Y-38762500I0J-237500D01*
G01*
G37*
%TD.AperFunction*%
%TO.P,C1,1*%
%TO.N,Net-(C1-Pad1)*%
%TA.AperFunction,SMDPad,CuDef*%
G36*
G01*
X52400000Y-38762500D02*
X52400000Y-39237500D01*
G75*
G02*
X52162500Y-39475000I-237500J0D01*
G01*
X51562500Y-39475000D01*
G75*
G02*
X51325000Y-39237500I0J237500D01*
G01*
X51325000Y-38762500D01*
G75*
G02*
X51562500Y-38525000I237500J0D01*
G01*
X52162500Y-38525000D01*
G75*
G02*
X52400000Y-38762500I0J-237500D01*
G01*
G37*
%TD.AperFunction*%
%TD*%
D15*
%TO.N,Net-(C1-Pad1)*%
X51976037Y-39113537D02*
X51862500Y-39000000D01*
X51900000Y-43500000D02*
X51976037Y-43423963D01*
X50762501Y-37900001D02*
X51862500Y-39000000D01*
X47499999Y-37900001D02*
X50762501Y-37900001D01*
X46650000Y-38750000D02*
X47499999Y-37900001D01*
X52100000Y-43500000D02*
X52275000Y-43325000D01*
X51900000Y-43500000D02*
X52100000Y-43500000D01*
X52275000Y-39412500D02*
X51862500Y-39000000D01*
X52275000Y-43325000D02*
X52275000Y-39412500D01*
%TO.N,Net-(J1-Pad7)*%
X49750000Y-45810000D02*
X49750000Y-44800000D01*
X46650000Y-48910000D02*
X49750000Y-45810000D01*
%TO.N,Net-(J1-Pad6)*%
X48870000Y-44150000D02*
X46650000Y-46370000D01*
X49750000Y-44150000D02*
X48870000Y-44150000D01*
%TO.N,Net-(J1-Pad5)*%
X46980000Y-43500000D02*
X46650000Y-43830000D01*
X49750000Y-43500000D02*
X46980000Y-43500000D01*
%TO.N,Net-(J1-Pad2)*%
X50405510Y-36210000D02*
X46650000Y-36210000D01*
X52725010Y-38529500D02*
X50405510Y-36210000D01*
X52725010Y-43874990D02*
X52725010Y-38529500D01*
X52450000Y-44150000D02*
X52725010Y-43874990D01*
X51900000Y-44150000D02*
X52450000Y-44150000D01*
%TO.N,Net-(J1-Pad1)*%
X53175019Y-38343099D02*
X48501920Y-33670000D01*
X53175020Y-44061390D02*
X53175019Y-38343099D01*
X52436410Y-44800000D02*
X53175020Y-44061390D01*
X48501920Y-33670000D02*
X46650000Y-33670000D01*
X51900000Y-44800000D02*
X52436410Y-44800000D01*
%TD*%
D16*
%TO.N,Net-(C1-Pad2)*%
X53940000Y-50740000D02*
X44460000Y-50740000D01*
X44460000Y-32820000D01*
X45161928Y-32820000D01*
X45161928Y-34520000D01*
X45174188Y-34644482D01*
X45210498Y-34764180D01*
X45269463Y-34874494D01*
X45348815Y-34971185D01*
X45445506Y-35050537D01*
X45555820Y-35109502D01*
X45628380Y-35131513D01*
X45496525Y-35263368D01*
X45334010Y-35506589D01*
X45222068Y-35776842D01*
X45165000Y-36063740D01*
X45165000Y-36356260D01*
X45222068Y-36643158D01*
X45334010Y-36913411D01*
X45496525Y-37156632D01*
X45703368Y-37363475D01*
X45877760Y-37480000D01*
X45703368Y-37596525D01*
X45496525Y-37803368D01*
X45334010Y-38046589D01*
X45222068Y-38316842D01*
X45165000Y-38603740D01*
X45165000Y-38896260D01*
X45222068Y-39183158D01*
X45334010Y-39453411D01*
X45496525Y-39696632D01*
X45703368Y-39903475D01*
X45885534Y-40025195D01*
X45768645Y-40094822D01*
X45552412Y-40289731D01*
X45378359Y-40523080D01*
X45253175Y-40785901D01*
X45208524Y-40933110D01*
X45329845Y-41163000D01*
X46523000Y-41163000D01*
X46523000Y-41143000D01*
X46777000Y-41143000D01*
X46777000Y-41163000D01*
X47970155Y-41163000D01*
X48091476Y-40933110D01*
X48046825Y-40785901D01*
X47921641Y-40523080D01*
X47747588Y-40289731D01*
X47531355Y-40094822D01*
X47414466Y-40025195D01*
X47596632Y-39903475D01*
X47803475Y-39696632D01*
X47951564Y-39475000D01*
X48961928Y-39475000D01*
X48974188Y-39599482D01*
X49010498Y-39719180D01*
X49069463Y-39829494D01*
X49148815Y-39926185D01*
X49245506Y-40005537D01*
X49355820Y-40064502D01*
X49475518Y-40100812D01*
X49600000Y-40113072D01*
X49851750Y-40110000D01*
X50010500Y-39951250D01*
X50010500Y-39127000D01*
X49123750Y-39127000D01*
X48965000Y-39285750D01*
X48961928Y-39475000D01*
X47951564Y-39475000D01*
X47965990Y-39453411D01*
X48077932Y-39183158D01*
X48135000Y-38896260D01*
X48135000Y-38660001D01*
X48964119Y-38660001D01*
X48965000Y-38714250D01*
X49123750Y-38873000D01*
X50010500Y-38873000D01*
X50010500Y-38853000D01*
X50264500Y-38853000D01*
X50264500Y-38873000D01*
X50284500Y-38873000D01*
X50284500Y-39127000D01*
X50264500Y-39127000D01*
X50264500Y-39951250D01*
X50423250Y-40110000D01*
X50675000Y-40113072D01*
X50799482Y-40100812D01*
X50919180Y-40064502D01*
X51029494Y-40005537D01*
X51077394Y-39966226D01*
X51227433Y-40046423D01*
X51391684Y-40096248D01*
X51515001Y-40108394D01*
X51515000Y-41664701D01*
X51512424Y-41660845D01*
X51389155Y-41537576D01*
X51244205Y-41440723D01*
X51083145Y-41374010D01*
X50912165Y-41340000D01*
X50737835Y-41340000D01*
X50566855Y-41374010D01*
X50405795Y-41440723D01*
X50260845Y-41537576D01*
X50137576Y-41660845D01*
X50040723Y-41805795D01*
X49974010Y-41966855D01*
X49940000Y-42137835D01*
X49940000Y-42312165D01*
X49974010Y-42483145D01*
X50040723Y-42644205D01*
X50052746Y-42662198D01*
X50050000Y-42661928D01*
X49450000Y-42661928D01*
X49325518Y-42674188D01*
X49205820Y-42710498D01*
X49150627Y-42740000D01*
X47660107Y-42740000D01*
X47596632Y-42676525D01*
X47414466Y-42554805D01*
X47531355Y-42485178D01*
X47747588Y-42290269D01*
X47921641Y-42056920D01*
X48046825Y-41794099D01*
X48091476Y-41646890D01*
X47970155Y-41417000D01*
X46777000Y-41417000D01*
X46777000Y-41437000D01*
X46523000Y-41437000D01*
X46523000Y-41417000D01*
X45329845Y-41417000D01*
X45208524Y-41646890D01*
X45253175Y-41794099D01*
X45378359Y-42056920D01*
X45552412Y-42290269D01*
X45768645Y-42485178D01*
X45885534Y-42554805D01*
X45703368Y-42676525D01*
X45496525Y-42883368D01*
X45334010Y-43126589D01*
X45222068Y-43396842D01*
X45165000Y-43683740D01*
X45165000Y-43976260D01*
X45222068Y-44263158D01*
X45334010Y-44533411D01*
X45496525Y-44776632D01*
X45703368Y-44983475D01*
X45877760Y-45100000D01*
X45703368Y-45216525D01*
X45496525Y-45423368D01*
X45334010Y-45666589D01*
X45222068Y-45936842D01*
X45165000Y-46223740D01*
X45165000Y-46516260D01*
X45222068Y-46803158D01*
X45334010Y-47073411D01*
X45496525Y-47316632D01*
X45703368Y-47523475D01*
X45877760Y-47640000D01*
X45703368Y-47756525D01*
X45496525Y-47963368D01*
X45334010Y-48206589D01*
X45222068Y-48476842D01*
X45165000Y-48763740D01*
X45165000Y-49056260D01*
X45222068Y-49343158D01*
X45334010Y-49613411D01*
X45496525Y-49856632D01*
X45703368Y-50063475D01*
X45946589Y-50225990D01*
X46216842Y-50337932D01*
X46503740Y-50395000D01*
X46796260Y-50395000D01*
X47083158Y-50337932D01*
X47353411Y-50225990D01*
X47596632Y-50063475D01*
X47803475Y-49856632D01*
X47965990Y-49613411D01*
X48077932Y-49343158D01*
X48135000Y-49056260D01*
X48135000Y-48763740D01*
X48091209Y-48543592D01*
X50261004Y-46373798D01*
X50290001Y-46350001D01*
X50316332Y-46317917D01*
X50384974Y-46234277D01*
X50455546Y-46102247D01*
X50462976Y-46077754D01*
X50499003Y-45958986D01*
X50510000Y-45847333D01*
X50510000Y-45847324D01*
X50513676Y-45810001D01*
X50510000Y-45772678D01*
X50510000Y-45440444D01*
X50580537Y-45354494D01*
X50639502Y-45244180D01*
X50675812Y-45124482D01*
X50688072Y-45000000D01*
X50688072Y-44600000D01*
X50675812Y-44475518D01*
X50675655Y-44475000D01*
X50675812Y-44474482D01*
X50688072Y-44350000D01*
X50688072Y-43950000D01*
X50675812Y-43825518D01*
X50675655Y-43825000D01*
X50675812Y-43824482D01*
X50688072Y-43700000D01*
X50688072Y-43300000D01*
X50675812Y-43175518D01*
X50650678Y-43092663D01*
X50737835Y-43110000D01*
X50912165Y-43110000D01*
X50999322Y-43092663D01*
X50974188Y-43175518D01*
X50961928Y-43300000D01*
X50961928Y-43700000D01*
X50974188Y-43824482D01*
X50974345Y-43825000D01*
X50974188Y-43825518D01*
X50961928Y-43950000D01*
X50961928Y-44350000D01*
X50974188Y-44474482D01*
X50974345Y-44475000D01*
X50974188Y-44475518D01*
X50961928Y-44600000D01*
X50961928Y-45000000D01*
X50974188Y-45124482D01*
X51010498Y-45244180D01*
X51069463Y-45354494D01*
X51148815Y-45451185D01*
X51245506Y-45530537D01*
X51355820Y-45589502D01*
X51475518Y-45625812D01*
X51600000Y-45638072D01*
X52200000Y-45638072D01*
X52324482Y-45625812D01*
X52444180Y-45589502D01*
X52505163Y-45556905D01*
X52585396Y-45549003D01*
X52728657Y-45505546D01*
X52860686Y-45434974D01*
X52976411Y-45340001D01*
X53000213Y-45310998D01*
X53686028Y-44625184D01*
X53715021Y-44601390D01*
X53738815Y-44572397D01*
X53738819Y-44572393D01*
X53809993Y-44485667D01*
X53833202Y-44442246D01*
X53880566Y-44353636D01*
X53924023Y-44210375D01*
X53935020Y-44098722D01*
X53935020Y-44098714D01*
X53938696Y-44061391D01*
X53935020Y-44024068D01*
X53935018Y-38380431D01*
X53938695Y-38343099D01*
X53924021Y-38194113D01*
X53880565Y-38050852D01*
X53809993Y-37918822D01*
X53738818Y-37832096D01*
X53738813Y-37832091D01*
X53715019Y-37803098D01*
X53686026Y-37779304D01*
X49065724Y-33159003D01*
X49041921Y-33129999D01*
X48926196Y-33035026D01*
X48794167Y-32964454D01*
X48650906Y-32920997D01*
X48539253Y-32910000D01*
X48539242Y-32910000D01*
X48501920Y-32906324D01*
X48464598Y-32910000D01*
X48138072Y-32910000D01*
X48138072Y-32820000D01*
X48125812Y-32695518D01*
X48089502Y-32575820D01*
X48030537Y-32465506D01*
X47951185Y-32368815D01*
X47854494Y-32289463D01*
X47744180Y-32230498D01*
X47624482Y-32194188D01*
X47500000Y-32181928D01*
X45800000Y-32181928D01*
X45675518Y-32194188D01*
X45555820Y-32230498D01*
X45445506Y-32289463D01*
X45348815Y-32368815D01*
X45269463Y-32465506D01*
X45210498Y-32575820D01*
X45174188Y-32695518D01*
X45161928Y-32820000D01*
X44460000Y-32820000D01*
X44460000Y-32060000D01*
X53940001Y-32060000D01*
X53940000Y-50740000D01*
%TA.AperFunction,Conductor*%
D17*
G36*
X53940000Y-50740000D02*
G01*
X44460000Y-50740000D01*
X44460000Y-32820000D01*
X45161928Y-32820000D01*
X45161928Y-34520000D01*
X45174188Y-34644482D01*
X45210498Y-34764180D01*
X45269463Y-34874494D01*
X45348815Y-34971185D01*
X45445506Y-35050537D01*
X45555820Y-35109502D01*
X45628380Y-35131513D01*
X45496525Y-35263368D01*
X45334010Y-35506589D01*
X45222068Y-35776842D01*
X45165000Y-36063740D01*
X45165000Y-36356260D01*
X45222068Y-36643158D01*
X45334010Y-36913411D01*
X45496525Y-37156632D01*
X45703368Y-37363475D01*
X45877760Y-37480000D01*
X45703368Y-37596525D01*
X45496525Y-37803368D01*
X45334010Y-38046589D01*
X45222068Y-38316842D01*
X45165000Y-38603740D01*
X45165000Y-38896260D01*
X45222068Y-39183158D01*
X45334010Y-39453411D01*
X45496525Y-39696632D01*
X45703368Y-39903475D01*
X45885534Y-40025195D01*
X45768645Y-40094822D01*
X45552412Y-40289731D01*
X45378359Y-40523080D01*
X45253175Y-40785901D01*
X45208524Y-40933110D01*
X45329845Y-41163000D01*
X46523000Y-41163000D01*
X46523000Y-41143000D01*
X46777000Y-41143000D01*
X46777000Y-41163000D01*
X47970155Y-41163000D01*
X48091476Y-40933110D01*
X48046825Y-40785901D01*
X47921641Y-40523080D01*
X47747588Y-40289731D01*
X47531355Y-40094822D01*
X47414466Y-40025195D01*
X47596632Y-39903475D01*
X47803475Y-39696632D01*
X47951564Y-39475000D01*
X48961928Y-39475000D01*
X48974188Y-39599482D01*
X49010498Y-39719180D01*
X49069463Y-39829494D01*
X49148815Y-39926185D01*
X49245506Y-40005537D01*
X49355820Y-40064502D01*
X49475518Y-40100812D01*
X49600000Y-40113072D01*
X49851750Y-40110000D01*
X50010500Y-39951250D01*
X50010500Y-39127000D01*
X49123750Y-39127000D01*
X48965000Y-39285750D01*
X48961928Y-39475000D01*
X47951564Y-39475000D01*
X47965990Y-39453411D01*
X48077932Y-39183158D01*
X48135000Y-38896260D01*
X48135000Y-38660001D01*
X48964119Y-38660001D01*
X48965000Y-38714250D01*
X49123750Y-38873000D01*
X50010500Y-38873000D01*
X50010500Y-38853000D01*
X50264500Y-38853000D01*
X50264500Y-38873000D01*
X50284500Y-38873000D01*
X50284500Y-39127000D01*
X50264500Y-39127000D01*
X50264500Y-39951250D01*
X50423250Y-40110000D01*
X50675000Y-40113072D01*
X50799482Y-40100812D01*
X50919180Y-40064502D01*
X51029494Y-40005537D01*
X51077394Y-39966226D01*
X51227433Y-40046423D01*
X51391684Y-40096248D01*
X51515001Y-40108394D01*
X51515000Y-41664701D01*
X51512424Y-41660845D01*
X51389155Y-41537576D01*
X51244205Y-41440723D01*
X51083145Y-41374010D01*
X50912165Y-41340000D01*
X50737835Y-41340000D01*
X50566855Y-41374010D01*
X50405795Y-41440723D01*
X50260845Y-41537576D01*
X50137576Y-41660845D01*
X50040723Y-41805795D01*
X49974010Y-41966855D01*
X49940000Y-42137835D01*
X49940000Y-42312165D01*
X49974010Y-42483145D01*
X50040723Y-42644205D01*
X50052746Y-42662198D01*
X50050000Y-42661928D01*
X49450000Y-42661928D01*
X49325518Y-42674188D01*
X49205820Y-42710498D01*
X49150627Y-42740000D01*
X47660107Y-42740000D01*
X47596632Y-42676525D01*
X47414466Y-42554805D01*
X47531355Y-42485178D01*
X47747588Y-42290269D01*
X47921641Y-42056920D01*
X48046825Y-41794099D01*
X48091476Y-41646890D01*
X47970155Y-41417000D01*
X46777000Y-41417000D01*
X46777000Y-41437000D01*
X46523000Y-41437000D01*
X46523000Y-41417000D01*
X45329845Y-41417000D01*
X45208524Y-41646890D01*
X45253175Y-41794099D01*
X45378359Y-42056920D01*
X45552412Y-42290269D01*
X45768645Y-42485178D01*
X45885534Y-42554805D01*
X45703368Y-42676525D01*
X45496525Y-42883368D01*
X45334010Y-43126589D01*
X45222068Y-43396842D01*
X45165000Y-43683740D01*
X45165000Y-43976260D01*
X45222068Y-44263158D01*
X45334010Y-44533411D01*
X45496525Y-44776632D01*
X45703368Y-44983475D01*
X45877760Y-45100000D01*
X45703368Y-45216525D01*
X45496525Y-45423368D01*
X45334010Y-45666589D01*
X45222068Y-45936842D01*
X45165000Y-46223740D01*
X45165000Y-46516260D01*
X45222068Y-46803158D01*
X45334010Y-47073411D01*
X45496525Y-47316632D01*
X45703368Y-47523475D01*
X45877760Y-47640000D01*
X45703368Y-47756525D01*
X45496525Y-47963368D01*
X45334010Y-48206589D01*
X45222068Y-48476842D01*
X45165000Y-48763740D01*
X45165000Y-49056260D01*
X45222068Y-49343158D01*
X45334010Y-49613411D01*
X45496525Y-49856632D01*
X45703368Y-50063475D01*
X45946589Y-50225990D01*
X46216842Y-50337932D01*
X46503740Y-50395000D01*
X46796260Y-50395000D01*
X47083158Y-50337932D01*
X47353411Y-50225990D01*
X47596632Y-50063475D01*
X47803475Y-49856632D01*
X47965990Y-49613411D01*
X48077932Y-49343158D01*
X48135000Y-49056260D01*
X48135000Y-48763740D01*
X48091209Y-48543592D01*
X50261004Y-46373798D01*
X50290001Y-46350001D01*
X50316332Y-46317917D01*
X50384974Y-46234277D01*
X50455546Y-46102247D01*
X50462976Y-46077754D01*
X50499003Y-45958986D01*
X50510000Y-45847333D01*
X50510000Y-45847324D01*
X50513676Y-45810001D01*
X50510000Y-45772678D01*
X50510000Y-45440444D01*
X50580537Y-45354494D01*
X50639502Y-45244180D01*
X50675812Y-45124482D01*
X50688072Y-45000000D01*
X50688072Y-44600000D01*
X50675812Y-44475518D01*
X50675655Y-44475000D01*
X50675812Y-44474482D01*
X50688072Y-44350000D01*
X50688072Y-43950000D01*
X50675812Y-43825518D01*
X50675655Y-43825000D01*
X50675812Y-43824482D01*
X50688072Y-43700000D01*
X50688072Y-43300000D01*
X50675812Y-43175518D01*
X50650678Y-43092663D01*
X50737835Y-43110000D01*
X50912165Y-43110000D01*
X50999322Y-43092663D01*
X50974188Y-43175518D01*
X50961928Y-43300000D01*
X50961928Y-43700000D01*
X50974188Y-43824482D01*
X50974345Y-43825000D01*
X50974188Y-43825518D01*
X50961928Y-43950000D01*
X50961928Y-44350000D01*
X50974188Y-44474482D01*
X50974345Y-44475000D01*
X50974188Y-44475518D01*
X50961928Y-44600000D01*
X50961928Y-45000000D01*
X50974188Y-45124482D01*
X51010498Y-45244180D01*
X51069463Y-45354494D01*
X51148815Y-45451185D01*
X51245506Y-45530537D01*
X51355820Y-45589502D01*
X51475518Y-45625812D01*
X51600000Y-45638072D01*
X52200000Y-45638072D01*
X52324482Y-45625812D01*
X52444180Y-45589502D01*
X52505163Y-45556905D01*
X52585396Y-45549003D01*
X52728657Y-45505546D01*
X52860686Y-45434974D01*
X52976411Y-45340001D01*
X53000213Y-45310998D01*
X53686028Y-44625184D01*
X53715021Y-44601390D01*
X53738815Y-44572397D01*
X53738819Y-44572393D01*
X53809993Y-44485667D01*
X53833202Y-44442246D01*
X53880566Y-44353636D01*
X53924023Y-44210375D01*
X53935020Y-44098722D01*
X53935020Y-44098714D01*
X53938696Y-44061391D01*
X53935020Y-44024068D01*
X53935018Y-38380431D01*
X53938695Y-38343099D01*
X53924021Y-38194113D01*
X53880565Y-38050852D01*
X53809993Y-37918822D01*
X53738818Y-37832096D01*
X53738813Y-37832091D01*
X53715019Y-37803098D01*
X53686026Y-37779304D01*
X49065724Y-33159003D01*
X49041921Y-33129999D01*
X48926196Y-33035026D01*
X48794167Y-32964454D01*
X48650906Y-32920997D01*
X48539253Y-32910000D01*
X48539242Y-32910000D01*
X48501920Y-32906324D01*
X48464598Y-32910000D01*
X48138072Y-32910000D01*
X48138072Y-32820000D01*
X48125812Y-32695518D01*
X48089502Y-32575820D01*
X48030537Y-32465506D01*
X47951185Y-32368815D01*
X47854494Y-32289463D01*
X47744180Y-32230498D01*
X47624482Y-32194188D01*
X47500000Y-32181928D01*
X45800000Y-32181928D01*
X45675518Y-32194188D01*
X45555820Y-32230498D01*
X45445506Y-32289463D01*
X45348815Y-32368815D01*
X45269463Y-32465506D01*
X45210498Y-32575820D01*
X45174188Y-32695518D01*
X45161928Y-32820000D01*
X44460000Y-32820000D01*
X44460000Y-32060000D01*
X53940001Y-32060000D01*
X53940000Y-50740000D01*
G37*
%TD.AperFunction*%
%TD*%
M02*
