%TF.GenerationSoftware,KiCad,Pcbnew,(6.0.0)*%
%TF.CreationDate,2022-04-23T18:16:59+01:00*%
%TF.ProjectId,pcb O,70636220-4f2e-46b6-9963-61645f706362,rev?*%
%TF.SameCoordinates,Original*%
%TF.FileFunction,Soldermask,Top*%
%TF.FilePolarity,Negative*%
%FSLAX46Y46*%
G04 Gerber Fmt 4.6, Leading zero omitted, Abs format (unit mm)*
G04 Created by KiCad (PCBNEW (6.0.0)) date 2022-04-23 18:16:59*
%MOMM*%
%LPD*%
G01*
G04 APERTURE LIST*
G04 Aperture macros list*
%AMRoundRect*
0 Rectangle with rounded corners*
0 $1 Rounding radius*
0 $2 $3 $4 $5 $6 $7 $8 $9 X,Y pos of 4 corners*
0 Add a 4 corners polygon primitive as box body*
4,1,4,$2,$3,$4,$5,$6,$7,$8,$9,$2,$3,0*
0 Add four circle primitives for the rounded corners*
1,1,$1+$1,$2,$3*
1,1,$1+$1,$4,$5*
1,1,$1+$1,$6,$7*
1,1,$1+$1,$8,$9*
0 Add four rect primitives between the rounded corners*
20,1,$1+$1,$2,$3,$4,$5,0*
20,1,$1+$1,$4,$5,$6,$7,0*
20,1,$1+$1,$6,$7,$8,$9,0*
20,1,$1+$1,$8,$9,$2,$3,0*%
%AMFreePoly0*
4,1,14,0.354215,0.088284,0.450784,-0.008285,0.462500,-0.036569,0.462500,-0.060000,0.450784,-0.088284,0.422500,-0.100000,-0.422500,-0.100000,-0.450784,-0.088284,-0.462500,-0.060000,-0.462500,0.060000,-0.450784,0.088284,-0.422500,0.100000,0.325931,0.100000,0.354215,0.088284,0.354215,0.088284,$1*%
%AMFreePoly1*
4,1,14,0.450784,0.088284,0.462500,0.060000,0.462500,0.036569,0.450784,0.008285,0.354215,-0.088284,0.325931,-0.100000,-0.422500,-0.100000,-0.450784,-0.088284,-0.462500,-0.060000,-0.462500,0.060000,-0.450784,0.088284,-0.422500,0.100000,0.422500,0.100000,0.450784,0.088284,0.450784,0.088284,$1*%
%AMFreePoly2*
4,1,14,0.088284,0.450784,0.100000,0.422500,0.100000,-0.422500,0.088284,-0.450784,0.060000,-0.462500,-0.060000,-0.462500,-0.088284,-0.450784,-0.100000,-0.422500,-0.100000,0.325931,-0.088284,0.354215,0.008285,0.450784,0.036569,0.462500,0.060000,0.462500,0.088284,0.450784,0.088284,0.450784,$1*%
%AMFreePoly3*
4,1,14,-0.008285,0.450784,0.088284,0.354215,0.100000,0.325931,0.100000,-0.422500,0.088284,-0.450784,0.060000,-0.462500,-0.060000,-0.462500,-0.088284,-0.450784,-0.100000,-0.422500,-0.100000,0.422500,-0.088284,0.450784,-0.060000,0.462500,-0.036569,0.462500,-0.008285,0.450784,-0.008285,0.450784,$1*%
%AMFreePoly4*
4,1,14,0.450784,0.088284,0.462500,0.060000,0.462500,-0.060000,0.450784,-0.088284,0.422500,-0.100000,-0.325931,-0.100000,-0.354215,-0.088284,-0.450784,0.008285,-0.462500,0.036569,-0.462500,0.060000,-0.450784,0.088284,-0.422500,0.100000,0.422500,0.100000,0.450784,0.088284,0.450784,0.088284,$1*%
%AMFreePoly5*
4,1,14,0.450784,0.088284,0.462500,0.060000,0.462500,-0.060000,0.450784,-0.088284,0.422500,-0.100000,-0.422500,-0.100000,-0.450784,-0.088284,-0.462500,-0.060000,-0.462500,-0.036569,-0.450784,-0.008285,-0.354215,0.088284,-0.325931,0.100000,0.422500,0.100000,0.450784,0.088284,0.450784,0.088284,$1*%
%AMFreePoly6*
4,1,14,0.088284,0.450784,0.100000,0.422500,0.100000,-0.325931,0.088284,-0.354215,-0.008285,-0.450784,-0.036569,-0.462500,-0.060000,-0.462500,-0.088284,-0.450784,-0.100000,-0.422500,-0.100000,0.422500,-0.088284,0.450784,-0.060000,0.462500,0.060000,0.462500,0.088284,0.450784,0.088284,0.450784,$1*%
%AMFreePoly7*
4,1,14,0.088284,0.450784,0.100000,0.422500,0.100000,-0.422500,0.088284,-0.450784,0.060000,-0.462500,0.036569,-0.462500,0.008285,-0.450784,-0.088284,-0.354215,-0.100000,-0.325931,-0.100000,0.422500,-0.088284,0.450784,-0.060000,0.462500,0.060000,0.462500,0.088284,0.450784,0.088284,0.450784,$1*%
G04 Aperture macros list end*
%ADD10RoundRect,0.135000X-0.185000X0.135000X-0.185000X-0.135000X0.185000X-0.135000X0.185000X0.135000X0*%
%ADD11RoundRect,0.140000X0.170000X-0.140000X0.170000X0.140000X-0.170000X0.140000X-0.170000X-0.140000X0*%
%ADD12RoundRect,0.140000X-0.170000X0.140000X-0.170000X-0.140000X0.170000X-0.140000X0.170000X0.140000X0*%
%ADD13RoundRect,0.125000X-0.375000X0.125000X-0.375000X-0.125000X0.375000X-0.125000X0.375000X0.125000X0*%
%ADD14RoundRect,0.225000X-0.575000X0.225000X-0.575000X-0.225000X0.575000X-0.225000X0.575000X0.225000X0*%
%ADD15R,1.600000X0.300000*%
%ADD16RoundRect,0.135000X0.135000X0.185000X-0.135000X0.185000X-0.135000X-0.185000X0.135000X-0.185000X0*%
%ADD17RoundRect,0.250000X0.375000X1.075000X-0.375000X1.075000X-0.375000X-1.075000X0.375000X-1.075000X0*%
%ADD18RoundRect,0.140000X0.140000X0.170000X-0.140000X0.170000X-0.140000X-0.170000X0.140000X-0.170000X0*%
%ADD19R,0.965200X0.304800*%
%ADD20R,0.304800X0.965200*%
%ADD21R,2.260600X2.260600*%
%ADD22RoundRect,0.150000X-0.150000X0.512500X-0.150000X-0.512500X0.150000X-0.512500X0.150000X0.512500X0*%
%ADD23FreePoly0,90.000000*%
%ADD24RoundRect,0.050000X0.050000X-0.412500X0.050000X0.412500X-0.050000X0.412500X-0.050000X-0.412500X0*%
%ADD25FreePoly1,90.000000*%
%ADD26FreePoly2,90.000000*%
%ADD27RoundRect,0.050000X0.412500X-0.050000X0.412500X0.050000X-0.412500X0.050000X-0.412500X-0.050000X0*%
%ADD28FreePoly3,90.000000*%
%ADD29FreePoly4,90.000000*%
%ADD30FreePoly5,90.000000*%
%ADD31FreePoly6,90.000000*%
%ADD32FreePoly7,90.000000*%
%ADD33RoundRect,0.140000X-0.140000X-0.170000X0.140000X-0.170000X0.140000X0.170000X-0.140000X0.170000X0*%
%ADD34RoundRect,0.150000X0.150000X-0.512500X0.150000X0.512500X-0.150000X0.512500X-0.150000X-0.512500X0*%
%ADD35RoundRect,0.135000X0.185000X-0.135000X0.185000X0.135000X-0.185000X0.135000X-0.185000X-0.135000X0*%
%ADD36RoundRect,0.125000X0.375000X-0.125000X0.375000X0.125000X-0.375000X0.125000X-0.375000X-0.125000X0*%
%ADD37RoundRect,0.225000X0.575000X-0.225000X0.575000X0.225000X-0.575000X0.225000X-0.575000X-0.225000X0*%
G04 APERTURE END LIST*
D10*
%TO.C,R51*%
X71700000Y-117390000D03*
X71700000Y-118410000D03*
%TD*%
D11*
%TO.C,C86*%
X114489588Y-112660000D03*
X114489588Y-111700000D03*
%TD*%
D12*
%TO.C,C80*%
X116289588Y-113940000D03*
X116289588Y-114900000D03*
%TD*%
D13*
%TO.C,J5*%
X70220000Y-113800000D03*
X70220000Y-114600000D03*
X70220000Y-115400000D03*
X70220000Y-116200000D03*
X70220000Y-117000000D03*
D14*
X68300000Y-118250000D03*
X68300000Y-112550000D03*
%TD*%
D15*
%TO.C,J11*%
X94200000Y-117950000D03*
X94200000Y-117450000D03*
X94200000Y-116950000D03*
X94200000Y-116450000D03*
X94200000Y-115950000D03*
X94200000Y-115450000D03*
X94200000Y-114950000D03*
X94200000Y-114450000D03*
X94200000Y-113950000D03*
X94200000Y-113450000D03*
X97800000Y-117950000D03*
X97800000Y-117450000D03*
X97800000Y-116950000D03*
X97800000Y-116450000D03*
X97800000Y-115950000D03*
X97800000Y-115450000D03*
X97800000Y-114950000D03*
X97800000Y-114450000D03*
X97800000Y-113950000D03*
X97800000Y-113450000D03*
%TD*%
D10*
%TO.C,R80*%
X117589588Y-113910000D03*
X117589588Y-114930000D03*
%TD*%
D16*
%TO.C,R42*%
X105620000Y-116800000D03*
X104600000Y-116800000D03*
%TD*%
%TO.C,R41*%
X105620000Y-115500000D03*
X104600000Y-115500000D03*
%TD*%
D17*
%TO.C,L50*%
X76225000Y-118400000D03*
X73425000Y-118400000D03*
%TD*%
D18*
%TO.C,C85*%
X113475000Y-118750000D03*
X112515000Y-118750000D03*
%TD*%
D11*
%TO.C,C83*%
X118305000Y-117930000D03*
X118305000Y-116970000D03*
%TD*%
D13*
%TO.C,J80*%
X91315724Y-114070000D03*
X91315724Y-114870000D03*
X91315724Y-115670000D03*
X91315724Y-116470000D03*
X91315724Y-117270000D03*
D14*
X89395724Y-118520000D03*
X89395724Y-112820000D03*
%TD*%
D10*
%TO.C,R82*%
X116889588Y-111670000D03*
X116889588Y-112690000D03*
%TD*%
D16*
%TO.C,R87*%
X118155000Y-119100000D03*
X117135000Y-119100000D03*
%TD*%
D19*
%TO.C,U8*%
X119522688Y-114999999D03*
X119522688Y-115800000D03*
X119522688Y-116600001D03*
D20*
X120589587Y-117666900D03*
X121389588Y-117666900D03*
X122189589Y-117666900D03*
D19*
X123256488Y-116600001D03*
X123256488Y-115800000D03*
X123256488Y-114999999D03*
D20*
X122189589Y-113933100D03*
X121389588Y-113933100D03*
X120589587Y-113933100D03*
D21*
X121389588Y-115800000D03*
%TD*%
D22*
%TO.C,U6*%
X102550000Y-113162500D03*
X101600000Y-113162500D03*
X100650000Y-113162500D03*
X100650000Y-115437500D03*
X102550000Y-115437500D03*
%TD*%
D10*
%TO.C,R84*%
X113689588Y-113910000D03*
X113689588Y-114930000D03*
%TD*%
D16*
%TO.C,R81*%
X115705000Y-117400000D03*
X114685000Y-117400000D03*
%TD*%
D23*
%TO.C,U4*%
X107600000Y-114887500D03*
D24*
X108000000Y-114887500D03*
X108400000Y-114887500D03*
X108800000Y-114887500D03*
D25*
X109200000Y-114887500D03*
D26*
X109787500Y-114300000D03*
D27*
X109787500Y-113900000D03*
X109787500Y-113500000D03*
X109787500Y-113100000D03*
D28*
X109787500Y-112700000D03*
D29*
X109200000Y-112112500D03*
D24*
X108800000Y-112112500D03*
X108400000Y-112112500D03*
X108000000Y-112112500D03*
D30*
X107600000Y-112112500D03*
D31*
X107012500Y-112700000D03*
D27*
X107012500Y-113100000D03*
X107012500Y-113500000D03*
X107012500Y-113900000D03*
D32*
X107012500Y-114300000D03*
%TD*%
D33*
%TO.C,C89*%
X122725000Y-118800000D03*
X123685000Y-118800000D03*
%TD*%
D18*
%TO.C,C40*%
X105180000Y-113600000D03*
X104220000Y-113600000D03*
%TD*%
D34*
%TO.C,U5*%
X74750000Y-114537500D03*
X75700000Y-114537500D03*
X76650000Y-114537500D03*
X76650000Y-112262500D03*
X74750000Y-112262500D03*
%TD*%
D35*
%TO.C,R83*%
X116955000Y-117960000D03*
X116955000Y-116940000D03*
%TD*%
%TO.C,R40*%
X110065000Y-117565000D03*
X110065000Y-116545000D03*
%TD*%
D11*
%TO.C,C50*%
X72700000Y-115080000D03*
X72700000Y-114120000D03*
%TD*%
D10*
%TO.C,R50*%
X72700000Y-111790000D03*
X72700000Y-112810000D03*
%TD*%
D11*
%TO.C,C82*%
X118189588Y-112660000D03*
X118189588Y-111700000D03*
%TD*%
D18*
%TO.C,C810*%
X123269588Y-112600000D03*
X122309588Y-112600000D03*
%TD*%
D33*
%TO.C,C88*%
X119542688Y-112600000D03*
X120502688Y-112600000D03*
%TD*%
D11*
%TO.C,C51*%
X78100000Y-113280000D03*
X78100000Y-112320000D03*
%TD*%
D12*
%TO.C,C84*%
X114989588Y-113940000D03*
X114989588Y-114900000D03*
%TD*%
D18*
%TO.C,C81*%
X113475000Y-117400000D03*
X112515000Y-117400000D03*
%TD*%
D12*
%TO.C,C41*%
X108665000Y-116575000D03*
X108665000Y-117535000D03*
%TD*%
D36*
%TO.C,J81*%
X126970000Y-116890000D03*
X126970000Y-116090000D03*
X126970000Y-115290000D03*
X126970000Y-114490000D03*
X126970000Y-113690000D03*
D37*
X128890000Y-118140000D03*
X128890000Y-112440000D03*
%TD*%
D33*
%TO.C,C87*%
X119375000Y-119100000D03*
X120335000Y-119100000D03*
%TD*%
D10*
%TO.C,R86*%
X115689588Y-111670000D03*
X115689588Y-112690000D03*
%TD*%
D16*
%TO.C,R85*%
X115715000Y-118750000D03*
X114695000Y-118750000D03*
%TD*%
M02*
