%TF.GenerationSoftware,KiCad,Pcbnew,(6.0.0)*%
%TF.CreationDate,2022-04-23T18:16:59+01:00*%
%TF.ProjectId,pcb O,70636220-4f2e-46b6-9963-61645f706362,rev?*%
%TF.SameCoordinates,Original*%
%TF.FileFunction,Legend,Top*%
%TF.FilePolarity,Positive*%
%FSLAX46Y46*%
G04 Gerber Fmt 4.6, Leading zero omitted, Abs format (unit mm)*
G04 Created by KiCad (PCBNEW (6.0.0)) date 2022-04-23 18:16:59*
%MOMM*%
%LPD*%
G01*
G04 APERTURE LIST*
%ADD10C,0.150000*%
%ADD11C,0.120000*%
%ADD12C,0.100000*%
G04 APERTURE END LIST*
D10*
X112900000Y-116100000D02*
X112900000Y-111100000D01*
X107600000Y-118100000D02*
X108000000Y-117700000D01*
X112900000Y-111100000D02*
X118700000Y-111100000D01*
X111800000Y-116100000D02*
X112700000Y-116100000D01*
X112700000Y-116100000D02*
X118600000Y-116100000D01*
X111800000Y-117200000D02*
X111800000Y-116100000D01*
X113700000Y-110400000D02*
X113700000Y-111100000D01*
X111800000Y-120000000D02*
X111800000Y-117200000D01*
X104100000Y-118000000D02*
X104500000Y-117500000D01*
X109200000Y-118200000D02*
X109500000Y-117900000D01*
X112500000Y-116100000D02*
X112500000Y-110600000D01*
X103700000Y-116500000D02*
X104100000Y-116000000D01*
X112500000Y-110600000D02*
X112000000Y-110000000D01*
%TO.C,R51*%
X71057142Y-119852380D02*
X70723809Y-119376190D01*
X70485714Y-119852380D02*
X70485714Y-118852380D01*
X70866666Y-118852380D01*
X70961904Y-118900000D01*
X71009523Y-118947619D01*
X71057142Y-119042857D01*
X71057142Y-119185714D01*
X71009523Y-119280952D01*
X70961904Y-119328571D01*
X70866666Y-119376190D01*
X70485714Y-119376190D01*
X71961904Y-118852380D02*
X71485714Y-118852380D01*
X71438095Y-119328571D01*
X71485714Y-119280952D01*
X71580952Y-119233333D01*
X71819047Y-119233333D01*
X71914285Y-119280952D01*
X71961904Y-119328571D01*
X72009523Y-119423809D01*
X72009523Y-119661904D01*
X71961904Y-119757142D01*
X71914285Y-119804761D01*
X71819047Y-119852380D01*
X71580952Y-119852380D01*
X71485714Y-119804761D01*
X71438095Y-119757142D01*
X72961904Y-119852380D02*
X72390476Y-119852380D01*
X72676190Y-119852380D02*
X72676190Y-118852380D01*
X72580952Y-118995238D01*
X72485714Y-119090476D01*
X72390476Y-119138095D01*
%TO.C,C86*%
X115246730Y-106642857D02*
X115294349Y-106690476D01*
X115341968Y-106833333D01*
X115341968Y-106928571D01*
X115294349Y-107071428D01*
X115199111Y-107166666D01*
X115103873Y-107214285D01*
X114913397Y-107261904D01*
X114770540Y-107261904D01*
X114580064Y-107214285D01*
X114484826Y-107166666D01*
X114389588Y-107071428D01*
X114341968Y-106928571D01*
X114341968Y-106833333D01*
X114389588Y-106690476D01*
X114437207Y-106642857D01*
X114770540Y-106071428D02*
X114722921Y-106166666D01*
X114675302Y-106214285D01*
X114580064Y-106261904D01*
X114532445Y-106261904D01*
X114437207Y-106214285D01*
X114389588Y-106166666D01*
X114341968Y-106071428D01*
X114341968Y-105880952D01*
X114389588Y-105785714D01*
X114437207Y-105738095D01*
X114532445Y-105690476D01*
X114580064Y-105690476D01*
X114675302Y-105738095D01*
X114722921Y-105785714D01*
X114770540Y-105880952D01*
X114770540Y-106071428D01*
X114818159Y-106166666D01*
X114865778Y-106214285D01*
X114961016Y-106261904D01*
X115151492Y-106261904D01*
X115246730Y-106214285D01*
X115294349Y-106166666D01*
X115341968Y-106071428D01*
X115341968Y-105880952D01*
X115294349Y-105785714D01*
X115246730Y-105738095D01*
X115151492Y-105690476D01*
X114961016Y-105690476D01*
X114865778Y-105738095D01*
X114818159Y-105785714D01*
X114770540Y-105880952D01*
X114341968Y-104833333D02*
X114341968Y-105023809D01*
X114389588Y-105119047D01*
X114437207Y-105166666D01*
X114580064Y-105261904D01*
X114770540Y-105309523D01*
X115151492Y-105309523D01*
X115246730Y-105261904D01*
X115294349Y-105214285D01*
X115341968Y-105119047D01*
X115341968Y-104928571D01*
X115294349Y-104833333D01*
X115246730Y-104785714D01*
X115151492Y-104738095D01*
X114913397Y-104738095D01*
X114818159Y-104785714D01*
X114770540Y-104833333D01*
X114722921Y-104928571D01*
X114722921Y-105119047D01*
X114770540Y-105214285D01*
X114818159Y-105261904D01*
X114913397Y-105309523D01*
%TO.C,C80*%
X116646730Y-109642857D02*
X116694349Y-109690476D01*
X116741968Y-109833333D01*
X116741968Y-109928571D01*
X116694349Y-110071428D01*
X116599111Y-110166666D01*
X116503873Y-110214285D01*
X116313397Y-110261904D01*
X116170540Y-110261904D01*
X115980064Y-110214285D01*
X115884826Y-110166666D01*
X115789588Y-110071428D01*
X115741968Y-109928571D01*
X115741968Y-109833333D01*
X115789588Y-109690476D01*
X115837207Y-109642857D01*
X116170540Y-109071428D02*
X116122921Y-109166666D01*
X116075302Y-109214285D01*
X115980064Y-109261904D01*
X115932445Y-109261904D01*
X115837207Y-109214285D01*
X115789588Y-109166666D01*
X115741968Y-109071428D01*
X115741968Y-108880952D01*
X115789588Y-108785714D01*
X115837207Y-108738095D01*
X115932445Y-108690476D01*
X115980064Y-108690476D01*
X116075302Y-108738095D01*
X116122921Y-108785714D01*
X116170540Y-108880952D01*
X116170540Y-109071428D01*
X116218159Y-109166666D01*
X116265778Y-109214285D01*
X116361016Y-109261904D01*
X116551492Y-109261904D01*
X116646730Y-109214285D01*
X116694349Y-109166666D01*
X116741968Y-109071428D01*
X116741968Y-108880952D01*
X116694349Y-108785714D01*
X116646730Y-108738095D01*
X116551492Y-108690476D01*
X116361016Y-108690476D01*
X116265778Y-108738095D01*
X116218159Y-108785714D01*
X116170540Y-108880952D01*
X115741968Y-108071428D02*
X115741968Y-107976190D01*
X115789588Y-107880952D01*
X115837207Y-107833333D01*
X115932445Y-107785714D01*
X116122921Y-107738095D01*
X116361016Y-107738095D01*
X116551492Y-107785714D01*
X116646730Y-107833333D01*
X116694349Y-107880952D01*
X116741968Y-107976190D01*
X116741968Y-108071428D01*
X116694349Y-108166666D01*
X116646730Y-108214285D01*
X116551492Y-108261904D01*
X116361016Y-108309523D01*
X116122921Y-108309523D01*
X115932445Y-108261904D01*
X115837207Y-108214285D01*
X115789588Y-108166666D01*
X115741968Y-108071428D01*
%TO.C,J5*%
X68496666Y-110712380D02*
X68496666Y-111426666D01*
X68449047Y-111569523D01*
X68353809Y-111664761D01*
X68210952Y-111712380D01*
X68115714Y-111712380D01*
X69449047Y-110712380D02*
X68972857Y-110712380D01*
X68925238Y-111188571D01*
X68972857Y-111140952D01*
X69068095Y-111093333D01*
X69306190Y-111093333D01*
X69401428Y-111140952D01*
X69449047Y-111188571D01*
X69496666Y-111283809D01*
X69496666Y-111521904D01*
X69449047Y-111617142D01*
X69401428Y-111664761D01*
X69306190Y-111712380D01*
X69068095Y-111712380D01*
X68972857Y-111664761D01*
X68925238Y-111617142D01*
%TO.C,J11*%
X95190476Y-110752380D02*
X95190476Y-111466666D01*
X95142857Y-111609523D01*
X95047619Y-111704761D01*
X94904761Y-111752380D01*
X94809523Y-111752380D01*
X96190476Y-111752380D02*
X95619047Y-111752380D01*
X95904761Y-111752380D02*
X95904761Y-110752380D01*
X95809523Y-110895238D01*
X95714285Y-110990476D01*
X95619047Y-111038095D01*
X97142857Y-111752380D02*
X96571428Y-111752380D01*
X96857142Y-111752380D02*
X96857142Y-110752380D01*
X96761904Y-110895238D01*
X96666666Y-110990476D01*
X96571428Y-111038095D01*
%TO.C,R80*%
X118141968Y-109642857D02*
X117665778Y-109976190D01*
X118141968Y-110214285D02*
X117141968Y-110214285D01*
X117141968Y-109833333D01*
X117189588Y-109738095D01*
X117237207Y-109690476D01*
X117332445Y-109642857D01*
X117475302Y-109642857D01*
X117570540Y-109690476D01*
X117618159Y-109738095D01*
X117665778Y-109833333D01*
X117665778Y-110214285D01*
X117570540Y-109071428D02*
X117522921Y-109166666D01*
X117475302Y-109214285D01*
X117380064Y-109261904D01*
X117332445Y-109261904D01*
X117237207Y-109214285D01*
X117189588Y-109166666D01*
X117141968Y-109071428D01*
X117141968Y-108880952D01*
X117189588Y-108785714D01*
X117237207Y-108738095D01*
X117332445Y-108690476D01*
X117380064Y-108690476D01*
X117475302Y-108738095D01*
X117522921Y-108785714D01*
X117570540Y-108880952D01*
X117570540Y-109071428D01*
X117618159Y-109166666D01*
X117665778Y-109214285D01*
X117761016Y-109261904D01*
X117951492Y-109261904D01*
X118046730Y-109214285D01*
X118094349Y-109166666D01*
X118141968Y-109071428D01*
X118141968Y-108880952D01*
X118094349Y-108785714D01*
X118046730Y-108738095D01*
X117951492Y-108690476D01*
X117761016Y-108690476D01*
X117665778Y-108738095D01*
X117618159Y-108785714D01*
X117570540Y-108880952D01*
X117141968Y-108071428D02*
X117141968Y-107976190D01*
X117189588Y-107880952D01*
X117237207Y-107833333D01*
X117332445Y-107785714D01*
X117522921Y-107738095D01*
X117761016Y-107738095D01*
X117951492Y-107785714D01*
X118046730Y-107833333D01*
X118094349Y-107880952D01*
X118141968Y-107976190D01*
X118141968Y-108071428D01*
X118094349Y-108166666D01*
X118046730Y-108214285D01*
X117951492Y-108261904D01*
X117761016Y-108309523D01*
X117522921Y-108309523D01*
X117332445Y-108261904D01*
X117237207Y-108214285D01*
X117189588Y-108166666D01*
X117141968Y-108071428D01*
%TO.C,R42*%
X101757142Y-119052380D02*
X101423809Y-118576190D01*
X101185714Y-119052380D02*
X101185714Y-118052380D01*
X101566666Y-118052380D01*
X101661904Y-118100000D01*
X101709523Y-118147619D01*
X101757142Y-118242857D01*
X101757142Y-118385714D01*
X101709523Y-118480952D01*
X101661904Y-118528571D01*
X101566666Y-118576190D01*
X101185714Y-118576190D01*
X102614285Y-118385714D02*
X102614285Y-119052380D01*
X102376190Y-118004761D02*
X102138095Y-118719047D01*
X102757142Y-118719047D01*
X103090476Y-118147619D02*
X103138095Y-118100000D01*
X103233333Y-118052380D01*
X103471428Y-118052380D01*
X103566666Y-118100000D01*
X103614285Y-118147619D01*
X103661904Y-118242857D01*
X103661904Y-118338095D01*
X103614285Y-118480952D01*
X103042857Y-119052380D01*
X103661904Y-119052380D01*
%TO.C,R41*%
X101757142Y-117752380D02*
X101423809Y-117276190D01*
X101185714Y-117752380D02*
X101185714Y-116752380D01*
X101566666Y-116752380D01*
X101661904Y-116800000D01*
X101709523Y-116847619D01*
X101757142Y-116942857D01*
X101757142Y-117085714D01*
X101709523Y-117180952D01*
X101661904Y-117228571D01*
X101566666Y-117276190D01*
X101185714Y-117276190D01*
X102614285Y-117085714D02*
X102614285Y-117752380D01*
X102376190Y-116704761D02*
X102138095Y-117419047D01*
X102757142Y-117419047D01*
X103661904Y-117752380D02*
X103090476Y-117752380D01*
X103376190Y-117752380D02*
X103376190Y-116752380D01*
X103280952Y-116895238D01*
X103185714Y-116990476D01*
X103090476Y-117038095D01*
%TO.C,L50*%
X74907142Y-116752380D02*
X74430952Y-116752380D01*
X74430952Y-115752380D01*
X75716666Y-115752380D02*
X75240476Y-115752380D01*
X75192857Y-116228571D01*
X75240476Y-116180952D01*
X75335714Y-116133333D01*
X75573809Y-116133333D01*
X75669047Y-116180952D01*
X75716666Y-116228571D01*
X75764285Y-116323809D01*
X75764285Y-116561904D01*
X75716666Y-116657142D01*
X75669047Y-116704761D01*
X75573809Y-116752380D01*
X75335714Y-116752380D01*
X75240476Y-116704761D01*
X75192857Y-116657142D01*
X76383333Y-115752380D02*
X76478571Y-115752380D01*
X76573809Y-115800000D01*
X76621428Y-115847619D01*
X76669047Y-115942857D01*
X76716666Y-116133333D01*
X76716666Y-116371428D01*
X76669047Y-116561904D01*
X76621428Y-116657142D01*
X76573809Y-116704761D01*
X76478571Y-116752380D01*
X76383333Y-116752380D01*
X76288095Y-116704761D01*
X76240476Y-116657142D01*
X76192857Y-116561904D01*
X76145238Y-116371428D01*
X76145238Y-116133333D01*
X76192857Y-115942857D01*
X76240476Y-115847619D01*
X76288095Y-115800000D01*
X76383333Y-115752380D01*
%TO.C,C85*%
X98112963Y-109657142D02*
X98065344Y-109704761D01*
X97922487Y-109752380D01*
X97827249Y-109752380D01*
X97684392Y-109704761D01*
X97589154Y-109609523D01*
X97541535Y-109514285D01*
X97493916Y-109323809D01*
X97493916Y-109180952D01*
X97541535Y-108990476D01*
X97589154Y-108895238D01*
X97684392Y-108800000D01*
X97827249Y-108752380D01*
X97922487Y-108752380D01*
X98065344Y-108800000D01*
X98112963Y-108847619D01*
X98684392Y-109180952D02*
X98589154Y-109133333D01*
X98541535Y-109085714D01*
X98493916Y-108990476D01*
X98493916Y-108942857D01*
X98541535Y-108847619D01*
X98589154Y-108800000D01*
X98684392Y-108752380D01*
X98874868Y-108752380D01*
X98970106Y-108800000D01*
X99017725Y-108847619D01*
X99065344Y-108942857D01*
X99065344Y-108990476D01*
X99017725Y-109085714D01*
X98970106Y-109133333D01*
X98874868Y-109180952D01*
X98684392Y-109180952D01*
X98589154Y-109228571D01*
X98541535Y-109276190D01*
X98493916Y-109371428D01*
X98493916Y-109561904D01*
X98541535Y-109657142D01*
X98589154Y-109704761D01*
X98684392Y-109752380D01*
X98874868Y-109752380D01*
X98970106Y-109704761D01*
X99017725Y-109657142D01*
X99065344Y-109561904D01*
X99065344Y-109371428D01*
X99017725Y-109276190D01*
X98970106Y-109228571D01*
X98874868Y-109180952D01*
X99970106Y-108752380D02*
X99493916Y-108752380D01*
X99446297Y-109228571D01*
X99493916Y-109180952D01*
X99589154Y-109133333D01*
X99827249Y-109133333D01*
X99922487Y-109180952D01*
X99970106Y-109228571D01*
X100017725Y-109323809D01*
X100017725Y-109561904D01*
X99970106Y-109657142D01*
X99922487Y-109704761D01*
X99827249Y-109752380D01*
X99589154Y-109752380D01*
X99493916Y-109704761D01*
X99446297Y-109657142D01*
%TO.C,C83*%
X105912963Y-107642857D02*
X105960582Y-107690476D01*
X106008201Y-107833333D01*
X106008201Y-107928571D01*
X105960582Y-108071428D01*
X105865344Y-108166666D01*
X105770106Y-108214285D01*
X105579630Y-108261904D01*
X105436773Y-108261904D01*
X105246297Y-108214285D01*
X105151059Y-108166666D01*
X105055821Y-108071428D01*
X105008201Y-107928571D01*
X105008201Y-107833333D01*
X105055821Y-107690476D01*
X105103440Y-107642857D01*
X105436773Y-107071428D02*
X105389154Y-107166666D01*
X105341535Y-107214285D01*
X105246297Y-107261904D01*
X105198678Y-107261904D01*
X105103440Y-107214285D01*
X105055821Y-107166666D01*
X105008201Y-107071428D01*
X105008201Y-106880952D01*
X105055821Y-106785714D01*
X105103440Y-106738095D01*
X105198678Y-106690476D01*
X105246297Y-106690476D01*
X105341535Y-106738095D01*
X105389154Y-106785714D01*
X105436773Y-106880952D01*
X105436773Y-107071428D01*
X105484392Y-107166666D01*
X105532011Y-107214285D01*
X105627249Y-107261904D01*
X105817725Y-107261904D01*
X105912963Y-107214285D01*
X105960582Y-107166666D01*
X106008201Y-107071428D01*
X106008201Y-106880952D01*
X105960582Y-106785714D01*
X105912963Y-106738095D01*
X105817725Y-106690476D01*
X105627249Y-106690476D01*
X105532011Y-106738095D01*
X105484392Y-106785714D01*
X105436773Y-106880952D01*
X105008201Y-106357142D02*
X105008201Y-105738095D01*
X105389154Y-106071428D01*
X105389154Y-105928571D01*
X105436773Y-105833333D01*
X105484392Y-105785714D01*
X105579630Y-105738095D01*
X105817725Y-105738095D01*
X105912963Y-105785714D01*
X105960582Y-105833333D01*
X106008201Y-105928571D01*
X106008201Y-106214285D01*
X105960582Y-106309523D01*
X105912963Y-106357142D01*
%TO.C,J80*%
X89050476Y-110872380D02*
X89050476Y-111586666D01*
X89002857Y-111729523D01*
X88907619Y-111824761D01*
X88764761Y-111872380D01*
X88669523Y-111872380D01*
X89669523Y-111300952D02*
X89574285Y-111253333D01*
X89526666Y-111205714D01*
X89479047Y-111110476D01*
X89479047Y-111062857D01*
X89526666Y-110967619D01*
X89574285Y-110920000D01*
X89669523Y-110872380D01*
X89860000Y-110872380D01*
X89955238Y-110920000D01*
X90002857Y-110967619D01*
X90050476Y-111062857D01*
X90050476Y-111110476D01*
X90002857Y-111205714D01*
X89955238Y-111253333D01*
X89860000Y-111300952D01*
X89669523Y-111300952D01*
X89574285Y-111348571D01*
X89526666Y-111396190D01*
X89479047Y-111491428D01*
X89479047Y-111681904D01*
X89526666Y-111777142D01*
X89574285Y-111824761D01*
X89669523Y-111872380D01*
X89860000Y-111872380D01*
X89955238Y-111824761D01*
X90002857Y-111777142D01*
X90050476Y-111681904D01*
X90050476Y-111491428D01*
X90002857Y-111396190D01*
X89955238Y-111348571D01*
X89860000Y-111300952D01*
X90669523Y-110872380D02*
X90764761Y-110872380D01*
X90860000Y-110920000D01*
X90907619Y-110967619D01*
X90955238Y-111062857D01*
X91002857Y-111253333D01*
X91002857Y-111491428D01*
X90955238Y-111681904D01*
X90907619Y-111777142D01*
X90860000Y-111824761D01*
X90764761Y-111872380D01*
X90669523Y-111872380D01*
X90574285Y-111824761D01*
X90526666Y-111777142D01*
X90479047Y-111681904D01*
X90431428Y-111491428D01*
X90431428Y-111253333D01*
X90479047Y-111062857D01*
X90526666Y-110967619D01*
X90574285Y-110920000D01*
X90669523Y-110872380D01*
%TO.C,R82*%
X118341968Y-106642857D02*
X117865778Y-106976190D01*
X118341968Y-107214285D02*
X117341968Y-107214285D01*
X117341968Y-106833333D01*
X117389588Y-106738095D01*
X117437207Y-106690476D01*
X117532445Y-106642857D01*
X117675302Y-106642857D01*
X117770540Y-106690476D01*
X117818159Y-106738095D01*
X117865778Y-106833333D01*
X117865778Y-107214285D01*
X117770540Y-106071428D02*
X117722921Y-106166666D01*
X117675302Y-106214285D01*
X117580064Y-106261904D01*
X117532445Y-106261904D01*
X117437207Y-106214285D01*
X117389588Y-106166666D01*
X117341968Y-106071428D01*
X117341968Y-105880952D01*
X117389588Y-105785714D01*
X117437207Y-105738095D01*
X117532445Y-105690476D01*
X117580064Y-105690476D01*
X117675302Y-105738095D01*
X117722921Y-105785714D01*
X117770540Y-105880952D01*
X117770540Y-106071428D01*
X117818159Y-106166666D01*
X117865778Y-106214285D01*
X117961016Y-106261904D01*
X118151492Y-106261904D01*
X118246730Y-106214285D01*
X118294349Y-106166666D01*
X118341968Y-106071428D01*
X118341968Y-105880952D01*
X118294349Y-105785714D01*
X118246730Y-105738095D01*
X118151492Y-105690476D01*
X117961016Y-105690476D01*
X117865778Y-105738095D01*
X117818159Y-105785714D01*
X117770540Y-105880952D01*
X117437207Y-105309523D02*
X117389588Y-105261904D01*
X117341968Y-105166666D01*
X117341968Y-104928571D01*
X117389588Y-104833333D01*
X117437207Y-104785714D01*
X117532445Y-104738095D01*
X117627683Y-104738095D01*
X117770540Y-104785714D01*
X118341968Y-105357142D01*
X118341968Y-104738095D01*
%TO.C,R87*%
X104012963Y-109752380D02*
X103679630Y-109276190D01*
X103441535Y-109752380D02*
X103441535Y-108752380D01*
X103822487Y-108752380D01*
X103917725Y-108800000D01*
X103965344Y-108847619D01*
X104012963Y-108942857D01*
X104012963Y-109085714D01*
X103965344Y-109180952D01*
X103917725Y-109228571D01*
X103822487Y-109276190D01*
X103441535Y-109276190D01*
X104584392Y-109180952D02*
X104489154Y-109133333D01*
X104441535Y-109085714D01*
X104393916Y-108990476D01*
X104393916Y-108942857D01*
X104441535Y-108847619D01*
X104489154Y-108800000D01*
X104584392Y-108752380D01*
X104774868Y-108752380D01*
X104870106Y-108800000D01*
X104917725Y-108847619D01*
X104965344Y-108942857D01*
X104965344Y-108990476D01*
X104917725Y-109085714D01*
X104870106Y-109133333D01*
X104774868Y-109180952D01*
X104584392Y-109180952D01*
X104489154Y-109228571D01*
X104441535Y-109276190D01*
X104393916Y-109371428D01*
X104393916Y-109561904D01*
X104441535Y-109657142D01*
X104489154Y-109704761D01*
X104584392Y-109752380D01*
X104774868Y-109752380D01*
X104870106Y-109704761D01*
X104917725Y-109657142D01*
X104965344Y-109561904D01*
X104965344Y-109371428D01*
X104917725Y-109276190D01*
X104870106Y-109228571D01*
X104774868Y-109180952D01*
X105298678Y-108752380D02*
X105965344Y-108752380D01*
X105536773Y-109752380D01*
%TO.C,U8*%
X124338095Y-117052380D02*
X124338095Y-117861904D01*
X124385714Y-117957142D01*
X124433333Y-118004761D01*
X124528571Y-118052380D01*
X124719047Y-118052380D01*
X124814285Y-118004761D01*
X124861904Y-117957142D01*
X124909523Y-117861904D01*
X124909523Y-117052380D01*
X125528571Y-117480952D02*
X125433333Y-117433333D01*
X125385714Y-117385714D01*
X125338095Y-117290476D01*
X125338095Y-117242857D01*
X125385714Y-117147619D01*
X125433333Y-117100000D01*
X125528571Y-117052380D01*
X125719047Y-117052380D01*
X125814285Y-117100000D01*
X125861904Y-117147619D01*
X125909523Y-117242857D01*
X125909523Y-117290476D01*
X125861904Y-117385714D01*
X125814285Y-117433333D01*
X125719047Y-117480952D01*
X125528571Y-117480952D01*
X125433333Y-117528571D01*
X125385714Y-117576190D01*
X125338095Y-117671428D01*
X125338095Y-117861904D01*
X125385714Y-117957142D01*
X125433333Y-118004761D01*
X125528571Y-118052380D01*
X125719047Y-118052380D01*
X125814285Y-118004761D01*
X125861904Y-117957142D01*
X125909523Y-117861904D01*
X125909523Y-117671428D01*
X125861904Y-117576190D01*
X125814285Y-117528571D01*
X125719047Y-117480952D01*
X118405088Y-114052380D02*
X118405088Y-114290476D01*
X118166992Y-114195238D02*
X118405088Y-114290476D01*
X118643183Y-114195238D01*
X118262230Y-114480952D02*
X118405088Y-114290476D01*
X118547945Y-114480952D01*
X118405088Y-114052380D02*
X118405088Y-114290476D01*
X118166992Y-114195238D02*
X118405088Y-114290476D01*
X118643183Y-114195238D01*
X118262230Y-114480952D02*
X118405088Y-114290476D01*
X118547945Y-114480952D01*
%TO.C,U6*%
X100838095Y-110952380D02*
X100838095Y-111761904D01*
X100885714Y-111857142D01*
X100933333Y-111904761D01*
X101028571Y-111952380D01*
X101219047Y-111952380D01*
X101314285Y-111904761D01*
X101361904Y-111857142D01*
X101409523Y-111761904D01*
X101409523Y-110952380D01*
X102314285Y-110952380D02*
X102123809Y-110952380D01*
X102028571Y-111000000D01*
X101980952Y-111047619D01*
X101885714Y-111190476D01*
X101838095Y-111380952D01*
X101838095Y-111761904D01*
X101885714Y-111857142D01*
X101933333Y-111904761D01*
X102028571Y-111952380D01*
X102219047Y-111952380D01*
X102314285Y-111904761D01*
X102361904Y-111857142D01*
X102409523Y-111761904D01*
X102409523Y-111523809D01*
X102361904Y-111428571D01*
X102314285Y-111380952D01*
X102219047Y-111333333D01*
X102028571Y-111333333D01*
X101933333Y-111380952D01*
X101885714Y-111428571D01*
X101838095Y-111523809D01*
%TO.C,R84*%
X114041968Y-109642857D02*
X113565778Y-109976190D01*
X114041968Y-110214285D02*
X113041968Y-110214285D01*
X113041968Y-109833333D01*
X113089588Y-109738095D01*
X113137207Y-109690476D01*
X113232445Y-109642857D01*
X113375302Y-109642857D01*
X113470540Y-109690476D01*
X113518159Y-109738095D01*
X113565778Y-109833333D01*
X113565778Y-110214285D01*
X113470540Y-109071428D02*
X113422921Y-109166666D01*
X113375302Y-109214285D01*
X113280064Y-109261904D01*
X113232445Y-109261904D01*
X113137207Y-109214285D01*
X113089588Y-109166666D01*
X113041968Y-109071428D01*
X113041968Y-108880952D01*
X113089588Y-108785714D01*
X113137207Y-108738095D01*
X113232445Y-108690476D01*
X113280064Y-108690476D01*
X113375302Y-108738095D01*
X113422921Y-108785714D01*
X113470540Y-108880952D01*
X113470540Y-109071428D01*
X113518159Y-109166666D01*
X113565778Y-109214285D01*
X113661016Y-109261904D01*
X113851492Y-109261904D01*
X113946730Y-109214285D01*
X113994349Y-109166666D01*
X114041968Y-109071428D01*
X114041968Y-108880952D01*
X113994349Y-108785714D01*
X113946730Y-108738095D01*
X113851492Y-108690476D01*
X113661016Y-108690476D01*
X113565778Y-108738095D01*
X113518159Y-108785714D01*
X113470540Y-108880952D01*
X113375302Y-107833333D02*
X114041968Y-107833333D01*
X112994349Y-108071428D02*
X113708635Y-108309523D01*
X113708635Y-107690476D01*
%TO.C,R81*%
X101212963Y-108152380D02*
X100879630Y-107676190D01*
X100641535Y-108152380D02*
X100641535Y-107152380D01*
X101022487Y-107152380D01*
X101117725Y-107200000D01*
X101165344Y-107247619D01*
X101212963Y-107342857D01*
X101212963Y-107485714D01*
X101165344Y-107580952D01*
X101117725Y-107628571D01*
X101022487Y-107676190D01*
X100641535Y-107676190D01*
X101784392Y-107580952D02*
X101689154Y-107533333D01*
X101641535Y-107485714D01*
X101593916Y-107390476D01*
X101593916Y-107342857D01*
X101641535Y-107247619D01*
X101689154Y-107200000D01*
X101784392Y-107152380D01*
X101974868Y-107152380D01*
X102070106Y-107200000D01*
X102117725Y-107247619D01*
X102165344Y-107342857D01*
X102165344Y-107390476D01*
X102117725Y-107485714D01*
X102070106Y-107533333D01*
X101974868Y-107580952D01*
X101784392Y-107580952D01*
X101689154Y-107628571D01*
X101641535Y-107676190D01*
X101593916Y-107771428D01*
X101593916Y-107961904D01*
X101641535Y-108057142D01*
X101689154Y-108104761D01*
X101784392Y-108152380D01*
X101974868Y-108152380D01*
X102070106Y-108104761D01*
X102117725Y-108057142D01*
X102165344Y-107961904D01*
X102165344Y-107771428D01*
X102117725Y-107676190D01*
X102070106Y-107628571D01*
X101974868Y-107580952D01*
X103117725Y-108152380D02*
X102546297Y-108152380D01*
X102832011Y-108152380D02*
X102832011Y-107152380D01*
X102736773Y-107295238D01*
X102641535Y-107390476D01*
X102546297Y-107438095D01*
%TO.C,U4*%
X107538095Y-110352380D02*
X107538095Y-111161904D01*
X107585714Y-111257142D01*
X107633333Y-111304761D01*
X107728571Y-111352380D01*
X107919047Y-111352380D01*
X108014285Y-111304761D01*
X108061904Y-111257142D01*
X108109523Y-111161904D01*
X108109523Y-110352380D01*
X109014285Y-110685714D02*
X109014285Y-111352380D01*
X108776190Y-110304761D02*
X108538095Y-111019047D01*
X109157142Y-111019047D01*
%TO.C,C89*%
X110312963Y-109657142D02*
X110265344Y-109704761D01*
X110122487Y-109752380D01*
X110027249Y-109752380D01*
X109884392Y-109704761D01*
X109789154Y-109609523D01*
X109741535Y-109514285D01*
X109693916Y-109323809D01*
X109693916Y-109180952D01*
X109741535Y-108990476D01*
X109789154Y-108895238D01*
X109884392Y-108800000D01*
X110027249Y-108752380D01*
X110122487Y-108752380D01*
X110265344Y-108800000D01*
X110312963Y-108847619D01*
X110884392Y-109180952D02*
X110789154Y-109133333D01*
X110741535Y-109085714D01*
X110693916Y-108990476D01*
X110693916Y-108942857D01*
X110741535Y-108847619D01*
X110789154Y-108800000D01*
X110884392Y-108752380D01*
X111074868Y-108752380D01*
X111170106Y-108800000D01*
X111217725Y-108847619D01*
X111265344Y-108942857D01*
X111265344Y-108990476D01*
X111217725Y-109085714D01*
X111170106Y-109133333D01*
X111074868Y-109180952D01*
X110884392Y-109180952D01*
X110789154Y-109228571D01*
X110741535Y-109276190D01*
X110693916Y-109371428D01*
X110693916Y-109561904D01*
X110741535Y-109657142D01*
X110789154Y-109704761D01*
X110884392Y-109752380D01*
X111074868Y-109752380D01*
X111170106Y-109704761D01*
X111217725Y-109657142D01*
X111265344Y-109561904D01*
X111265344Y-109371428D01*
X111217725Y-109276190D01*
X111170106Y-109228571D01*
X111074868Y-109180952D01*
X111741535Y-109752380D02*
X111932011Y-109752380D01*
X112027249Y-109704761D01*
X112074868Y-109657142D01*
X112170106Y-109514285D01*
X112217725Y-109323809D01*
X112217725Y-108942857D01*
X112170106Y-108847619D01*
X112122487Y-108800000D01*
X112027249Y-108752380D01*
X111836773Y-108752380D01*
X111741535Y-108800000D01*
X111693916Y-108847619D01*
X111646297Y-108942857D01*
X111646297Y-109180952D01*
X111693916Y-109276190D01*
X111741535Y-109323809D01*
X111836773Y-109371428D01*
X112027249Y-109371428D01*
X112122487Y-109323809D01*
X112170106Y-109276190D01*
X112217725Y-109180952D01*
%TO.C,C40*%
X104057142Y-112557142D02*
X104009523Y-112604761D01*
X103866666Y-112652380D01*
X103771428Y-112652380D01*
X103628571Y-112604761D01*
X103533333Y-112509523D01*
X103485714Y-112414285D01*
X103438095Y-112223809D01*
X103438095Y-112080952D01*
X103485714Y-111890476D01*
X103533333Y-111795238D01*
X103628571Y-111700000D01*
X103771428Y-111652380D01*
X103866666Y-111652380D01*
X104009523Y-111700000D01*
X104057142Y-111747619D01*
X104914285Y-111985714D02*
X104914285Y-112652380D01*
X104676190Y-111604761D02*
X104438095Y-112319047D01*
X105057142Y-112319047D01*
X105628571Y-111652380D02*
X105723809Y-111652380D01*
X105819047Y-111700000D01*
X105866666Y-111747619D01*
X105914285Y-111842857D01*
X105961904Y-112033333D01*
X105961904Y-112271428D01*
X105914285Y-112461904D01*
X105866666Y-112557142D01*
X105819047Y-112604761D01*
X105723809Y-112652380D01*
X105628571Y-112652380D01*
X105533333Y-112604761D01*
X105485714Y-112557142D01*
X105438095Y-112461904D01*
X105390476Y-112271428D01*
X105390476Y-112033333D01*
X105438095Y-111842857D01*
X105485714Y-111747619D01*
X105533333Y-111700000D01*
X105628571Y-111652380D01*
%TO.C,U5*%
X75038095Y-110152380D02*
X75038095Y-110961904D01*
X75085714Y-111057142D01*
X75133333Y-111104761D01*
X75228571Y-111152380D01*
X75419047Y-111152380D01*
X75514285Y-111104761D01*
X75561904Y-111057142D01*
X75609523Y-110961904D01*
X75609523Y-110152380D01*
X76561904Y-110152380D02*
X76085714Y-110152380D01*
X76038095Y-110628571D01*
X76085714Y-110580952D01*
X76180952Y-110533333D01*
X76419047Y-110533333D01*
X76514285Y-110580952D01*
X76561904Y-110628571D01*
X76609523Y-110723809D01*
X76609523Y-110961904D01*
X76561904Y-111057142D01*
X76514285Y-111104761D01*
X76419047Y-111152380D01*
X76180952Y-111152380D01*
X76085714Y-111104761D01*
X76038095Y-111057142D01*
%TO.C,R83*%
X104608201Y-107642857D02*
X104132011Y-107976190D01*
X104608201Y-108214285D02*
X103608201Y-108214285D01*
X103608201Y-107833333D01*
X103655821Y-107738095D01*
X103703440Y-107690476D01*
X103798678Y-107642857D01*
X103941535Y-107642857D01*
X104036773Y-107690476D01*
X104084392Y-107738095D01*
X104132011Y-107833333D01*
X104132011Y-108214285D01*
X104036773Y-107071428D02*
X103989154Y-107166666D01*
X103941535Y-107214285D01*
X103846297Y-107261904D01*
X103798678Y-107261904D01*
X103703440Y-107214285D01*
X103655821Y-107166666D01*
X103608201Y-107071428D01*
X103608201Y-106880952D01*
X103655821Y-106785714D01*
X103703440Y-106738095D01*
X103798678Y-106690476D01*
X103846297Y-106690476D01*
X103941535Y-106738095D01*
X103989154Y-106785714D01*
X104036773Y-106880952D01*
X104036773Y-107071428D01*
X104084392Y-107166666D01*
X104132011Y-107214285D01*
X104227249Y-107261904D01*
X104417725Y-107261904D01*
X104512963Y-107214285D01*
X104560582Y-107166666D01*
X104608201Y-107071428D01*
X104608201Y-106880952D01*
X104560582Y-106785714D01*
X104512963Y-106738095D01*
X104417725Y-106690476D01*
X104227249Y-106690476D01*
X104132011Y-106738095D01*
X104084392Y-106785714D01*
X104036773Y-106880952D01*
X103608201Y-106357142D02*
X103608201Y-105738095D01*
X103989154Y-106071428D01*
X103989154Y-105928571D01*
X104036773Y-105833333D01*
X104084392Y-105785714D01*
X104179630Y-105738095D01*
X104417725Y-105738095D01*
X104512963Y-105785714D01*
X104560582Y-105833333D01*
X104608201Y-105928571D01*
X104608201Y-106214285D01*
X104560582Y-106309523D01*
X104512963Y-106357142D01*
%TO.C,R40*%
X109557142Y-119452380D02*
X109223809Y-118976190D01*
X108985714Y-119452380D02*
X108985714Y-118452380D01*
X109366666Y-118452380D01*
X109461904Y-118500000D01*
X109509523Y-118547619D01*
X109557142Y-118642857D01*
X109557142Y-118785714D01*
X109509523Y-118880952D01*
X109461904Y-118928571D01*
X109366666Y-118976190D01*
X108985714Y-118976190D01*
X110414285Y-118785714D02*
X110414285Y-119452380D01*
X110176190Y-118404761D02*
X109938095Y-119119047D01*
X110557142Y-119119047D01*
X111128571Y-118452380D02*
X111223809Y-118452380D01*
X111319047Y-118500000D01*
X111366666Y-118547619D01*
X111414285Y-118642857D01*
X111461904Y-118833333D01*
X111461904Y-119071428D01*
X111414285Y-119261904D01*
X111366666Y-119357142D01*
X111319047Y-119404761D01*
X111223809Y-119452380D01*
X111128571Y-119452380D01*
X111033333Y-119404761D01*
X110985714Y-119357142D01*
X110938095Y-119261904D01*
X110890476Y-119071428D01*
X110890476Y-118833333D01*
X110938095Y-118642857D01*
X110985714Y-118547619D01*
X111033333Y-118500000D01*
X111128571Y-118452380D01*
%TO.C,C50*%
X71957142Y-116657142D02*
X71909523Y-116704761D01*
X71766666Y-116752380D01*
X71671428Y-116752380D01*
X71528571Y-116704761D01*
X71433333Y-116609523D01*
X71385714Y-116514285D01*
X71338095Y-116323809D01*
X71338095Y-116180952D01*
X71385714Y-115990476D01*
X71433333Y-115895238D01*
X71528571Y-115800000D01*
X71671428Y-115752380D01*
X71766666Y-115752380D01*
X71909523Y-115800000D01*
X71957142Y-115847619D01*
X72861904Y-115752380D02*
X72385714Y-115752380D01*
X72338095Y-116228571D01*
X72385714Y-116180952D01*
X72480952Y-116133333D01*
X72719047Y-116133333D01*
X72814285Y-116180952D01*
X72861904Y-116228571D01*
X72909523Y-116323809D01*
X72909523Y-116561904D01*
X72861904Y-116657142D01*
X72814285Y-116704761D01*
X72719047Y-116752380D01*
X72480952Y-116752380D01*
X72385714Y-116704761D01*
X72338095Y-116657142D01*
X73528571Y-115752380D02*
X73623809Y-115752380D01*
X73719047Y-115800000D01*
X73766666Y-115847619D01*
X73814285Y-115942857D01*
X73861904Y-116133333D01*
X73861904Y-116371428D01*
X73814285Y-116561904D01*
X73766666Y-116657142D01*
X73719047Y-116704761D01*
X73623809Y-116752380D01*
X73528571Y-116752380D01*
X73433333Y-116704761D01*
X73385714Y-116657142D01*
X73338095Y-116561904D01*
X73290476Y-116371428D01*
X73290476Y-116133333D01*
X73338095Y-115942857D01*
X73385714Y-115847619D01*
X73433333Y-115800000D01*
X73528571Y-115752380D01*
%TO.C,R50*%
X71652380Y-112942857D02*
X71176190Y-113276190D01*
X71652380Y-113514285D02*
X70652380Y-113514285D01*
X70652380Y-113133333D01*
X70700000Y-113038095D01*
X70747619Y-112990476D01*
X70842857Y-112942857D01*
X70985714Y-112942857D01*
X71080952Y-112990476D01*
X71128571Y-113038095D01*
X71176190Y-113133333D01*
X71176190Y-113514285D01*
X70652380Y-112038095D02*
X70652380Y-112514285D01*
X71128571Y-112561904D01*
X71080952Y-112514285D01*
X71033333Y-112419047D01*
X71033333Y-112180952D01*
X71080952Y-112085714D01*
X71128571Y-112038095D01*
X71223809Y-111990476D01*
X71461904Y-111990476D01*
X71557142Y-112038095D01*
X71604761Y-112085714D01*
X71652380Y-112180952D01*
X71652380Y-112419047D01*
X71604761Y-112514285D01*
X71557142Y-112561904D01*
X70652380Y-111371428D02*
X70652380Y-111276190D01*
X70700000Y-111180952D01*
X70747619Y-111133333D01*
X70842857Y-111085714D01*
X71033333Y-111038095D01*
X71271428Y-111038095D01*
X71461904Y-111085714D01*
X71557142Y-111133333D01*
X71604761Y-111180952D01*
X71652380Y-111276190D01*
X71652380Y-111371428D01*
X71604761Y-111466666D01*
X71557142Y-111514285D01*
X71461904Y-111561904D01*
X71271428Y-111609523D01*
X71033333Y-111609523D01*
X70842857Y-111561904D01*
X70747619Y-111514285D01*
X70700000Y-111466666D01*
X70652380Y-111371428D01*
%TO.C,C82*%
X119746730Y-106742857D02*
X119794349Y-106790476D01*
X119841968Y-106933333D01*
X119841968Y-107028571D01*
X119794349Y-107171428D01*
X119699111Y-107266666D01*
X119603873Y-107314285D01*
X119413397Y-107361904D01*
X119270540Y-107361904D01*
X119080064Y-107314285D01*
X118984826Y-107266666D01*
X118889588Y-107171428D01*
X118841968Y-107028571D01*
X118841968Y-106933333D01*
X118889588Y-106790476D01*
X118937207Y-106742857D01*
X119270540Y-106171428D02*
X119222921Y-106266666D01*
X119175302Y-106314285D01*
X119080064Y-106361904D01*
X119032445Y-106361904D01*
X118937207Y-106314285D01*
X118889588Y-106266666D01*
X118841968Y-106171428D01*
X118841968Y-105980952D01*
X118889588Y-105885714D01*
X118937207Y-105838095D01*
X119032445Y-105790476D01*
X119080064Y-105790476D01*
X119175302Y-105838095D01*
X119222921Y-105885714D01*
X119270540Y-105980952D01*
X119270540Y-106171428D01*
X119318159Y-106266666D01*
X119365778Y-106314285D01*
X119461016Y-106361904D01*
X119651492Y-106361904D01*
X119746730Y-106314285D01*
X119794349Y-106266666D01*
X119841968Y-106171428D01*
X119841968Y-105980952D01*
X119794349Y-105885714D01*
X119746730Y-105838095D01*
X119651492Y-105790476D01*
X119461016Y-105790476D01*
X119365778Y-105838095D01*
X119318159Y-105885714D01*
X119270540Y-105980952D01*
X118937207Y-105409523D02*
X118889588Y-105361904D01*
X118841968Y-105266666D01*
X118841968Y-105028571D01*
X118889588Y-104933333D01*
X118937207Y-104885714D01*
X119032445Y-104838095D01*
X119127683Y-104838095D01*
X119270540Y-104885714D01*
X119841968Y-105457142D01*
X119841968Y-104838095D01*
%TO.C,C810*%
X123246730Y-111219047D02*
X123294349Y-111266666D01*
X123341968Y-111409523D01*
X123341968Y-111504761D01*
X123294349Y-111647619D01*
X123199111Y-111742857D01*
X123103873Y-111790476D01*
X122913397Y-111838095D01*
X122770540Y-111838095D01*
X122580064Y-111790476D01*
X122484826Y-111742857D01*
X122389588Y-111647619D01*
X122341968Y-111504761D01*
X122341968Y-111409523D01*
X122389588Y-111266666D01*
X122437207Y-111219047D01*
X122770540Y-110647619D02*
X122722921Y-110742857D01*
X122675302Y-110790476D01*
X122580064Y-110838095D01*
X122532445Y-110838095D01*
X122437207Y-110790476D01*
X122389588Y-110742857D01*
X122341968Y-110647619D01*
X122341968Y-110457142D01*
X122389588Y-110361904D01*
X122437207Y-110314285D01*
X122532445Y-110266666D01*
X122580064Y-110266666D01*
X122675302Y-110314285D01*
X122722921Y-110361904D01*
X122770540Y-110457142D01*
X122770540Y-110647619D01*
X122818159Y-110742857D01*
X122865778Y-110790476D01*
X122961016Y-110838095D01*
X123151492Y-110838095D01*
X123246730Y-110790476D01*
X123294349Y-110742857D01*
X123341968Y-110647619D01*
X123341968Y-110457142D01*
X123294349Y-110361904D01*
X123246730Y-110314285D01*
X123151492Y-110266666D01*
X122961016Y-110266666D01*
X122865778Y-110314285D01*
X122818159Y-110361904D01*
X122770540Y-110457142D01*
X123341968Y-109314285D02*
X123341968Y-109885714D01*
X123341968Y-109600000D02*
X122341968Y-109600000D01*
X122484826Y-109695238D01*
X122580064Y-109790476D01*
X122627683Y-109885714D01*
X122341968Y-108695238D02*
X122341968Y-108600000D01*
X122389588Y-108504761D01*
X122437207Y-108457142D01*
X122532445Y-108409523D01*
X122722921Y-108361904D01*
X122961016Y-108361904D01*
X123151492Y-108409523D01*
X123246730Y-108457142D01*
X123294349Y-108504761D01*
X123341968Y-108600000D01*
X123341968Y-108695238D01*
X123294349Y-108790476D01*
X123246730Y-108838095D01*
X123151492Y-108885714D01*
X122961016Y-108933333D01*
X122722921Y-108933333D01*
X122532445Y-108885714D01*
X122437207Y-108838095D01*
X122389588Y-108790476D01*
X122341968Y-108695238D01*
%TO.C,C88*%
X120546730Y-111242857D02*
X120594349Y-111290476D01*
X120641968Y-111433333D01*
X120641968Y-111528571D01*
X120594349Y-111671428D01*
X120499111Y-111766666D01*
X120403873Y-111814285D01*
X120213397Y-111861904D01*
X120070540Y-111861904D01*
X119880064Y-111814285D01*
X119784826Y-111766666D01*
X119689588Y-111671428D01*
X119641968Y-111528571D01*
X119641968Y-111433333D01*
X119689588Y-111290476D01*
X119737207Y-111242857D01*
X120070540Y-110671428D02*
X120022921Y-110766666D01*
X119975302Y-110814285D01*
X119880064Y-110861904D01*
X119832445Y-110861904D01*
X119737207Y-110814285D01*
X119689588Y-110766666D01*
X119641968Y-110671428D01*
X119641968Y-110480952D01*
X119689588Y-110385714D01*
X119737207Y-110338095D01*
X119832445Y-110290476D01*
X119880064Y-110290476D01*
X119975302Y-110338095D01*
X120022921Y-110385714D01*
X120070540Y-110480952D01*
X120070540Y-110671428D01*
X120118159Y-110766666D01*
X120165778Y-110814285D01*
X120261016Y-110861904D01*
X120451492Y-110861904D01*
X120546730Y-110814285D01*
X120594349Y-110766666D01*
X120641968Y-110671428D01*
X120641968Y-110480952D01*
X120594349Y-110385714D01*
X120546730Y-110338095D01*
X120451492Y-110290476D01*
X120261016Y-110290476D01*
X120165778Y-110338095D01*
X120118159Y-110385714D01*
X120070540Y-110480952D01*
X120070540Y-109719047D02*
X120022921Y-109814285D01*
X119975302Y-109861904D01*
X119880064Y-109909523D01*
X119832445Y-109909523D01*
X119737207Y-109861904D01*
X119689588Y-109814285D01*
X119641968Y-109719047D01*
X119641968Y-109528571D01*
X119689588Y-109433333D01*
X119737207Y-109385714D01*
X119832445Y-109338095D01*
X119880064Y-109338095D01*
X119975302Y-109385714D01*
X120022921Y-109433333D01*
X120070540Y-109528571D01*
X120070540Y-109719047D01*
X120118159Y-109814285D01*
X120165778Y-109861904D01*
X120261016Y-109909523D01*
X120451492Y-109909523D01*
X120546730Y-109861904D01*
X120594349Y-109814285D01*
X120641968Y-109719047D01*
X120641968Y-109528571D01*
X120594349Y-109433333D01*
X120546730Y-109385714D01*
X120451492Y-109338095D01*
X120261016Y-109338095D01*
X120165778Y-109385714D01*
X120118159Y-109433333D01*
X120070540Y-109528571D01*
%TO.C,C51*%
X79757142Y-113542857D02*
X79804761Y-113590476D01*
X79852380Y-113733333D01*
X79852380Y-113828571D01*
X79804761Y-113971428D01*
X79709523Y-114066666D01*
X79614285Y-114114285D01*
X79423809Y-114161904D01*
X79280952Y-114161904D01*
X79090476Y-114114285D01*
X78995238Y-114066666D01*
X78900000Y-113971428D01*
X78852380Y-113828571D01*
X78852380Y-113733333D01*
X78900000Y-113590476D01*
X78947619Y-113542857D01*
X78852380Y-112638095D02*
X78852380Y-113114285D01*
X79328571Y-113161904D01*
X79280952Y-113114285D01*
X79233333Y-113019047D01*
X79233333Y-112780952D01*
X79280952Y-112685714D01*
X79328571Y-112638095D01*
X79423809Y-112590476D01*
X79661904Y-112590476D01*
X79757142Y-112638095D01*
X79804761Y-112685714D01*
X79852380Y-112780952D01*
X79852380Y-113019047D01*
X79804761Y-113114285D01*
X79757142Y-113161904D01*
X79852380Y-111638095D02*
X79852380Y-112209523D01*
X79852380Y-111923809D02*
X78852380Y-111923809D01*
X78995238Y-112019047D01*
X79090476Y-112114285D01*
X79138095Y-112209523D01*
%TO.C,C84*%
X115246730Y-109642857D02*
X115294349Y-109690476D01*
X115341968Y-109833333D01*
X115341968Y-109928571D01*
X115294349Y-110071428D01*
X115199111Y-110166666D01*
X115103873Y-110214285D01*
X114913397Y-110261904D01*
X114770540Y-110261904D01*
X114580064Y-110214285D01*
X114484826Y-110166666D01*
X114389588Y-110071428D01*
X114341968Y-109928571D01*
X114341968Y-109833333D01*
X114389588Y-109690476D01*
X114437207Y-109642857D01*
X114770540Y-109071428D02*
X114722921Y-109166666D01*
X114675302Y-109214285D01*
X114580064Y-109261904D01*
X114532445Y-109261904D01*
X114437207Y-109214285D01*
X114389588Y-109166666D01*
X114341968Y-109071428D01*
X114341968Y-108880952D01*
X114389588Y-108785714D01*
X114437207Y-108738095D01*
X114532445Y-108690476D01*
X114580064Y-108690476D01*
X114675302Y-108738095D01*
X114722921Y-108785714D01*
X114770540Y-108880952D01*
X114770540Y-109071428D01*
X114818159Y-109166666D01*
X114865778Y-109214285D01*
X114961016Y-109261904D01*
X115151492Y-109261904D01*
X115246730Y-109214285D01*
X115294349Y-109166666D01*
X115341968Y-109071428D01*
X115341968Y-108880952D01*
X115294349Y-108785714D01*
X115246730Y-108738095D01*
X115151492Y-108690476D01*
X114961016Y-108690476D01*
X114865778Y-108738095D01*
X114818159Y-108785714D01*
X114770540Y-108880952D01*
X114675302Y-107833333D02*
X115341968Y-107833333D01*
X114294349Y-108071428D02*
X115008635Y-108309523D01*
X115008635Y-107690476D01*
%TO.C,C81*%
X98212963Y-108057142D02*
X98165344Y-108104761D01*
X98022487Y-108152380D01*
X97927249Y-108152380D01*
X97784392Y-108104761D01*
X97689154Y-108009523D01*
X97641535Y-107914285D01*
X97593916Y-107723809D01*
X97593916Y-107580952D01*
X97641535Y-107390476D01*
X97689154Y-107295238D01*
X97784392Y-107200000D01*
X97927249Y-107152380D01*
X98022487Y-107152380D01*
X98165344Y-107200000D01*
X98212963Y-107247619D01*
X98784392Y-107580952D02*
X98689154Y-107533333D01*
X98641535Y-107485714D01*
X98593916Y-107390476D01*
X98593916Y-107342857D01*
X98641535Y-107247619D01*
X98689154Y-107200000D01*
X98784392Y-107152380D01*
X98974868Y-107152380D01*
X99070106Y-107200000D01*
X99117725Y-107247619D01*
X99165344Y-107342857D01*
X99165344Y-107390476D01*
X99117725Y-107485714D01*
X99070106Y-107533333D01*
X98974868Y-107580952D01*
X98784392Y-107580952D01*
X98689154Y-107628571D01*
X98641535Y-107676190D01*
X98593916Y-107771428D01*
X98593916Y-107961904D01*
X98641535Y-108057142D01*
X98689154Y-108104761D01*
X98784392Y-108152380D01*
X98974868Y-108152380D01*
X99070106Y-108104761D01*
X99117725Y-108057142D01*
X99165344Y-107961904D01*
X99165344Y-107771428D01*
X99117725Y-107676190D01*
X99070106Y-107628571D01*
X98974868Y-107580952D01*
X100117725Y-108152380D02*
X99546297Y-108152380D01*
X99832011Y-108152380D02*
X99832011Y-107152380D01*
X99736773Y-107295238D01*
X99641535Y-107390476D01*
X99546297Y-107438095D01*
%TO.C,C41*%
X106257142Y-119357142D02*
X106209523Y-119404761D01*
X106066666Y-119452380D01*
X105971428Y-119452380D01*
X105828571Y-119404761D01*
X105733333Y-119309523D01*
X105685714Y-119214285D01*
X105638095Y-119023809D01*
X105638095Y-118880952D01*
X105685714Y-118690476D01*
X105733333Y-118595238D01*
X105828571Y-118500000D01*
X105971428Y-118452380D01*
X106066666Y-118452380D01*
X106209523Y-118500000D01*
X106257142Y-118547619D01*
X107114285Y-118785714D02*
X107114285Y-119452380D01*
X106876190Y-118404761D02*
X106638095Y-119119047D01*
X107257142Y-119119047D01*
X108161904Y-119452380D02*
X107590476Y-119452380D01*
X107876190Y-119452380D02*
X107876190Y-118452380D01*
X107780952Y-118595238D01*
X107685714Y-118690476D01*
X107590476Y-118738095D01*
%TO.C,J81*%
X127330476Y-110372380D02*
X127330476Y-111086666D01*
X127282857Y-111229523D01*
X127187619Y-111324761D01*
X127044761Y-111372380D01*
X126949523Y-111372380D01*
X127949523Y-110800952D02*
X127854285Y-110753333D01*
X127806666Y-110705714D01*
X127759047Y-110610476D01*
X127759047Y-110562857D01*
X127806666Y-110467619D01*
X127854285Y-110420000D01*
X127949523Y-110372380D01*
X128140000Y-110372380D01*
X128235238Y-110420000D01*
X128282857Y-110467619D01*
X128330476Y-110562857D01*
X128330476Y-110610476D01*
X128282857Y-110705714D01*
X128235238Y-110753333D01*
X128140000Y-110800952D01*
X127949523Y-110800952D01*
X127854285Y-110848571D01*
X127806666Y-110896190D01*
X127759047Y-110991428D01*
X127759047Y-111181904D01*
X127806666Y-111277142D01*
X127854285Y-111324761D01*
X127949523Y-111372380D01*
X128140000Y-111372380D01*
X128235238Y-111324761D01*
X128282857Y-111277142D01*
X128330476Y-111181904D01*
X128330476Y-110991428D01*
X128282857Y-110896190D01*
X128235238Y-110848571D01*
X128140000Y-110800952D01*
X129282857Y-111372380D02*
X128711428Y-111372380D01*
X128997142Y-111372380D02*
X128997142Y-110372380D01*
X128901904Y-110515238D01*
X128806666Y-110610476D01*
X128711428Y-110658095D01*
%TO.C,C87*%
X107212963Y-109657142D02*
X107165344Y-109704761D01*
X107022487Y-109752380D01*
X106927249Y-109752380D01*
X106784392Y-109704761D01*
X106689154Y-109609523D01*
X106641535Y-109514285D01*
X106593916Y-109323809D01*
X106593916Y-109180952D01*
X106641535Y-108990476D01*
X106689154Y-108895238D01*
X106784392Y-108800000D01*
X106927249Y-108752380D01*
X107022487Y-108752380D01*
X107165344Y-108800000D01*
X107212963Y-108847619D01*
X107784392Y-109180952D02*
X107689154Y-109133333D01*
X107641535Y-109085714D01*
X107593916Y-108990476D01*
X107593916Y-108942857D01*
X107641535Y-108847619D01*
X107689154Y-108800000D01*
X107784392Y-108752380D01*
X107974868Y-108752380D01*
X108070106Y-108800000D01*
X108117725Y-108847619D01*
X108165344Y-108942857D01*
X108165344Y-108990476D01*
X108117725Y-109085714D01*
X108070106Y-109133333D01*
X107974868Y-109180952D01*
X107784392Y-109180952D01*
X107689154Y-109228571D01*
X107641535Y-109276190D01*
X107593916Y-109371428D01*
X107593916Y-109561904D01*
X107641535Y-109657142D01*
X107689154Y-109704761D01*
X107784392Y-109752380D01*
X107974868Y-109752380D01*
X108070106Y-109704761D01*
X108117725Y-109657142D01*
X108165344Y-109561904D01*
X108165344Y-109371428D01*
X108117725Y-109276190D01*
X108070106Y-109228571D01*
X107974868Y-109180952D01*
X108498678Y-108752380D02*
X109165344Y-108752380D01*
X108736773Y-109752380D01*
%TO.C,R86*%
X116841968Y-106642857D02*
X116365778Y-106976190D01*
X116841968Y-107214285D02*
X115841968Y-107214285D01*
X115841968Y-106833333D01*
X115889588Y-106738095D01*
X115937207Y-106690476D01*
X116032445Y-106642857D01*
X116175302Y-106642857D01*
X116270540Y-106690476D01*
X116318159Y-106738095D01*
X116365778Y-106833333D01*
X116365778Y-107214285D01*
X116270540Y-106071428D02*
X116222921Y-106166666D01*
X116175302Y-106214285D01*
X116080064Y-106261904D01*
X116032445Y-106261904D01*
X115937207Y-106214285D01*
X115889588Y-106166666D01*
X115841968Y-106071428D01*
X115841968Y-105880952D01*
X115889588Y-105785714D01*
X115937207Y-105738095D01*
X116032445Y-105690476D01*
X116080064Y-105690476D01*
X116175302Y-105738095D01*
X116222921Y-105785714D01*
X116270540Y-105880952D01*
X116270540Y-106071428D01*
X116318159Y-106166666D01*
X116365778Y-106214285D01*
X116461016Y-106261904D01*
X116651492Y-106261904D01*
X116746730Y-106214285D01*
X116794349Y-106166666D01*
X116841968Y-106071428D01*
X116841968Y-105880952D01*
X116794349Y-105785714D01*
X116746730Y-105738095D01*
X116651492Y-105690476D01*
X116461016Y-105690476D01*
X116365778Y-105738095D01*
X116318159Y-105785714D01*
X116270540Y-105880952D01*
X115841968Y-104833333D02*
X115841968Y-105023809D01*
X115889588Y-105119047D01*
X115937207Y-105166666D01*
X116080064Y-105261904D01*
X116270540Y-105309523D01*
X116651492Y-105309523D01*
X116746730Y-105261904D01*
X116794349Y-105214285D01*
X116841968Y-105119047D01*
X116841968Y-104928571D01*
X116794349Y-104833333D01*
X116746730Y-104785714D01*
X116651492Y-104738095D01*
X116413397Y-104738095D01*
X116318159Y-104785714D01*
X116270540Y-104833333D01*
X116222921Y-104928571D01*
X116222921Y-105119047D01*
X116270540Y-105214285D01*
X116318159Y-105261904D01*
X116413397Y-105309523D01*
%TO.C,R85*%
X101012963Y-109752380D02*
X100679630Y-109276190D01*
X100441535Y-109752380D02*
X100441535Y-108752380D01*
X100822487Y-108752380D01*
X100917725Y-108800000D01*
X100965344Y-108847619D01*
X101012963Y-108942857D01*
X101012963Y-109085714D01*
X100965344Y-109180952D01*
X100917725Y-109228571D01*
X100822487Y-109276190D01*
X100441535Y-109276190D01*
X101584392Y-109180952D02*
X101489154Y-109133333D01*
X101441535Y-109085714D01*
X101393916Y-108990476D01*
X101393916Y-108942857D01*
X101441535Y-108847619D01*
X101489154Y-108800000D01*
X101584392Y-108752380D01*
X101774868Y-108752380D01*
X101870106Y-108800000D01*
X101917725Y-108847619D01*
X101965344Y-108942857D01*
X101965344Y-108990476D01*
X101917725Y-109085714D01*
X101870106Y-109133333D01*
X101774868Y-109180952D01*
X101584392Y-109180952D01*
X101489154Y-109228571D01*
X101441535Y-109276190D01*
X101393916Y-109371428D01*
X101393916Y-109561904D01*
X101441535Y-109657142D01*
X101489154Y-109704761D01*
X101584392Y-109752380D01*
X101774868Y-109752380D01*
X101870106Y-109704761D01*
X101917725Y-109657142D01*
X101965344Y-109561904D01*
X101965344Y-109371428D01*
X101917725Y-109276190D01*
X101870106Y-109228571D01*
X101774868Y-109180952D01*
X102870106Y-108752380D02*
X102393916Y-108752380D01*
X102346297Y-109228571D01*
X102393916Y-109180952D01*
X102489154Y-109133333D01*
X102727249Y-109133333D01*
X102822487Y-109180952D01*
X102870106Y-109228571D01*
X102917725Y-109323809D01*
X102917725Y-109561904D01*
X102870106Y-109657142D01*
X102822487Y-109704761D01*
X102727249Y-109752380D01*
X102489154Y-109752380D01*
X102393916Y-109704761D01*
X102346297Y-109657142D01*
D11*
%TO.C,R51*%
X72080000Y-117746359D02*
X72080000Y-118053641D01*
X71320000Y-117746359D02*
X71320000Y-118053641D01*
%TO.C,C86*%
X114129588Y-112287836D02*
X114129588Y-112072164D01*
X114849588Y-112287836D02*
X114849588Y-112072164D01*
%TO.C,C80*%
X116649588Y-114312164D02*
X116649588Y-114527836D01*
X115929588Y-114312164D02*
X115929588Y-114527836D01*
%TO.C,J5*%
X70480000Y-118610000D02*
X70480000Y-117510000D01*
X69360000Y-112190000D02*
X70480000Y-112190000D01*
X67490000Y-113260000D02*
X67490000Y-117540000D01*
X70480000Y-113290000D02*
X70720000Y-113290000D01*
X70480000Y-112190000D02*
X70480000Y-113290000D01*
X71573553Y-113550000D02*
X71220000Y-113800000D01*
X71220000Y-113800000D02*
X71573553Y-114050000D01*
X69360000Y-118610000D02*
X70480000Y-118610000D01*
X71573553Y-114050000D02*
X71573553Y-113550000D01*
%TO.C,J11*%
X94090000Y-112040000D02*
X94090000Y-113040000D01*
X97910000Y-118360000D02*
X97910000Y-119360000D01*
X97910000Y-113040000D02*
X97910000Y-112040000D01*
X94090000Y-118360000D02*
X93666667Y-118360000D01*
X97910000Y-112040000D02*
X94090000Y-112040000D01*
X97910000Y-119360000D02*
X94090000Y-119360000D01*
X94090000Y-119360000D02*
X94090000Y-118360000D01*
%TO.C,R80*%
X117969588Y-114266359D02*
X117969588Y-114573641D01*
X117209588Y-114266359D02*
X117209588Y-114573641D01*
%TO.C,R42*%
X105263641Y-116420000D02*
X104956359Y-116420000D01*
X105263641Y-117180000D02*
X104956359Y-117180000D01*
%TO.C,R41*%
X105263641Y-115880000D02*
X104956359Y-115880000D01*
X105263641Y-115120000D02*
X104956359Y-115120000D01*
%TO.C,L50*%
X75427064Y-119760000D02*
X74222936Y-119760000D01*
X75427064Y-117040000D02*
X74222936Y-117040000D01*
%TO.C,C85*%
X113102836Y-119110000D02*
X112887164Y-119110000D01*
X113102836Y-118390000D02*
X112887164Y-118390000D01*
%TO.C,C83*%
X117945000Y-117557836D02*
X117945000Y-117342164D01*
X118665000Y-117557836D02*
X118665000Y-117342164D01*
%TO.C,J80*%
X90455724Y-118880000D02*
X91575724Y-118880000D01*
X92669277Y-114320000D02*
X92669277Y-113820000D01*
X92669277Y-113820000D02*
X92315724Y-114070000D01*
X91575724Y-118880000D02*
X91575724Y-117780000D01*
X91575724Y-113560000D02*
X91815724Y-113560000D01*
X91575724Y-112460000D02*
X91575724Y-113560000D01*
X88585724Y-113530000D02*
X88585724Y-117810000D01*
X92315724Y-114070000D02*
X92669277Y-114320000D01*
X90455724Y-112460000D02*
X91575724Y-112460000D01*
%TO.C,R82*%
X116509588Y-112026359D02*
X116509588Y-112333641D01*
X117269588Y-112026359D02*
X117269588Y-112333641D01*
%TO.C,R87*%
X117798641Y-119480000D02*
X117491359Y-119480000D01*
X117798641Y-118720000D02*
X117491359Y-118720000D01*
%TO.C,U8*%
X119217888Y-117971700D02*
X120104447Y-117971700D01*
X123561288Y-117971700D02*
X123561288Y-117085141D01*
X119217888Y-113628300D02*
X119217888Y-114514859D01*
X120104447Y-113628300D02*
X119217888Y-113628300D01*
X123561288Y-114514859D02*
X123561288Y-113628300D01*
X122674729Y-117971700D02*
X123561288Y-117971700D01*
X119217888Y-117085141D02*
X119217888Y-117971700D01*
X123561288Y-113628300D02*
X122674729Y-113628300D01*
D12*
X121999089Y-113196500D02*
X121999089Y-112942500D01*
X121999089Y-112942500D02*
X122380089Y-112942500D01*
X122380089Y-112942500D02*
X122380089Y-113196500D01*
X122380089Y-113196500D02*
X121999089Y-113196500D01*
G36*
X122380089Y-113196500D02*
G01*
X121999089Y-113196500D01*
X121999089Y-112942500D01*
X122380089Y-112942500D01*
X122380089Y-113196500D01*
G37*
X122380089Y-113196500D02*
X121999089Y-113196500D01*
X121999089Y-112942500D01*
X122380089Y-112942500D01*
X122380089Y-113196500D01*
D11*
%TO.C,U6*%
X100040000Y-114300000D02*
X100040000Y-115100000D01*
X103160000Y-114300000D02*
X103160000Y-112500000D01*
X103160000Y-114300000D02*
X103160000Y-115100000D01*
X100040000Y-114300000D02*
X100040000Y-113500000D01*
%TO.C,R84*%
X114069588Y-114266359D02*
X114069588Y-114573641D01*
X113309588Y-114266359D02*
X113309588Y-114573641D01*
%TO.C,R81*%
X115348641Y-117780000D02*
X115041359Y-117780000D01*
X115348641Y-117020000D02*
X115041359Y-117020000D01*
%TO.C,U4*%
X106790000Y-112340000D02*
X106790000Y-111890000D01*
X110010000Y-111890000D02*
X109560000Y-111890000D01*
X110010000Y-112340000D02*
X110010000Y-111890000D01*
X106790000Y-111890000D02*
X107240000Y-111890000D01*
X110010000Y-115110000D02*
X109560000Y-115110000D01*
X106790000Y-114660000D02*
X106790000Y-115110000D01*
X110010000Y-114660000D02*
X110010000Y-115110000D01*
%TO.C,C89*%
X123097164Y-119160000D02*
X123312836Y-119160000D01*
X123097164Y-118440000D02*
X123312836Y-118440000D01*
%TO.C,C40*%
X104807836Y-113960000D02*
X104592164Y-113960000D01*
X104807836Y-113240000D02*
X104592164Y-113240000D01*
%TO.C,U5*%
X77260000Y-113400000D02*
X77260000Y-114200000D01*
X77260000Y-113400000D02*
X77260000Y-112600000D01*
X74140000Y-113400000D02*
X74140000Y-115200000D01*
X74140000Y-113400000D02*
X74140000Y-112600000D01*
%TO.C,R83*%
X116575000Y-117603641D02*
X116575000Y-117296359D01*
X117335000Y-117603641D02*
X117335000Y-117296359D01*
%TO.C,R40*%
X109685000Y-117208641D02*
X109685000Y-116901359D01*
X110445000Y-117208641D02*
X110445000Y-116901359D01*
%TO.C,C50*%
X73060000Y-114707836D02*
X73060000Y-114492164D01*
X72340000Y-114707836D02*
X72340000Y-114492164D01*
%TO.C,R50*%
X73080000Y-112146359D02*
X73080000Y-112453641D01*
X72320000Y-112146359D02*
X72320000Y-112453641D01*
%TO.C,C82*%
X117829588Y-112287836D02*
X117829588Y-112072164D01*
X118549588Y-112287836D02*
X118549588Y-112072164D01*
%TO.C,C810*%
X122897424Y-112240000D02*
X122681752Y-112240000D01*
X122897424Y-112960000D02*
X122681752Y-112960000D01*
%TO.C,C88*%
X119914852Y-112960000D02*
X120130524Y-112960000D01*
X119914852Y-112240000D02*
X120130524Y-112240000D01*
%TO.C,C51*%
X78460000Y-112907836D02*
X78460000Y-112692164D01*
X77740000Y-112907836D02*
X77740000Y-112692164D01*
%TO.C,C84*%
X114629588Y-114312164D02*
X114629588Y-114527836D01*
X115349588Y-114312164D02*
X115349588Y-114527836D01*
%TO.C,C81*%
X113102836Y-117760000D02*
X112887164Y-117760000D01*
X113102836Y-117040000D02*
X112887164Y-117040000D01*
%TO.C,C41*%
X108305000Y-116947164D02*
X108305000Y-117162836D01*
X109025000Y-116947164D02*
X109025000Y-117162836D01*
%TO.C,J81*%
X125616447Y-117140000D02*
X125970000Y-116890000D01*
X125970000Y-116890000D02*
X125616447Y-116640000D01*
X126710000Y-112080000D02*
X126710000Y-113180000D01*
X126710000Y-118500000D02*
X126710000Y-117400000D01*
X126710000Y-117400000D02*
X126470000Y-117400000D01*
X129700000Y-117430000D02*
X129700000Y-113150000D01*
X127830000Y-118500000D02*
X126710000Y-118500000D01*
X125616447Y-116640000D02*
X125616447Y-117140000D01*
X127830000Y-112080000D02*
X126710000Y-112080000D01*
%TO.C,C87*%
X119747164Y-119460000D02*
X119962836Y-119460000D01*
X119747164Y-118740000D02*
X119962836Y-118740000D01*
%TO.C,R86*%
X115309588Y-112026359D02*
X115309588Y-112333641D01*
X116069588Y-112026359D02*
X116069588Y-112333641D01*
%TO.C,R85*%
X115358641Y-119130000D02*
X115051359Y-119130000D01*
X115358641Y-118370000D02*
X115051359Y-118370000D01*
%TD*%
M02*
