M48
; DRILL file {KiCad (6.0.0)} date Sat Apr 23 18:17:17 2022
; FORMAT={-:-/ absolute / inch / decimal}
; #@! TF.CreationDate,2022-04-23T18:17:17+01:00
; #@! TF.GenerationSoftware,Kicad,Pcbnew,(6.0.0)
; #@! TF.FileFunction,MixedPlating,1,4
FMAT,2
INCH
; #@! TA.AperFunction,Plated,PTH,ViaDrill
T1C0.0079
%
G90
G05
T1
X2.6575Y-4.3346
X2.7205Y-4.2047
X2.7205Y-4.2913
X2.7992Y-4.5787
X2.8465Y-4.6575
X2.8583Y-4.3307
X2.8622Y-4.4646
X2.9331Y-4.2913
X2.9332Y-4.2047
X2.9961Y-4.4646
X3.0748Y-4.3307
X3.1496Y-4.2066
X3.1496Y-4.2913
X3.2835Y-4.3307
X3.3622Y-4.2913
X3.3625Y-4.2066
X3.4921Y-4.3307
X3.5354Y-4.5433
X3.5748Y-4.2066
X3.5748Y-4.2913
X3.6417Y-4.5866
X3.7008Y-4.3307
X3.7874Y-4.2066
X3.7874Y-4.2913
X3.8031Y-4.644
X3.8526Y-4.4186
X3.8583Y-4.315
X3.9016Y-4.4764
X3.9094Y-4.5433
X3.9134Y-4.3307
X4.0Y-4.2913
X4.0001Y-4.2066
X4.0655Y-4.2795
X4.0669Y-4.4488
X4.0984Y-4.5472
X4.1181Y-4.4449
X4.1263Y-4.3304
X4.2126Y-4.2913
X4.2126Y-4.2066
X4.3228Y-4.5276
X4.3307Y-4.3307
X4.4291Y-4.2066
X4.4291Y-4.2913
X4.4297Y-4.6492
X4.5394Y-4.3307
X4.5516Y-4.5236
X4.6417Y-4.2913
X4.642Y-4.2066
X4.6741Y-4.5591
X4.7292Y-4.4843
X4.7476Y-4.5276
X4.7476Y-4.5906
X4.752Y-4.3307
X4.7804Y-4.6614
X4.8106Y-4.5276
X4.8106Y-4.5906
X4.8526Y-4.479
X4.8543Y-4.2913
X4.8546Y-4.2062
X4.8819Y-4.1772
X4.9882Y-4.3346
X5.0669Y-4.2087
X5.0669Y-4.2913
T0
M30
