%TF.GenerationSoftware,KiCad,Pcbnew,(6.0.0)*%
%TF.CreationDate,2022-04-23T18:16:59+01:00*%
%TF.ProjectId,pcb O,70636220-4f2e-46b6-9963-61645f706362,rev?*%
%TF.SameCoordinates,Original*%
%TF.FileFunction,Copper,L3,Inr*%
%TF.FilePolarity,Positive*%
%FSLAX46Y46*%
G04 Gerber Fmt 4.6, Leading zero omitted, Abs format (unit mm)*
G04 Created by KiCad (PCBNEW (6.0.0)) date 2022-04-23 18:16:59*
%MOMM*%
%LPD*%
G01*
G04 APERTURE LIST*
%TA.AperFunction,ViaPad*%
%ADD10C,0.400000*%
%TD*%
G04 APERTURE END LIST*
D10*
%TO.N,GND*%
X80000000Y-106848509D03*
X123305924Y-106837000D03*
X96200000Y-109000000D03*
X69100000Y-109000000D03*
X107000000Y-109000000D03*
X72700000Y-113400000D03*
X69100000Y-106798509D03*
X128700000Y-106900000D03*
X96200000Y-106848509D03*
X107000317Y-106848509D03*
X101602462Y-106848509D03*
X101600000Y-109000000D03*
X128700000Y-109000000D03*
X99100000Y-113700000D03*
X109800000Y-115000000D03*
X85407793Y-106848509D03*
X72300000Y-118300000D03*
X104600000Y-112900000D03*
X74500000Y-109000000D03*
X123300000Y-109000000D03*
X117907471Y-106848509D03*
X80000000Y-109000000D03*
X117900000Y-109000000D03*
X85400000Y-109000000D03*
X112500000Y-106848509D03*
X90800000Y-109000000D03*
X89800000Y-115400000D03*
X90800000Y-106848509D03*
X76100000Y-113400000D03*
X112500000Y-109000000D03*
X74502781Y-106798509D03*
%TO.N,GNDA*%
X122189588Y-115000000D03*
X115609588Y-114900000D03*
X112515000Y-118090000D03*
X120589588Y-116600000D03*
X92500000Y-116500000D03*
X120589588Y-115000000D03*
X122189588Y-116600000D03*
%TO.N,+3V3*%
X71100000Y-116300000D03*
X99300000Y-115400000D03*
X104100000Y-115500000D03*
%TO.N,+1V8*%
X96600000Y-117957440D03*
X120122688Y-113900000D03*
X123256488Y-113766900D03*
%TO.N,/RGB_VDD*%
X103262500Y-108700000D03*
X103300000Y-113000000D03*
%TO.N,/D2*%
X124000000Y-106100000D03*
X98000000Y-109600000D03*
X97854890Y-112232091D03*
%TO.N,/ELEC0*%
X126700000Y-110100000D03*
%TO.N,/ELEC1*%
X120700000Y-110000000D03*
%TO.N,/ELEC2*%
X115300000Y-110000000D03*
%TO.N,/ELEC3*%
X110000000Y-110000000D03*
%TO.N,/ELEC4*%
X104808276Y-109991724D03*
%TO.N,/ELEC5*%
X99400000Y-110000000D03*
%TO.N,/ELEC6*%
X94000000Y-110000000D03*
%TO.N,/ELEC7*%
X88700000Y-110000000D03*
%TO.N,/ELEC8*%
X83400000Y-110000000D03*
%TO.N,/ELEC9*%
X78100000Y-110000000D03*
%TO.N,/ELEC10*%
X72600000Y-110000000D03*
%TO.N,/ELEC11*%
X67500000Y-110100000D03*
%TO.N,Net-(C89-Pad1)*%
X121422688Y-118400000D03*
X118722688Y-115800000D03*
%TD*%
%TA.AperFunction,Conductor*%
%TO.N,GNDA*%
G36*
X129434121Y-111220002D02*
G01*
X129480614Y-111273658D01*
X129492000Y-111326000D01*
X129492000Y-119366000D01*
X129471998Y-119434121D01*
X129418342Y-119480614D01*
X129366000Y-119492000D01*
X87726000Y-119492000D01*
X87657879Y-119471998D01*
X87611386Y-119418342D01*
X87600000Y-119366000D01*
X87600000Y-117949966D01*
X95886335Y-117949966D01*
X95895744Y-118035191D01*
X95899515Y-118069344D01*
X95905153Y-118120415D01*
X95907762Y-118127546D01*
X95907763Y-118127548D01*
X95915688Y-118149204D01*
X95964085Y-118281455D01*
X96059730Y-118423789D01*
X96186565Y-118539200D01*
X96337268Y-118621025D01*
X96503139Y-118664541D01*
X96590586Y-118665914D01*
X96667003Y-118667115D01*
X96667006Y-118667115D01*
X96674602Y-118667234D01*
X96682006Y-118665538D01*
X96682008Y-118665538D01*
X96744846Y-118651146D01*
X96841759Y-118628950D01*
X96994958Y-118551899D01*
X97000729Y-118546970D01*
X97000732Y-118546968D01*
X97119578Y-118445463D01*
X97125355Y-118440529D01*
X97159849Y-118392526D01*
X120709023Y-118392526D01*
X120718432Y-118477751D01*
X120726995Y-118555311D01*
X120727841Y-118562975D01*
X120730450Y-118570106D01*
X120730451Y-118570108D01*
X120738376Y-118591764D01*
X120786773Y-118724015D01*
X120882418Y-118866349D01*
X121009253Y-118981760D01*
X121159956Y-119063585D01*
X121325827Y-119107101D01*
X121413274Y-119108474D01*
X121489691Y-119109675D01*
X121489694Y-119109675D01*
X121497290Y-119109794D01*
X121504694Y-119108098D01*
X121504696Y-119108098D01*
X121567534Y-119093706D01*
X121664447Y-119071510D01*
X121817646Y-118994459D01*
X121823417Y-118989530D01*
X121823420Y-118989528D01*
X121942266Y-118888023D01*
X121948043Y-118883089D01*
X122048112Y-118743830D01*
X122112073Y-118584720D01*
X122116242Y-118555425D01*
X122135654Y-118419031D01*
X122135654Y-118419027D01*
X122136235Y-118414947D01*
X122136392Y-118400000D01*
X122115790Y-118229758D01*
X122085352Y-118149204D01*
X122057859Y-118076447D01*
X122055175Y-118069344D01*
X121991345Y-117976471D01*
X121962347Y-117934278D01*
X121962346Y-117934276D01*
X121958045Y-117928019D01*
X121952374Y-117922966D01*
X121835681Y-117818996D01*
X121835678Y-117818994D01*
X121830009Y-117813943D01*
X121822013Y-117809709D01*
X121685169Y-117737254D01*
X121685170Y-117737254D01*
X121678457Y-117733700D01*
X121660884Y-117729286D01*
X121519510Y-117693775D01*
X121519506Y-117693775D01*
X121512139Y-117691924D01*
X121504540Y-117691884D01*
X121504538Y-117691884D01*
X121433082Y-117691510D01*
X121340657Y-117691026D01*
X121333277Y-117692798D01*
X121333275Y-117692798D01*
X121181290Y-117729286D01*
X121181286Y-117729287D01*
X121173911Y-117731058D01*
X121021527Y-117809709D01*
X120892303Y-117922439D01*
X120793698Y-118062739D01*
X120731406Y-118222509D01*
X120730414Y-118230042D01*
X120730414Y-118230043D01*
X120723646Y-118281455D01*
X120709023Y-118392526D01*
X97159849Y-118392526D01*
X97225424Y-118301270D01*
X97289385Y-118142160D01*
X97313547Y-117972387D01*
X97313704Y-117957440D01*
X97296339Y-117813943D01*
X97294015Y-117794739D01*
X97294014Y-117794736D01*
X97293102Y-117787198D01*
X97257432Y-117692798D01*
X97235171Y-117633887D01*
X97232487Y-117626784D01*
X97135357Y-117485459D01*
X97129686Y-117480406D01*
X97012993Y-117376436D01*
X97012990Y-117376434D01*
X97007321Y-117371383D01*
X96999325Y-117367149D01*
X96862481Y-117294694D01*
X96862482Y-117294694D01*
X96855769Y-117291140D01*
X96838196Y-117286726D01*
X96696822Y-117251215D01*
X96696818Y-117251215D01*
X96689451Y-117249364D01*
X96681852Y-117249324D01*
X96681850Y-117249324D01*
X96610394Y-117248950D01*
X96517969Y-117248466D01*
X96510589Y-117250238D01*
X96510587Y-117250238D01*
X96358602Y-117286726D01*
X96358598Y-117286727D01*
X96351223Y-117288498D01*
X96198839Y-117367149D01*
X96069615Y-117479879D01*
X95971010Y-117620179D01*
X95908718Y-117779949D01*
X95907726Y-117787482D01*
X95907726Y-117787483D01*
X95889141Y-117928653D01*
X95886335Y-117949966D01*
X87600000Y-117949966D01*
X87600000Y-116226000D01*
X87620002Y-116157879D01*
X87673658Y-116111386D01*
X87726000Y-116100000D01*
X89659818Y-116100000D01*
X89691793Y-116104125D01*
X89695785Y-116105172D01*
X89695787Y-116105172D01*
X89703139Y-116107101D01*
X89790586Y-116108474D01*
X89867003Y-116109675D01*
X89867006Y-116109675D01*
X89874602Y-116109794D01*
X89903482Y-116103180D01*
X89931609Y-116100000D01*
X99159818Y-116100000D01*
X99191793Y-116104125D01*
X99195785Y-116105172D01*
X99195787Y-116105172D01*
X99203139Y-116107101D01*
X99290586Y-116108474D01*
X99367003Y-116109675D01*
X99367006Y-116109675D01*
X99374602Y-116109794D01*
X99403482Y-116103180D01*
X99431609Y-116100000D01*
X103688159Y-116100000D01*
X103748281Y-116115269D01*
X103837268Y-116163585D01*
X104003139Y-116207101D01*
X104090586Y-116208474D01*
X104167003Y-116209675D01*
X104167006Y-116209675D01*
X104174602Y-116209794D01*
X104182006Y-116208098D01*
X104182008Y-116208098D01*
X104244846Y-116193706D01*
X104341759Y-116171510D01*
X104457229Y-116113435D01*
X104513842Y-116100000D01*
X113700000Y-116100000D01*
X113700000Y-115792526D01*
X118009023Y-115792526D01*
X118027841Y-115962975D01*
X118030450Y-115970106D01*
X118030451Y-115970108D01*
X118038376Y-115991764D01*
X118086773Y-116124015D01*
X118091010Y-116130321D01*
X118091012Y-116130324D01*
X118118688Y-116171510D01*
X118182418Y-116266349D01*
X118309253Y-116381760D01*
X118459956Y-116463585D01*
X118625827Y-116507101D01*
X118713274Y-116508474D01*
X118789691Y-116509675D01*
X118789694Y-116509675D01*
X118797290Y-116509794D01*
X118804694Y-116508098D01*
X118804696Y-116508098D01*
X118867534Y-116493706D01*
X118964447Y-116471510D01*
X119117646Y-116394459D01*
X119123417Y-116389530D01*
X119123420Y-116389528D01*
X119242266Y-116288023D01*
X119248043Y-116283089D01*
X119328222Y-116171510D01*
X119343680Y-116149998D01*
X119343681Y-116149997D01*
X119348112Y-116143830D01*
X119412073Y-115984720D01*
X119426537Y-115883089D01*
X119435654Y-115819031D01*
X119435654Y-115819027D01*
X119436235Y-115814947D01*
X119436392Y-115800000D01*
X119425150Y-115707101D01*
X119416703Y-115637299D01*
X119416702Y-115637296D01*
X119415790Y-115629758D01*
X119355175Y-115469344D01*
X119307516Y-115400000D01*
X119262347Y-115334278D01*
X119262346Y-115334276D01*
X119258045Y-115328019D01*
X119251861Y-115322509D01*
X119135681Y-115218996D01*
X119135678Y-115218994D01*
X119130009Y-115213943D01*
X119122013Y-115209709D01*
X119069411Y-115181858D01*
X118978457Y-115133700D01*
X118960884Y-115129286D01*
X118819510Y-115093775D01*
X118819506Y-115093775D01*
X118812139Y-115091924D01*
X118804540Y-115091884D01*
X118804538Y-115091884D01*
X118733082Y-115091510D01*
X118640657Y-115091026D01*
X118633277Y-115092798D01*
X118633275Y-115092798D01*
X118481290Y-115129286D01*
X118481286Y-115129287D01*
X118473911Y-115131058D01*
X118321527Y-115209709D01*
X118192303Y-115322439D01*
X118093698Y-115462739D01*
X118031406Y-115622509D01*
X118030414Y-115630042D01*
X118030414Y-115630043D01*
X118018043Y-115724015D01*
X118009023Y-115792526D01*
X113700000Y-115792526D01*
X113700000Y-113892526D01*
X119409023Y-113892526D01*
X119413934Y-113937008D01*
X119423540Y-114024015D01*
X119427841Y-114062975D01*
X119430450Y-114070106D01*
X119430451Y-114070108D01*
X119438376Y-114091764D01*
X119486773Y-114224015D01*
X119491010Y-114230321D01*
X119491012Y-114230324D01*
X119500088Y-114243830D01*
X119582418Y-114366349D01*
X119627204Y-114407101D01*
X119701822Y-114474998D01*
X119709253Y-114481760D01*
X119859956Y-114563585D01*
X120025827Y-114607101D01*
X120113274Y-114608474D01*
X120189691Y-114609675D01*
X120189694Y-114609675D01*
X120197290Y-114609794D01*
X120204694Y-114608098D01*
X120204696Y-114608098D01*
X120267534Y-114593706D01*
X120364447Y-114571510D01*
X120517646Y-114494459D01*
X120523417Y-114489530D01*
X120523420Y-114489528D01*
X120642266Y-114388023D01*
X120648043Y-114383089D01*
X120748112Y-114243830D01*
X120812073Y-114084720D01*
X120816242Y-114055425D01*
X120835654Y-113919031D01*
X120835654Y-113919027D01*
X120836235Y-113914947D01*
X120836392Y-113900000D01*
X120822094Y-113781847D01*
X120819381Y-113759426D01*
X122542823Y-113759426D01*
X122552232Y-113844651D01*
X122560444Y-113919031D01*
X122561641Y-113929875D01*
X122564250Y-113937006D01*
X122564251Y-113937008D01*
X122572176Y-113958664D01*
X122620573Y-114090915D01*
X122716218Y-114233249D01*
X122843053Y-114348660D01*
X122993756Y-114430485D01*
X123159627Y-114474001D01*
X123247074Y-114475374D01*
X123323491Y-114476575D01*
X123323494Y-114476575D01*
X123331090Y-114476694D01*
X123338494Y-114474998D01*
X123338496Y-114474998D01*
X123401334Y-114460606D01*
X123498247Y-114438410D01*
X123651446Y-114361359D01*
X123657217Y-114356430D01*
X123657220Y-114356428D01*
X123776066Y-114254923D01*
X123781843Y-114249989D01*
X123881912Y-114110730D01*
X123945873Y-113951620D01*
X123970035Y-113781847D01*
X123970192Y-113766900D01*
X123949590Y-113596658D01*
X123940088Y-113571510D01*
X123891659Y-113443347D01*
X123888975Y-113436244D01*
X123842996Y-113369344D01*
X123796147Y-113301178D01*
X123796146Y-113301176D01*
X123791845Y-113294919D01*
X123786174Y-113289866D01*
X123669481Y-113185896D01*
X123669478Y-113185894D01*
X123663809Y-113180843D01*
X123655813Y-113176609D01*
X123518969Y-113104154D01*
X123518970Y-113104154D01*
X123512257Y-113100600D01*
X123494684Y-113096186D01*
X123353310Y-113060675D01*
X123353306Y-113060675D01*
X123345939Y-113058824D01*
X123338340Y-113058784D01*
X123338338Y-113058784D01*
X123266882Y-113058410D01*
X123174457Y-113057926D01*
X123167077Y-113059698D01*
X123167075Y-113059698D01*
X123015090Y-113096186D01*
X123015086Y-113096187D01*
X123007711Y-113097958D01*
X122855327Y-113176609D01*
X122726103Y-113289339D01*
X122627498Y-113429639D01*
X122607177Y-113481760D01*
X122570260Y-113576447D01*
X122565206Y-113589409D01*
X122564214Y-113596942D01*
X122564214Y-113596943D01*
X122546729Y-113729758D01*
X122542823Y-113759426D01*
X120819381Y-113759426D01*
X120816703Y-113737299D01*
X120816702Y-113737296D01*
X120815790Y-113729758D01*
X120810194Y-113714947D01*
X120757859Y-113576447D01*
X120755175Y-113569344D01*
X120694980Y-113481760D01*
X120662347Y-113434278D01*
X120662346Y-113434276D01*
X120658045Y-113428019D01*
X120652374Y-113422966D01*
X120535681Y-113318996D01*
X120535678Y-113318994D01*
X120530009Y-113313943D01*
X120522013Y-113309709D01*
X120385169Y-113237254D01*
X120385170Y-113237254D01*
X120378457Y-113233700D01*
X120333625Y-113222439D01*
X120219510Y-113193775D01*
X120219506Y-113193775D01*
X120212139Y-113191924D01*
X120204540Y-113191884D01*
X120204538Y-113191884D01*
X120133082Y-113191510D01*
X120040657Y-113191026D01*
X120033277Y-113192798D01*
X120033275Y-113192798D01*
X119881290Y-113229286D01*
X119881286Y-113229287D01*
X119873911Y-113231058D01*
X119721527Y-113309709D01*
X119592303Y-113422439D01*
X119493698Y-113562739D01*
X119476402Y-113607101D01*
X119454380Y-113663585D01*
X119431406Y-113722509D01*
X119430414Y-113730042D01*
X119430414Y-113730043D01*
X119410051Y-113884720D01*
X119409023Y-113892526D01*
X113700000Y-113892526D01*
X113700000Y-111326000D01*
X113720002Y-111257879D01*
X113773658Y-111211386D01*
X113826000Y-111200000D01*
X129366000Y-111200000D01*
X129434121Y-111220002D01*
G37*
%TD.AperFunction*%
%TD*%
%TA.AperFunction,Conductor*%
%TO.N,GND*%
G36*
X129434121Y-104528002D02*
G01*
X129480614Y-104581658D01*
X129492000Y-104634000D01*
X129492000Y-110574000D01*
X129471998Y-110642121D01*
X129418342Y-110688614D01*
X129366000Y-110700000D01*
X127387043Y-110700000D01*
X127318922Y-110679998D01*
X127272429Y-110626342D01*
X127262325Y-110556068D01*
X127284721Y-110500473D01*
X127293170Y-110488715D01*
X127325424Y-110443830D01*
X127389385Y-110284720D01*
X127402231Y-110194459D01*
X127412966Y-110119031D01*
X127412966Y-110119027D01*
X127413547Y-110114947D01*
X127413704Y-110100000D01*
X127408869Y-110060043D01*
X127394015Y-109937299D01*
X127394014Y-109937296D01*
X127393102Y-109929758D01*
X127388236Y-109916879D01*
X127335171Y-109776447D01*
X127332487Y-109769344D01*
X127268641Y-109676447D01*
X127239659Y-109634278D01*
X127239658Y-109634276D01*
X127235357Y-109628019D01*
X127229686Y-109622966D01*
X127112993Y-109518996D01*
X127112990Y-109518994D01*
X127107321Y-109513943D01*
X127099325Y-109509709D01*
X127046723Y-109481858D01*
X126955769Y-109433700D01*
X126897230Y-109418996D01*
X126796822Y-109393775D01*
X126796818Y-109393775D01*
X126789451Y-109391924D01*
X126781852Y-109391884D01*
X126781850Y-109391884D01*
X126710394Y-109391510D01*
X126617969Y-109391026D01*
X126610589Y-109392798D01*
X126610587Y-109392798D01*
X126458602Y-109429286D01*
X126458598Y-109429287D01*
X126451223Y-109431058D01*
X126298839Y-109509709D01*
X126169615Y-109622439D01*
X126071010Y-109762739D01*
X126008718Y-109922509D01*
X126007726Y-109930042D01*
X126007726Y-109930043D01*
X125987495Y-110083718D01*
X125986335Y-110092526D01*
X126005153Y-110262975D01*
X126007762Y-110270106D01*
X126007763Y-110270108D01*
X126027490Y-110324015D01*
X126064085Y-110424015D01*
X126117649Y-110503726D01*
X126139041Y-110571420D01*
X126120437Y-110639936D01*
X126067745Y-110687518D01*
X126013067Y-110700000D01*
X121311692Y-110700000D01*
X121243571Y-110679998D01*
X121197078Y-110626342D01*
X121186974Y-110556068D01*
X121218943Y-110488715D01*
X121219584Y-110488018D01*
X121225355Y-110483089D01*
X121325424Y-110343830D01*
X121389385Y-110184720D01*
X121394732Y-110147149D01*
X121412966Y-110019031D01*
X121412966Y-110019027D01*
X121413547Y-110014947D01*
X121413704Y-110000000D01*
X121393102Y-109829758D01*
X121390083Y-109821767D01*
X121335171Y-109676447D01*
X121332487Y-109669344D01*
X121295101Y-109614947D01*
X121239659Y-109534278D01*
X121239658Y-109534276D01*
X121235357Y-109528019D01*
X121229686Y-109522966D01*
X121112993Y-109418996D01*
X121112990Y-109418994D01*
X121107321Y-109413943D01*
X121099325Y-109409709D01*
X120962481Y-109337254D01*
X120962482Y-109337254D01*
X120955769Y-109333700D01*
X120915456Y-109323574D01*
X120796822Y-109293775D01*
X120796818Y-109293775D01*
X120789451Y-109291924D01*
X120781852Y-109291884D01*
X120781850Y-109291884D01*
X120710394Y-109291510D01*
X120617969Y-109291026D01*
X120610589Y-109292798D01*
X120610587Y-109292798D01*
X120458602Y-109329286D01*
X120458598Y-109329287D01*
X120451223Y-109331058D01*
X120298839Y-109409709D01*
X120169615Y-109522439D01*
X120071010Y-109662739D01*
X120039864Y-109742624D01*
X120011945Y-109814233D01*
X120008718Y-109822509D01*
X120007726Y-109830042D01*
X120007726Y-109830043D01*
X119987425Y-109984250D01*
X119986335Y-109992526D01*
X119993789Y-110060043D01*
X120003406Y-110147149D01*
X120005153Y-110162975D01*
X120007762Y-110170106D01*
X120007763Y-110170108D01*
X120013353Y-110185384D01*
X120064085Y-110324015D01*
X120068322Y-110330321D01*
X120068324Y-110330324D01*
X120077400Y-110343830D01*
X120159730Y-110466349D01*
X120165345Y-110471458D01*
X120165350Y-110471464D01*
X120175618Y-110480807D01*
X120212540Y-110541447D01*
X120210817Y-110612423D01*
X120170995Y-110671199D01*
X120105717Y-110699116D01*
X120090818Y-110700000D01*
X115911692Y-110700000D01*
X115843571Y-110679998D01*
X115797078Y-110626342D01*
X115786974Y-110556068D01*
X115818943Y-110488715D01*
X115819584Y-110488018D01*
X115825355Y-110483089D01*
X115925424Y-110343830D01*
X115989385Y-110184720D01*
X115994732Y-110147149D01*
X116012966Y-110019031D01*
X116012966Y-110019027D01*
X116013547Y-110014947D01*
X116013704Y-110000000D01*
X115993102Y-109829758D01*
X115990083Y-109821767D01*
X115935171Y-109676447D01*
X115932487Y-109669344D01*
X115895101Y-109614947D01*
X115839659Y-109534278D01*
X115839658Y-109534276D01*
X115835357Y-109528019D01*
X115829686Y-109522966D01*
X115712993Y-109418996D01*
X115712990Y-109418994D01*
X115707321Y-109413943D01*
X115699325Y-109409709D01*
X115562481Y-109337254D01*
X115562482Y-109337254D01*
X115555769Y-109333700D01*
X115515456Y-109323574D01*
X115396822Y-109293775D01*
X115396818Y-109293775D01*
X115389451Y-109291924D01*
X115381852Y-109291884D01*
X115381850Y-109291884D01*
X115310394Y-109291510D01*
X115217969Y-109291026D01*
X115210589Y-109292798D01*
X115210587Y-109292798D01*
X115058602Y-109329286D01*
X115058598Y-109329287D01*
X115051223Y-109331058D01*
X114898839Y-109409709D01*
X114769615Y-109522439D01*
X114671010Y-109662739D01*
X114639864Y-109742624D01*
X114611945Y-109814233D01*
X114608718Y-109822509D01*
X114607726Y-109830042D01*
X114607726Y-109830043D01*
X114587425Y-109984250D01*
X114586335Y-109992526D01*
X114593789Y-110060043D01*
X114603406Y-110147149D01*
X114605153Y-110162975D01*
X114607762Y-110170106D01*
X114607763Y-110170108D01*
X114613353Y-110185384D01*
X114664085Y-110324015D01*
X114668322Y-110330321D01*
X114668324Y-110330324D01*
X114677400Y-110343830D01*
X114759730Y-110466349D01*
X114765345Y-110471458D01*
X114765350Y-110471464D01*
X114775618Y-110480807D01*
X114812540Y-110541447D01*
X114810817Y-110612423D01*
X114770995Y-110671199D01*
X114705717Y-110699116D01*
X114690818Y-110700000D01*
X113300000Y-110700000D01*
X113300000Y-115574000D01*
X113279998Y-115642121D01*
X113226342Y-115688614D01*
X113174000Y-115700000D01*
X104932412Y-115700000D01*
X104864291Y-115679998D01*
X104817798Y-115626342D01*
X104807669Y-115556246D01*
X104812966Y-115519029D01*
X104813547Y-115514947D01*
X104813704Y-115500000D01*
X104801612Y-115400076D01*
X104794015Y-115337299D01*
X104794014Y-115337296D01*
X104793102Y-115329758D01*
X104790337Y-115322439D01*
X104735171Y-115176447D01*
X104732487Y-115169344D01*
X104668641Y-115076447D01*
X104639659Y-115034278D01*
X104639658Y-115034276D01*
X104635357Y-115028019D01*
X104629686Y-115022966D01*
X104512993Y-114918996D01*
X104512990Y-114918994D01*
X104507321Y-114913943D01*
X104499325Y-114909709D01*
X104362481Y-114837254D01*
X104362482Y-114837254D01*
X104355769Y-114833700D01*
X104280119Y-114814698D01*
X104196822Y-114793775D01*
X104196818Y-114793775D01*
X104189451Y-114791924D01*
X104181852Y-114791884D01*
X104181850Y-114791884D01*
X104110394Y-114791510D01*
X104017969Y-114791026D01*
X104010589Y-114792798D01*
X104010587Y-114792798D01*
X103858602Y-114829286D01*
X103858598Y-114829287D01*
X103851223Y-114831058D01*
X103698839Y-114909709D01*
X103569615Y-115022439D01*
X103471010Y-115162739D01*
X103408718Y-115322509D01*
X103407726Y-115330042D01*
X103407726Y-115330043D01*
X103390257Y-115462739D01*
X103386335Y-115492526D01*
X103388355Y-115510822D01*
X103393803Y-115560174D01*
X103381397Y-115630078D01*
X103333167Y-115682178D01*
X103268564Y-115700000D01*
X100118180Y-115700000D01*
X100050059Y-115679998D01*
X100003566Y-115626342D01*
X99993437Y-115556246D01*
X100002027Y-115495894D01*
X100013547Y-115414947D01*
X100013704Y-115400000D01*
X99993102Y-115229758D01*
X99932487Y-115069344D01*
X99884828Y-115000000D01*
X99839659Y-114934278D01*
X99839658Y-114934276D01*
X99835357Y-114928019D01*
X99829686Y-114922966D01*
X99712993Y-114818996D01*
X99712990Y-114818994D01*
X99707321Y-114813943D01*
X99699325Y-114809709D01*
X99562481Y-114737254D01*
X99562482Y-114737254D01*
X99555769Y-114733700D01*
X99511216Y-114722509D01*
X99396822Y-114693775D01*
X99396818Y-114693775D01*
X99389451Y-114691924D01*
X99381852Y-114691884D01*
X99381850Y-114691884D01*
X99310394Y-114691510D01*
X99217969Y-114691026D01*
X99210589Y-114692798D01*
X99210587Y-114692798D01*
X99058602Y-114729286D01*
X99058598Y-114729287D01*
X99051223Y-114731058D01*
X98898839Y-114809709D01*
X98769615Y-114922439D01*
X98671010Y-115062739D01*
X98659631Y-115091924D01*
X98612058Y-115213943D01*
X98608718Y-115222509D01*
X98607726Y-115230042D01*
X98607726Y-115230043D01*
X98593606Y-115337299D01*
X98586335Y-115392526D01*
X98604410Y-115556246D01*
X98604844Y-115560173D01*
X98592438Y-115630077D01*
X98544209Y-115682178D01*
X98479605Y-115700000D01*
X87200000Y-115700000D01*
X87200000Y-119366000D01*
X87179998Y-119434121D01*
X87126342Y-119480614D01*
X87074000Y-119492000D01*
X65634000Y-119492000D01*
X65565879Y-119471998D01*
X65519386Y-119418342D01*
X65508000Y-119366000D01*
X65508000Y-116292526D01*
X70386335Y-116292526D01*
X70390446Y-116329758D01*
X70401486Y-116429758D01*
X70405153Y-116462975D01*
X70407762Y-116470106D01*
X70407763Y-116470108D01*
X70415688Y-116491764D01*
X70464085Y-116624015D01*
X70559730Y-116766349D01*
X70686565Y-116881760D01*
X70837268Y-116963585D01*
X71003139Y-117007101D01*
X71090586Y-117008474D01*
X71167003Y-117009675D01*
X71167006Y-117009675D01*
X71174602Y-117009794D01*
X71182006Y-117008098D01*
X71182008Y-117008098D01*
X71291202Y-116983089D01*
X71341759Y-116971510D01*
X71494958Y-116894459D01*
X71500729Y-116889530D01*
X71500732Y-116889528D01*
X71619578Y-116788023D01*
X71625355Y-116783089D01*
X71725424Y-116643830D01*
X71789385Y-116484720D01*
X71813547Y-116314947D01*
X71813704Y-116300000D01*
X71797196Y-116163585D01*
X71794015Y-116137299D01*
X71794014Y-116137296D01*
X71793102Y-116129758D01*
X71790337Y-116122439D01*
X71735171Y-115976447D01*
X71732487Y-115969344D01*
X71673206Y-115883089D01*
X71639659Y-115834278D01*
X71639658Y-115834276D01*
X71635357Y-115828019D01*
X71629686Y-115822966D01*
X71512993Y-115718996D01*
X71512990Y-115718994D01*
X71507321Y-115713943D01*
X71499325Y-115709709D01*
X71412212Y-115663585D01*
X71355769Y-115633700D01*
X71338196Y-115629286D01*
X71196822Y-115593775D01*
X71196818Y-115593775D01*
X71189451Y-115591924D01*
X71181852Y-115591884D01*
X71181850Y-115591884D01*
X71110394Y-115591510D01*
X71017969Y-115591026D01*
X71010589Y-115592798D01*
X71010587Y-115592798D01*
X70858602Y-115629286D01*
X70858598Y-115629287D01*
X70851223Y-115631058D01*
X70698839Y-115709709D01*
X70569615Y-115822439D01*
X70471010Y-115962739D01*
X70463594Y-115981760D01*
X70431692Y-116063585D01*
X70408718Y-116122509D01*
X70407726Y-116130042D01*
X70407726Y-116130043D01*
X70390257Y-116262739D01*
X70386335Y-116292526D01*
X65508000Y-116292526D01*
X65508000Y-112992526D01*
X102586335Y-112992526D01*
X102605153Y-113162975D01*
X102607762Y-113170106D01*
X102607763Y-113170108D01*
X102615418Y-113191026D01*
X102664085Y-113324015D01*
X102759730Y-113466349D01*
X102886565Y-113581760D01*
X103037268Y-113663585D01*
X103203139Y-113707101D01*
X103290586Y-113708474D01*
X103367003Y-113709675D01*
X103367006Y-113709675D01*
X103374602Y-113709794D01*
X103382006Y-113708098D01*
X103382008Y-113708098D01*
X103444846Y-113693706D01*
X103541759Y-113671510D01*
X103694958Y-113594459D01*
X103700729Y-113589530D01*
X103700732Y-113589528D01*
X103819578Y-113488023D01*
X103825355Y-113483089D01*
X103925424Y-113343830D01*
X103989385Y-113184720D01*
X104001733Y-113097958D01*
X104012966Y-113019031D01*
X104012966Y-113019027D01*
X104013547Y-113014947D01*
X104013704Y-113000000D01*
X103993102Y-112829758D01*
X103987092Y-112813851D01*
X103935171Y-112676447D01*
X103932487Y-112669344D01*
X103835357Y-112528019D01*
X103829686Y-112522966D01*
X103712993Y-112418996D01*
X103712990Y-112418994D01*
X103707321Y-112413943D01*
X103699325Y-112409709D01*
X103562481Y-112337254D01*
X103562482Y-112337254D01*
X103555769Y-112333700D01*
X103538196Y-112329286D01*
X103396822Y-112293775D01*
X103396818Y-112293775D01*
X103389451Y-112291924D01*
X103381852Y-112291884D01*
X103381850Y-112291884D01*
X103310394Y-112291510D01*
X103217969Y-112291026D01*
X103210589Y-112292798D01*
X103210587Y-112292798D01*
X103058602Y-112329286D01*
X103058598Y-112329287D01*
X103051223Y-112331058D01*
X102898839Y-112409709D01*
X102769615Y-112522439D01*
X102671010Y-112662739D01*
X102652970Y-112709010D01*
X102612094Y-112813851D01*
X102608718Y-112822509D01*
X102607726Y-112830042D01*
X102607726Y-112830043D01*
X102593018Y-112941766D01*
X102586335Y-112992526D01*
X65508000Y-112992526D01*
X65508000Y-112224617D01*
X97141225Y-112224617D01*
X97160043Y-112395066D01*
X97162652Y-112402197D01*
X97162653Y-112402199D01*
X97168800Y-112418996D01*
X97218975Y-112556106D01*
X97314620Y-112698440D01*
X97441455Y-112813851D01*
X97592158Y-112895676D01*
X97758029Y-112939192D01*
X97845476Y-112940565D01*
X97921893Y-112941766D01*
X97921896Y-112941766D01*
X97929492Y-112941885D01*
X97936896Y-112940189D01*
X97936898Y-112940189D01*
X97999736Y-112925797D01*
X98096649Y-112903601D01*
X98249848Y-112826550D01*
X98255619Y-112821621D01*
X98255622Y-112821619D01*
X98374468Y-112720114D01*
X98380245Y-112715180D01*
X98480314Y-112575921D01*
X98544275Y-112416811D01*
X98556732Y-112329286D01*
X98567856Y-112251122D01*
X98567856Y-112251118D01*
X98568437Y-112247038D01*
X98568594Y-112232091D01*
X98547992Y-112061849D01*
X98487377Y-111901435D01*
X98390247Y-111760110D01*
X98384576Y-111755057D01*
X98267883Y-111651087D01*
X98267880Y-111651085D01*
X98262211Y-111646034D01*
X98254215Y-111641800D01*
X98117371Y-111569345D01*
X98117372Y-111569345D01*
X98110659Y-111565791D01*
X98093086Y-111561377D01*
X97951712Y-111525866D01*
X97951708Y-111525866D01*
X97944341Y-111524015D01*
X97936742Y-111523975D01*
X97936740Y-111523975D01*
X97865284Y-111523601D01*
X97772859Y-111523117D01*
X97765479Y-111524889D01*
X97765477Y-111524889D01*
X97613492Y-111561377D01*
X97613488Y-111561378D01*
X97606113Y-111563149D01*
X97453729Y-111641800D01*
X97324505Y-111754530D01*
X97225900Y-111894830D01*
X97163608Y-112054600D01*
X97141225Y-112224617D01*
X65508000Y-112224617D01*
X65508000Y-110092526D01*
X66786335Y-110092526D01*
X66805153Y-110262975D01*
X66807762Y-110270106D01*
X66807763Y-110270108D01*
X66827490Y-110324015D01*
X66864085Y-110424015D01*
X66868321Y-110430319D01*
X66868324Y-110430324D01*
X66902248Y-110480807D01*
X66959730Y-110566349D01*
X66994372Y-110597871D01*
X67074959Y-110671199D01*
X67086565Y-110681760D01*
X67237268Y-110763585D01*
X67403139Y-110807101D01*
X67490586Y-110808474D01*
X67567003Y-110809675D01*
X67567006Y-110809675D01*
X67574602Y-110809794D01*
X67582006Y-110808098D01*
X67582008Y-110808098D01*
X67644846Y-110793706D01*
X67741759Y-110771510D01*
X67894958Y-110694459D01*
X67900729Y-110689530D01*
X67900732Y-110689528D01*
X68019578Y-110588023D01*
X68025355Y-110583089D01*
X68125424Y-110443830D01*
X68189385Y-110284720D01*
X68202231Y-110194459D01*
X68212966Y-110119031D01*
X68212966Y-110119027D01*
X68213547Y-110114947D01*
X68213704Y-110100000D01*
X68208869Y-110060043D01*
X68200698Y-109992526D01*
X71886335Y-109992526D01*
X71893789Y-110060043D01*
X71903406Y-110147149D01*
X71905153Y-110162975D01*
X71907762Y-110170106D01*
X71907763Y-110170108D01*
X71913353Y-110185384D01*
X71964085Y-110324015D01*
X71968322Y-110330321D01*
X71968324Y-110330324D01*
X71977400Y-110343830D01*
X72059730Y-110466349D01*
X72123147Y-110524054D01*
X72169629Y-110566349D01*
X72186565Y-110581760D01*
X72337268Y-110663585D01*
X72503139Y-110707101D01*
X72590586Y-110708474D01*
X72667003Y-110709675D01*
X72667006Y-110709675D01*
X72674602Y-110709794D01*
X72682006Y-110708098D01*
X72682008Y-110708098D01*
X72771864Y-110687518D01*
X72841759Y-110671510D01*
X72994958Y-110594459D01*
X73000729Y-110589530D01*
X73000732Y-110589528D01*
X73119578Y-110488023D01*
X73125355Y-110483089D01*
X73225424Y-110343830D01*
X73289385Y-110184720D01*
X73294732Y-110147149D01*
X73312966Y-110019031D01*
X73312966Y-110019027D01*
X73313547Y-110014947D01*
X73313704Y-110000000D01*
X73312800Y-109992526D01*
X77386335Y-109992526D01*
X77393789Y-110060043D01*
X77403406Y-110147149D01*
X77405153Y-110162975D01*
X77407762Y-110170106D01*
X77407763Y-110170108D01*
X77413353Y-110185384D01*
X77464085Y-110324015D01*
X77468322Y-110330321D01*
X77468324Y-110330324D01*
X77477400Y-110343830D01*
X77559730Y-110466349D01*
X77623147Y-110524054D01*
X77669629Y-110566349D01*
X77686565Y-110581760D01*
X77837268Y-110663585D01*
X78003139Y-110707101D01*
X78090586Y-110708474D01*
X78167003Y-110709675D01*
X78167006Y-110709675D01*
X78174602Y-110709794D01*
X78182006Y-110708098D01*
X78182008Y-110708098D01*
X78271864Y-110687518D01*
X78341759Y-110671510D01*
X78494958Y-110594459D01*
X78500729Y-110589530D01*
X78500732Y-110589528D01*
X78619578Y-110488023D01*
X78625355Y-110483089D01*
X78725424Y-110343830D01*
X78789385Y-110184720D01*
X78794732Y-110147149D01*
X78812966Y-110019031D01*
X78812966Y-110019027D01*
X78813547Y-110014947D01*
X78813704Y-110000000D01*
X78812800Y-109992526D01*
X82686335Y-109992526D01*
X82693789Y-110060043D01*
X82703406Y-110147149D01*
X82705153Y-110162975D01*
X82707762Y-110170106D01*
X82707763Y-110170108D01*
X82713353Y-110185384D01*
X82764085Y-110324015D01*
X82768322Y-110330321D01*
X82768324Y-110330324D01*
X82777400Y-110343830D01*
X82859730Y-110466349D01*
X82923147Y-110524054D01*
X82969629Y-110566349D01*
X82986565Y-110581760D01*
X83137268Y-110663585D01*
X83303139Y-110707101D01*
X83390586Y-110708474D01*
X83467003Y-110709675D01*
X83467006Y-110709675D01*
X83474602Y-110709794D01*
X83482006Y-110708098D01*
X83482008Y-110708098D01*
X83571864Y-110687518D01*
X83641759Y-110671510D01*
X83794958Y-110594459D01*
X83800729Y-110589530D01*
X83800732Y-110589528D01*
X83919578Y-110488023D01*
X83925355Y-110483089D01*
X84025424Y-110343830D01*
X84089385Y-110184720D01*
X84094732Y-110147149D01*
X84112966Y-110019031D01*
X84112966Y-110019027D01*
X84113547Y-110014947D01*
X84113704Y-110000000D01*
X84112800Y-109992526D01*
X87986335Y-109992526D01*
X87993789Y-110060043D01*
X88003406Y-110147149D01*
X88005153Y-110162975D01*
X88007762Y-110170106D01*
X88007763Y-110170108D01*
X88013353Y-110185384D01*
X88064085Y-110324015D01*
X88068322Y-110330321D01*
X88068324Y-110330324D01*
X88077400Y-110343830D01*
X88159730Y-110466349D01*
X88223147Y-110524054D01*
X88269629Y-110566349D01*
X88286565Y-110581760D01*
X88437268Y-110663585D01*
X88603139Y-110707101D01*
X88690586Y-110708474D01*
X88767003Y-110709675D01*
X88767006Y-110709675D01*
X88774602Y-110709794D01*
X88782006Y-110708098D01*
X88782008Y-110708098D01*
X88871864Y-110687518D01*
X88941759Y-110671510D01*
X89094958Y-110594459D01*
X89100729Y-110589530D01*
X89100732Y-110589528D01*
X89219578Y-110488023D01*
X89225355Y-110483089D01*
X89325424Y-110343830D01*
X89389385Y-110184720D01*
X89394732Y-110147149D01*
X89412966Y-110019031D01*
X89412966Y-110019027D01*
X89413547Y-110014947D01*
X89413704Y-110000000D01*
X89412800Y-109992526D01*
X93286335Y-109992526D01*
X93293789Y-110060043D01*
X93303406Y-110147149D01*
X93305153Y-110162975D01*
X93307762Y-110170106D01*
X93307763Y-110170108D01*
X93313353Y-110185384D01*
X93364085Y-110324015D01*
X93368322Y-110330321D01*
X93368324Y-110330324D01*
X93377400Y-110343830D01*
X93459730Y-110466349D01*
X93523147Y-110524054D01*
X93569629Y-110566349D01*
X93586565Y-110581760D01*
X93737268Y-110663585D01*
X93903139Y-110707101D01*
X93990586Y-110708474D01*
X94067003Y-110709675D01*
X94067006Y-110709675D01*
X94074602Y-110709794D01*
X94082006Y-110708098D01*
X94082008Y-110708098D01*
X94171864Y-110687518D01*
X94241759Y-110671510D01*
X94394958Y-110594459D01*
X94400729Y-110589530D01*
X94400732Y-110589528D01*
X94519578Y-110488023D01*
X94525355Y-110483089D01*
X94625424Y-110343830D01*
X94689385Y-110184720D01*
X94694732Y-110147149D01*
X94712966Y-110019031D01*
X94712966Y-110019027D01*
X94713547Y-110014947D01*
X94713704Y-110000000D01*
X94693102Y-109829758D01*
X94690083Y-109821767D01*
X94635171Y-109676447D01*
X94632487Y-109669344D01*
X94595101Y-109614947D01*
X94579692Y-109592526D01*
X97286335Y-109592526D01*
X97305153Y-109762975D01*
X97307762Y-109770106D01*
X97307763Y-109770108D01*
X97321320Y-109807153D01*
X97364085Y-109924015D01*
X97368322Y-109930321D01*
X97368324Y-109930324D01*
X97377400Y-109943830D01*
X97459730Y-110066349D01*
X97517627Y-110119031D01*
X97573760Y-110170108D01*
X97586565Y-110181760D01*
X97737268Y-110263585D01*
X97903139Y-110307101D01*
X97990586Y-110308474D01*
X98067003Y-110309675D01*
X98067006Y-110309675D01*
X98074602Y-110309794D01*
X98082006Y-110308098D01*
X98082008Y-110308098D01*
X98153325Y-110291764D01*
X98241759Y-110271510D01*
X98394958Y-110194459D01*
X98503045Y-110102143D01*
X98567834Y-110073113D01*
X98638034Y-110083718D01*
X98691356Y-110130592D01*
X98704971Y-110163042D01*
X98705153Y-110162975D01*
X98764085Y-110324015D01*
X98768322Y-110330321D01*
X98768324Y-110330324D01*
X98777400Y-110343830D01*
X98859730Y-110466349D01*
X98923147Y-110524054D01*
X98969629Y-110566349D01*
X98986565Y-110581760D01*
X99137268Y-110663585D01*
X99303139Y-110707101D01*
X99390586Y-110708474D01*
X99467003Y-110709675D01*
X99467006Y-110709675D01*
X99474602Y-110709794D01*
X99482006Y-110708098D01*
X99482008Y-110708098D01*
X99571864Y-110687518D01*
X99641759Y-110671510D01*
X99794958Y-110594459D01*
X99800729Y-110589530D01*
X99800732Y-110589528D01*
X99919578Y-110488023D01*
X99925355Y-110483089D01*
X100025424Y-110343830D01*
X100089385Y-110184720D01*
X100094732Y-110147149D01*
X100112966Y-110019031D01*
X100112966Y-110019027D01*
X100113547Y-110014947D01*
X100113704Y-110000000D01*
X100111798Y-109984250D01*
X104094611Y-109984250D01*
X104097545Y-110010822D01*
X104110768Y-110130592D01*
X104113429Y-110154699D01*
X104116038Y-110161830D01*
X104116039Y-110161832D01*
X104126993Y-110191764D01*
X104172361Y-110315739D01*
X104176598Y-110322045D01*
X104176600Y-110322048D01*
X104185676Y-110335554D01*
X104268006Y-110458073D01*
X104292990Y-110480807D01*
X104380070Y-110560043D01*
X104394841Y-110573484D01*
X104545544Y-110655309D01*
X104711415Y-110698825D01*
X104798862Y-110700198D01*
X104875279Y-110701399D01*
X104875282Y-110701399D01*
X104882878Y-110701518D01*
X104890282Y-110699822D01*
X104890284Y-110699822D01*
X104976839Y-110679998D01*
X105050035Y-110663234D01*
X105203234Y-110586183D01*
X105209005Y-110581254D01*
X105209008Y-110581252D01*
X105327854Y-110479747D01*
X105333631Y-110474813D01*
X105433700Y-110335554D01*
X105497661Y-110176444D01*
X105508530Y-110100076D01*
X105521242Y-110010755D01*
X105521242Y-110010751D01*
X105521823Y-110006671D01*
X105521897Y-109999581D01*
X105521937Y-109995857D01*
X105521937Y-109995851D01*
X105521972Y-109992526D01*
X109286335Y-109992526D01*
X109293789Y-110060043D01*
X109303406Y-110147149D01*
X109305153Y-110162975D01*
X109307762Y-110170106D01*
X109307763Y-110170108D01*
X109313353Y-110185384D01*
X109364085Y-110324015D01*
X109368322Y-110330321D01*
X109368324Y-110330324D01*
X109377400Y-110343830D01*
X109459730Y-110466349D01*
X109523147Y-110524054D01*
X109569629Y-110566349D01*
X109586565Y-110581760D01*
X109737268Y-110663585D01*
X109903139Y-110707101D01*
X109990586Y-110708474D01*
X110067003Y-110709675D01*
X110067006Y-110709675D01*
X110074602Y-110709794D01*
X110082006Y-110708098D01*
X110082008Y-110708098D01*
X110171864Y-110687518D01*
X110241759Y-110671510D01*
X110394958Y-110594459D01*
X110400729Y-110589530D01*
X110400732Y-110589528D01*
X110519578Y-110488023D01*
X110525355Y-110483089D01*
X110625424Y-110343830D01*
X110689385Y-110184720D01*
X110694732Y-110147149D01*
X110712966Y-110019031D01*
X110712966Y-110019027D01*
X110713547Y-110014947D01*
X110713704Y-110000000D01*
X110693102Y-109829758D01*
X110690083Y-109821767D01*
X110635171Y-109676447D01*
X110632487Y-109669344D01*
X110595101Y-109614947D01*
X110539659Y-109534278D01*
X110539658Y-109534276D01*
X110535357Y-109528019D01*
X110529686Y-109522966D01*
X110412993Y-109418996D01*
X110412990Y-109418994D01*
X110407321Y-109413943D01*
X110399325Y-109409709D01*
X110262481Y-109337254D01*
X110262482Y-109337254D01*
X110255769Y-109333700D01*
X110215456Y-109323574D01*
X110096822Y-109293775D01*
X110096818Y-109293775D01*
X110089451Y-109291924D01*
X110081852Y-109291884D01*
X110081850Y-109291884D01*
X110010394Y-109291510D01*
X109917969Y-109291026D01*
X109910589Y-109292798D01*
X109910587Y-109292798D01*
X109758602Y-109329286D01*
X109758598Y-109329287D01*
X109751223Y-109331058D01*
X109598839Y-109409709D01*
X109469615Y-109522439D01*
X109371010Y-109662739D01*
X109339864Y-109742624D01*
X109311945Y-109814233D01*
X109308718Y-109822509D01*
X109307726Y-109830042D01*
X109307726Y-109830043D01*
X109287425Y-109984250D01*
X109286335Y-109992526D01*
X105521972Y-109992526D01*
X105521980Y-109991724D01*
X105513786Y-109924015D01*
X105502291Y-109829023D01*
X105502290Y-109829020D01*
X105501378Y-109821482D01*
X105481857Y-109769819D01*
X105443447Y-109668171D01*
X105440763Y-109661068D01*
X105398792Y-109600000D01*
X105347935Y-109526002D01*
X105347934Y-109526000D01*
X105343633Y-109519743D01*
X105337962Y-109514690D01*
X105221269Y-109410720D01*
X105221266Y-109410718D01*
X105215597Y-109405667D01*
X105207601Y-109401433D01*
X105081260Y-109334539D01*
X105064045Y-109325424D01*
X105046472Y-109321010D01*
X104905098Y-109285499D01*
X104905094Y-109285499D01*
X104897727Y-109283648D01*
X104890128Y-109283608D01*
X104890126Y-109283608D01*
X104818670Y-109283234D01*
X104726245Y-109282750D01*
X104718865Y-109284522D01*
X104718863Y-109284522D01*
X104566878Y-109321010D01*
X104566874Y-109321011D01*
X104559499Y-109322782D01*
X104407115Y-109401433D01*
X104277891Y-109514163D01*
X104179286Y-109654463D01*
X104173484Y-109669344D01*
X104128501Y-109784720D01*
X104116994Y-109814233D01*
X104116002Y-109821766D01*
X104116002Y-109821767D01*
X104114913Y-109830043D01*
X104094611Y-109984250D01*
X100111798Y-109984250D01*
X100093102Y-109829758D01*
X100090083Y-109821767D01*
X100035171Y-109676447D01*
X100032487Y-109669344D01*
X99995101Y-109614947D01*
X99939659Y-109534278D01*
X99939658Y-109534276D01*
X99935357Y-109528019D01*
X99929686Y-109522966D01*
X99812993Y-109418996D01*
X99812990Y-109418994D01*
X99807321Y-109413943D01*
X99799325Y-109409709D01*
X99662481Y-109337254D01*
X99662482Y-109337254D01*
X99655769Y-109333700D01*
X99615456Y-109323574D01*
X99496822Y-109293775D01*
X99496818Y-109293775D01*
X99489451Y-109291924D01*
X99481852Y-109291884D01*
X99481850Y-109291884D01*
X99410394Y-109291510D01*
X99317969Y-109291026D01*
X99310589Y-109292798D01*
X99310587Y-109292798D01*
X99158602Y-109329286D01*
X99158598Y-109329287D01*
X99151223Y-109331058D01*
X98998839Y-109409709D01*
X98993122Y-109414696D01*
X98993115Y-109414701D01*
X98898080Y-109497606D01*
X98833598Y-109527314D01*
X98763291Y-109517444D01*
X98709481Y-109471131D01*
X98693682Y-109434552D01*
X98693102Y-109429758D01*
X98632487Y-109269344D01*
X98568965Y-109176919D01*
X98539659Y-109134278D01*
X98539658Y-109134276D01*
X98535357Y-109128019D01*
X98529686Y-109122966D01*
X98412993Y-109018996D01*
X98412990Y-109018994D01*
X98407321Y-109013943D01*
X98399325Y-109009709D01*
X98262481Y-108937254D01*
X98262482Y-108937254D01*
X98255769Y-108933700D01*
X98238196Y-108929286D01*
X98096822Y-108893775D01*
X98096818Y-108893775D01*
X98089451Y-108891924D01*
X98081852Y-108891884D01*
X98081850Y-108891884D01*
X98010394Y-108891510D01*
X97917969Y-108891026D01*
X97910589Y-108892798D01*
X97910587Y-108892798D01*
X97758602Y-108929286D01*
X97758598Y-108929287D01*
X97751223Y-108931058D01*
X97598839Y-109009709D01*
X97469615Y-109122439D01*
X97371010Y-109262739D01*
X97358910Y-109293775D01*
X97312058Y-109413943D01*
X97308718Y-109422509D01*
X97307726Y-109430042D01*
X97307726Y-109430043D01*
X97295493Y-109522966D01*
X97286335Y-109592526D01*
X94579692Y-109592526D01*
X94539659Y-109534278D01*
X94539658Y-109534276D01*
X94535357Y-109528019D01*
X94529686Y-109522966D01*
X94412993Y-109418996D01*
X94412990Y-109418994D01*
X94407321Y-109413943D01*
X94399325Y-109409709D01*
X94262481Y-109337254D01*
X94262482Y-109337254D01*
X94255769Y-109333700D01*
X94215456Y-109323574D01*
X94096822Y-109293775D01*
X94096818Y-109293775D01*
X94089451Y-109291924D01*
X94081852Y-109291884D01*
X94081850Y-109291884D01*
X94010394Y-109291510D01*
X93917969Y-109291026D01*
X93910589Y-109292798D01*
X93910587Y-109292798D01*
X93758602Y-109329286D01*
X93758598Y-109329287D01*
X93751223Y-109331058D01*
X93598839Y-109409709D01*
X93469615Y-109522439D01*
X93371010Y-109662739D01*
X93339864Y-109742624D01*
X93311945Y-109814233D01*
X93308718Y-109822509D01*
X93307726Y-109830042D01*
X93307726Y-109830043D01*
X93287425Y-109984250D01*
X93286335Y-109992526D01*
X89412800Y-109992526D01*
X89393102Y-109829758D01*
X89390083Y-109821767D01*
X89335171Y-109676447D01*
X89332487Y-109669344D01*
X89295101Y-109614947D01*
X89239659Y-109534278D01*
X89239658Y-109534276D01*
X89235357Y-109528019D01*
X89229686Y-109522966D01*
X89112993Y-109418996D01*
X89112990Y-109418994D01*
X89107321Y-109413943D01*
X89099325Y-109409709D01*
X88962481Y-109337254D01*
X88962482Y-109337254D01*
X88955769Y-109333700D01*
X88915456Y-109323574D01*
X88796822Y-109293775D01*
X88796818Y-109293775D01*
X88789451Y-109291924D01*
X88781852Y-109291884D01*
X88781850Y-109291884D01*
X88710394Y-109291510D01*
X88617969Y-109291026D01*
X88610589Y-109292798D01*
X88610587Y-109292798D01*
X88458602Y-109329286D01*
X88458598Y-109329287D01*
X88451223Y-109331058D01*
X88298839Y-109409709D01*
X88169615Y-109522439D01*
X88071010Y-109662739D01*
X88039864Y-109742624D01*
X88011945Y-109814233D01*
X88008718Y-109822509D01*
X88007726Y-109830042D01*
X88007726Y-109830043D01*
X87987425Y-109984250D01*
X87986335Y-109992526D01*
X84112800Y-109992526D01*
X84093102Y-109829758D01*
X84090083Y-109821767D01*
X84035171Y-109676447D01*
X84032487Y-109669344D01*
X83995101Y-109614947D01*
X83939659Y-109534278D01*
X83939658Y-109534276D01*
X83935357Y-109528019D01*
X83929686Y-109522966D01*
X83812993Y-109418996D01*
X83812990Y-109418994D01*
X83807321Y-109413943D01*
X83799325Y-109409709D01*
X83662481Y-109337254D01*
X83662482Y-109337254D01*
X83655769Y-109333700D01*
X83615456Y-109323574D01*
X83496822Y-109293775D01*
X83496818Y-109293775D01*
X83489451Y-109291924D01*
X83481852Y-109291884D01*
X83481850Y-109291884D01*
X83410394Y-109291510D01*
X83317969Y-109291026D01*
X83310589Y-109292798D01*
X83310587Y-109292798D01*
X83158602Y-109329286D01*
X83158598Y-109329287D01*
X83151223Y-109331058D01*
X82998839Y-109409709D01*
X82869615Y-109522439D01*
X82771010Y-109662739D01*
X82739864Y-109742624D01*
X82711945Y-109814233D01*
X82708718Y-109822509D01*
X82707726Y-109830042D01*
X82707726Y-109830043D01*
X82687425Y-109984250D01*
X82686335Y-109992526D01*
X78812800Y-109992526D01*
X78793102Y-109829758D01*
X78790083Y-109821767D01*
X78735171Y-109676447D01*
X78732487Y-109669344D01*
X78695101Y-109614947D01*
X78639659Y-109534278D01*
X78639658Y-109534276D01*
X78635357Y-109528019D01*
X78629686Y-109522966D01*
X78512993Y-109418996D01*
X78512990Y-109418994D01*
X78507321Y-109413943D01*
X78499325Y-109409709D01*
X78362481Y-109337254D01*
X78362482Y-109337254D01*
X78355769Y-109333700D01*
X78315456Y-109323574D01*
X78196822Y-109293775D01*
X78196818Y-109293775D01*
X78189451Y-109291924D01*
X78181852Y-109291884D01*
X78181850Y-109291884D01*
X78110394Y-109291510D01*
X78017969Y-109291026D01*
X78010589Y-109292798D01*
X78010587Y-109292798D01*
X77858602Y-109329286D01*
X77858598Y-109329287D01*
X77851223Y-109331058D01*
X77698839Y-109409709D01*
X77569615Y-109522439D01*
X77471010Y-109662739D01*
X77439864Y-109742624D01*
X77411945Y-109814233D01*
X77408718Y-109822509D01*
X77407726Y-109830042D01*
X77407726Y-109830043D01*
X77387425Y-109984250D01*
X77386335Y-109992526D01*
X73312800Y-109992526D01*
X73293102Y-109829758D01*
X73290083Y-109821767D01*
X73235171Y-109676447D01*
X73232487Y-109669344D01*
X73195101Y-109614947D01*
X73139659Y-109534278D01*
X73139658Y-109534276D01*
X73135357Y-109528019D01*
X73129686Y-109522966D01*
X73012993Y-109418996D01*
X73012990Y-109418994D01*
X73007321Y-109413943D01*
X72999325Y-109409709D01*
X72862481Y-109337254D01*
X72862482Y-109337254D01*
X72855769Y-109333700D01*
X72815456Y-109323574D01*
X72696822Y-109293775D01*
X72696818Y-109293775D01*
X72689451Y-109291924D01*
X72681852Y-109291884D01*
X72681850Y-109291884D01*
X72610394Y-109291510D01*
X72517969Y-109291026D01*
X72510589Y-109292798D01*
X72510587Y-109292798D01*
X72358602Y-109329286D01*
X72358598Y-109329287D01*
X72351223Y-109331058D01*
X72198839Y-109409709D01*
X72069615Y-109522439D01*
X71971010Y-109662739D01*
X71939864Y-109742624D01*
X71911945Y-109814233D01*
X71908718Y-109822509D01*
X71907726Y-109830042D01*
X71907726Y-109830043D01*
X71887425Y-109984250D01*
X71886335Y-109992526D01*
X68200698Y-109992526D01*
X68194015Y-109937299D01*
X68194014Y-109937296D01*
X68193102Y-109929758D01*
X68188236Y-109916879D01*
X68135171Y-109776447D01*
X68132487Y-109769344D01*
X68068641Y-109676447D01*
X68039659Y-109634278D01*
X68039658Y-109634276D01*
X68035357Y-109628019D01*
X68029686Y-109622966D01*
X67912993Y-109518996D01*
X67912990Y-109518994D01*
X67907321Y-109513943D01*
X67899325Y-109509709D01*
X67846723Y-109481858D01*
X67755769Y-109433700D01*
X67697230Y-109418996D01*
X67596822Y-109393775D01*
X67596818Y-109393775D01*
X67589451Y-109391924D01*
X67581852Y-109391884D01*
X67581850Y-109391884D01*
X67510394Y-109391510D01*
X67417969Y-109391026D01*
X67410589Y-109392798D01*
X67410587Y-109392798D01*
X67258602Y-109429286D01*
X67258598Y-109429287D01*
X67251223Y-109431058D01*
X67098839Y-109509709D01*
X66969615Y-109622439D01*
X66871010Y-109762739D01*
X66808718Y-109922509D01*
X66807726Y-109930042D01*
X66807726Y-109930043D01*
X66787495Y-110083718D01*
X66786335Y-110092526D01*
X65508000Y-110092526D01*
X65508000Y-108692526D01*
X102548835Y-108692526D01*
X102567653Y-108862975D01*
X102570262Y-108870106D01*
X102570263Y-108870108D01*
X102578924Y-108893775D01*
X102626585Y-109024015D01*
X102722230Y-109166349D01*
X102785647Y-109224054D01*
X102828543Y-109263086D01*
X102849065Y-109281760D01*
X102999768Y-109363585D01*
X103165639Y-109407101D01*
X103253086Y-109408474D01*
X103329503Y-109409675D01*
X103329506Y-109409675D01*
X103337102Y-109409794D01*
X103344506Y-109408098D01*
X103344508Y-109408098D01*
X103418873Y-109391066D01*
X103504259Y-109371510D01*
X103657458Y-109294459D01*
X103663229Y-109289530D01*
X103663232Y-109289528D01*
X103782078Y-109188023D01*
X103787855Y-109183089D01*
X103887924Y-109043830D01*
X103951885Y-108884720D01*
X103976047Y-108714947D01*
X103976204Y-108700000D01*
X103955602Y-108529758D01*
X103894987Y-108369344D01*
X103797857Y-108228019D01*
X103792186Y-108222966D01*
X103675493Y-108118996D01*
X103675490Y-108118994D01*
X103669821Y-108113943D01*
X103661825Y-108109709D01*
X103524981Y-108037254D01*
X103524982Y-108037254D01*
X103518269Y-108033700D01*
X103500696Y-108029286D01*
X103359322Y-107993775D01*
X103359318Y-107993775D01*
X103351951Y-107991924D01*
X103344352Y-107991884D01*
X103344350Y-107991884D01*
X103272894Y-107991510D01*
X103180469Y-107991026D01*
X103173089Y-107992798D01*
X103173087Y-107992798D01*
X103021102Y-108029286D01*
X103021098Y-108029287D01*
X103013723Y-108031058D01*
X102861339Y-108109709D01*
X102732115Y-108222439D01*
X102633510Y-108362739D01*
X102571218Y-108522509D01*
X102548835Y-108692526D01*
X65508000Y-108692526D01*
X65508000Y-106092526D01*
X123286335Y-106092526D01*
X123305153Y-106262975D01*
X123307762Y-106270106D01*
X123307763Y-106270108D01*
X123315688Y-106291764D01*
X123364085Y-106424015D01*
X123459730Y-106566349D01*
X123586565Y-106681760D01*
X123737268Y-106763585D01*
X123903139Y-106807101D01*
X123990586Y-106808474D01*
X124067003Y-106809675D01*
X124067006Y-106809675D01*
X124074602Y-106809794D01*
X124082006Y-106808098D01*
X124082008Y-106808098D01*
X124144846Y-106793706D01*
X124241759Y-106771510D01*
X124394958Y-106694459D01*
X124400729Y-106689530D01*
X124400732Y-106689528D01*
X124519578Y-106588023D01*
X124525355Y-106583089D01*
X124625424Y-106443830D01*
X124689385Y-106284720D01*
X124713547Y-106114947D01*
X124713704Y-106100000D01*
X124693102Y-105929758D01*
X124632487Y-105769344D01*
X124535357Y-105628019D01*
X124529686Y-105622966D01*
X124412993Y-105518996D01*
X124412990Y-105518994D01*
X124407321Y-105513943D01*
X124399325Y-105509709D01*
X124262481Y-105437254D01*
X124262482Y-105437254D01*
X124255769Y-105433700D01*
X124238196Y-105429286D01*
X124096822Y-105393775D01*
X124096818Y-105393775D01*
X124089451Y-105391924D01*
X124081852Y-105391884D01*
X124081850Y-105391884D01*
X124010394Y-105391510D01*
X123917969Y-105391026D01*
X123910589Y-105392798D01*
X123910587Y-105392798D01*
X123758602Y-105429286D01*
X123758598Y-105429287D01*
X123751223Y-105431058D01*
X123598839Y-105509709D01*
X123469615Y-105622439D01*
X123371010Y-105762739D01*
X123308718Y-105922509D01*
X123286335Y-106092526D01*
X65508000Y-106092526D01*
X65508000Y-104634000D01*
X65528002Y-104565879D01*
X65581658Y-104519386D01*
X65634000Y-104508000D01*
X129366000Y-104508000D01*
X129434121Y-104528002D01*
G37*
%TD.AperFunction*%
%TD*%
M02*
