%TF.GenerationSoftware,KiCad,Pcbnew,(6.0.0)*%
%TF.CreationDate,2022-04-23T18:16:59+01:00*%
%TF.ProjectId,pcb O,70636220-4f2e-46b6-9963-61645f706362,rev?*%
%TF.SameCoordinates,Original*%
%TF.FileFunction,Soldermask,Bot*%
%TF.FilePolarity,Negative*%
%FSLAX46Y46*%
G04 Gerber Fmt 4.6, Leading zero omitted, Abs format (unit mm)*
G04 Created by KiCad (PCBNEW (6.0.0)) date 2022-04-23 18:16:59*
%MOMM*%
%LPD*%
G01*
G04 APERTURE LIST*
G04 Aperture macros list*
%AMRoundRect*
0 Rectangle with rounded corners*
0 $1 Rounding radius*
0 $2 $3 $4 $5 $6 $7 $8 $9 X,Y pos of 4 corners*
0 Add a 4 corners polygon primitive as box body*
4,1,4,$2,$3,$4,$5,$6,$7,$8,$9,$2,$3,0*
0 Add four circle primitives for the rounded corners*
1,1,$1+$1,$2,$3*
1,1,$1+$1,$4,$5*
1,1,$1+$1,$6,$7*
1,1,$1+$1,$8,$9*
0 Add four rect primitives between the rounded corners*
20,1,$1+$1,$2,$3,$4,$5,0*
20,1,$1+$1,$4,$5,$6,$7,0*
20,1,$1+$1,$6,$7,$8,$9,0*
20,1,$1+$1,$8,$9,$2,$3,0*%
G04 Aperture macros list end*
%ADD10R,0.500000X0.500000*%
%ADD11RoundRect,0.140000X-0.140000X-0.170000X0.140000X-0.170000X0.140000X0.170000X-0.140000X0.170000X0*%
%ADD12RoundRect,0.135000X-0.135000X-0.185000X0.135000X-0.185000X0.135000X0.185000X-0.135000X0.185000X0*%
G04 APERTURE END LIST*
D10*
%TO.C,D611*%
X68564008Y-106873489D03*
X68564008Y-107773489D03*
X67664008Y-107773489D03*
X67664008Y-106873489D03*
%TD*%
D11*
%TO.C,C609*%
X78475715Y-109000000D03*
X79435715Y-109000000D03*
%TD*%
D10*
%TO.C,D605*%
X101068132Y-106923489D03*
X101068132Y-107823489D03*
X100168132Y-107823489D03*
X100168132Y-106923489D03*
%TD*%
%TO.C,D600*%
X128154903Y-106923489D03*
X128154903Y-107823489D03*
X127254903Y-107823489D03*
X127254903Y-106923489D03*
%TD*%
%TO.C,D607*%
X90233424Y-106923489D03*
X90233424Y-107823489D03*
X89333424Y-107823489D03*
X89333424Y-106923489D03*
%TD*%
D11*
%TO.C,C606*%
X94727201Y-109000000D03*
X95687201Y-109000000D03*
%TD*%
D10*
%TO.C,D601*%
X122737548Y-106923489D03*
X122737548Y-107823489D03*
X121837548Y-107823489D03*
X121837548Y-106923489D03*
%TD*%
D11*
%TO.C,C605*%
X100144826Y-109000000D03*
X101104826Y-109000000D03*
%TD*%
%TO.C,C601*%
X121804969Y-109000000D03*
X122764969Y-109000000D03*
%TD*%
%TO.C,C600*%
X127229539Y-109000000D03*
X128189539Y-109000000D03*
%TD*%
%TO.C,C611*%
X67630000Y-109000000D03*
X68590000Y-109000000D03*
%TD*%
%TO.C,C604*%
X105558203Y-109000000D03*
X106518203Y-109000000D03*
%TD*%
D10*
%TO.C,D606*%
X95650778Y-106923489D03*
X95650778Y-107823489D03*
X94750778Y-107823489D03*
X94750778Y-106923489D03*
%TD*%
D11*
%TO.C,C608*%
X83890871Y-109000000D03*
X84850871Y-109000000D03*
%TD*%
%TO.C,C602*%
X116393093Y-109000000D03*
X117353093Y-109000000D03*
%TD*%
D12*
%TO.C,R60*%
X124690000Y-106100000D03*
X125710000Y-106100000D03*
%TD*%
D10*
%TO.C,D602*%
X117320194Y-106923489D03*
X117320194Y-107823489D03*
X116420194Y-107823489D03*
X116420194Y-106923489D03*
%TD*%
%TO.C,D604*%
X106485486Y-106923489D03*
X106485486Y-107823489D03*
X105585486Y-107823489D03*
X105585486Y-106923489D03*
%TD*%
D11*
%TO.C,C607*%
X89309267Y-109000000D03*
X90269267Y-109000000D03*
%TD*%
D10*
%TO.C,D610*%
X73981362Y-106873489D03*
X73981362Y-107773489D03*
X73081362Y-107773489D03*
X73081362Y-106873489D03*
%TD*%
%TO.C,D608*%
X84816070Y-106923489D03*
X84816070Y-107823489D03*
X83916070Y-107823489D03*
X83916070Y-106923489D03*
%TD*%
D11*
%TO.C,C610*%
X73053846Y-109000000D03*
X74013846Y-109000000D03*
%TD*%
D10*
%TO.C,D603*%
X111902840Y-106923489D03*
X111902840Y-107823489D03*
X111002840Y-107823489D03*
X111002840Y-106923489D03*
%TD*%
D11*
%TO.C,C603*%
X110971456Y-109000000D03*
X111931456Y-109000000D03*
%TD*%
D10*
%TO.C,D609*%
X79398716Y-106923489D03*
X79398716Y-107823489D03*
X78498716Y-107823489D03*
X78498716Y-106923489D03*
%TD*%
M02*
