%TF.GenerationSoftware,KiCad,Pcbnew,(6.0.0)*%
%TF.CreationDate,2022-04-23T18:16:59+01:00*%
%TF.ProjectId,pcb O,70636220-4f2e-46b6-9963-61645f706362,rev?*%
%TF.SameCoordinates,Original*%
%TF.FileFunction,Copper,L2,Inr*%
%TF.FilePolarity,Positive*%
%FSLAX46Y46*%
G04 Gerber Fmt 4.6, Leading zero omitted, Abs format (unit mm)*
G04 Created by KiCad (PCBNEW (6.0.0)) date 2022-04-23 18:16:59*
%MOMM*%
%LPD*%
G01*
G04 APERTURE LIST*
%TA.AperFunction,ViaPad*%
%ADD10C,0.400000*%
%TD*%
%TA.AperFunction,Conductor*%
%ADD11C,0.254000*%
%TD*%
%TA.AperFunction,Conductor*%
%ADD12C,0.127000*%
%TD*%
G04 APERTURE END LIST*
D10*
%TO.N,GND*%
X80000000Y-106848509D03*
X123305924Y-106837000D03*
X96200000Y-109000000D03*
X69100000Y-109000000D03*
X107000000Y-109000000D03*
X72700000Y-113400000D03*
X69100000Y-106798509D03*
X128700000Y-106900000D03*
X96200000Y-106848509D03*
X107000317Y-106848509D03*
X101602462Y-106848509D03*
X101600000Y-109000000D03*
X128700000Y-109000000D03*
X99100000Y-113700000D03*
X109800000Y-115000000D03*
X85407793Y-106848509D03*
X72300000Y-118300000D03*
X104600000Y-112900000D03*
X74500000Y-109000000D03*
X123300000Y-109000000D03*
X117907471Y-106848509D03*
X80000000Y-109000000D03*
X117900000Y-109000000D03*
X85400000Y-109000000D03*
X112500000Y-106848509D03*
X90800000Y-109000000D03*
X89800000Y-115400000D03*
X90800000Y-106848509D03*
X76100000Y-113400000D03*
X112500000Y-109000000D03*
X74502781Y-106798509D03*
%TO.N,GNDA*%
X122189588Y-115000000D03*
X115609588Y-114900000D03*
X112515000Y-118090000D03*
X120589588Y-116600000D03*
X92500000Y-116500000D03*
X120589588Y-115000000D03*
X122189588Y-116600000D03*
%TO.N,+3V3*%
X71100000Y-116300000D03*
X99300000Y-115400000D03*
X104100000Y-115500000D03*
%TO.N,+1V8*%
X96600000Y-117957440D03*
X120122688Y-113900000D03*
X123256488Y-113766900D03*
%TO.N,/RGB_VDD*%
X103262500Y-108700000D03*
X103300000Y-113000000D03*
%TO.N,/D2*%
X124000000Y-106100000D03*
X98000000Y-109600000D03*
X97854890Y-112232091D03*
%TO.N,/ELEC0*%
X126700000Y-110100000D03*
%TO.N,/ELEC1*%
X120700000Y-110000000D03*
%TO.N,/ELEC2*%
X115300000Y-110000000D03*
%TO.N,/ELEC3*%
X110000000Y-110000000D03*
%TO.N,/ELEC4*%
X104808276Y-109991724D03*
%TO.N,/ELEC5*%
X99400000Y-110000000D03*
%TO.N,/ELEC6*%
X94000000Y-110000000D03*
%TO.N,/ELEC7*%
X88700000Y-110000000D03*
%TO.N,/ELEC8*%
X83400000Y-110000000D03*
%TO.N,/ELEC9*%
X78100000Y-110000000D03*
%TO.N,/ELEC10*%
X72600000Y-110000000D03*
%TO.N,/ELEC11*%
X67500000Y-110100000D03*
%TO.N,Net-(C89-Pad1)*%
X121422688Y-118400000D03*
X118722688Y-115800000D03*
%TD*%
D11*
%TO.N,/RGB_VDD*%
X103300000Y-113000000D02*
X103300000Y-108737500D01*
D12*
%TO.N,/D2*%
X98000000Y-112086981D02*
X98000000Y-109600000D01*
X97854890Y-112232091D02*
X98000000Y-112086981D01*
%TO.N,Net-(C89-Pad1)*%
X118739151Y-115800000D02*
X120460849Y-115800000D01*
X120460849Y-115800000D02*
X121439151Y-116778302D01*
X121439151Y-118400000D02*
X121439151Y-116778302D01*
%TD*%
%TA.AperFunction,Conductor*%
%TO.N,+1V8*%
G36*
X129434121Y-111220002D02*
G01*
X129480614Y-111273658D01*
X129492000Y-111326000D01*
X129492000Y-119366000D01*
X129471998Y-119434121D01*
X129418342Y-119480614D01*
X129366000Y-119492000D01*
X87726000Y-119492000D01*
X87657879Y-119471998D01*
X87611386Y-119418342D01*
X87600000Y-119366000D01*
X87600000Y-118082526D01*
X111801335Y-118082526D01*
X111810744Y-118167751D01*
X111817590Y-118229758D01*
X111820153Y-118252975D01*
X111822762Y-118260106D01*
X111822763Y-118260108D01*
X111830688Y-118281764D01*
X111879085Y-118414015D01*
X111974730Y-118556349D01*
X112101565Y-118671760D01*
X112252268Y-118753585D01*
X112418139Y-118797101D01*
X112505586Y-118798474D01*
X112582003Y-118799675D01*
X112582006Y-118799675D01*
X112589602Y-118799794D01*
X112597006Y-118798098D01*
X112597008Y-118798098D01*
X112659846Y-118783706D01*
X112756759Y-118761510D01*
X112909958Y-118684459D01*
X112915729Y-118679530D01*
X112915732Y-118679528D01*
X113034578Y-118578023D01*
X113040355Y-118573089D01*
X113140424Y-118433830D01*
X113204385Y-118274720D01*
X113228547Y-118104947D01*
X113228704Y-118090000D01*
X113213718Y-117966165D01*
X113209015Y-117927299D01*
X113209014Y-117927296D01*
X113208102Y-117919758D01*
X113147487Y-117759344D01*
X113050357Y-117618019D01*
X113044686Y-117612966D01*
X112927993Y-117508996D01*
X112927990Y-117508994D01*
X112922321Y-117503943D01*
X112914325Y-117499709D01*
X112777481Y-117427254D01*
X112777482Y-117427254D01*
X112770769Y-117423700D01*
X112720471Y-117411066D01*
X112611822Y-117383775D01*
X112611818Y-117383775D01*
X112604451Y-117381924D01*
X112596852Y-117381884D01*
X112596850Y-117381884D01*
X112525394Y-117381510D01*
X112432969Y-117381026D01*
X112425589Y-117382798D01*
X112425587Y-117382798D01*
X112273602Y-117419286D01*
X112273598Y-117419287D01*
X112266223Y-117421058D01*
X112113839Y-117499709D01*
X111984615Y-117612439D01*
X111886010Y-117752739D01*
X111823718Y-117912509D01*
X111822726Y-117920042D01*
X111822726Y-117920043D01*
X111803008Y-118069819D01*
X111801335Y-118082526D01*
X87600000Y-118082526D01*
X87600000Y-116226000D01*
X87620002Y-116157879D01*
X87673658Y-116111386D01*
X87726000Y-116100000D01*
X89659818Y-116100000D01*
X89691793Y-116104125D01*
X89695785Y-116105172D01*
X89695787Y-116105172D01*
X89703139Y-116107101D01*
X89790586Y-116108474D01*
X89867003Y-116109675D01*
X89867006Y-116109675D01*
X89874602Y-116109794D01*
X89903482Y-116103180D01*
X89931609Y-116100000D01*
X91711107Y-116100000D01*
X91779228Y-116120002D01*
X91825721Y-116173658D01*
X91835825Y-116243932D01*
X91828500Y-116271769D01*
X91811479Y-116315426D01*
X91811478Y-116315430D01*
X91808718Y-116322509D01*
X91807726Y-116330042D01*
X91807726Y-116330043D01*
X91788879Y-116473205D01*
X91786335Y-116492526D01*
X91795744Y-116577751D01*
X91799851Y-116614947D01*
X91805153Y-116662975D01*
X91807762Y-116670106D01*
X91807763Y-116670108D01*
X91815688Y-116691764D01*
X91864085Y-116824015D01*
X91959730Y-116966349D01*
X92023148Y-117024055D01*
X92069629Y-117066349D01*
X92086565Y-117081760D01*
X92237268Y-117163585D01*
X92403139Y-117207101D01*
X92490586Y-117208474D01*
X92567003Y-117209675D01*
X92567006Y-117209675D01*
X92574602Y-117209794D01*
X92582006Y-117208098D01*
X92582008Y-117208098D01*
X92663088Y-117189528D01*
X92741759Y-117171510D01*
X92894958Y-117094459D01*
X92900729Y-117089530D01*
X92900732Y-117089528D01*
X93019578Y-116988023D01*
X93025355Y-116983089D01*
X93125424Y-116843830D01*
X93189385Y-116684720D01*
X93200854Y-116604133D01*
X93212966Y-116519031D01*
X93212966Y-116519027D01*
X93213547Y-116514947D01*
X93213704Y-116500000D01*
X93193102Y-116329758D01*
X93190363Y-116322509D01*
X93170725Y-116270537D01*
X93165357Y-116199744D01*
X93199115Y-116137287D01*
X93261281Y-116102995D01*
X93288591Y-116100000D01*
X99159818Y-116100000D01*
X99191793Y-116104125D01*
X99195785Y-116105172D01*
X99195787Y-116105172D01*
X99203139Y-116107101D01*
X99290586Y-116108474D01*
X99367003Y-116109675D01*
X99367006Y-116109675D01*
X99374602Y-116109794D01*
X99403482Y-116103180D01*
X99431609Y-116100000D01*
X103688159Y-116100000D01*
X103748281Y-116115269D01*
X103837268Y-116163585D01*
X104003139Y-116207101D01*
X104090586Y-116208474D01*
X104167003Y-116209675D01*
X104167006Y-116209675D01*
X104174602Y-116209794D01*
X104182006Y-116208098D01*
X104182008Y-116208098D01*
X104244846Y-116193706D01*
X104341759Y-116171510D01*
X104457229Y-116113435D01*
X104513842Y-116100000D01*
X113700000Y-116100000D01*
X113700000Y-115792526D01*
X118009023Y-115792526D01*
X118013277Y-115831058D01*
X118024702Y-115934539D01*
X118027841Y-115962975D01*
X118030450Y-115970106D01*
X118030451Y-115970108D01*
X118046770Y-116014701D01*
X118086773Y-116124015D01*
X118091010Y-116130321D01*
X118091012Y-116130324D01*
X118117233Y-116169344D01*
X118182418Y-116266349D01*
X118309253Y-116381760D01*
X118459956Y-116463585D01*
X118625827Y-116507101D01*
X118713274Y-116508474D01*
X118789691Y-116509675D01*
X118789694Y-116509675D01*
X118797290Y-116509794D01*
X118804694Y-116508098D01*
X118804696Y-116508098D01*
X118905568Y-116484995D01*
X118964447Y-116471510D01*
X119117646Y-116394459D01*
X119119938Y-116392501D01*
X119187842Y-116372000D01*
X119761280Y-116372000D01*
X119829401Y-116392002D01*
X119875894Y-116445658D01*
X119886202Y-116514446D01*
X119885599Y-116519031D01*
X119875923Y-116592526D01*
X119894741Y-116762975D01*
X119897350Y-116770106D01*
X119897351Y-116770108D01*
X119905276Y-116791764D01*
X119953673Y-116924015D01*
X120049318Y-117066349D01*
X120083960Y-117097871D01*
X120158296Y-117165511D01*
X120176153Y-117181760D01*
X120326856Y-117263585D01*
X120492727Y-117307101D01*
X120580174Y-117308474D01*
X120656591Y-117309675D01*
X120656594Y-117309675D01*
X120664190Y-117309794D01*
X120671594Y-117308098D01*
X120671596Y-117308098D01*
X120713022Y-117298610D01*
X120783888Y-117302899D01*
X120841187Y-117344821D01*
X120866724Y-117411066D01*
X120867151Y-117421430D01*
X120867151Y-117918377D01*
X120844238Y-117990828D01*
X120793698Y-118062739D01*
X120731406Y-118222509D01*
X120709023Y-118392526D01*
X120727841Y-118562975D01*
X120730450Y-118570106D01*
X120730451Y-118570108D01*
X120738376Y-118591764D01*
X120786773Y-118724015D01*
X120791010Y-118730321D01*
X120791012Y-118730324D01*
X120834589Y-118795173D01*
X120882418Y-118866349D01*
X121009253Y-118981760D01*
X121159956Y-119063585D01*
X121325827Y-119107101D01*
X121413274Y-119108474D01*
X121489691Y-119109675D01*
X121489694Y-119109675D01*
X121497290Y-119109794D01*
X121504694Y-119108098D01*
X121504696Y-119108098D01*
X121567534Y-119093706D01*
X121664447Y-119071510D01*
X121817646Y-118994459D01*
X121823417Y-118989530D01*
X121823420Y-118989528D01*
X121942266Y-118888023D01*
X121948043Y-118883089D01*
X122021158Y-118781340D01*
X122043680Y-118749998D01*
X122043681Y-118749997D01*
X122048112Y-118743830D01*
X122112073Y-118584720D01*
X122115168Y-118562975D01*
X122135654Y-118419031D01*
X122135654Y-118419027D01*
X122136235Y-118414947D01*
X122136392Y-118400000D01*
X122121231Y-118274720D01*
X122116703Y-118237299D01*
X122116702Y-118237296D01*
X122115790Y-118229758D01*
X122067070Y-118100822D01*
X122057859Y-118076447D01*
X122055175Y-118069344D01*
X122033310Y-118037531D01*
X122011151Y-117966165D01*
X122011151Y-117433814D01*
X122031153Y-117365693D01*
X122084809Y-117319200D01*
X122139130Y-117307830D01*
X122256591Y-117309675D01*
X122256594Y-117309675D01*
X122264190Y-117309794D01*
X122271594Y-117308098D01*
X122271596Y-117308098D01*
X122369390Y-117285700D01*
X122431347Y-117271510D01*
X122584546Y-117194459D01*
X122590317Y-117189530D01*
X122590320Y-117189528D01*
X122709166Y-117088023D01*
X122714943Y-117083089D01*
X122815012Y-116943830D01*
X122878973Y-116784720D01*
X122883142Y-116755425D01*
X122902554Y-116619031D01*
X122902554Y-116619027D01*
X122903135Y-116614947D01*
X122903292Y-116600000D01*
X122898846Y-116563262D01*
X122883603Y-116437299D01*
X122883602Y-116437296D01*
X122882690Y-116429758D01*
X122868424Y-116392002D01*
X122824759Y-116276447D01*
X122822075Y-116269344D01*
X122804610Y-116243932D01*
X122729247Y-116134278D01*
X122729246Y-116134276D01*
X122724945Y-116128019D01*
X122719274Y-116122966D01*
X122602581Y-116018996D01*
X122602578Y-116018994D01*
X122596909Y-116013943D01*
X122588913Y-116009709D01*
X122507020Y-115966349D01*
X122445357Y-115933700D01*
X122411888Y-115925293D01*
X122401704Y-115922735D01*
X122340508Y-115886739D01*
X122308488Y-115823374D01*
X122315809Y-115752756D01*
X122360147Y-115697306D01*
X122404270Y-115677711D01*
X122431347Y-115671510D01*
X122584546Y-115594459D01*
X122590317Y-115589530D01*
X122590320Y-115589528D01*
X122709166Y-115488023D01*
X122714943Y-115483089D01*
X122815012Y-115343830D01*
X122878973Y-115184720D01*
X122885728Y-115137254D01*
X122902554Y-115019031D01*
X122902554Y-115019027D01*
X122903135Y-115014947D01*
X122903292Y-115000000D01*
X122893906Y-114922439D01*
X122883603Y-114837299D01*
X122883602Y-114837296D01*
X122882690Y-114829758D01*
X122871861Y-114801098D01*
X122824759Y-114676447D01*
X122822075Y-114669344D01*
X122758229Y-114576447D01*
X122729247Y-114534278D01*
X122729246Y-114534276D01*
X122724945Y-114528019D01*
X122719274Y-114522966D01*
X122602581Y-114418996D01*
X122602578Y-114418994D01*
X122596909Y-114413943D01*
X122588913Y-114409709D01*
X122452069Y-114337254D01*
X122452070Y-114337254D01*
X122445357Y-114333700D01*
X122369707Y-114314698D01*
X122286410Y-114293775D01*
X122286406Y-114293775D01*
X122279039Y-114291924D01*
X122271440Y-114291884D01*
X122271438Y-114291884D01*
X122199982Y-114291510D01*
X122107557Y-114291026D01*
X122100177Y-114292798D01*
X122100175Y-114292798D01*
X121948190Y-114329286D01*
X121948186Y-114329287D01*
X121940811Y-114331058D01*
X121788427Y-114409709D01*
X121659203Y-114522439D01*
X121560598Y-114662739D01*
X121531528Y-114737299D01*
X121506654Y-114801098D01*
X121463273Y-114857299D01*
X121396394Y-114881126D01*
X121327250Y-114865012D01*
X121277794Y-114814075D01*
X121271395Y-114799866D01*
X121224759Y-114676447D01*
X121222075Y-114669344D01*
X121158229Y-114576447D01*
X121129247Y-114534278D01*
X121129246Y-114534276D01*
X121124945Y-114528019D01*
X121119274Y-114522966D01*
X121002581Y-114418996D01*
X121002578Y-114418994D01*
X120996909Y-114413943D01*
X120988913Y-114409709D01*
X120852069Y-114337254D01*
X120852070Y-114337254D01*
X120845357Y-114333700D01*
X120769707Y-114314698D01*
X120686410Y-114293775D01*
X120686406Y-114293775D01*
X120679039Y-114291924D01*
X120671440Y-114291884D01*
X120671438Y-114291884D01*
X120599982Y-114291510D01*
X120507557Y-114291026D01*
X120500177Y-114292798D01*
X120500175Y-114292798D01*
X120348190Y-114329286D01*
X120348186Y-114329287D01*
X120340811Y-114331058D01*
X120188427Y-114409709D01*
X120059203Y-114522439D01*
X119960598Y-114662739D01*
X119949219Y-114691924D01*
X119901646Y-114813943D01*
X119898306Y-114822509D01*
X119897314Y-114830042D01*
X119897314Y-114830043D01*
X119885599Y-114919031D01*
X119875923Y-114992526D01*
X119886483Y-115088173D01*
X119874077Y-115158077D01*
X119825848Y-115210177D01*
X119761244Y-115228000D01*
X119187856Y-115228000D01*
X119128897Y-115213354D01*
X118985170Y-115137254D01*
X118985167Y-115137253D01*
X118978457Y-115133700D01*
X118960884Y-115129286D01*
X118819510Y-115093775D01*
X118819506Y-115093775D01*
X118812139Y-115091924D01*
X118804540Y-115091884D01*
X118804538Y-115091884D01*
X118733082Y-115091510D01*
X118640657Y-115091026D01*
X118633277Y-115092798D01*
X118633275Y-115092798D01*
X118481290Y-115129286D01*
X118481286Y-115129287D01*
X118473911Y-115131058D01*
X118321527Y-115209709D01*
X118192303Y-115322439D01*
X118093698Y-115462739D01*
X118073343Y-115514947D01*
X118036410Y-115609675D01*
X118031406Y-115622509D01*
X118030414Y-115630042D01*
X118030414Y-115630043D01*
X118014259Y-115752756D01*
X118009023Y-115792526D01*
X113700000Y-115792526D01*
X113700000Y-114892526D01*
X114895923Y-114892526D01*
X114899842Y-114928019D01*
X114910882Y-115028019D01*
X114914741Y-115062975D01*
X114917350Y-115070106D01*
X114917351Y-115070108D01*
X114926012Y-115093775D01*
X114973673Y-115224015D01*
X115069318Y-115366349D01*
X115132736Y-115424055D01*
X115179217Y-115466349D01*
X115196153Y-115481760D01*
X115346856Y-115563585D01*
X115512727Y-115607101D01*
X115600174Y-115608474D01*
X115676591Y-115609675D01*
X115676594Y-115609675D01*
X115684190Y-115609794D01*
X115691594Y-115608098D01*
X115691596Y-115608098D01*
X115772676Y-115589528D01*
X115851347Y-115571510D01*
X116004546Y-115494459D01*
X116010317Y-115489530D01*
X116010320Y-115489528D01*
X116129166Y-115388023D01*
X116134943Y-115383089D01*
X116235012Y-115243830D01*
X116298973Y-115084720D01*
X116310442Y-115004133D01*
X116322554Y-114919031D01*
X116322554Y-114919027D01*
X116323135Y-114914947D01*
X116323292Y-114900000D01*
X116318846Y-114863262D01*
X116303603Y-114737299D01*
X116303602Y-114737296D01*
X116302690Y-114729758D01*
X116288055Y-114691026D01*
X116244759Y-114576447D01*
X116242075Y-114569344D01*
X116144945Y-114428019D01*
X116139274Y-114422966D01*
X116022581Y-114318996D01*
X116022578Y-114318994D01*
X116016909Y-114313943D01*
X116008913Y-114309709D01*
X115872069Y-114237254D01*
X115872070Y-114237254D01*
X115865357Y-114233700D01*
X115847784Y-114229286D01*
X115706410Y-114193775D01*
X115706406Y-114193775D01*
X115699039Y-114191924D01*
X115691440Y-114191884D01*
X115691438Y-114191884D01*
X115619982Y-114191510D01*
X115527557Y-114191026D01*
X115520177Y-114192798D01*
X115520175Y-114192798D01*
X115368190Y-114229286D01*
X115368186Y-114229287D01*
X115360811Y-114231058D01*
X115208427Y-114309709D01*
X115079203Y-114422439D01*
X114980598Y-114562739D01*
X114949452Y-114642624D01*
X114930231Y-114691924D01*
X114918306Y-114722509D01*
X114917314Y-114730042D01*
X114917314Y-114730043D01*
X114897424Y-114881126D01*
X114895923Y-114892526D01*
X113700000Y-114892526D01*
X113700000Y-111326000D01*
X113720002Y-111257879D01*
X113773658Y-111211386D01*
X113826000Y-111200000D01*
X129366000Y-111200000D01*
X129434121Y-111220002D01*
G37*
%TD.AperFunction*%
%TD*%
%TA.AperFunction,Conductor*%
%TO.N,+3V3*%
G36*
X129434121Y-104528002D02*
G01*
X129480614Y-104581658D01*
X129492000Y-104634000D01*
X129492000Y-106395651D01*
X129471998Y-106463772D01*
X129418342Y-106510265D01*
X129348068Y-106520369D01*
X129283488Y-106490875D01*
X129262160Y-106467018D01*
X129258433Y-106461595D01*
X129235357Y-106428019D01*
X129229686Y-106422966D01*
X129112993Y-106318996D01*
X129112990Y-106318994D01*
X129107321Y-106313943D01*
X129099325Y-106309709D01*
X129010072Y-106262452D01*
X128955769Y-106233700D01*
X128938196Y-106229286D01*
X128796822Y-106193775D01*
X128796818Y-106193775D01*
X128789451Y-106191924D01*
X128781852Y-106191884D01*
X128781850Y-106191884D01*
X128710394Y-106191510D01*
X128617969Y-106191026D01*
X128610589Y-106192798D01*
X128610587Y-106192798D01*
X128458602Y-106229286D01*
X128458598Y-106229287D01*
X128451223Y-106231058D01*
X128298839Y-106309709D01*
X128169615Y-106422439D01*
X128071010Y-106562739D01*
X128042521Y-106635808D01*
X128028794Y-106671018D01*
X128008718Y-106722509D01*
X128007726Y-106730042D01*
X128007726Y-106730043D01*
X127991586Y-106852642D01*
X127986335Y-106892526D01*
X127993115Y-106953934D01*
X128002647Y-107040273D01*
X128005153Y-107062975D01*
X128007762Y-107070106D01*
X128007763Y-107070108D01*
X128024333Y-107115388D01*
X128064085Y-107224015D01*
X128068322Y-107230321D01*
X128068324Y-107230324D01*
X128094964Y-107269968D01*
X128159730Y-107366349D01*
X128183565Y-107388037D01*
X128275525Y-107471714D01*
X128286565Y-107481760D01*
X128437268Y-107563585D01*
X128603139Y-107607101D01*
X128690586Y-107608474D01*
X128767003Y-107609675D01*
X128767006Y-107609675D01*
X128774602Y-107609794D01*
X128782006Y-107608098D01*
X128782008Y-107608098D01*
X128844846Y-107593706D01*
X128941759Y-107571510D01*
X129094958Y-107494459D01*
X129100729Y-107489530D01*
X129100732Y-107489528D01*
X129219578Y-107388023D01*
X129225355Y-107383089D01*
X129231054Y-107375159D01*
X129263678Y-107329758D01*
X129319673Y-107286111D01*
X129390377Y-107279666D01*
X129453341Y-107312469D01*
X129488575Y-107374105D01*
X129492000Y-107403285D01*
X129492000Y-108495651D01*
X129471998Y-108563772D01*
X129418342Y-108610265D01*
X129348068Y-108620369D01*
X129283488Y-108590875D01*
X129262160Y-108567018D01*
X129259929Y-108563772D01*
X129235357Y-108528019D01*
X129229686Y-108522966D01*
X129112993Y-108418996D01*
X129112990Y-108418994D01*
X129107321Y-108413943D01*
X129099325Y-108409709D01*
X129023986Y-108369819D01*
X128955769Y-108333700D01*
X128938196Y-108329286D01*
X128796822Y-108293775D01*
X128796818Y-108293775D01*
X128789451Y-108291924D01*
X128781852Y-108291884D01*
X128781850Y-108291884D01*
X128710394Y-108291510D01*
X128617969Y-108291026D01*
X128610589Y-108292798D01*
X128610587Y-108292798D01*
X128458602Y-108329286D01*
X128458598Y-108329287D01*
X128451223Y-108331058D01*
X128298839Y-108409709D01*
X128169615Y-108522439D01*
X128071010Y-108662739D01*
X128008718Y-108822509D01*
X128007726Y-108830042D01*
X128007726Y-108830043D01*
X127991953Y-108949855D01*
X127986335Y-108992526D01*
X127992522Y-109048562D01*
X128001985Y-109134278D01*
X128005153Y-109162975D01*
X128007762Y-109170106D01*
X128007763Y-109170108D01*
X128015688Y-109191764D01*
X128064085Y-109324015D01*
X128068322Y-109330321D01*
X128068324Y-109330324D01*
X128110962Y-109393775D01*
X128159730Y-109466349D01*
X128286565Y-109581760D01*
X128437268Y-109663585D01*
X128603139Y-109707101D01*
X128690586Y-109708474D01*
X128767003Y-109709675D01*
X128767006Y-109709675D01*
X128774602Y-109709794D01*
X128782006Y-109708098D01*
X128782008Y-109708098D01*
X128844846Y-109693706D01*
X128941759Y-109671510D01*
X129094958Y-109594459D01*
X129100729Y-109589530D01*
X129100732Y-109589528D01*
X129219578Y-109488023D01*
X129225355Y-109483089D01*
X129241916Y-109460043D01*
X129263678Y-109429758D01*
X129319673Y-109386111D01*
X129390377Y-109379666D01*
X129453341Y-109412469D01*
X129488575Y-109474105D01*
X129492000Y-109503285D01*
X129492000Y-110574000D01*
X129471998Y-110642121D01*
X129418342Y-110688614D01*
X129366000Y-110700000D01*
X127387043Y-110700000D01*
X127318922Y-110679998D01*
X127272429Y-110626342D01*
X127262325Y-110556068D01*
X127284721Y-110500473D01*
X127293170Y-110488715D01*
X127325424Y-110443830D01*
X127389385Y-110284720D01*
X127394473Y-110248972D01*
X127412966Y-110119031D01*
X127412966Y-110119027D01*
X127413547Y-110114947D01*
X127413704Y-110100000D01*
X127408565Y-110057531D01*
X127394015Y-109937299D01*
X127394014Y-109937296D01*
X127393102Y-109929758D01*
X127388236Y-109916879D01*
X127335171Y-109776447D01*
X127332487Y-109769344D01*
X127292850Y-109711672D01*
X127239659Y-109634278D01*
X127239658Y-109634276D01*
X127235357Y-109628019D01*
X127229686Y-109622966D01*
X127112993Y-109518996D01*
X127112990Y-109518994D01*
X127107321Y-109513943D01*
X127099325Y-109509709D01*
X127027083Y-109471459D01*
X126955769Y-109433700D01*
X126897230Y-109418996D01*
X126796822Y-109393775D01*
X126796818Y-109393775D01*
X126789451Y-109391924D01*
X126781852Y-109391884D01*
X126781850Y-109391884D01*
X126710394Y-109391510D01*
X126617969Y-109391026D01*
X126610589Y-109392798D01*
X126610587Y-109392798D01*
X126458602Y-109429286D01*
X126458598Y-109429287D01*
X126451223Y-109431058D01*
X126298839Y-109509709D01*
X126169615Y-109622439D01*
X126071010Y-109762739D01*
X126008718Y-109922509D01*
X126007726Y-109930042D01*
X126007726Y-109930043D01*
X125995998Y-110019130D01*
X125986335Y-110092526D01*
X126005153Y-110262975D01*
X126007762Y-110270106D01*
X126007763Y-110270108D01*
X126015688Y-110291764D01*
X126064085Y-110424015D01*
X126117649Y-110503726D01*
X126139041Y-110571420D01*
X126120437Y-110639936D01*
X126067745Y-110687518D01*
X126013067Y-110700000D01*
X121311692Y-110700000D01*
X121243571Y-110679998D01*
X121197078Y-110626342D01*
X121186974Y-110556068D01*
X121218943Y-110488715D01*
X121219584Y-110488018D01*
X121225355Y-110483089D01*
X121325424Y-110343830D01*
X121389385Y-110184720D01*
X121400854Y-110104133D01*
X121412966Y-110019031D01*
X121412966Y-110019027D01*
X121413547Y-110014947D01*
X121413704Y-110000000D01*
X121393102Y-109829758D01*
X121387291Y-109814378D01*
X121335171Y-109676447D01*
X121332487Y-109669344D01*
X121295101Y-109614947D01*
X121239659Y-109534278D01*
X121239658Y-109534276D01*
X121235357Y-109528019D01*
X121229686Y-109522966D01*
X121112993Y-109418996D01*
X121112990Y-109418994D01*
X121107321Y-109413943D01*
X121099325Y-109409709D01*
X120962481Y-109337254D01*
X120962482Y-109337254D01*
X120955769Y-109333700D01*
X120922821Y-109325424D01*
X120796822Y-109293775D01*
X120796818Y-109293775D01*
X120789451Y-109291924D01*
X120781852Y-109291884D01*
X120781850Y-109291884D01*
X120710394Y-109291510D01*
X120617969Y-109291026D01*
X120610589Y-109292798D01*
X120610587Y-109292798D01*
X120458602Y-109329286D01*
X120458598Y-109329287D01*
X120451223Y-109331058D01*
X120298839Y-109409709D01*
X120169615Y-109522439D01*
X120071010Y-109662739D01*
X120052664Y-109709794D01*
X120011945Y-109814233D01*
X120008718Y-109822509D01*
X120007726Y-109830042D01*
X120007726Y-109830043D01*
X119987425Y-109984250D01*
X119986335Y-109992526D01*
X119989272Y-110019130D01*
X119999851Y-110114947D01*
X120005153Y-110162975D01*
X120007762Y-110170106D01*
X120007763Y-110170108D01*
X120015688Y-110191764D01*
X120064085Y-110324015D01*
X120068322Y-110330321D01*
X120068324Y-110330324D01*
X120097465Y-110373690D01*
X120159730Y-110466349D01*
X120165345Y-110471458D01*
X120165350Y-110471464D01*
X120175618Y-110480807D01*
X120212540Y-110541447D01*
X120210817Y-110612423D01*
X120170995Y-110671199D01*
X120105717Y-110699116D01*
X120090818Y-110700000D01*
X115911692Y-110700000D01*
X115843571Y-110679998D01*
X115797078Y-110626342D01*
X115786974Y-110556068D01*
X115818943Y-110488715D01*
X115819584Y-110488018D01*
X115825355Y-110483089D01*
X115925424Y-110343830D01*
X115989385Y-110184720D01*
X116000854Y-110104133D01*
X116012966Y-110019031D01*
X116012966Y-110019027D01*
X116013547Y-110014947D01*
X116013704Y-110000000D01*
X115993102Y-109829758D01*
X115987291Y-109814378D01*
X115935171Y-109676447D01*
X115932487Y-109669344D01*
X115895101Y-109614947D01*
X115839659Y-109534278D01*
X115839658Y-109534276D01*
X115835357Y-109528019D01*
X115829686Y-109522966D01*
X115712993Y-109418996D01*
X115712990Y-109418994D01*
X115707321Y-109413943D01*
X115699325Y-109409709D01*
X115562481Y-109337254D01*
X115562482Y-109337254D01*
X115555769Y-109333700D01*
X115522821Y-109325424D01*
X115396822Y-109293775D01*
X115396818Y-109293775D01*
X115389451Y-109291924D01*
X115381852Y-109291884D01*
X115381850Y-109291884D01*
X115310394Y-109291510D01*
X115217969Y-109291026D01*
X115210589Y-109292798D01*
X115210587Y-109292798D01*
X115058602Y-109329286D01*
X115058598Y-109329287D01*
X115051223Y-109331058D01*
X114898839Y-109409709D01*
X114769615Y-109522439D01*
X114671010Y-109662739D01*
X114652664Y-109709794D01*
X114611945Y-109814233D01*
X114608718Y-109822509D01*
X114607726Y-109830042D01*
X114607726Y-109830043D01*
X114587425Y-109984250D01*
X114586335Y-109992526D01*
X114589272Y-110019130D01*
X114599851Y-110114947D01*
X114605153Y-110162975D01*
X114607762Y-110170106D01*
X114607763Y-110170108D01*
X114615688Y-110191764D01*
X114664085Y-110324015D01*
X114668322Y-110330321D01*
X114668324Y-110330324D01*
X114697465Y-110373690D01*
X114759730Y-110466349D01*
X114765345Y-110471458D01*
X114765350Y-110471464D01*
X114775618Y-110480807D01*
X114812540Y-110541447D01*
X114810817Y-110612423D01*
X114770995Y-110671199D01*
X114705717Y-110699116D01*
X114690818Y-110700000D01*
X113300000Y-110700000D01*
X113300000Y-115574000D01*
X113279998Y-115642121D01*
X113226342Y-115688614D01*
X113174000Y-115700000D01*
X110411692Y-115700000D01*
X110343571Y-115679998D01*
X110297078Y-115626342D01*
X110286974Y-115556068D01*
X110318943Y-115488715D01*
X110319584Y-115488018D01*
X110325355Y-115483089D01*
X110425424Y-115343830D01*
X110489385Y-115184720D01*
X110502592Y-115091924D01*
X110512966Y-115019031D01*
X110512966Y-115019027D01*
X110513547Y-115014947D01*
X110513704Y-115000000D01*
X110503411Y-114914947D01*
X110494015Y-114837299D01*
X110494014Y-114837296D01*
X110493102Y-114829758D01*
X110489036Y-114818996D01*
X110435171Y-114676447D01*
X110432487Y-114669344D01*
X110359801Y-114563585D01*
X110339659Y-114534278D01*
X110339658Y-114534276D01*
X110335357Y-114528019D01*
X110329686Y-114522966D01*
X110212993Y-114418996D01*
X110212990Y-114418994D01*
X110207321Y-114413943D01*
X110199325Y-114409709D01*
X110112212Y-114363585D01*
X110055769Y-114333700D01*
X110038196Y-114329286D01*
X109896822Y-114293775D01*
X109896818Y-114293775D01*
X109889451Y-114291924D01*
X109881852Y-114291884D01*
X109881850Y-114291884D01*
X109810394Y-114291510D01*
X109717969Y-114291026D01*
X109710589Y-114292798D01*
X109710587Y-114292798D01*
X109558602Y-114329286D01*
X109558598Y-114329287D01*
X109551223Y-114331058D01*
X109398839Y-114409709D01*
X109269615Y-114522439D01*
X109171010Y-114662739D01*
X109158910Y-114693775D01*
X109112058Y-114813943D01*
X109108718Y-114822509D01*
X109107726Y-114830042D01*
X109107726Y-114830043D01*
X109095493Y-114922966D01*
X109086335Y-114992526D01*
X109105153Y-115162975D01*
X109107762Y-115170106D01*
X109107763Y-115170108D01*
X109124348Y-115215429D01*
X109164085Y-115324015D01*
X109259730Y-115466349D01*
X109265345Y-115471458D01*
X109265350Y-115471464D01*
X109275618Y-115480807D01*
X109312540Y-115541447D01*
X109310817Y-115612423D01*
X109270995Y-115671199D01*
X109205717Y-115699116D01*
X109190818Y-115700000D01*
X90618180Y-115700000D01*
X90550059Y-115679998D01*
X90503566Y-115626342D01*
X90493437Y-115556246D01*
X90493463Y-115556068D01*
X90513547Y-115414947D01*
X90513704Y-115400000D01*
X90493102Y-115229758D01*
X90478746Y-115191764D01*
X90435171Y-115076447D01*
X90432487Y-115069344D01*
X90387669Y-115004133D01*
X90339659Y-114934278D01*
X90339658Y-114934276D01*
X90335357Y-114928019D01*
X90329686Y-114922966D01*
X90212993Y-114818996D01*
X90212990Y-114818994D01*
X90207321Y-114813943D01*
X90199325Y-114809709D01*
X90062481Y-114737254D01*
X90062482Y-114737254D01*
X90055769Y-114733700D01*
X90011216Y-114722509D01*
X89896822Y-114693775D01*
X89896818Y-114693775D01*
X89889451Y-114691924D01*
X89881852Y-114691884D01*
X89881850Y-114691884D01*
X89810394Y-114691510D01*
X89717969Y-114691026D01*
X89710589Y-114692798D01*
X89710587Y-114692798D01*
X89558602Y-114729286D01*
X89558598Y-114729287D01*
X89551223Y-114731058D01*
X89398839Y-114809709D01*
X89269615Y-114922439D01*
X89171010Y-115062739D01*
X89159631Y-115091924D01*
X89112058Y-115213943D01*
X89108718Y-115222509D01*
X89107726Y-115230042D01*
X89107726Y-115230043D01*
X89091934Y-115349998D01*
X89086335Y-115392526D01*
X89104410Y-115556246D01*
X89104844Y-115560173D01*
X89092438Y-115630077D01*
X89044209Y-115682178D01*
X88979605Y-115700000D01*
X87200000Y-115700000D01*
X87200000Y-119366000D01*
X87179998Y-119434121D01*
X87126342Y-119480614D01*
X87074000Y-119492000D01*
X65634000Y-119492000D01*
X65565879Y-119471998D01*
X65519386Y-119418342D01*
X65508000Y-119366000D01*
X65508000Y-118292526D01*
X71586335Y-118292526D01*
X71595744Y-118377750D01*
X71600827Y-118423789D01*
X71605153Y-118462975D01*
X71607762Y-118470106D01*
X71607763Y-118470108D01*
X71615688Y-118491764D01*
X71664085Y-118624015D01*
X71759730Y-118766349D01*
X71793526Y-118797101D01*
X71869629Y-118866349D01*
X71886565Y-118881760D01*
X72037268Y-118963585D01*
X72203139Y-119007101D01*
X72290586Y-119008474D01*
X72367003Y-119009675D01*
X72367006Y-119009675D01*
X72374602Y-119009794D01*
X72382006Y-119008098D01*
X72382008Y-119008098D01*
X72444846Y-118993706D01*
X72541759Y-118971510D01*
X72694958Y-118894459D01*
X72700729Y-118889530D01*
X72700732Y-118889528D01*
X72819578Y-118788023D01*
X72825355Y-118783089D01*
X72908606Y-118667234D01*
X72920992Y-118649998D01*
X72920993Y-118649997D01*
X72925424Y-118643830D01*
X72989385Y-118484720D01*
X73013547Y-118314947D01*
X73013704Y-118300000D01*
X72993102Y-118129758D01*
X72932487Y-117969344D01*
X72919169Y-117949966D01*
X72839659Y-117834278D01*
X72839658Y-117834276D01*
X72835357Y-117828019D01*
X72829686Y-117822966D01*
X72712993Y-117718996D01*
X72712990Y-117718994D01*
X72707321Y-117713943D01*
X72699325Y-117709709D01*
X72562481Y-117637254D01*
X72562482Y-117637254D01*
X72555769Y-117633700D01*
X72538196Y-117629286D01*
X72396822Y-117593775D01*
X72396818Y-117593775D01*
X72389451Y-117591924D01*
X72381852Y-117591884D01*
X72381850Y-117591884D01*
X72310394Y-117591510D01*
X72217969Y-117591026D01*
X72210589Y-117592798D01*
X72210587Y-117592798D01*
X72058602Y-117629286D01*
X72058598Y-117629287D01*
X72051223Y-117631058D01*
X71898839Y-117709709D01*
X71769615Y-117822439D01*
X71671010Y-117962739D01*
X71608718Y-118122509D01*
X71607726Y-118130042D01*
X71607726Y-118130043D01*
X71587793Y-118281455D01*
X71586335Y-118292526D01*
X65508000Y-118292526D01*
X65508000Y-113392526D01*
X71986335Y-113392526D01*
X71991162Y-113436244D01*
X72001486Y-113529758D01*
X72005153Y-113562975D01*
X72007762Y-113570106D01*
X72007763Y-113570108D01*
X72022243Y-113609675D01*
X72064085Y-113724015D01*
X72068322Y-113730321D01*
X72068324Y-113730324D01*
X72102947Y-113781847D01*
X72159730Y-113866349D01*
X72223148Y-113924055D01*
X72253442Y-113951620D01*
X72286565Y-113981760D01*
X72437268Y-114063585D01*
X72603139Y-114107101D01*
X72690586Y-114108474D01*
X72767003Y-114109675D01*
X72767006Y-114109675D01*
X72774602Y-114109794D01*
X72782006Y-114108098D01*
X72782008Y-114108098D01*
X72857032Y-114090915D01*
X72941759Y-114071510D01*
X73094958Y-113994459D01*
X73100729Y-113989530D01*
X73100732Y-113989528D01*
X73219578Y-113888023D01*
X73225355Y-113883089D01*
X73325424Y-113743830D01*
X73389385Y-113584720D01*
X73398239Y-113522509D01*
X73412966Y-113419031D01*
X73412966Y-113419027D01*
X73413547Y-113414947D01*
X73413704Y-113400000D01*
X73412800Y-113392526D01*
X75386335Y-113392526D01*
X75391162Y-113436244D01*
X75401486Y-113529758D01*
X75405153Y-113562975D01*
X75407762Y-113570106D01*
X75407763Y-113570108D01*
X75422243Y-113609675D01*
X75464085Y-113724015D01*
X75468322Y-113730321D01*
X75468324Y-113730324D01*
X75502947Y-113781847D01*
X75559730Y-113866349D01*
X75623148Y-113924055D01*
X75653442Y-113951620D01*
X75686565Y-113981760D01*
X75837268Y-114063585D01*
X76003139Y-114107101D01*
X76090586Y-114108474D01*
X76167003Y-114109675D01*
X76167006Y-114109675D01*
X76174602Y-114109794D01*
X76182006Y-114108098D01*
X76182008Y-114108098D01*
X76257032Y-114090915D01*
X76341759Y-114071510D01*
X76494958Y-113994459D01*
X76500729Y-113989530D01*
X76500732Y-113989528D01*
X76619578Y-113888023D01*
X76625355Y-113883089D01*
X76725424Y-113743830D01*
X76746048Y-113692526D01*
X98386335Y-113692526D01*
X98405153Y-113862975D01*
X98407762Y-113870106D01*
X98407763Y-113870108D01*
X98414319Y-113888023D01*
X98464085Y-114024015D01*
X98468322Y-114030321D01*
X98468324Y-114030324D01*
X98496000Y-114071510D01*
X98559730Y-114166349D01*
X98686565Y-114281760D01*
X98837268Y-114363585D01*
X99003139Y-114407101D01*
X99090586Y-114408474D01*
X99167003Y-114409675D01*
X99167006Y-114409675D01*
X99174602Y-114409794D01*
X99182006Y-114408098D01*
X99182008Y-114408098D01*
X99244846Y-114393706D01*
X99341759Y-114371510D01*
X99494958Y-114294459D01*
X99500729Y-114289530D01*
X99500732Y-114289528D01*
X99619578Y-114188023D01*
X99625355Y-114183089D01*
X99705534Y-114071510D01*
X99720992Y-114049998D01*
X99720993Y-114049997D01*
X99725424Y-114043830D01*
X99789385Y-113884720D01*
X99808559Y-113749998D01*
X99812966Y-113719031D01*
X99812966Y-113719027D01*
X99813547Y-113714947D01*
X99813704Y-113700000D01*
X99802773Y-113609675D01*
X99794015Y-113537299D01*
X99794014Y-113537296D01*
X99793102Y-113529758D01*
X99777901Y-113489528D01*
X99735171Y-113376447D01*
X99732487Y-113369344D01*
X99635357Y-113228019D01*
X99629686Y-113222966D01*
X99512993Y-113118996D01*
X99512990Y-113118994D01*
X99507321Y-113113943D01*
X99499325Y-113109709D01*
X99423986Y-113069819D01*
X99355769Y-113033700D01*
X99338196Y-113029286D01*
X99196822Y-112993775D01*
X99196818Y-112993775D01*
X99189451Y-112991924D01*
X99181852Y-112991884D01*
X99181850Y-112991884D01*
X99110394Y-112991510D01*
X99017969Y-112991026D01*
X99010589Y-112992798D01*
X99010587Y-112992798D01*
X98858602Y-113029286D01*
X98858598Y-113029287D01*
X98851223Y-113031058D01*
X98698839Y-113109709D01*
X98569615Y-113222439D01*
X98471010Y-113362739D01*
X98439864Y-113442624D01*
X98422164Y-113488023D01*
X98408718Y-113522509D01*
X98407726Y-113530042D01*
X98407726Y-113530043D01*
X98388879Y-113673205D01*
X98386335Y-113692526D01*
X76746048Y-113692526D01*
X76789385Y-113584720D01*
X76798239Y-113522509D01*
X76812966Y-113419031D01*
X76812966Y-113419027D01*
X76813547Y-113414947D01*
X76813704Y-113400000D01*
X76803290Y-113313943D01*
X76794015Y-113237299D01*
X76794014Y-113237296D01*
X76793102Y-113229758D01*
X76790337Y-113222439D01*
X76735171Y-113076447D01*
X76732487Y-113069344D01*
X76704956Y-113029286D01*
X76639659Y-112934278D01*
X76639658Y-112934276D01*
X76635357Y-112928019D01*
X76629686Y-112922966D01*
X76512993Y-112818996D01*
X76512990Y-112818994D01*
X76507321Y-112813943D01*
X76499325Y-112809709D01*
X76362481Y-112737254D01*
X76362482Y-112737254D01*
X76355769Y-112733700D01*
X76301681Y-112720114D01*
X76196822Y-112693775D01*
X76196818Y-112693775D01*
X76189451Y-112691924D01*
X76181852Y-112691884D01*
X76181850Y-112691884D01*
X76110394Y-112691510D01*
X76017969Y-112691026D01*
X76010589Y-112692798D01*
X76010587Y-112692798D01*
X75858602Y-112729286D01*
X75858598Y-112729287D01*
X75851223Y-112731058D01*
X75698839Y-112809709D01*
X75569615Y-112922439D01*
X75471010Y-113062739D01*
X75451046Y-113113943D01*
X75420643Y-113191924D01*
X75408718Y-113222509D01*
X75407726Y-113230042D01*
X75407726Y-113230043D01*
X75388390Y-113376919D01*
X75386335Y-113392526D01*
X73412800Y-113392526D01*
X73403290Y-113313943D01*
X73394015Y-113237299D01*
X73394014Y-113237296D01*
X73393102Y-113229758D01*
X73390337Y-113222439D01*
X73335171Y-113076447D01*
X73332487Y-113069344D01*
X73304956Y-113029286D01*
X73239659Y-112934278D01*
X73239658Y-112934276D01*
X73235357Y-112928019D01*
X73229686Y-112922966D01*
X73112993Y-112818996D01*
X73112990Y-112818994D01*
X73107321Y-112813943D01*
X73099325Y-112809709D01*
X72962481Y-112737254D01*
X72962482Y-112737254D01*
X72955769Y-112733700D01*
X72901681Y-112720114D01*
X72796822Y-112693775D01*
X72796818Y-112693775D01*
X72789451Y-112691924D01*
X72781852Y-112691884D01*
X72781850Y-112691884D01*
X72710394Y-112691510D01*
X72617969Y-112691026D01*
X72610589Y-112692798D01*
X72610587Y-112692798D01*
X72458602Y-112729286D01*
X72458598Y-112729287D01*
X72451223Y-112731058D01*
X72298839Y-112809709D01*
X72169615Y-112922439D01*
X72071010Y-113062739D01*
X72051046Y-113113943D01*
X72020643Y-113191924D01*
X72008718Y-113222509D01*
X72007726Y-113230042D01*
X72007726Y-113230043D01*
X71988390Y-113376919D01*
X71986335Y-113392526D01*
X65508000Y-113392526D01*
X65508000Y-112224617D01*
X97141225Y-112224617D01*
X97145387Y-112262312D01*
X97158060Y-112377100D01*
X97160043Y-112395066D01*
X97162652Y-112402197D01*
X97162653Y-112402199D01*
X97170060Y-112422439D01*
X97218975Y-112556106D01*
X97223212Y-112562412D01*
X97223214Y-112562415D01*
X97236435Y-112582089D01*
X97314620Y-112698440D01*
X97441455Y-112813851D01*
X97592158Y-112895676D01*
X97758029Y-112939192D01*
X97845476Y-112940565D01*
X97921893Y-112941766D01*
X97921896Y-112941766D01*
X97929492Y-112941885D01*
X97936896Y-112940189D01*
X97936898Y-112940189D01*
X98036194Y-112917447D01*
X98096649Y-112903601D01*
X98249848Y-112826550D01*
X98255619Y-112821621D01*
X98255622Y-112821619D01*
X98374468Y-112720114D01*
X98380245Y-112715180D01*
X98480314Y-112575921D01*
X98544275Y-112416811D01*
X98568437Y-112247038D01*
X98568594Y-112232091D01*
X98565352Y-112205300D01*
X98565517Y-112173719D01*
X98575858Y-112095169D01*
X98576936Y-112086981D01*
X98573078Y-112057675D01*
X98572000Y-112041230D01*
X98572000Y-110451579D01*
X98592002Y-110383458D01*
X98645658Y-110336965D01*
X98715932Y-110326861D01*
X98780512Y-110356355D01*
X98802581Y-110381303D01*
X98859730Y-110466349D01*
X98923147Y-110524054D01*
X98969629Y-110566349D01*
X98986565Y-110581760D01*
X99137268Y-110663585D01*
X99303139Y-110707101D01*
X99390586Y-110708474D01*
X99467003Y-110709675D01*
X99467006Y-110709675D01*
X99474602Y-110709794D01*
X99482006Y-110708098D01*
X99482008Y-110708098D01*
X99571864Y-110687518D01*
X99641759Y-110671510D01*
X99794958Y-110594459D01*
X99800729Y-110589530D01*
X99800732Y-110589528D01*
X99919578Y-110488023D01*
X99925355Y-110483089D01*
X100025424Y-110343830D01*
X100089385Y-110184720D01*
X100100854Y-110104133D01*
X100112966Y-110019031D01*
X100112966Y-110019027D01*
X100113547Y-110014947D01*
X100113704Y-110000000D01*
X100093102Y-109829758D01*
X100087291Y-109814378D01*
X100035171Y-109676447D01*
X100032487Y-109669344D01*
X99995101Y-109614947D01*
X99939659Y-109534278D01*
X99939658Y-109534276D01*
X99935357Y-109528019D01*
X99929686Y-109522966D01*
X99812993Y-109418996D01*
X99812990Y-109418994D01*
X99807321Y-109413943D01*
X99799325Y-109409709D01*
X99662481Y-109337254D01*
X99662482Y-109337254D01*
X99655769Y-109333700D01*
X99622821Y-109325424D01*
X99496822Y-109293775D01*
X99496818Y-109293775D01*
X99489451Y-109291924D01*
X99481852Y-109291884D01*
X99481850Y-109291884D01*
X99410394Y-109291510D01*
X99317969Y-109291026D01*
X99310589Y-109292798D01*
X99310587Y-109292798D01*
X99158602Y-109329286D01*
X99158598Y-109329287D01*
X99151223Y-109331058D01*
X98998839Y-109409709D01*
X98993122Y-109414696D01*
X98993115Y-109414701D01*
X98898080Y-109497606D01*
X98833598Y-109527314D01*
X98763291Y-109517444D01*
X98709481Y-109471131D01*
X98693682Y-109434552D01*
X98693102Y-109429758D01*
X98632487Y-109269344D01*
X98535357Y-109128019D01*
X98529686Y-109122966D01*
X98412993Y-109018996D01*
X98412990Y-109018994D01*
X98407321Y-109013943D01*
X98399325Y-109009709D01*
X98366872Y-108992526D01*
X100886335Y-108992526D01*
X100892522Y-109048562D01*
X100901985Y-109134278D01*
X100905153Y-109162975D01*
X100907762Y-109170106D01*
X100907763Y-109170108D01*
X100915688Y-109191764D01*
X100964085Y-109324015D01*
X100968322Y-109330321D01*
X100968324Y-109330324D01*
X101010962Y-109393775D01*
X101059730Y-109466349D01*
X101186565Y-109581760D01*
X101337268Y-109663585D01*
X101503139Y-109707101D01*
X101590586Y-109708474D01*
X101667003Y-109709675D01*
X101667006Y-109709675D01*
X101674602Y-109709794D01*
X101682006Y-109708098D01*
X101682008Y-109708098D01*
X101744846Y-109693706D01*
X101841759Y-109671510D01*
X101994958Y-109594459D01*
X102000729Y-109589530D01*
X102000732Y-109589528D01*
X102119578Y-109488023D01*
X102125355Y-109483089D01*
X102225424Y-109343830D01*
X102289385Y-109184720D01*
X102296564Y-109134278D01*
X102312966Y-109019031D01*
X102312966Y-109019027D01*
X102313547Y-109014947D01*
X102313704Y-109000000D01*
X102305361Y-108931058D01*
X102294015Y-108837299D01*
X102294014Y-108837296D01*
X102293102Y-108829758D01*
X102241247Y-108692526D01*
X102548835Y-108692526D01*
X102558244Y-108777751D01*
X102563986Y-108829758D01*
X102567653Y-108862975D01*
X102570262Y-108870106D01*
X102570263Y-108870108D01*
X102578924Y-108893775D01*
X102626585Y-109024015D01*
X102643082Y-109048565D01*
X102664500Y-109118839D01*
X102664500Y-112655742D01*
X102655893Y-112701512D01*
X102612058Y-112813943D01*
X102608718Y-112822509D01*
X102607726Y-112830042D01*
X102607726Y-112830043D01*
X102593018Y-112941766D01*
X102586335Y-112992526D01*
X102594087Y-113062739D01*
X102600298Y-113118996D01*
X102605153Y-113162975D01*
X102607762Y-113170106D01*
X102607763Y-113170108D01*
X102615418Y-113191026D01*
X102664085Y-113324015D01*
X102668322Y-113330321D01*
X102668324Y-113330324D01*
X102690340Y-113363086D01*
X102759730Y-113466349D01*
X102794372Y-113497871D01*
X102873760Y-113570108D01*
X102886565Y-113581760D01*
X103037268Y-113663585D01*
X103203139Y-113707101D01*
X103290586Y-113708474D01*
X103367003Y-113709675D01*
X103367006Y-113709675D01*
X103374602Y-113709794D01*
X103382006Y-113708098D01*
X103382008Y-113708098D01*
X103482880Y-113684995D01*
X103541759Y-113671510D01*
X103694958Y-113594459D01*
X103700729Y-113589530D01*
X103700732Y-113589528D01*
X103819578Y-113488023D01*
X103825355Y-113483089D01*
X103841916Y-113460043D01*
X103886214Y-113398396D01*
X103942209Y-113354749D01*
X104012912Y-113348303D01*
X104073336Y-113378730D01*
X104180944Y-113476646D01*
X104180948Y-113476649D01*
X104186565Y-113481760D01*
X104337268Y-113563585D01*
X104503139Y-113607101D01*
X104590586Y-113608474D01*
X104667003Y-113609675D01*
X104667006Y-113609675D01*
X104674602Y-113609794D01*
X104682006Y-113608098D01*
X104682008Y-113608098D01*
X104763088Y-113589528D01*
X104841759Y-113571510D01*
X104994958Y-113494459D01*
X105000729Y-113489530D01*
X105000732Y-113489528D01*
X105119578Y-113388023D01*
X105125355Y-113383089D01*
X105225424Y-113243830D01*
X105289385Y-113084720D01*
X105296646Y-113033700D01*
X105312966Y-112919031D01*
X105312966Y-112919027D01*
X105313547Y-112914947D01*
X105313621Y-112907857D01*
X105313661Y-112904133D01*
X105313661Y-112904127D01*
X105313704Y-112900000D01*
X105302860Y-112810388D01*
X105294015Y-112737299D01*
X105294014Y-112737296D01*
X105293102Y-112729758D01*
X105287594Y-112715180D01*
X105235171Y-112576447D01*
X105232487Y-112569344D01*
X105135357Y-112428019D01*
X105129686Y-112422966D01*
X105012993Y-112318996D01*
X105012990Y-112318994D01*
X105007321Y-112313943D01*
X104999325Y-112309709D01*
X104862481Y-112237254D01*
X104862482Y-112237254D01*
X104855769Y-112233700D01*
X104789626Y-112217086D01*
X104696822Y-112193775D01*
X104696818Y-112193775D01*
X104689451Y-112191924D01*
X104681852Y-112191884D01*
X104681850Y-112191884D01*
X104610394Y-112191510D01*
X104517969Y-112191026D01*
X104510589Y-112192798D01*
X104510587Y-112192798D01*
X104358602Y-112229286D01*
X104358598Y-112229287D01*
X104351223Y-112231058D01*
X104198839Y-112309709D01*
X104193122Y-112314696D01*
X104193115Y-112314701D01*
X104144330Y-112357260D01*
X104079848Y-112386969D01*
X104009541Y-112377100D01*
X103955730Y-112330786D01*
X103935500Y-112262312D01*
X103935500Y-110373690D01*
X103955502Y-110305569D01*
X104009158Y-110259076D01*
X104079432Y-110248972D01*
X104144012Y-110278466D01*
X104171640Y-110313770D01*
X104172361Y-110315739D01*
X104268006Y-110458073D01*
X104292990Y-110480807D01*
X104380070Y-110560043D01*
X104394841Y-110573484D01*
X104545544Y-110655309D01*
X104711415Y-110698825D01*
X104798862Y-110700198D01*
X104875279Y-110701399D01*
X104875282Y-110701399D01*
X104882878Y-110701518D01*
X104890282Y-110699822D01*
X104890284Y-110699822D01*
X104976839Y-110679998D01*
X105050035Y-110663234D01*
X105203234Y-110586183D01*
X105209005Y-110581254D01*
X105209008Y-110581252D01*
X105327854Y-110479747D01*
X105333631Y-110474813D01*
X105433700Y-110335554D01*
X105497661Y-110176444D01*
X105508530Y-110100076D01*
X105521242Y-110010755D01*
X105521242Y-110010751D01*
X105521823Y-110006671D01*
X105521897Y-109999581D01*
X105521937Y-109995857D01*
X105521937Y-109995851D01*
X105521972Y-109992526D01*
X109286335Y-109992526D01*
X109289272Y-110019130D01*
X109299851Y-110114947D01*
X109305153Y-110162975D01*
X109307762Y-110170106D01*
X109307763Y-110170108D01*
X109315688Y-110191764D01*
X109364085Y-110324015D01*
X109368322Y-110330321D01*
X109368324Y-110330324D01*
X109397465Y-110373690D01*
X109459730Y-110466349D01*
X109523147Y-110524054D01*
X109569629Y-110566349D01*
X109586565Y-110581760D01*
X109737268Y-110663585D01*
X109903139Y-110707101D01*
X109990586Y-110708474D01*
X110067003Y-110709675D01*
X110067006Y-110709675D01*
X110074602Y-110709794D01*
X110082006Y-110708098D01*
X110082008Y-110708098D01*
X110171864Y-110687518D01*
X110241759Y-110671510D01*
X110394958Y-110594459D01*
X110400729Y-110589530D01*
X110400732Y-110589528D01*
X110519578Y-110488023D01*
X110525355Y-110483089D01*
X110625424Y-110343830D01*
X110689385Y-110184720D01*
X110700854Y-110104133D01*
X110712966Y-110019031D01*
X110712966Y-110019027D01*
X110713547Y-110014947D01*
X110713704Y-110000000D01*
X110693102Y-109829758D01*
X110687291Y-109814378D01*
X110635171Y-109676447D01*
X110632487Y-109669344D01*
X110595101Y-109614947D01*
X110539659Y-109534278D01*
X110539658Y-109534276D01*
X110535357Y-109528019D01*
X110529686Y-109522966D01*
X110412993Y-109418996D01*
X110412990Y-109418994D01*
X110407321Y-109413943D01*
X110399325Y-109409709D01*
X110262481Y-109337254D01*
X110262482Y-109337254D01*
X110255769Y-109333700D01*
X110222821Y-109325424D01*
X110096822Y-109293775D01*
X110096818Y-109293775D01*
X110089451Y-109291924D01*
X110081852Y-109291884D01*
X110081850Y-109291884D01*
X110010394Y-109291510D01*
X109917969Y-109291026D01*
X109910589Y-109292798D01*
X109910587Y-109292798D01*
X109758602Y-109329286D01*
X109758598Y-109329287D01*
X109751223Y-109331058D01*
X109598839Y-109409709D01*
X109469615Y-109522439D01*
X109371010Y-109662739D01*
X109352664Y-109709794D01*
X109311945Y-109814233D01*
X109308718Y-109822509D01*
X109307726Y-109830042D01*
X109307726Y-109830043D01*
X109287425Y-109984250D01*
X109286335Y-109992526D01*
X105521972Y-109992526D01*
X105521980Y-109991724D01*
X105513786Y-109924015D01*
X105502291Y-109829023D01*
X105502290Y-109829020D01*
X105501378Y-109821482D01*
X105481857Y-109769819D01*
X105443447Y-109668171D01*
X105440763Y-109661068D01*
X105409065Y-109614947D01*
X105347935Y-109526002D01*
X105347934Y-109526000D01*
X105343633Y-109519743D01*
X105337962Y-109514690D01*
X105221269Y-109410720D01*
X105221266Y-109410718D01*
X105215597Y-109405667D01*
X105207601Y-109401433D01*
X105081260Y-109334539D01*
X105064045Y-109325424D01*
X105030026Y-109316879D01*
X104905098Y-109285499D01*
X104905094Y-109285499D01*
X104897727Y-109283648D01*
X104890128Y-109283608D01*
X104890126Y-109283608D01*
X104818670Y-109283234D01*
X104726245Y-109282750D01*
X104718865Y-109284522D01*
X104718863Y-109284522D01*
X104566878Y-109321010D01*
X104566874Y-109321011D01*
X104559499Y-109322782D01*
X104407115Y-109401433D01*
X104277891Y-109514163D01*
X104179286Y-109654463D01*
X104176525Y-109661544D01*
X104172938Y-109668234D01*
X104170182Y-109666756D01*
X104135513Y-109711672D01*
X104068634Y-109735499D01*
X103999490Y-109719386D01*
X103950034Y-109668448D01*
X103935500Y-109609701D01*
X103935500Y-108992526D01*
X106286335Y-108992526D01*
X106292522Y-109048562D01*
X106301985Y-109134278D01*
X106305153Y-109162975D01*
X106307762Y-109170106D01*
X106307763Y-109170108D01*
X106315688Y-109191764D01*
X106364085Y-109324015D01*
X106368322Y-109330321D01*
X106368324Y-109330324D01*
X106410962Y-109393775D01*
X106459730Y-109466349D01*
X106586565Y-109581760D01*
X106737268Y-109663585D01*
X106903139Y-109707101D01*
X106990586Y-109708474D01*
X107067003Y-109709675D01*
X107067006Y-109709675D01*
X107074602Y-109709794D01*
X107082006Y-109708098D01*
X107082008Y-109708098D01*
X107144846Y-109693706D01*
X107241759Y-109671510D01*
X107394958Y-109594459D01*
X107400729Y-109589530D01*
X107400732Y-109589528D01*
X107519578Y-109488023D01*
X107525355Y-109483089D01*
X107625424Y-109343830D01*
X107689385Y-109184720D01*
X107696564Y-109134278D01*
X107712966Y-109019031D01*
X107712966Y-109019027D01*
X107713547Y-109014947D01*
X107713704Y-109000000D01*
X107712800Y-108992526D01*
X111786335Y-108992526D01*
X111792522Y-109048562D01*
X111801985Y-109134278D01*
X111805153Y-109162975D01*
X111807762Y-109170106D01*
X111807763Y-109170108D01*
X111815688Y-109191764D01*
X111864085Y-109324015D01*
X111868322Y-109330321D01*
X111868324Y-109330324D01*
X111910962Y-109393775D01*
X111959730Y-109466349D01*
X112086565Y-109581760D01*
X112237268Y-109663585D01*
X112403139Y-109707101D01*
X112490586Y-109708474D01*
X112567003Y-109709675D01*
X112567006Y-109709675D01*
X112574602Y-109709794D01*
X112582006Y-109708098D01*
X112582008Y-109708098D01*
X112644846Y-109693706D01*
X112741759Y-109671510D01*
X112894958Y-109594459D01*
X112900729Y-109589530D01*
X112900732Y-109589528D01*
X113019578Y-109488023D01*
X113025355Y-109483089D01*
X113125424Y-109343830D01*
X113189385Y-109184720D01*
X113196564Y-109134278D01*
X113212966Y-109019031D01*
X113212966Y-109019027D01*
X113213547Y-109014947D01*
X113213704Y-109000000D01*
X113212800Y-108992526D01*
X117186335Y-108992526D01*
X117192522Y-109048562D01*
X117201985Y-109134278D01*
X117205153Y-109162975D01*
X117207762Y-109170106D01*
X117207763Y-109170108D01*
X117215688Y-109191764D01*
X117264085Y-109324015D01*
X117268322Y-109330321D01*
X117268324Y-109330324D01*
X117310962Y-109393775D01*
X117359730Y-109466349D01*
X117486565Y-109581760D01*
X117637268Y-109663585D01*
X117803139Y-109707101D01*
X117890586Y-109708474D01*
X117967003Y-109709675D01*
X117967006Y-109709675D01*
X117974602Y-109709794D01*
X117982006Y-109708098D01*
X117982008Y-109708098D01*
X118044846Y-109693706D01*
X118141759Y-109671510D01*
X118294958Y-109594459D01*
X118300729Y-109589530D01*
X118300732Y-109589528D01*
X118419578Y-109488023D01*
X118425355Y-109483089D01*
X118525424Y-109343830D01*
X118589385Y-109184720D01*
X118596564Y-109134278D01*
X118612966Y-109019031D01*
X118612966Y-109019027D01*
X118613547Y-109014947D01*
X118613704Y-109000000D01*
X118612800Y-108992526D01*
X122586335Y-108992526D01*
X122592522Y-109048562D01*
X122601985Y-109134278D01*
X122605153Y-109162975D01*
X122607762Y-109170106D01*
X122607763Y-109170108D01*
X122615688Y-109191764D01*
X122664085Y-109324015D01*
X122668322Y-109330321D01*
X122668324Y-109330324D01*
X122710962Y-109393775D01*
X122759730Y-109466349D01*
X122886565Y-109581760D01*
X123037268Y-109663585D01*
X123203139Y-109707101D01*
X123290586Y-109708474D01*
X123367003Y-109709675D01*
X123367006Y-109709675D01*
X123374602Y-109709794D01*
X123382006Y-109708098D01*
X123382008Y-109708098D01*
X123444846Y-109693706D01*
X123541759Y-109671510D01*
X123694958Y-109594459D01*
X123700729Y-109589530D01*
X123700732Y-109589528D01*
X123819578Y-109488023D01*
X123825355Y-109483089D01*
X123925424Y-109343830D01*
X123989385Y-109184720D01*
X123996564Y-109134278D01*
X124012966Y-109019031D01*
X124012966Y-109019027D01*
X124013547Y-109014947D01*
X124013704Y-109000000D01*
X124005361Y-108931058D01*
X123994015Y-108837299D01*
X123994014Y-108837296D01*
X123993102Y-108829758D01*
X123932487Y-108669344D01*
X123923675Y-108656523D01*
X123839659Y-108534278D01*
X123839658Y-108534276D01*
X123835357Y-108528019D01*
X123829686Y-108522966D01*
X123712993Y-108418996D01*
X123712990Y-108418994D01*
X123707321Y-108413943D01*
X123699325Y-108409709D01*
X123623986Y-108369819D01*
X123555769Y-108333700D01*
X123538196Y-108329286D01*
X123396822Y-108293775D01*
X123396818Y-108293775D01*
X123389451Y-108291924D01*
X123381852Y-108291884D01*
X123381850Y-108291884D01*
X123310394Y-108291510D01*
X123217969Y-108291026D01*
X123210589Y-108292798D01*
X123210587Y-108292798D01*
X123058602Y-108329286D01*
X123058598Y-108329287D01*
X123051223Y-108331058D01*
X122898839Y-108409709D01*
X122769615Y-108522439D01*
X122671010Y-108662739D01*
X122608718Y-108822509D01*
X122607726Y-108830042D01*
X122607726Y-108830043D01*
X122591953Y-108949855D01*
X122586335Y-108992526D01*
X118612800Y-108992526D01*
X118605361Y-108931058D01*
X118594015Y-108837299D01*
X118594014Y-108837296D01*
X118593102Y-108829758D01*
X118532487Y-108669344D01*
X118523675Y-108656523D01*
X118439659Y-108534278D01*
X118439658Y-108534276D01*
X118435357Y-108528019D01*
X118429686Y-108522966D01*
X118312993Y-108418996D01*
X118312990Y-108418994D01*
X118307321Y-108413943D01*
X118299325Y-108409709D01*
X118223986Y-108369819D01*
X118155769Y-108333700D01*
X118138196Y-108329286D01*
X117996822Y-108293775D01*
X117996818Y-108293775D01*
X117989451Y-108291924D01*
X117981852Y-108291884D01*
X117981850Y-108291884D01*
X117910394Y-108291510D01*
X117817969Y-108291026D01*
X117810589Y-108292798D01*
X117810587Y-108292798D01*
X117658602Y-108329286D01*
X117658598Y-108329287D01*
X117651223Y-108331058D01*
X117498839Y-108409709D01*
X117369615Y-108522439D01*
X117271010Y-108662739D01*
X117208718Y-108822509D01*
X117207726Y-108830042D01*
X117207726Y-108830043D01*
X117191953Y-108949855D01*
X117186335Y-108992526D01*
X113212800Y-108992526D01*
X113205361Y-108931058D01*
X113194015Y-108837299D01*
X113194014Y-108837296D01*
X113193102Y-108829758D01*
X113132487Y-108669344D01*
X113123675Y-108656523D01*
X113039659Y-108534278D01*
X113039658Y-108534276D01*
X113035357Y-108528019D01*
X113029686Y-108522966D01*
X112912993Y-108418996D01*
X112912990Y-108418994D01*
X112907321Y-108413943D01*
X112899325Y-108409709D01*
X112823986Y-108369819D01*
X112755769Y-108333700D01*
X112738196Y-108329286D01*
X112596822Y-108293775D01*
X112596818Y-108293775D01*
X112589451Y-108291924D01*
X112581852Y-108291884D01*
X112581850Y-108291884D01*
X112510394Y-108291510D01*
X112417969Y-108291026D01*
X112410589Y-108292798D01*
X112410587Y-108292798D01*
X112258602Y-108329286D01*
X112258598Y-108329287D01*
X112251223Y-108331058D01*
X112098839Y-108409709D01*
X111969615Y-108522439D01*
X111871010Y-108662739D01*
X111808718Y-108822509D01*
X111807726Y-108830042D01*
X111807726Y-108830043D01*
X111791953Y-108949855D01*
X111786335Y-108992526D01*
X107712800Y-108992526D01*
X107705361Y-108931058D01*
X107694015Y-108837299D01*
X107694014Y-108837296D01*
X107693102Y-108829758D01*
X107632487Y-108669344D01*
X107623675Y-108656523D01*
X107539659Y-108534278D01*
X107539658Y-108534276D01*
X107535357Y-108528019D01*
X107529686Y-108522966D01*
X107412993Y-108418996D01*
X107412990Y-108418994D01*
X107407321Y-108413943D01*
X107399325Y-108409709D01*
X107323986Y-108369819D01*
X107255769Y-108333700D01*
X107238196Y-108329286D01*
X107096822Y-108293775D01*
X107096818Y-108293775D01*
X107089451Y-108291924D01*
X107081852Y-108291884D01*
X107081850Y-108291884D01*
X107010394Y-108291510D01*
X106917969Y-108291026D01*
X106910589Y-108292798D01*
X106910587Y-108292798D01*
X106758602Y-108329286D01*
X106758598Y-108329287D01*
X106751223Y-108331058D01*
X106598839Y-108409709D01*
X106469615Y-108522439D01*
X106371010Y-108662739D01*
X106308718Y-108822509D01*
X106307726Y-108830042D01*
X106307726Y-108830043D01*
X106291953Y-108949855D01*
X106286335Y-108992526D01*
X103935500Y-108992526D01*
X103935500Y-108949855D01*
X103944592Y-108902861D01*
X103951885Y-108884720D01*
X103976047Y-108714947D01*
X103976204Y-108700000D01*
X103970943Y-108656523D01*
X103956515Y-108537299D01*
X103956514Y-108537296D01*
X103955602Y-108529758D01*
X103952837Y-108522439D01*
X103897671Y-108376447D01*
X103894987Y-108369344D01*
X103843050Y-108293775D01*
X103802159Y-108234278D01*
X103802158Y-108234276D01*
X103797857Y-108228019D01*
X103792186Y-108222966D01*
X103675493Y-108118996D01*
X103675490Y-108118994D01*
X103669821Y-108113943D01*
X103661825Y-108109709D01*
X103524981Y-108037254D01*
X103524982Y-108037254D01*
X103518269Y-108033700D01*
X103500696Y-108029286D01*
X103359322Y-107993775D01*
X103359318Y-107993775D01*
X103351951Y-107991924D01*
X103344352Y-107991884D01*
X103344350Y-107991884D01*
X103272894Y-107991510D01*
X103180469Y-107991026D01*
X103173089Y-107992798D01*
X103173087Y-107992798D01*
X103021102Y-108029286D01*
X103021098Y-108029287D01*
X103013723Y-108031058D01*
X102861339Y-108109709D01*
X102732115Y-108222439D01*
X102633510Y-108362739D01*
X102613546Y-108413943D01*
X102581690Y-108495651D01*
X102571218Y-108522509D01*
X102570226Y-108530042D01*
X102570226Y-108530043D01*
X102550952Y-108676447D01*
X102548835Y-108692526D01*
X102241247Y-108692526D01*
X102232487Y-108669344D01*
X102223675Y-108656523D01*
X102139659Y-108534278D01*
X102139658Y-108534276D01*
X102135357Y-108528019D01*
X102129686Y-108522966D01*
X102012993Y-108418996D01*
X102012990Y-108418994D01*
X102007321Y-108413943D01*
X101999325Y-108409709D01*
X101923986Y-108369819D01*
X101855769Y-108333700D01*
X101838196Y-108329286D01*
X101696822Y-108293775D01*
X101696818Y-108293775D01*
X101689451Y-108291924D01*
X101681852Y-108291884D01*
X101681850Y-108291884D01*
X101610394Y-108291510D01*
X101517969Y-108291026D01*
X101510589Y-108292798D01*
X101510587Y-108292798D01*
X101358602Y-108329286D01*
X101358598Y-108329287D01*
X101351223Y-108331058D01*
X101198839Y-108409709D01*
X101069615Y-108522439D01*
X100971010Y-108662739D01*
X100908718Y-108822509D01*
X100907726Y-108830042D01*
X100907726Y-108830043D01*
X100891953Y-108949855D01*
X100886335Y-108992526D01*
X98366872Y-108992526D01*
X98262481Y-108937254D01*
X98262482Y-108937254D01*
X98255769Y-108933700D01*
X98223040Y-108925479D01*
X98096822Y-108893775D01*
X98096818Y-108893775D01*
X98089451Y-108891924D01*
X98081852Y-108891884D01*
X98081850Y-108891884D01*
X98010394Y-108891510D01*
X97917969Y-108891026D01*
X97910589Y-108892798D01*
X97910587Y-108892798D01*
X97758602Y-108929286D01*
X97758598Y-108929287D01*
X97751223Y-108931058D01*
X97598839Y-109009709D01*
X97469615Y-109122439D01*
X97371010Y-109262739D01*
X97358910Y-109293775D01*
X97312058Y-109413943D01*
X97308718Y-109422509D01*
X97307726Y-109430042D01*
X97307726Y-109430043D01*
X97295493Y-109522966D01*
X97286335Y-109592526D01*
X97293780Y-109659962D01*
X97302120Y-109735499D01*
X97305153Y-109762975D01*
X97307762Y-109770106D01*
X97307763Y-109770108D01*
X97323911Y-109814233D01*
X97364085Y-109924015D01*
X97368322Y-109930321D01*
X97368324Y-109930324D01*
X97377400Y-109943830D01*
X97404562Y-109984250D01*
X97406581Y-109987255D01*
X97428000Y-110057531D01*
X97428000Y-111606956D01*
X97407998Y-111675077D01*
X97384829Y-111701905D01*
X97330231Y-111749534D01*
X97330227Y-111749538D01*
X97324505Y-111754530D01*
X97225900Y-111894830D01*
X97223140Y-111901910D01*
X97168821Y-112041230D01*
X97163608Y-112054600D01*
X97162616Y-112062133D01*
X97162616Y-112062134D01*
X97143768Y-112205303D01*
X97141225Y-112224617D01*
X65508000Y-112224617D01*
X65508000Y-110092526D01*
X66786335Y-110092526D01*
X66805153Y-110262975D01*
X66807762Y-110270106D01*
X66807763Y-110270108D01*
X66815688Y-110291764D01*
X66864085Y-110424015D01*
X66868321Y-110430319D01*
X66868324Y-110430324D01*
X66902248Y-110480807D01*
X66959730Y-110566349D01*
X66994372Y-110597871D01*
X67074959Y-110671199D01*
X67086565Y-110681760D01*
X67237268Y-110763585D01*
X67403139Y-110807101D01*
X67490586Y-110808474D01*
X67567003Y-110809675D01*
X67567006Y-110809675D01*
X67574602Y-110809794D01*
X67582006Y-110808098D01*
X67582008Y-110808098D01*
X67644846Y-110793706D01*
X67741759Y-110771510D01*
X67894958Y-110694459D01*
X67900729Y-110689530D01*
X67900732Y-110689528D01*
X68019578Y-110588023D01*
X68025355Y-110583089D01*
X68125424Y-110443830D01*
X68189385Y-110284720D01*
X68194473Y-110248972D01*
X68212966Y-110119031D01*
X68212966Y-110119027D01*
X68213547Y-110114947D01*
X68213704Y-110100000D01*
X68208565Y-110057531D01*
X68200698Y-109992526D01*
X71886335Y-109992526D01*
X71889272Y-110019130D01*
X71899851Y-110114947D01*
X71905153Y-110162975D01*
X71907762Y-110170106D01*
X71907763Y-110170108D01*
X71915688Y-110191764D01*
X71964085Y-110324015D01*
X71968322Y-110330321D01*
X71968324Y-110330324D01*
X71997465Y-110373690D01*
X72059730Y-110466349D01*
X72123147Y-110524054D01*
X72169629Y-110566349D01*
X72186565Y-110581760D01*
X72337268Y-110663585D01*
X72503139Y-110707101D01*
X72590586Y-110708474D01*
X72667003Y-110709675D01*
X72667006Y-110709675D01*
X72674602Y-110709794D01*
X72682006Y-110708098D01*
X72682008Y-110708098D01*
X72771864Y-110687518D01*
X72841759Y-110671510D01*
X72994958Y-110594459D01*
X73000729Y-110589530D01*
X73000732Y-110589528D01*
X73119578Y-110488023D01*
X73125355Y-110483089D01*
X73225424Y-110343830D01*
X73289385Y-110184720D01*
X73300854Y-110104133D01*
X73312966Y-110019031D01*
X73312966Y-110019027D01*
X73313547Y-110014947D01*
X73313704Y-110000000D01*
X73312800Y-109992526D01*
X77386335Y-109992526D01*
X77389272Y-110019130D01*
X77399851Y-110114947D01*
X77405153Y-110162975D01*
X77407762Y-110170106D01*
X77407763Y-110170108D01*
X77415688Y-110191764D01*
X77464085Y-110324015D01*
X77468322Y-110330321D01*
X77468324Y-110330324D01*
X77497465Y-110373690D01*
X77559730Y-110466349D01*
X77623147Y-110524054D01*
X77669629Y-110566349D01*
X77686565Y-110581760D01*
X77837268Y-110663585D01*
X78003139Y-110707101D01*
X78090586Y-110708474D01*
X78167003Y-110709675D01*
X78167006Y-110709675D01*
X78174602Y-110709794D01*
X78182006Y-110708098D01*
X78182008Y-110708098D01*
X78271864Y-110687518D01*
X78341759Y-110671510D01*
X78494958Y-110594459D01*
X78500729Y-110589530D01*
X78500732Y-110589528D01*
X78619578Y-110488023D01*
X78625355Y-110483089D01*
X78725424Y-110343830D01*
X78789385Y-110184720D01*
X78800854Y-110104133D01*
X78812966Y-110019031D01*
X78812966Y-110019027D01*
X78813547Y-110014947D01*
X78813704Y-110000000D01*
X78812800Y-109992526D01*
X82686335Y-109992526D01*
X82689272Y-110019130D01*
X82699851Y-110114947D01*
X82705153Y-110162975D01*
X82707762Y-110170106D01*
X82707763Y-110170108D01*
X82715688Y-110191764D01*
X82764085Y-110324015D01*
X82768322Y-110330321D01*
X82768324Y-110330324D01*
X82797465Y-110373690D01*
X82859730Y-110466349D01*
X82923147Y-110524054D01*
X82969629Y-110566349D01*
X82986565Y-110581760D01*
X83137268Y-110663585D01*
X83303139Y-110707101D01*
X83390586Y-110708474D01*
X83467003Y-110709675D01*
X83467006Y-110709675D01*
X83474602Y-110709794D01*
X83482006Y-110708098D01*
X83482008Y-110708098D01*
X83571864Y-110687518D01*
X83641759Y-110671510D01*
X83794958Y-110594459D01*
X83800729Y-110589530D01*
X83800732Y-110589528D01*
X83919578Y-110488023D01*
X83925355Y-110483089D01*
X84025424Y-110343830D01*
X84089385Y-110184720D01*
X84100854Y-110104133D01*
X84112966Y-110019031D01*
X84112966Y-110019027D01*
X84113547Y-110014947D01*
X84113704Y-110000000D01*
X84112800Y-109992526D01*
X87986335Y-109992526D01*
X87989272Y-110019130D01*
X87999851Y-110114947D01*
X88005153Y-110162975D01*
X88007762Y-110170106D01*
X88007763Y-110170108D01*
X88015688Y-110191764D01*
X88064085Y-110324015D01*
X88068322Y-110330321D01*
X88068324Y-110330324D01*
X88097465Y-110373690D01*
X88159730Y-110466349D01*
X88223147Y-110524054D01*
X88269629Y-110566349D01*
X88286565Y-110581760D01*
X88437268Y-110663585D01*
X88603139Y-110707101D01*
X88690586Y-110708474D01*
X88767003Y-110709675D01*
X88767006Y-110709675D01*
X88774602Y-110709794D01*
X88782006Y-110708098D01*
X88782008Y-110708098D01*
X88871864Y-110687518D01*
X88941759Y-110671510D01*
X89094958Y-110594459D01*
X89100729Y-110589530D01*
X89100732Y-110589528D01*
X89219578Y-110488023D01*
X89225355Y-110483089D01*
X89325424Y-110343830D01*
X89389385Y-110184720D01*
X89400854Y-110104133D01*
X89412966Y-110019031D01*
X89412966Y-110019027D01*
X89413547Y-110014947D01*
X89413704Y-110000000D01*
X89412800Y-109992526D01*
X93286335Y-109992526D01*
X93289272Y-110019130D01*
X93299851Y-110114947D01*
X93305153Y-110162975D01*
X93307762Y-110170106D01*
X93307763Y-110170108D01*
X93315688Y-110191764D01*
X93364085Y-110324015D01*
X93368322Y-110330321D01*
X93368324Y-110330324D01*
X93397465Y-110373690D01*
X93459730Y-110466349D01*
X93523147Y-110524054D01*
X93569629Y-110566349D01*
X93586565Y-110581760D01*
X93737268Y-110663585D01*
X93903139Y-110707101D01*
X93990586Y-110708474D01*
X94067003Y-110709675D01*
X94067006Y-110709675D01*
X94074602Y-110709794D01*
X94082006Y-110708098D01*
X94082008Y-110708098D01*
X94171864Y-110687518D01*
X94241759Y-110671510D01*
X94394958Y-110594459D01*
X94400729Y-110589530D01*
X94400732Y-110589528D01*
X94519578Y-110488023D01*
X94525355Y-110483089D01*
X94625424Y-110343830D01*
X94689385Y-110184720D01*
X94700854Y-110104133D01*
X94712966Y-110019031D01*
X94712966Y-110019027D01*
X94713547Y-110014947D01*
X94713704Y-110000000D01*
X94693102Y-109829758D01*
X94687291Y-109814378D01*
X94635171Y-109676447D01*
X94632487Y-109669344D01*
X94595101Y-109614947D01*
X94539659Y-109534278D01*
X94539658Y-109534276D01*
X94535357Y-109528019D01*
X94529686Y-109522966D01*
X94412993Y-109418996D01*
X94412990Y-109418994D01*
X94407321Y-109413943D01*
X94399325Y-109409709D01*
X94262481Y-109337254D01*
X94262482Y-109337254D01*
X94255769Y-109333700D01*
X94222821Y-109325424D01*
X94096822Y-109293775D01*
X94096818Y-109293775D01*
X94089451Y-109291924D01*
X94081852Y-109291884D01*
X94081850Y-109291884D01*
X94010394Y-109291510D01*
X93917969Y-109291026D01*
X93910589Y-109292798D01*
X93910587Y-109292798D01*
X93758602Y-109329286D01*
X93758598Y-109329287D01*
X93751223Y-109331058D01*
X93598839Y-109409709D01*
X93469615Y-109522439D01*
X93371010Y-109662739D01*
X93352664Y-109709794D01*
X93311945Y-109814233D01*
X93308718Y-109822509D01*
X93307726Y-109830042D01*
X93307726Y-109830043D01*
X93287425Y-109984250D01*
X93286335Y-109992526D01*
X89412800Y-109992526D01*
X89393102Y-109829758D01*
X89387291Y-109814378D01*
X89335171Y-109676447D01*
X89332487Y-109669344D01*
X89295101Y-109614947D01*
X89239659Y-109534278D01*
X89239658Y-109534276D01*
X89235357Y-109528019D01*
X89229686Y-109522966D01*
X89112993Y-109418996D01*
X89112990Y-109418994D01*
X89107321Y-109413943D01*
X89099325Y-109409709D01*
X88962481Y-109337254D01*
X88962482Y-109337254D01*
X88955769Y-109333700D01*
X88922821Y-109325424D01*
X88796822Y-109293775D01*
X88796818Y-109293775D01*
X88789451Y-109291924D01*
X88781852Y-109291884D01*
X88781850Y-109291884D01*
X88710394Y-109291510D01*
X88617969Y-109291026D01*
X88610589Y-109292798D01*
X88610587Y-109292798D01*
X88458602Y-109329286D01*
X88458598Y-109329287D01*
X88451223Y-109331058D01*
X88298839Y-109409709D01*
X88169615Y-109522439D01*
X88071010Y-109662739D01*
X88052664Y-109709794D01*
X88011945Y-109814233D01*
X88008718Y-109822509D01*
X88007726Y-109830042D01*
X88007726Y-109830043D01*
X87987425Y-109984250D01*
X87986335Y-109992526D01*
X84112800Y-109992526D01*
X84093102Y-109829758D01*
X84087291Y-109814378D01*
X84035171Y-109676447D01*
X84032487Y-109669344D01*
X83995101Y-109614947D01*
X83939659Y-109534278D01*
X83939658Y-109534276D01*
X83935357Y-109528019D01*
X83929686Y-109522966D01*
X83812993Y-109418996D01*
X83812990Y-109418994D01*
X83807321Y-109413943D01*
X83799325Y-109409709D01*
X83662481Y-109337254D01*
X83662482Y-109337254D01*
X83655769Y-109333700D01*
X83622821Y-109325424D01*
X83496822Y-109293775D01*
X83496818Y-109293775D01*
X83489451Y-109291924D01*
X83481852Y-109291884D01*
X83481850Y-109291884D01*
X83410394Y-109291510D01*
X83317969Y-109291026D01*
X83310589Y-109292798D01*
X83310587Y-109292798D01*
X83158602Y-109329286D01*
X83158598Y-109329287D01*
X83151223Y-109331058D01*
X82998839Y-109409709D01*
X82869615Y-109522439D01*
X82771010Y-109662739D01*
X82752664Y-109709794D01*
X82711945Y-109814233D01*
X82708718Y-109822509D01*
X82707726Y-109830042D01*
X82707726Y-109830043D01*
X82687425Y-109984250D01*
X82686335Y-109992526D01*
X78812800Y-109992526D01*
X78793102Y-109829758D01*
X78787291Y-109814378D01*
X78735171Y-109676447D01*
X78732487Y-109669344D01*
X78695101Y-109614947D01*
X78639659Y-109534278D01*
X78639658Y-109534276D01*
X78635357Y-109528019D01*
X78629686Y-109522966D01*
X78512993Y-109418996D01*
X78512990Y-109418994D01*
X78507321Y-109413943D01*
X78499325Y-109409709D01*
X78362481Y-109337254D01*
X78362482Y-109337254D01*
X78355769Y-109333700D01*
X78322821Y-109325424D01*
X78196822Y-109293775D01*
X78196818Y-109293775D01*
X78189451Y-109291924D01*
X78181852Y-109291884D01*
X78181850Y-109291884D01*
X78110394Y-109291510D01*
X78017969Y-109291026D01*
X78010589Y-109292798D01*
X78010587Y-109292798D01*
X77858602Y-109329286D01*
X77858598Y-109329287D01*
X77851223Y-109331058D01*
X77698839Y-109409709D01*
X77569615Y-109522439D01*
X77471010Y-109662739D01*
X77452664Y-109709794D01*
X77411945Y-109814233D01*
X77408718Y-109822509D01*
X77407726Y-109830042D01*
X77407726Y-109830043D01*
X77387425Y-109984250D01*
X77386335Y-109992526D01*
X73312800Y-109992526D01*
X73293102Y-109829758D01*
X73287291Y-109814378D01*
X73235171Y-109676447D01*
X73232487Y-109669344D01*
X73195101Y-109614947D01*
X73139659Y-109534278D01*
X73139658Y-109534276D01*
X73135357Y-109528019D01*
X73129686Y-109522966D01*
X73012993Y-109418996D01*
X73012990Y-109418994D01*
X73007321Y-109413943D01*
X72999325Y-109409709D01*
X72862481Y-109337254D01*
X72862482Y-109337254D01*
X72855769Y-109333700D01*
X72822821Y-109325424D01*
X72696822Y-109293775D01*
X72696818Y-109293775D01*
X72689451Y-109291924D01*
X72681852Y-109291884D01*
X72681850Y-109291884D01*
X72610394Y-109291510D01*
X72517969Y-109291026D01*
X72510589Y-109292798D01*
X72510587Y-109292798D01*
X72358602Y-109329286D01*
X72358598Y-109329287D01*
X72351223Y-109331058D01*
X72198839Y-109409709D01*
X72069615Y-109522439D01*
X71971010Y-109662739D01*
X71952664Y-109709794D01*
X71911945Y-109814233D01*
X71908718Y-109822509D01*
X71907726Y-109830042D01*
X71907726Y-109830043D01*
X71887425Y-109984250D01*
X71886335Y-109992526D01*
X68200698Y-109992526D01*
X68194015Y-109937299D01*
X68194014Y-109937296D01*
X68193102Y-109929758D01*
X68188236Y-109916879D01*
X68135171Y-109776447D01*
X68132487Y-109769344D01*
X68092850Y-109711672D01*
X68039659Y-109634278D01*
X68039658Y-109634276D01*
X68035357Y-109628019D01*
X68029686Y-109622966D01*
X67912993Y-109518996D01*
X67912990Y-109518994D01*
X67907321Y-109513943D01*
X67899325Y-109509709D01*
X67827083Y-109471459D01*
X67755769Y-109433700D01*
X67697230Y-109418996D01*
X67596822Y-109393775D01*
X67596818Y-109393775D01*
X67589451Y-109391924D01*
X67581852Y-109391884D01*
X67581850Y-109391884D01*
X67510394Y-109391510D01*
X67417969Y-109391026D01*
X67410589Y-109392798D01*
X67410587Y-109392798D01*
X67258602Y-109429286D01*
X67258598Y-109429287D01*
X67251223Y-109431058D01*
X67098839Y-109509709D01*
X66969615Y-109622439D01*
X66871010Y-109762739D01*
X66808718Y-109922509D01*
X66807726Y-109930042D01*
X66807726Y-109930043D01*
X66795998Y-110019130D01*
X66786335Y-110092526D01*
X65508000Y-110092526D01*
X65508000Y-108992526D01*
X68386335Y-108992526D01*
X68392522Y-109048562D01*
X68401985Y-109134278D01*
X68405153Y-109162975D01*
X68407762Y-109170106D01*
X68407763Y-109170108D01*
X68415688Y-109191764D01*
X68464085Y-109324015D01*
X68468322Y-109330321D01*
X68468324Y-109330324D01*
X68510962Y-109393775D01*
X68559730Y-109466349D01*
X68686565Y-109581760D01*
X68837268Y-109663585D01*
X69003139Y-109707101D01*
X69090586Y-109708474D01*
X69167003Y-109709675D01*
X69167006Y-109709675D01*
X69174602Y-109709794D01*
X69182006Y-109708098D01*
X69182008Y-109708098D01*
X69244846Y-109693706D01*
X69341759Y-109671510D01*
X69494958Y-109594459D01*
X69500729Y-109589530D01*
X69500732Y-109589528D01*
X69619578Y-109488023D01*
X69625355Y-109483089D01*
X69725424Y-109343830D01*
X69789385Y-109184720D01*
X69796564Y-109134278D01*
X69812966Y-109019031D01*
X69812966Y-109019027D01*
X69813547Y-109014947D01*
X69813704Y-109000000D01*
X69812800Y-108992526D01*
X73786335Y-108992526D01*
X73792522Y-109048562D01*
X73801985Y-109134278D01*
X73805153Y-109162975D01*
X73807762Y-109170106D01*
X73807763Y-109170108D01*
X73815688Y-109191764D01*
X73864085Y-109324015D01*
X73868322Y-109330321D01*
X73868324Y-109330324D01*
X73910962Y-109393775D01*
X73959730Y-109466349D01*
X74086565Y-109581760D01*
X74237268Y-109663585D01*
X74403139Y-109707101D01*
X74490586Y-109708474D01*
X74567003Y-109709675D01*
X74567006Y-109709675D01*
X74574602Y-109709794D01*
X74582006Y-109708098D01*
X74582008Y-109708098D01*
X74644846Y-109693706D01*
X74741759Y-109671510D01*
X74894958Y-109594459D01*
X74900729Y-109589530D01*
X74900732Y-109589528D01*
X75019578Y-109488023D01*
X75025355Y-109483089D01*
X75125424Y-109343830D01*
X75189385Y-109184720D01*
X75196564Y-109134278D01*
X75212966Y-109019031D01*
X75212966Y-109019027D01*
X75213547Y-109014947D01*
X75213704Y-109000000D01*
X75212800Y-108992526D01*
X79286335Y-108992526D01*
X79292522Y-109048562D01*
X79301985Y-109134278D01*
X79305153Y-109162975D01*
X79307762Y-109170106D01*
X79307763Y-109170108D01*
X79315688Y-109191764D01*
X79364085Y-109324015D01*
X79368322Y-109330321D01*
X79368324Y-109330324D01*
X79410962Y-109393775D01*
X79459730Y-109466349D01*
X79586565Y-109581760D01*
X79737268Y-109663585D01*
X79903139Y-109707101D01*
X79990586Y-109708474D01*
X80067003Y-109709675D01*
X80067006Y-109709675D01*
X80074602Y-109709794D01*
X80082006Y-109708098D01*
X80082008Y-109708098D01*
X80144846Y-109693706D01*
X80241759Y-109671510D01*
X80394958Y-109594459D01*
X80400729Y-109589530D01*
X80400732Y-109589528D01*
X80519578Y-109488023D01*
X80525355Y-109483089D01*
X80625424Y-109343830D01*
X80689385Y-109184720D01*
X80696564Y-109134278D01*
X80712966Y-109019031D01*
X80712966Y-109019027D01*
X80713547Y-109014947D01*
X80713704Y-109000000D01*
X80712800Y-108992526D01*
X84686335Y-108992526D01*
X84692522Y-109048562D01*
X84701985Y-109134278D01*
X84705153Y-109162975D01*
X84707762Y-109170106D01*
X84707763Y-109170108D01*
X84715688Y-109191764D01*
X84764085Y-109324015D01*
X84768322Y-109330321D01*
X84768324Y-109330324D01*
X84810962Y-109393775D01*
X84859730Y-109466349D01*
X84986565Y-109581760D01*
X85137268Y-109663585D01*
X85303139Y-109707101D01*
X85390586Y-109708474D01*
X85467003Y-109709675D01*
X85467006Y-109709675D01*
X85474602Y-109709794D01*
X85482006Y-109708098D01*
X85482008Y-109708098D01*
X85544846Y-109693706D01*
X85641759Y-109671510D01*
X85794958Y-109594459D01*
X85800729Y-109589530D01*
X85800732Y-109589528D01*
X85919578Y-109488023D01*
X85925355Y-109483089D01*
X86025424Y-109343830D01*
X86089385Y-109184720D01*
X86096564Y-109134278D01*
X86112966Y-109019031D01*
X86112966Y-109019027D01*
X86113547Y-109014947D01*
X86113704Y-109000000D01*
X86112800Y-108992526D01*
X90086335Y-108992526D01*
X90092522Y-109048562D01*
X90101985Y-109134278D01*
X90105153Y-109162975D01*
X90107762Y-109170106D01*
X90107763Y-109170108D01*
X90115688Y-109191764D01*
X90164085Y-109324015D01*
X90168322Y-109330321D01*
X90168324Y-109330324D01*
X90210962Y-109393775D01*
X90259730Y-109466349D01*
X90386565Y-109581760D01*
X90537268Y-109663585D01*
X90703139Y-109707101D01*
X90790586Y-109708474D01*
X90867003Y-109709675D01*
X90867006Y-109709675D01*
X90874602Y-109709794D01*
X90882006Y-109708098D01*
X90882008Y-109708098D01*
X90944846Y-109693706D01*
X91041759Y-109671510D01*
X91194958Y-109594459D01*
X91200729Y-109589530D01*
X91200732Y-109589528D01*
X91319578Y-109488023D01*
X91325355Y-109483089D01*
X91425424Y-109343830D01*
X91489385Y-109184720D01*
X91496564Y-109134278D01*
X91512966Y-109019031D01*
X91512966Y-109019027D01*
X91513547Y-109014947D01*
X91513704Y-109000000D01*
X91512800Y-108992526D01*
X95486335Y-108992526D01*
X95492522Y-109048562D01*
X95501985Y-109134278D01*
X95505153Y-109162975D01*
X95507762Y-109170106D01*
X95507763Y-109170108D01*
X95515688Y-109191764D01*
X95564085Y-109324015D01*
X95568322Y-109330321D01*
X95568324Y-109330324D01*
X95610962Y-109393775D01*
X95659730Y-109466349D01*
X95786565Y-109581760D01*
X95937268Y-109663585D01*
X96103139Y-109707101D01*
X96190586Y-109708474D01*
X96267003Y-109709675D01*
X96267006Y-109709675D01*
X96274602Y-109709794D01*
X96282006Y-109708098D01*
X96282008Y-109708098D01*
X96344846Y-109693706D01*
X96441759Y-109671510D01*
X96594958Y-109594459D01*
X96600729Y-109589530D01*
X96600732Y-109589528D01*
X96719578Y-109488023D01*
X96725355Y-109483089D01*
X96825424Y-109343830D01*
X96889385Y-109184720D01*
X96896564Y-109134278D01*
X96912966Y-109019031D01*
X96912966Y-109019027D01*
X96913547Y-109014947D01*
X96913704Y-109000000D01*
X96905361Y-108931058D01*
X96894015Y-108837299D01*
X96894014Y-108837296D01*
X96893102Y-108829758D01*
X96832487Y-108669344D01*
X96823675Y-108656523D01*
X96739659Y-108534278D01*
X96739658Y-108534276D01*
X96735357Y-108528019D01*
X96729686Y-108522966D01*
X96612993Y-108418996D01*
X96612990Y-108418994D01*
X96607321Y-108413943D01*
X96599325Y-108409709D01*
X96523986Y-108369819D01*
X96455769Y-108333700D01*
X96438196Y-108329286D01*
X96296822Y-108293775D01*
X96296818Y-108293775D01*
X96289451Y-108291924D01*
X96281852Y-108291884D01*
X96281850Y-108291884D01*
X96210394Y-108291510D01*
X96117969Y-108291026D01*
X96110589Y-108292798D01*
X96110587Y-108292798D01*
X95958602Y-108329286D01*
X95958598Y-108329287D01*
X95951223Y-108331058D01*
X95798839Y-108409709D01*
X95669615Y-108522439D01*
X95571010Y-108662739D01*
X95508718Y-108822509D01*
X95507726Y-108830042D01*
X95507726Y-108830043D01*
X95491953Y-108949855D01*
X95486335Y-108992526D01*
X91512800Y-108992526D01*
X91505361Y-108931058D01*
X91494015Y-108837299D01*
X91494014Y-108837296D01*
X91493102Y-108829758D01*
X91432487Y-108669344D01*
X91423675Y-108656523D01*
X91339659Y-108534278D01*
X91339658Y-108534276D01*
X91335357Y-108528019D01*
X91329686Y-108522966D01*
X91212993Y-108418996D01*
X91212990Y-108418994D01*
X91207321Y-108413943D01*
X91199325Y-108409709D01*
X91123986Y-108369819D01*
X91055769Y-108333700D01*
X91038196Y-108329286D01*
X90896822Y-108293775D01*
X90896818Y-108293775D01*
X90889451Y-108291924D01*
X90881852Y-108291884D01*
X90881850Y-108291884D01*
X90810394Y-108291510D01*
X90717969Y-108291026D01*
X90710589Y-108292798D01*
X90710587Y-108292798D01*
X90558602Y-108329286D01*
X90558598Y-108329287D01*
X90551223Y-108331058D01*
X90398839Y-108409709D01*
X90269615Y-108522439D01*
X90171010Y-108662739D01*
X90108718Y-108822509D01*
X90107726Y-108830042D01*
X90107726Y-108830043D01*
X90091953Y-108949855D01*
X90086335Y-108992526D01*
X86112800Y-108992526D01*
X86105361Y-108931058D01*
X86094015Y-108837299D01*
X86094014Y-108837296D01*
X86093102Y-108829758D01*
X86032487Y-108669344D01*
X86023675Y-108656523D01*
X85939659Y-108534278D01*
X85939658Y-108534276D01*
X85935357Y-108528019D01*
X85929686Y-108522966D01*
X85812993Y-108418996D01*
X85812990Y-108418994D01*
X85807321Y-108413943D01*
X85799325Y-108409709D01*
X85723986Y-108369819D01*
X85655769Y-108333700D01*
X85638196Y-108329286D01*
X85496822Y-108293775D01*
X85496818Y-108293775D01*
X85489451Y-108291924D01*
X85481852Y-108291884D01*
X85481850Y-108291884D01*
X85410394Y-108291510D01*
X85317969Y-108291026D01*
X85310589Y-108292798D01*
X85310587Y-108292798D01*
X85158602Y-108329286D01*
X85158598Y-108329287D01*
X85151223Y-108331058D01*
X84998839Y-108409709D01*
X84869615Y-108522439D01*
X84771010Y-108662739D01*
X84708718Y-108822509D01*
X84707726Y-108830042D01*
X84707726Y-108830043D01*
X84691953Y-108949855D01*
X84686335Y-108992526D01*
X80712800Y-108992526D01*
X80705361Y-108931058D01*
X80694015Y-108837299D01*
X80694014Y-108837296D01*
X80693102Y-108829758D01*
X80632487Y-108669344D01*
X80623675Y-108656523D01*
X80539659Y-108534278D01*
X80539658Y-108534276D01*
X80535357Y-108528019D01*
X80529686Y-108522966D01*
X80412993Y-108418996D01*
X80412990Y-108418994D01*
X80407321Y-108413943D01*
X80399325Y-108409709D01*
X80323986Y-108369819D01*
X80255769Y-108333700D01*
X80238196Y-108329286D01*
X80096822Y-108293775D01*
X80096818Y-108293775D01*
X80089451Y-108291924D01*
X80081852Y-108291884D01*
X80081850Y-108291884D01*
X80010394Y-108291510D01*
X79917969Y-108291026D01*
X79910589Y-108292798D01*
X79910587Y-108292798D01*
X79758602Y-108329286D01*
X79758598Y-108329287D01*
X79751223Y-108331058D01*
X79598839Y-108409709D01*
X79469615Y-108522439D01*
X79371010Y-108662739D01*
X79308718Y-108822509D01*
X79307726Y-108830042D01*
X79307726Y-108830043D01*
X79291953Y-108949855D01*
X79286335Y-108992526D01*
X75212800Y-108992526D01*
X75205361Y-108931058D01*
X75194015Y-108837299D01*
X75194014Y-108837296D01*
X75193102Y-108829758D01*
X75132487Y-108669344D01*
X75123675Y-108656523D01*
X75039659Y-108534278D01*
X75039658Y-108534276D01*
X75035357Y-108528019D01*
X75029686Y-108522966D01*
X74912993Y-108418996D01*
X74912990Y-108418994D01*
X74907321Y-108413943D01*
X74899325Y-108409709D01*
X74823986Y-108369819D01*
X74755769Y-108333700D01*
X74738196Y-108329286D01*
X74596822Y-108293775D01*
X74596818Y-108293775D01*
X74589451Y-108291924D01*
X74581852Y-108291884D01*
X74581850Y-108291884D01*
X74510394Y-108291510D01*
X74417969Y-108291026D01*
X74410589Y-108292798D01*
X74410587Y-108292798D01*
X74258602Y-108329286D01*
X74258598Y-108329287D01*
X74251223Y-108331058D01*
X74098839Y-108409709D01*
X73969615Y-108522439D01*
X73871010Y-108662739D01*
X73808718Y-108822509D01*
X73807726Y-108830042D01*
X73807726Y-108830043D01*
X73791953Y-108949855D01*
X73786335Y-108992526D01*
X69812800Y-108992526D01*
X69805361Y-108931058D01*
X69794015Y-108837299D01*
X69794014Y-108837296D01*
X69793102Y-108829758D01*
X69732487Y-108669344D01*
X69723675Y-108656523D01*
X69639659Y-108534278D01*
X69639658Y-108534276D01*
X69635357Y-108528019D01*
X69629686Y-108522966D01*
X69512993Y-108418996D01*
X69512990Y-108418994D01*
X69507321Y-108413943D01*
X69499325Y-108409709D01*
X69423986Y-108369819D01*
X69355769Y-108333700D01*
X69338196Y-108329286D01*
X69196822Y-108293775D01*
X69196818Y-108293775D01*
X69189451Y-108291924D01*
X69181852Y-108291884D01*
X69181850Y-108291884D01*
X69110394Y-108291510D01*
X69017969Y-108291026D01*
X69010589Y-108292798D01*
X69010587Y-108292798D01*
X68858602Y-108329286D01*
X68858598Y-108329287D01*
X68851223Y-108331058D01*
X68698839Y-108409709D01*
X68569615Y-108522439D01*
X68471010Y-108662739D01*
X68408718Y-108822509D01*
X68407726Y-108830042D01*
X68407726Y-108830043D01*
X68391953Y-108949855D01*
X68386335Y-108992526D01*
X65508000Y-108992526D01*
X65508000Y-106791035D01*
X68386335Y-106791035D01*
X68405153Y-106961484D01*
X68407762Y-106968615D01*
X68407763Y-106968617D01*
X68420687Y-107003934D01*
X68464085Y-107122524D01*
X68468322Y-107128830D01*
X68468324Y-107128833D01*
X68497684Y-107172524D01*
X68559730Y-107264858D01*
X68686565Y-107380269D01*
X68837268Y-107462094D01*
X69003139Y-107505610D01*
X69090586Y-107506983D01*
X69167003Y-107508184D01*
X69167006Y-107508184D01*
X69174602Y-107508303D01*
X69182006Y-107506607D01*
X69182008Y-107506607D01*
X69256578Y-107489528D01*
X69341759Y-107470019D01*
X69494958Y-107392968D01*
X69500729Y-107388039D01*
X69500732Y-107388037D01*
X69619578Y-107286532D01*
X69625355Y-107281598D01*
X69699200Y-107178833D01*
X69720992Y-107148507D01*
X69720993Y-107148506D01*
X69725424Y-107142339D01*
X69789385Y-106983229D01*
X69808069Y-106851947D01*
X69812966Y-106817540D01*
X69812966Y-106817536D01*
X69813547Y-106813456D01*
X69813704Y-106798509D01*
X69812800Y-106791035D01*
X73789116Y-106791035D01*
X73807934Y-106961484D01*
X73810543Y-106968615D01*
X73810544Y-106968617D01*
X73823468Y-107003934D01*
X73866866Y-107122524D01*
X73871103Y-107128830D01*
X73871105Y-107128833D01*
X73900465Y-107172524D01*
X73962511Y-107264858D01*
X74089346Y-107380269D01*
X74240049Y-107462094D01*
X74405920Y-107505610D01*
X74493367Y-107506983D01*
X74569784Y-107508184D01*
X74569787Y-107508184D01*
X74577383Y-107508303D01*
X74584787Y-107506607D01*
X74584789Y-107506607D01*
X74659359Y-107489528D01*
X74744540Y-107470019D01*
X74897739Y-107392968D01*
X74903510Y-107388039D01*
X74903513Y-107388037D01*
X75022359Y-107286532D01*
X75028136Y-107281598D01*
X75101981Y-107178833D01*
X75123773Y-107148507D01*
X75123774Y-107148506D01*
X75128205Y-107142339D01*
X75192166Y-106983229D01*
X75210850Y-106851947D01*
X75212403Y-106841035D01*
X79286335Y-106841035D01*
X79292020Y-106892526D01*
X79303049Y-106992425D01*
X79305153Y-107011484D01*
X79307762Y-107018615D01*
X79307763Y-107018617D01*
X79315688Y-107040273D01*
X79364085Y-107172524D01*
X79459730Y-107314858D01*
X79509388Y-107360043D01*
X79577900Y-107422384D01*
X79586565Y-107430269D01*
X79737268Y-107512094D01*
X79903139Y-107555610D01*
X79990586Y-107556983D01*
X80067003Y-107558184D01*
X80067006Y-107558184D01*
X80074602Y-107558303D01*
X80082006Y-107556607D01*
X80082008Y-107556607D01*
X80145029Y-107542173D01*
X80241759Y-107520019D01*
X80394958Y-107442968D01*
X80400729Y-107438039D01*
X80400732Y-107438037D01*
X80519578Y-107336532D01*
X80525355Y-107331598D01*
X80625424Y-107192339D01*
X80689385Y-107033229D01*
X80695192Y-106992425D01*
X80712966Y-106867540D01*
X80712966Y-106867536D01*
X80713547Y-106863456D01*
X80713704Y-106848509D01*
X80712800Y-106841035D01*
X84694128Y-106841035D01*
X84699813Y-106892526D01*
X84710842Y-106992425D01*
X84712946Y-107011484D01*
X84715555Y-107018615D01*
X84715556Y-107018617D01*
X84723481Y-107040273D01*
X84771878Y-107172524D01*
X84867523Y-107314858D01*
X84917181Y-107360043D01*
X84985693Y-107422384D01*
X84994358Y-107430269D01*
X85145061Y-107512094D01*
X85310932Y-107555610D01*
X85398379Y-107556983D01*
X85474796Y-107558184D01*
X85474799Y-107558184D01*
X85482395Y-107558303D01*
X85489799Y-107556607D01*
X85489801Y-107556607D01*
X85552822Y-107542173D01*
X85649552Y-107520019D01*
X85802751Y-107442968D01*
X85808522Y-107438039D01*
X85808525Y-107438037D01*
X85927371Y-107336532D01*
X85933148Y-107331598D01*
X86033217Y-107192339D01*
X86097178Y-107033229D01*
X86102985Y-106992425D01*
X86120759Y-106867540D01*
X86120759Y-106867536D01*
X86121340Y-106863456D01*
X86121497Y-106848509D01*
X86120593Y-106841035D01*
X90086335Y-106841035D01*
X90092020Y-106892526D01*
X90103049Y-106992425D01*
X90105153Y-107011484D01*
X90107762Y-107018615D01*
X90107763Y-107018617D01*
X90115688Y-107040273D01*
X90164085Y-107172524D01*
X90259730Y-107314858D01*
X90309388Y-107360043D01*
X90377900Y-107422384D01*
X90386565Y-107430269D01*
X90537268Y-107512094D01*
X90703139Y-107555610D01*
X90790586Y-107556983D01*
X90867003Y-107558184D01*
X90867006Y-107558184D01*
X90874602Y-107558303D01*
X90882006Y-107556607D01*
X90882008Y-107556607D01*
X90945029Y-107542173D01*
X91041759Y-107520019D01*
X91194958Y-107442968D01*
X91200729Y-107438039D01*
X91200732Y-107438037D01*
X91319578Y-107336532D01*
X91325355Y-107331598D01*
X91425424Y-107192339D01*
X91489385Y-107033229D01*
X91495192Y-106992425D01*
X91512966Y-106867540D01*
X91512966Y-106867536D01*
X91513547Y-106863456D01*
X91513704Y-106848509D01*
X91512800Y-106841035D01*
X95486335Y-106841035D01*
X95492020Y-106892526D01*
X95503049Y-106992425D01*
X95505153Y-107011484D01*
X95507762Y-107018615D01*
X95507763Y-107018617D01*
X95515688Y-107040273D01*
X95564085Y-107172524D01*
X95659730Y-107314858D01*
X95709388Y-107360043D01*
X95777900Y-107422384D01*
X95786565Y-107430269D01*
X95937268Y-107512094D01*
X96103139Y-107555610D01*
X96190586Y-107556983D01*
X96267003Y-107558184D01*
X96267006Y-107558184D01*
X96274602Y-107558303D01*
X96282006Y-107556607D01*
X96282008Y-107556607D01*
X96345029Y-107542173D01*
X96441759Y-107520019D01*
X96594958Y-107442968D01*
X96600729Y-107438039D01*
X96600732Y-107438037D01*
X96719578Y-107336532D01*
X96725355Y-107331598D01*
X96825424Y-107192339D01*
X96889385Y-107033229D01*
X96895192Y-106992425D01*
X96912966Y-106867540D01*
X96912966Y-106867536D01*
X96913547Y-106863456D01*
X96913704Y-106848509D01*
X96912800Y-106841035D01*
X100888797Y-106841035D01*
X100894482Y-106892526D01*
X100905511Y-106992425D01*
X100907615Y-107011484D01*
X100910224Y-107018615D01*
X100910225Y-107018617D01*
X100918150Y-107040273D01*
X100966547Y-107172524D01*
X101062192Y-107314858D01*
X101111850Y-107360043D01*
X101180362Y-107422384D01*
X101189027Y-107430269D01*
X101339730Y-107512094D01*
X101505601Y-107555610D01*
X101593048Y-107556983D01*
X101669465Y-107558184D01*
X101669468Y-107558184D01*
X101677064Y-107558303D01*
X101684468Y-107556607D01*
X101684470Y-107556607D01*
X101747491Y-107542173D01*
X101844221Y-107520019D01*
X101997420Y-107442968D01*
X102003191Y-107438039D01*
X102003194Y-107438037D01*
X102122040Y-107336532D01*
X102127817Y-107331598D01*
X102227886Y-107192339D01*
X102291847Y-107033229D01*
X102297654Y-106992425D01*
X102315428Y-106867540D01*
X102315428Y-106867536D01*
X102316009Y-106863456D01*
X102316166Y-106848509D01*
X102315262Y-106841035D01*
X106286652Y-106841035D01*
X106292337Y-106892526D01*
X106303366Y-106992425D01*
X106305470Y-107011484D01*
X106308079Y-107018615D01*
X106308080Y-107018617D01*
X106316005Y-107040273D01*
X106364402Y-107172524D01*
X106460047Y-107314858D01*
X106509705Y-107360043D01*
X106578217Y-107422384D01*
X106586882Y-107430269D01*
X106737585Y-107512094D01*
X106903456Y-107555610D01*
X106990903Y-107556983D01*
X107067320Y-107558184D01*
X107067323Y-107558184D01*
X107074919Y-107558303D01*
X107082323Y-107556607D01*
X107082325Y-107556607D01*
X107145346Y-107542173D01*
X107242076Y-107520019D01*
X107395275Y-107442968D01*
X107401046Y-107438039D01*
X107401049Y-107438037D01*
X107519895Y-107336532D01*
X107525672Y-107331598D01*
X107625741Y-107192339D01*
X107689702Y-107033229D01*
X107695509Y-106992425D01*
X107713283Y-106867540D01*
X107713283Y-106867536D01*
X107713864Y-106863456D01*
X107714021Y-106848509D01*
X107713117Y-106841035D01*
X111786335Y-106841035D01*
X111792020Y-106892526D01*
X111803049Y-106992425D01*
X111805153Y-107011484D01*
X111807762Y-107018615D01*
X111807763Y-107018617D01*
X111815688Y-107040273D01*
X111864085Y-107172524D01*
X111959730Y-107314858D01*
X112009388Y-107360043D01*
X112077900Y-107422384D01*
X112086565Y-107430269D01*
X112237268Y-107512094D01*
X112403139Y-107555610D01*
X112490586Y-107556983D01*
X112567003Y-107558184D01*
X112567006Y-107558184D01*
X112574602Y-107558303D01*
X112582006Y-107556607D01*
X112582008Y-107556607D01*
X112645029Y-107542173D01*
X112741759Y-107520019D01*
X112894958Y-107442968D01*
X112900729Y-107438039D01*
X112900732Y-107438037D01*
X113019578Y-107336532D01*
X113025355Y-107331598D01*
X113125424Y-107192339D01*
X113189385Y-107033229D01*
X113195192Y-106992425D01*
X113212966Y-106867540D01*
X113212966Y-106867536D01*
X113213547Y-106863456D01*
X113213704Y-106848509D01*
X113212800Y-106841035D01*
X117193806Y-106841035D01*
X117199491Y-106892526D01*
X117210520Y-106992425D01*
X117212624Y-107011484D01*
X117215233Y-107018615D01*
X117215234Y-107018617D01*
X117223159Y-107040273D01*
X117271556Y-107172524D01*
X117367201Y-107314858D01*
X117416859Y-107360043D01*
X117485371Y-107422384D01*
X117494036Y-107430269D01*
X117644739Y-107512094D01*
X117810610Y-107555610D01*
X117898057Y-107556983D01*
X117974474Y-107558184D01*
X117974477Y-107558184D01*
X117982073Y-107558303D01*
X117989477Y-107556607D01*
X117989479Y-107556607D01*
X118052500Y-107542173D01*
X118149230Y-107520019D01*
X118302429Y-107442968D01*
X118308200Y-107438039D01*
X118308203Y-107438037D01*
X118427049Y-107336532D01*
X118432826Y-107331598D01*
X118532895Y-107192339D01*
X118596856Y-107033229D01*
X118602663Y-106992425D01*
X118620437Y-106867540D01*
X118620437Y-106867536D01*
X118621018Y-106863456D01*
X118621175Y-106848509D01*
X118618878Y-106829526D01*
X122592259Y-106829526D01*
X122594811Y-106852642D01*
X122610006Y-106990273D01*
X122611077Y-106999975D01*
X122613686Y-107007106D01*
X122613687Y-107007108D01*
X122620495Y-107025711D01*
X122670009Y-107161015D01*
X122674246Y-107167321D01*
X122674248Y-107167324D01*
X122707548Y-107216879D01*
X122765654Y-107303349D01*
X122892489Y-107418760D01*
X123043192Y-107500585D01*
X123209063Y-107544101D01*
X123296510Y-107545474D01*
X123372927Y-107546675D01*
X123372930Y-107546675D01*
X123380526Y-107546794D01*
X123387930Y-107545098D01*
X123387932Y-107545098D01*
X123490031Y-107521714D01*
X123547683Y-107508510D01*
X123700882Y-107431459D01*
X123706653Y-107426530D01*
X123706656Y-107426528D01*
X123825502Y-107325023D01*
X123831279Y-107320089D01*
X123931348Y-107180830D01*
X123995309Y-107021720D01*
X124011613Y-106907160D01*
X124041014Y-106842537D01*
X124100685Y-106804068D01*
X124108226Y-106802093D01*
X124234359Y-106773205D01*
X124234360Y-106773205D01*
X124241759Y-106771510D01*
X124394958Y-106694459D01*
X124400729Y-106689530D01*
X124400732Y-106689528D01*
X124519578Y-106588023D01*
X124525355Y-106583089D01*
X124611094Y-106463772D01*
X124620992Y-106449998D01*
X124620993Y-106449997D01*
X124625424Y-106443830D01*
X124689385Y-106284720D01*
X124696646Y-106233700D01*
X124712966Y-106119031D01*
X124712966Y-106119027D01*
X124713547Y-106114947D01*
X124713704Y-106100000D01*
X124693102Y-105929758D01*
X124632487Y-105769344D01*
X124535357Y-105628019D01*
X124529686Y-105622966D01*
X124412993Y-105518996D01*
X124412990Y-105518994D01*
X124407321Y-105513943D01*
X124399325Y-105509709D01*
X124262481Y-105437254D01*
X124262482Y-105437254D01*
X124255769Y-105433700D01*
X124238196Y-105429286D01*
X124096822Y-105393775D01*
X124096818Y-105393775D01*
X124089451Y-105391924D01*
X124081852Y-105391884D01*
X124081850Y-105391884D01*
X124010394Y-105391510D01*
X123917969Y-105391026D01*
X123910589Y-105392798D01*
X123910587Y-105392798D01*
X123758602Y-105429286D01*
X123758598Y-105429287D01*
X123751223Y-105431058D01*
X123598839Y-105509709D01*
X123469615Y-105622439D01*
X123371010Y-105762739D01*
X123308718Y-105922509D01*
X123307726Y-105930042D01*
X123307726Y-105930043D01*
X123294850Y-106027847D01*
X123266128Y-106092774D01*
X123206862Y-106131866D01*
X123199342Y-106133920D01*
X123064526Y-106166286D01*
X123064522Y-106166287D01*
X123057147Y-106168058D01*
X122904763Y-106246709D01*
X122775539Y-106359439D01*
X122676934Y-106499739D01*
X122654795Y-106556523D01*
X122623883Y-106635808D01*
X122614642Y-106659509D01*
X122613650Y-106667042D01*
X122613650Y-106667043D01*
X122594375Y-106813456D01*
X122592259Y-106829526D01*
X118618878Y-106829526D01*
X118606839Y-106730043D01*
X118601486Y-106685808D01*
X118601485Y-106685805D01*
X118600573Y-106678267D01*
X118581788Y-106628552D01*
X118542642Y-106524956D01*
X118539958Y-106517853D01*
X118510476Y-106474956D01*
X118447130Y-106382787D01*
X118447129Y-106382785D01*
X118442828Y-106376528D01*
X118437157Y-106371475D01*
X118320464Y-106267505D01*
X118320461Y-106267503D01*
X118314792Y-106262452D01*
X118306796Y-106258218D01*
X118220359Y-106212452D01*
X118163240Y-106182209D01*
X118120761Y-106171539D01*
X118004293Y-106142284D01*
X118004289Y-106142284D01*
X117996922Y-106140433D01*
X117989323Y-106140393D01*
X117989321Y-106140393D01*
X117917865Y-106140019D01*
X117825440Y-106139535D01*
X117818060Y-106141307D01*
X117818058Y-106141307D01*
X117666073Y-106177795D01*
X117666069Y-106177796D01*
X117658694Y-106179567D01*
X117506310Y-106258218D01*
X117377086Y-106370948D01*
X117278481Y-106511248D01*
X117255830Y-106569344D01*
X117223437Y-106652429D01*
X117216189Y-106671018D01*
X117215197Y-106678551D01*
X117215197Y-106678552D01*
X117196313Y-106821995D01*
X117193806Y-106841035D01*
X113212800Y-106841035D01*
X113199368Y-106730043D01*
X113194015Y-106685808D01*
X113194014Y-106685805D01*
X113193102Y-106678267D01*
X113174317Y-106628552D01*
X113135171Y-106524956D01*
X113132487Y-106517853D01*
X113103005Y-106474956D01*
X113039659Y-106382787D01*
X113039658Y-106382785D01*
X113035357Y-106376528D01*
X113029686Y-106371475D01*
X112912993Y-106267505D01*
X112912990Y-106267503D01*
X112907321Y-106262452D01*
X112899325Y-106258218D01*
X112812888Y-106212452D01*
X112755769Y-106182209D01*
X112713290Y-106171539D01*
X112596822Y-106142284D01*
X112596818Y-106142284D01*
X112589451Y-106140433D01*
X112581852Y-106140393D01*
X112581850Y-106140393D01*
X112510394Y-106140019D01*
X112417969Y-106139535D01*
X112410589Y-106141307D01*
X112410587Y-106141307D01*
X112258602Y-106177795D01*
X112258598Y-106177796D01*
X112251223Y-106179567D01*
X112098839Y-106258218D01*
X111969615Y-106370948D01*
X111871010Y-106511248D01*
X111848359Y-106569344D01*
X111815966Y-106652429D01*
X111808718Y-106671018D01*
X111807726Y-106678551D01*
X111807726Y-106678552D01*
X111788842Y-106821995D01*
X111786335Y-106841035D01*
X107713117Y-106841035D01*
X107699685Y-106730043D01*
X107694332Y-106685808D01*
X107694331Y-106685805D01*
X107693419Y-106678267D01*
X107674634Y-106628552D01*
X107635488Y-106524956D01*
X107632804Y-106517853D01*
X107603322Y-106474956D01*
X107539976Y-106382787D01*
X107539975Y-106382785D01*
X107535674Y-106376528D01*
X107530003Y-106371475D01*
X107413310Y-106267505D01*
X107413307Y-106267503D01*
X107407638Y-106262452D01*
X107399642Y-106258218D01*
X107313205Y-106212452D01*
X107256086Y-106182209D01*
X107213607Y-106171539D01*
X107097139Y-106142284D01*
X107097135Y-106142284D01*
X107089768Y-106140433D01*
X107082169Y-106140393D01*
X107082167Y-106140393D01*
X107010711Y-106140019D01*
X106918286Y-106139535D01*
X106910906Y-106141307D01*
X106910904Y-106141307D01*
X106758919Y-106177795D01*
X106758915Y-106177796D01*
X106751540Y-106179567D01*
X106599156Y-106258218D01*
X106469932Y-106370948D01*
X106371327Y-106511248D01*
X106348676Y-106569344D01*
X106316283Y-106652429D01*
X106309035Y-106671018D01*
X106308043Y-106678551D01*
X106308043Y-106678552D01*
X106289159Y-106821995D01*
X106286652Y-106841035D01*
X102315262Y-106841035D01*
X102301830Y-106730043D01*
X102296477Y-106685808D01*
X102296476Y-106685805D01*
X102295564Y-106678267D01*
X102276779Y-106628552D01*
X102237633Y-106524956D01*
X102234949Y-106517853D01*
X102205467Y-106474956D01*
X102142121Y-106382787D01*
X102142120Y-106382785D01*
X102137819Y-106376528D01*
X102132148Y-106371475D01*
X102015455Y-106267505D01*
X102015452Y-106267503D01*
X102009783Y-106262452D01*
X102001787Y-106258218D01*
X101915350Y-106212452D01*
X101858231Y-106182209D01*
X101815752Y-106171539D01*
X101699284Y-106142284D01*
X101699280Y-106142284D01*
X101691913Y-106140433D01*
X101684314Y-106140393D01*
X101684312Y-106140393D01*
X101612856Y-106140019D01*
X101520431Y-106139535D01*
X101513051Y-106141307D01*
X101513049Y-106141307D01*
X101361064Y-106177795D01*
X101361060Y-106177796D01*
X101353685Y-106179567D01*
X101201301Y-106258218D01*
X101072077Y-106370948D01*
X100973472Y-106511248D01*
X100950821Y-106569344D01*
X100918428Y-106652429D01*
X100911180Y-106671018D01*
X100910188Y-106678551D01*
X100910188Y-106678552D01*
X100891304Y-106821995D01*
X100888797Y-106841035D01*
X96912800Y-106841035D01*
X96899368Y-106730043D01*
X96894015Y-106685808D01*
X96894014Y-106685805D01*
X96893102Y-106678267D01*
X96874317Y-106628552D01*
X96835171Y-106524956D01*
X96832487Y-106517853D01*
X96803005Y-106474956D01*
X96739659Y-106382787D01*
X96739658Y-106382785D01*
X96735357Y-106376528D01*
X96729686Y-106371475D01*
X96612993Y-106267505D01*
X96612990Y-106267503D01*
X96607321Y-106262452D01*
X96599325Y-106258218D01*
X96512888Y-106212452D01*
X96455769Y-106182209D01*
X96413290Y-106171539D01*
X96296822Y-106142284D01*
X96296818Y-106142284D01*
X96289451Y-106140433D01*
X96281852Y-106140393D01*
X96281850Y-106140393D01*
X96210394Y-106140019D01*
X96117969Y-106139535D01*
X96110589Y-106141307D01*
X96110587Y-106141307D01*
X95958602Y-106177795D01*
X95958598Y-106177796D01*
X95951223Y-106179567D01*
X95798839Y-106258218D01*
X95669615Y-106370948D01*
X95571010Y-106511248D01*
X95548359Y-106569344D01*
X95515966Y-106652429D01*
X95508718Y-106671018D01*
X95507726Y-106678551D01*
X95507726Y-106678552D01*
X95488842Y-106821995D01*
X95486335Y-106841035D01*
X91512800Y-106841035D01*
X91499368Y-106730043D01*
X91494015Y-106685808D01*
X91494014Y-106685805D01*
X91493102Y-106678267D01*
X91474317Y-106628552D01*
X91435171Y-106524956D01*
X91432487Y-106517853D01*
X91403005Y-106474956D01*
X91339659Y-106382787D01*
X91339658Y-106382785D01*
X91335357Y-106376528D01*
X91329686Y-106371475D01*
X91212993Y-106267505D01*
X91212990Y-106267503D01*
X91207321Y-106262452D01*
X91199325Y-106258218D01*
X91112888Y-106212452D01*
X91055769Y-106182209D01*
X91013290Y-106171539D01*
X90896822Y-106142284D01*
X90896818Y-106142284D01*
X90889451Y-106140433D01*
X90881852Y-106140393D01*
X90881850Y-106140393D01*
X90810394Y-106140019D01*
X90717969Y-106139535D01*
X90710589Y-106141307D01*
X90710587Y-106141307D01*
X90558602Y-106177795D01*
X90558598Y-106177796D01*
X90551223Y-106179567D01*
X90398839Y-106258218D01*
X90269615Y-106370948D01*
X90171010Y-106511248D01*
X90148359Y-106569344D01*
X90115966Y-106652429D01*
X90108718Y-106671018D01*
X90107726Y-106678551D01*
X90107726Y-106678552D01*
X90088842Y-106821995D01*
X90086335Y-106841035D01*
X86120593Y-106841035D01*
X86107161Y-106730043D01*
X86101808Y-106685808D01*
X86101807Y-106685805D01*
X86100895Y-106678267D01*
X86082110Y-106628552D01*
X86042964Y-106524956D01*
X86040280Y-106517853D01*
X86010798Y-106474956D01*
X85947452Y-106382787D01*
X85947451Y-106382785D01*
X85943150Y-106376528D01*
X85937479Y-106371475D01*
X85820786Y-106267505D01*
X85820783Y-106267503D01*
X85815114Y-106262452D01*
X85807118Y-106258218D01*
X85720681Y-106212452D01*
X85663562Y-106182209D01*
X85621083Y-106171539D01*
X85504615Y-106142284D01*
X85504611Y-106142284D01*
X85497244Y-106140433D01*
X85489645Y-106140393D01*
X85489643Y-106140393D01*
X85418187Y-106140019D01*
X85325762Y-106139535D01*
X85318382Y-106141307D01*
X85318380Y-106141307D01*
X85166395Y-106177795D01*
X85166391Y-106177796D01*
X85159016Y-106179567D01*
X85006632Y-106258218D01*
X84877408Y-106370948D01*
X84778803Y-106511248D01*
X84756152Y-106569344D01*
X84723759Y-106652429D01*
X84716511Y-106671018D01*
X84715519Y-106678551D01*
X84715519Y-106678552D01*
X84696635Y-106821995D01*
X84694128Y-106841035D01*
X80712800Y-106841035D01*
X80699368Y-106730043D01*
X80694015Y-106685808D01*
X80694014Y-106685805D01*
X80693102Y-106678267D01*
X80674317Y-106628552D01*
X80635171Y-106524956D01*
X80632487Y-106517853D01*
X80603005Y-106474956D01*
X80539659Y-106382787D01*
X80539658Y-106382785D01*
X80535357Y-106376528D01*
X80529686Y-106371475D01*
X80412993Y-106267505D01*
X80412990Y-106267503D01*
X80407321Y-106262452D01*
X80399325Y-106258218D01*
X80312888Y-106212452D01*
X80255769Y-106182209D01*
X80213290Y-106171539D01*
X80096822Y-106142284D01*
X80096818Y-106142284D01*
X80089451Y-106140433D01*
X80081852Y-106140393D01*
X80081850Y-106140393D01*
X80010394Y-106140019D01*
X79917969Y-106139535D01*
X79910589Y-106141307D01*
X79910587Y-106141307D01*
X79758602Y-106177795D01*
X79758598Y-106177796D01*
X79751223Y-106179567D01*
X79598839Y-106258218D01*
X79469615Y-106370948D01*
X79371010Y-106511248D01*
X79348359Y-106569344D01*
X79315966Y-106652429D01*
X79308718Y-106671018D01*
X79307726Y-106678551D01*
X79307726Y-106678552D01*
X79288842Y-106821995D01*
X79286335Y-106841035D01*
X75212403Y-106841035D01*
X75215747Y-106817540D01*
X75215747Y-106817536D01*
X75216328Y-106813456D01*
X75216485Y-106798509D01*
X75204306Y-106697871D01*
X75196796Y-106635808D01*
X75196795Y-106635805D01*
X75195883Y-106628267D01*
X75176481Y-106576919D01*
X75137952Y-106474956D01*
X75135268Y-106467853D01*
X75038138Y-106326528D01*
X75032467Y-106321475D01*
X74915774Y-106217505D01*
X74915771Y-106217503D01*
X74910102Y-106212452D01*
X74902106Y-106208218D01*
X74765262Y-106135763D01*
X74765263Y-106135763D01*
X74758550Y-106132209D01*
X74740977Y-106127795D01*
X74599603Y-106092284D01*
X74599599Y-106092284D01*
X74592232Y-106090433D01*
X74584633Y-106090393D01*
X74584631Y-106090393D01*
X74513175Y-106090019D01*
X74420750Y-106089535D01*
X74413370Y-106091307D01*
X74413368Y-106091307D01*
X74261383Y-106127795D01*
X74261379Y-106127796D01*
X74254004Y-106129567D01*
X74101620Y-106208218D01*
X73972396Y-106320948D01*
X73873791Y-106461248D01*
X73851722Y-106517853D01*
X73828693Y-106576919D01*
X73811499Y-106621018D01*
X73810507Y-106628551D01*
X73810507Y-106628552D01*
X73792136Y-106768098D01*
X73789116Y-106791035D01*
X69812800Y-106791035D01*
X69801525Y-106697871D01*
X69794015Y-106635808D01*
X69794014Y-106635805D01*
X69793102Y-106628267D01*
X69773700Y-106576919D01*
X69735171Y-106474956D01*
X69732487Y-106467853D01*
X69635357Y-106326528D01*
X69629686Y-106321475D01*
X69512993Y-106217505D01*
X69512990Y-106217503D01*
X69507321Y-106212452D01*
X69499325Y-106208218D01*
X69362481Y-106135763D01*
X69362482Y-106135763D01*
X69355769Y-106132209D01*
X69338196Y-106127795D01*
X69196822Y-106092284D01*
X69196818Y-106092284D01*
X69189451Y-106090433D01*
X69181852Y-106090393D01*
X69181850Y-106090393D01*
X69110394Y-106090019D01*
X69017969Y-106089535D01*
X69010589Y-106091307D01*
X69010587Y-106091307D01*
X68858602Y-106127795D01*
X68858598Y-106127796D01*
X68851223Y-106129567D01*
X68698839Y-106208218D01*
X68569615Y-106320948D01*
X68471010Y-106461248D01*
X68448941Y-106517853D01*
X68425912Y-106576919D01*
X68408718Y-106621018D01*
X68407726Y-106628551D01*
X68407726Y-106628552D01*
X68389355Y-106768098D01*
X68386335Y-106791035D01*
X65508000Y-106791035D01*
X65508000Y-104634000D01*
X65528002Y-104565879D01*
X65581658Y-104519386D01*
X65634000Y-104508000D01*
X129366000Y-104508000D01*
X129434121Y-104528002D01*
G37*
%TD.AperFunction*%
%TD*%
M02*
