%TF.GenerationSoftware,KiCad,Pcbnew,(6.0.0)*%
%TF.CreationDate,2022-04-23T18:16:59+01:00*%
%TF.ProjectId,pcb O,70636220-4f2e-46b6-9963-61645f706362,rev?*%
%TF.SameCoordinates,Original*%
%TF.FileFunction,Legend,Bot*%
%TF.FilePolarity,Positive*%
%FSLAX46Y46*%
G04 Gerber Fmt 4.6, Leading zero omitted, Abs format (unit mm)*
G04 Created by KiCad (PCBNEW (6.0.0)) date 2022-04-23 18:16:59*
%MOMM*%
%LPD*%
G01*
G04 APERTURE LIST*
%ADD10C,0.150000*%
%ADD11C,0.075000*%
%ADD12C,0.100000*%
%ADD13C,0.120000*%
G04 APERTURE END LIST*
D10*
%TO.C,D611*%
X69051539Y-105625869D02*
X69051539Y-104625869D01*
X68813443Y-104625869D01*
X68670586Y-104673489D01*
X68575348Y-104768727D01*
X68527729Y-104863965D01*
X68480110Y-105054441D01*
X68480110Y-105197298D01*
X68527729Y-105387774D01*
X68575348Y-105483012D01*
X68670586Y-105578250D01*
X68813443Y-105625869D01*
X69051539Y-105625869D01*
X67622967Y-104625869D02*
X67813443Y-104625869D01*
X67908682Y-104673489D01*
X67956301Y-104721108D01*
X68051539Y-104863965D01*
X68099158Y-105054441D01*
X68099158Y-105435393D01*
X68051539Y-105530631D01*
X68003920Y-105578250D01*
X67908682Y-105625869D01*
X67718205Y-105625869D01*
X67622967Y-105578250D01*
X67575348Y-105530631D01*
X67527729Y-105435393D01*
X67527729Y-105197298D01*
X67575348Y-105102060D01*
X67622967Y-105054441D01*
X67718205Y-105006822D01*
X67908682Y-105006822D01*
X68003920Y-105054441D01*
X68051539Y-105102060D01*
X68099158Y-105197298D01*
X66575348Y-105625869D02*
X67146777Y-105625869D01*
X66861063Y-105625869D02*
X66861063Y-104625869D01*
X66956301Y-104768727D01*
X67051539Y-104863965D01*
X67146777Y-104911584D01*
X65622967Y-105625869D02*
X66194396Y-105625869D01*
X65908682Y-105625869D02*
X65908682Y-104625869D01*
X66003920Y-104768727D01*
X66099158Y-104863965D01*
X66194396Y-104911584D01*
D11*
X68953293Y-107009203D02*
X69124722Y-107009203D01*
X69039008Y-107009203D02*
X69039008Y-106709203D01*
X69067579Y-106752060D01*
X69096150Y-106780631D01*
X69124722Y-106794917D01*
D10*
%TO.C,C609*%
X77457142Y-106780952D02*
X77504761Y-106733333D01*
X77552380Y-106590476D01*
X77552380Y-106495238D01*
X77504761Y-106352380D01*
X77409523Y-106257142D01*
X77314285Y-106209523D01*
X77123809Y-106161904D01*
X76980952Y-106161904D01*
X76790476Y-106209523D01*
X76695238Y-106257142D01*
X76600000Y-106352380D01*
X76552380Y-106495238D01*
X76552380Y-106590476D01*
X76600000Y-106733333D01*
X76647619Y-106780952D01*
X76552380Y-107638095D02*
X76552380Y-107447619D01*
X76600000Y-107352380D01*
X76647619Y-107304761D01*
X76790476Y-107209523D01*
X76980952Y-107161904D01*
X77361904Y-107161904D01*
X77457142Y-107209523D01*
X77504761Y-107257142D01*
X77552380Y-107352380D01*
X77552380Y-107542857D01*
X77504761Y-107638095D01*
X77457142Y-107685714D01*
X77361904Y-107733333D01*
X77123809Y-107733333D01*
X77028571Y-107685714D01*
X76980952Y-107638095D01*
X76933333Y-107542857D01*
X76933333Y-107352380D01*
X76980952Y-107257142D01*
X77028571Y-107209523D01*
X77123809Y-107161904D01*
X76552380Y-108352380D02*
X76552380Y-108447619D01*
X76600000Y-108542857D01*
X76647619Y-108590476D01*
X76742857Y-108638095D01*
X76933333Y-108685714D01*
X77171428Y-108685714D01*
X77361904Y-108638095D01*
X77457142Y-108590476D01*
X77504761Y-108542857D01*
X77552380Y-108447619D01*
X77552380Y-108352380D01*
X77504761Y-108257142D01*
X77457142Y-108209523D01*
X77361904Y-108161904D01*
X77171428Y-108114285D01*
X76933333Y-108114285D01*
X76742857Y-108161904D01*
X76647619Y-108209523D01*
X76600000Y-108257142D01*
X76552380Y-108352380D01*
X77552380Y-109161904D02*
X77552380Y-109352380D01*
X77504761Y-109447619D01*
X77457142Y-109495238D01*
X77314285Y-109590476D01*
X77123809Y-109638095D01*
X76742857Y-109638095D01*
X76647619Y-109590476D01*
X76600000Y-109542857D01*
X76552380Y-109447619D01*
X76552380Y-109257142D01*
X76600000Y-109161904D01*
X76647619Y-109114285D01*
X76742857Y-109066666D01*
X76980952Y-109066666D01*
X77076190Y-109114285D01*
X77123809Y-109161904D01*
X77171428Y-109257142D01*
X77171428Y-109447619D01*
X77123809Y-109542857D01*
X77076190Y-109590476D01*
X76980952Y-109638095D01*
%TO.C,D605*%
X101555663Y-105625869D02*
X101555663Y-104625869D01*
X101317567Y-104625869D01*
X101174710Y-104673489D01*
X101079472Y-104768727D01*
X101031853Y-104863965D01*
X100984234Y-105054441D01*
X100984234Y-105197298D01*
X101031853Y-105387774D01*
X101079472Y-105483012D01*
X101174710Y-105578250D01*
X101317567Y-105625869D01*
X101555663Y-105625869D01*
X100127091Y-104625869D02*
X100317567Y-104625869D01*
X100412806Y-104673489D01*
X100460425Y-104721108D01*
X100555663Y-104863965D01*
X100603282Y-105054441D01*
X100603282Y-105435393D01*
X100555663Y-105530631D01*
X100508044Y-105578250D01*
X100412806Y-105625869D01*
X100222329Y-105625869D01*
X100127091Y-105578250D01*
X100079472Y-105530631D01*
X100031853Y-105435393D01*
X100031853Y-105197298D01*
X100079472Y-105102060D01*
X100127091Y-105054441D01*
X100222329Y-105006822D01*
X100412806Y-105006822D01*
X100508044Y-105054441D01*
X100555663Y-105102060D01*
X100603282Y-105197298D01*
X99412806Y-104625869D02*
X99317567Y-104625869D01*
X99222329Y-104673489D01*
X99174710Y-104721108D01*
X99127091Y-104816346D01*
X99079472Y-105006822D01*
X99079472Y-105244917D01*
X99127091Y-105435393D01*
X99174710Y-105530631D01*
X99222329Y-105578250D01*
X99317567Y-105625869D01*
X99412806Y-105625869D01*
X99508044Y-105578250D01*
X99555663Y-105530631D01*
X99603282Y-105435393D01*
X99650901Y-105244917D01*
X99650901Y-105006822D01*
X99603282Y-104816346D01*
X99555663Y-104721108D01*
X99508044Y-104673489D01*
X99412806Y-104625869D01*
X98174710Y-104625869D02*
X98650901Y-104625869D01*
X98698520Y-105102060D01*
X98650901Y-105054441D01*
X98555663Y-105006822D01*
X98317567Y-105006822D01*
X98222329Y-105054441D01*
X98174710Y-105102060D01*
X98127091Y-105197298D01*
X98127091Y-105435393D01*
X98174710Y-105530631D01*
X98222329Y-105578250D01*
X98317567Y-105625869D01*
X98555663Y-105625869D01*
X98650901Y-105578250D01*
X98698520Y-105530631D01*
D11*
X101457417Y-107059203D02*
X101628846Y-107059203D01*
X101543132Y-107059203D02*
X101543132Y-106759203D01*
X101571703Y-106802060D01*
X101600274Y-106830631D01*
X101628846Y-106844917D01*
D10*
%TO.C,D600*%
X128990476Y-105625869D02*
X128990476Y-104625869D01*
X128752380Y-104625869D01*
X128609523Y-104673489D01*
X128514285Y-104768727D01*
X128466666Y-104863965D01*
X128419047Y-105054441D01*
X128419047Y-105197298D01*
X128466666Y-105387774D01*
X128514285Y-105483012D01*
X128609523Y-105578250D01*
X128752380Y-105625869D01*
X128990476Y-105625869D01*
X127561904Y-104625869D02*
X127752380Y-104625869D01*
X127847619Y-104673489D01*
X127895238Y-104721108D01*
X127990476Y-104863965D01*
X128038095Y-105054441D01*
X128038095Y-105435393D01*
X127990476Y-105530631D01*
X127942857Y-105578250D01*
X127847619Y-105625869D01*
X127657142Y-105625869D01*
X127561904Y-105578250D01*
X127514285Y-105530631D01*
X127466666Y-105435393D01*
X127466666Y-105197298D01*
X127514285Y-105102060D01*
X127561904Y-105054441D01*
X127657142Y-105006822D01*
X127847619Y-105006822D01*
X127942857Y-105054441D01*
X127990476Y-105102060D01*
X128038095Y-105197298D01*
X126847619Y-104625869D02*
X126752380Y-104625869D01*
X126657142Y-104673489D01*
X126609523Y-104721108D01*
X126561904Y-104816346D01*
X126514285Y-105006822D01*
X126514285Y-105244917D01*
X126561904Y-105435393D01*
X126609523Y-105530631D01*
X126657142Y-105578250D01*
X126752380Y-105625869D01*
X126847619Y-105625869D01*
X126942857Y-105578250D01*
X126990476Y-105530631D01*
X127038095Y-105435393D01*
X127085714Y-105244917D01*
X127085714Y-105006822D01*
X127038095Y-104816346D01*
X126990476Y-104721108D01*
X126942857Y-104673489D01*
X126847619Y-104625869D01*
X125895238Y-104625869D02*
X125800000Y-104625869D01*
X125704761Y-104673489D01*
X125657142Y-104721108D01*
X125609523Y-104816346D01*
X125561904Y-105006822D01*
X125561904Y-105244917D01*
X125609523Y-105435393D01*
X125657142Y-105530631D01*
X125704761Y-105578250D01*
X125800000Y-105625869D01*
X125895238Y-105625869D01*
X125990476Y-105578250D01*
X126038095Y-105530631D01*
X126085714Y-105435393D01*
X126133333Y-105244917D01*
X126133333Y-105006822D01*
X126085714Y-104816346D01*
X126038095Y-104721108D01*
X125990476Y-104673489D01*
X125895238Y-104625869D01*
D11*
X128544188Y-107059203D02*
X128715617Y-107059203D01*
X128629903Y-107059203D02*
X128629903Y-106759203D01*
X128658474Y-106802060D01*
X128687045Y-106830631D01*
X128715617Y-106844917D01*
D10*
%TO.C,D607*%
X90720955Y-105625869D02*
X90720955Y-104625869D01*
X90482859Y-104625869D01*
X90340002Y-104673489D01*
X90244764Y-104768727D01*
X90197145Y-104863965D01*
X90149526Y-105054441D01*
X90149526Y-105197298D01*
X90197145Y-105387774D01*
X90244764Y-105483012D01*
X90340002Y-105578250D01*
X90482859Y-105625869D01*
X90720955Y-105625869D01*
X89292383Y-104625869D02*
X89482859Y-104625869D01*
X89578098Y-104673489D01*
X89625717Y-104721108D01*
X89720955Y-104863965D01*
X89768574Y-105054441D01*
X89768574Y-105435393D01*
X89720955Y-105530631D01*
X89673336Y-105578250D01*
X89578098Y-105625869D01*
X89387621Y-105625869D01*
X89292383Y-105578250D01*
X89244764Y-105530631D01*
X89197145Y-105435393D01*
X89197145Y-105197298D01*
X89244764Y-105102060D01*
X89292383Y-105054441D01*
X89387621Y-105006822D01*
X89578098Y-105006822D01*
X89673336Y-105054441D01*
X89720955Y-105102060D01*
X89768574Y-105197298D01*
X88578098Y-104625869D02*
X88482859Y-104625869D01*
X88387621Y-104673489D01*
X88340002Y-104721108D01*
X88292383Y-104816346D01*
X88244764Y-105006822D01*
X88244764Y-105244917D01*
X88292383Y-105435393D01*
X88340002Y-105530631D01*
X88387621Y-105578250D01*
X88482859Y-105625869D01*
X88578098Y-105625869D01*
X88673336Y-105578250D01*
X88720955Y-105530631D01*
X88768574Y-105435393D01*
X88816193Y-105244917D01*
X88816193Y-105006822D01*
X88768574Y-104816346D01*
X88720955Y-104721108D01*
X88673336Y-104673489D01*
X88578098Y-104625869D01*
X87911431Y-104625869D02*
X87244764Y-104625869D01*
X87673336Y-105625869D01*
D11*
X90622709Y-107059203D02*
X90794138Y-107059203D01*
X90708424Y-107059203D02*
X90708424Y-106759203D01*
X90736995Y-106802060D01*
X90765566Y-106830631D01*
X90794138Y-106844917D01*
D10*
%TO.C,C606*%
X93757142Y-106580952D02*
X93804761Y-106533333D01*
X93852380Y-106390476D01*
X93852380Y-106295238D01*
X93804761Y-106152380D01*
X93709523Y-106057142D01*
X93614285Y-106009523D01*
X93423809Y-105961904D01*
X93280952Y-105961904D01*
X93090476Y-106009523D01*
X92995238Y-106057142D01*
X92900000Y-106152380D01*
X92852380Y-106295238D01*
X92852380Y-106390476D01*
X92900000Y-106533333D01*
X92947619Y-106580952D01*
X92852380Y-107438095D02*
X92852380Y-107247619D01*
X92900000Y-107152380D01*
X92947619Y-107104761D01*
X93090476Y-107009523D01*
X93280952Y-106961904D01*
X93661904Y-106961904D01*
X93757142Y-107009523D01*
X93804761Y-107057142D01*
X93852380Y-107152380D01*
X93852380Y-107342857D01*
X93804761Y-107438095D01*
X93757142Y-107485714D01*
X93661904Y-107533333D01*
X93423809Y-107533333D01*
X93328571Y-107485714D01*
X93280952Y-107438095D01*
X93233333Y-107342857D01*
X93233333Y-107152380D01*
X93280952Y-107057142D01*
X93328571Y-107009523D01*
X93423809Y-106961904D01*
X92852380Y-108152380D02*
X92852380Y-108247619D01*
X92900000Y-108342857D01*
X92947619Y-108390476D01*
X93042857Y-108438095D01*
X93233333Y-108485714D01*
X93471428Y-108485714D01*
X93661904Y-108438095D01*
X93757142Y-108390476D01*
X93804761Y-108342857D01*
X93852380Y-108247619D01*
X93852380Y-108152380D01*
X93804761Y-108057142D01*
X93757142Y-108009523D01*
X93661904Y-107961904D01*
X93471428Y-107914285D01*
X93233333Y-107914285D01*
X93042857Y-107961904D01*
X92947619Y-108009523D01*
X92900000Y-108057142D01*
X92852380Y-108152380D01*
X92852380Y-109342857D02*
X92852380Y-109152380D01*
X92900000Y-109057142D01*
X92947619Y-109009523D01*
X93090476Y-108914285D01*
X93280952Y-108866666D01*
X93661904Y-108866666D01*
X93757142Y-108914285D01*
X93804761Y-108961904D01*
X93852380Y-109057142D01*
X93852380Y-109247619D01*
X93804761Y-109342857D01*
X93757142Y-109390476D01*
X93661904Y-109438095D01*
X93423809Y-109438095D01*
X93328571Y-109390476D01*
X93280952Y-109342857D01*
X93233333Y-109247619D01*
X93233333Y-109057142D01*
X93280952Y-108961904D01*
X93328571Y-108914285D01*
X93423809Y-108866666D01*
%TO.C,D601*%
X123225079Y-105625869D02*
X123225079Y-104625869D01*
X122986983Y-104625869D01*
X122844126Y-104673489D01*
X122748888Y-104768727D01*
X122701269Y-104863965D01*
X122653650Y-105054441D01*
X122653650Y-105197298D01*
X122701269Y-105387774D01*
X122748888Y-105483012D01*
X122844126Y-105578250D01*
X122986983Y-105625869D01*
X123225079Y-105625869D01*
X121796507Y-104625869D02*
X121986983Y-104625869D01*
X122082222Y-104673489D01*
X122129841Y-104721108D01*
X122225079Y-104863965D01*
X122272698Y-105054441D01*
X122272698Y-105435393D01*
X122225079Y-105530631D01*
X122177460Y-105578250D01*
X122082222Y-105625869D01*
X121891745Y-105625869D01*
X121796507Y-105578250D01*
X121748888Y-105530631D01*
X121701269Y-105435393D01*
X121701269Y-105197298D01*
X121748888Y-105102060D01*
X121796507Y-105054441D01*
X121891745Y-105006822D01*
X122082222Y-105006822D01*
X122177460Y-105054441D01*
X122225079Y-105102060D01*
X122272698Y-105197298D01*
X121082222Y-104625869D02*
X120986983Y-104625869D01*
X120891745Y-104673489D01*
X120844126Y-104721108D01*
X120796507Y-104816346D01*
X120748888Y-105006822D01*
X120748888Y-105244917D01*
X120796507Y-105435393D01*
X120844126Y-105530631D01*
X120891745Y-105578250D01*
X120986983Y-105625869D01*
X121082222Y-105625869D01*
X121177460Y-105578250D01*
X121225079Y-105530631D01*
X121272698Y-105435393D01*
X121320317Y-105244917D01*
X121320317Y-105006822D01*
X121272698Y-104816346D01*
X121225079Y-104721108D01*
X121177460Y-104673489D01*
X121082222Y-104625869D01*
X119796507Y-105625869D02*
X120367936Y-105625869D01*
X120082222Y-105625869D02*
X120082222Y-104625869D01*
X120177460Y-104768727D01*
X120272698Y-104863965D01*
X120367936Y-104911584D01*
D11*
X123126833Y-107059203D02*
X123298262Y-107059203D01*
X123212548Y-107059203D02*
X123212548Y-106759203D01*
X123241119Y-106802060D01*
X123269690Y-106830631D01*
X123298262Y-106844917D01*
D10*
%TO.C,C605*%
X99357142Y-106580952D02*
X99404761Y-106533333D01*
X99452380Y-106390476D01*
X99452380Y-106295238D01*
X99404761Y-106152380D01*
X99309523Y-106057142D01*
X99214285Y-106009523D01*
X99023809Y-105961904D01*
X98880952Y-105961904D01*
X98690476Y-106009523D01*
X98595238Y-106057142D01*
X98500000Y-106152380D01*
X98452380Y-106295238D01*
X98452380Y-106390476D01*
X98500000Y-106533333D01*
X98547619Y-106580952D01*
X98452380Y-107438095D02*
X98452380Y-107247619D01*
X98500000Y-107152380D01*
X98547619Y-107104761D01*
X98690476Y-107009523D01*
X98880952Y-106961904D01*
X99261904Y-106961904D01*
X99357142Y-107009523D01*
X99404761Y-107057142D01*
X99452380Y-107152380D01*
X99452380Y-107342857D01*
X99404761Y-107438095D01*
X99357142Y-107485714D01*
X99261904Y-107533333D01*
X99023809Y-107533333D01*
X98928571Y-107485714D01*
X98880952Y-107438095D01*
X98833333Y-107342857D01*
X98833333Y-107152380D01*
X98880952Y-107057142D01*
X98928571Y-107009523D01*
X99023809Y-106961904D01*
X98452380Y-108152380D02*
X98452380Y-108247619D01*
X98500000Y-108342857D01*
X98547619Y-108390476D01*
X98642857Y-108438095D01*
X98833333Y-108485714D01*
X99071428Y-108485714D01*
X99261904Y-108438095D01*
X99357142Y-108390476D01*
X99404761Y-108342857D01*
X99452380Y-108247619D01*
X99452380Y-108152380D01*
X99404761Y-108057142D01*
X99357142Y-108009523D01*
X99261904Y-107961904D01*
X99071428Y-107914285D01*
X98833333Y-107914285D01*
X98642857Y-107961904D01*
X98547619Y-108009523D01*
X98500000Y-108057142D01*
X98452380Y-108152380D01*
X98452380Y-109390476D02*
X98452380Y-108914285D01*
X98928571Y-108866666D01*
X98880952Y-108914285D01*
X98833333Y-109009523D01*
X98833333Y-109247619D01*
X98880952Y-109342857D01*
X98928571Y-109390476D01*
X99023809Y-109438095D01*
X99261904Y-109438095D01*
X99357142Y-109390476D01*
X99404761Y-109342857D01*
X99452380Y-109247619D01*
X99452380Y-109009523D01*
X99404761Y-108914285D01*
X99357142Y-108866666D01*
%TO.C,C601*%
X120957142Y-106780952D02*
X121004761Y-106733333D01*
X121052380Y-106590476D01*
X121052380Y-106495238D01*
X121004761Y-106352380D01*
X120909523Y-106257142D01*
X120814285Y-106209523D01*
X120623809Y-106161904D01*
X120480952Y-106161904D01*
X120290476Y-106209523D01*
X120195238Y-106257142D01*
X120100000Y-106352380D01*
X120052380Y-106495238D01*
X120052380Y-106590476D01*
X120100000Y-106733333D01*
X120147619Y-106780952D01*
X120052380Y-107638095D02*
X120052380Y-107447619D01*
X120100000Y-107352380D01*
X120147619Y-107304761D01*
X120290476Y-107209523D01*
X120480952Y-107161904D01*
X120861904Y-107161904D01*
X120957142Y-107209523D01*
X121004761Y-107257142D01*
X121052380Y-107352380D01*
X121052380Y-107542857D01*
X121004761Y-107638095D01*
X120957142Y-107685714D01*
X120861904Y-107733333D01*
X120623809Y-107733333D01*
X120528571Y-107685714D01*
X120480952Y-107638095D01*
X120433333Y-107542857D01*
X120433333Y-107352380D01*
X120480952Y-107257142D01*
X120528571Y-107209523D01*
X120623809Y-107161904D01*
X120052380Y-108352380D02*
X120052380Y-108447619D01*
X120100000Y-108542857D01*
X120147619Y-108590476D01*
X120242857Y-108638095D01*
X120433333Y-108685714D01*
X120671428Y-108685714D01*
X120861904Y-108638095D01*
X120957142Y-108590476D01*
X121004761Y-108542857D01*
X121052380Y-108447619D01*
X121052380Y-108352380D01*
X121004761Y-108257142D01*
X120957142Y-108209523D01*
X120861904Y-108161904D01*
X120671428Y-108114285D01*
X120433333Y-108114285D01*
X120242857Y-108161904D01*
X120147619Y-108209523D01*
X120100000Y-108257142D01*
X120052380Y-108352380D01*
X121052380Y-109638095D02*
X121052380Y-109066666D01*
X121052380Y-109352380D02*
X120052380Y-109352380D01*
X120195238Y-109257142D01*
X120290476Y-109161904D01*
X120338095Y-109066666D01*
%TO.C,C600*%
X126219047Y-109357142D02*
X126266666Y-109404761D01*
X126409523Y-109452380D01*
X126504761Y-109452380D01*
X126647619Y-109404761D01*
X126742857Y-109309523D01*
X126790476Y-109214285D01*
X126838095Y-109023809D01*
X126838095Y-108880952D01*
X126790476Y-108690476D01*
X126742857Y-108595238D01*
X126647619Y-108500000D01*
X126504761Y-108452380D01*
X126409523Y-108452380D01*
X126266666Y-108500000D01*
X126219047Y-108547619D01*
X125361904Y-108452380D02*
X125552380Y-108452380D01*
X125647619Y-108500000D01*
X125695238Y-108547619D01*
X125790476Y-108690476D01*
X125838095Y-108880952D01*
X125838095Y-109261904D01*
X125790476Y-109357142D01*
X125742857Y-109404761D01*
X125647619Y-109452380D01*
X125457142Y-109452380D01*
X125361904Y-109404761D01*
X125314285Y-109357142D01*
X125266666Y-109261904D01*
X125266666Y-109023809D01*
X125314285Y-108928571D01*
X125361904Y-108880952D01*
X125457142Y-108833333D01*
X125647619Y-108833333D01*
X125742857Y-108880952D01*
X125790476Y-108928571D01*
X125838095Y-109023809D01*
X124647619Y-108452380D02*
X124552380Y-108452380D01*
X124457142Y-108500000D01*
X124409523Y-108547619D01*
X124361904Y-108642857D01*
X124314285Y-108833333D01*
X124314285Y-109071428D01*
X124361904Y-109261904D01*
X124409523Y-109357142D01*
X124457142Y-109404761D01*
X124552380Y-109452380D01*
X124647619Y-109452380D01*
X124742857Y-109404761D01*
X124790476Y-109357142D01*
X124838095Y-109261904D01*
X124885714Y-109071428D01*
X124885714Y-108833333D01*
X124838095Y-108642857D01*
X124790476Y-108547619D01*
X124742857Y-108500000D01*
X124647619Y-108452380D01*
X123695238Y-108452380D02*
X123600000Y-108452380D01*
X123504761Y-108500000D01*
X123457142Y-108547619D01*
X123409523Y-108642857D01*
X123361904Y-108833333D01*
X123361904Y-109071428D01*
X123409523Y-109261904D01*
X123457142Y-109357142D01*
X123504761Y-109404761D01*
X123600000Y-109452380D01*
X123695238Y-109452380D01*
X123790476Y-109404761D01*
X123838095Y-109357142D01*
X123885714Y-109261904D01*
X123933333Y-109071428D01*
X123933333Y-108833333D01*
X123885714Y-108642857D01*
X123838095Y-108547619D01*
X123790476Y-108500000D01*
X123695238Y-108452380D01*
%TO.C,C611*%
X66857142Y-106580952D02*
X66904761Y-106533333D01*
X66952380Y-106390476D01*
X66952380Y-106295238D01*
X66904761Y-106152380D01*
X66809523Y-106057142D01*
X66714285Y-106009523D01*
X66523809Y-105961904D01*
X66380952Y-105961904D01*
X66190476Y-106009523D01*
X66095238Y-106057142D01*
X66000000Y-106152380D01*
X65952380Y-106295238D01*
X65952380Y-106390476D01*
X66000000Y-106533333D01*
X66047619Y-106580952D01*
X65952380Y-107438095D02*
X65952380Y-107247619D01*
X66000000Y-107152380D01*
X66047619Y-107104761D01*
X66190476Y-107009523D01*
X66380952Y-106961904D01*
X66761904Y-106961904D01*
X66857142Y-107009523D01*
X66904761Y-107057142D01*
X66952380Y-107152380D01*
X66952380Y-107342857D01*
X66904761Y-107438095D01*
X66857142Y-107485714D01*
X66761904Y-107533333D01*
X66523809Y-107533333D01*
X66428571Y-107485714D01*
X66380952Y-107438095D01*
X66333333Y-107342857D01*
X66333333Y-107152380D01*
X66380952Y-107057142D01*
X66428571Y-107009523D01*
X66523809Y-106961904D01*
X66952380Y-108485714D02*
X66952380Y-107914285D01*
X66952380Y-108200000D02*
X65952380Y-108200000D01*
X66095238Y-108104761D01*
X66190476Y-108009523D01*
X66238095Y-107914285D01*
X66952380Y-109438095D02*
X66952380Y-108866666D01*
X66952380Y-109152380D02*
X65952380Y-109152380D01*
X66095238Y-109057142D01*
X66190476Y-108961904D01*
X66238095Y-108866666D01*
%TO.C,C604*%
X104557142Y-106580952D02*
X104604761Y-106533333D01*
X104652380Y-106390476D01*
X104652380Y-106295238D01*
X104604761Y-106152380D01*
X104509523Y-106057142D01*
X104414285Y-106009523D01*
X104223809Y-105961904D01*
X104080952Y-105961904D01*
X103890476Y-106009523D01*
X103795238Y-106057142D01*
X103700000Y-106152380D01*
X103652380Y-106295238D01*
X103652380Y-106390476D01*
X103700000Y-106533333D01*
X103747619Y-106580952D01*
X103652380Y-107438095D02*
X103652380Y-107247619D01*
X103700000Y-107152380D01*
X103747619Y-107104761D01*
X103890476Y-107009523D01*
X104080952Y-106961904D01*
X104461904Y-106961904D01*
X104557142Y-107009523D01*
X104604761Y-107057142D01*
X104652380Y-107152380D01*
X104652380Y-107342857D01*
X104604761Y-107438095D01*
X104557142Y-107485714D01*
X104461904Y-107533333D01*
X104223809Y-107533333D01*
X104128571Y-107485714D01*
X104080952Y-107438095D01*
X104033333Y-107342857D01*
X104033333Y-107152380D01*
X104080952Y-107057142D01*
X104128571Y-107009523D01*
X104223809Y-106961904D01*
X103652380Y-108152380D02*
X103652380Y-108247619D01*
X103700000Y-108342857D01*
X103747619Y-108390476D01*
X103842857Y-108438095D01*
X104033333Y-108485714D01*
X104271428Y-108485714D01*
X104461904Y-108438095D01*
X104557142Y-108390476D01*
X104604761Y-108342857D01*
X104652380Y-108247619D01*
X104652380Y-108152380D01*
X104604761Y-108057142D01*
X104557142Y-108009523D01*
X104461904Y-107961904D01*
X104271428Y-107914285D01*
X104033333Y-107914285D01*
X103842857Y-107961904D01*
X103747619Y-108009523D01*
X103700000Y-108057142D01*
X103652380Y-108152380D01*
X103985714Y-109342857D02*
X104652380Y-109342857D01*
X103604761Y-109104761D02*
X104319047Y-108866666D01*
X104319047Y-109485714D01*
%TO.C,D606*%
X96138309Y-105625869D02*
X96138309Y-104625869D01*
X95900213Y-104625869D01*
X95757356Y-104673489D01*
X95662118Y-104768727D01*
X95614499Y-104863965D01*
X95566880Y-105054441D01*
X95566880Y-105197298D01*
X95614499Y-105387774D01*
X95662118Y-105483012D01*
X95757356Y-105578250D01*
X95900213Y-105625869D01*
X96138309Y-105625869D01*
X94709737Y-104625869D02*
X94900213Y-104625869D01*
X94995452Y-104673489D01*
X95043071Y-104721108D01*
X95138309Y-104863965D01*
X95185928Y-105054441D01*
X95185928Y-105435393D01*
X95138309Y-105530631D01*
X95090690Y-105578250D01*
X94995452Y-105625869D01*
X94804975Y-105625869D01*
X94709737Y-105578250D01*
X94662118Y-105530631D01*
X94614499Y-105435393D01*
X94614499Y-105197298D01*
X94662118Y-105102060D01*
X94709737Y-105054441D01*
X94804975Y-105006822D01*
X94995452Y-105006822D01*
X95090690Y-105054441D01*
X95138309Y-105102060D01*
X95185928Y-105197298D01*
X93995452Y-104625869D02*
X93900213Y-104625869D01*
X93804975Y-104673489D01*
X93757356Y-104721108D01*
X93709737Y-104816346D01*
X93662118Y-105006822D01*
X93662118Y-105244917D01*
X93709737Y-105435393D01*
X93757356Y-105530631D01*
X93804975Y-105578250D01*
X93900213Y-105625869D01*
X93995452Y-105625869D01*
X94090690Y-105578250D01*
X94138309Y-105530631D01*
X94185928Y-105435393D01*
X94233547Y-105244917D01*
X94233547Y-105006822D01*
X94185928Y-104816346D01*
X94138309Y-104721108D01*
X94090690Y-104673489D01*
X93995452Y-104625869D01*
X92804975Y-104625869D02*
X92995452Y-104625869D01*
X93090690Y-104673489D01*
X93138309Y-104721108D01*
X93233547Y-104863965D01*
X93281166Y-105054441D01*
X93281166Y-105435393D01*
X93233547Y-105530631D01*
X93185928Y-105578250D01*
X93090690Y-105625869D01*
X92900213Y-105625869D01*
X92804975Y-105578250D01*
X92757356Y-105530631D01*
X92709737Y-105435393D01*
X92709737Y-105197298D01*
X92757356Y-105102060D01*
X92804975Y-105054441D01*
X92900213Y-105006822D01*
X93090690Y-105006822D01*
X93185928Y-105054441D01*
X93233547Y-105102060D01*
X93281166Y-105197298D01*
D11*
X96040063Y-107059203D02*
X96211492Y-107059203D01*
X96125778Y-107059203D02*
X96125778Y-106759203D01*
X96154349Y-106802060D01*
X96182920Y-106830631D01*
X96211492Y-106844917D01*
D10*
%TO.C,C608*%
X82957142Y-106680952D02*
X83004761Y-106633333D01*
X83052380Y-106490476D01*
X83052380Y-106395238D01*
X83004761Y-106252380D01*
X82909523Y-106157142D01*
X82814285Y-106109523D01*
X82623809Y-106061904D01*
X82480952Y-106061904D01*
X82290476Y-106109523D01*
X82195238Y-106157142D01*
X82100000Y-106252380D01*
X82052380Y-106395238D01*
X82052380Y-106490476D01*
X82100000Y-106633333D01*
X82147619Y-106680952D01*
X82052380Y-107538095D02*
X82052380Y-107347619D01*
X82100000Y-107252380D01*
X82147619Y-107204761D01*
X82290476Y-107109523D01*
X82480952Y-107061904D01*
X82861904Y-107061904D01*
X82957142Y-107109523D01*
X83004761Y-107157142D01*
X83052380Y-107252380D01*
X83052380Y-107442857D01*
X83004761Y-107538095D01*
X82957142Y-107585714D01*
X82861904Y-107633333D01*
X82623809Y-107633333D01*
X82528571Y-107585714D01*
X82480952Y-107538095D01*
X82433333Y-107442857D01*
X82433333Y-107252380D01*
X82480952Y-107157142D01*
X82528571Y-107109523D01*
X82623809Y-107061904D01*
X82052380Y-108252380D02*
X82052380Y-108347619D01*
X82100000Y-108442857D01*
X82147619Y-108490476D01*
X82242857Y-108538095D01*
X82433333Y-108585714D01*
X82671428Y-108585714D01*
X82861904Y-108538095D01*
X82957142Y-108490476D01*
X83004761Y-108442857D01*
X83052380Y-108347619D01*
X83052380Y-108252380D01*
X83004761Y-108157142D01*
X82957142Y-108109523D01*
X82861904Y-108061904D01*
X82671428Y-108014285D01*
X82433333Y-108014285D01*
X82242857Y-108061904D01*
X82147619Y-108109523D01*
X82100000Y-108157142D01*
X82052380Y-108252380D01*
X82480952Y-109157142D02*
X82433333Y-109061904D01*
X82385714Y-109014285D01*
X82290476Y-108966666D01*
X82242857Y-108966666D01*
X82147619Y-109014285D01*
X82100000Y-109061904D01*
X82052380Y-109157142D01*
X82052380Y-109347619D01*
X82100000Y-109442857D01*
X82147619Y-109490476D01*
X82242857Y-109538095D01*
X82290476Y-109538095D01*
X82385714Y-109490476D01*
X82433333Y-109442857D01*
X82480952Y-109347619D01*
X82480952Y-109157142D01*
X82528571Y-109061904D01*
X82576190Y-109014285D01*
X82671428Y-108966666D01*
X82861904Y-108966666D01*
X82957142Y-109014285D01*
X83004761Y-109061904D01*
X83052380Y-109157142D01*
X83052380Y-109347619D01*
X83004761Y-109442857D01*
X82957142Y-109490476D01*
X82861904Y-109538095D01*
X82671428Y-109538095D01*
X82576190Y-109490476D01*
X82528571Y-109442857D01*
X82480952Y-109347619D01*
%TO.C,C602*%
X115557142Y-106680952D02*
X115604761Y-106633333D01*
X115652380Y-106490476D01*
X115652380Y-106395238D01*
X115604761Y-106252380D01*
X115509523Y-106157142D01*
X115414285Y-106109523D01*
X115223809Y-106061904D01*
X115080952Y-106061904D01*
X114890476Y-106109523D01*
X114795238Y-106157142D01*
X114700000Y-106252380D01*
X114652380Y-106395238D01*
X114652380Y-106490476D01*
X114700000Y-106633333D01*
X114747619Y-106680952D01*
X114652380Y-107538095D02*
X114652380Y-107347619D01*
X114700000Y-107252380D01*
X114747619Y-107204761D01*
X114890476Y-107109523D01*
X115080952Y-107061904D01*
X115461904Y-107061904D01*
X115557142Y-107109523D01*
X115604761Y-107157142D01*
X115652380Y-107252380D01*
X115652380Y-107442857D01*
X115604761Y-107538095D01*
X115557142Y-107585714D01*
X115461904Y-107633333D01*
X115223809Y-107633333D01*
X115128571Y-107585714D01*
X115080952Y-107538095D01*
X115033333Y-107442857D01*
X115033333Y-107252380D01*
X115080952Y-107157142D01*
X115128571Y-107109523D01*
X115223809Y-107061904D01*
X114652380Y-108252380D02*
X114652380Y-108347619D01*
X114700000Y-108442857D01*
X114747619Y-108490476D01*
X114842857Y-108538095D01*
X115033333Y-108585714D01*
X115271428Y-108585714D01*
X115461904Y-108538095D01*
X115557142Y-108490476D01*
X115604761Y-108442857D01*
X115652380Y-108347619D01*
X115652380Y-108252380D01*
X115604761Y-108157142D01*
X115557142Y-108109523D01*
X115461904Y-108061904D01*
X115271428Y-108014285D01*
X115033333Y-108014285D01*
X114842857Y-108061904D01*
X114747619Y-108109523D01*
X114700000Y-108157142D01*
X114652380Y-108252380D01*
X114747619Y-108966666D02*
X114700000Y-109014285D01*
X114652380Y-109109523D01*
X114652380Y-109347619D01*
X114700000Y-109442857D01*
X114747619Y-109490476D01*
X114842857Y-109538095D01*
X114938095Y-109538095D01*
X115080952Y-109490476D01*
X115652380Y-108919047D01*
X115652380Y-109538095D01*
%TO.C,R60*%
X125742857Y-107752380D02*
X126076190Y-107276190D01*
X126314285Y-107752380D02*
X126314285Y-106752380D01*
X125933333Y-106752380D01*
X125838095Y-106800000D01*
X125790476Y-106847619D01*
X125742857Y-106942857D01*
X125742857Y-107085714D01*
X125790476Y-107180952D01*
X125838095Y-107228571D01*
X125933333Y-107276190D01*
X126314285Y-107276190D01*
X124885714Y-106752380D02*
X125076190Y-106752380D01*
X125171428Y-106800000D01*
X125219047Y-106847619D01*
X125314285Y-106990476D01*
X125361904Y-107180952D01*
X125361904Y-107561904D01*
X125314285Y-107657142D01*
X125266666Y-107704761D01*
X125171428Y-107752380D01*
X124980952Y-107752380D01*
X124885714Y-107704761D01*
X124838095Y-107657142D01*
X124790476Y-107561904D01*
X124790476Y-107323809D01*
X124838095Y-107228571D01*
X124885714Y-107180952D01*
X124980952Y-107133333D01*
X125171428Y-107133333D01*
X125266666Y-107180952D01*
X125314285Y-107228571D01*
X125361904Y-107323809D01*
X124171428Y-106752380D02*
X124076190Y-106752380D01*
X123980952Y-106800000D01*
X123933333Y-106847619D01*
X123885714Y-106942857D01*
X123838095Y-107133333D01*
X123838095Y-107371428D01*
X123885714Y-107561904D01*
X123933333Y-107657142D01*
X123980952Y-107704761D01*
X124076190Y-107752380D01*
X124171428Y-107752380D01*
X124266666Y-107704761D01*
X124314285Y-107657142D01*
X124361904Y-107561904D01*
X124409523Y-107371428D01*
X124409523Y-107133333D01*
X124361904Y-106942857D01*
X124314285Y-106847619D01*
X124266666Y-106800000D01*
X124171428Y-106752380D01*
%TO.C,D602*%
X117807725Y-105625869D02*
X117807725Y-104625869D01*
X117569629Y-104625869D01*
X117426772Y-104673489D01*
X117331534Y-104768727D01*
X117283915Y-104863965D01*
X117236296Y-105054441D01*
X117236296Y-105197298D01*
X117283915Y-105387774D01*
X117331534Y-105483012D01*
X117426772Y-105578250D01*
X117569629Y-105625869D01*
X117807725Y-105625869D01*
X116379153Y-104625869D02*
X116569629Y-104625869D01*
X116664868Y-104673489D01*
X116712487Y-104721108D01*
X116807725Y-104863965D01*
X116855344Y-105054441D01*
X116855344Y-105435393D01*
X116807725Y-105530631D01*
X116760106Y-105578250D01*
X116664868Y-105625869D01*
X116474391Y-105625869D01*
X116379153Y-105578250D01*
X116331534Y-105530631D01*
X116283915Y-105435393D01*
X116283915Y-105197298D01*
X116331534Y-105102060D01*
X116379153Y-105054441D01*
X116474391Y-105006822D01*
X116664868Y-105006822D01*
X116760106Y-105054441D01*
X116807725Y-105102060D01*
X116855344Y-105197298D01*
X115664868Y-104625869D02*
X115569629Y-104625869D01*
X115474391Y-104673489D01*
X115426772Y-104721108D01*
X115379153Y-104816346D01*
X115331534Y-105006822D01*
X115331534Y-105244917D01*
X115379153Y-105435393D01*
X115426772Y-105530631D01*
X115474391Y-105578250D01*
X115569629Y-105625869D01*
X115664868Y-105625869D01*
X115760106Y-105578250D01*
X115807725Y-105530631D01*
X115855344Y-105435393D01*
X115902963Y-105244917D01*
X115902963Y-105006822D01*
X115855344Y-104816346D01*
X115807725Y-104721108D01*
X115760106Y-104673489D01*
X115664868Y-104625869D01*
X114950582Y-104721108D02*
X114902963Y-104673489D01*
X114807725Y-104625869D01*
X114569629Y-104625869D01*
X114474391Y-104673489D01*
X114426772Y-104721108D01*
X114379153Y-104816346D01*
X114379153Y-104911584D01*
X114426772Y-105054441D01*
X114998201Y-105625869D01*
X114379153Y-105625869D01*
D11*
X117709479Y-107059203D02*
X117880908Y-107059203D01*
X117795194Y-107059203D02*
X117795194Y-106759203D01*
X117823765Y-106802060D01*
X117852336Y-106830631D01*
X117880908Y-106844917D01*
D10*
%TO.C,D604*%
X106973017Y-105625869D02*
X106973017Y-104625869D01*
X106734921Y-104625869D01*
X106592064Y-104673489D01*
X106496826Y-104768727D01*
X106449207Y-104863965D01*
X106401588Y-105054441D01*
X106401588Y-105197298D01*
X106449207Y-105387774D01*
X106496826Y-105483012D01*
X106592064Y-105578250D01*
X106734921Y-105625869D01*
X106973017Y-105625869D01*
X105544445Y-104625869D02*
X105734921Y-104625869D01*
X105830160Y-104673489D01*
X105877779Y-104721108D01*
X105973017Y-104863965D01*
X106020636Y-105054441D01*
X106020636Y-105435393D01*
X105973017Y-105530631D01*
X105925398Y-105578250D01*
X105830160Y-105625869D01*
X105639683Y-105625869D01*
X105544445Y-105578250D01*
X105496826Y-105530631D01*
X105449207Y-105435393D01*
X105449207Y-105197298D01*
X105496826Y-105102060D01*
X105544445Y-105054441D01*
X105639683Y-105006822D01*
X105830160Y-105006822D01*
X105925398Y-105054441D01*
X105973017Y-105102060D01*
X106020636Y-105197298D01*
X104830160Y-104625869D02*
X104734921Y-104625869D01*
X104639683Y-104673489D01*
X104592064Y-104721108D01*
X104544445Y-104816346D01*
X104496826Y-105006822D01*
X104496826Y-105244917D01*
X104544445Y-105435393D01*
X104592064Y-105530631D01*
X104639683Y-105578250D01*
X104734921Y-105625869D01*
X104830160Y-105625869D01*
X104925398Y-105578250D01*
X104973017Y-105530631D01*
X105020636Y-105435393D01*
X105068255Y-105244917D01*
X105068255Y-105006822D01*
X105020636Y-104816346D01*
X104973017Y-104721108D01*
X104925398Y-104673489D01*
X104830160Y-104625869D01*
X103639683Y-104959203D02*
X103639683Y-105625869D01*
X103877779Y-104578250D02*
X104115874Y-105292536D01*
X103496826Y-105292536D01*
D11*
X106874771Y-107059203D02*
X107046200Y-107059203D01*
X106960486Y-107059203D02*
X106960486Y-106759203D01*
X106989057Y-106802060D01*
X107017628Y-106830631D01*
X107046200Y-106844917D01*
D10*
%TO.C,C607*%
X88357142Y-106680952D02*
X88404761Y-106633333D01*
X88452380Y-106490476D01*
X88452380Y-106395238D01*
X88404761Y-106252380D01*
X88309523Y-106157142D01*
X88214285Y-106109523D01*
X88023809Y-106061904D01*
X87880952Y-106061904D01*
X87690476Y-106109523D01*
X87595238Y-106157142D01*
X87500000Y-106252380D01*
X87452380Y-106395238D01*
X87452380Y-106490476D01*
X87500000Y-106633333D01*
X87547619Y-106680952D01*
X87452380Y-107538095D02*
X87452380Y-107347619D01*
X87500000Y-107252380D01*
X87547619Y-107204761D01*
X87690476Y-107109523D01*
X87880952Y-107061904D01*
X88261904Y-107061904D01*
X88357142Y-107109523D01*
X88404761Y-107157142D01*
X88452380Y-107252380D01*
X88452380Y-107442857D01*
X88404761Y-107538095D01*
X88357142Y-107585714D01*
X88261904Y-107633333D01*
X88023809Y-107633333D01*
X87928571Y-107585714D01*
X87880952Y-107538095D01*
X87833333Y-107442857D01*
X87833333Y-107252380D01*
X87880952Y-107157142D01*
X87928571Y-107109523D01*
X88023809Y-107061904D01*
X87452380Y-108252380D02*
X87452380Y-108347619D01*
X87500000Y-108442857D01*
X87547619Y-108490476D01*
X87642857Y-108538095D01*
X87833333Y-108585714D01*
X88071428Y-108585714D01*
X88261904Y-108538095D01*
X88357142Y-108490476D01*
X88404761Y-108442857D01*
X88452380Y-108347619D01*
X88452380Y-108252380D01*
X88404761Y-108157142D01*
X88357142Y-108109523D01*
X88261904Y-108061904D01*
X88071428Y-108014285D01*
X87833333Y-108014285D01*
X87642857Y-108061904D01*
X87547619Y-108109523D01*
X87500000Y-108157142D01*
X87452380Y-108252380D01*
X87452380Y-108919047D02*
X87452380Y-109585714D01*
X88452380Y-109157142D01*
%TO.C,D610*%
X74468893Y-105625869D02*
X74468893Y-104625869D01*
X74230797Y-104625869D01*
X74087940Y-104673489D01*
X73992702Y-104768727D01*
X73945083Y-104863965D01*
X73897464Y-105054441D01*
X73897464Y-105197298D01*
X73945083Y-105387774D01*
X73992702Y-105483012D01*
X74087940Y-105578250D01*
X74230797Y-105625869D01*
X74468893Y-105625869D01*
X73040321Y-104625869D02*
X73230797Y-104625869D01*
X73326036Y-104673489D01*
X73373655Y-104721108D01*
X73468893Y-104863965D01*
X73516512Y-105054441D01*
X73516512Y-105435393D01*
X73468893Y-105530631D01*
X73421274Y-105578250D01*
X73326036Y-105625869D01*
X73135559Y-105625869D01*
X73040321Y-105578250D01*
X72992702Y-105530631D01*
X72945083Y-105435393D01*
X72945083Y-105197298D01*
X72992702Y-105102060D01*
X73040321Y-105054441D01*
X73135559Y-105006822D01*
X73326036Y-105006822D01*
X73421274Y-105054441D01*
X73468893Y-105102060D01*
X73516512Y-105197298D01*
X71992702Y-105625869D02*
X72564131Y-105625869D01*
X72278417Y-105625869D02*
X72278417Y-104625869D01*
X72373655Y-104768727D01*
X72468893Y-104863965D01*
X72564131Y-104911584D01*
X71373655Y-104625869D02*
X71278417Y-104625869D01*
X71183178Y-104673489D01*
X71135559Y-104721108D01*
X71087940Y-104816346D01*
X71040321Y-105006822D01*
X71040321Y-105244917D01*
X71087940Y-105435393D01*
X71135559Y-105530631D01*
X71183178Y-105578250D01*
X71278417Y-105625869D01*
X71373655Y-105625869D01*
X71468893Y-105578250D01*
X71516512Y-105530631D01*
X71564131Y-105435393D01*
X71611750Y-105244917D01*
X71611750Y-105006822D01*
X71564131Y-104816346D01*
X71516512Y-104721108D01*
X71468893Y-104673489D01*
X71373655Y-104625869D01*
D11*
X74370647Y-107009203D02*
X74542076Y-107009203D01*
X74456362Y-107009203D02*
X74456362Y-106709203D01*
X74484933Y-106752060D01*
X74513504Y-106780631D01*
X74542076Y-106794917D01*
D10*
%TO.C,D608*%
X85303601Y-105625869D02*
X85303601Y-104625869D01*
X85065505Y-104625869D01*
X84922648Y-104673489D01*
X84827410Y-104768727D01*
X84779791Y-104863965D01*
X84732172Y-105054441D01*
X84732172Y-105197298D01*
X84779791Y-105387774D01*
X84827410Y-105483012D01*
X84922648Y-105578250D01*
X85065505Y-105625869D01*
X85303601Y-105625869D01*
X83875029Y-104625869D02*
X84065505Y-104625869D01*
X84160744Y-104673489D01*
X84208363Y-104721108D01*
X84303601Y-104863965D01*
X84351220Y-105054441D01*
X84351220Y-105435393D01*
X84303601Y-105530631D01*
X84255982Y-105578250D01*
X84160744Y-105625869D01*
X83970267Y-105625869D01*
X83875029Y-105578250D01*
X83827410Y-105530631D01*
X83779791Y-105435393D01*
X83779791Y-105197298D01*
X83827410Y-105102060D01*
X83875029Y-105054441D01*
X83970267Y-105006822D01*
X84160744Y-105006822D01*
X84255982Y-105054441D01*
X84303601Y-105102060D01*
X84351220Y-105197298D01*
X83160744Y-104625869D02*
X83065505Y-104625869D01*
X82970267Y-104673489D01*
X82922648Y-104721108D01*
X82875029Y-104816346D01*
X82827410Y-105006822D01*
X82827410Y-105244917D01*
X82875029Y-105435393D01*
X82922648Y-105530631D01*
X82970267Y-105578250D01*
X83065505Y-105625869D01*
X83160744Y-105625869D01*
X83255982Y-105578250D01*
X83303601Y-105530631D01*
X83351220Y-105435393D01*
X83398839Y-105244917D01*
X83398839Y-105006822D01*
X83351220Y-104816346D01*
X83303601Y-104721108D01*
X83255982Y-104673489D01*
X83160744Y-104625869D01*
X82255982Y-105054441D02*
X82351220Y-105006822D01*
X82398839Y-104959203D01*
X82446458Y-104863965D01*
X82446458Y-104816346D01*
X82398839Y-104721108D01*
X82351220Y-104673489D01*
X82255982Y-104625869D01*
X82065505Y-104625869D01*
X81970267Y-104673489D01*
X81922648Y-104721108D01*
X81875029Y-104816346D01*
X81875029Y-104863965D01*
X81922648Y-104959203D01*
X81970267Y-105006822D01*
X82065505Y-105054441D01*
X82255982Y-105054441D01*
X82351220Y-105102060D01*
X82398839Y-105149679D01*
X82446458Y-105244917D01*
X82446458Y-105435393D01*
X82398839Y-105530631D01*
X82351220Y-105578250D01*
X82255982Y-105625869D01*
X82065505Y-105625869D01*
X81970267Y-105578250D01*
X81922648Y-105530631D01*
X81875029Y-105435393D01*
X81875029Y-105244917D01*
X81922648Y-105149679D01*
X81970267Y-105102060D01*
X82065505Y-105054441D01*
D11*
X85205355Y-107059203D02*
X85376784Y-107059203D01*
X85291070Y-107059203D02*
X85291070Y-106759203D01*
X85319641Y-106802060D01*
X85348212Y-106830631D01*
X85376784Y-106844917D01*
D10*
%TO.C,C610*%
X72157142Y-106680952D02*
X72204761Y-106633333D01*
X72252380Y-106490476D01*
X72252380Y-106395238D01*
X72204761Y-106252380D01*
X72109523Y-106157142D01*
X72014285Y-106109523D01*
X71823809Y-106061904D01*
X71680952Y-106061904D01*
X71490476Y-106109523D01*
X71395238Y-106157142D01*
X71300000Y-106252380D01*
X71252380Y-106395238D01*
X71252380Y-106490476D01*
X71300000Y-106633333D01*
X71347619Y-106680952D01*
X71252380Y-107538095D02*
X71252380Y-107347619D01*
X71300000Y-107252380D01*
X71347619Y-107204761D01*
X71490476Y-107109523D01*
X71680952Y-107061904D01*
X72061904Y-107061904D01*
X72157142Y-107109523D01*
X72204761Y-107157142D01*
X72252380Y-107252380D01*
X72252380Y-107442857D01*
X72204761Y-107538095D01*
X72157142Y-107585714D01*
X72061904Y-107633333D01*
X71823809Y-107633333D01*
X71728571Y-107585714D01*
X71680952Y-107538095D01*
X71633333Y-107442857D01*
X71633333Y-107252380D01*
X71680952Y-107157142D01*
X71728571Y-107109523D01*
X71823809Y-107061904D01*
X72252380Y-108585714D02*
X72252380Y-108014285D01*
X72252380Y-108300000D02*
X71252380Y-108300000D01*
X71395238Y-108204761D01*
X71490476Y-108109523D01*
X71538095Y-108014285D01*
X71252380Y-109204761D02*
X71252380Y-109300000D01*
X71300000Y-109395238D01*
X71347619Y-109442857D01*
X71442857Y-109490476D01*
X71633333Y-109538095D01*
X71871428Y-109538095D01*
X72061904Y-109490476D01*
X72157142Y-109442857D01*
X72204761Y-109395238D01*
X72252380Y-109300000D01*
X72252380Y-109204761D01*
X72204761Y-109109523D01*
X72157142Y-109061904D01*
X72061904Y-109014285D01*
X71871428Y-108966666D01*
X71633333Y-108966666D01*
X71442857Y-109014285D01*
X71347619Y-109061904D01*
X71300000Y-109109523D01*
X71252380Y-109204761D01*
%TO.C,D603*%
X112390371Y-105625869D02*
X112390371Y-104625869D01*
X112152275Y-104625869D01*
X112009418Y-104673489D01*
X111914180Y-104768727D01*
X111866561Y-104863965D01*
X111818942Y-105054441D01*
X111818942Y-105197298D01*
X111866561Y-105387774D01*
X111914180Y-105483012D01*
X112009418Y-105578250D01*
X112152275Y-105625869D01*
X112390371Y-105625869D01*
X110961799Y-104625869D02*
X111152275Y-104625869D01*
X111247514Y-104673489D01*
X111295133Y-104721108D01*
X111390371Y-104863965D01*
X111437990Y-105054441D01*
X111437990Y-105435393D01*
X111390371Y-105530631D01*
X111342752Y-105578250D01*
X111247514Y-105625869D01*
X111057037Y-105625869D01*
X110961799Y-105578250D01*
X110914180Y-105530631D01*
X110866561Y-105435393D01*
X110866561Y-105197298D01*
X110914180Y-105102060D01*
X110961799Y-105054441D01*
X111057037Y-105006822D01*
X111247514Y-105006822D01*
X111342752Y-105054441D01*
X111390371Y-105102060D01*
X111437990Y-105197298D01*
X110247514Y-104625869D02*
X110152275Y-104625869D01*
X110057037Y-104673489D01*
X110009418Y-104721108D01*
X109961799Y-104816346D01*
X109914180Y-105006822D01*
X109914180Y-105244917D01*
X109961799Y-105435393D01*
X110009418Y-105530631D01*
X110057037Y-105578250D01*
X110152275Y-105625869D01*
X110247514Y-105625869D01*
X110342752Y-105578250D01*
X110390371Y-105530631D01*
X110437990Y-105435393D01*
X110485609Y-105244917D01*
X110485609Y-105006822D01*
X110437990Y-104816346D01*
X110390371Y-104721108D01*
X110342752Y-104673489D01*
X110247514Y-104625869D01*
X109580847Y-104625869D02*
X108961799Y-104625869D01*
X109295133Y-105006822D01*
X109152275Y-105006822D01*
X109057037Y-105054441D01*
X109009418Y-105102060D01*
X108961799Y-105197298D01*
X108961799Y-105435393D01*
X109009418Y-105530631D01*
X109057037Y-105578250D01*
X109152275Y-105625869D01*
X109437990Y-105625869D01*
X109533228Y-105578250D01*
X109580847Y-105530631D01*
D11*
X112292125Y-107059203D02*
X112463554Y-107059203D01*
X112377840Y-107059203D02*
X112377840Y-106759203D01*
X112406411Y-106802060D01*
X112434982Y-106830631D01*
X112463554Y-106844917D01*
D10*
%TO.C,C603*%
X110157142Y-106580952D02*
X110204761Y-106533333D01*
X110252380Y-106390476D01*
X110252380Y-106295238D01*
X110204761Y-106152380D01*
X110109523Y-106057142D01*
X110014285Y-106009523D01*
X109823809Y-105961904D01*
X109680952Y-105961904D01*
X109490476Y-106009523D01*
X109395238Y-106057142D01*
X109300000Y-106152380D01*
X109252380Y-106295238D01*
X109252380Y-106390476D01*
X109300000Y-106533333D01*
X109347619Y-106580952D01*
X109252380Y-107438095D02*
X109252380Y-107247619D01*
X109300000Y-107152380D01*
X109347619Y-107104761D01*
X109490476Y-107009523D01*
X109680952Y-106961904D01*
X110061904Y-106961904D01*
X110157142Y-107009523D01*
X110204761Y-107057142D01*
X110252380Y-107152380D01*
X110252380Y-107342857D01*
X110204761Y-107438095D01*
X110157142Y-107485714D01*
X110061904Y-107533333D01*
X109823809Y-107533333D01*
X109728571Y-107485714D01*
X109680952Y-107438095D01*
X109633333Y-107342857D01*
X109633333Y-107152380D01*
X109680952Y-107057142D01*
X109728571Y-107009523D01*
X109823809Y-106961904D01*
X109252380Y-108152380D02*
X109252380Y-108247619D01*
X109300000Y-108342857D01*
X109347619Y-108390476D01*
X109442857Y-108438095D01*
X109633333Y-108485714D01*
X109871428Y-108485714D01*
X110061904Y-108438095D01*
X110157142Y-108390476D01*
X110204761Y-108342857D01*
X110252380Y-108247619D01*
X110252380Y-108152380D01*
X110204761Y-108057142D01*
X110157142Y-108009523D01*
X110061904Y-107961904D01*
X109871428Y-107914285D01*
X109633333Y-107914285D01*
X109442857Y-107961904D01*
X109347619Y-108009523D01*
X109300000Y-108057142D01*
X109252380Y-108152380D01*
X109252380Y-108819047D02*
X109252380Y-109438095D01*
X109633333Y-109104761D01*
X109633333Y-109247619D01*
X109680952Y-109342857D01*
X109728571Y-109390476D01*
X109823809Y-109438095D01*
X110061904Y-109438095D01*
X110157142Y-109390476D01*
X110204761Y-109342857D01*
X110252380Y-109247619D01*
X110252380Y-108961904D01*
X110204761Y-108866666D01*
X110157142Y-108819047D01*
%TO.C,D609*%
X80691027Y-105625869D02*
X80691027Y-104625869D01*
X80452931Y-104625869D01*
X80310074Y-104673489D01*
X80214836Y-104768727D01*
X80167217Y-104863965D01*
X80119598Y-105054441D01*
X80119598Y-105197298D01*
X80167217Y-105387774D01*
X80214836Y-105483012D01*
X80310074Y-105578250D01*
X80452931Y-105625869D01*
X80691027Y-105625869D01*
X79262455Y-104625869D02*
X79452931Y-104625869D01*
X79548170Y-104673489D01*
X79595789Y-104721108D01*
X79691027Y-104863965D01*
X79738646Y-105054441D01*
X79738646Y-105435393D01*
X79691027Y-105530631D01*
X79643408Y-105578250D01*
X79548170Y-105625869D01*
X79357693Y-105625869D01*
X79262455Y-105578250D01*
X79214836Y-105530631D01*
X79167217Y-105435393D01*
X79167217Y-105197298D01*
X79214836Y-105102060D01*
X79262455Y-105054441D01*
X79357693Y-105006822D01*
X79548170Y-105006822D01*
X79643408Y-105054441D01*
X79691027Y-105102060D01*
X79738646Y-105197298D01*
X78548170Y-104625869D02*
X78452931Y-104625869D01*
X78357693Y-104673489D01*
X78310074Y-104721108D01*
X78262455Y-104816346D01*
X78214836Y-105006822D01*
X78214836Y-105244917D01*
X78262455Y-105435393D01*
X78310074Y-105530631D01*
X78357693Y-105578250D01*
X78452931Y-105625869D01*
X78548170Y-105625869D01*
X78643408Y-105578250D01*
X78691027Y-105530631D01*
X78738646Y-105435393D01*
X78786265Y-105244917D01*
X78786265Y-105006822D01*
X78738646Y-104816346D01*
X78691027Y-104721108D01*
X78643408Y-104673489D01*
X78548170Y-104625869D01*
X77738646Y-105625869D02*
X77548170Y-105625869D01*
X77452931Y-105578250D01*
X77405312Y-105530631D01*
X77310074Y-105387774D01*
X77262455Y-105197298D01*
X77262455Y-104816346D01*
X77310074Y-104721108D01*
X77357693Y-104673489D01*
X77452931Y-104625869D01*
X77643408Y-104625869D01*
X77738646Y-104673489D01*
X77786265Y-104721108D01*
X77833884Y-104816346D01*
X77833884Y-105054441D01*
X77786265Y-105149679D01*
X77738646Y-105197298D01*
X77643408Y-105244917D01*
X77452931Y-105244917D01*
X77357693Y-105197298D01*
X77310074Y-105149679D01*
X77262455Y-105054441D01*
D11*
X79788001Y-107059203D02*
X79959430Y-107059203D01*
X79873716Y-107059203D02*
X79873716Y-106759203D01*
X79902287Y-106802060D01*
X79930858Y-106830631D01*
X79959430Y-106844917D01*
D12*
%TO.C,D611*%
X67264008Y-107123489D02*
X67264008Y-106473489D01*
X67264008Y-106473489D02*
X67914008Y-106473489D01*
D13*
%TO.C,C609*%
X78847879Y-109360000D02*
X79063551Y-109360000D01*
X78847879Y-108640000D02*
X79063551Y-108640000D01*
D12*
%TO.C,D605*%
X99768132Y-106523489D02*
X100418132Y-106523489D01*
X99768132Y-107173489D02*
X99768132Y-106523489D01*
%TO.C,D600*%
X126854903Y-106523489D02*
X127504903Y-106523489D01*
X126854903Y-107173489D02*
X126854903Y-106523489D01*
%TO.C,D607*%
X88933424Y-107173489D02*
X88933424Y-106523489D01*
X88933424Y-106523489D02*
X89583424Y-106523489D01*
D13*
%TO.C,C606*%
X95099365Y-109360000D02*
X95315037Y-109360000D01*
X95099365Y-108640000D02*
X95315037Y-108640000D01*
D12*
%TO.C,D601*%
X121437548Y-107173489D02*
X121437548Y-106523489D01*
X121437548Y-106523489D02*
X122087548Y-106523489D01*
D13*
%TO.C,C605*%
X100516990Y-108640000D02*
X100732662Y-108640000D01*
X100516990Y-109360000D02*
X100732662Y-109360000D01*
%TO.C,C601*%
X122177133Y-109360000D02*
X122392805Y-109360000D01*
X122177133Y-108640000D02*
X122392805Y-108640000D01*
%TO.C,C600*%
X127601703Y-109360000D02*
X127817375Y-109360000D01*
X127601703Y-108640000D02*
X127817375Y-108640000D01*
%TO.C,C611*%
X68002164Y-109360000D02*
X68217836Y-109360000D01*
X68002164Y-108640000D02*
X68217836Y-108640000D01*
%TO.C,C604*%
X105930367Y-108640000D02*
X106146039Y-108640000D01*
X105930367Y-109360000D02*
X106146039Y-109360000D01*
D12*
%TO.C,D606*%
X94350778Y-107173489D02*
X94350778Y-106523489D01*
X94350778Y-106523489D02*
X95000778Y-106523489D01*
D13*
%TO.C,C608*%
X84263035Y-108640000D02*
X84478707Y-108640000D01*
X84263035Y-109360000D02*
X84478707Y-109360000D01*
%TO.C,C602*%
X116765257Y-108640000D02*
X116980929Y-108640000D01*
X116765257Y-109360000D02*
X116980929Y-109360000D01*
%TO.C,R60*%
X125046359Y-105720000D02*
X125353641Y-105720000D01*
X125046359Y-106480000D02*
X125353641Y-106480000D01*
D12*
%TO.C,D602*%
X116020194Y-107173489D02*
X116020194Y-106523489D01*
X116020194Y-106523489D02*
X116670194Y-106523489D01*
%TO.C,D604*%
X105185486Y-107173489D02*
X105185486Y-106523489D01*
X105185486Y-106523489D02*
X105835486Y-106523489D01*
D13*
%TO.C,C607*%
X89681431Y-108640000D02*
X89897103Y-108640000D01*
X89681431Y-109360000D02*
X89897103Y-109360000D01*
D12*
%TO.C,D610*%
X72681362Y-106473489D02*
X73331362Y-106473489D01*
X72681362Y-107123489D02*
X72681362Y-106473489D01*
%TO.C,D608*%
X83516070Y-107173489D02*
X83516070Y-106523489D01*
X83516070Y-106523489D02*
X84166070Y-106523489D01*
D13*
%TO.C,C610*%
X73426010Y-109360000D02*
X73641682Y-109360000D01*
X73426010Y-108640000D02*
X73641682Y-108640000D01*
D12*
%TO.C,D603*%
X110602840Y-107173489D02*
X110602840Y-106523489D01*
X110602840Y-106523489D02*
X111252840Y-106523489D01*
D13*
%TO.C,C603*%
X111343620Y-109360000D02*
X111559292Y-109360000D01*
X111343620Y-108640000D02*
X111559292Y-108640000D01*
D12*
%TO.C,D609*%
X78098716Y-106523489D02*
X78748716Y-106523489D01*
X78098716Y-107173489D02*
X78098716Y-106523489D01*
%TD*%
M02*
