%TF.GenerationSoftware,KiCad,Pcbnew,(5.1.9)-1*%
%TF.CreationDate,2021-12-20T00:17:31+00:00*%
%TF.ProjectId,BM83 breakout,424d3833-2062-4726-9561-6b6f75742e6b,rev?*%
%TF.SameCoordinates,Original*%
%TF.FileFunction,Soldermask,Bot*%
%TF.FilePolarity,Negative*%
%FSLAX46Y46*%
G04 Gerber Fmt 4.6, Leading zero omitted, Abs format (unit mm)*
G04 Created by KiCad (PCBNEW (5.1.9)-1) date 2021-12-20 00:17:31*
%MOMM*%
%LPD*%
G01*
G04 APERTURE LIST*
%ADD10O,1.900000X1.200000*%
%ADD11C,1.450000*%
%ADD12O,1.700000X1.700000*%
%ADD13R,1.700000X1.700000*%
G04 APERTURE END LIST*
D10*
%TO.C,J3*%
X135349500Y-94036000D03*
X135349500Y-101036000D03*
D11*
X132649500Y-95036000D03*
X132649500Y-100036000D03*
%TD*%
D12*
%TO.C,J1*%
X134620000Y-111760000D03*
X132080000Y-111760000D03*
X129540000Y-111760000D03*
X127000000Y-111760000D03*
X124460000Y-111760000D03*
X121920000Y-111760000D03*
X119380000Y-111760000D03*
X116840000Y-111760000D03*
X114300000Y-111760000D03*
X111760000Y-111760000D03*
X109220000Y-111760000D03*
X106680000Y-111760000D03*
X104140000Y-111760000D03*
X101600000Y-111760000D03*
X99060000Y-111760000D03*
X96520000Y-111760000D03*
X93980000Y-111760000D03*
X91440000Y-111760000D03*
X88900000Y-111760000D03*
X86360000Y-111760000D03*
X83820000Y-111760000D03*
X81280000Y-111760000D03*
X78740000Y-111760000D03*
X76200000Y-111760000D03*
D13*
X73660000Y-111760000D03*
%TD*%
D12*
%TO.C,JP1*%
X118872000Y-93472000D03*
D13*
X118872000Y-96012000D03*
%TD*%
D12*
%TO.C,J2*%
X134620000Y-83820000D03*
X132080000Y-83820000D03*
X129540000Y-83820000D03*
X127000000Y-83820000D03*
X124460000Y-83820000D03*
X121920000Y-83820000D03*
X119380000Y-83820000D03*
X116840000Y-83820000D03*
X114300000Y-83820000D03*
X111760000Y-83820000D03*
X109220000Y-83820000D03*
X106680000Y-83820000D03*
X104140000Y-83820000D03*
X101600000Y-83820000D03*
X99060000Y-83820000D03*
X96520000Y-83820000D03*
X93980000Y-83820000D03*
X91440000Y-83820000D03*
X88900000Y-83820000D03*
X86360000Y-83820000D03*
X83820000Y-83820000D03*
X81280000Y-83820000D03*
X78740000Y-83820000D03*
X76200000Y-83820000D03*
D13*
X73660000Y-83820000D03*
%TD*%
M02*
