M48
; DRILL file {KiCad (5.1.9)-1} date 12/20/21 00:17:37
; FORMAT={-:-/ absolute / inch / decimal}
; #@! TF.CreationDate,2021-12-20T00:17:37+00:00
; #@! TF.GenerationSoftware,Kicad,Pcbnew,(5.1.9)-1
FMAT,2
INCH
T1C0.0157
T2C0.0236
T3C0.0335
T4C0.0394
%
G90
G05
T1
X2.86Y-3.5
X2.86Y-3.84
X3.04Y-3.64
X3.04Y-3.78
X3.04Y-3.9
X3.04Y-4.04
X3.2Y-3.48
X3.2Y-3.64
X3.2Y-3.78
X3.2Y-3.9
X3.2Y-4.04
X3.38Y-3.78
X3.38Y-3.9
X3.38Y-4.04
X3.4Y-4.18
X3.4006Y-3.5
X3.44Y-3.5
X3.44Y-4.18
X3.48Y-3.5
X3.52Y-3.5
X3.52Y-4.18
X3.56Y-3.5
X3.56Y-4.18
X3.58Y-3.64
X3.58Y-3.78
X3.58Y-3.9
X3.58Y-4.04
X3.6Y-3.5
X3.6Y-4.18
X3.64Y-3.5
X3.64Y-4.18
X3.7Y-3.58
X3.72Y-3.52
X3.74Y-4.12
X3.7787Y-3.5987
X3.8201Y-3.5995
X3.86Y-3.6
X3.86Y-3.82
X3.88Y-4.12
X3.8998Y-3.5998
X3.94Y-3.6
X3.94Y-3.74
X4.02Y-4.12
X4.0362Y-3.9038
X4.0744Y-3.6344
X4.1Y-3.74
X4.14Y-3.3593
X4.14Y-3.4007
X4.14Y-4.16
X4.24Y-3.74
X4.26Y-3.9
X4.28Y-4.16
X4.37Y-3.43
X4.42Y-3.62
X4.42Y-3.74
X4.42Y-3.9
X4.42Y-4.16
X4.56Y-3.44
X4.56Y-4.16
X4.58Y-3.64
X4.62Y-3.96
X4.66Y-3.44
X4.68Y-4.16
X4.78Y-3.96
X4.78Y-4.16
X4.84Y-3.64
X4.84Y-4.2
X4.84Y-4.3
X4.94Y-3.76
X4.94Y-3.96
X5.0Y-4.26
X5.02Y-3.64
X5.06Y-3.86
X5.06Y-4.06
X5.1Y-3.92
X5.18Y-3.52
X5.18Y-4.18
X5.3Y-3.42
X5.3Y-3.56
X5.3Y-4.14
X5.3Y-4.3
T3
X5.2224Y-3.7416
X5.2224Y-3.9384
T4
X2.9Y-3.3
X2.9Y-4.4
X3.0Y-3.3
X3.0Y-4.4
X3.1Y-3.3
X3.1Y-4.4
X3.2Y-3.3
X3.2Y-4.4
X3.3Y-3.3
X3.3Y-4.4
X3.4Y-3.3
X3.4Y-4.4
X3.5Y-3.3
X3.5Y-4.4
X3.6Y-3.3
X3.6Y-4.4
X3.7Y-3.3
X3.7Y-4.4
X3.8Y-3.3
X3.8Y-4.4
X3.9Y-3.3
X3.9Y-4.4
X4.0Y-3.3
X4.0Y-4.4
X4.1Y-3.3
X4.1Y-4.4
X4.2Y-3.3
X4.2Y-4.4
X4.3Y-3.3
X4.3Y-4.4
X4.4Y-3.3
X4.4Y-4.4
X4.5Y-3.3
X4.5Y-4.4
X4.6Y-3.3
X4.6Y-4.4
X4.68Y-3.68
X4.68Y-3.78
X4.7Y-3.3
X4.7Y-4.4
X4.8Y-3.3
X4.8Y-4.4
X4.9Y-3.3
X4.9Y-4.4
X5.0Y-3.3
X5.0Y-4.4
X5.1Y-3.3
X5.1Y-4.4
X5.2Y-3.3
X5.2Y-4.4
X5.3Y-3.3
X5.3Y-4.4
T2
G00X5.3149Y-3.7022
M15
G01X5.3425Y-3.7022
M16
G05
G00X5.3425Y-3.9778
M15
G01X5.3149Y-3.9778
M16
G05
T0
M30
