%TF.GenerationSoftware,KiCad,Pcbnew,(6.0.0)*%
%TF.CreationDate,2022-04-23T22:24:28+01:00*%
%TF.ProjectId,main,6d61696e-2e6b-4696-9361-645f70636258,rev?*%
%TF.SameCoordinates,Original*%
%TF.FileFunction,Legend,Bot*%
%TF.FilePolarity,Positive*%
%FSLAX46Y46*%
G04 Gerber Fmt 4.6, Leading zero omitted, Abs format (unit mm)*
G04 Created by KiCad (PCBNEW (6.0.0)) date 2022-04-23 22:24:28*
%MOMM*%
%LPD*%
G01*
G04 APERTURE LIST*
%ADD10C,0.150000*%
%ADD11C,0.075000*%
%ADD12C,0.120000*%
%ADD13C,0.203200*%
%ADD14C,0.100000*%
G04 APERTURE END LIST*
D10*
X86900000Y-87100000D02*
X86900000Y-93900000D01*
X93000000Y-90000000D02*
X92800000Y-90200000D01*
X86900000Y-95800000D02*
X88500000Y-95800000D01*
X93000000Y-87400000D02*
X92900000Y-87500000D01*
X111200000Y-80300000D02*
X111200000Y-85700000D01*
X86900000Y-89900000D02*
X87200000Y-90000000D01*
X98200000Y-95700000D02*
X98200000Y-96000000D01*
X93000000Y-93300000D02*
X90800000Y-93300000D01*
X108000000Y-85700000D02*
X108000000Y-80300000D01*
X86900000Y-87400000D02*
X87100000Y-87600000D01*
X93000000Y-94200000D02*
X92800000Y-94400000D01*
X90800000Y-93300000D02*
X90600000Y-93500000D01*
X93300000Y-81550000D02*
X93300000Y-87050000D01*
X89100000Y-81500000D02*
X89100000Y-87100000D01*
X85900000Y-87100000D02*
X85900000Y-81500000D01*
X86900000Y-93900000D02*
X87200000Y-94100000D01*
X93000000Y-87100000D02*
X93000000Y-94200000D01*
X93300000Y-87050000D02*
X90100000Y-87050000D01*
X89100000Y-87100000D02*
X85900000Y-87100000D01*
X108000000Y-81900000D02*
X107700000Y-81500000D01*
X108000000Y-80300000D02*
X111200000Y-80300000D01*
X86900000Y-91900000D02*
X87200000Y-92000000D01*
X90100000Y-87050000D02*
X90100000Y-81550000D01*
X107700000Y-81500000D02*
X107700000Y-80000000D01*
%TO.C,TP71*%
X97338095Y-82152380D02*
X96766666Y-82152380D01*
X97052380Y-83152380D02*
X97052380Y-82152380D01*
X96433333Y-83152380D02*
X96433333Y-82152380D01*
X96052380Y-82152380D01*
X95957142Y-82200000D01*
X95909523Y-82247619D01*
X95861904Y-82342857D01*
X95861904Y-82485714D01*
X95909523Y-82580952D01*
X95957142Y-82628571D01*
X96052380Y-82676190D01*
X96433333Y-82676190D01*
X95528571Y-82152380D02*
X94861904Y-82152380D01*
X95290476Y-83152380D01*
X93957142Y-83152380D02*
X94528571Y-83152380D01*
X94242857Y-83152380D02*
X94242857Y-82152380D01*
X94338095Y-82295238D01*
X94433333Y-82390476D01*
X94528571Y-82438095D01*
%TO.C,TP32*%
X100938095Y-83952380D02*
X100366666Y-83952380D01*
X100652380Y-84952380D02*
X100652380Y-83952380D01*
X100033333Y-84952380D02*
X100033333Y-83952380D01*
X99652380Y-83952380D01*
X99557142Y-84000000D01*
X99509523Y-84047619D01*
X99461904Y-84142857D01*
X99461904Y-84285714D01*
X99509523Y-84380952D01*
X99557142Y-84428571D01*
X99652380Y-84476190D01*
X100033333Y-84476190D01*
X99128571Y-83952380D02*
X98509523Y-83952380D01*
X98842857Y-84333333D01*
X98700000Y-84333333D01*
X98604761Y-84380952D01*
X98557142Y-84428571D01*
X98509523Y-84523809D01*
X98509523Y-84761904D01*
X98557142Y-84857142D01*
X98604761Y-84904761D01*
X98700000Y-84952380D01*
X98985714Y-84952380D01*
X99080952Y-84904761D01*
X99128571Y-84857142D01*
X98128571Y-84047619D02*
X98080952Y-84000000D01*
X97985714Y-83952380D01*
X97747619Y-83952380D01*
X97652380Y-84000000D01*
X97604761Y-84047619D01*
X97557142Y-84142857D01*
X97557142Y-84238095D01*
X97604761Y-84380952D01*
X98176190Y-84952380D01*
X97557142Y-84952380D01*
%TO.C,TP30*%
X105738095Y-82152380D02*
X105166666Y-82152380D01*
X105452380Y-83152380D02*
X105452380Y-82152380D01*
X104833333Y-83152380D02*
X104833333Y-82152380D01*
X104452380Y-82152380D01*
X104357142Y-82200000D01*
X104309523Y-82247619D01*
X104261904Y-82342857D01*
X104261904Y-82485714D01*
X104309523Y-82580952D01*
X104357142Y-82628571D01*
X104452380Y-82676190D01*
X104833333Y-82676190D01*
X103928571Y-82152380D02*
X103309523Y-82152380D01*
X103642857Y-82533333D01*
X103500000Y-82533333D01*
X103404761Y-82580952D01*
X103357142Y-82628571D01*
X103309523Y-82723809D01*
X103309523Y-82961904D01*
X103357142Y-83057142D01*
X103404761Y-83104761D01*
X103500000Y-83152380D01*
X103785714Y-83152380D01*
X103880952Y-83104761D01*
X103928571Y-83057142D01*
X102690476Y-82152380D02*
X102595238Y-82152380D01*
X102500000Y-82200000D01*
X102452380Y-82247619D01*
X102404761Y-82342857D01*
X102357142Y-82533333D01*
X102357142Y-82771428D01*
X102404761Y-82961904D01*
X102452380Y-83057142D01*
X102500000Y-83104761D01*
X102595238Y-83152380D01*
X102690476Y-83152380D01*
X102785714Y-83104761D01*
X102833333Y-83057142D01*
X102880952Y-82961904D01*
X102928571Y-82771428D01*
X102928571Y-82533333D01*
X102880952Y-82342857D01*
X102833333Y-82247619D01*
X102785714Y-82200000D01*
X102690476Y-82152380D01*
%TO.C,C76*%
X110242857Y-85857142D02*
X110290476Y-85904761D01*
X110433333Y-85952380D01*
X110528571Y-85952380D01*
X110671428Y-85904761D01*
X110766666Y-85809523D01*
X110814285Y-85714285D01*
X110861904Y-85523809D01*
X110861904Y-85380952D01*
X110814285Y-85190476D01*
X110766666Y-85095238D01*
X110671428Y-85000000D01*
X110528571Y-84952380D01*
X110433333Y-84952380D01*
X110290476Y-85000000D01*
X110242857Y-85047619D01*
X109909523Y-84952380D02*
X109242857Y-84952380D01*
X109671428Y-85952380D01*
X108433333Y-84952380D02*
X108623809Y-84952380D01*
X108719047Y-85000000D01*
X108766666Y-85047619D01*
X108861904Y-85190476D01*
X108909523Y-85380952D01*
X108909523Y-85761904D01*
X108861904Y-85857142D01*
X108814285Y-85904761D01*
X108719047Y-85952380D01*
X108528571Y-85952380D01*
X108433333Y-85904761D01*
X108385714Y-85857142D01*
X108338095Y-85761904D01*
X108338095Y-85523809D01*
X108385714Y-85428571D01*
X108433333Y-85380952D01*
X108528571Y-85333333D01*
X108719047Y-85333333D01*
X108814285Y-85380952D01*
X108861904Y-85428571D01*
X108909523Y-85523809D01*
%TO.C,TP33*%
X98738095Y-80352380D02*
X98166666Y-80352380D01*
X98452380Y-81352380D02*
X98452380Y-80352380D01*
X97833333Y-81352380D02*
X97833333Y-80352380D01*
X97452380Y-80352380D01*
X97357142Y-80400000D01*
X97309523Y-80447619D01*
X97261904Y-80542857D01*
X97261904Y-80685714D01*
X97309523Y-80780952D01*
X97357142Y-80828571D01*
X97452380Y-80876190D01*
X97833333Y-80876190D01*
X96928571Y-80352380D02*
X96309523Y-80352380D01*
X96642857Y-80733333D01*
X96500000Y-80733333D01*
X96404761Y-80780952D01*
X96357142Y-80828571D01*
X96309523Y-80923809D01*
X96309523Y-81161904D01*
X96357142Y-81257142D01*
X96404761Y-81304761D01*
X96500000Y-81352380D01*
X96785714Y-81352380D01*
X96880952Y-81304761D01*
X96928571Y-81257142D01*
X95976190Y-80352380D02*
X95357142Y-80352380D01*
X95690476Y-80733333D01*
X95547619Y-80733333D01*
X95452380Y-80780952D01*
X95404761Y-80828571D01*
X95357142Y-80923809D01*
X95357142Y-81161904D01*
X95404761Y-81257142D01*
X95452380Y-81304761D01*
X95547619Y-81352380D01*
X95833333Y-81352380D01*
X95928571Y-81304761D01*
X95976190Y-81257142D01*
%TO.C,C13*%
X110242857Y-84357142D02*
X110290476Y-84404761D01*
X110433333Y-84452380D01*
X110528571Y-84452380D01*
X110671428Y-84404761D01*
X110766666Y-84309523D01*
X110814285Y-84214285D01*
X110861904Y-84023809D01*
X110861904Y-83880952D01*
X110814285Y-83690476D01*
X110766666Y-83595238D01*
X110671428Y-83500000D01*
X110528571Y-83452380D01*
X110433333Y-83452380D01*
X110290476Y-83500000D01*
X110242857Y-83547619D01*
X109290476Y-84452380D02*
X109861904Y-84452380D01*
X109576190Y-84452380D02*
X109576190Y-83452380D01*
X109671428Y-83595238D01*
X109766666Y-83690476D01*
X109861904Y-83738095D01*
X108957142Y-83452380D02*
X108338095Y-83452380D01*
X108671428Y-83833333D01*
X108528571Y-83833333D01*
X108433333Y-83880952D01*
X108385714Y-83928571D01*
X108338095Y-84023809D01*
X108338095Y-84261904D01*
X108385714Y-84357142D01*
X108433333Y-84404761D01*
X108528571Y-84452380D01*
X108814285Y-84452380D01*
X108909523Y-84404761D01*
X108957142Y-84357142D01*
%TO.C,TP34*%
X102738095Y-80352380D02*
X102166666Y-80352380D01*
X102452380Y-81352380D02*
X102452380Y-80352380D01*
X101833333Y-81352380D02*
X101833333Y-80352380D01*
X101452380Y-80352380D01*
X101357142Y-80400000D01*
X101309523Y-80447619D01*
X101261904Y-80542857D01*
X101261904Y-80685714D01*
X101309523Y-80780952D01*
X101357142Y-80828571D01*
X101452380Y-80876190D01*
X101833333Y-80876190D01*
X100928571Y-80352380D02*
X100309523Y-80352380D01*
X100642857Y-80733333D01*
X100500000Y-80733333D01*
X100404761Y-80780952D01*
X100357142Y-80828571D01*
X100309523Y-80923809D01*
X100309523Y-81161904D01*
X100357142Y-81257142D01*
X100404761Y-81304761D01*
X100500000Y-81352380D01*
X100785714Y-81352380D01*
X100880952Y-81304761D01*
X100928571Y-81257142D01*
X99452380Y-80685714D02*
X99452380Y-81352380D01*
X99690476Y-80304761D02*
X99928571Y-81019047D01*
X99309523Y-81019047D01*
%TO.C,TP70*%
X106838095Y-80352380D02*
X106266666Y-80352380D01*
X106552380Y-81352380D02*
X106552380Y-80352380D01*
X105933333Y-81352380D02*
X105933333Y-80352380D01*
X105552380Y-80352380D01*
X105457142Y-80400000D01*
X105409523Y-80447619D01*
X105361904Y-80542857D01*
X105361904Y-80685714D01*
X105409523Y-80780952D01*
X105457142Y-80828571D01*
X105552380Y-80876190D01*
X105933333Y-80876190D01*
X105028571Y-80352380D02*
X104361904Y-80352380D01*
X104790476Y-81352380D01*
X103790476Y-80352380D02*
X103695238Y-80352380D01*
X103600000Y-80400000D01*
X103552380Y-80447619D01*
X103504761Y-80542857D01*
X103457142Y-80733333D01*
X103457142Y-80971428D01*
X103504761Y-81161904D01*
X103552380Y-81257142D01*
X103600000Y-81304761D01*
X103695238Y-81352380D01*
X103790476Y-81352380D01*
X103885714Y-81304761D01*
X103933333Y-81257142D01*
X103980952Y-81161904D01*
X104028571Y-80971428D01*
X104028571Y-80733333D01*
X103980952Y-80542857D01*
X103933333Y-80447619D01*
X103885714Y-80400000D01*
X103790476Y-80352380D01*
%TO.C,TP31*%
X105138095Y-83852380D02*
X104566666Y-83852380D01*
X104852380Y-84852380D02*
X104852380Y-83852380D01*
X104233333Y-84852380D02*
X104233333Y-83852380D01*
X103852380Y-83852380D01*
X103757142Y-83900000D01*
X103709523Y-83947619D01*
X103661904Y-84042857D01*
X103661904Y-84185714D01*
X103709523Y-84280952D01*
X103757142Y-84328571D01*
X103852380Y-84376190D01*
X104233333Y-84376190D01*
X103328571Y-83852380D02*
X102709523Y-83852380D01*
X103042857Y-84233333D01*
X102900000Y-84233333D01*
X102804761Y-84280952D01*
X102757142Y-84328571D01*
X102709523Y-84423809D01*
X102709523Y-84661904D01*
X102757142Y-84757142D01*
X102804761Y-84804761D01*
X102900000Y-84852380D01*
X103185714Y-84852380D01*
X103280952Y-84804761D01*
X103328571Y-84757142D01*
X101757142Y-84852380D02*
X102328571Y-84852380D01*
X102042857Y-84852380D02*
X102042857Y-83852380D01*
X102138095Y-83995238D01*
X102233333Y-84090476D01*
X102328571Y-84138095D01*
%TO.C,C10*%
X110242857Y-81557142D02*
X110290476Y-81604761D01*
X110433333Y-81652380D01*
X110528571Y-81652380D01*
X110671428Y-81604761D01*
X110766666Y-81509523D01*
X110814285Y-81414285D01*
X110861904Y-81223809D01*
X110861904Y-81080952D01*
X110814285Y-80890476D01*
X110766666Y-80795238D01*
X110671428Y-80700000D01*
X110528571Y-80652380D01*
X110433333Y-80652380D01*
X110290476Y-80700000D01*
X110242857Y-80747619D01*
X109290476Y-81652380D02*
X109861904Y-81652380D01*
X109576190Y-81652380D02*
X109576190Y-80652380D01*
X109671428Y-80795238D01*
X109766666Y-80890476D01*
X109861904Y-80938095D01*
X108671428Y-80652380D02*
X108576190Y-80652380D01*
X108480952Y-80700000D01*
X108433333Y-80747619D01*
X108385714Y-80842857D01*
X108338095Y-81033333D01*
X108338095Y-81271428D01*
X108385714Y-81461904D01*
X108433333Y-81557142D01*
X108480952Y-81604761D01*
X108576190Y-81652380D01*
X108671428Y-81652380D01*
X108766666Y-81604761D01*
X108814285Y-81557142D01*
X108861904Y-81461904D01*
X108909523Y-81271428D01*
X108909523Y-81033333D01*
X108861904Y-80842857D01*
X108814285Y-80747619D01*
X108766666Y-80700000D01*
X108671428Y-80652380D01*
%TO.C,C30*%
X99257142Y-93857142D02*
X99304761Y-93809523D01*
X99352380Y-93666666D01*
X99352380Y-93571428D01*
X99304761Y-93428571D01*
X99209523Y-93333333D01*
X99114285Y-93285714D01*
X98923809Y-93238095D01*
X98780952Y-93238095D01*
X98590476Y-93285714D01*
X98495238Y-93333333D01*
X98400000Y-93428571D01*
X98352380Y-93571428D01*
X98352380Y-93666666D01*
X98400000Y-93809523D01*
X98447619Y-93857142D01*
X98352380Y-94190476D02*
X98352380Y-94809523D01*
X98733333Y-94476190D01*
X98733333Y-94619047D01*
X98780952Y-94714285D01*
X98828571Y-94761904D01*
X98923809Y-94809523D01*
X99161904Y-94809523D01*
X99257142Y-94761904D01*
X99304761Y-94714285D01*
X99352380Y-94619047D01*
X99352380Y-94333333D01*
X99304761Y-94238095D01*
X99257142Y-94190476D01*
X98352380Y-95428571D02*
X98352380Y-95523809D01*
X98400000Y-95619047D01*
X98447619Y-95666666D01*
X98542857Y-95714285D01*
X98733333Y-95761904D01*
X98971428Y-95761904D01*
X99161904Y-95714285D01*
X99257142Y-95666666D01*
X99304761Y-95619047D01*
X99352380Y-95523809D01*
X99352380Y-95428571D01*
X99304761Y-95333333D01*
X99257142Y-95285714D01*
X99161904Y-95238095D01*
X98971428Y-95190476D01*
X98733333Y-95190476D01*
X98542857Y-95238095D01*
X98447619Y-95285714D01*
X98400000Y-95333333D01*
X98352380Y-95428571D01*
%TO.C,TP73*%
X94338095Y-80352380D02*
X93766666Y-80352380D01*
X94052380Y-81352380D02*
X94052380Y-80352380D01*
X93433333Y-81352380D02*
X93433333Y-80352380D01*
X93052380Y-80352380D01*
X92957142Y-80400000D01*
X92909523Y-80447619D01*
X92861904Y-80542857D01*
X92861904Y-80685714D01*
X92909523Y-80780952D01*
X92957142Y-80828571D01*
X93052380Y-80876190D01*
X93433333Y-80876190D01*
X92528571Y-80352380D02*
X91861904Y-80352380D01*
X92290476Y-81352380D01*
X91576190Y-80352380D02*
X90957142Y-80352380D01*
X91290476Y-80733333D01*
X91147619Y-80733333D01*
X91052380Y-80780952D01*
X91004761Y-80828571D01*
X90957142Y-80923809D01*
X90957142Y-81161904D01*
X91004761Y-81257142D01*
X91052380Y-81304761D01*
X91147619Y-81352380D01*
X91433333Y-81352380D01*
X91528571Y-81304761D01*
X91576190Y-81257142D01*
%TO.C,C12*%
X110242857Y-82957142D02*
X110290476Y-83004761D01*
X110433333Y-83052380D01*
X110528571Y-83052380D01*
X110671428Y-83004761D01*
X110766666Y-82909523D01*
X110814285Y-82814285D01*
X110861904Y-82623809D01*
X110861904Y-82480952D01*
X110814285Y-82290476D01*
X110766666Y-82195238D01*
X110671428Y-82100000D01*
X110528571Y-82052380D01*
X110433333Y-82052380D01*
X110290476Y-82100000D01*
X110242857Y-82147619D01*
X109290476Y-83052380D02*
X109861904Y-83052380D01*
X109576190Y-83052380D02*
X109576190Y-82052380D01*
X109671428Y-82195238D01*
X109766666Y-82290476D01*
X109861904Y-82338095D01*
X108909523Y-82147619D02*
X108861904Y-82100000D01*
X108766666Y-82052380D01*
X108528571Y-82052380D01*
X108433333Y-82100000D01*
X108385714Y-82147619D01*
X108338095Y-82242857D01*
X108338095Y-82338095D01*
X108385714Y-82480952D01*
X108957142Y-83052380D01*
X108338095Y-83052380D01*
%TO.C,TP72*%
X101738095Y-82152380D02*
X101166666Y-82152380D01*
X101452380Y-83152380D02*
X101452380Y-82152380D01*
X100833333Y-83152380D02*
X100833333Y-82152380D01*
X100452380Y-82152380D01*
X100357142Y-82200000D01*
X100309523Y-82247619D01*
X100261904Y-82342857D01*
X100261904Y-82485714D01*
X100309523Y-82580952D01*
X100357142Y-82628571D01*
X100452380Y-82676190D01*
X100833333Y-82676190D01*
X99928571Y-82152380D02*
X99261904Y-82152380D01*
X99690476Y-83152380D01*
X98928571Y-82247619D02*
X98880952Y-82200000D01*
X98785714Y-82152380D01*
X98547619Y-82152380D01*
X98452380Y-82200000D01*
X98404761Y-82247619D01*
X98357142Y-82342857D01*
X98357142Y-82438095D01*
X98404761Y-82580952D01*
X98976190Y-83152380D01*
X98357142Y-83152380D01*
%TO.C,CHG1*%
X86290476Y-95657142D02*
X86338095Y-95704761D01*
X86480952Y-95752380D01*
X86576190Y-95752380D01*
X86719047Y-95704761D01*
X86814285Y-95609523D01*
X86861904Y-95514285D01*
X86909523Y-95323809D01*
X86909523Y-95180952D01*
X86861904Y-94990476D01*
X86814285Y-94895238D01*
X86719047Y-94800000D01*
X86576190Y-94752380D01*
X86480952Y-94752380D01*
X86338095Y-94800000D01*
X86290476Y-94847619D01*
X85861904Y-95752380D02*
X85861904Y-94752380D01*
X85861904Y-95228571D02*
X85290476Y-95228571D01*
X85290476Y-95752380D02*
X85290476Y-94752380D01*
X84290476Y-94800000D02*
X84385714Y-94752380D01*
X84528571Y-94752380D01*
X84671428Y-94800000D01*
X84766666Y-94895238D01*
X84814285Y-94990476D01*
X84861904Y-95180952D01*
X84861904Y-95323809D01*
X84814285Y-95514285D01*
X84766666Y-95609523D01*
X84671428Y-95704761D01*
X84528571Y-95752380D01*
X84433333Y-95752380D01*
X84290476Y-95704761D01*
X84242857Y-95657142D01*
X84242857Y-95323809D01*
X84433333Y-95323809D01*
X83290476Y-95752380D02*
X83861904Y-95752380D01*
X83576190Y-95752380D02*
X83576190Y-94752380D01*
X83671428Y-94895238D01*
X83766666Y-94990476D01*
X83861904Y-95038095D01*
%TO.C,FB70*%
X101209523Y-87028571D02*
X101542857Y-87028571D01*
X101542857Y-87552380D02*
X101542857Y-86552380D01*
X101066666Y-86552380D01*
X100352380Y-87028571D02*
X100209523Y-87076190D01*
X100161904Y-87123809D01*
X100114285Y-87219047D01*
X100114285Y-87361904D01*
X100161904Y-87457142D01*
X100209523Y-87504761D01*
X100304761Y-87552380D01*
X100685714Y-87552380D01*
X100685714Y-86552380D01*
X100352380Y-86552380D01*
X100257142Y-86600000D01*
X100209523Y-86647619D01*
X100161904Y-86742857D01*
X100161904Y-86838095D01*
X100209523Y-86933333D01*
X100257142Y-86980952D01*
X100352380Y-87028571D01*
X100685714Y-87028571D01*
X99780952Y-86552380D02*
X99114285Y-86552380D01*
X99542857Y-87552380D01*
X98542857Y-86552380D02*
X98447619Y-86552380D01*
X98352380Y-86600000D01*
X98304761Y-86647619D01*
X98257142Y-86742857D01*
X98209523Y-86933333D01*
X98209523Y-87171428D01*
X98257142Y-87361904D01*
X98304761Y-87457142D01*
X98352380Y-87504761D01*
X98447619Y-87552380D01*
X98542857Y-87552380D01*
X98638095Y-87504761D01*
X98685714Y-87457142D01*
X98733333Y-87361904D01*
X98780952Y-87171428D01*
X98780952Y-86933333D01*
X98733333Y-86742857D01*
X98685714Y-86647619D01*
X98638095Y-86600000D01*
X98542857Y-86552380D01*
%TO.C,X20*%
X107959642Y-91152380D02*
X107292976Y-92152380D01*
X107292976Y-91152380D02*
X107959642Y-92152380D01*
X106959642Y-91247619D02*
X106912023Y-91200000D01*
X106816785Y-91152380D01*
X106578690Y-91152380D01*
X106483452Y-91200000D01*
X106435833Y-91247619D01*
X106388214Y-91342857D01*
X106388214Y-91438095D01*
X106435833Y-91580952D01*
X107007261Y-92152380D01*
X106388214Y-92152380D01*
X105769166Y-91152380D02*
X105673928Y-91152380D01*
X105578690Y-91200000D01*
X105531071Y-91247619D01*
X105483452Y-91342857D01*
X105435833Y-91533333D01*
X105435833Y-91771428D01*
X105483452Y-91961904D01*
X105531071Y-92057142D01*
X105578690Y-92104761D01*
X105673928Y-92152380D01*
X105769166Y-92152380D01*
X105864404Y-92104761D01*
X105912023Y-92057142D01*
X105959642Y-91961904D01*
X106007261Y-91771428D01*
X106007261Y-91533333D01*
X105959642Y-91342857D01*
X105912023Y-91247619D01*
X105864404Y-91200000D01*
X105769166Y-91152380D01*
%TO.C,R25*%
X110672380Y-90507142D02*
X110196190Y-90173809D01*
X110672380Y-89935714D02*
X109672380Y-89935714D01*
X109672380Y-90316666D01*
X109720000Y-90411904D01*
X109767619Y-90459523D01*
X109862857Y-90507142D01*
X110005714Y-90507142D01*
X110100952Y-90459523D01*
X110148571Y-90411904D01*
X110196190Y-90316666D01*
X110196190Y-89935714D01*
X109767619Y-90888095D02*
X109720000Y-90935714D01*
X109672380Y-91030952D01*
X109672380Y-91269047D01*
X109720000Y-91364285D01*
X109767619Y-91411904D01*
X109862857Y-91459523D01*
X109958095Y-91459523D01*
X110100952Y-91411904D01*
X110672380Y-90840476D01*
X110672380Y-91459523D01*
X109672380Y-92364285D02*
X109672380Y-91888095D01*
X110148571Y-91840476D01*
X110100952Y-91888095D01*
X110053333Y-91983333D01*
X110053333Y-92221428D01*
X110100952Y-92316666D01*
X110148571Y-92364285D01*
X110243809Y-92411904D01*
X110481904Y-92411904D01*
X110577142Y-92364285D01*
X110624761Y-92316666D01*
X110672380Y-92221428D01*
X110672380Y-91983333D01*
X110624761Y-91888095D01*
X110577142Y-91840476D01*
%TO.C,C22*%
X108457142Y-93557142D02*
X108504761Y-93509523D01*
X108552380Y-93366666D01*
X108552380Y-93271428D01*
X108504761Y-93128571D01*
X108409523Y-93033333D01*
X108314285Y-92985714D01*
X108123809Y-92938095D01*
X107980952Y-92938095D01*
X107790476Y-92985714D01*
X107695238Y-93033333D01*
X107600000Y-93128571D01*
X107552380Y-93271428D01*
X107552380Y-93366666D01*
X107600000Y-93509523D01*
X107647619Y-93557142D01*
X107647619Y-93938095D02*
X107600000Y-93985714D01*
X107552380Y-94080952D01*
X107552380Y-94319047D01*
X107600000Y-94414285D01*
X107647619Y-94461904D01*
X107742857Y-94509523D01*
X107838095Y-94509523D01*
X107980952Y-94461904D01*
X108552380Y-93890476D01*
X108552380Y-94509523D01*
X107647619Y-94890476D02*
X107600000Y-94938095D01*
X107552380Y-95033333D01*
X107552380Y-95271428D01*
X107600000Y-95366666D01*
X107647619Y-95414285D01*
X107742857Y-95461904D01*
X107838095Y-95461904D01*
X107980952Y-95414285D01*
X108552380Y-94842857D01*
X108552380Y-95461904D01*
%TO.C,R26*%
X111992380Y-90497142D02*
X111516190Y-90163809D01*
X111992380Y-89925714D02*
X110992380Y-89925714D01*
X110992380Y-90306666D01*
X111040000Y-90401904D01*
X111087619Y-90449523D01*
X111182857Y-90497142D01*
X111325714Y-90497142D01*
X111420952Y-90449523D01*
X111468571Y-90401904D01*
X111516190Y-90306666D01*
X111516190Y-89925714D01*
X111087619Y-90878095D02*
X111040000Y-90925714D01*
X110992380Y-91020952D01*
X110992380Y-91259047D01*
X111040000Y-91354285D01*
X111087619Y-91401904D01*
X111182857Y-91449523D01*
X111278095Y-91449523D01*
X111420952Y-91401904D01*
X111992380Y-90830476D01*
X111992380Y-91449523D01*
X110992380Y-92306666D02*
X110992380Y-92116190D01*
X111040000Y-92020952D01*
X111087619Y-91973333D01*
X111230476Y-91878095D01*
X111420952Y-91830476D01*
X111801904Y-91830476D01*
X111897142Y-91878095D01*
X111944761Y-91925714D01*
X111992380Y-92020952D01*
X111992380Y-92211428D01*
X111944761Y-92306666D01*
X111897142Y-92354285D01*
X111801904Y-92401904D01*
X111563809Y-92401904D01*
X111468571Y-92354285D01*
X111420952Y-92306666D01*
X111373333Y-92211428D01*
X111373333Y-92020952D01*
X111420952Y-91925714D01*
X111468571Y-91878095D01*
X111563809Y-91830476D01*
%TO.C,R72*%
X92342857Y-85402380D02*
X92676190Y-84926190D01*
X92914285Y-85402380D02*
X92914285Y-84402380D01*
X92533333Y-84402380D01*
X92438095Y-84450000D01*
X92390476Y-84497619D01*
X92342857Y-84592857D01*
X92342857Y-84735714D01*
X92390476Y-84830952D01*
X92438095Y-84878571D01*
X92533333Y-84926190D01*
X92914285Y-84926190D01*
X92009523Y-84402380D02*
X91342857Y-84402380D01*
X91771428Y-85402380D01*
X91009523Y-84497619D02*
X90961904Y-84450000D01*
X90866666Y-84402380D01*
X90628571Y-84402380D01*
X90533333Y-84450000D01*
X90485714Y-84497619D01*
X90438095Y-84592857D01*
X90438095Y-84688095D01*
X90485714Y-84830952D01*
X91057142Y-85402380D01*
X90438095Y-85402380D01*
%TO.C,D611*%
X69051539Y-105625869D02*
X69051539Y-104625869D01*
X68813443Y-104625869D01*
X68670586Y-104673489D01*
X68575348Y-104768727D01*
X68527729Y-104863965D01*
X68480110Y-105054441D01*
X68480110Y-105197298D01*
X68527729Y-105387774D01*
X68575348Y-105483012D01*
X68670586Y-105578250D01*
X68813443Y-105625869D01*
X69051539Y-105625869D01*
X67622967Y-104625869D02*
X67813443Y-104625869D01*
X67908682Y-104673489D01*
X67956301Y-104721108D01*
X68051539Y-104863965D01*
X68099158Y-105054441D01*
X68099158Y-105435393D01*
X68051539Y-105530631D01*
X68003920Y-105578250D01*
X67908682Y-105625869D01*
X67718205Y-105625869D01*
X67622967Y-105578250D01*
X67575348Y-105530631D01*
X67527729Y-105435393D01*
X67527729Y-105197298D01*
X67575348Y-105102060D01*
X67622967Y-105054441D01*
X67718205Y-105006822D01*
X67908682Y-105006822D01*
X68003920Y-105054441D01*
X68051539Y-105102060D01*
X68099158Y-105197298D01*
X66575348Y-105625869D02*
X67146777Y-105625869D01*
X66861063Y-105625869D02*
X66861063Y-104625869D01*
X66956301Y-104768727D01*
X67051539Y-104863965D01*
X67146777Y-104911584D01*
X65622967Y-105625869D02*
X66194396Y-105625869D01*
X65908682Y-105625869D02*
X65908682Y-104625869D01*
X66003920Y-104768727D01*
X66099158Y-104863965D01*
X66194396Y-104911584D01*
D11*
X68953293Y-107009203D02*
X69124722Y-107009203D01*
X69039008Y-107009203D02*
X69039008Y-106709203D01*
X69067579Y-106752060D01*
X69096150Y-106780631D01*
X69124722Y-106794917D01*
D10*
%TO.C,C609*%
X77457142Y-106780952D02*
X77504761Y-106733333D01*
X77552380Y-106590476D01*
X77552380Y-106495238D01*
X77504761Y-106352380D01*
X77409523Y-106257142D01*
X77314285Y-106209523D01*
X77123809Y-106161904D01*
X76980952Y-106161904D01*
X76790476Y-106209523D01*
X76695238Y-106257142D01*
X76600000Y-106352380D01*
X76552380Y-106495238D01*
X76552380Y-106590476D01*
X76600000Y-106733333D01*
X76647619Y-106780952D01*
X76552380Y-107638095D02*
X76552380Y-107447619D01*
X76600000Y-107352380D01*
X76647619Y-107304761D01*
X76790476Y-107209523D01*
X76980952Y-107161904D01*
X77361904Y-107161904D01*
X77457142Y-107209523D01*
X77504761Y-107257142D01*
X77552380Y-107352380D01*
X77552380Y-107542857D01*
X77504761Y-107638095D01*
X77457142Y-107685714D01*
X77361904Y-107733333D01*
X77123809Y-107733333D01*
X77028571Y-107685714D01*
X76980952Y-107638095D01*
X76933333Y-107542857D01*
X76933333Y-107352380D01*
X76980952Y-107257142D01*
X77028571Y-107209523D01*
X77123809Y-107161904D01*
X76552380Y-108352380D02*
X76552380Y-108447619D01*
X76600000Y-108542857D01*
X76647619Y-108590476D01*
X76742857Y-108638095D01*
X76933333Y-108685714D01*
X77171428Y-108685714D01*
X77361904Y-108638095D01*
X77457142Y-108590476D01*
X77504761Y-108542857D01*
X77552380Y-108447619D01*
X77552380Y-108352380D01*
X77504761Y-108257142D01*
X77457142Y-108209523D01*
X77361904Y-108161904D01*
X77171428Y-108114285D01*
X76933333Y-108114285D01*
X76742857Y-108161904D01*
X76647619Y-108209523D01*
X76600000Y-108257142D01*
X76552380Y-108352380D01*
X77552380Y-109161904D02*
X77552380Y-109352380D01*
X77504761Y-109447619D01*
X77457142Y-109495238D01*
X77314285Y-109590476D01*
X77123809Y-109638095D01*
X76742857Y-109638095D01*
X76647619Y-109590476D01*
X76600000Y-109542857D01*
X76552380Y-109447619D01*
X76552380Y-109257142D01*
X76600000Y-109161904D01*
X76647619Y-109114285D01*
X76742857Y-109066666D01*
X76980952Y-109066666D01*
X77076190Y-109114285D01*
X77123809Y-109161904D01*
X77171428Y-109257142D01*
X77171428Y-109447619D01*
X77123809Y-109542857D01*
X77076190Y-109590476D01*
X76980952Y-109638095D01*
%TO.C,R70*%
X88142857Y-86752380D02*
X88476190Y-86276190D01*
X88714285Y-86752380D02*
X88714285Y-85752380D01*
X88333333Y-85752380D01*
X88238095Y-85800000D01*
X88190476Y-85847619D01*
X88142857Y-85942857D01*
X88142857Y-86085714D01*
X88190476Y-86180952D01*
X88238095Y-86228571D01*
X88333333Y-86276190D01*
X88714285Y-86276190D01*
X87809523Y-85752380D02*
X87142857Y-85752380D01*
X87571428Y-86752380D01*
X86571428Y-85752380D02*
X86476190Y-85752380D01*
X86380952Y-85800000D01*
X86333333Y-85847619D01*
X86285714Y-85942857D01*
X86238095Y-86133333D01*
X86238095Y-86371428D01*
X86285714Y-86561904D01*
X86333333Y-86657142D01*
X86380952Y-86704761D01*
X86476190Y-86752380D01*
X86571428Y-86752380D01*
X86666666Y-86704761D01*
X86714285Y-86657142D01*
X86761904Y-86561904D01*
X86809523Y-86371428D01*
X86809523Y-86133333D01*
X86761904Y-85942857D01*
X86714285Y-85847619D01*
X86666666Y-85800000D01*
X86571428Y-85752380D01*
%TO.C,C74*%
X81457142Y-90457142D02*
X81504761Y-90409523D01*
X81552380Y-90266666D01*
X81552380Y-90171428D01*
X81504761Y-90028571D01*
X81409523Y-89933333D01*
X81314285Y-89885714D01*
X81123809Y-89838095D01*
X80980952Y-89838095D01*
X80790476Y-89885714D01*
X80695238Y-89933333D01*
X80600000Y-90028571D01*
X80552380Y-90171428D01*
X80552380Y-90266666D01*
X80600000Y-90409523D01*
X80647619Y-90457142D01*
X80552380Y-90790476D02*
X80552380Y-91457142D01*
X81552380Y-91028571D01*
X80885714Y-92266666D02*
X81552380Y-92266666D01*
X80504761Y-92028571D02*
X81219047Y-91790476D01*
X81219047Y-92409523D01*
%TO.C,D605*%
X101555663Y-105625869D02*
X101555663Y-104625869D01*
X101317567Y-104625869D01*
X101174710Y-104673489D01*
X101079472Y-104768727D01*
X101031853Y-104863965D01*
X100984234Y-105054441D01*
X100984234Y-105197298D01*
X101031853Y-105387774D01*
X101079472Y-105483012D01*
X101174710Y-105578250D01*
X101317567Y-105625869D01*
X101555663Y-105625869D01*
X100127091Y-104625869D02*
X100317567Y-104625869D01*
X100412806Y-104673489D01*
X100460425Y-104721108D01*
X100555663Y-104863965D01*
X100603282Y-105054441D01*
X100603282Y-105435393D01*
X100555663Y-105530631D01*
X100508044Y-105578250D01*
X100412806Y-105625869D01*
X100222329Y-105625869D01*
X100127091Y-105578250D01*
X100079472Y-105530631D01*
X100031853Y-105435393D01*
X100031853Y-105197298D01*
X100079472Y-105102060D01*
X100127091Y-105054441D01*
X100222329Y-105006822D01*
X100412806Y-105006822D01*
X100508044Y-105054441D01*
X100555663Y-105102060D01*
X100603282Y-105197298D01*
X99412806Y-104625869D02*
X99317567Y-104625869D01*
X99222329Y-104673489D01*
X99174710Y-104721108D01*
X99127091Y-104816346D01*
X99079472Y-105006822D01*
X99079472Y-105244917D01*
X99127091Y-105435393D01*
X99174710Y-105530631D01*
X99222329Y-105578250D01*
X99317567Y-105625869D01*
X99412806Y-105625869D01*
X99508044Y-105578250D01*
X99555663Y-105530631D01*
X99603282Y-105435393D01*
X99650901Y-105244917D01*
X99650901Y-105006822D01*
X99603282Y-104816346D01*
X99555663Y-104721108D01*
X99508044Y-104673489D01*
X99412806Y-104625869D01*
X98174710Y-104625869D02*
X98650901Y-104625869D01*
X98698520Y-105102060D01*
X98650901Y-105054441D01*
X98555663Y-105006822D01*
X98317567Y-105006822D01*
X98222329Y-105054441D01*
X98174710Y-105102060D01*
X98127091Y-105197298D01*
X98127091Y-105435393D01*
X98174710Y-105530631D01*
X98222329Y-105578250D01*
X98317567Y-105625869D01*
X98555663Y-105625869D01*
X98650901Y-105578250D01*
X98698520Y-105530631D01*
D11*
X101457417Y-107059203D02*
X101628846Y-107059203D01*
X101543132Y-107059203D02*
X101543132Y-106759203D01*
X101571703Y-106802060D01*
X101600274Y-106830631D01*
X101628846Y-106844917D01*
D10*
%TO.C,D71*%
X92914285Y-82702380D02*
X92914285Y-81702380D01*
X92676190Y-81702380D01*
X92533333Y-81750000D01*
X92438095Y-81845238D01*
X92390476Y-81940476D01*
X92342857Y-82130952D01*
X92342857Y-82273809D01*
X92390476Y-82464285D01*
X92438095Y-82559523D01*
X92533333Y-82654761D01*
X92676190Y-82702380D01*
X92914285Y-82702380D01*
X92009523Y-81702380D02*
X91342857Y-81702380D01*
X91771428Y-82702380D01*
X90438095Y-82702380D02*
X91009523Y-82702380D01*
X90723809Y-82702380D02*
X90723809Y-81702380D01*
X90819047Y-81845238D01*
X90914285Y-81940476D01*
X91009523Y-81988095D01*
%TO.C,D600*%
X128990476Y-105625869D02*
X128990476Y-104625869D01*
X128752380Y-104625869D01*
X128609523Y-104673489D01*
X128514285Y-104768727D01*
X128466666Y-104863965D01*
X128419047Y-105054441D01*
X128419047Y-105197298D01*
X128466666Y-105387774D01*
X128514285Y-105483012D01*
X128609523Y-105578250D01*
X128752380Y-105625869D01*
X128990476Y-105625869D01*
X127561904Y-104625869D02*
X127752380Y-104625869D01*
X127847619Y-104673489D01*
X127895238Y-104721108D01*
X127990476Y-104863965D01*
X128038095Y-105054441D01*
X128038095Y-105435393D01*
X127990476Y-105530631D01*
X127942857Y-105578250D01*
X127847619Y-105625869D01*
X127657142Y-105625869D01*
X127561904Y-105578250D01*
X127514285Y-105530631D01*
X127466666Y-105435393D01*
X127466666Y-105197298D01*
X127514285Y-105102060D01*
X127561904Y-105054441D01*
X127657142Y-105006822D01*
X127847619Y-105006822D01*
X127942857Y-105054441D01*
X127990476Y-105102060D01*
X128038095Y-105197298D01*
X126847619Y-104625869D02*
X126752380Y-104625869D01*
X126657142Y-104673489D01*
X126609523Y-104721108D01*
X126561904Y-104816346D01*
X126514285Y-105006822D01*
X126514285Y-105244917D01*
X126561904Y-105435393D01*
X126609523Y-105530631D01*
X126657142Y-105578250D01*
X126752380Y-105625869D01*
X126847619Y-105625869D01*
X126942857Y-105578250D01*
X126990476Y-105530631D01*
X127038095Y-105435393D01*
X127085714Y-105244917D01*
X127085714Y-105006822D01*
X127038095Y-104816346D01*
X126990476Y-104721108D01*
X126942857Y-104673489D01*
X126847619Y-104625869D01*
X125895238Y-104625869D02*
X125800000Y-104625869D01*
X125704761Y-104673489D01*
X125657142Y-104721108D01*
X125609523Y-104816346D01*
X125561904Y-105006822D01*
X125561904Y-105244917D01*
X125609523Y-105435393D01*
X125657142Y-105530631D01*
X125704761Y-105578250D01*
X125800000Y-105625869D01*
X125895238Y-105625869D01*
X125990476Y-105578250D01*
X126038095Y-105530631D01*
X126085714Y-105435393D01*
X126133333Y-105244917D01*
X126133333Y-105006822D01*
X126085714Y-104816346D01*
X126038095Y-104721108D01*
X125990476Y-104673489D01*
X125895238Y-104625869D01*
D11*
X128544188Y-107059203D02*
X128715617Y-107059203D01*
X128629903Y-107059203D02*
X128629903Y-106759203D01*
X128658474Y-106802060D01*
X128687045Y-106830631D01*
X128715617Y-106844917D01*
D10*
%TO.C,CN70*%
X124166666Y-90657142D02*
X124214285Y-90704761D01*
X124357142Y-90752380D01*
X124452380Y-90752380D01*
X124595238Y-90704761D01*
X124690476Y-90609523D01*
X124738095Y-90514285D01*
X124785714Y-90323809D01*
X124785714Y-90180952D01*
X124738095Y-89990476D01*
X124690476Y-89895238D01*
X124595238Y-89800000D01*
X124452380Y-89752380D01*
X124357142Y-89752380D01*
X124214285Y-89800000D01*
X124166666Y-89847619D01*
X123738095Y-90752380D02*
X123738095Y-89752380D01*
X123166666Y-90752380D01*
X123166666Y-89752380D01*
X122785714Y-89752380D02*
X122119047Y-89752380D01*
X122547619Y-90752380D01*
X121547619Y-89752380D02*
X121452380Y-89752380D01*
X121357142Y-89800000D01*
X121309523Y-89847619D01*
X121261904Y-89942857D01*
X121214285Y-90133333D01*
X121214285Y-90371428D01*
X121261904Y-90561904D01*
X121309523Y-90657142D01*
X121357142Y-90704761D01*
X121452380Y-90752380D01*
X121547619Y-90752380D01*
X121642857Y-90704761D01*
X121690476Y-90657142D01*
X121738095Y-90561904D01*
X121785714Y-90371428D01*
X121785714Y-90133333D01*
X121738095Y-89942857D01*
X121690476Y-89847619D01*
X121642857Y-89800000D01*
X121547619Y-89752380D01*
%TO.C,D607*%
X90720955Y-105625869D02*
X90720955Y-104625869D01*
X90482859Y-104625869D01*
X90340002Y-104673489D01*
X90244764Y-104768727D01*
X90197145Y-104863965D01*
X90149526Y-105054441D01*
X90149526Y-105197298D01*
X90197145Y-105387774D01*
X90244764Y-105483012D01*
X90340002Y-105578250D01*
X90482859Y-105625869D01*
X90720955Y-105625869D01*
X89292383Y-104625869D02*
X89482859Y-104625869D01*
X89578098Y-104673489D01*
X89625717Y-104721108D01*
X89720955Y-104863965D01*
X89768574Y-105054441D01*
X89768574Y-105435393D01*
X89720955Y-105530631D01*
X89673336Y-105578250D01*
X89578098Y-105625869D01*
X89387621Y-105625869D01*
X89292383Y-105578250D01*
X89244764Y-105530631D01*
X89197145Y-105435393D01*
X89197145Y-105197298D01*
X89244764Y-105102060D01*
X89292383Y-105054441D01*
X89387621Y-105006822D01*
X89578098Y-105006822D01*
X89673336Y-105054441D01*
X89720955Y-105102060D01*
X89768574Y-105197298D01*
X88578098Y-104625869D02*
X88482859Y-104625869D01*
X88387621Y-104673489D01*
X88340002Y-104721108D01*
X88292383Y-104816346D01*
X88244764Y-105006822D01*
X88244764Y-105244917D01*
X88292383Y-105435393D01*
X88340002Y-105530631D01*
X88387621Y-105578250D01*
X88482859Y-105625869D01*
X88578098Y-105625869D01*
X88673336Y-105578250D01*
X88720955Y-105530631D01*
X88768574Y-105435393D01*
X88816193Y-105244917D01*
X88816193Y-105006822D01*
X88768574Y-104816346D01*
X88720955Y-104721108D01*
X88673336Y-104673489D01*
X88578098Y-104625869D01*
X87911431Y-104625869D02*
X87244764Y-104625869D01*
X87673336Y-105625869D01*
D11*
X90622709Y-107059203D02*
X90794138Y-107059203D01*
X90708424Y-107059203D02*
X90708424Y-106759203D01*
X90736995Y-106802060D01*
X90765566Y-106830631D01*
X90794138Y-106844917D01*
D10*
%TO.C,R24*%
X114772380Y-90497142D02*
X114296190Y-90163809D01*
X114772380Y-89925714D02*
X113772380Y-89925714D01*
X113772380Y-90306666D01*
X113820000Y-90401904D01*
X113867619Y-90449523D01*
X113962857Y-90497142D01*
X114105714Y-90497142D01*
X114200952Y-90449523D01*
X114248571Y-90401904D01*
X114296190Y-90306666D01*
X114296190Y-89925714D01*
X113867619Y-90878095D02*
X113820000Y-90925714D01*
X113772380Y-91020952D01*
X113772380Y-91259047D01*
X113820000Y-91354285D01*
X113867619Y-91401904D01*
X113962857Y-91449523D01*
X114058095Y-91449523D01*
X114200952Y-91401904D01*
X114772380Y-90830476D01*
X114772380Y-91449523D01*
X114105714Y-92306666D02*
X114772380Y-92306666D01*
X113724761Y-92068571D02*
X114439047Y-91830476D01*
X114439047Y-92449523D01*
%TO.C,R73*%
X92342857Y-86702380D02*
X92676190Y-86226190D01*
X92914285Y-86702380D02*
X92914285Y-85702380D01*
X92533333Y-85702380D01*
X92438095Y-85750000D01*
X92390476Y-85797619D01*
X92342857Y-85892857D01*
X92342857Y-86035714D01*
X92390476Y-86130952D01*
X92438095Y-86178571D01*
X92533333Y-86226190D01*
X92914285Y-86226190D01*
X92009523Y-85702380D02*
X91342857Y-85702380D01*
X91771428Y-86702380D01*
X91057142Y-85702380D02*
X90438095Y-85702380D01*
X90771428Y-86083333D01*
X90628571Y-86083333D01*
X90533333Y-86130952D01*
X90485714Y-86178571D01*
X90438095Y-86273809D01*
X90438095Y-86511904D01*
X90485714Y-86607142D01*
X90533333Y-86654761D01*
X90628571Y-86702380D01*
X90914285Y-86702380D01*
X91009523Y-86654761D01*
X91057142Y-86607142D01*
%TO.C,C606*%
X93757142Y-106580952D02*
X93804761Y-106533333D01*
X93852380Y-106390476D01*
X93852380Y-106295238D01*
X93804761Y-106152380D01*
X93709523Y-106057142D01*
X93614285Y-106009523D01*
X93423809Y-105961904D01*
X93280952Y-105961904D01*
X93090476Y-106009523D01*
X92995238Y-106057142D01*
X92900000Y-106152380D01*
X92852380Y-106295238D01*
X92852380Y-106390476D01*
X92900000Y-106533333D01*
X92947619Y-106580952D01*
X92852380Y-107438095D02*
X92852380Y-107247619D01*
X92900000Y-107152380D01*
X92947619Y-107104761D01*
X93090476Y-107009523D01*
X93280952Y-106961904D01*
X93661904Y-106961904D01*
X93757142Y-107009523D01*
X93804761Y-107057142D01*
X93852380Y-107152380D01*
X93852380Y-107342857D01*
X93804761Y-107438095D01*
X93757142Y-107485714D01*
X93661904Y-107533333D01*
X93423809Y-107533333D01*
X93328571Y-107485714D01*
X93280952Y-107438095D01*
X93233333Y-107342857D01*
X93233333Y-107152380D01*
X93280952Y-107057142D01*
X93328571Y-107009523D01*
X93423809Y-106961904D01*
X92852380Y-108152380D02*
X92852380Y-108247619D01*
X92900000Y-108342857D01*
X92947619Y-108390476D01*
X93042857Y-108438095D01*
X93233333Y-108485714D01*
X93471428Y-108485714D01*
X93661904Y-108438095D01*
X93757142Y-108390476D01*
X93804761Y-108342857D01*
X93852380Y-108247619D01*
X93852380Y-108152380D01*
X93804761Y-108057142D01*
X93757142Y-108009523D01*
X93661904Y-107961904D01*
X93471428Y-107914285D01*
X93233333Y-107914285D01*
X93042857Y-107961904D01*
X92947619Y-108009523D01*
X92900000Y-108057142D01*
X92852380Y-108152380D01*
X92852380Y-109342857D02*
X92852380Y-109152380D01*
X92900000Y-109057142D01*
X92947619Y-109009523D01*
X93090476Y-108914285D01*
X93280952Y-108866666D01*
X93661904Y-108866666D01*
X93757142Y-108914285D01*
X93804761Y-108961904D01*
X93852380Y-109057142D01*
X93852380Y-109247619D01*
X93804761Y-109342857D01*
X93757142Y-109390476D01*
X93661904Y-109438095D01*
X93423809Y-109438095D01*
X93328571Y-109390476D01*
X93280952Y-109342857D01*
X93233333Y-109247619D01*
X93233333Y-109057142D01*
X93280952Y-108961904D01*
X93328571Y-108914285D01*
X93423809Y-108866666D01*
%TO.C,D601*%
X123225079Y-105625869D02*
X123225079Y-104625869D01*
X122986983Y-104625869D01*
X122844126Y-104673489D01*
X122748888Y-104768727D01*
X122701269Y-104863965D01*
X122653650Y-105054441D01*
X122653650Y-105197298D01*
X122701269Y-105387774D01*
X122748888Y-105483012D01*
X122844126Y-105578250D01*
X122986983Y-105625869D01*
X123225079Y-105625869D01*
X121796507Y-104625869D02*
X121986983Y-104625869D01*
X122082222Y-104673489D01*
X122129841Y-104721108D01*
X122225079Y-104863965D01*
X122272698Y-105054441D01*
X122272698Y-105435393D01*
X122225079Y-105530631D01*
X122177460Y-105578250D01*
X122082222Y-105625869D01*
X121891745Y-105625869D01*
X121796507Y-105578250D01*
X121748888Y-105530631D01*
X121701269Y-105435393D01*
X121701269Y-105197298D01*
X121748888Y-105102060D01*
X121796507Y-105054441D01*
X121891745Y-105006822D01*
X122082222Y-105006822D01*
X122177460Y-105054441D01*
X122225079Y-105102060D01*
X122272698Y-105197298D01*
X121082222Y-104625869D02*
X120986983Y-104625869D01*
X120891745Y-104673489D01*
X120844126Y-104721108D01*
X120796507Y-104816346D01*
X120748888Y-105006822D01*
X120748888Y-105244917D01*
X120796507Y-105435393D01*
X120844126Y-105530631D01*
X120891745Y-105578250D01*
X120986983Y-105625869D01*
X121082222Y-105625869D01*
X121177460Y-105578250D01*
X121225079Y-105530631D01*
X121272698Y-105435393D01*
X121320317Y-105244917D01*
X121320317Y-105006822D01*
X121272698Y-104816346D01*
X121225079Y-104721108D01*
X121177460Y-104673489D01*
X121082222Y-104625869D01*
X119796507Y-105625869D02*
X120367936Y-105625869D01*
X120082222Y-105625869D02*
X120082222Y-104625869D01*
X120177460Y-104768727D01*
X120272698Y-104863965D01*
X120367936Y-104911584D01*
D11*
X123126833Y-107059203D02*
X123298262Y-107059203D01*
X123212548Y-107059203D02*
X123212548Y-106759203D01*
X123241119Y-106802060D01*
X123269690Y-106830631D01*
X123298262Y-106844917D01*
D10*
%TO.C,FB71*%
X108409523Y-87178571D02*
X108742857Y-87178571D01*
X108742857Y-87702380D02*
X108742857Y-86702380D01*
X108266666Y-86702380D01*
X107552380Y-87178571D02*
X107409523Y-87226190D01*
X107361904Y-87273809D01*
X107314285Y-87369047D01*
X107314285Y-87511904D01*
X107361904Y-87607142D01*
X107409523Y-87654761D01*
X107504761Y-87702380D01*
X107885714Y-87702380D01*
X107885714Y-86702380D01*
X107552380Y-86702380D01*
X107457142Y-86750000D01*
X107409523Y-86797619D01*
X107361904Y-86892857D01*
X107361904Y-86988095D01*
X107409523Y-87083333D01*
X107457142Y-87130952D01*
X107552380Y-87178571D01*
X107885714Y-87178571D01*
X106980952Y-86702380D02*
X106314285Y-86702380D01*
X106742857Y-87702380D01*
X105409523Y-87702380D02*
X105980952Y-87702380D01*
X105695238Y-87702380D02*
X105695238Y-86702380D01*
X105790476Y-86845238D01*
X105885714Y-86940476D01*
X105980952Y-86988095D01*
%TO.C,C71*%
X88142857Y-82457142D02*
X88190476Y-82504761D01*
X88333333Y-82552380D01*
X88428571Y-82552380D01*
X88571428Y-82504761D01*
X88666666Y-82409523D01*
X88714285Y-82314285D01*
X88761904Y-82123809D01*
X88761904Y-81980952D01*
X88714285Y-81790476D01*
X88666666Y-81695238D01*
X88571428Y-81600000D01*
X88428571Y-81552380D01*
X88333333Y-81552380D01*
X88190476Y-81600000D01*
X88142857Y-81647619D01*
X87809523Y-81552380D02*
X87142857Y-81552380D01*
X87571428Y-82552380D01*
X86238095Y-82552380D02*
X86809523Y-82552380D01*
X86523809Y-82552380D02*
X86523809Y-81552380D01*
X86619047Y-81695238D01*
X86714285Y-81790476D01*
X86809523Y-81838095D01*
%TO.C,R23*%
X113402380Y-90497142D02*
X112926190Y-90163809D01*
X113402380Y-89925714D02*
X112402380Y-89925714D01*
X112402380Y-90306666D01*
X112450000Y-90401904D01*
X112497619Y-90449523D01*
X112592857Y-90497142D01*
X112735714Y-90497142D01*
X112830952Y-90449523D01*
X112878571Y-90401904D01*
X112926190Y-90306666D01*
X112926190Y-89925714D01*
X112497619Y-90878095D02*
X112450000Y-90925714D01*
X112402380Y-91020952D01*
X112402380Y-91259047D01*
X112450000Y-91354285D01*
X112497619Y-91401904D01*
X112592857Y-91449523D01*
X112688095Y-91449523D01*
X112830952Y-91401904D01*
X113402380Y-90830476D01*
X113402380Y-91449523D01*
X112402380Y-91782857D02*
X112402380Y-92401904D01*
X112783333Y-92068571D01*
X112783333Y-92211428D01*
X112830952Y-92306666D01*
X112878571Y-92354285D01*
X112973809Y-92401904D01*
X113211904Y-92401904D01*
X113307142Y-92354285D01*
X113354761Y-92306666D01*
X113402380Y-92211428D01*
X113402380Y-91925714D01*
X113354761Y-91830476D01*
X113307142Y-91782857D01*
%TO.C,U9*%
X76611904Y-93202380D02*
X76611904Y-94011904D01*
X76564285Y-94107142D01*
X76516666Y-94154761D01*
X76421428Y-94202380D01*
X76230952Y-94202380D01*
X76135714Y-94154761D01*
X76088095Y-94107142D01*
X76040476Y-94011904D01*
X76040476Y-93202380D01*
X75516666Y-94202380D02*
X75326190Y-94202380D01*
X75230952Y-94154761D01*
X75183333Y-94107142D01*
X75088095Y-93964285D01*
X75040476Y-93773809D01*
X75040476Y-93392857D01*
X75088095Y-93297619D01*
X75135714Y-93250000D01*
X75230952Y-93202380D01*
X75421428Y-93202380D01*
X75516666Y-93250000D01*
X75564285Y-93297619D01*
X75611904Y-93392857D01*
X75611904Y-93630952D01*
X75564285Y-93726190D01*
X75516666Y-93773809D01*
X75421428Y-93821428D01*
X75230952Y-93821428D01*
X75135714Y-93773809D01*
X75088095Y-93726190D01*
X75040476Y-93630952D01*
X76200000Y-95027380D02*
X76200000Y-95265476D01*
X76438095Y-95170238D02*
X76200000Y-95265476D01*
X75961904Y-95170238D01*
X76342857Y-95455952D02*
X76200000Y-95265476D01*
X76057142Y-95455952D01*
%TO.C,C605*%
X99357142Y-106580952D02*
X99404761Y-106533333D01*
X99452380Y-106390476D01*
X99452380Y-106295238D01*
X99404761Y-106152380D01*
X99309523Y-106057142D01*
X99214285Y-106009523D01*
X99023809Y-105961904D01*
X98880952Y-105961904D01*
X98690476Y-106009523D01*
X98595238Y-106057142D01*
X98500000Y-106152380D01*
X98452380Y-106295238D01*
X98452380Y-106390476D01*
X98500000Y-106533333D01*
X98547619Y-106580952D01*
X98452380Y-107438095D02*
X98452380Y-107247619D01*
X98500000Y-107152380D01*
X98547619Y-107104761D01*
X98690476Y-107009523D01*
X98880952Y-106961904D01*
X99261904Y-106961904D01*
X99357142Y-107009523D01*
X99404761Y-107057142D01*
X99452380Y-107152380D01*
X99452380Y-107342857D01*
X99404761Y-107438095D01*
X99357142Y-107485714D01*
X99261904Y-107533333D01*
X99023809Y-107533333D01*
X98928571Y-107485714D01*
X98880952Y-107438095D01*
X98833333Y-107342857D01*
X98833333Y-107152380D01*
X98880952Y-107057142D01*
X98928571Y-107009523D01*
X99023809Y-106961904D01*
X98452380Y-108152380D02*
X98452380Y-108247619D01*
X98500000Y-108342857D01*
X98547619Y-108390476D01*
X98642857Y-108438095D01*
X98833333Y-108485714D01*
X99071428Y-108485714D01*
X99261904Y-108438095D01*
X99357142Y-108390476D01*
X99404761Y-108342857D01*
X99452380Y-108247619D01*
X99452380Y-108152380D01*
X99404761Y-108057142D01*
X99357142Y-108009523D01*
X99261904Y-107961904D01*
X99071428Y-107914285D01*
X98833333Y-107914285D01*
X98642857Y-107961904D01*
X98547619Y-108009523D01*
X98500000Y-108057142D01*
X98452380Y-108152380D01*
X98452380Y-109390476D02*
X98452380Y-108914285D01*
X98928571Y-108866666D01*
X98880952Y-108914285D01*
X98833333Y-109009523D01*
X98833333Y-109247619D01*
X98880952Y-109342857D01*
X98928571Y-109390476D01*
X99023809Y-109438095D01*
X99261904Y-109438095D01*
X99357142Y-109390476D01*
X99404761Y-109342857D01*
X99452380Y-109247619D01*
X99452380Y-109009523D01*
X99404761Y-108914285D01*
X99357142Y-108866666D01*
%TO.C,C601*%
X120957142Y-106780952D02*
X121004761Y-106733333D01*
X121052380Y-106590476D01*
X121052380Y-106495238D01*
X121004761Y-106352380D01*
X120909523Y-106257142D01*
X120814285Y-106209523D01*
X120623809Y-106161904D01*
X120480952Y-106161904D01*
X120290476Y-106209523D01*
X120195238Y-106257142D01*
X120100000Y-106352380D01*
X120052380Y-106495238D01*
X120052380Y-106590476D01*
X120100000Y-106733333D01*
X120147619Y-106780952D01*
X120052380Y-107638095D02*
X120052380Y-107447619D01*
X120100000Y-107352380D01*
X120147619Y-107304761D01*
X120290476Y-107209523D01*
X120480952Y-107161904D01*
X120861904Y-107161904D01*
X120957142Y-107209523D01*
X121004761Y-107257142D01*
X121052380Y-107352380D01*
X121052380Y-107542857D01*
X121004761Y-107638095D01*
X120957142Y-107685714D01*
X120861904Y-107733333D01*
X120623809Y-107733333D01*
X120528571Y-107685714D01*
X120480952Y-107638095D01*
X120433333Y-107542857D01*
X120433333Y-107352380D01*
X120480952Y-107257142D01*
X120528571Y-107209523D01*
X120623809Y-107161904D01*
X120052380Y-108352380D02*
X120052380Y-108447619D01*
X120100000Y-108542857D01*
X120147619Y-108590476D01*
X120242857Y-108638095D01*
X120433333Y-108685714D01*
X120671428Y-108685714D01*
X120861904Y-108638095D01*
X120957142Y-108590476D01*
X121004761Y-108542857D01*
X121052380Y-108447619D01*
X121052380Y-108352380D01*
X121004761Y-108257142D01*
X120957142Y-108209523D01*
X120861904Y-108161904D01*
X120671428Y-108114285D01*
X120433333Y-108114285D01*
X120242857Y-108161904D01*
X120147619Y-108209523D01*
X120100000Y-108257142D01*
X120052380Y-108352380D01*
X121052380Y-109638095D02*
X121052380Y-109066666D01*
X121052380Y-109352380D02*
X120052380Y-109352380D01*
X120195238Y-109257142D01*
X120290476Y-109161904D01*
X120338095Y-109066666D01*
%TO.C,C600*%
X126219047Y-109357142D02*
X126266666Y-109404761D01*
X126409523Y-109452380D01*
X126504761Y-109452380D01*
X126647619Y-109404761D01*
X126742857Y-109309523D01*
X126790476Y-109214285D01*
X126838095Y-109023809D01*
X126838095Y-108880952D01*
X126790476Y-108690476D01*
X126742857Y-108595238D01*
X126647619Y-108500000D01*
X126504761Y-108452380D01*
X126409523Y-108452380D01*
X126266666Y-108500000D01*
X126219047Y-108547619D01*
X125361904Y-108452380D02*
X125552380Y-108452380D01*
X125647619Y-108500000D01*
X125695238Y-108547619D01*
X125790476Y-108690476D01*
X125838095Y-108880952D01*
X125838095Y-109261904D01*
X125790476Y-109357142D01*
X125742857Y-109404761D01*
X125647619Y-109452380D01*
X125457142Y-109452380D01*
X125361904Y-109404761D01*
X125314285Y-109357142D01*
X125266666Y-109261904D01*
X125266666Y-109023809D01*
X125314285Y-108928571D01*
X125361904Y-108880952D01*
X125457142Y-108833333D01*
X125647619Y-108833333D01*
X125742857Y-108880952D01*
X125790476Y-108928571D01*
X125838095Y-109023809D01*
X124647619Y-108452380D02*
X124552380Y-108452380D01*
X124457142Y-108500000D01*
X124409523Y-108547619D01*
X124361904Y-108642857D01*
X124314285Y-108833333D01*
X124314285Y-109071428D01*
X124361904Y-109261904D01*
X124409523Y-109357142D01*
X124457142Y-109404761D01*
X124552380Y-109452380D01*
X124647619Y-109452380D01*
X124742857Y-109404761D01*
X124790476Y-109357142D01*
X124838095Y-109261904D01*
X124885714Y-109071428D01*
X124885714Y-108833333D01*
X124838095Y-108642857D01*
X124790476Y-108547619D01*
X124742857Y-108500000D01*
X124647619Y-108452380D01*
X123695238Y-108452380D02*
X123600000Y-108452380D01*
X123504761Y-108500000D01*
X123457142Y-108547619D01*
X123409523Y-108642857D01*
X123361904Y-108833333D01*
X123361904Y-109071428D01*
X123409523Y-109261904D01*
X123457142Y-109357142D01*
X123504761Y-109404761D01*
X123600000Y-109452380D01*
X123695238Y-109452380D01*
X123790476Y-109404761D01*
X123838095Y-109357142D01*
X123885714Y-109261904D01*
X123933333Y-109071428D01*
X123933333Y-108833333D01*
X123885714Y-108642857D01*
X123838095Y-108547619D01*
X123790476Y-108500000D01*
X123695238Y-108452380D01*
%TO.C,D72*%
X127414285Y-86852380D02*
X127414285Y-85852380D01*
X127176190Y-85852380D01*
X127033333Y-85900000D01*
X126938095Y-85995238D01*
X126890476Y-86090476D01*
X126842857Y-86280952D01*
X126842857Y-86423809D01*
X126890476Y-86614285D01*
X126938095Y-86709523D01*
X127033333Y-86804761D01*
X127176190Y-86852380D01*
X127414285Y-86852380D01*
X126509523Y-85852380D02*
X125842857Y-85852380D01*
X126271428Y-86852380D01*
X125509523Y-85947619D02*
X125461904Y-85900000D01*
X125366666Y-85852380D01*
X125128571Y-85852380D01*
X125033333Y-85900000D01*
X124985714Y-85947619D01*
X124938095Y-86042857D01*
X124938095Y-86138095D01*
X124985714Y-86280952D01*
X125557142Y-86852380D01*
X124938095Y-86852380D01*
%TO.C,C611*%
X66857142Y-106580952D02*
X66904761Y-106533333D01*
X66952380Y-106390476D01*
X66952380Y-106295238D01*
X66904761Y-106152380D01*
X66809523Y-106057142D01*
X66714285Y-106009523D01*
X66523809Y-105961904D01*
X66380952Y-105961904D01*
X66190476Y-106009523D01*
X66095238Y-106057142D01*
X66000000Y-106152380D01*
X65952380Y-106295238D01*
X65952380Y-106390476D01*
X66000000Y-106533333D01*
X66047619Y-106580952D01*
X65952380Y-107438095D02*
X65952380Y-107247619D01*
X66000000Y-107152380D01*
X66047619Y-107104761D01*
X66190476Y-107009523D01*
X66380952Y-106961904D01*
X66761904Y-106961904D01*
X66857142Y-107009523D01*
X66904761Y-107057142D01*
X66952380Y-107152380D01*
X66952380Y-107342857D01*
X66904761Y-107438095D01*
X66857142Y-107485714D01*
X66761904Y-107533333D01*
X66523809Y-107533333D01*
X66428571Y-107485714D01*
X66380952Y-107438095D01*
X66333333Y-107342857D01*
X66333333Y-107152380D01*
X66380952Y-107057142D01*
X66428571Y-107009523D01*
X66523809Y-106961904D01*
X66952380Y-108485714D02*
X66952380Y-107914285D01*
X66952380Y-108200000D02*
X65952380Y-108200000D01*
X66095238Y-108104761D01*
X66190476Y-108009523D01*
X66238095Y-107914285D01*
X66952380Y-109438095D02*
X66952380Y-108866666D01*
X66952380Y-109152380D02*
X65952380Y-109152380D01*
X66095238Y-109057142D01*
X66190476Y-108961904D01*
X66238095Y-108866666D01*
%TO.C,C23*%
X100357142Y-91957142D02*
X100404761Y-91909523D01*
X100452380Y-91766666D01*
X100452380Y-91671428D01*
X100404761Y-91528571D01*
X100309523Y-91433333D01*
X100214285Y-91385714D01*
X100023809Y-91338095D01*
X99880952Y-91338095D01*
X99690476Y-91385714D01*
X99595238Y-91433333D01*
X99500000Y-91528571D01*
X99452380Y-91671428D01*
X99452380Y-91766666D01*
X99500000Y-91909523D01*
X99547619Y-91957142D01*
X99547619Y-92338095D02*
X99500000Y-92385714D01*
X99452380Y-92480952D01*
X99452380Y-92719047D01*
X99500000Y-92814285D01*
X99547619Y-92861904D01*
X99642857Y-92909523D01*
X99738095Y-92909523D01*
X99880952Y-92861904D01*
X100452380Y-92290476D01*
X100452380Y-92909523D01*
X99452380Y-93242857D02*
X99452380Y-93861904D01*
X99833333Y-93528571D01*
X99833333Y-93671428D01*
X99880952Y-93766666D01*
X99928571Y-93814285D01*
X100023809Y-93861904D01*
X100261904Y-93861904D01*
X100357142Y-93814285D01*
X100404761Y-93766666D01*
X100452380Y-93671428D01*
X100452380Y-93385714D01*
X100404761Y-93290476D01*
X100357142Y-93242857D01*
%TO.C,C90*%
X76392857Y-89682142D02*
X76440476Y-89729761D01*
X76583333Y-89777380D01*
X76678571Y-89777380D01*
X76821428Y-89729761D01*
X76916666Y-89634523D01*
X76964285Y-89539285D01*
X77011904Y-89348809D01*
X77011904Y-89205952D01*
X76964285Y-89015476D01*
X76916666Y-88920238D01*
X76821428Y-88825000D01*
X76678571Y-88777380D01*
X76583333Y-88777380D01*
X76440476Y-88825000D01*
X76392857Y-88872619D01*
X75916666Y-89777380D02*
X75726190Y-89777380D01*
X75630952Y-89729761D01*
X75583333Y-89682142D01*
X75488095Y-89539285D01*
X75440476Y-89348809D01*
X75440476Y-88967857D01*
X75488095Y-88872619D01*
X75535714Y-88825000D01*
X75630952Y-88777380D01*
X75821428Y-88777380D01*
X75916666Y-88825000D01*
X75964285Y-88872619D01*
X76011904Y-88967857D01*
X76011904Y-89205952D01*
X75964285Y-89301190D01*
X75916666Y-89348809D01*
X75821428Y-89396428D01*
X75630952Y-89396428D01*
X75535714Y-89348809D01*
X75488095Y-89301190D01*
X75440476Y-89205952D01*
X74821428Y-88777380D02*
X74726190Y-88777380D01*
X74630952Y-88825000D01*
X74583333Y-88872619D01*
X74535714Y-88967857D01*
X74488095Y-89158333D01*
X74488095Y-89396428D01*
X74535714Y-89586904D01*
X74583333Y-89682142D01*
X74630952Y-89729761D01*
X74726190Y-89777380D01*
X74821428Y-89777380D01*
X74916666Y-89729761D01*
X74964285Y-89682142D01*
X75011904Y-89586904D01*
X75059523Y-89396428D01*
X75059523Y-89158333D01*
X75011904Y-88967857D01*
X74964285Y-88872619D01*
X74916666Y-88825000D01*
X74821428Y-88777380D01*
%TO.C,C604*%
X104557142Y-106580952D02*
X104604761Y-106533333D01*
X104652380Y-106390476D01*
X104652380Y-106295238D01*
X104604761Y-106152380D01*
X104509523Y-106057142D01*
X104414285Y-106009523D01*
X104223809Y-105961904D01*
X104080952Y-105961904D01*
X103890476Y-106009523D01*
X103795238Y-106057142D01*
X103700000Y-106152380D01*
X103652380Y-106295238D01*
X103652380Y-106390476D01*
X103700000Y-106533333D01*
X103747619Y-106580952D01*
X103652380Y-107438095D02*
X103652380Y-107247619D01*
X103700000Y-107152380D01*
X103747619Y-107104761D01*
X103890476Y-107009523D01*
X104080952Y-106961904D01*
X104461904Y-106961904D01*
X104557142Y-107009523D01*
X104604761Y-107057142D01*
X104652380Y-107152380D01*
X104652380Y-107342857D01*
X104604761Y-107438095D01*
X104557142Y-107485714D01*
X104461904Y-107533333D01*
X104223809Y-107533333D01*
X104128571Y-107485714D01*
X104080952Y-107438095D01*
X104033333Y-107342857D01*
X104033333Y-107152380D01*
X104080952Y-107057142D01*
X104128571Y-107009523D01*
X104223809Y-106961904D01*
X103652380Y-108152380D02*
X103652380Y-108247619D01*
X103700000Y-108342857D01*
X103747619Y-108390476D01*
X103842857Y-108438095D01*
X104033333Y-108485714D01*
X104271428Y-108485714D01*
X104461904Y-108438095D01*
X104557142Y-108390476D01*
X104604761Y-108342857D01*
X104652380Y-108247619D01*
X104652380Y-108152380D01*
X104604761Y-108057142D01*
X104557142Y-108009523D01*
X104461904Y-107961904D01*
X104271428Y-107914285D01*
X104033333Y-107914285D01*
X103842857Y-107961904D01*
X103747619Y-108009523D01*
X103700000Y-108057142D01*
X103652380Y-108152380D01*
X103985714Y-109342857D02*
X104652380Y-109342857D01*
X103604761Y-109104761D02*
X104319047Y-108866666D01*
X104319047Y-109485714D01*
%TO.C,D606*%
X96138309Y-105625869D02*
X96138309Y-104625869D01*
X95900213Y-104625869D01*
X95757356Y-104673489D01*
X95662118Y-104768727D01*
X95614499Y-104863965D01*
X95566880Y-105054441D01*
X95566880Y-105197298D01*
X95614499Y-105387774D01*
X95662118Y-105483012D01*
X95757356Y-105578250D01*
X95900213Y-105625869D01*
X96138309Y-105625869D01*
X94709737Y-104625869D02*
X94900213Y-104625869D01*
X94995452Y-104673489D01*
X95043071Y-104721108D01*
X95138309Y-104863965D01*
X95185928Y-105054441D01*
X95185928Y-105435393D01*
X95138309Y-105530631D01*
X95090690Y-105578250D01*
X94995452Y-105625869D01*
X94804975Y-105625869D01*
X94709737Y-105578250D01*
X94662118Y-105530631D01*
X94614499Y-105435393D01*
X94614499Y-105197298D01*
X94662118Y-105102060D01*
X94709737Y-105054441D01*
X94804975Y-105006822D01*
X94995452Y-105006822D01*
X95090690Y-105054441D01*
X95138309Y-105102060D01*
X95185928Y-105197298D01*
X93995452Y-104625869D02*
X93900213Y-104625869D01*
X93804975Y-104673489D01*
X93757356Y-104721108D01*
X93709737Y-104816346D01*
X93662118Y-105006822D01*
X93662118Y-105244917D01*
X93709737Y-105435393D01*
X93757356Y-105530631D01*
X93804975Y-105578250D01*
X93900213Y-105625869D01*
X93995452Y-105625869D01*
X94090690Y-105578250D01*
X94138309Y-105530631D01*
X94185928Y-105435393D01*
X94233547Y-105244917D01*
X94233547Y-105006822D01*
X94185928Y-104816346D01*
X94138309Y-104721108D01*
X94090690Y-104673489D01*
X93995452Y-104625869D01*
X92804975Y-104625869D02*
X92995452Y-104625869D01*
X93090690Y-104673489D01*
X93138309Y-104721108D01*
X93233547Y-104863965D01*
X93281166Y-105054441D01*
X93281166Y-105435393D01*
X93233547Y-105530631D01*
X93185928Y-105578250D01*
X93090690Y-105625869D01*
X92900213Y-105625869D01*
X92804975Y-105578250D01*
X92757356Y-105530631D01*
X92709737Y-105435393D01*
X92709737Y-105197298D01*
X92757356Y-105102060D01*
X92804975Y-105054441D01*
X92900213Y-105006822D01*
X93090690Y-105006822D01*
X93185928Y-105054441D01*
X93233547Y-105102060D01*
X93281166Y-105197298D01*
D11*
X96040063Y-107059203D02*
X96211492Y-107059203D01*
X96125778Y-107059203D02*
X96125778Y-106759203D01*
X96154349Y-106802060D01*
X96182920Y-106830631D01*
X96211492Y-106844917D01*
D10*
%TO.C,U70*%
X85438095Y-86052380D02*
X85438095Y-86861904D01*
X85390476Y-86957142D01*
X85342857Y-87004761D01*
X85247619Y-87052380D01*
X85057142Y-87052380D01*
X84961904Y-87004761D01*
X84914285Y-86957142D01*
X84866666Y-86861904D01*
X84866666Y-86052380D01*
X84485714Y-86052380D02*
X83819047Y-86052380D01*
X84247619Y-87052380D01*
X83247619Y-86052380D02*
X83152380Y-86052380D01*
X83057142Y-86100000D01*
X83009523Y-86147619D01*
X82961904Y-86242857D01*
X82914285Y-86433333D01*
X82914285Y-86671428D01*
X82961904Y-86861904D01*
X83009523Y-86957142D01*
X83057142Y-87004761D01*
X83152380Y-87052380D01*
X83247619Y-87052380D01*
X83342857Y-87004761D01*
X83390476Y-86957142D01*
X83438095Y-86861904D01*
X83485714Y-86671428D01*
X83485714Y-86433333D01*
X83438095Y-86242857D01*
X83390476Y-86147619D01*
X83342857Y-86100000D01*
X83247619Y-86052380D01*
%TO.C,U72*%
X92938095Y-83102380D02*
X92938095Y-83911904D01*
X92890476Y-84007142D01*
X92842857Y-84054761D01*
X92747619Y-84102380D01*
X92557142Y-84102380D01*
X92461904Y-84054761D01*
X92414285Y-84007142D01*
X92366666Y-83911904D01*
X92366666Y-83102380D01*
X91985714Y-83102380D02*
X91319047Y-83102380D01*
X91747619Y-84102380D01*
X90985714Y-83197619D02*
X90938095Y-83150000D01*
X90842857Y-83102380D01*
X90604761Y-83102380D01*
X90509523Y-83150000D01*
X90461904Y-83197619D01*
X90414285Y-83292857D01*
X90414285Y-83388095D01*
X90461904Y-83530952D01*
X91033333Y-84102380D01*
X90414285Y-84102380D01*
%TO.C,C608*%
X82957142Y-106680952D02*
X83004761Y-106633333D01*
X83052380Y-106490476D01*
X83052380Y-106395238D01*
X83004761Y-106252380D01*
X82909523Y-106157142D01*
X82814285Y-106109523D01*
X82623809Y-106061904D01*
X82480952Y-106061904D01*
X82290476Y-106109523D01*
X82195238Y-106157142D01*
X82100000Y-106252380D01*
X82052380Y-106395238D01*
X82052380Y-106490476D01*
X82100000Y-106633333D01*
X82147619Y-106680952D01*
X82052380Y-107538095D02*
X82052380Y-107347619D01*
X82100000Y-107252380D01*
X82147619Y-107204761D01*
X82290476Y-107109523D01*
X82480952Y-107061904D01*
X82861904Y-107061904D01*
X82957142Y-107109523D01*
X83004761Y-107157142D01*
X83052380Y-107252380D01*
X83052380Y-107442857D01*
X83004761Y-107538095D01*
X82957142Y-107585714D01*
X82861904Y-107633333D01*
X82623809Y-107633333D01*
X82528571Y-107585714D01*
X82480952Y-107538095D01*
X82433333Y-107442857D01*
X82433333Y-107252380D01*
X82480952Y-107157142D01*
X82528571Y-107109523D01*
X82623809Y-107061904D01*
X82052380Y-108252380D02*
X82052380Y-108347619D01*
X82100000Y-108442857D01*
X82147619Y-108490476D01*
X82242857Y-108538095D01*
X82433333Y-108585714D01*
X82671428Y-108585714D01*
X82861904Y-108538095D01*
X82957142Y-108490476D01*
X83004761Y-108442857D01*
X83052380Y-108347619D01*
X83052380Y-108252380D01*
X83004761Y-108157142D01*
X82957142Y-108109523D01*
X82861904Y-108061904D01*
X82671428Y-108014285D01*
X82433333Y-108014285D01*
X82242857Y-108061904D01*
X82147619Y-108109523D01*
X82100000Y-108157142D01*
X82052380Y-108252380D01*
X82480952Y-109157142D02*
X82433333Y-109061904D01*
X82385714Y-109014285D01*
X82290476Y-108966666D01*
X82242857Y-108966666D01*
X82147619Y-109014285D01*
X82100000Y-109061904D01*
X82052380Y-109157142D01*
X82052380Y-109347619D01*
X82100000Y-109442857D01*
X82147619Y-109490476D01*
X82242857Y-109538095D01*
X82290476Y-109538095D01*
X82385714Y-109490476D01*
X82433333Y-109442857D01*
X82480952Y-109347619D01*
X82480952Y-109157142D01*
X82528571Y-109061904D01*
X82576190Y-109014285D01*
X82671428Y-108966666D01*
X82861904Y-108966666D01*
X82957142Y-109014285D01*
X83004761Y-109061904D01*
X83052380Y-109157142D01*
X83052380Y-109347619D01*
X83004761Y-109442857D01*
X82957142Y-109490476D01*
X82861904Y-109538095D01*
X82671428Y-109538095D01*
X82576190Y-109490476D01*
X82528571Y-109442857D01*
X82480952Y-109347619D01*
%TO.C,C24*%
X120757142Y-87957142D02*
X120804761Y-87909523D01*
X120852380Y-87766666D01*
X120852380Y-87671428D01*
X120804761Y-87528571D01*
X120709523Y-87433333D01*
X120614285Y-87385714D01*
X120423809Y-87338095D01*
X120280952Y-87338095D01*
X120090476Y-87385714D01*
X119995238Y-87433333D01*
X119900000Y-87528571D01*
X119852380Y-87671428D01*
X119852380Y-87766666D01*
X119900000Y-87909523D01*
X119947619Y-87957142D01*
X119947619Y-88338095D02*
X119900000Y-88385714D01*
X119852380Y-88480952D01*
X119852380Y-88719047D01*
X119900000Y-88814285D01*
X119947619Y-88861904D01*
X120042857Y-88909523D01*
X120138095Y-88909523D01*
X120280952Y-88861904D01*
X120852380Y-88290476D01*
X120852380Y-88909523D01*
X120185714Y-89766666D02*
X120852380Y-89766666D01*
X119804761Y-89528571D02*
X120519047Y-89290476D01*
X120519047Y-89909523D01*
%TO.C,C602*%
X115557142Y-106680952D02*
X115604761Y-106633333D01*
X115652380Y-106490476D01*
X115652380Y-106395238D01*
X115604761Y-106252380D01*
X115509523Y-106157142D01*
X115414285Y-106109523D01*
X115223809Y-106061904D01*
X115080952Y-106061904D01*
X114890476Y-106109523D01*
X114795238Y-106157142D01*
X114700000Y-106252380D01*
X114652380Y-106395238D01*
X114652380Y-106490476D01*
X114700000Y-106633333D01*
X114747619Y-106680952D01*
X114652380Y-107538095D02*
X114652380Y-107347619D01*
X114700000Y-107252380D01*
X114747619Y-107204761D01*
X114890476Y-107109523D01*
X115080952Y-107061904D01*
X115461904Y-107061904D01*
X115557142Y-107109523D01*
X115604761Y-107157142D01*
X115652380Y-107252380D01*
X115652380Y-107442857D01*
X115604761Y-107538095D01*
X115557142Y-107585714D01*
X115461904Y-107633333D01*
X115223809Y-107633333D01*
X115128571Y-107585714D01*
X115080952Y-107538095D01*
X115033333Y-107442857D01*
X115033333Y-107252380D01*
X115080952Y-107157142D01*
X115128571Y-107109523D01*
X115223809Y-107061904D01*
X114652380Y-108252380D02*
X114652380Y-108347619D01*
X114700000Y-108442857D01*
X114747619Y-108490476D01*
X114842857Y-108538095D01*
X115033333Y-108585714D01*
X115271428Y-108585714D01*
X115461904Y-108538095D01*
X115557142Y-108490476D01*
X115604761Y-108442857D01*
X115652380Y-108347619D01*
X115652380Y-108252380D01*
X115604761Y-108157142D01*
X115557142Y-108109523D01*
X115461904Y-108061904D01*
X115271428Y-108014285D01*
X115033333Y-108014285D01*
X114842857Y-108061904D01*
X114747619Y-108109523D01*
X114700000Y-108157142D01*
X114652380Y-108252380D01*
X114747619Y-108966666D02*
X114700000Y-109014285D01*
X114652380Y-109109523D01*
X114652380Y-109347619D01*
X114700000Y-109442857D01*
X114747619Y-109490476D01*
X114842857Y-109538095D01*
X114938095Y-109538095D01*
X115080952Y-109490476D01*
X115652380Y-108919047D01*
X115652380Y-109538095D01*
%TO.C,C11*%
X111582857Y-88517142D02*
X111630476Y-88564761D01*
X111773333Y-88612380D01*
X111868571Y-88612380D01*
X112011428Y-88564761D01*
X112106666Y-88469523D01*
X112154285Y-88374285D01*
X112201904Y-88183809D01*
X112201904Y-88040952D01*
X112154285Y-87850476D01*
X112106666Y-87755238D01*
X112011428Y-87660000D01*
X111868571Y-87612380D01*
X111773333Y-87612380D01*
X111630476Y-87660000D01*
X111582857Y-87707619D01*
X110630476Y-88612380D02*
X111201904Y-88612380D01*
X110916190Y-88612380D02*
X110916190Y-87612380D01*
X111011428Y-87755238D01*
X111106666Y-87850476D01*
X111201904Y-87898095D01*
X109678095Y-88612380D02*
X110249523Y-88612380D01*
X109963809Y-88612380D02*
X109963809Y-87612380D01*
X110059047Y-87755238D01*
X110154285Y-87850476D01*
X110249523Y-87898095D01*
%TO.C,R60*%
X125742857Y-107752380D02*
X126076190Y-107276190D01*
X126314285Y-107752380D02*
X126314285Y-106752380D01*
X125933333Y-106752380D01*
X125838095Y-106800000D01*
X125790476Y-106847619D01*
X125742857Y-106942857D01*
X125742857Y-107085714D01*
X125790476Y-107180952D01*
X125838095Y-107228571D01*
X125933333Y-107276190D01*
X126314285Y-107276190D01*
X124885714Y-106752380D02*
X125076190Y-106752380D01*
X125171428Y-106800000D01*
X125219047Y-106847619D01*
X125314285Y-106990476D01*
X125361904Y-107180952D01*
X125361904Y-107561904D01*
X125314285Y-107657142D01*
X125266666Y-107704761D01*
X125171428Y-107752380D01*
X124980952Y-107752380D01*
X124885714Y-107704761D01*
X124838095Y-107657142D01*
X124790476Y-107561904D01*
X124790476Y-107323809D01*
X124838095Y-107228571D01*
X124885714Y-107180952D01*
X124980952Y-107133333D01*
X125171428Y-107133333D01*
X125266666Y-107180952D01*
X125314285Y-107228571D01*
X125361904Y-107323809D01*
X124171428Y-106752380D02*
X124076190Y-106752380D01*
X123980952Y-106800000D01*
X123933333Y-106847619D01*
X123885714Y-106942857D01*
X123838095Y-107133333D01*
X123838095Y-107371428D01*
X123885714Y-107561904D01*
X123933333Y-107657142D01*
X123980952Y-107704761D01*
X124076190Y-107752380D01*
X124171428Y-107752380D01*
X124266666Y-107704761D01*
X124314285Y-107657142D01*
X124361904Y-107561904D01*
X124409523Y-107371428D01*
X124409523Y-107133333D01*
X124361904Y-106942857D01*
X124314285Y-106847619D01*
X124266666Y-106800000D01*
X124171428Y-106752380D01*
%TO.C,R22*%
X101752380Y-91957142D02*
X101276190Y-91623809D01*
X101752380Y-91385714D02*
X100752380Y-91385714D01*
X100752380Y-91766666D01*
X100800000Y-91861904D01*
X100847619Y-91909523D01*
X100942857Y-91957142D01*
X101085714Y-91957142D01*
X101180952Y-91909523D01*
X101228571Y-91861904D01*
X101276190Y-91766666D01*
X101276190Y-91385714D01*
X100847619Y-92338095D02*
X100800000Y-92385714D01*
X100752380Y-92480952D01*
X100752380Y-92719047D01*
X100800000Y-92814285D01*
X100847619Y-92861904D01*
X100942857Y-92909523D01*
X101038095Y-92909523D01*
X101180952Y-92861904D01*
X101752380Y-92290476D01*
X101752380Y-92909523D01*
X100847619Y-93290476D02*
X100800000Y-93338095D01*
X100752380Y-93433333D01*
X100752380Y-93671428D01*
X100800000Y-93766666D01*
X100847619Y-93814285D01*
X100942857Y-93861904D01*
X101038095Y-93861904D01*
X101180952Y-93814285D01*
X101752380Y-93242857D01*
X101752380Y-93861904D01*
%TO.C,C77*%
X88142857Y-83857142D02*
X88190476Y-83904761D01*
X88333333Y-83952380D01*
X88428571Y-83952380D01*
X88571428Y-83904761D01*
X88666666Y-83809523D01*
X88714285Y-83714285D01*
X88761904Y-83523809D01*
X88761904Y-83380952D01*
X88714285Y-83190476D01*
X88666666Y-83095238D01*
X88571428Y-83000000D01*
X88428571Y-82952380D01*
X88333333Y-82952380D01*
X88190476Y-83000000D01*
X88142857Y-83047619D01*
X87809523Y-82952380D02*
X87142857Y-82952380D01*
X87571428Y-83952380D01*
X86857142Y-82952380D02*
X86190476Y-82952380D01*
X86619047Y-83952380D01*
%TO.C,D602*%
X117807725Y-105625869D02*
X117807725Y-104625869D01*
X117569629Y-104625869D01*
X117426772Y-104673489D01*
X117331534Y-104768727D01*
X117283915Y-104863965D01*
X117236296Y-105054441D01*
X117236296Y-105197298D01*
X117283915Y-105387774D01*
X117331534Y-105483012D01*
X117426772Y-105578250D01*
X117569629Y-105625869D01*
X117807725Y-105625869D01*
X116379153Y-104625869D02*
X116569629Y-104625869D01*
X116664868Y-104673489D01*
X116712487Y-104721108D01*
X116807725Y-104863965D01*
X116855344Y-105054441D01*
X116855344Y-105435393D01*
X116807725Y-105530631D01*
X116760106Y-105578250D01*
X116664868Y-105625869D01*
X116474391Y-105625869D01*
X116379153Y-105578250D01*
X116331534Y-105530631D01*
X116283915Y-105435393D01*
X116283915Y-105197298D01*
X116331534Y-105102060D01*
X116379153Y-105054441D01*
X116474391Y-105006822D01*
X116664868Y-105006822D01*
X116760106Y-105054441D01*
X116807725Y-105102060D01*
X116855344Y-105197298D01*
X115664868Y-104625869D02*
X115569629Y-104625869D01*
X115474391Y-104673489D01*
X115426772Y-104721108D01*
X115379153Y-104816346D01*
X115331534Y-105006822D01*
X115331534Y-105244917D01*
X115379153Y-105435393D01*
X115426772Y-105530631D01*
X115474391Y-105578250D01*
X115569629Y-105625869D01*
X115664868Y-105625869D01*
X115760106Y-105578250D01*
X115807725Y-105530631D01*
X115855344Y-105435393D01*
X115902963Y-105244917D01*
X115902963Y-105006822D01*
X115855344Y-104816346D01*
X115807725Y-104721108D01*
X115760106Y-104673489D01*
X115664868Y-104625869D01*
X114950582Y-104721108D02*
X114902963Y-104673489D01*
X114807725Y-104625869D01*
X114569629Y-104625869D01*
X114474391Y-104673489D01*
X114426772Y-104721108D01*
X114379153Y-104816346D01*
X114379153Y-104911584D01*
X114426772Y-105054441D01*
X114998201Y-105625869D01*
X114379153Y-105625869D01*
D11*
X117709479Y-107059203D02*
X117880908Y-107059203D01*
X117795194Y-107059203D02*
X117795194Y-106759203D01*
X117823765Y-106802060D01*
X117852336Y-106830631D01*
X117880908Y-106844917D01*
D10*
%TO.C,D604*%
X106973017Y-105625869D02*
X106973017Y-104625869D01*
X106734921Y-104625869D01*
X106592064Y-104673489D01*
X106496826Y-104768727D01*
X106449207Y-104863965D01*
X106401588Y-105054441D01*
X106401588Y-105197298D01*
X106449207Y-105387774D01*
X106496826Y-105483012D01*
X106592064Y-105578250D01*
X106734921Y-105625869D01*
X106973017Y-105625869D01*
X105544445Y-104625869D02*
X105734921Y-104625869D01*
X105830160Y-104673489D01*
X105877779Y-104721108D01*
X105973017Y-104863965D01*
X106020636Y-105054441D01*
X106020636Y-105435393D01*
X105973017Y-105530631D01*
X105925398Y-105578250D01*
X105830160Y-105625869D01*
X105639683Y-105625869D01*
X105544445Y-105578250D01*
X105496826Y-105530631D01*
X105449207Y-105435393D01*
X105449207Y-105197298D01*
X105496826Y-105102060D01*
X105544445Y-105054441D01*
X105639683Y-105006822D01*
X105830160Y-105006822D01*
X105925398Y-105054441D01*
X105973017Y-105102060D01*
X106020636Y-105197298D01*
X104830160Y-104625869D02*
X104734921Y-104625869D01*
X104639683Y-104673489D01*
X104592064Y-104721108D01*
X104544445Y-104816346D01*
X104496826Y-105006822D01*
X104496826Y-105244917D01*
X104544445Y-105435393D01*
X104592064Y-105530631D01*
X104639683Y-105578250D01*
X104734921Y-105625869D01*
X104830160Y-105625869D01*
X104925398Y-105578250D01*
X104973017Y-105530631D01*
X105020636Y-105435393D01*
X105068255Y-105244917D01*
X105068255Y-105006822D01*
X105020636Y-104816346D01*
X104973017Y-104721108D01*
X104925398Y-104673489D01*
X104830160Y-104625869D01*
X103639683Y-104959203D02*
X103639683Y-105625869D01*
X103877779Y-104578250D02*
X104115874Y-105292536D01*
X103496826Y-105292536D01*
D11*
X106874771Y-107059203D02*
X107046200Y-107059203D01*
X106960486Y-107059203D02*
X106960486Y-106759203D01*
X106989057Y-106802060D01*
X107017628Y-106830631D01*
X107046200Y-106844917D01*
D10*
%TO.C,U71*%
X81552380Y-92561904D02*
X82361904Y-92561904D01*
X82457142Y-92609523D01*
X82504761Y-92657142D01*
X82552380Y-92752380D01*
X82552380Y-92942857D01*
X82504761Y-93038095D01*
X82457142Y-93085714D01*
X82361904Y-93133333D01*
X81552380Y-93133333D01*
X81552380Y-93514285D02*
X81552380Y-94180952D01*
X82552380Y-93752380D01*
X82552380Y-95085714D02*
X82552380Y-94514285D01*
X82552380Y-94800000D02*
X81552380Y-94800000D01*
X81695238Y-94704761D01*
X81790476Y-94609523D01*
X81838095Y-94514285D01*
%TO.C,C607*%
X88357142Y-106680952D02*
X88404761Y-106633333D01*
X88452380Y-106490476D01*
X88452380Y-106395238D01*
X88404761Y-106252380D01*
X88309523Y-106157142D01*
X88214285Y-106109523D01*
X88023809Y-106061904D01*
X87880952Y-106061904D01*
X87690476Y-106109523D01*
X87595238Y-106157142D01*
X87500000Y-106252380D01*
X87452380Y-106395238D01*
X87452380Y-106490476D01*
X87500000Y-106633333D01*
X87547619Y-106680952D01*
X87452380Y-107538095D02*
X87452380Y-107347619D01*
X87500000Y-107252380D01*
X87547619Y-107204761D01*
X87690476Y-107109523D01*
X87880952Y-107061904D01*
X88261904Y-107061904D01*
X88357142Y-107109523D01*
X88404761Y-107157142D01*
X88452380Y-107252380D01*
X88452380Y-107442857D01*
X88404761Y-107538095D01*
X88357142Y-107585714D01*
X88261904Y-107633333D01*
X88023809Y-107633333D01*
X87928571Y-107585714D01*
X87880952Y-107538095D01*
X87833333Y-107442857D01*
X87833333Y-107252380D01*
X87880952Y-107157142D01*
X87928571Y-107109523D01*
X88023809Y-107061904D01*
X87452380Y-108252380D02*
X87452380Y-108347619D01*
X87500000Y-108442857D01*
X87547619Y-108490476D01*
X87642857Y-108538095D01*
X87833333Y-108585714D01*
X88071428Y-108585714D01*
X88261904Y-108538095D01*
X88357142Y-108490476D01*
X88404761Y-108442857D01*
X88452380Y-108347619D01*
X88452380Y-108252380D01*
X88404761Y-108157142D01*
X88357142Y-108109523D01*
X88261904Y-108061904D01*
X88071428Y-108014285D01*
X87833333Y-108014285D01*
X87642857Y-108061904D01*
X87547619Y-108109523D01*
X87500000Y-108157142D01*
X87452380Y-108252380D01*
X87452380Y-108919047D02*
X87452380Y-109585714D01*
X88452380Y-109157142D01*
%TO.C,R71*%
X88142857Y-85352380D02*
X88476190Y-84876190D01*
X88714285Y-85352380D02*
X88714285Y-84352380D01*
X88333333Y-84352380D01*
X88238095Y-84400000D01*
X88190476Y-84447619D01*
X88142857Y-84542857D01*
X88142857Y-84685714D01*
X88190476Y-84780952D01*
X88238095Y-84828571D01*
X88333333Y-84876190D01*
X88714285Y-84876190D01*
X87809523Y-84352380D02*
X87142857Y-84352380D01*
X87571428Y-85352380D01*
X86238095Y-85352380D02*
X86809523Y-85352380D01*
X86523809Y-85352380D02*
X86523809Y-84352380D01*
X86619047Y-84495238D01*
X86714285Y-84590476D01*
X86809523Y-84638095D01*
%TO.C,D610*%
X74468893Y-105625869D02*
X74468893Y-104625869D01*
X74230797Y-104625869D01*
X74087940Y-104673489D01*
X73992702Y-104768727D01*
X73945083Y-104863965D01*
X73897464Y-105054441D01*
X73897464Y-105197298D01*
X73945083Y-105387774D01*
X73992702Y-105483012D01*
X74087940Y-105578250D01*
X74230797Y-105625869D01*
X74468893Y-105625869D01*
X73040321Y-104625869D02*
X73230797Y-104625869D01*
X73326036Y-104673489D01*
X73373655Y-104721108D01*
X73468893Y-104863965D01*
X73516512Y-105054441D01*
X73516512Y-105435393D01*
X73468893Y-105530631D01*
X73421274Y-105578250D01*
X73326036Y-105625869D01*
X73135559Y-105625869D01*
X73040321Y-105578250D01*
X72992702Y-105530631D01*
X72945083Y-105435393D01*
X72945083Y-105197298D01*
X72992702Y-105102060D01*
X73040321Y-105054441D01*
X73135559Y-105006822D01*
X73326036Y-105006822D01*
X73421274Y-105054441D01*
X73468893Y-105102060D01*
X73516512Y-105197298D01*
X71992702Y-105625869D02*
X72564131Y-105625869D01*
X72278417Y-105625869D02*
X72278417Y-104625869D01*
X72373655Y-104768727D01*
X72468893Y-104863965D01*
X72564131Y-104911584D01*
X71373655Y-104625869D02*
X71278417Y-104625869D01*
X71183178Y-104673489D01*
X71135559Y-104721108D01*
X71087940Y-104816346D01*
X71040321Y-105006822D01*
X71040321Y-105244917D01*
X71087940Y-105435393D01*
X71135559Y-105530631D01*
X71183178Y-105578250D01*
X71278417Y-105625869D01*
X71373655Y-105625869D01*
X71468893Y-105578250D01*
X71516512Y-105530631D01*
X71564131Y-105435393D01*
X71611750Y-105244917D01*
X71611750Y-105006822D01*
X71564131Y-104816346D01*
X71516512Y-104721108D01*
X71468893Y-104673489D01*
X71373655Y-104625869D01*
D11*
X74370647Y-107009203D02*
X74542076Y-107009203D01*
X74456362Y-107009203D02*
X74456362Y-106709203D01*
X74484933Y-106752060D01*
X74513504Y-106780631D01*
X74542076Y-106794917D01*
D10*
%TO.C,D608*%
X85303601Y-105625869D02*
X85303601Y-104625869D01*
X85065505Y-104625869D01*
X84922648Y-104673489D01*
X84827410Y-104768727D01*
X84779791Y-104863965D01*
X84732172Y-105054441D01*
X84732172Y-105197298D01*
X84779791Y-105387774D01*
X84827410Y-105483012D01*
X84922648Y-105578250D01*
X85065505Y-105625869D01*
X85303601Y-105625869D01*
X83875029Y-104625869D02*
X84065505Y-104625869D01*
X84160744Y-104673489D01*
X84208363Y-104721108D01*
X84303601Y-104863965D01*
X84351220Y-105054441D01*
X84351220Y-105435393D01*
X84303601Y-105530631D01*
X84255982Y-105578250D01*
X84160744Y-105625869D01*
X83970267Y-105625869D01*
X83875029Y-105578250D01*
X83827410Y-105530631D01*
X83779791Y-105435393D01*
X83779791Y-105197298D01*
X83827410Y-105102060D01*
X83875029Y-105054441D01*
X83970267Y-105006822D01*
X84160744Y-105006822D01*
X84255982Y-105054441D01*
X84303601Y-105102060D01*
X84351220Y-105197298D01*
X83160744Y-104625869D02*
X83065505Y-104625869D01*
X82970267Y-104673489D01*
X82922648Y-104721108D01*
X82875029Y-104816346D01*
X82827410Y-105006822D01*
X82827410Y-105244917D01*
X82875029Y-105435393D01*
X82922648Y-105530631D01*
X82970267Y-105578250D01*
X83065505Y-105625869D01*
X83160744Y-105625869D01*
X83255982Y-105578250D01*
X83303601Y-105530631D01*
X83351220Y-105435393D01*
X83398839Y-105244917D01*
X83398839Y-105006822D01*
X83351220Y-104816346D01*
X83303601Y-104721108D01*
X83255982Y-104673489D01*
X83160744Y-104625869D01*
X82255982Y-105054441D02*
X82351220Y-105006822D01*
X82398839Y-104959203D01*
X82446458Y-104863965D01*
X82446458Y-104816346D01*
X82398839Y-104721108D01*
X82351220Y-104673489D01*
X82255982Y-104625869D01*
X82065505Y-104625869D01*
X81970267Y-104673489D01*
X81922648Y-104721108D01*
X81875029Y-104816346D01*
X81875029Y-104863965D01*
X81922648Y-104959203D01*
X81970267Y-105006822D01*
X82065505Y-105054441D01*
X82255982Y-105054441D01*
X82351220Y-105102060D01*
X82398839Y-105149679D01*
X82446458Y-105244917D01*
X82446458Y-105435393D01*
X82398839Y-105530631D01*
X82351220Y-105578250D01*
X82255982Y-105625869D01*
X82065505Y-105625869D01*
X81970267Y-105578250D01*
X81922648Y-105530631D01*
X81875029Y-105435393D01*
X81875029Y-105244917D01*
X81922648Y-105149679D01*
X81970267Y-105102060D01*
X82065505Y-105054441D01*
D11*
X85205355Y-107059203D02*
X85376784Y-107059203D01*
X85291070Y-107059203D02*
X85291070Y-106759203D01*
X85319641Y-106802060D01*
X85348212Y-106830631D01*
X85376784Y-106844917D01*
D10*
%TO.C,C20*%
X104342857Y-91157142D02*
X104390476Y-91204761D01*
X104533333Y-91252380D01*
X104628571Y-91252380D01*
X104771428Y-91204761D01*
X104866666Y-91109523D01*
X104914285Y-91014285D01*
X104961904Y-90823809D01*
X104961904Y-90680952D01*
X104914285Y-90490476D01*
X104866666Y-90395238D01*
X104771428Y-90300000D01*
X104628571Y-90252380D01*
X104533333Y-90252380D01*
X104390476Y-90300000D01*
X104342857Y-90347619D01*
X103961904Y-90347619D02*
X103914285Y-90300000D01*
X103819047Y-90252380D01*
X103580952Y-90252380D01*
X103485714Y-90300000D01*
X103438095Y-90347619D01*
X103390476Y-90442857D01*
X103390476Y-90538095D01*
X103438095Y-90680952D01*
X104009523Y-91252380D01*
X103390476Y-91252380D01*
X102771428Y-90252380D02*
X102676190Y-90252380D01*
X102580952Y-90300000D01*
X102533333Y-90347619D01*
X102485714Y-90442857D01*
X102438095Y-90633333D01*
X102438095Y-90871428D01*
X102485714Y-91061904D01*
X102533333Y-91157142D01*
X102580952Y-91204761D01*
X102676190Y-91252380D01*
X102771428Y-91252380D01*
X102866666Y-91204761D01*
X102914285Y-91157142D01*
X102961904Y-91061904D01*
X103009523Y-90871428D01*
X103009523Y-90633333D01*
X102961904Y-90442857D01*
X102914285Y-90347619D01*
X102866666Y-90300000D01*
X102771428Y-90252380D01*
%TO.C,C610*%
X72157142Y-106680952D02*
X72204761Y-106633333D01*
X72252380Y-106490476D01*
X72252380Y-106395238D01*
X72204761Y-106252380D01*
X72109523Y-106157142D01*
X72014285Y-106109523D01*
X71823809Y-106061904D01*
X71680952Y-106061904D01*
X71490476Y-106109523D01*
X71395238Y-106157142D01*
X71300000Y-106252380D01*
X71252380Y-106395238D01*
X71252380Y-106490476D01*
X71300000Y-106633333D01*
X71347619Y-106680952D01*
X71252380Y-107538095D02*
X71252380Y-107347619D01*
X71300000Y-107252380D01*
X71347619Y-107204761D01*
X71490476Y-107109523D01*
X71680952Y-107061904D01*
X72061904Y-107061904D01*
X72157142Y-107109523D01*
X72204761Y-107157142D01*
X72252380Y-107252380D01*
X72252380Y-107442857D01*
X72204761Y-107538095D01*
X72157142Y-107585714D01*
X72061904Y-107633333D01*
X71823809Y-107633333D01*
X71728571Y-107585714D01*
X71680952Y-107538095D01*
X71633333Y-107442857D01*
X71633333Y-107252380D01*
X71680952Y-107157142D01*
X71728571Y-107109523D01*
X71823809Y-107061904D01*
X72252380Y-108585714D02*
X72252380Y-108014285D01*
X72252380Y-108300000D02*
X71252380Y-108300000D01*
X71395238Y-108204761D01*
X71490476Y-108109523D01*
X71538095Y-108014285D01*
X71252380Y-109204761D02*
X71252380Y-109300000D01*
X71300000Y-109395238D01*
X71347619Y-109442857D01*
X71442857Y-109490476D01*
X71633333Y-109538095D01*
X71871428Y-109538095D01*
X72061904Y-109490476D01*
X72157142Y-109442857D01*
X72204761Y-109395238D01*
X72252380Y-109300000D01*
X72252380Y-109204761D01*
X72204761Y-109109523D01*
X72157142Y-109061904D01*
X72061904Y-109014285D01*
X71871428Y-108966666D01*
X71633333Y-108966666D01*
X71442857Y-109014285D01*
X71347619Y-109061904D01*
X71300000Y-109109523D01*
X71252380Y-109204761D01*
%TO.C,D603*%
X112390371Y-105625869D02*
X112390371Y-104625869D01*
X112152275Y-104625869D01*
X112009418Y-104673489D01*
X111914180Y-104768727D01*
X111866561Y-104863965D01*
X111818942Y-105054441D01*
X111818942Y-105197298D01*
X111866561Y-105387774D01*
X111914180Y-105483012D01*
X112009418Y-105578250D01*
X112152275Y-105625869D01*
X112390371Y-105625869D01*
X110961799Y-104625869D02*
X111152275Y-104625869D01*
X111247514Y-104673489D01*
X111295133Y-104721108D01*
X111390371Y-104863965D01*
X111437990Y-105054441D01*
X111437990Y-105435393D01*
X111390371Y-105530631D01*
X111342752Y-105578250D01*
X111247514Y-105625869D01*
X111057037Y-105625869D01*
X110961799Y-105578250D01*
X110914180Y-105530631D01*
X110866561Y-105435393D01*
X110866561Y-105197298D01*
X110914180Y-105102060D01*
X110961799Y-105054441D01*
X111057037Y-105006822D01*
X111247514Y-105006822D01*
X111342752Y-105054441D01*
X111390371Y-105102060D01*
X111437990Y-105197298D01*
X110247514Y-104625869D02*
X110152275Y-104625869D01*
X110057037Y-104673489D01*
X110009418Y-104721108D01*
X109961799Y-104816346D01*
X109914180Y-105006822D01*
X109914180Y-105244917D01*
X109961799Y-105435393D01*
X110009418Y-105530631D01*
X110057037Y-105578250D01*
X110152275Y-105625869D01*
X110247514Y-105625869D01*
X110342752Y-105578250D01*
X110390371Y-105530631D01*
X110437990Y-105435393D01*
X110485609Y-105244917D01*
X110485609Y-105006822D01*
X110437990Y-104816346D01*
X110390371Y-104721108D01*
X110342752Y-104673489D01*
X110247514Y-104625869D01*
X109580847Y-104625869D02*
X108961799Y-104625869D01*
X109295133Y-105006822D01*
X109152275Y-105006822D01*
X109057037Y-105054441D01*
X109009418Y-105102060D01*
X108961799Y-105197298D01*
X108961799Y-105435393D01*
X109009418Y-105530631D01*
X109057037Y-105578250D01*
X109152275Y-105625869D01*
X109437990Y-105625869D01*
X109533228Y-105578250D01*
X109580847Y-105530631D01*
D11*
X112292125Y-107059203D02*
X112463554Y-107059203D01*
X112377840Y-107059203D02*
X112377840Y-106759203D01*
X112406411Y-106802060D01*
X112434982Y-106830631D01*
X112463554Y-106844917D01*
D10*
%TO.C,C91*%
X76417857Y-91032142D02*
X76465476Y-91079761D01*
X76608333Y-91127380D01*
X76703571Y-91127380D01*
X76846428Y-91079761D01*
X76941666Y-90984523D01*
X76989285Y-90889285D01*
X77036904Y-90698809D01*
X77036904Y-90555952D01*
X76989285Y-90365476D01*
X76941666Y-90270238D01*
X76846428Y-90175000D01*
X76703571Y-90127380D01*
X76608333Y-90127380D01*
X76465476Y-90175000D01*
X76417857Y-90222619D01*
X75941666Y-91127380D02*
X75751190Y-91127380D01*
X75655952Y-91079761D01*
X75608333Y-91032142D01*
X75513095Y-90889285D01*
X75465476Y-90698809D01*
X75465476Y-90317857D01*
X75513095Y-90222619D01*
X75560714Y-90175000D01*
X75655952Y-90127380D01*
X75846428Y-90127380D01*
X75941666Y-90175000D01*
X75989285Y-90222619D01*
X76036904Y-90317857D01*
X76036904Y-90555952D01*
X75989285Y-90651190D01*
X75941666Y-90698809D01*
X75846428Y-90746428D01*
X75655952Y-90746428D01*
X75560714Y-90698809D01*
X75513095Y-90651190D01*
X75465476Y-90555952D01*
X74513095Y-91127380D02*
X75084523Y-91127380D01*
X74798809Y-91127380D02*
X74798809Y-90127380D01*
X74894047Y-90270238D01*
X74989285Y-90365476D01*
X75084523Y-90413095D01*
%TO.C,J10*%
X96909523Y-86652380D02*
X96909523Y-87366666D01*
X96957142Y-87509523D01*
X97052380Y-87604761D01*
X97195238Y-87652380D01*
X97290476Y-87652380D01*
X95909523Y-87652380D02*
X96480952Y-87652380D01*
X96195238Y-87652380D02*
X96195238Y-86652380D01*
X96290476Y-86795238D01*
X96385714Y-86890476D01*
X96480952Y-86938095D01*
X95290476Y-86652380D02*
X95195238Y-86652380D01*
X95100000Y-86700000D01*
X95052380Y-86747619D01*
X95004761Y-86842857D01*
X94957142Y-87033333D01*
X94957142Y-87271428D01*
X95004761Y-87461904D01*
X95052380Y-87557142D01*
X95100000Y-87604761D01*
X95195238Y-87652380D01*
X95290476Y-87652380D01*
X95385714Y-87604761D01*
X95433333Y-87557142D01*
X95480952Y-87461904D01*
X95528571Y-87271428D01*
X95528571Y-87033333D01*
X95480952Y-86842857D01*
X95433333Y-86747619D01*
X95385714Y-86700000D01*
X95290476Y-86652380D01*
%TO.C,C603*%
X110157142Y-106580952D02*
X110204761Y-106533333D01*
X110252380Y-106390476D01*
X110252380Y-106295238D01*
X110204761Y-106152380D01*
X110109523Y-106057142D01*
X110014285Y-106009523D01*
X109823809Y-105961904D01*
X109680952Y-105961904D01*
X109490476Y-106009523D01*
X109395238Y-106057142D01*
X109300000Y-106152380D01*
X109252380Y-106295238D01*
X109252380Y-106390476D01*
X109300000Y-106533333D01*
X109347619Y-106580952D01*
X109252380Y-107438095D02*
X109252380Y-107247619D01*
X109300000Y-107152380D01*
X109347619Y-107104761D01*
X109490476Y-107009523D01*
X109680952Y-106961904D01*
X110061904Y-106961904D01*
X110157142Y-107009523D01*
X110204761Y-107057142D01*
X110252380Y-107152380D01*
X110252380Y-107342857D01*
X110204761Y-107438095D01*
X110157142Y-107485714D01*
X110061904Y-107533333D01*
X109823809Y-107533333D01*
X109728571Y-107485714D01*
X109680952Y-107438095D01*
X109633333Y-107342857D01*
X109633333Y-107152380D01*
X109680952Y-107057142D01*
X109728571Y-107009523D01*
X109823809Y-106961904D01*
X109252380Y-108152380D02*
X109252380Y-108247619D01*
X109300000Y-108342857D01*
X109347619Y-108390476D01*
X109442857Y-108438095D01*
X109633333Y-108485714D01*
X109871428Y-108485714D01*
X110061904Y-108438095D01*
X110157142Y-108390476D01*
X110204761Y-108342857D01*
X110252380Y-108247619D01*
X110252380Y-108152380D01*
X110204761Y-108057142D01*
X110157142Y-108009523D01*
X110061904Y-107961904D01*
X109871428Y-107914285D01*
X109633333Y-107914285D01*
X109442857Y-107961904D01*
X109347619Y-108009523D01*
X109300000Y-108057142D01*
X109252380Y-108152380D01*
X109252380Y-108819047D02*
X109252380Y-109438095D01*
X109633333Y-109104761D01*
X109633333Y-109247619D01*
X109680952Y-109342857D01*
X109728571Y-109390476D01*
X109823809Y-109438095D01*
X110061904Y-109438095D01*
X110157142Y-109390476D01*
X110204761Y-109342857D01*
X110252380Y-109247619D01*
X110252380Y-108961904D01*
X110204761Y-108866666D01*
X110157142Y-108819047D01*
%TO.C,D609*%
X80691027Y-105625869D02*
X80691027Y-104625869D01*
X80452931Y-104625869D01*
X80310074Y-104673489D01*
X80214836Y-104768727D01*
X80167217Y-104863965D01*
X80119598Y-105054441D01*
X80119598Y-105197298D01*
X80167217Y-105387774D01*
X80214836Y-105483012D01*
X80310074Y-105578250D01*
X80452931Y-105625869D01*
X80691027Y-105625869D01*
X79262455Y-104625869D02*
X79452931Y-104625869D01*
X79548170Y-104673489D01*
X79595789Y-104721108D01*
X79691027Y-104863965D01*
X79738646Y-105054441D01*
X79738646Y-105435393D01*
X79691027Y-105530631D01*
X79643408Y-105578250D01*
X79548170Y-105625869D01*
X79357693Y-105625869D01*
X79262455Y-105578250D01*
X79214836Y-105530631D01*
X79167217Y-105435393D01*
X79167217Y-105197298D01*
X79214836Y-105102060D01*
X79262455Y-105054441D01*
X79357693Y-105006822D01*
X79548170Y-105006822D01*
X79643408Y-105054441D01*
X79691027Y-105102060D01*
X79738646Y-105197298D01*
X78548170Y-104625869D02*
X78452931Y-104625869D01*
X78357693Y-104673489D01*
X78310074Y-104721108D01*
X78262455Y-104816346D01*
X78214836Y-105006822D01*
X78214836Y-105244917D01*
X78262455Y-105435393D01*
X78310074Y-105530631D01*
X78357693Y-105578250D01*
X78452931Y-105625869D01*
X78548170Y-105625869D01*
X78643408Y-105578250D01*
X78691027Y-105530631D01*
X78738646Y-105435393D01*
X78786265Y-105244917D01*
X78786265Y-105006822D01*
X78738646Y-104816346D01*
X78691027Y-104721108D01*
X78643408Y-104673489D01*
X78548170Y-104625869D01*
X77738646Y-105625869D02*
X77548170Y-105625869D01*
X77452931Y-105578250D01*
X77405312Y-105530631D01*
X77310074Y-105387774D01*
X77262455Y-105197298D01*
X77262455Y-104816346D01*
X77310074Y-104721108D01*
X77357693Y-104673489D01*
X77452931Y-104625869D01*
X77643408Y-104625869D01*
X77738646Y-104673489D01*
X77786265Y-104721108D01*
X77833884Y-104816346D01*
X77833884Y-105054441D01*
X77786265Y-105149679D01*
X77738646Y-105197298D01*
X77643408Y-105244917D01*
X77452931Y-105244917D01*
X77357693Y-105197298D01*
X77310074Y-105149679D01*
X77262455Y-105054441D01*
D11*
X79788001Y-107059203D02*
X79959430Y-107059203D01*
X79873716Y-107059203D02*
X79873716Y-106759203D01*
X79902287Y-106802060D01*
X79930858Y-106830631D01*
X79959430Y-106844917D01*
D10*
%TO.C,C72*%
X81457142Y-87257142D02*
X81504761Y-87209523D01*
X81552380Y-87066666D01*
X81552380Y-86971428D01*
X81504761Y-86828571D01*
X81409523Y-86733333D01*
X81314285Y-86685714D01*
X81123809Y-86638095D01*
X80980952Y-86638095D01*
X80790476Y-86685714D01*
X80695238Y-86733333D01*
X80600000Y-86828571D01*
X80552380Y-86971428D01*
X80552380Y-87066666D01*
X80600000Y-87209523D01*
X80647619Y-87257142D01*
X80552380Y-87590476D02*
X80552380Y-88257142D01*
X81552380Y-87828571D01*
X80647619Y-88590476D02*
X80600000Y-88638095D01*
X80552380Y-88733333D01*
X80552380Y-88971428D01*
X80600000Y-89066666D01*
X80647619Y-89114285D01*
X80742857Y-89161904D01*
X80838095Y-89161904D01*
X80980952Y-89114285D01*
X81552380Y-88542857D01*
X81552380Y-89161904D01*
%TO.C,C70*%
X104042857Y-87157142D02*
X104090476Y-87204761D01*
X104233333Y-87252380D01*
X104328571Y-87252380D01*
X104471428Y-87204761D01*
X104566666Y-87109523D01*
X104614285Y-87014285D01*
X104661904Y-86823809D01*
X104661904Y-86680952D01*
X104614285Y-86490476D01*
X104566666Y-86395238D01*
X104471428Y-86300000D01*
X104328571Y-86252380D01*
X104233333Y-86252380D01*
X104090476Y-86300000D01*
X104042857Y-86347619D01*
X103709523Y-86252380D02*
X103042857Y-86252380D01*
X103471428Y-87252380D01*
X102471428Y-86252380D02*
X102376190Y-86252380D01*
X102280952Y-86300000D01*
X102233333Y-86347619D01*
X102185714Y-86442857D01*
X102138095Y-86633333D01*
X102138095Y-86871428D01*
X102185714Y-87061904D01*
X102233333Y-87157142D01*
X102280952Y-87204761D01*
X102376190Y-87252380D01*
X102471428Y-87252380D01*
X102566666Y-87204761D01*
X102614285Y-87157142D01*
X102661904Y-87061904D01*
X102709523Y-86871428D01*
X102709523Y-86633333D01*
X102661904Y-86442857D01*
X102614285Y-86347619D01*
X102566666Y-86300000D01*
X102471428Y-86252380D01*
%TO.C,R10*%
X116242380Y-90507142D02*
X115766190Y-90173809D01*
X116242380Y-89935714D02*
X115242380Y-89935714D01*
X115242380Y-90316666D01*
X115290000Y-90411904D01*
X115337619Y-90459523D01*
X115432857Y-90507142D01*
X115575714Y-90507142D01*
X115670952Y-90459523D01*
X115718571Y-90411904D01*
X115766190Y-90316666D01*
X115766190Y-89935714D01*
X116242380Y-91459523D02*
X116242380Y-90888095D01*
X116242380Y-91173809D02*
X115242380Y-91173809D01*
X115385238Y-91078571D01*
X115480476Y-90983333D01*
X115528095Y-90888095D01*
X115242380Y-92078571D02*
X115242380Y-92173809D01*
X115290000Y-92269047D01*
X115337619Y-92316666D01*
X115432857Y-92364285D01*
X115623333Y-92411904D01*
X115861428Y-92411904D01*
X116051904Y-92364285D01*
X116147142Y-92316666D01*
X116194761Y-92269047D01*
X116242380Y-92173809D01*
X116242380Y-92078571D01*
X116194761Y-91983333D01*
X116147142Y-91935714D01*
X116051904Y-91888095D01*
X115861428Y-91840476D01*
X115623333Y-91840476D01*
X115432857Y-91888095D01*
X115337619Y-91935714D01*
X115290000Y-91983333D01*
X115242380Y-92078571D01*
D12*
%TO.C,CHG1*%
X88515000Y-95935000D02*
X88515000Y-94465000D01*
X90800000Y-95935000D02*
X88515000Y-95935000D01*
X88515000Y-94465000D02*
X90800000Y-94465000D01*
%TO.C,FB70*%
X100685436Y-89455000D02*
X101139564Y-89455000D01*
X100685436Y-87985000D02*
X101139564Y-87985000D01*
D13*
%TO.C,X20*%
X106150000Y-92350000D02*
X106150000Y-95650000D01*
X106150000Y-92350000D02*
X102050000Y-92350000D01*
X102050000Y-92350000D02*
X102050000Y-95650000D01*
X106150000Y-95650000D02*
X102050000Y-95650000D01*
D12*
%TO.C,R25*%
X110670000Y-93803641D02*
X110670000Y-93496359D01*
X109910000Y-93803641D02*
X109910000Y-93496359D01*
%TO.C,C22*%
X106240000Y-94407836D02*
X106240000Y-94192164D01*
X106960000Y-94407836D02*
X106960000Y-94192164D01*
%TO.C,R26*%
X111070000Y-93803641D02*
X111070000Y-93496359D01*
X111830000Y-93803641D02*
X111830000Y-93496359D01*
%TO.C,R72*%
X89546359Y-93420000D02*
X89853641Y-93420000D01*
X89546359Y-94180000D02*
X89853641Y-94180000D01*
D14*
%TO.C,D611*%
X67264008Y-107123489D02*
X67264008Y-106473489D01*
X67264008Y-106473489D02*
X67914008Y-106473489D01*
D12*
%TO.C,C609*%
X78847879Y-109360000D02*
X79063551Y-109360000D01*
X78847879Y-108640000D02*
X79063551Y-108640000D01*
%TO.C,R70*%
X87320000Y-94536359D02*
X87320000Y-94843641D01*
X88080000Y-94536359D02*
X88080000Y-94843641D01*
%TO.C,C74*%
X82460000Y-91007836D02*
X82460000Y-90792164D01*
X81740000Y-91007836D02*
X81740000Y-90792164D01*
D14*
%TO.C,D605*%
X99768132Y-106523489D02*
X100418132Y-106523489D01*
X99768132Y-107173489D02*
X99768132Y-106523489D01*
D12*
%TO.C,D71*%
X92750000Y-87300000D02*
X88850000Y-87300000D01*
X92750000Y-89300000D02*
X88850000Y-89300000D01*
X92750000Y-87300000D02*
X92750000Y-89300000D01*
D14*
%TO.C,D600*%
X126854903Y-106523489D02*
X127504903Y-106523489D01*
X126854903Y-107173489D02*
X126854903Y-106523489D01*
D12*
%TO.C,CN70*%
X119100000Y-91600000D02*
X119550000Y-91600000D01*
X126900000Y-93450000D02*
X126900000Y-91600000D01*
X126900000Y-96000000D02*
X126900000Y-95750000D01*
X119100000Y-96000000D02*
X119100000Y-95750000D01*
X119100000Y-93450000D02*
X119100000Y-91600000D01*
X126900000Y-91600000D02*
X126450000Y-91600000D01*
X124700000Y-91050000D02*
X124700000Y-91500000D01*
X124700000Y-91050000D02*
X124250000Y-91050000D01*
D14*
%TO.C,D607*%
X88933424Y-107173489D02*
X88933424Y-106523489D01*
X88933424Y-106523489D02*
X89583424Y-106523489D01*
D12*
%TO.C,R24*%
X114530000Y-93803641D02*
X114530000Y-93496359D01*
X113770000Y-93803641D02*
X113770000Y-93496359D01*
%TO.C,R73*%
X91820000Y-94146359D02*
X91820000Y-94453641D01*
X92580000Y-94146359D02*
X92580000Y-94453641D01*
%TO.C,C606*%
X95099365Y-109360000D02*
X95315037Y-109360000D01*
X95099365Y-108640000D02*
X95315037Y-108640000D01*
D14*
%TO.C,D601*%
X121437548Y-107173489D02*
X121437548Y-106523489D01*
X121437548Y-106523489D02*
X122087548Y-106523489D01*
D12*
%TO.C,FB71*%
X106739564Y-88165000D02*
X106285436Y-88165000D01*
X106739564Y-89635000D02*
X106285436Y-89635000D01*
%TO.C,C71*%
X87140000Y-88492164D02*
X87140000Y-88707836D01*
X87860000Y-88492164D02*
X87860000Y-88707836D01*
%TO.C,R23*%
X112640000Y-93803641D02*
X112640000Y-93496359D01*
X113400000Y-93803641D02*
X113400000Y-93496359D01*
%TO.C,U9*%
X76989242Y-95671700D02*
X76989242Y-94845857D01*
X80342042Y-95671700D02*
X79512307Y-95671700D01*
X79512307Y-91328300D02*
X80342042Y-91328300D01*
X80342042Y-94845857D02*
X80342042Y-95671700D01*
X76989242Y-92154143D02*
X76989242Y-91328300D01*
X77818977Y-95671700D02*
X76989242Y-95671700D01*
X80342042Y-91328300D02*
X80342042Y-92154143D01*
X76989242Y-91328300D02*
X77818977Y-91328300D01*
X76929552Y-94099236D02*
G75*
G03*
X76929552Y-94253314I100964J-77039D01*
G01*
%TO.C,C605*%
X100516990Y-108640000D02*
X100732662Y-108640000D01*
X100516990Y-109360000D02*
X100732662Y-109360000D01*
%TO.C,C601*%
X122177133Y-109360000D02*
X122392805Y-109360000D01*
X122177133Y-108640000D02*
X122392805Y-108640000D01*
%TO.C,C600*%
X127601703Y-109360000D02*
X127817375Y-109360000D01*
X127601703Y-108640000D02*
X127817375Y-108640000D01*
%TO.C,D72*%
X128450000Y-87400000D02*
X128450000Y-89400000D01*
X128450000Y-87400000D02*
X124550000Y-87400000D01*
X128450000Y-89400000D02*
X124550000Y-89400000D01*
%TO.C,C611*%
X68002164Y-109360000D02*
X68217836Y-109360000D01*
X68002164Y-108640000D02*
X68217836Y-108640000D01*
%TO.C,C23*%
X99640000Y-94792164D02*
X99640000Y-95007836D01*
X100360000Y-94792164D02*
X100360000Y-95007836D01*
%TO.C,C90*%
X78057806Y-89040000D02*
X78273478Y-89040000D01*
X78057806Y-89760000D02*
X78273478Y-89760000D01*
%TO.C,C604*%
X105930367Y-108640000D02*
X106146039Y-108640000D01*
X105930367Y-109360000D02*
X106146039Y-109360000D01*
D14*
%TO.C,D606*%
X94350778Y-107173489D02*
X94350778Y-106523489D01*
X94350778Y-106523489D02*
X95000778Y-106523489D01*
D12*
%TO.C,U70*%
X84800000Y-87340000D02*
X84000000Y-87340000D01*
X84800000Y-90460000D02*
X85600000Y-90460000D01*
X84800000Y-87340000D02*
X86600000Y-87340000D01*
X84800000Y-90460000D02*
X84000000Y-90460000D01*
%TO.C,U72*%
X90600000Y-89840000D02*
X89800000Y-89840000D01*
X90600000Y-92960000D02*
X88800000Y-92960000D01*
X90600000Y-92960000D02*
X91400000Y-92960000D01*
X90600000Y-89840000D02*
X91400000Y-89840000D01*
%TO.C,C608*%
X84263035Y-108640000D02*
X84478707Y-108640000D01*
X84263035Y-109360000D02*
X84478707Y-109360000D01*
%TO.C,C24*%
X121340000Y-88592164D02*
X121340000Y-88807836D01*
X122060000Y-88592164D02*
X122060000Y-88807836D01*
%TO.C,C602*%
X116765257Y-108640000D02*
X116980929Y-108640000D01*
X116765257Y-109360000D02*
X116980929Y-109360000D01*
%TO.C,C11*%
X113260000Y-88607836D02*
X113260000Y-88392164D01*
X112540000Y-88607836D02*
X112540000Y-88392164D01*
%TO.C,R60*%
X125046359Y-105720000D02*
X125353641Y-105720000D01*
X125046359Y-106480000D02*
X125353641Y-106480000D01*
%TO.C,R22*%
X100920000Y-95053641D02*
X100920000Y-94746359D01*
X101680000Y-95053641D02*
X101680000Y-94746359D01*
%TO.C,C77*%
X87340000Y-90707836D02*
X87340000Y-90492164D01*
X88060000Y-90707836D02*
X88060000Y-90492164D01*
D14*
%TO.C,D602*%
X116020194Y-107173489D02*
X116020194Y-106523489D01*
X116020194Y-106523489D02*
X116670194Y-106523489D01*
%TO.C,D604*%
X105185486Y-107173489D02*
X105185486Y-106523489D01*
X105185486Y-106523489D02*
X105835486Y-106523489D01*
D12*
%TO.C,U71*%
X84800000Y-94160000D02*
X85600000Y-94160000D01*
X84800000Y-91040000D02*
X86600000Y-91040000D01*
X84800000Y-94160000D02*
X84000000Y-94160000D01*
X84800000Y-91040000D02*
X84000000Y-91040000D01*
%TO.C,C607*%
X89681431Y-108640000D02*
X89897103Y-108640000D01*
X89681431Y-109360000D02*
X89897103Y-109360000D01*
%TO.C,R71*%
X88080000Y-92476359D02*
X88080000Y-92783641D01*
X87320000Y-92476359D02*
X87320000Y-92783641D01*
D14*
%TO.C,D610*%
X72681362Y-106473489D02*
X73331362Y-106473489D01*
X72681362Y-107123489D02*
X72681362Y-106473489D01*
%TO.C,D608*%
X83516070Y-107173489D02*
X83516070Y-106523489D01*
X83516070Y-106523489D02*
X84166070Y-106523489D01*
D12*
%TO.C,C20*%
X103604664Y-88760000D02*
X103820336Y-88760000D01*
X103604664Y-88040000D02*
X103820336Y-88040000D01*
%TO.C,C610*%
X73426010Y-109360000D02*
X73641682Y-109360000D01*
X73426010Y-108640000D02*
X73641682Y-108640000D01*
D14*
%TO.C,D603*%
X110602840Y-107173489D02*
X110602840Y-106523489D01*
X110602840Y-106523489D02*
X111252840Y-106523489D01*
D12*
%TO.C,C91*%
X78057806Y-90860000D02*
X78273478Y-90860000D01*
X78057806Y-90140000D02*
X78273478Y-90140000D01*
%TO.C,J10*%
X98060000Y-95410000D02*
X98060000Y-94360000D01*
X93616667Y-94360000D02*
X94040000Y-94360000D01*
X98060000Y-87990000D02*
X98060000Y-89040000D01*
X94040000Y-94360000D02*
X94040000Y-95410000D01*
X94040000Y-89040000D02*
X94040000Y-87990000D01*
X94040000Y-87990000D02*
X98060000Y-87990000D01*
X94040000Y-95410000D02*
X98060000Y-95410000D01*
%TO.C,C603*%
X111343620Y-109360000D02*
X111559292Y-109360000D01*
X111343620Y-108640000D02*
X111559292Y-108640000D01*
D14*
%TO.C,D609*%
X78098716Y-106523489D02*
X78748716Y-106523489D01*
X78098716Y-107173489D02*
X78098716Y-106523489D01*
D12*
%TO.C,C72*%
X81740000Y-88592164D02*
X81740000Y-88807836D01*
X82460000Y-88592164D02*
X82460000Y-88807836D01*
%TO.C,C70*%
X103820336Y-89240000D02*
X103604664Y-89240000D01*
X103820336Y-89960000D02*
X103604664Y-89960000D01*
%TO.C,R10*%
X116110000Y-93516359D02*
X116110000Y-93823641D01*
X115350000Y-93516359D02*
X115350000Y-93823641D01*
%TD*%
M02*
