%TF.GenerationSoftware,KiCad,Pcbnew,(6.0.0)*%
%TF.CreationDate,2022-04-23T22:24:28+01:00*%
%TF.ProjectId,main,6d61696e-2e6b-4696-9361-645f70636258,rev?*%
%TF.SameCoordinates,Original*%
%TF.FileFunction,Paste,Bot*%
%TF.FilePolarity,Positive*%
%FSLAX46Y46*%
G04 Gerber Fmt 4.6, Leading zero omitted, Abs format (unit mm)*
G04 Created by KiCad (PCBNEW (6.0.0)) date 2022-04-23 22:24:28*
%MOMM*%
%LPD*%
G01*
G04 APERTURE LIST*
G04 Aperture macros list*
%AMRoundRect*
0 Rectangle with rounded corners*
0 $1 Rounding radius*
0 $2 $3 $4 $5 $6 $7 $8 $9 X,Y pos of 4 corners*
0 Add a 4 corners polygon primitive as box body*
4,1,4,$2,$3,$4,$5,$6,$7,$8,$9,$2,$3,0*
0 Add four circle primitives for the rounded corners*
1,1,$1+$1,$2,$3*
1,1,$1+$1,$4,$5*
1,1,$1+$1,$6,$7*
1,1,$1+$1,$8,$9*
0 Add four rect primitives between the rounded corners*
20,1,$1+$1,$2,$3,$4,$5,0*
20,1,$1+$1,$4,$5,$6,$7,0*
20,1,$1+$1,$6,$7,$8,$9,0*
20,1,$1+$1,$8,$9,$2,$3,0*%
G04 Aperture macros list end*
%ADD10RoundRect,0.218750X-0.218750X-0.256250X0.218750X-0.256250X0.218750X0.256250X-0.218750X0.256250X0*%
%ADD11RoundRect,0.250000X-0.262500X-0.450000X0.262500X-0.450000X0.262500X0.450000X-0.262500X0.450000X0*%
%ADD12R,1.400000X1.200000*%
%ADD13RoundRect,0.135000X0.185000X-0.135000X0.185000X0.135000X-0.185000X0.135000X-0.185000X-0.135000X0*%
%ADD14RoundRect,0.140000X0.170000X-0.140000X0.170000X0.140000X-0.170000X0.140000X-0.170000X-0.140000X0*%
%ADD15RoundRect,0.135000X-0.135000X-0.185000X0.135000X-0.185000X0.135000X0.185000X-0.135000X0.185000X0*%
%ADD16R,0.500000X0.500000*%
%ADD17RoundRect,0.140000X-0.140000X-0.170000X0.140000X-0.170000X0.140000X0.170000X-0.140000X0.170000X0*%
%ADD18RoundRect,0.135000X-0.185000X0.135000X-0.185000X-0.135000X0.185000X-0.135000X0.185000X0.135000X0*%
%ADD19R,0.900000X1.200000*%
%ADD20R,0.400000X1.350000*%
%ADD21R,1.500000X1.900000*%
%ADD22RoundRect,0.250000X0.262500X0.450000X-0.262500X0.450000X-0.262500X-0.450000X0.262500X-0.450000X0*%
%ADD23RoundRect,0.140000X-0.170000X0.140000X-0.170000X-0.140000X0.170000X-0.140000X0.170000X0.140000X0*%
%ADD24R,0.406400X0.939800*%
%ADD25R,1.295400X0.355600*%
%ADD26R,0.355600X2.311400*%
%ADD27RoundRect,0.150000X0.512500X0.150000X-0.512500X0.150000X-0.512500X-0.150000X0.512500X-0.150000X0*%
%ADD28RoundRect,0.150000X-0.512500X-0.150000X0.512500X-0.150000X0.512500X0.150000X-0.512500X0.150000X0*%
%ADD29R,1.200000X0.280000*%
%ADD30RoundRect,0.140000X0.140000X0.170000X-0.140000X0.170000X-0.140000X-0.170000X0.140000X-0.170000X0*%
G04 APERTURE END LIST*
D10*
%TO.C,CHG1*%
X89212500Y-95200000D03*
X90787500Y-95200000D03*
%TD*%
D11*
%TO.C,FB70*%
X100000000Y-88720000D03*
X101825000Y-88720000D03*
%TD*%
D12*
%TO.C,X20*%
X105200000Y-94800000D03*
X103000000Y-93200000D03*
X105200000Y-93200000D03*
X103000000Y-94800000D03*
%TD*%
D13*
%TO.C,R25*%
X110290000Y-94160000D03*
X110290000Y-93140000D03*
%TD*%
D14*
%TO.C,C22*%
X106600000Y-94780000D03*
X106600000Y-93820000D03*
%TD*%
D13*
%TO.C,R26*%
X111450000Y-94160000D03*
X111450000Y-93140000D03*
%TD*%
D15*
%TO.C,R72*%
X89190000Y-93800000D03*
X90210000Y-93800000D03*
%TD*%
D16*
%TO.C,D611*%
X68564008Y-106873489D03*
X68564008Y-107773489D03*
X67664008Y-107773489D03*
X67664008Y-106873489D03*
%TD*%
D17*
%TO.C,C609*%
X78475715Y-109000000D03*
X79435715Y-109000000D03*
%TD*%
D18*
%TO.C,R70*%
X87700000Y-94180000D03*
X87700000Y-95200000D03*
%TD*%
D14*
%TO.C,C74*%
X82100000Y-91380000D03*
X82100000Y-90420000D03*
%TD*%
D16*
%TO.C,D605*%
X101068132Y-106923489D03*
X101068132Y-107823489D03*
X100168132Y-107823489D03*
X100168132Y-106923489D03*
%TD*%
D19*
%TO.C,D71*%
X92150000Y-88300000D03*
X88850000Y-88300000D03*
%TD*%
D16*
%TO.C,D600*%
X128154903Y-106923489D03*
X128154903Y-107823489D03*
X127254903Y-107823489D03*
X127254903Y-106923489D03*
%TD*%
D20*
%TO.C,CN70*%
X124300000Y-91900000D03*
X123650000Y-91900000D03*
X123000000Y-91900000D03*
X122350000Y-91900000D03*
X121700000Y-91900000D03*
D21*
X122000000Y-94600000D03*
X124000000Y-94600000D03*
%TD*%
D16*
%TO.C,D607*%
X90233424Y-106923489D03*
X90233424Y-107823489D03*
X89333424Y-107823489D03*
X89333424Y-106923489D03*
%TD*%
D13*
%TO.C,R24*%
X114150000Y-94160000D03*
X114150000Y-93140000D03*
%TD*%
D18*
%TO.C,R73*%
X92200000Y-93790000D03*
X92200000Y-94810000D03*
%TD*%
D17*
%TO.C,C606*%
X94727201Y-109000000D03*
X95687201Y-109000000D03*
%TD*%
D16*
%TO.C,D601*%
X122737548Y-106923489D03*
X122737548Y-107823489D03*
X121837548Y-107823489D03*
X121837548Y-106923489D03*
%TD*%
D22*
%TO.C,FB71*%
X107425000Y-88900000D03*
X105600000Y-88900000D03*
%TD*%
D23*
%TO.C,C71*%
X87500000Y-88120000D03*
X87500000Y-89080000D03*
%TD*%
D13*
%TO.C,R23*%
X113020000Y-94160000D03*
X113020000Y-93140000D03*
%TD*%
D24*
%TO.C,U9*%
X78214792Y-94176275D03*
X78214792Y-92823725D03*
X79116492Y-92823725D03*
X79116492Y-94176275D03*
D25*
X78665642Y-95227200D03*
X78665642Y-91772800D03*
D26*
X77440092Y-93500000D03*
X79891192Y-93500000D03*
%TD*%
D17*
%TO.C,C605*%
X100144826Y-109000000D03*
X101104826Y-109000000D03*
%TD*%
%TO.C,C601*%
X121804969Y-109000000D03*
X122764969Y-109000000D03*
%TD*%
%TO.C,C600*%
X127229539Y-109000000D03*
X128189539Y-109000000D03*
%TD*%
D19*
%TO.C,D72*%
X127850000Y-88400000D03*
X124550000Y-88400000D03*
%TD*%
D17*
%TO.C,C611*%
X67630000Y-109000000D03*
X68590000Y-109000000D03*
%TD*%
D23*
%TO.C,C23*%
X100000000Y-94420000D03*
X100000000Y-95380000D03*
%TD*%
D17*
%TO.C,C90*%
X77685642Y-89400000D03*
X78645642Y-89400000D03*
%TD*%
%TO.C,C604*%
X105558203Y-109000000D03*
X106518203Y-109000000D03*
%TD*%
D16*
%TO.C,D606*%
X95650778Y-106923489D03*
X95650778Y-107823489D03*
X94750778Y-107823489D03*
X94750778Y-106923489D03*
%TD*%
D27*
%TO.C,U70*%
X85937500Y-87950000D03*
X85937500Y-88900000D03*
X85937500Y-89850000D03*
X83662500Y-89850000D03*
X83662500Y-87950000D03*
%TD*%
D28*
%TO.C,U72*%
X89462500Y-92350000D03*
X89462500Y-91400000D03*
X89462500Y-90450000D03*
X91737500Y-90450000D03*
X91737500Y-92350000D03*
%TD*%
D17*
%TO.C,C608*%
X83890871Y-109000000D03*
X84850871Y-109000000D03*
%TD*%
D23*
%TO.C,C24*%
X121700000Y-88220000D03*
X121700000Y-89180000D03*
%TD*%
D17*
%TO.C,C602*%
X116393093Y-109000000D03*
X117353093Y-109000000D03*
%TD*%
D14*
%TO.C,C11*%
X112900000Y-88980000D03*
X112900000Y-88020000D03*
%TD*%
D15*
%TO.C,R60*%
X124690000Y-106100000D03*
X125710000Y-106100000D03*
%TD*%
D13*
%TO.C,R22*%
X101300000Y-95410000D03*
X101300000Y-94390000D03*
%TD*%
D14*
%TO.C,C77*%
X87700000Y-91080000D03*
X87700000Y-90120000D03*
%TD*%
D16*
%TO.C,D602*%
X117320194Y-106923489D03*
X117320194Y-107823489D03*
X116420194Y-107823489D03*
X116420194Y-106923489D03*
%TD*%
%TO.C,D604*%
X106485486Y-106923489D03*
X106485486Y-107823489D03*
X105585486Y-107823489D03*
X105585486Y-106923489D03*
%TD*%
D27*
%TO.C,U71*%
X85937500Y-91650000D03*
X85937500Y-92600000D03*
X85937500Y-93550000D03*
X83662500Y-93550000D03*
X83662500Y-92600000D03*
X83662500Y-91650000D03*
%TD*%
D17*
%TO.C,C607*%
X89309267Y-109000000D03*
X90269267Y-109000000D03*
%TD*%
D18*
%TO.C,R71*%
X87700000Y-92120000D03*
X87700000Y-93140000D03*
%TD*%
D16*
%TO.C,D610*%
X73981362Y-106873489D03*
X73981362Y-107773489D03*
X73081362Y-107773489D03*
X73081362Y-106873489D03*
%TD*%
%TO.C,D608*%
X84816070Y-106923489D03*
X84816070Y-107823489D03*
X83916070Y-107823489D03*
X83916070Y-106923489D03*
%TD*%
D17*
%TO.C,C20*%
X103232500Y-88400000D03*
X104192500Y-88400000D03*
%TD*%
%TO.C,C610*%
X73053846Y-109000000D03*
X74013846Y-109000000D03*
%TD*%
D16*
%TO.C,D603*%
X111902840Y-106923489D03*
X111902840Y-107823489D03*
X111002840Y-107823489D03*
X111002840Y-106923489D03*
%TD*%
D17*
%TO.C,C91*%
X77685642Y-90500000D03*
X78645642Y-90500000D03*
%TD*%
D29*
%TO.C,J10*%
X98050000Y-90950000D03*
X94050000Y-92450000D03*
X98050000Y-93450000D03*
X94050000Y-92950000D03*
X98050000Y-93950000D03*
X98050000Y-89450000D03*
X94050000Y-90450000D03*
X98050000Y-89950000D03*
X94050000Y-93450000D03*
X94050000Y-90950000D03*
X98050000Y-92450000D03*
X94050000Y-91450000D03*
X98050000Y-91950000D03*
X94050000Y-91950000D03*
X98050000Y-91450000D03*
X98050000Y-92950000D03*
X98050000Y-90450000D03*
X94050000Y-89450000D03*
X94050000Y-89950000D03*
X94050000Y-93950000D03*
%TD*%
D17*
%TO.C,C603*%
X110971456Y-109000000D03*
X111931456Y-109000000D03*
%TD*%
D16*
%TO.C,D609*%
X79398716Y-106923489D03*
X79398716Y-107823489D03*
X78498716Y-107823489D03*
X78498716Y-106923489D03*
%TD*%
D23*
%TO.C,C72*%
X82100000Y-88220000D03*
X82100000Y-89180000D03*
%TD*%
D30*
%TO.C,C70*%
X104192500Y-89600000D03*
X103232500Y-89600000D03*
%TD*%
D18*
%TO.C,R10*%
X115730000Y-93160000D03*
X115730000Y-94180000D03*
%TD*%
M02*
