%TF.GenerationSoftware,KiCad,Pcbnew,(6.0.0)*%
%TF.CreationDate,2022-04-23T22:24:28+01:00*%
%TF.ProjectId,main,6d61696e-2e6b-4696-9361-645f70636258,rev?*%
%TF.SameCoordinates,Original*%
%TF.FileFunction,Paste,Top*%
%TF.FilePolarity,Positive*%
%FSLAX46Y46*%
G04 Gerber Fmt 4.6, Leading zero omitted, Abs format (unit mm)*
G04 Created by KiCad (PCBNEW (6.0.0)) date 2022-04-23 22:24:28*
%MOMM*%
%LPD*%
G01*
G04 APERTURE LIST*
G04 Aperture macros list*
%AMRoundRect*
0 Rectangle with rounded corners*
0 $1 Rounding radius*
0 $2 $3 $4 $5 $6 $7 $8 $9 X,Y pos of 4 corners*
0 Add a 4 corners polygon primitive as box body*
4,1,4,$2,$3,$4,$5,$6,$7,$8,$9,$2,$3,0*
0 Add four circle primitives for the rounded corners*
1,1,$1+$1,$2,$3*
1,1,$1+$1,$4,$5*
1,1,$1+$1,$6,$7*
1,1,$1+$1,$8,$9*
0 Add four rect primitives between the rounded corners*
20,1,$1+$1,$2,$3,$4,$5,0*
20,1,$1+$1,$4,$5,$6,$7,0*
20,1,$1+$1,$6,$7,$8,$9,0*
20,1,$1+$1,$8,$9,$2,$3,0*%
%AMFreePoly0*
4,1,14,0.354215,0.088284,0.450784,-0.008285,0.462500,-0.036569,0.462500,-0.060000,0.450784,-0.088284,0.422500,-0.100000,-0.422500,-0.100000,-0.450784,-0.088284,-0.462500,-0.060000,-0.462500,0.060000,-0.450784,0.088284,-0.422500,0.100000,0.325931,0.100000,0.354215,0.088284,0.354215,0.088284,$1*%
%AMFreePoly1*
4,1,14,0.450784,0.088284,0.462500,0.060000,0.462500,0.036569,0.450784,0.008285,0.354215,-0.088284,0.325931,-0.100000,-0.422500,-0.100000,-0.450784,-0.088284,-0.462500,-0.060000,-0.462500,0.060000,-0.450784,0.088284,-0.422500,0.100000,0.422500,0.100000,0.450784,0.088284,0.450784,0.088284,$1*%
%AMFreePoly2*
4,1,14,0.088284,0.450784,0.100000,0.422500,0.100000,-0.422500,0.088284,-0.450784,0.060000,-0.462500,-0.060000,-0.462500,-0.088284,-0.450784,-0.100000,-0.422500,-0.100000,0.325931,-0.088284,0.354215,0.008285,0.450784,0.036569,0.462500,0.060000,0.462500,0.088284,0.450784,0.088284,0.450784,$1*%
%AMFreePoly3*
4,1,14,-0.008285,0.450784,0.088284,0.354215,0.100000,0.325931,0.100000,-0.422500,0.088284,-0.450784,0.060000,-0.462500,-0.060000,-0.462500,-0.088284,-0.450784,-0.100000,-0.422500,-0.100000,0.422500,-0.088284,0.450784,-0.060000,0.462500,-0.036569,0.462500,-0.008285,0.450784,-0.008285,0.450784,$1*%
%AMFreePoly4*
4,1,14,0.450784,0.088284,0.462500,0.060000,0.462500,-0.060000,0.450784,-0.088284,0.422500,-0.100000,-0.325931,-0.100000,-0.354215,-0.088284,-0.450784,0.008285,-0.462500,0.036569,-0.462500,0.060000,-0.450784,0.088284,-0.422500,0.100000,0.422500,0.100000,0.450784,0.088284,0.450784,0.088284,$1*%
%AMFreePoly5*
4,1,14,0.450784,0.088284,0.462500,0.060000,0.462500,-0.060000,0.450784,-0.088284,0.422500,-0.100000,-0.422500,-0.100000,-0.450784,-0.088284,-0.462500,-0.060000,-0.462500,-0.036569,-0.450784,-0.008285,-0.354215,0.088284,-0.325931,0.100000,0.422500,0.100000,0.450784,0.088284,0.450784,0.088284,$1*%
%AMFreePoly6*
4,1,14,0.088284,0.450784,0.100000,0.422500,0.100000,-0.325931,0.088284,-0.354215,-0.008285,-0.450784,-0.036569,-0.462500,-0.060000,-0.462500,-0.088284,-0.450784,-0.100000,-0.422500,-0.100000,0.422500,-0.088284,0.450784,-0.060000,0.462500,0.060000,0.462500,0.088284,0.450784,0.088284,0.450784,$1*%
%AMFreePoly7*
4,1,14,0.088284,0.450784,0.100000,0.422500,0.100000,-0.422500,0.088284,-0.450784,0.060000,-0.462500,0.036569,-0.462500,0.008285,-0.450784,-0.088284,-0.354215,-0.100000,-0.325931,-0.100000,0.422500,-0.088284,0.450784,-0.060000,0.462500,0.060000,0.462500,0.088284,0.450784,0.088284,0.450784,$1*%
G04 Aperture macros list end*
%ADD10RoundRect,0.135000X-0.185000X0.135000X-0.185000X-0.135000X0.185000X-0.135000X0.185000X0.135000X0*%
%ADD11RoundRect,0.140000X0.170000X-0.140000X0.170000X0.140000X-0.170000X0.140000X-0.170000X-0.140000X0*%
%ADD12RoundRect,0.140000X-0.170000X0.140000X-0.170000X-0.140000X0.170000X-0.140000X0.170000X0.140000X0*%
%ADD13RoundRect,0.125000X-0.375000X0.125000X-0.375000X-0.125000X0.375000X-0.125000X0.375000X0.125000X0*%
%ADD14RoundRect,0.225000X-0.575000X0.225000X-0.575000X-0.225000X0.575000X-0.225000X0.575000X0.225000X0*%
%ADD15RoundRect,0.140000X-0.140000X-0.170000X0.140000X-0.170000X0.140000X0.170000X-0.140000X0.170000X0*%
%ADD16R,1.200000X0.280000*%
%ADD17RoundRect,0.135000X0.135000X0.185000X-0.135000X0.185000X-0.135000X-0.185000X0.135000X-0.185000X0*%
%ADD18R,0.600000X1.500000*%
%ADD19R,1.500000X0.600000*%
%ADD20R,0.760000X2.790000*%
%ADD21R,1.780000X1.780000*%
%ADD22R,0.700000X1.750000*%
%ADD23R,1.450000X1.000000*%
%ADD24R,1.000000X1.550000*%
%ADD25R,0.800000X1.400000*%
%ADD26R,1.500000X1.500000*%
%ADD27R,1.300000X1.500000*%
%ADD28R,0.800000X1.500000*%
%ADD29RoundRect,0.250000X0.375000X1.075000X-0.375000X1.075000X-0.375000X-1.075000X0.375000X-1.075000X0*%
%ADD30RoundRect,0.140000X0.140000X0.170000X-0.140000X0.170000X-0.140000X-0.170000X0.140000X-0.170000X0*%
%ADD31R,0.965200X0.304800*%
%ADD32R,0.304800X0.965200*%
%ADD33R,2.260600X2.260600*%
%ADD34R,0.900000X1.000000*%
%ADD35RoundRect,0.150000X-0.150000X0.512500X-0.150000X-0.512500X0.150000X-0.512500X0.150000X0.512500X0*%
%ADD36RoundRect,0.075000X-0.662500X-0.075000X0.662500X-0.075000X0.662500X0.075000X-0.662500X0.075000X0*%
%ADD37RoundRect,0.075000X-0.075000X-0.662500X0.075000X-0.662500X0.075000X0.662500X-0.075000X0.662500X0*%
%ADD38FreePoly0,90.000000*%
%ADD39RoundRect,0.050000X0.050000X-0.412500X0.050000X0.412500X-0.050000X0.412500X-0.050000X-0.412500X0*%
%ADD40FreePoly1,90.000000*%
%ADD41FreePoly2,90.000000*%
%ADD42RoundRect,0.050000X0.412500X-0.050000X0.412500X0.050000X-0.412500X0.050000X-0.412500X-0.050000X0*%
%ADD43FreePoly3,90.000000*%
%ADD44FreePoly4,90.000000*%
%ADD45FreePoly5,90.000000*%
%ADD46FreePoly6,90.000000*%
%ADD47FreePoly7,90.000000*%
%ADD48R,1.900000X1.100000*%
%ADD49RoundRect,0.150000X0.150000X-0.512500X0.150000X0.512500X-0.150000X0.512500X-0.150000X-0.512500X0*%
%ADD50RoundRect,0.135000X0.185000X-0.135000X0.185000X0.135000X-0.185000X0.135000X-0.185000X-0.135000X0*%
%ADD51RoundRect,0.218750X-0.218750X-0.256250X0.218750X-0.256250X0.218750X0.256250X-0.218750X0.256250X0*%
%ADD52RoundRect,0.125000X0.375000X-0.125000X0.375000X0.125000X-0.375000X0.125000X-0.375000X-0.125000X0*%
%ADD53RoundRect,0.225000X0.575000X-0.225000X0.575000X0.225000X-0.575000X0.225000X-0.575000X-0.225000X0*%
%ADD54RoundRect,0.250000X-0.435000X-0.435000X0.435000X-0.435000X0.435000X0.435000X-0.435000X0.435000X0*%
%ADD55RoundRect,0.062500X-0.375000X-0.062500X0.375000X-0.062500X0.375000X0.062500X-0.375000X0.062500X0*%
%ADD56RoundRect,0.062500X-0.062500X-0.375000X0.062500X-0.375000X0.062500X0.375000X-0.062500X0.375000X0*%
G04 APERTURE END LIST*
D10*
%TO.C,R20*%
X110075000Y-92315000D03*
X110075000Y-93335000D03*
%TD*%
%TO.C,R51*%
X71700000Y-117390000D03*
X71700000Y-118410000D03*
%TD*%
D11*
%TO.C,C86*%
X114489588Y-112660000D03*
X114489588Y-111700000D03*
%TD*%
D12*
%TO.C,C76*%
X107000000Y-85520000D03*
X107000000Y-86480000D03*
%TD*%
%TO.C,C80*%
X116289588Y-113940000D03*
X116289588Y-114900000D03*
%TD*%
D13*
%TO.C,J5*%
X70220000Y-113800000D03*
X70220000Y-114600000D03*
X70220000Y-115400000D03*
X70220000Y-116200000D03*
X70220000Y-117000000D03*
D14*
X68300000Y-118250000D03*
X68300000Y-112550000D03*
%TD*%
D12*
%TO.C,C13*%
X106825000Y-83545000D03*
X106825000Y-84505000D03*
%TD*%
D15*
%TO.C,C75*%
X107370000Y-95275000D03*
X108330000Y-95275000D03*
%TD*%
D16*
%TO.C,J11*%
X98000000Y-117450000D03*
X94000000Y-113450000D03*
X98000000Y-113950000D03*
X94000000Y-113950000D03*
X94000000Y-114450000D03*
X94000000Y-117950000D03*
X94000000Y-116450000D03*
X94000000Y-117450000D03*
X98000000Y-113450000D03*
X98000000Y-115450000D03*
X98000000Y-116950000D03*
X98000000Y-117950000D03*
X94000000Y-114950000D03*
X94000000Y-116950000D03*
X98000000Y-116450000D03*
X98000000Y-114950000D03*
X94000000Y-115950000D03*
X94000000Y-115450000D03*
X98000000Y-114450000D03*
X98000000Y-115950000D03*
%TD*%
D10*
%TO.C,R80*%
X117589588Y-113910000D03*
X117589588Y-114930000D03*
%TD*%
D17*
%TO.C,R42*%
X105620000Y-116800000D03*
X104600000Y-116800000D03*
%TD*%
D18*
%TO.C,U3*%
X76100000Y-95250000D03*
X77100000Y-95250000D03*
X78100000Y-95250000D03*
X79100000Y-95250000D03*
X80100000Y-95250000D03*
X81100000Y-95250000D03*
X82100000Y-95250000D03*
X83100000Y-95250000D03*
X84100000Y-95250000D03*
X85100000Y-95250000D03*
X86100000Y-95250000D03*
X87100000Y-95250000D03*
X88100000Y-95250000D03*
X89100000Y-95250000D03*
X90100000Y-95250000D03*
X91100000Y-95250000D03*
X92100000Y-95250000D03*
X93100000Y-95250000D03*
X94100000Y-95250000D03*
X95100000Y-95250000D03*
D19*
X96750000Y-92500000D03*
X96750000Y-91500000D03*
X96750000Y-90500000D03*
X96750000Y-89500000D03*
X96750000Y-88500000D03*
X96750000Y-87500000D03*
X96750000Y-86500000D03*
X96750000Y-85500000D03*
X96750000Y-84500000D03*
X96750000Y-83500000D03*
D18*
X95100000Y-80750000D03*
X94100000Y-80750000D03*
X93100000Y-80750000D03*
X92100000Y-80750000D03*
X91100000Y-80750000D03*
X90100000Y-80750000D03*
X89100000Y-80750000D03*
X88100000Y-80750000D03*
X87100000Y-80750000D03*
X86100000Y-80750000D03*
X85100000Y-80750000D03*
X84100000Y-80750000D03*
X83100000Y-80750000D03*
X82100000Y-80750000D03*
X81100000Y-80750000D03*
X80100000Y-80750000D03*
X79100000Y-80750000D03*
X78100000Y-80750000D03*
X77100000Y-80750000D03*
D20*
X76420000Y-91540000D03*
D18*
X76100000Y-80750000D03*
D21*
X86530000Y-83480000D03*
%TD*%
D22*
%TO.C,CN20*%
X119905000Y-84150000D03*
X121005000Y-84150000D03*
X122105000Y-84150000D03*
X123205000Y-84150000D03*
X124305000Y-84150000D03*
X125405000Y-84150000D03*
X126505000Y-84150000D03*
X127605000Y-84150000D03*
D23*
X128730000Y-93375000D03*
D24*
X117505000Y-94950000D03*
D25*
X117105000Y-92525000D03*
D26*
X117455000Y-84275000D03*
D27*
X128805000Y-84275000D03*
D28*
X129055000Y-91875000D03*
%TD*%
D17*
%TO.C,R41*%
X105620000Y-115500000D03*
X104600000Y-115500000D03*
%TD*%
D29*
%TO.C,L50*%
X76225000Y-118400000D03*
X73425000Y-118400000D03*
%TD*%
D30*
%TO.C,C85*%
X113475000Y-118750000D03*
X112515000Y-118750000D03*
%TD*%
D11*
%TO.C,C83*%
X118305000Y-117930000D03*
X118305000Y-116970000D03*
%TD*%
D10*
%TO.C,R21*%
X108800000Y-92990000D03*
X108800000Y-94010000D03*
%TD*%
D13*
%TO.C,J80*%
X91315724Y-114070000D03*
X91315724Y-114870000D03*
X91315724Y-115670000D03*
X91315724Y-116470000D03*
X91315724Y-117270000D03*
D14*
X89395724Y-118520000D03*
X89395724Y-112820000D03*
%TD*%
D10*
%TO.C,R82*%
X116889588Y-111670000D03*
X116889588Y-112690000D03*
%TD*%
D17*
%TO.C,R87*%
X118155000Y-119100000D03*
X117135000Y-119100000D03*
%TD*%
D31*
%TO.C,U8*%
X119522688Y-114999999D03*
X119522688Y-115800000D03*
X119522688Y-116600001D03*
D32*
X120589587Y-117666900D03*
X121389588Y-117666900D03*
X122189589Y-117666900D03*
D31*
X123256488Y-116600001D03*
X123256488Y-115800000D03*
X123256488Y-114999999D03*
D32*
X122189589Y-113933100D03*
X121389588Y-113933100D03*
X120589587Y-113933100D03*
D33*
X121389588Y-115800000D03*
%TD*%
D34*
%TO.C,SW1*%
X111550000Y-93350000D03*
X115650000Y-93350000D03*
X115650000Y-94950000D03*
X111550000Y-94950000D03*
%TD*%
D30*
%TO.C,C10*%
X107080000Y-80575000D03*
X106120000Y-80575000D03*
%TD*%
D35*
%TO.C,U6*%
X102550000Y-113162500D03*
X101600000Y-113162500D03*
X100650000Y-113162500D03*
X100650000Y-115437500D03*
X102550000Y-115437500D03*
%TD*%
D12*
%TO.C,C30*%
X98500000Y-94520000D03*
X98500000Y-95480000D03*
%TD*%
D10*
%TO.C,R84*%
X113689588Y-113910000D03*
X113689588Y-114930000D03*
%TD*%
D36*
%TO.C,U2*%
X98587500Y-88000000D03*
X98587500Y-88500000D03*
X98587500Y-89000000D03*
X98587500Y-89500000D03*
X98587500Y-90000000D03*
X98587500Y-90500000D03*
X98587500Y-91000000D03*
X98587500Y-91500000D03*
X98587500Y-92000000D03*
X98587500Y-92500000D03*
X98587500Y-93000000D03*
X98587500Y-93500000D03*
D37*
X100000000Y-94912500D03*
X100500000Y-94912500D03*
X101000000Y-94912500D03*
X101500000Y-94912500D03*
X102000000Y-94912500D03*
X102500000Y-94912500D03*
X103000000Y-94912500D03*
X103500000Y-94912500D03*
X104000000Y-94912500D03*
X104500000Y-94912500D03*
X105000000Y-94912500D03*
X105500000Y-94912500D03*
D36*
X106912500Y-93500000D03*
X106912500Y-93000000D03*
X106912500Y-92500000D03*
X106912500Y-92000000D03*
X106912500Y-91500000D03*
X106912500Y-91000000D03*
X106912500Y-90500000D03*
X106912500Y-90000000D03*
X106912500Y-89500000D03*
X106912500Y-89000000D03*
X106912500Y-88500000D03*
X106912500Y-88000000D03*
D37*
X105500000Y-86587500D03*
X105000000Y-86587500D03*
X104500000Y-86587500D03*
X104000000Y-86587500D03*
X103500000Y-86587500D03*
X103000000Y-86587500D03*
X102500000Y-86587500D03*
X102000000Y-86587500D03*
X101500000Y-86587500D03*
X101000000Y-86587500D03*
X100500000Y-86587500D03*
X100000000Y-86587500D03*
%TD*%
D17*
%TO.C,R81*%
X115705000Y-117400000D03*
X114685000Y-117400000D03*
%TD*%
D38*
%TO.C,U4*%
X107600000Y-114887500D03*
D39*
X108000000Y-114887500D03*
X108400000Y-114887500D03*
X108800000Y-114887500D03*
D40*
X109200000Y-114887500D03*
D41*
X109787500Y-114300000D03*
D42*
X109787500Y-113900000D03*
X109787500Y-113500000D03*
X109787500Y-113100000D03*
D43*
X109787500Y-112700000D03*
D44*
X109200000Y-112112500D03*
D39*
X108800000Y-112112500D03*
X108400000Y-112112500D03*
X108000000Y-112112500D03*
D45*
X107600000Y-112112500D03*
D46*
X107012500Y-112700000D03*
D42*
X107012500Y-113100000D03*
X107012500Y-113500000D03*
X107012500Y-113900000D03*
D47*
X107012500Y-114300000D03*
%TD*%
D48*
%TO.C,X10*%
X105100000Y-82400000D03*
X105100000Y-84800000D03*
%TD*%
D15*
%TO.C,C89*%
X122725000Y-118800000D03*
X123685000Y-118800000D03*
%TD*%
D30*
%TO.C,C40*%
X105180000Y-113600000D03*
X104220000Y-113600000D03*
%TD*%
D49*
%TO.C,U5*%
X74750000Y-114537500D03*
X75700000Y-114537500D03*
X76650000Y-114537500D03*
X76650000Y-112262500D03*
X74750000Y-112262500D03*
%TD*%
D11*
%TO.C,C12*%
X106825000Y-82530000D03*
X106825000Y-81570000D03*
%TD*%
D50*
%TO.C,R83*%
X116955000Y-117960000D03*
X116955000Y-116940000D03*
%TD*%
%TO.C,R40*%
X110065000Y-117565000D03*
X110065000Y-116545000D03*
%TD*%
D11*
%TO.C,C50*%
X72700000Y-115080000D03*
X72700000Y-114120000D03*
%TD*%
D10*
%TO.C,R50*%
X72700000Y-111790000D03*
X72700000Y-112810000D03*
%TD*%
D12*
%TO.C,C21*%
X110075000Y-94370000D03*
X110075000Y-95330000D03*
%TD*%
D51*
%TO.C,D10*%
X113712500Y-91425000D03*
X115287500Y-91425000D03*
%TD*%
D11*
%TO.C,C82*%
X118189588Y-112660000D03*
X118189588Y-111700000D03*
%TD*%
D30*
%TO.C,C810*%
X123269588Y-112600000D03*
X122309588Y-112600000D03*
%TD*%
D15*
%TO.C,C88*%
X119542688Y-112600000D03*
X120502688Y-112600000D03*
%TD*%
D11*
%TO.C,C51*%
X78100000Y-113280000D03*
X78100000Y-112320000D03*
%TD*%
D12*
%TO.C,C84*%
X114989588Y-113940000D03*
X114989588Y-114900000D03*
%TD*%
D30*
%TO.C,C81*%
X113475000Y-117400000D03*
X112515000Y-117400000D03*
%TD*%
D12*
%TO.C,C41*%
X108665000Y-116575000D03*
X108665000Y-117535000D03*
%TD*%
D52*
%TO.C,J81*%
X126970000Y-116890000D03*
X126970000Y-116090000D03*
X126970000Y-115290000D03*
X126970000Y-114490000D03*
X126970000Y-113690000D03*
D53*
X128890000Y-118140000D03*
X128890000Y-112440000D03*
%TD*%
D15*
%TO.C,C87*%
X119375000Y-119100000D03*
X120335000Y-119100000D03*
%TD*%
D10*
%TO.C,R86*%
X115689588Y-111670000D03*
X115689588Y-112690000D03*
%TD*%
D54*
%TO.C,U1*%
X112025000Y-86437500D03*
X110325000Y-84737500D03*
X112025000Y-84737500D03*
X113725000Y-86437500D03*
X112025000Y-83037500D03*
X110325000Y-86437500D03*
X110325000Y-83037500D03*
X113725000Y-84737500D03*
X113725000Y-83037500D03*
D55*
X108587500Y-81987500D03*
X108587500Y-82487500D03*
X108587500Y-82987500D03*
X108587500Y-83487500D03*
X108587500Y-83987500D03*
X108587500Y-84487500D03*
X108587500Y-84987500D03*
X108587500Y-85487500D03*
X108587500Y-85987500D03*
X108587500Y-86487500D03*
X108587500Y-86987500D03*
X108587500Y-87487500D03*
D56*
X109275000Y-88175000D03*
X109775000Y-88175000D03*
X110275000Y-88175000D03*
X110775000Y-88175000D03*
X111275000Y-88175000D03*
X111775000Y-88175000D03*
X112275000Y-88175000D03*
X112775000Y-88175000D03*
X113275000Y-88175000D03*
X113775000Y-88175000D03*
X114275000Y-88175000D03*
X114775000Y-88175000D03*
D55*
X115462500Y-87487500D03*
X115462500Y-86987500D03*
X115462500Y-86487500D03*
X115462500Y-85987500D03*
X115462500Y-85487500D03*
X115462500Y-84987500D03*
X115462500Y-84487500D03*
X115462500Y-83987500D03*
X115462500Y-83487500D03*
X115462500Y-82987500D03*
X115462500Y-82487500D03*
X115462500Y-81987500D03*
D56*
X114775000Y-81300000D03*
X114275000Y-81300000D03*
X113775000Y-81300000D03*
X113275000Y-81300000D03*
X112775000Y-81300000D03*
X112275000Y-81300000D03*
X111775000Y-81300000D03*
X111275000Y-81300000D03*
X110775000Y-81300000D03*
X110275000Y-81300000D03*
X109775000Y-81300000D03*
X109275000Y-81300000D03*
%TD*%
D17*
%TO.C,R85*%
X115715000Y-118750000D03*
X114695000Y-118750000D03*
%TD*%
M02*
