%TF.GenerationSoftware,KiCad,Pcbnew,(6.0.0)*%
%TF.CreationDate,2022-04-23T22:24:28+01:00*%
%TF.ProjectId,main,6d61696e-2e6b-4696-9361-645f70636258,rev?*%
%TF.SameCoordinates,Original*%
%TF.FileFunction,Copper,L4,Bot*%
%TF.FilePolarity,Positive*%
%FSLAX46Y46*%
G04 Gerber Fmt 4.6, Leading zero omitted, Abs format (unit mm)*
G04 Created by KiCad (PCBNEW (6.0.0)) date 2022-04-23 22:24:28*
%MOMM*%
%LPD*%
G01*
G04 APERTURE LIST*
G04 Aperture macros list*
%AMRoundRect*
0 Rectangle with rounded corners*
0 $1 Rounding radius*
0 $2 $3 $4 $5 $6 $7 $8 $9 X,Y pos of 4 corners*
0 Add a 4 corners polygon primitive as box body*
4,1,4,$2,$3,$4,$5,$6,$7,$8,$9,$2,$3,0*
0 Add four circle primitives for the rounded corners*
1,1,$1+$1,$2,$3*
1,1,$1+$1,$4,$5*
1,1,$1+$1,$6,$7*
1,1,$1+$1,$8,$9*
0 Add four rect primitives between the rounded corners*
20,1,$1+$1,$2,$3,$4,$5,0*
20,1,$1+$1,$4,$5,$6,$7,0*
20,1,$1+$1,$6,$7,$8,$9,0*
20,1,$1+$1,$8,$9,$2,$3,0*%
G04 Aperture macros list end*
%TA.AperFunction,SMDPad,CuDef*%
%ADD10RoundRect,0.218750X-0.218750X-0.256250X0.218750X-0.256250X0.218750X0.256250X-0.218750X0.256250X0*%
%TD*%
%TA.AperFunction,SMDPad,CuDef*%
%ADD11RoundRect,0.250000X-0.262500X-0.450000X0.262500X-0.450000X0.262500X0.450000X-0.262500X0.450000X0*%
%TD*%
%TA.AperFunction,SMDPad,CuDef*%
%ADD12R,1.400000X1.200000*%
%TD*%
%TA.AperFunction,SMDPad,CuDef*%
%ADD13RoundRect,0.135000X0.185000X-0.135000X0.185000X0.135000X-0.185000X0.135000X-0.185000X-0.135000X0*%
%TD*%
%TA.AperFunction,SMDPad,CuDef*%
%ADD14RoundRect,0.140000X0.170000X-0.140000X0.170000X0.140000X-0.170000X0.140000X-0.170000X-0.140000X0*%
%TD*%
%TA.AperFunction,SMDPad,CuDef*%
%ADD15RoundRect,0.135000X-0.135000X-0.185000X0.135000X-0.185000X0.135000X0.185000X-0.135000X0.185000X0*%
%TD*%
%TA.AperFunction,SMDPad,CuDef*%
%ADD16R,0.500000X0.500000*%
%TD*%
%TA.AperFunction,SMDPad,CuDef*%
%ADD17RoundRect,0.140000X-0.140000X-0.170000X0.140000X-0.170000X0.140000X0.170000X-0.140000X0.170000X0*%
%TD*%
%TA.AperFunction,SMDPad,CuDef*%
%ADD18RoundRect,0.135000X-0.185000X0.135000X-0.185000X-0.135000X0.185000X-0.135000X0.185000X0.135000X0*%
%TD*%
%TA.AperFunction,SMDPad,CuDef*%
%ADD19R,0.900000X1.200000*%
%TD*%
%TA.AperFunction,SMDPad,CuDef*%
%ADD20R,0.400000X1.350000*%
%TD*%
%TA.AperFunction,SMDPad,CuDef*%
%ADD21R,1.500000X1.900000*%
%TD*%
%TA.AperFunction,ComponentPad*%
%ADD22C,1.450000*%
%TD*%
%TA.AperFunction,SMDPad,CuDef*%
%ADD23R,1.200000X1.900000*%
%TD*%
%TA.AperFunction,ComponentPad*%
%ADD24O,1.200000X1.900000*%
%TD*%
%TA.AperFunction,SMDPad,CuDef*%
%ADD25RoundRect,0.250000X0.262500X0.450000X-0.262500X0.450000X-0.262500X-0.450000X0.262500X-0.450000X0*%
%TD*%
%TA.AperFunction,SMDPad,CuDef*%
%ADD26RoundRect,0.140000X-0.170000X0.140000X-0.170000X-0.140000X0.170000X-0.140000X0.170000X0.140000X0*%
%TD*%
%TA.AperFunction,SMDPad,CuDef*%
%ADD27R,0.406400X0.939800*%
%TD*%
%TA.AperFunction,SMDPad,CuDef*%
%ADD28R,1.295400X0.355600*%
%TD*%
%TA.AperFunction,SMDPad,CuDef*%
%ADD29R,0.355600X2.311400*%
%TD*%
%TA.AperFunction,SMDPad,CuDef*%
%ADD30RoundRect,0.150000X0.512500X0.150000X-0.512500X0.150000X-0.512500X-0.150000X0.512500X-0.150000X0*%
%TD*%
%TA.AperFunction,SMDPad,CuDef*%
%ADD31RoundRect,0.150000X-0.512500X-0.150000X0.512500X-0.150000X0.512500X0.150000X-0.512500X0.150000X0*%
%TD*%
%TA.AperFunction,SMDPad,CuDef*%
%ADD32R,1.600000X0.300000*%
%TD*%
%TA.AperFunction,SMDPad,CuDef*%
%ADD33RoundRect,0.140000X0.140000X0.170000X-0.140000X0.170000X-0.140000X-0.170000X0.140000X-0.170000X0*%
%TD*%
%TA.AperFunction,ViaPad*%
%ADD34C,0.400000*%
%TD*%
%TA.AperFunction,ViaPad*%
%ADD35C,0.800000*%
%TD*%
%TA.AperFunction,Conductor*%
%ADD36C,0.127000*%
%TD*%
%TA.AperFunction,Conductor*%
%ADD37C,0.254000*%
%TD*%
%TA.AperFunction,Conductor*%
%ADD38C,0.508000*%
%TD*%
%TA.AperFunction,Conductor*%
%ADD39C,0.200000*%
%TD*%
G04 APERTURE END LIST*
D10*
%TO.P,CHG1,1,C*%
%TO.N,Net-(CHG1-Pad1)*%
X89212500Y-95200000D03*
%TO.P,CHG1,2,A*%
%TO.N,/CHRG_STAT*%
X90787500Y-95200000D03*
%TD*%
D11*
%TO.P,FB70,1,P$1*%
%TO.N,GND*%
X100000000Y-88720000D03*
%TO.P,FB70,2,P$2*%
%TO.N,GNDA*%
X101825000Y-88720000D03*
%TD*%
D12*
%TO.P,X20,1,1*%
%TO.N,Net-(C22-Pad1)*%
X105200000Y-94800000D03*
%TO.P,X20,2,2*%
%TO.N,Net-(C23-Pad1)*%
X103000000Y-93200000D03*
%TO.P,X20,GND1*%
%TO.N,N/C*%
X105200000Y-93200000D03*
%TO.P,X20,GND2*%
X103000000Y-94800000D03*
%TD*%
D13*
%TO.P,R25,1,1*%
%TO.N,GND*%
X110290000Y-94160000D03*
%TO.P,R25,2,2*%
%TO.N,/GPIO0*%
X110290000Y-93140000D03*
%TD*%
D14*
%TO.P,C22,1,1*%
%TO.N,Net-(C22-Pad1)*%
X106600000Y-94780000D03*
%TO.P,C22,2,2*%
%TO.N,GND*%
X106600000Y-93820000D03*
%TD*%
D13*
%TO.P,R26,1,1*%
%TO.N,GND*%
X111450000Y-94160000D03*
%TO.P,R26,2,2*%
%TO.N,/GPIO1*%
X111450000Y-93140000D03*
%TD*%
D15*
%TO.P,R72,1,1*%
%TO.N,+3V3*%
X89190000Y-93800000D03*
%TO.P,R72,2,2*%
%TO.N,/CHRG_STAT*%
X90210000Y-93800000D03*
%TD*%
D16*
%TO.P,D611,1,VSS*%
%TO.N,GND*%
X68564008Y-106873489D03*
%TO.P,D611,2,DIN*%
%TO.N,Net-(D610-Pad4)*%
X68564008Y-107773489D03*
%TO.P,D611,3,VDD*%
%TO.N,/RGB_VDD*%
X67664008Y-107773489D03*
%TO.P,D611,4,DOUT*%
%TO.N,unconnected-(D611-Pad4)*%
X67664008Y-106873489D03*
%TD*%
D17*
%TO.P,C609,1,1*%
%TO.N,/RGB_VDD*%
X78475715Y-109000000D03*
%TO.P,C609,2,2*%
%TO.N,GND*%
X79435715Y-109000000D03*
%TD*%
D18*
%TO.P,R70,1,1*%
%TO.N,/A4*%
X87700000Y-94180000D03*
%TO.P,R70,2,2*%
%TO.N,GND*%
X87700000Y-95200000D03*
%TD*%
D14*
%TO.P,C74,1,1*%
%TO.N,+3V3*%
X82100000Y-91380000D03*
%TO.P,C74,2,2*%
%TO.N,GND*%
X82100000Y-90420000D03*
%TD*%
D16*
%TO.P,D605,1,VSS*%
%TO.N,GND*%
X101068132Y-106923489D03*
%TO.P,D605,2,DIN*%
%TO.N,Net-(D604-Pad4)*%
X101068132Y-107823489D03*
%TO.P,D605,3,VDD*%
%TO.N,/RGB_VDD*%
X100168132Y-107823489D03*
%TO.P,D605,4,DOUT*%
%TO.N,Net-(D605-Pad4)*%
X100168132Y-106923489D03*
%TD*%
D19*
%TO.P,D71,1,C*%
%TO.N,VBUS*%
X92150000Y-88300000D03*
%TO.P,D71,2,A*%
%TO.N,+BATT*%
X88850000Y-88300000D03*
%TD*%
D16*
%TO.P,D600,1,VSS*%
%TO.N,GND*%
X128154903Y-106923489D03*
%TO.P,D600,2,DIN*%
%TO.N,Net-(D600-Pad2)*%
X128154903Y-107823489D03*
%TO.P,D600,3,VDD*%
%TO.N,/RGB_VDD*%
X127254903Y-107823489D03*
%TO.P,D600,4,DOUT*%
%TO.N,Net-(D600-Pad4)*%
X127254903Y-106923489D03*
%TD*%
D20*
%TO.P,CN70,1,VBUS*%
%TO.N,Net-(CN70-Pad1)*%
X124300000Y-91900000D03*
%TO.P,CN70,2,D+*%
%TO.N,/D+*%
X123650000Y-91900000D03*
%TO.P,CN70,3,D-*%
%TO.N,/D-*%
X123000000Y-91900000D03*
%TO.P,CN70,4,ID*%
%TO.N,unconnected-(CN70-Pad4)*%
X122350000Y-91900000D03*
%TO.P,CN70,5,GND*%
%TO.N,GND*%
X121700000Y-91900000D03*
D21*
%TO.P,CN70,6,GND*%
X122000000Y-94600000D03*
D22*
X120500000Y-91900000D03*
D23*
X120100000Y-94600000D03*
D21*
X124000000Y-94600000D03*
D24*
X119500000Y-94600000D03*
D22*
X125500000Y-91900000D03*
D24*
X126500000Y-94600000D03*
D23*
X125900000Y-94600000D03*
%TD*%
D16*
%TO.P,D607,1,VSS*%
%TO.N,GND*%
X90233424Y-106923489D03*
%TO.P,D607,2,DIN*%
%TO.N,Net-(D606-Pad4)*%
X90233424Y-107823489D03*
%TO.P,D607,3,VDD*%
%TO.N,/RGB_VDD*%
X89333424Y-107823489D03*
%TO.P,D607,4,DOUT*%
%TO.N,Net-(D607-Pad4)*%
X89333424Y-106923489D03*
%TD*%
D13*
%TO.P,R24,1,1*%
%TO.N,+3.3VA*%
X114150000Y-94160000D03*
%TO.P,R24,2,2*%
%TO.N,/D5*%
X114150000Y-93140000D03*
%TD*%
D18*
%TO.P,R73,1,1*%
%TO.N,Net-(R73-Pad1)*%
X92200000Y-93790000D03*
%TO.P,R73,2,2*%
%TO.N,GND*%
X92200000Y-94810000D03*
%TD*%
D17*
%TO.P,C606,1,1*%
%TO.N,/RGB_VDD*%
X94727201Y-109000000D03*
%TO.P,C606,2,2*%
%TO.N,GND*%
X95687201Y-109000000D03*
%TD*%
D16*
%TO.P,D601,1,VSS*%
%TO.N,GND*%
X122737548Y-106923489D03*
%TO.P,D601,2,DIN*%
%TO.N,Net-(D600-Pad4)*%
X122737548Y-107823489D03*
%TO.P,D601,3,VDD*%
%TO.N,/RGB_VDD*%
X121837548Y-107823489D03*
%TO.P,D601,4,DOUT*%
%TO.N,Net-(D601-Pad4)*%
X121837548Y-106923489D03*
%TD*%
D25*
%TO.P,FB71,1,P$1*%
%TO.N,+3.3VA*%
X107425000Y-88900000D03*
%TO.P,FB71,2,P$2*%
%TO.N,VDDA*%
X105600000Y-88900000D03*
%TD*%
D26*
%TO.P,C71,1,1*%
%TO.N,VBUS*%
X87500000Y-88120000D03*
%TO.P,C71,2,2*%
%TO.N,GND*%
X87500000Y-89080000D03*
%TD*%
D13*
%TO.P,R23,1,1*%
%TO.N,+3.3VA*%
X113020000Y-94160000D03*
%TO.P,R23,2,2*%
%TO.N,/D6*%
X113020000Y-93140000D03*
%TD*%
D27*
%TO.P,U9,1,VDD*%
%TO.N,+3V3*%
X78214792Y-94176275D03*
%TO.P,U9,2,LR*%
X78214792Y-92823725D03*
%TO.P,U9,3,CLK*%
%TO.N,/DMIC1_CLK*%
X79116492Y-92823725D03*
%TO.P,U9,4,DOUT*%
%TO.N,/DMIC1_L*%
X79116492Y-94176275D03*
D28*
%TO.P,U9,5,GND*%
%TO.N,GND*%
X78665642Y-95227200D03*
%TO.P,U9,6,GND*%
X78665642Y-91772800D03*
D29*
%TO.P,U9,7,GND*%
X77440092Y-93500000D03*
%TO.P,U9,8,GND*%
X79891192Y-93500000D03*
%TD*%
D17*
%TO.P,C605,1,1*%
%TO.N,/RGB_VDD*%
X100144826Y-109000000D03*
%TO.P,C605,2,2*%
%TO.N,GND*%
X101104826Y-109000000D03*
%TD*%
%TO.P,C601,1,1*%
%TO.N,/RGB_VDD*%
X121804969Y-109000000D03*
%TO.P,C601,2,2*%
%TO.N,GND*%
X122764969Y-109000000D03*
%TD*%
%TO.P,C600,1,1*%
%TO.N,/RGB_VDD*%
X127229539Y-109000000D03*
%TO.P,C600,2,2*%
%TO.N,GND*%
X128189539Y-109000000D03*
%TD*%
D19*
%TO.P,D72,1,C*%
%TO.N,VBUS*%
X127850000Y-88400000D03*
%TO.P,D72,2,A*%
%TO.N,Net-(CN70-Pad1)*%
X124550000Y-88400000D03*
%TD*%
D17*
%TO.P,C611,1,1*%
%TO.N,/RGB_VDD*%
X67630000Y-109000000D03*
%TO.P,C611,2,2*%
%TO.N,GND*%
X68590000Y-109000000D03*
%TD*%
D26*
%TO.P,C23,1,1*%
%TO.N,Net-(C23-Pad1)*%
X100000000Y-94420000D03*
%TO.P,C23,2,2*%
%TO.N,GND*%
X100000000Y-95380000D03*
%TD*%
D17*
%TO.P,C90,1,1*%
%TO.N,+3V3*%
X77685642Y-89400000D03*
%TO.P,C90,2,2*%
%TO.N,GND*%
X78645642Y-89400000D03*
%TD*%
%TO.P,C604,1,1*%
%TO.N,/RGB_VDD*%
X105558203Y-109000000D03*
%TO.P,C604,2,2*%
%TO.N,GND*%
X106518203Y-109000000D03*
%TD*%
D16*
%TO.P,D606,1,VSS*%
%TO.N,GND*%
X95650778Y-106923489D03*
%TO.P,D606,2,DIN*%
%TO.N,Net-(D605-Pad4)*%
X95650778Y-107823489D03*
%TO.P,D606,3,VDD*%
%TO.N,/RGB_VDD*%
X94750778Y-107823489D03*
%TO.P,D606,4,DOUT*%
%TO.N,Net-(D606-Pad4)*%
X94750778Y-106923489D03*
%TD*%
D30*
%TO.P,U70,1,IN*%
%TO.N,VBUS*%
X85937500Y-87950000D03*
%TO.P,U70,2,GND*%
%TO.N,GND*%
X85937500Y-88900000D03*
%TO.P,U70,3,EN*%
%TO.N,VBUS*%
X85937500Y-89850000D03*
%TO.P,U70,4,P4*%
%TO.N,unconnected-(U70-Pad4)*%
X83662500Y-89850000D03*
%TO.P,U70,5,OUT*%
%TO.N,+3V3*%
X83662500Y-87950000D03*
%TD*%
D31*
%TO.P,U72,1,STAT*%
%TO.N,Net-(CHG1-Pad1)*%
X89462500Y-92350000D03*
%TO.P,U72,2,VSS*%
%TO.N,GND*%
X89462500Y-91400000D03*
%TO.P,U72,3,VBAT*%
%TO.N,+BATT*%
X89462500Y-90450000D03*
%TO.P,U72,4,VDD*%
%TO.N,VBUS*%
X91737500Y-90450000D03*
%TO.P,U72,5,PROG*%
%TO.N,Net-(R73-Pad1)*%
X91737500Y-92350000D03*
%TD*%
D17*
%TO.P,C608,1,1*%
%TO.N,/RGB_VDD*%
X83890871Y-109000000D03*
%TO.P,C608,2,2*%
%TO.N,GND*%
X84850871Y-109000000D03*
%TD*%
D26*
%TO.P,C24,1,1*%
%TO.N,+3.3VA*%
X121700000Y-88220000D03*
%TO.P,C24,2,2*%
%TO.N,GND*%
X121700000Y-89180000D03*
%TD*%
D17*
%TO.P,C602,1,1*%
%TO.N,/RGB_VDD*%
X116393093Y-109000000D03*
%TO.P,C602,2,2*%
%TO.N,GND*%
X117353093Y-109000000D03*
%TD*%
D14*
%TO.P,C11,1,1*%
%TO.N,+3V3*%
X112900000Y-88980000D03*
%TO.P,C11,2,2*%
%TO.N,GND*%
X112900000Y-88020000D03*
%TD*%
D15*
%TO.P,R60,1,1*%
%TO.N,/D2*%
X124690000Y-106100000D03*
%TO.P,R60,2,2*%
%TO.N,Net-(D600-Pad2)*%
X125710000Y-106100000D03*
%TD*%
D13*
%TO.P,R22,1,1*%
%TO.N,Net-(C22-Pad1)*%
X101300000Y-95410000D03*
%TO.P,R22,2,2*%
%TO.N,Net-(C23-Pad1)*%
X101300000Y-94390000D03*
%TD*%
D14*
%TO.P,C77,1,1*%
%TO.N,+BATT*%
X87700000Y-91080000D03*
%TO.P,C77,2,2*%
%TO.N,GND*%
X87700000Y-90120000D03*
%TD*%
D16*
%TO.P,D602,1,VSS*%
%TO.N,GND*%
X117320194Y-106923489D03*
%TO.P,D602,2,DIN*%
%TO.N,Net-(D601-Pad4)*%
X117320194Y-107823489D03*
%TO.P,D602,3,VDD*%
%TO.N,/RGB_VDD*%
X116420194Y-107823489D03*
%TO.P,D602,4,DOUT*%
%TO.N,Net-(D602-Pad4)*%
X116420194Y-106923489D03*
%TD*%
%TO.P,D604,1,VSS*%
%TO.N,GND*%
X106485486Y-106923489D03*
%TO.P,D604,2,DIN*%
%TO.N,Net-(D603-Pad4)*%
X106485486Y-107823489D03*
%TO.P,D604,3,VDD*%
%TO.N,/RGB_VDD*%
X105585486Y-107823489D03*
%TO.P,D604,4,DOUT*%
%TO.N,Net-(D604-Pad4)*%
X105585486Y-106923489D03*
%TD*%
D30*
%TO.P,U71,1,VOUT2*%
%TO.N,+3.3VA*%
X85937500Y-91650000D03*
%TO.P,U71,2,GND*%
%TO.N,GND*%
X85937500Y-92600000D03*
%TO.P,U71,3,EN2*%
%TO.N,/D4*%
X85937500Y-93550000D03*
%TO.P,U71,4,EN1*%
%TO.N,+3V3*%
X83662500Y-93550000D03*
%TO.P,U71,5,VIN*%
X83662500Y-92600000D03*
%TO.P,U71,6,VOUT1*%
%TO.N,+1V8*%
X83662500Y-91650000D03*
%TD*%
D17*
%TO.P,C607,1,1*%
%TO.N,/RGB_VDD*%
X89309267Y-109000000D03*
%TO.P,C607,2,2*%
%TO.N,GND*%
X90269267Y-109000000D03*
%TD*%
D18*
%TO.P,R71,1,1*%
%TO.N,+BATT*%
X87700000Y-92120000D03*
%TO.P,R71,2,2*%
%TO.N,/A4*%
X87700000Y-93140000D03*
%TD*%
D16*
%TO.P,D610,1,VSS*%
%TO.N,GND*%
X73981362Y-106873489D03*
%TO.P,D610,2,DIN*%
%TO.N,Net-(D609-Pad4)*%
X73981362Y-107773489D03*
%TO.P,D610,3,VDD*%
%TO.N,/RGB_VDD*%
X73081362Y-107773489D03*
%TO.P,D610,4,DOUT*%
%TO.N,Net-(D610-Pad4)*%
X73081362Y-106873489D03*
%TD*%
%TO.P,D608,1,VSS*%
%TO.N,GND*%
X84816070Y-106923489D03*
%TO.P,D608,2,DIN*%
%TO.N,Net-(D607-Pad4)*%
X84816070Y-107823489D03*
%TO.P,D608,3,VDD*%
%TO.N,/RGB_VDD*%
X83916070Y-107823489D03*
%TO.P,D608,4,DOUT*%
%TO.N,Net-(D608-Pad4)*%
X83916070Y-106923489D03*
%TD*%
D17*
%TO.P,C20,1,1*%
%TO.N,Net-(C20-Pad1)*%
X103232500Y-88400000D03*
%TO.P,C20,2,2*%
%TO.N,GNDA*%
X104192500Y-88400000D03*
%TD*%
%TO.P,C610,1,1*%
%TO.N,/RGB_VDD*%
X73053846Y-109000000D03*
%TO.P,C610,2,2*%
%TO.N,GND*%
X74013846Y-109000000D03*
%TD*%
D16*
%TO.P,D603,1,VSS*%
%TO.N,GND*%
X111902840Y-106923489D03*
%TO.P,D603,2,DIN*%
%TO.N,Net-(D602-Pad4)*%
X111902840Y-107823489D03*
%TO.P,D603,3,VDD*%
%TO.N,/RGB_VDD*%
X111002840Y-107823489D03*
%TO.P,D603,4,DOUT*%
%TO.N,Net-(D603-Pad4)*%
X111002840Y-106923489D03*
%TD*%
D17*
%TO.P,C91,1,1*%
%TO.N,+3V3*%
X77685642Y-90500000D03*
%TO.P,C91,2,2*%
%TO.N,GND*%
X78645642Y-90500000D03*
%TD*%
D32*
%TO.P,J10,1,Pin_1*%
%TO.N,/vs1053_LEFT*%
X94250000Y-93950000D03*
%TO.P,J10,2,Pin_2*%
%TO.N,/vs1053_RIGHT*%
X94250000Y-93450000D03*
%TO.P,J10,3,Pin_3*%
%TO.N,/AOHPL*%
X94250000Y-92950000D03*
%TO.P,J10,4,Pin_4*%
%TO.N,/AOHPR*%
X94250000Y-92450000D03*
%TO.P,J10,5,Pin_5*%
%TO.N,GNDA*%
X94250000Y-91950000D03*
%TO.P,J10,6,Pin_6*%
%TO.N,/D7*%
X94250000Y-91450000D03*
%TO.P,J10,7,Pin_7*%
%TO.N,+BATT*%
X94250000Y-90950000D03*
%TO.P,J10,8,Pin_8*%
X94250000Y-90450000D03*
%TO.P,J10,9,Pin_9*%
%TO.N,VBUS*%
X94250000Y-89950000D03*
%TO.P,J10,10,Pin_10*%
X94250000Y-89450000D03*
%TO.P,J10,11,Pin_11*%
%TO.N,+1V8*%
X97850000Y-93950000D03*
%TO.P,J10,12,Pin_12*%
%TO.N,/SDA*%
X97850000Y-93450000D03*
%TO.P,J10,13,Pin_13*%
%TO.N,/SCL*%
X97850000Y-92950000D03*
%TO.P,J10,14,Pin_14*%
%TO.N,/D3*%
X97850000Y-92450000D03*
%TO.P,J10,15,Pin_15*%
%TO.N,+3V3*%
X97850000Y-91950000D03*
%TO.P,J10,16,Pin_16*%
%TO.N,/A3*%
X97850000Y-91450000D03*
%TO.P,J10,17,Pin_17*%
%TO.N,/D2*%
X97850000Y-90950000D03*
%TO.P,J10,18,Pin_18*%
%TO.N,/D11*%
X97850000Y-90450000D03*
%TO.P,J10,19,Pin_19*%
%TO.N,GND*%
X97850000Y-89950000D03*
%TO.P,J10,20,Pin_20*%
X97850000Y-89450000D03*
%TD*%
D17*
%TO.P,C603,1,1*%
%TO.N,/RGB_VDD*%
X110971456Y-109000000D03*
%TO.P,C603,2,2*%
%TO.N,GND*%
X111931456Y-109000000D03*
%TD*%
D16*
%TO.P,D609,1,VSS*%
%TO.N,GND*%
X79398716Y-106923489D03*
%TO.P,D609,2,DIN*%
%TO.N,Net-(D608-Pad4)*%
X79398716Y-107823489D03*
%TO.P,D609,3,VDD*%
%TO.N,/RGB_VDD*%
X78498716Y-107823489D03*
%TO.P,D609,4,DOUT*%
%TO.N,Net-(D609-Pad4)*%
X78498716Y-106923489D03*
%TD*%
D26*
%TO.P,C72,1,1*%
%TO.N,+3V3*%
X82100000Y-88220000D03*
%TO.P,C72,2,2*%
%TO.N,GND*%
X82100000Y-89180000D03*
%TD*%
D33*
%TO.P,C70,1,1*%
%TO.N,VDDA*%
X104192500Y-89600000D03*
%TO.P,C70,2,2*%
%TO.N,GNDA*%
X103232500Y-89600000D03*
%TD*%
D18*
%TO.P,R10,1,1*%
%TO.N,/D13*%
X115730000Y-93160000D03*
%TO.P,R10,2,2*%
%TO.N,Net-(D10-Pad2)*%
X115730000Y-94180000D03*
%TD*%
D34*
%TO.N,GND*%
X79132003Y-90500000D03*
X101089163Y-93302621D03*
X80000000Y-106848509D03*
X123305924Y-106837000D03*
X105600000Y-80763000D03*
X96200000Y-109000000D03*
X69100000Y-109000000D03*
X76100000Y-81900000D03*
X85000000Y-92600000D03*
X110300000Y-86500000D03*
X107000000Y-109000000D03*
X104100000Y-93900000D03*
X72700000Y-113400000D03*
X69100000Y-106798509D03*
X128700000Y-106900000D03*
X76450000Y-93300000D03*
X85000000Y-88900000D03*
X91100000Y-94000000D03*
X100000000Y-87724500D03*
X113781250Y-82981250D03*
X96200000Y-106848509D03*
X120800000Y-88600000D03*
X107000317Y-106848509D03*
X101602462Y-106848509D03*
X106800000Y-87037011D03*
X101600000Y-109000000D03*
D35*
X100752637Y-90330920D03*
D34*
X128700000Y-109000000D03*
X110300000Y-83000000D03*
X99100000Y-113700000D03*
X109800000Y-115000000D03*
X109240000Y-94830000D03*
X85407793Y-106848509D03*
X82100000Y-89800000D03*
X72300000Y-118300000D03*
X104600000Y-112900000D03*
X74500000Y-109000000D03*
X123300000Y-109000000D03*
X113800000Y-86500000D03*
X117907471Y-106848509D03*
X85200000Y-83200000D03*
X97900000Y-80800000D03*
X80000000Y-109000000D03*
X117900000Y-109000000D03*
X85400000Y-109000000D03*
D35*
X126100000Y-87900000D03*
D34*
X112500000Y-106848509D03*
X90584423Y-91759073D03*
X99300000Y-95300000D03*
X90800000Y-109000000D03*
X89800000Y-115400000D03*
X90800000Y-106848509D03*
X76100000Y-113400000D03*
X112500000Y-109000000D03*
X74502781Y-106798509D03*
%TO.N,Net-(C20-Pad1)*%
X102645499Y-87839545D03*
%TO.N,GNDA*%
X122189588Y-115000000D03*
X115609588Y-114900000D03*
X112515000Y-118090000D03*
X103750000Y-87725000D03*
X120589588Y-116600000D03*
X95527595Y-92493646D03*
X92500000Y-116500000D03*
X120589588Y-115000000D03*
X105900000Y-86073989D03*
X101219399Y-85317553D03*
X122189588Y-116600000D03*
%TO.N,/~{RESET}*%
X83100000Y-81800000D03*
X113300000Y-80600000D03*
X109365892Y-93500017D03*
X103322740Y-91964840D03*
%TO.N,Net-(C22-Pad1)*%
X101900000Y-93800000D03*
%TO.N,Net-(C23-Pad1)*%
X101967561Y-93084032D03*
%TO.N,+3.3VA*%
X86980500Y-94100498D03*
X122785880Y-87463000D03*
X104100000Y-93100000D03*
X99600000Y-90500000D03*
X107900000Y-90000000D03*
X100419666Y-93619666D03*
X108100000Y-93973989D03*
%TO.N,+3V3*%
X111900000Y-90159700D03*
X98800000Y-82906060D03*
X110100000Y-91548711D03*
X71100000Y-116300000D03*
X99300000Y-115400000D03*
X76950000Y-89400000D03*
X107925000Y-84500000D03*
X89400000Y-93200000D03*
X108600000Y-80763000D03*
X82800000Y-92700000D03*
X104100000Y-115500000D03*
X83600000Y-88900000D03*
X96663104Y-93199565D03*
X115500000Y-80831011D03*
%TO.N,VDDA*%
X105500000Y-87800000D03*
X102226162Y-85475221D03*
%TO.N,VBUS*%
X104125000Y-80800000D03*
X94220000Y-88960000D03*
%TO.N,+1V8*%
X96600000Y-117957440D03*
X120122688Y-113900000D03*
X101600000Y-90530920D03*
X98254369Y-87090849D03*
X123256488Y-113766900D03*
X84800000Y-91310480D03*
X96710000Y-94230000D03*
%TO.N,/RGB_VDD*%
X103262500Y-108700000D03*
X103300000Y-113000000D03*
%TO.N,/MISO*%
X110500931Y-90622700D03*
X113238000Y-90437000D03*
X126505000Y-86095000D03*
%TO.N,/SCLK*%
X124300000Y-86536480D03*
X108701608Y-92231489D03*
X112700000Y-91400000D03*
%TO.N,/MOSI*%
X109400931Y-91700931D03*
X122000000Y-86536480D03*
X112000000Y-91100000D03*
%TO.N,/D5*%
X116259517Y-91859517D03*
X120977967Y-85634958D03*
X115810862Y-89073480D03*
%TO.N,/D13*%
X116816826Y-91305571D03*
%TO.N,/GPIO1*%
X111600000Y-92400000D03*
%TO.N,/D6*%
X105437000Y-92200498D03*
X117529621Y-90979051D03*
%TO.N,/GPIO0*%
X110794500Y-92400000D03*
%TO.N,/SCL*%
X116303119Y-83906021D03*
%TO.N,/SDA*%
X116300000Y-84700000D03*
%TO.N,/D2*%
X94238503Y-88033989D03*
X124000000Y-106100000D03*
X98000000Y-109600000D03*
X114500000Y-89000000D03*
X97854890Y-112232091D03*
X95300000Y-82956604D03*
%TO.N,/CHRG_STAT*%
X92600000Y-85800000D03*
X95973500Y-93900000D03*
X107495210Y-87295210D03*
%TO.N,/A4*%
X90200000Y-86400000D03*
X88400500Y-91520949D03*
X107800000Y-86600000D03*
%TO.N,/vs1053_RIGHT*%
X95021962Y-87145007D03*
X104582417Y-87713502D03*
X95524234Y-91140347D03*
%TO.N,/vs1053_LEFT*%
X95584287Y-89963046D03*
X101219594Y-87718396D03*
X95500000Y-87700000D03*
%TO.N,/AOHPR*%
X81454173Y-94299989D03*
X81675919Y-92112023D03*
X92834598Y-92734598D03*
%TO.N,/AOHPL*%
X82100000Y-92720949D03*
X92900000Y-93500000D03*
X82800000Y-94300000D03*
%TO.N,/LED1*%
X94175000Y-81704084D03*
X102100000Y-84000000D03*
%TO.N,/LED2*%
X100000000Y-84400000D03*
X92150000Y-81704084D03*
%TO.N,/D9*%
X108200000Y-87900000D03*
X99600000Y-91500000D03*
%TO.N,/D4*%
X84800000Y-93400000D03*
X90900000Y-86500000D03*
X108900000Y-88012000D03*
%TO.N,/D3*%
X108826011Y-88900000D03*
%TO.N,/BM83_UART_RX*%
X109958987Y-89043649D03*
X98000000Y-83877880D03*
%TO.N,/BM83_UART_TX*%
X110726967Y-88828112D03*
X97700000Y-83000000D03*
%TO.N,/D11*%
X94600000Y-82956604D03*
X116353826Y-88600000D03*
X93569077Y-87716831D03*
%TO.N,/D10*%
X99290500Y-94500000D03*
X116400000Y-86800000D03*
%TO.N,/D7*%
X93461279Y-83440543D03*
X92900000Y-91808587D03*
X117600000Y-85424502D03*
%TO.N,/D-*%
X118033623Y-81407894D03*
%TO.N,/D+*%
X117538647Y-80912918D03*
%TO.N,/DMIC1_CLK*%
X80468494Y-94100000D03*
%TO.N,/DMIC1_L*%
X80931494Y-93373989D03*
%TO.N,/ELEC0*%
X126700000Y-110100000D03*
%TO.N,/ELEC1*%
X120700000Y-110000000D03*
%TO.N,/ELEC2*%
X115300000Y-110000000D03*
%TO.N,/ELEC3*%
X110000000Y-110000000D03*
%TO.N,/ELEC4*%
X104808276Y-109991724D03*
%TO.N,/ELEC5*%
X99400000Y-110000000D03*
%TO.N,/ELEC6*%
X94000000Y-110000000D03*
%TO.N,/ELEC7*%
X88700000Y-110000000D03*
%TO.N,/ELEC8*%
X83400000Y-110000000D03*
%TO.N,/ELEC9*%
X78100000Y-110000000D03*
%TO.N,/ELEC10*%
X72600000Y-110000000D03*
%TO.N,/ELEC11*%
X67500000Y-110100000D03*
%TO.N,Net-(C89-Pad1)*%
X121422688Y-118400000D03*
X118722688Y-115800000D03*
%TO.N,Net-(D10-Pad2)*%
X114936180Y-94150000D03*
%TO.N,/A3*%
X93000000Y-88900000D03*
X92900000Y-84700000D03*
X107778315Y-85707885D03*
%TD*%
D36*
%TO.N,GND*%
X111931456Y-109000000D02*
X112500000Y-109000000D01*
X101527482Y-106923489D02*
X101602462Y-106848509D01*
X74013846Y-109000000D02*
X74500000Y-109000000D01*
X112900000Y-88020000D02*
X112900000Y-87400000D01*
D37*
X103200000Y-94800000D02*
X103000000Y-94800000D01*
D36*
X101104826Y-109000000D02*
X101600000Y-109000000D01*
D37*
X77440092Y-93500000D02*
X76650000Y-93500000D01*
D36*
X106925337Y-106923489D02*
X107000317Y-106848509D01*
X85332813Y-106923489D02*
X85407793Y-106848509D01*
D37*
X77727200Y-95227200D02*
X78665642Y-95227200D01*
D36*
X106600000Y-93500000D02*
X106200000Y-93100000D01*
D37*
X87500000Y-89080000D02*
X87500000Y-89920000D01*
D36*
X122764969Y-109000000D02*
X123300000Y-109000000D01*
D37*
X90225350Y-91400000D02*
X90584423Y-91759073D01*
X78665642Y-95227200D02*
X78747173Y-95308731D01*
D36*
X121700000Y-89180000D02*
X121380000Y-89180000D01*
X68564008Y-106873489D02*
X69025020Y-106873489D01*
D38*
X100000000Y-88720000D02*
X100000000Y-89578283D01*
D36*
X90269267Y-109000000D02*
X90800000Y-109000000D01*
D37*
X87591269Y-95308731D02*
X78747173Y-95308731D01*
D36*
X117353093Y-109000000D02*
X117900000Y-109000000D01*
X78665642Y-91772800D02*
X78665642Y-90520000D01*
D37*
X87500000Y-89920000D02*
X87700000Y-90120000D01*
D38*
X120500000Y-91900000D02*
X121696489Y-91900000D01*
D37*
X85937500Y-88900000D02*
X87320000Y-88900000D01*
X82100000Y-90420000D02*
X82100000Y-89800000D01*
X99920000Y-95300000D02*
X100000000Y-95380000D01*
D36*
X128676511Y-106923489D02*
X128700000Y-106900000D01*
X111902840Y-106923489D02*
X112425020Y-106923489D01*
X78645642Y-90500000D02*
X79132003Y-90500000D01*
X123219435Y-106923489D02*
X123305924Y-106837000D01*
D37*
X87591269Y-95308731D02*
X87700000Y-95200000D01*
D36*
X112425020Y-106923489D02*
X112500000Y-106848509D01*
D37*
X85937500Y-92600000D02*
X85000000Y-92600000D01*
D36*
X79925020Y-106923489D02*
X80000000Y-106848509D01*
X79398716Y-106923489D02*
X79925020Y-106923489D01*
X117320194Y-106923489D02*
X117832491Y-106923489D01*
X68590000Y-109000000D02*
X69100000Y-109000000D01*
X78645642Y-90500000D02*
X78645642Y-89400000D01*
X106518203Y-109000000D02*
X107000000Y-109000000D01*
X112900000Y-87400000D02*
X113800000Y-86500000D01*
X111450000Y-94160000D02*
X110290000Y-94160000D01*
X84816070Y-106923489D02*
X85332813Y-106923489D01*
X95650778Y-106923489D02*
X96125020Y-106923489D01*
X101068132Y-106923489D02*
X101527482Y-106923489D01*
X79435715Y-109000000D02*
X80000000Y-109000000D01*
X106600000Y-93820000D02*
X106600000Y-93500000D01*
X128154903Y-106923489D02*
X128676511Y-106923489D01*
D37*
X76650000Y-93500000D02*
X76450000Y-93300000D01*
X89462500Y-91400000D02*
X90225350Y-91400000D01*
D36*
X117832491Y-106923489D02*
X117907471Y-106848509D01*
X73981362Y-106873489D02*
X74427801Y-106873489D01*
D37*
X92200000Y-94810000D02*
X91910000Y-94810000D01*
X104800000Y-93200000D02*
X105200000Y-93200000D01*
D36*
X121380000Y-89180000D02*
X120800000Y-88600000D01*
D37*
X99300000Y-95300000D02*
X99920000Y-95300000D01*
X77440092Y-93500000D02*
X77440092Y-94940092D01*
D36*
X90725020Y-106923489D02*
X90800000Y-106848509D01*
X69025020Y-106873489D02*
X69100000Y-106798509D01*
X74427801Y-106873489D02*
X74502781Y-106798509D01*
D37*
X104100000Y-93900000D02*
X104800000Y-93200000D01*
D38*
X99980000Y-88720000D02*
X99000000Y-89700000D01*
D37*
X85937500Y-88900000D02*
X85000000Y-88900000D01*
X104100000Y-93900000D02*
X103200000Y-94800000D01*
D36*
X109910000Y-94160000D02*
X110290000Y-94160000D01*
D38*
X99000000Y-89700000D02*
X97300000Y-89700000D01*
D36*
X95687201Y-109000000D02*
X96200000Y-109000000D01*
X90233424Y-106923489D02*
X90725020Y-106923489D01*
D37*
X105200000Y-93100000D02*
X104854008Y-93100000D01*
X100000000Y-87724500D02*
X100000000Y-88720000D01*
X82100000Y-89180000D02*
X82100000Y-89800000D01*
D36*
X106200000Y-93100000D02*
X105200000Y-93100000D01*
D37*
X87320000Y-88900000D02*
X87500000Y-89080000D01*
D36*
X106485486Y-106923489D02*
X106925337Y-106923489D01*
D37*
X91910000Y-94810000D02*
X91100000Y-94000000D01*
D36*
X96125020Y-106923489D02*
X96200000Y-106848509D01*
X122737548Y-106923489D02*
X123219435Y-106923489D01*
X128189539Y-109000000D02*
X128700000Y-109000000D01*
X78665642Y-90520000D02*
X78645642Y-90500000D01*
D37*
X77440092Y-94940092D02*
X77727200Y-95227200D01*
D38*
X100000000Y-89578283D02*
X100752637Y-90330920D01*
D36*
X109240000Y-94830000D02*
X109910000Y-94160000D01*
X84850871Y-109000000D02*
X85400000Y-109000000D01*
D37*
%TO.N,Net-(C20-Pad1)*%
X103205954Y-88400000D02*
X102645499Y-87839545D01*
X103232500Y-88400000D02*
X103205954Y-88400000D01*
%TO.N,GNDA*%
X102725000Y-89600000D02*
X101825000Y-88700000D01*
X94250000Y-91950000D02*
X95353022Y-91950000D01*
X103750000Y-87725000D02*
X104192500Y-88167500D01*
X104192500Y-88167500D02*
X104192500Y-88400000D01*
X103232500Y-89590242D02*
X104192500Y-88630242D01*
X95353022Y-91950000D02*
X95527595Y-92124573D01*
X103232500Y-89600000D02*
X102725000Y-89600000D01*
X95527595Y-92124573D02*
X95527595Y-92493646D01*
D36*
%TO.N,/~{RESET}*%
X103322740Y-91964840D02*
X105017860Y-91964840D01*
X105017860Y-91964840D02*
X105243749Y-91738951D01*
X109365892Y-93345892D02*
X109365892Y-93500017D01*
X105243749Y-91737487D02*
X106627487Y-91737487D01*
X107650000Y-92760000D02*
X108780000Y-92760000D01*
X113000000Y-80300000D02*
X113300000Y-80600000D01*
X105243749Y-91738951D02*
X105243749Y-91737487D01*
X83100000Y-81800000D02*
X84600000Y-80300000D01*
X106627487Y-91737487D02*
X107650000Y-92760000D01*
X108780000Y-92760000D02*
X109365892Y-93345892D01*
X84600000Y-80300000D02*
X113000000Y-80300000D01*
%TO.N,Net-(C22-Pad1)*%
X101920999Y-95520999D02*
X102100000Y-95700000D01*
X105200000Y-94800000D02*
X104300000Y-95700000D01*
X104300000Y-95700000D02*
X102100000Y-95700000D01*
X101920999Y-93820999D02*
X101920999Y-95520999D01*
X102100000Y-95700000D02*
X101590000Y-95700000D01*
X106580000Y-94800000D02*
X106600000Y-94780000D01*
X105200000Y-94800000D02*
X106580000Y-94800000D01*
X101590000Y-95700000D02*
X101300000Y-95410000D01*
X101900000Y-93800000D02*
X101920999Y-93820999D01*
%TO.N,Net-(C23-Pad1)*%
X102984032Y-93084032D02*
X103000000Y-93100000D01*
X101967561Y-93084032D02*
X102984032Y-93084032D01*
X101436989Y-94253011D02*
X101300000Y-94390000D01*
X101436989Y-93608213D02*
X101436989Y-94253011D01*
X101967561Y-93084032D02*
X101961170Y-93084032D01*
X101300000Y-94390000D02*
X100030000Y-94390000D01*
X100030000Y-94390000D02*
X100000000Y-94420000D01*
X101961170Y-93084032D02*
X101436989Y-93608213D01*
%TO.N,+3.3VA*%
X108100000Y-94806568D02*
X108912963Y-95619531D01*
X121160539Y-87463000D02*
X122785880Y-87463000D01*
X108912963Y-95619531D02*
X111660469Y-95619531D01*
X122785880Y-87463000D02*
X122028880Y-88220000D01*
X111660469Y-95619531D02*
X113020000Y-94260000D01*
D37*
X85937500Y-91650000D02*
X86750000Y-91650000D01*
D36*
X116561770Y-94720000D02*
X118107487Y-93174283D01*
D37*
X86750000Y-91650000D02*
X86980500Y-91880500D01*
D36*
X113020000Y-94160000D02*
X114150000Y-94160000D01*
D37*
X86980500Y-91880500D02*
X86980500Y-94100498D01*
D36*
X114150000Y-94160000D02*
X114710000Y-94720000D01*
X122028880Y-88220000D02*
X121700000Y-88220000D01*
D37*
X107425000Y-89525000D02*
X107900000Y-90000000D01*
X107425000Y-88900000D02*
X107425000Y-89525000D01*
D36*
X113020000Y-94260000D02*
X113020000Y-94160000D01*
X118107487Y-90516051D02*
X121160539Y-87463000D01*
X108100000Y-93973989D02*
X108100000Y-94806568D01*
X118107487Y-93174283D02*
X118107487Y-90516051D01*
X114710000Y-94720000D02*
X116561770Y-94720000D01*
%TO.N,+3V3*%
X78214792Y-92547500D02*
X77685642Y-92018350D01*
D37*
X83662500Y-87950000D02*
X82370000Y-87950000D01*
D36*
X112900000Y-88980000D02*
X112900000Y-89159700D01*
X89190000Y-93800000D02*
X89190000Y-93410000D01*
X77685642Y-92018350D02*
X77685642Y-90500000D01*
D37*
X82100000Y-91800000D02*
X82100000Y-91380000D01*
D36*
X78214792Y-94176275D02*
X78214792Y-92823725D01*
X77685642Y-89400000D02*
X76950000Y-89400000D01*
D37*
X97850000Y-91950000D02*
X96746978Y-91950000D01*
D36*
X112900000Y-89159700D02*
X111900000Y-90159700D01*
X77685642Y-89400000D02*
X77685642Y-90500000D01*
D37*
X82900000Y-92600000D02*
X82800000Y-92700000D01*
X83662500Y-92600000D02*
X82900000Y-92600000D01*
X96723489Y-91973489D02*
X96723489Y-93139180D01*
X82900000Y-92600000D02*
X82100000Y-91800000D01*
D36*
X78214792Y-92823725D02*
X78214792Y-92547500D01*
D37*
X82370000Y-87950000D02*
X82100000Y-88220000D01*
X96746978Y-91950000D02*
X96723489Y-91973489D01*
X83662500Y-88837500D02*
X83600000Y-88900000D01*
X83662500Y-93550000D02*
X83662500Y-92600000D01*
X96723489Y-93139180D02*
X96663104Y-93199565D01*
X83662500Y-87950000D02*
X83662500Y-88837500D01*
D36*
X89190000Y-93410000D02*
X89400000Y-93200000D01*
D37*
%TO.N,VDDA*%
X105600000Y-87900000D02*
X105500000Y-87800000D01*
X104192500Y-89600000D02*
X105000000Y-89600000D01*
X105600000Y-88900000D02*
X105600000Y-87900000D01*
X105000000Y-89600000D02*
X105600000Y-89000000D01*
D38*
%TO.N,VBUS*%
X92500000Y-89700000D02*
X94240000Y-89700000D01*
D37*
X84473489Y-89118089D02*
X84473489Y-88681911D01*
X126534405Y-81934405D02*
X117565595Y-81934405D01*
X85205400Y-89850000D02*
X84473489Y-89118089D01*
X94220000Y-88960000D02*
X94220000Y-89680000D01*
X104100000Y-81400000D02*
X104100000Y-80825000D01*
X107900000Y-81400000D02*
X104100000Y-81400000D01*
D38*
X94240000Y-89700000D02*
X94800000Y-89700000D01*
X94800000Y-89700000D02*
X94653511Y-89846489D01*
D37*
X87500000Y-87100000D02*
X86787500Y-87100000D01*
X117031190Y-81400000D02*
X107900000Y-81400000D01*
X104100000Y-81400000D02*
X96300000Y-81400000D01*
X89500000Y-87100000D02*
X87500000Y-87100000D01*
D38*
X91750000Y-90450000D02*
X92500000Y-89700000D01*
D37*
X92150000Y-88300000D02*
X90950000Y-87100000D01*
X86787500Y-87100000D02*
X85937500Y-87950000D01*
X104100000Y-80825000D02*
X104125000Y-80800000D01*
X96300000Y-81400000D02*
X96077573Y-81177573D01*
D38*
X92150000Y-89350000D02*
X92150000Y-88300000D01*
D37*
X117565595Y-81934405D02*
X117031190Y-81400000D01*
X85205400Y-87950000D02*
X85937500Y-87950000D01*
X89400000Y-87000000D02*
X89500000Y-87100000D01*
X127850000Y-83250000D02*
X126534405Y-81934405D01*
X84473489Y-88681911D02*
X85205400Y-87950000D01*
X91022427Y-81177573D02*
X89400000Y-82800000D01*
X85937500Y-89850000D02*
X85205400Y-89850000D01*
X127850000Y-88400000D02*
X127850000Y-83250000D01*
X89400000Y-82800000D02*
X89400000Y-87000000D01*
X87500000Y-88120000D02*
X87500000Y-87100000D01*
D38*
X91737500Y-90450000D02*
X91750000Y-90450000D01*
D37*
X94220000Y-89680000D02*
X94240000Y-89700000D01*
X96077573Y-81177573D02*
X91022427Y-81177573D01*
D38*
X92500000Y-89700000D02*
X92150000Y-89350000D01*
D37*
X90950000Y-87100000D02*
X89500000Y-87100000D01*
D38*
X94653511Y-89846489D02*
X94250000Y-89846489D01*
D36*
%TO.N,+1V8*%
X101600000Y-90530920D02*
X101600000Y-90240643D01*
X101600000Y-90240643D02*
X100775520Y-89416163D01*
X84460480Y-91650000D02*
X83662500Y-91650000D01*
X97850000Y-93950000D02*
X96990000Y-93950000D01*
X100756583Y-87356583D02*
X100490849Y-87090849D01*
X100775520Y-87918937D02*
X100756583Y-87900000D01*
X100490849Y-87090849D02*
X98254369Y-87090849D01*
X96990000Y-93950000D02*
X96710000Y-94230000D01*
X100756583Y-87900000D02*
X100756583Y-87356583D01*
X100775520Y-89416163D02*
X100775520Y-87918937D01*
X84800000Y-91310480D02*
X84460480Y-91650000D01*
D37*
%TO.N,+BATT*%
X88205562Y-90994438D02*
X88750000Y-90450000D01*
D38*
X89200000Y-88300000D02*
X89462500Y-88562500D01*
X89462500Y-88562500D02*
X89462500Y-90450000D01*
D37*
X87785562Y-90994438D02*
X88205562Y-90994438D01*
X87700000Y-91080000D02*
X87785562Y-90994438D01*
D38*
X90175031Y-90450000D02*
X90928551Y-91203520D01*
D37*
X87700000Y-92120000D02*
X87700000Y-91080000D01*
X88750000Y-90450000D02*
X89462500Y-90450000D01*
D38*
X88850000Y-88300000D02*
X89200000Y-88300000D01*
X90928551Y-91203520D02*
X92621480Y-91203520D01*
X93125000Y-90700000D02*
X94800000Y-90700000D01*
X89462500Y-90450000D02*
X90175031Y-90450000D01*
X92621480Y-91203520D02*
X93125000Y-90700000D01*
D36*
%TO.N,/RGB_VDD*%
X73081362Y-108972484D02*
X73053846Y-109000000D01*
X122350559Y-108336500D02*
X126741892Y-108336500D01*
X102899000Y-108336500D02*
X103262500Y-108700000D01*
X94750778Y-108976423D02*
X94727201Y-109000000D01*
X100168132Y-107823489D02*
X99655121Y-108336500D01*
X83916070Y-108974801D02*
X83890871Y-109000000D01*
X89846435Y-108336500D02*
X94237767Y-108336500D01*
X83403059Y-108336500D02*
X83916070Y-107823489D01*
X83916070Y-107823489D02*
X84429081Y-108336500D01*
X116420194Y-107823489D02*
X116420194Y-108972899D01*
X127254903Y-108974636D02*
X127229539Y-109000000D01*
X121837548Y-107823489D02*
X121837548Y-108967421D01*
X121837548Y-108967421D02*
X121804969Y-109000000D01*
X89333424Y-107823489D02*
X89846435Y-108336500D01*
X89333424Y-107823489D02*
X89333424Y-108975843D01*
X110399349Y-108426980D02*
X111002840Y-107823489D01*
X115907183Y-108336500D02*
X116420194Y-107823489D01*
X100168132Y-107823489D02*
X100168132Y-108976694D01*
X73081362Y-107773489D02*
X73081362Y-108972484D01*
X121837548Y-107823489D02*
X122350559Y-108336500D01*
X106188977Y-108426980D02*
X110399349Y-108426980D01*
X73594373Y-108286500D02*
X78035705Y-108286500D01*
X105585486Y-107823489D02*
X105072475Y-108336500D01*
X68177019Y-108286500D02*
X72568351Y-108286500D01*
X78498716Y-108976999D02*
X78475715Y-109000000D01*
X105585486Y-108972717D02*
X105558203Y-109000000D01*
X78498716Y-107823489D02*
X79011727Y-108336500D01*
X94750778Y-107823489D02*
X94750778Y-108976423D01*
X127254903Y-107823489D02*
X127254903Y-108974636D01*
X78035705Y-108286500D02*
X78498716Y-107823489D01*
X83916070Y-107823489D02*
X83916070Y-108974801D01*
X111002840Y-108968616D02*
X110971456Y-109000000D01*
X84429081Y-108336500D02*
X88820413Y-108336500D01*
X78498716Y-107823489D02*
X78498716Y-108976999D01*
X99655121Y-108336500D02*
X95263789Y-108336500D01*
X67664008Y-108965992D02*
X67630000Y-109000000D01*
X111002840Y-107823489D02*
X111515851Y-108336500D01*
X116420194Y-108972899D02*
X116393093Y-109000000D01*
X79011727Y-108336500D02*
X83403059Y-108336500D01*
X105072475Y-108336500D02*
X103626000Y-108336500D01*
X67664008Y-107773489D02*
X67664008Y-108965992D01*
X94237767Y-108336500D02*
X94750778Y-107823489D01*
X100681143Y-108336500D02*
X102899000Y-108336500D01*
X111002840Y-107823489D02*
X111002840Y-108968616D01*
X73081362Y-107773489D02*
X73594373Y-108286500D01*
X116933205Y-108336500D02*
X121324537Y-108336500D01*
X100168132Y-108976694D02*
X100144826Y-109000000D01*
X89333424Y-108975843D02*
X89309267Y-109000000D01*
X88820413Y-108336500D02*
X89333424Y-107823489D01*
X121324537Y-108336500D02*
X121837548Y-107823489D01*
X103626000Y-108336500D02*
X103262500Y-108700000D01*
X111515851Y-108336500D02*
X115907183Y-108336500D01*
X126741892Y-108336500D02*
X127254903Y-107823489D01*
X105585486Y-107823489D02*
X105585486Y-108972717D01*
X100168132Y-107823489D02*
X100681143Y-108336500D01*
X72568351Y-108286500D02*
X73081362Y-107773489D01*
X116420194Y-107823489D02*
X116933205Y-108336500D01*
X95263789Y-108336500D02*
X94750778Y-107823489D01*
X67664008Y-107773489D02*
X68177019Y-108286500D01*
X105585486Y-107823489D02*
X106188977Y-108426980D01*
%TO.N,/MISO*%
X116217177Y-89400000D02*
X117800000Y-89400000D01*
X113238000Y-90437000D02*
X112363000Y-90437000D01*
X126483480Y-86073480D02*
X126505000Y-86095000D01*
X117800000Y-89400000D02*
X121126520Y-86073480D01*
X115180174Y-90437000D02*
X116217177Y-89400000D01*
X110500931Y-90622700D02*
X112177300Y-90622700D01*
X113238000Y-90437000D02*
X115180174Y-90437000D01*
X121126520Y-86073480D02*
X126483480Y-86073480D01*
X112363000Y-90437000D02*
X112177300Y-90622700D01*
%TO.N,/SCLK*%
X115140712Y-91400000D02*
X116351182Y-90189531D01*
X112700000Y-91400000D02*
X115140712Y-91400000D01*
X117972238Y-90189531D02*
X121161769Y-87000000D01*
X110072020Y-92231489D02*
X110738509Y-91565000D01*
X123836480Y-87000000D02*
X124300000Y-86536480D01*
X121161769Y-87000000D02*
X123836480Y-87000000D01*
X112535000Y-91565000D02*
X110738509Y-91565000D01*
X116351182Y-90189531D02*
X117972238Y-90189531D01*
X112535000Y-91565000D02*
X112700000Y-91400000D01*
X108701608Y-92231489D02*
X110072020Y-92231489D01*
%TO.N,/MOSI*%
X121163520Y-86536480D02*
X122000000Y-86536480D01*
X116215934Y-89863011D02*
X117836989Y-89863011D01*
X112000000Y-91100000D02*
X112345202Y-91100000D01*
X109400931Y-91507919D02*
X109823139Y-91085711D01*
X112545202Y-90900000D02*
X115178943Y-90900000D01*
X112345202Y-91100000D02*
X112545202Y-90900000D01*
X117836989Y-89863011D02*
X121163520Y-86536480D01*
X109400931Y-91700931D02*
X109400931Y-91507919D01*
X109823139Y-91085711D02*
X111985711Y-91085711D01*
X111985711Y-91085711D02*
X112000000Y-91100000D01*
X115178943Y-90900000D02*
X116215934Y-89863011D01*
%TO.N,/D5*%
X120977967Y-85722033D02*
X120977967Y-85634958D01*
X120800000Y-85900000D02*
X117626520Y-89073480D01*
X114580000Y-93140000D02*
X115860483Y-91859517D01*
X115860483Y-91859517D02*
X116259517Y-91859517D01*
X114150000Y-93140000D02*
X114580000Y-93140000D01*
X117626520Y-89073480D02*
X115810862Y-89073480D01*
X120800000Y-85900000D02*
X120977967Y-85722033D01*
%TO.N,Net-(D600-Pad4)*%
X123261037Y-107300000D02*
X122737548Y-107823489D01*
X127254903Y-106945097D02*
X126900000Y-107300000D01*
X127254903Y-106923489D02*
X127254903Y-106945097D01*
X126900000Y-107300000D02*
X123261037Y-107300000D01*
%TO.N,Net-(D600-Pad2)*%
X129163011Y-106708213D02*
X129163011Y-107136989D01*
X125710000Y-106100000D02*
X128554798Y-106100000D01*
X128476511Y-107823489D02*
X128154903Y-107823489D01*
X129163011Y-107136989D02*
X128476511Y-107823489D01*
X128554798Y-106100000D02*
X129163011Y-106708213D01*
%TO.N,Net-(D601-Pad4)*%
X117832174Y-107311509D02*
X117320194Y-107823489D01*
X121837548Y-106923489D02*
X121449528Y-107311509D01*
X121449528Y-107311509D02*
X117832174Y-107311509D01*
%TO.N,Net-(D602-Pad4)*%
X112414820Y-107311509D02*
X111902840Y-107823489D01*
X116420194Y-106923489D02*
X116032174Y-107311509D01*
X116032174Y-107311509D02*
X112414820Y-107311509D01*
%TO.N,Net-(D603-Pad4)*%
X106997466Y-107311509D02*
X106485486Y-107823489D01*
X111002840Y-106923489D02*
X110614820Y-107311509D01*
X110614820Y-107311509D02*
X106997466Y-107311509D01*
%TO.N,Net-(D604-Pad4)*%
X101580112Y-107311509D02*
X101068132Y-107823489D01*
X105197466Y-107311509D02*
X101580112Y-107311509D01*
X105585486Y-106923489D02*
X105197466Y-107311509D01*
%TO.N,Net-(D605-Pad4)*%
X99780112Y-107311509D02*
X96162758Y-107311509D01*
X96162758Y-107311509D02*
X95650778Y-107823489D01*
X100168132Y-106923489D02*
X99780112Y-107311509D01*
%TO.N,Net-(D606-Pad4)*%
X94362758Y-107311509D02*
X90745404Y-107311509D01*
X90745404Y-107311509D02*
X90233424Y-107823489D01*
X94750778Y-106923489D02*
X94362758Y-107311509D01*
%TO.N,Net-(D607-Pad4)*%
X85328050Y-107311509D02*
X84816070Y-107823489D01*
X88945404Y-107311509D02*
X85328050Y-107311509D01*
X89333424Y-106923489D02*
X88945404Y-107311509D01*
%TO.N,Net-(D608-Pad4)*%
X83916070Y-106923489D02*
X83528050Y-107311509D01*
X83528050Y-107311509D02*
X79910696Y-107311509D01*
X79910696Y-107311509D02*
X79398716Y-107823489D01*
%TO.N,Net-(D609-Pad4)*%
X74493342Y-107261509D02*
X73981362Y-107773489D01*
X78160696Y-107261509D02*
X74493342Y-107261509D01*
X78498716Y-106923489D02*
X78160696Y-107261509D01*
%TO.N,Net-(D610-Pad4)*%
X73081362Y-106873489D02*
X72693342Y-107261509D01*
X72693342Y-107261509D02*
X69075988Y-107261509D01*
X69075988Y-107261509D02*
X68564008Y-107773489D01*
%TO.N,/D13*%
X116816826Y-91305571D02*
X116816826Y-92073174D01*
X116816826Y-92073174D02*
X115730000Y-93160000D01*
%TO.N,/GPIO1*%
X111450000Y-93140000D02*
X111450000Y-92550000D01*
X111450000Y-92550000D02*
X111600000Y-92400000D01*
%TO.N,/D6*%
X108750000Y-93969191D02*
X108254787Y-93473978D01*
X112210000Y-94570000D02*
X112210000Y-93360000D01*
X112430000Y-93140000D02*
X113020000Y-93140000D01*
X107300000Y-93473978D02*
X106026022Y-92200000D01*
X112210000Y-93360000D02*
X112430000Y-93140000D01*
X108254787Y-93473978D02*
X107300000Y-93473978D01*
X108750000Y-94994798D02*
X108750000Y-93969191D01*
X106026022Y-92200000D02*
X106025524Y-92200498D01*
X117393130Y-90842560D02*
X116297440Y-90842560D01*
X117529621Y-90979051D02*
X117393130Y-90842560D01*
X106025524Y-92200498D02*
X105437000Y-92200498D01*
X116297440Y-90842560D02*
X114860000Y-92280000D01*
X111486989Y-95293011D02*
X112210000Y-94570000D01*
X109048213Y-95293011D02*
X108750000Y-94994798D01*
X113880000Y-92280000D02*
X113020000Y-93140000D01*
X111486989Y-95293011D02*
X109048213Y-95293011D01*
X114860000Y-92280000D02*
X113880000Y-92280000D01*
%TO.N,/GPIO0*%
X110290000Y-93140000D02*
X110290000Y-92904500D01*
X110290000Y-92904500D02*
X110794500Y-92400000D01*
%TO.N,/SCL*%
X104769908Y-90826060D02*
X102883198Y-90826060D01*
X104952908Y-90643060D02*
X104769908Y-90826060D01*
X102062298Y-91646960D02*
X100814052Y-91646960D01*
X116303119Y-83906021D02*
X112293979Y-83906021D01*
X107437716Y-91116051D02*
X106964724Y-90643060D01*
X111313011Y-89013011D02*
X110819362Y-89506660D01*
X108407489Y-91116051D02*
X107437716Y-91116051D01*
X102883198Y-90826060D02*
X102062298Y-91646960D01*
X106964724Y-90643060D02*
X104952908Y-90643060D01*
X99511010Y-92950000D02*
X97850000Y-92950000D01*
X110819362Y-89506660D02*
X110016879Y-89506660D01*
X112293979Y-83906021D02*
X111313011Y-84886989D01*
X110016879Y-89506660D02*
X108407489Y-91116051D01*
X100814052Y-91646960D02*
X99511010Y-92950000D01*
X111313011Y-84886989D02*
X111313011Y-89013011D01*
%TO.N,/SDA*%
X100949301Y-91973480D02*
X99472780Y-93450000D01*
X111961770Y-84700000D02*
X111639531Y-85022239D01*
X102197548Y-91973480D02*
X100949301Y-91973480D01*
X111639531Y-89235249D02*
X111041600Y-89833180D01*
X105088144Y-90969580D02*
X104905144Y-91152580D01*
X111639531Y-85022239D02*
X111639531Y-89235249D01*
X103018448Y-91152580D02*
X102197548Y-91973480D01*
X104905144Y-91152580D02*
X103018448Y-91152580D01*
X116300000Y-84700000D02*
X111961770Y-84700000D01*
X111041600Y-89833180D02*
X110152128Y-89833180D01*
X108542739Y-91442571D02*
X107302467Y-91442571D01*
X107302467Y-91442571D02*
X106829476Y-90969580D01*
X99472780Y-93450000D02*
X97850000Y-93450000D01*
X106829476Y-90969580D02*
X105088144Y-90969580D01*
X110152128Y-89833180D02*
X108542739Y-91442571D01*
%TO.N,/D2*%
X96400000Y-82116540D02*
X96140064Y-82116540D01*
X115516540Y-82116540D02*
X96400000Y-82116540D01*
X114500000Y-89000000D02*
X115363011Y-88136989D01*
X117501241Y-88136989D02*
X118100000Y-87538230D01*
X96912208Y-90950000D02*
X97850000Y-90950000D01*
X94410557Y-88033989D02*
X95087037Y-88710469D01*
X115630205Y-82116540D02*
X115516540Y-82116540D01*
X95087037Y-88710469D02*
X95448261Y-88710469D01*
X96140064Y-82116540D02*
X95300000Y-82956604D01*
X96456460Y-89718668D02*
X96456460Y-90494251D01*
X95448261Y-88710469D02*
X96456460Y-89718668D01*
X115363011Y-88136989D02*
X117501241Y-88136989D01*
X94238503Y-88033989D02*
X94410557Y-88033989D01*
X118100000Y-84586335D02*
X115630205Y-82116540D01*
X96456460Y-90494251D02*
X96912208Y-90950000D01*
X124690000Y-106100000D02*
X124000000Y-106100000D01*
X118100000Y-87538230D02*
X118100000Y-84586335D01*
%TO.N,/CHRG_STAT*%
X101784066Y-86536989D02*
X100894036Y-85646960D01*
X107495210Y-87295210D02*
X107495210Y-87077423D01*
X90787500Y-95200000D02*
X90930520Y-95343020D01*
X90210000Y-94622500D02*
X90787500Y-95200000D01*
X100894036Y-85646960D02*
X92753040Y-85646960D01*
X90210000Y-93800000D02*
X90210000Y-94622500D01*
X107495210Y-87077423D02*
X106954776Y-86536989D01*
X92753040Y-85646960D02*
X92600000Y-85800000D01*
X106954776Y-86536989D02*
X101784066Y-86536989D01*
X94530480Y-95343020D02*
X95973500Y-93900000D01*
X90930520Y-95343020D02*
X94530480Y-95343020D01*
%TO.N,Net-(R73-Pad1)*%
X91737500Y-93327500D02*
X91737500Y-92450000D01*
X92200000Y-93790000D02*
X91737500Y-93327500D01*
%TO.N,/A4*%
X106500000Y-85400000D02*
X102890916Y-85400000D01*
X88400000Y-92500000D02*
X87760000Y-93140000D01*
X102890916Y-85400000D02*
X102345458Y-84854542D01*
X87760000Y-93140000D02*
X87700000Y-93140000D01*
X91279560Y-85320440D02*
X90200000Y-86400000D01*
X100561714Y-85320440D02*
X91279560Y-85320440D01*
X101027612Y-84854542D02*
X100561714Y-85320440D01*
D37*
X87700000Y-94180000D02*
X87700000Y-93140000D01*
D36*
X107755686Y-86600000D02*
X106555686Y-85400000D01*
X107800000Y-86600000D02*
X107755686Y-86600000D01*
X106555686Y-85400000D02*
X106500000Y-85400000D01*
X88400000Y-92500000D02*
X88400000Y-91521449D01*
X88400000Y-91521449D02*
X88400500Y-91520949D01*
X102345458Y-84854542D02*
X101027612Y-84854542D01*
%TO.N,/vs1053_RIGHT*%
X104582417Y-87713502D02*
X104130904Y-87261989D01*
X100623538Y-86300000D02*
X95638728Y-86300000D01*
X95021962Y-86916766D02*
X95021962Y-87145007D01*
X95638728Y-86300000D02*
X95021962Y-86916766D01*
X101585527Y-87261989D02*
X100623538Y-86300000D01*
X96006949Y-92669073D02*
X96006949Y-91450000D01*
X104130904Y-87261989D02*
X101585527Y-87261989D01*
X95697296Y-91140347D02*
X95524234Y-91140347D01*
X94250000Y-93450000D02*
X95226022Y-93450000D01*
X95226022Y-93450000D02*
X96006949Y-92669073D01*
X96006949Y-91450000D02*
X95697296Y-91140347D01*
%TO.N,/vs1053_LEFT*%
X95663046Y-89963046D02*
X95803420Y-90103420D01*
X95187791Y-93950000D02*
X94250000Y-93950000D01*
X95500000Y-86900498D02*
X95772660Y-86627838D01*
X95584287Y-89963046D02*
X95663046Y-89963046D01*
X95500000Y-87700000D02*
X95500000Y-86900498D01*
X96333469Y-91294801D02*
X96333469Y-92804322D01*
X100489607Y-86627838D02*
X101219594Y-87357825D01*
X101219594Y-87357825D02*
X101219594Y-87718396D01*
X95803420Y-90764752D02*
X96333469Y-91294801D01*
X96333469Y-92804322D02*
X95187791Y-93950000D01*
X95803420Y-90103420D02*
X95803420Y-90764752D01*
X95772660Y-86627838D02*
X100489607Y-86627838D01*
%TO.N,/AOHPR*%
X81454173Y-92333769D02*
X81675919Y-92112023D01*
X81454173Y-94299989D02*
X81454173Y-92333769D01*
X94250000Y-92450000D02*
X93119196Y-92450000D01*
X93119196Y-92450000D02*
X92834598Y-92734598D01*
%TO.N,/AOHPL*%
X92900000Y-93323978D02*
X92900000Y-93500000D01*
X94250000Y-92950000D02*
X93273978Y-92950000D01*
X82500000Y-94300000D02*
X82100000Y-93900000D01*
X82100000Y-93900000D02*
X82100000Y-92720949D01*
X82800000Y-94300000D02*
X82500000Y-94300000D01*
X93273978Y-92950000D02*
X92900000Y-93323978D01*
%TO.N,/LED1*%
X93706818Y-84340880D02*
X92900000Y-83534062D01*
X92900000Y-82979084D02*
X94175000Y-81704084D01*
X99803891Y-83936989D02*
X99400000Y-84340880D01*
X99400000Y-84340880D02*
X93706818Y-84340880D01*
X92900000Y-83534062D02*
X92900000Y-82979084D01*
X102100000Y-84000000D02*
X102036989Y-83936989D01*
X102036989Y-83936989D02*
X99803891Y-83936989D01*
%TO.N,/LED2*%
X100000000Y-84400000D02*
X99732600Y-84667400D01*
X99732600Y-84667400D02*
X93567400Y-84667400D01*
X93567400Y-84667400D02*
X92150000Y-83250000D01*
X92150000Y-83250000D02*
X92150000Y-81704084D01*
%TO.N,/D9*%
X107708213Y-90463011D02*
X107235222Y-89990020D01*
X108200000Y-87900000D02*
X108363011Y-88063011D01*
X101791789Y-90993929D02*
X100106071Y-90993929D01*
X108363011Y-90236989D02*
X108136989Y-90463011D01*
X108136989Y-90463011D02*
X107708213Y-90463011D01*
X104682436Y-89990020D02*
X104499436Y-90173020D01*
X100106071Y-90993929D02*
X99600000Y-91500000D01*
X108363011Y-88063011D02*
X108363011Y-90236989D01*
X104499436Y-90173020D02*
X102612698Y-90173020D01*
X107235222Y-89990020D02*
X104682436Y-89990020D01*
X102612698Y-90173020D02*
X101791789Y-90993929D01*
%TO.N,/D4*%
X84950000Y-93550000D02*
X84800000Y-93400000D01*
X94226520Y-85973480D02*
X93700000Y-86500000D01*
X108354798Y-87400000D02*
X108045202Y-87400000D01*
X108900000Y-87945202D02*
X108354798Y-87400000D01*
X107645202Y-87800000D02*
X106200000Y-87800000D01*
X108045202Y-87400000D02*
X107645202Y-87800000D01*
X106200000Y-87800000D02*
X105650491Y-87250491D01*
X105650491Y-87250491D02*
X104581176Y-87250491D01*
X93700000Y-86500000D02*
X90900000Y-86500000D01*
X100758787Y-85973480D02*
X94226520Y-85973480D01*
X85937500Y-93550000D02*
X84950000Y-93550000D01*
X104266153Y-86935469D02*
X101720777Y-86935469D01*
X101720777Y-86935469D02*
X100758787Y-85973480D01*
X108900000Y-88012000D02*
X108900000Y-87945202D01*
X104581176Y-87250491D02*
X104266153Y-86935469D01*
%TO.N,/D3*%
X101927048Y-91320440D02*
X100678800Y-91320440D01*
X108826011Y-88900000D02*
X108689531Y-89036480D01*
X102747948Y-90499540D02*
X101927048Y-91320440D01*
X100678800Y-91320440D02*
X99549240Y-92450000D01*
X99549240Y-92450000D02*
X97850000Y-92450000D01*
X108272239Y-90789531D02*
X107572964Y-90789531D01*
X108689531Y-89036480D02*
X108689531Y-90372239D01*
X107099973Y-90316540D02*
X104817672Y-90316540D01*
X104634672Y-90499540D02*
X102747948Y-90499540D01*
X104817672Y-90316540D02*
X104634672Y-90499540D01*
X107572964Y-90789531D02*
X107099973Y-90316540D01*
X108689531Y-90372239D02*
X108272239Y-90789531D01*
%TO.N,/BM83_UART_RX*%
X108546100Y-83096100D02*
X99900000Y-83096100D01*
X99726528Y-83096100D02*
X99127036Y-83695591D01*
X98182289Y-83695591D02*
X98000000Y-83877880D01*
X99127036Y-83695591D02*
X98182289Y-83695591D01*
X109958987Y-89043649D02*
X109836989Y-88921651D01*
X99900000Y-83096100D02*
X99726528Y-83096100D01*
X109276520Y-83826520D02*
X108546100Y-83096100D01*
X109836989Y-84386989D02*
X109276520Y-83826520D01*
X109836989Y-88921651D02*
X109836989Y-84386989D01*
%TO.N,/BM83_UART_TX*%
X110850000Y-88705079D02*
X110726967Y-88828112D01*
X110850000Y-84938231D02*
X110850000Y-88705079D01*
X108681349Y-82769580D02*
X110850000Y-84938231D01*
X99591278Y-82769580D02*
X108681349Y-82769580D01*
X98991787Y-83369071D02*
X99591278Y-82769580D01*
X97700000Y-83000000D02*
X98069071Y-83369071D01*
X98069071Y-83369071D02*
X98991787Y-83369071D01*
%TO.N,/D11*%
X115765455Y-81790020D02*
X115590020Y-81790020D01*
X115590020Y-81790020D02*
X96400000Y-81790020D01*
X96782980Y-90359002D02*
X96782980Y-89583418D01*
X96400000Y-81790020D02*
X95766584Y-81790020D01*
X95583511Y-88383949D02*
X95243261Y-88383949D01*
X95243261Y-88383949D02*
X94430290Y-87570978D01*
X96873978Y-90450000D02*
X96782980Y-90359002D01*
X96782980Y-89583418D02*
X95583511Y-88383949D01*
X118426520Y-84451085D02*
X115765455Y-81790020D01*
X94430290Y-87570978D02*
X93714930Y-87570978D01*
X93714930Y-87570978D02*
X93569077Y-87716831D01*
X95766584Y-81790020D02*
X94600000Y-82956604D01*
X97850000Y-90450000D02*
X96873978Y-90450000D01*
X116353826Y-88600000D02*
X117500000Y-88600000D01*
X118426520Y-87673479D02*
X118426520Y-84451085D01*
X117500000Y-88600000D02*
X118426520Y-87673479D01*
%TO.N,/D10*%
X111240300Y-90159700D02*
X112200000Y-89200000D01*
X103153698Y-91479100D02*
X105040393Y-91479100D01*
X108677989Y-91769091D02*
X110287380Y-90159700D01*
X101084550Y-92300000D02*
X102332798Y-92300000D01*
X99290500Y-94094049D02*
X101084550Y-92300000D01*
X110287380Y-90159700D02*
X111240300Y-90159700D01*
X115636989Y-86036989D02*
X116400000Y-86800000D01*
X102332798Y-92300000D02*
X103153698Y-91479100D01*
X112363011Y-86036989D02*
X115636989Y-86036989D01*
X112200000Y-86200000D02*
X112363011Y-86036989D01*
X112200000Y-89200000D02*
X112200000Y-86200000D01*
X106771617Y-91373489D02*
X107167219Y-91769091D01*
X107167219Y-91769091D02*
X108677989Y-91769091D01*
X105146004Y-91373489D02*
X106771617Y-91373489D01*
X99290500Y-94500000D02*
X99290500Y-94094049D01*
X105040393Y-91479100D02*
X105146004Y-91373489D01*
%TO.N,/D7*%
X96468342Y-82443060D02*
X95500000Y-83411402D01*
X117600000Y-85424502D02*
X117600000Y-84548104D01*
X117600000Y-84548104D02*
X116494906Y-83443010D01*
X116494906Y-83443010D02*
X115494956Y-82443060D01*
X95470859Y-83440543D02*
X93461279Y-83440543D01*
X95500000Y-83411402D02*
X95470859Y-83440543D01*
X115494956Y-82443060D02*
X96600000Y-82443060D01*
X94250000Y-91450000D02*
X93258587Y-91450000D01*
X93258587Y-91450000D02*
X92900000Y-91808587D01*
X96600000Y-82443060D02*
X96468342Y-82443060D01*
D39*
%TO.N,/D-*%
X123906801Y-89974999D02*
X128306801Y-89974999D01*
X128775000Y-82393200D02*
X127606801Y-81225001D01*
X123100000Y-91325000D02*
X123100000Y-90781800D01*
X118033623Y-81231117D02*
X118033623Y-81407894D01*
X128306801Y-89974999D02*
X128775000Y-89506800D01*
X127606801Y-81225001D02*
X118039739Y-81225001D01*
X123000000Y-91900000D02*
X123000000Y-91425000D01*
X123000000Y-91425000D02*
X123100000Y-91325000D01*
X123100000Y-90781800D02*
X123906801Y-89974999D01*
X118039739Y-81225001D02*
X118033623Y-81231117D01*
X128775000Y-89506800D02*
X128775000Y-82393200D01*
%TO.N,/D+*%
X123650000Y-91425000D02*
X123550000Y-91325000D01*
X117853343Y-80774999D02*
X117715424Y-80912918D01*
X124093199Y-90425001D02*
X128493199Y-90425001D01*
X129225000Y-82206800D02*
X127793199Y-80774999D01*
X117715424Y-80912918D02*
X117538647Y-80912918D01*
X127793199Y-80774999D02*
X117853343Y-80774999D01*
X123550000Y-91325000D02*
X123550000Y-90968200D01*
X129225000Y-89693200D02*
X129225000Y-82206800D01*
X123550000Y-90968200D02*
X124093199Y-90425001D01*
X123650000Y-91900000D02*
X123650000Y-91425000D01*
X128493199Y-90425001D02*
X129225000Y-89693200D01*
D36*
%TO.N,/DMIC1_CLK*%
X80332003Y-92081289D02*
X79576353Y-92081289D01*
X80468494Y-94100000D02*
X80468494Y-92217780D01*
X79116492Y-92541150D02*
X79576353Y-92081289D01*
X80468494Y-92217780D02*
X80332003Y-92081289D01*
X79116492Y-92823725D02*
X79116492Y-92541150D01*
%TO.N,/DMIC1_L*%
X79116492Y-94442975D02*
X79592228Y-94918711D01*
X80931494Y-93373989D02*
X80931494Y-94291798D01*
X80931494Y-94291798D02*
X80304581Y-94918711D01*
X79592228Y-94918711D02*
X80304581Y-94918711D01*
X79116492Y-94176275D02*
X79116492Y-94450850D01*
X79116492Y-94176275D02*
X79116492Y-94442975D01*
%TO.N,Net-(CHG1-Pad1)*%
X88283020Y-93529480D02*
X88283020Y-94270520D01*
X89462500Y-92350000D02*
X88283020Y-93529480D01*
X88283020Y-94270520D02*
X89212500Y-95200000D01*
D37*
%TO.N,Net-(CN70-Pad1)*%
X124300000Y-91900000D02*
X124300000Y-92700000D01*
X118700000Y-91100000D02*
X119700000Y-90100000D01*
X119700000Y-90100000D02*
X122850000Y-90100000D01*
X124300000Y-92700000D02*
X123900000Y-93100000D01*
X122850000Y-90100000D02*
X124550000Y-88400000D01*
X119300000Y-93100000D02*
X118700000Y-92500000D01*
X123900000Y-93100000D02*
X119300000Y-93100000D01*
X118700000Y-92500000D02*
X118700000Y-91100000D01*
D36*
%TO.N,Net-(D10-Pad2)*%
X115730000Y-94180000D02*
X114966180Y-94180000D01*
X114966180Y-94180000D02*
X114936180Y-94150000D01*
%TO.N,/A3*%
X94411787Y-88496989D02*
X94951787Y-89036989D01*
X100865898Y-84528022D02*
X102480707Y-84528022D01*
X103026165Y-85073480D02*
X107126164Y-85073480D01*
X107778315Y-85707885D02*
X107760569Y-85707885D01*
X100406080Y-84993920D02*
X100865898Y-84534102D01*
X93403011Y-88496989D02*
X94411787Y-88496989D01*
X96129940Y-90629500D02*
X96950438Y-91450000D01*
X100865898Y-84534102D02*
X100865898Y-84528022D01*
X102480707Y-84528022D02*
X103026165Y-85073480D01*
X96129940Y-89853918D02*
X96129940Y-90629500D01*
X92900000Y-84700000D02*
X93193920Y-84993920D01*
X93000000Y-88900000D02*
X93403011Y-88496989D01*
X96950438Y-91450000D02*
X97850000Y-91450000D01*
X93193920Y-84993920D02*
X100406080Y-84993920D01*
X107760569Y-85707885D02*
X107126164Y-85073480D01*
X94951787Y-89036989D02*
X95313011Y-89036989D01*
X95313011Y-89036989D02*
X96129940Y-89853918D01*
%TD*%
%TA.AperFunction,Conductor*%
%TO.N,/ELEC6*%
G36*
X95855411Y-109799550D02*
G01*
X95923528Y-109819563D01*
X95950542Y-109842953D01*
X97568815Y-111707203D01*
X97598366Y-111771758D01*
X97588324Y-111842041D01*
X97558357Y-111881739D01*
X97557290Y-111882412D01*
X97471109Y-111979994D01*
X97415780Y-112097842D01*
X97395750Y-112226481D01*
X97396914Y-112235383D01*
X97396914Y-112235386D01*
X97405342Y-112299832D01*
X97412631Y-112355572D01*
X97465064Y-112474736D01*
X97548836Y-112574394D01*
X97556304Y-112579365D01*
X97556305Y-112579366D01*
X97616984Y-112619758D01*
X97662606Y-112674156D01*
X97671576Y-112744584D01*
X97642382Y-112807165D01*
X95915409Y-114799848D01*
X95921590Y-114806979D01*
X98010846Y-117217270D01*
X98040350Y-117281846D01*
X98030259Y-117352122D01*
X98010835Y-117382341D01*
X97213203Y-118302274D01*
X97153464Y-118340639D01*
X97082468Y-118340617D01*
X97022754Y-118302215D01*
X96993281Y-118237625D01*
X97004612Y-118164796D01*
X97037437Y-118097044D01*
X97059037Y-117968659D01*
X97059174Y-117957440D01*
X97040718Y-117828565D01*
X96986832Y-117710050D01*
X96901850Y-117611423D01*
X96792601Y-117540612D01*
X96667870Y-117503310D01*
X96658894Y-117503255D01*
X96658893Y-117503255D01*
X96605678Y-117502930D01*
X96537683Y-117502514D01*
X96412505Y-117538290D01*
X96302400Y-117607761D01*
X96216219Y-117705343D01*
X96160890Y-117823191D01*
X96140860Y-117951830D01*
X96142024Y-117960732D01*
X96142024Y-117960735D01*
X96156577Y-118072022D01*
X96157741Y-118080921D01*
X96210174Y-118200085D01*
X96293946Y-118299743D01*
X96301414Y-118304714D01*
X96301415Y-118304715D01*
X96394850Y-118366912D01*
X96394853Y-118366913D01*
X96402320Y-118371884D01*
X96410887Y-118374560D01*
X96410888Y-118374561D01*
X96432171Y-118381210D01*
X96526587Y-118410707D01*
X96535560Y-118410871D01*
X96535563Y-118410872D01*
X96592790Y-118411921D01*
X96656755Y-118413093D01*
X96757976Y-118385497D01*
X96773701Y-118381210D01*
X96773703Y-118381209D01*
X96782360Y-118378849D01*
X96790007Y-118374154D01*
X96790011Y-118374152D01*
X96865018Y-118328098D01*
X96933535Y-118309500D01*
X97001231Y-118330897D01*
X97046611Y-118385497D01*
X97055269Y-118455964D01*
X97026145Y-118518015D01*
X95999095Y-119702542D01*
X95939356Y-119740907D01*
X95903896Y-119746000D01*
X91905912Y-119746000D01*
X91837791Y-119725998D01*
X91791298Y-119672342D01*
X91781194Y-119602068D01*
X91810665Y-119537515D01*
X93749471Y-117298828D01*
X93525961Y-117041075D01*
X92947937Y-116374495D01*
X92928431Y-116344100D01*
X92890547Y-116260781D01*
X92886832Y-116252610D01*
X92801850Y-116153983D01*
X92768378Y-116132288D01*
X92713774Y-116096895D01*
X92687112Y-116073711D01*
X92107926Y-115405792D01*
X91654026Y-114882354D01*
X91624510Y-114817785D01*
X91634588Y-114747507D01*
X91654004Y-114717286D01*
X93737255Y-112313523D01*
X93737256Y-112313522D01*
X93749120Y-112299832D01*
X91763960Y-110007401D01*
X91734488Y-109942813D01*
X91744614Y-109872542D01*
X91791123Y-109818901D01*
X91859231Y-109798920D01*
X95855411Y-109799550D01*
G37*
%TD.AperFunction*%
%TD*%
%TA.AperFunction,Conductor*%
%TO.N,/ELEC10*%
G36*
X74522349Y-109799371D02*
G01*
X74590466Y-109819384D01*
X74617480Y-109842774D01*
X76677954Y-112216440D01*
X76707505Y-112280995D01*
X76697463Y-112351278D01*
X76678021Y-112381556D01*
X76226829Y-112902168D01*
X76167102Y-112940545D01*
X76130846Y-112945644D01*
X76037683Y-112945074D01*
X75912505Y-112980850D01*
X75802400Y-113050321D01*
X75716219Y-113147903D01*
X75660890Y-113265751D01*
X75640860Y-113394390D01*
X75642024Y-113403292D01*
X75642024Y-113403296D01*
X75654419Y-113498082D01*
X75643419Y-113568221D01*
X75624700Y-113596940D01*
X75404874Y-113850589D01*
X74582347Y-114799669D01*
X74588528Y-114806800D01*
X76677784Y-117217091D01*
X76707288Y-117281667D01*
X76697197Y-117351943D01*
X76677773Y-117382162D01*
X74665878Y-119702542D01*
X74606139Y-119740907D01*
X74570679Y-119746000D01*
X70572695Y-119746000D01*
X70504574Y-119725998D01*
X70458081Y-119672342D01*
X70447977Y-119602068D01*
X70477449Y-119537513D01*
X71156500Y-118753432D01*
X71620812Y-118217304D01*
X71680527Y-118178904D01*
X71751524Y-118178886D01*
X71811260Y-118217254D01*
X71840770Y-118281827D01*
X71841376Y-118291075D01*
X71840860Y-118294390D01*
X71842024Y-118303291D01*
X71842024Y-118303292D01*
X71843688Y-118316013D01*
X71857741Y-118423481D01*
X71910174Y-118542645D01*
X71993946Y-118642303D01*
X72001414Y-118647274D01*
X72001415Y-118647275D01*
X72094850Y-118709472D01*
X72094853Y-118709473D01*
X72102320Y-118714444D01*
X72110887Y-118717120D01*
X72110888Y-118717121D01*
X72132171Y-118723770D01*
X72226587Y-118753267D01*
X72235560Y-118753431D01*
X72235563Y-118753432D01*
X72292790Y-118754481D01*
X72356755Y-118755653D01*
X72408917Y-118741432D01*
X72473701Y-118723770D01*
X72473703Y-118723769D01*
X72482360Y-118721409D01*
X72593306Y-118653288D01*
X72680672Y-118556767D01*
X72737437Y-118439604D01*
X72759037Y-118311219D01*
X72759174Y-118300000D01*
X72740718Y-118171125D01*
X72686832Y-118052610D01*
X72601850Y-117953983D01*
X72492601Y-117883172D01*
X72367870Y-117845870D01*
X72358894Y-117845815D01*
X72358893Y-117845815D01*
X72309508Y-117845513D01*
X72237683Y-117845074D01*
X72231960Y-117846710D01*
X72163257Y-117836364D01*
X72109912Y-117789514D01*
X72090365Y-117721262D01*
X72110821Y-117653276D01*
X72121106Y-117639628D01*
X72416409Y-117298649D01*
X72195931Y-117044393D01*
X71585183Y-116340075D01*
X71555650Y-116275390D01*
X71541991Y-116180015D01*
X71540718Y-116171125D01*
X71486832Y-116052610D01*
X71401850Y-115953983D01*
X71292601Y-115883172D01*
X71283999Y-115880600D01*
X71283998Y-115880599D01*
X71187792Y-115851828D01*
X71128701Y-115813659D01*
X70320965Y-114882175D01*
X70291448Y-114817605D01*
X70301526Y-114747328D01*
X70320942Y-114717107D01*
X71467291Y-113394390D01*
X72240860Y-113394390D01*
X72242024Y-113403292D01*
X72242024Y-113403295D01*
X72256577Y-113514582D01*
X72257741Y-113523481D01*
X72310174Y-113642645D01*
X72393946Y-113742303D01*
X72401414Y-113747274D01*
X72401415Y-113747275D01*
X72494850Y-113809472D01*
X72494853Y-113809473D01*
X72502320Y-113814444D01*
X72510887Y-113817120D01*
X72510888Y-113817121D01*
X72532171Y-113823770D01*
X72626587Y-113853267D01*
X72635560Y-113853431D01*
X72635563Y-113853432D01*
X72692790Y-113854481D01*
X72756755Y-113855653D01*
X72808917Y-113841432D01*
X72873701Y-113823770D01*
X72873703Y-113823769D01*
X72882360Y-113821409D01*
X72993306Y-113753288D01*
X73080672Y-113656767D01*
X73137437Y-113539604D01*
X73159037Y-113411219D01*
X73159174Y-113400000D01*
X73140718Y-113271125D01*
X73086832Y-113152610D01*
X73001850Y-113053983D01*
X72892601Y-112983172D01*
X72767870Y-112945870D01*
X72758894Y-112945815D01*
X72758893Y-112945815D01*
X72705678Y-112945490D01*
X72637683Y-112945074D01*
X72512505Y-112980850D01*
X72402400Y-113050321D01*
X72316219Y-113147903D01*
X72260890Y-113265751D01*
X72240860Y-113394390D01*
X71467291Y-113394390D01*
X72404193Y-112313344D01*
X72404194Y-112313343D01*
X72416058Y-112299653D01*
X70430898Y-110007222D01*
X70401426Y-109942634D01*
X70411552Y-109872363D01*
X70458061Y-109818722D01*
X70526169Y-109798741D01*
X74522349Y-109799371D01*
G37*
%TD.AperFunction*%
%TD*%
%TA.AperFunction,Conductor*%
%TO.N,/ELEC11*%
G36*
X69258552Y-109819549D02*
G01*
X69285595Y-109842958D01*
X71346055Y-112216608D01*
X71375606Y-112281163D01*
X71365564Y-112351446D01*
X71346122Y-112381724D01*
X69250448Y-114799837D01*
X69256629Y-114806968D01*
X70645187Y-116408892D01*
X70665306Y-116440675D01*
X70710174Y-116542645D01*
X70793946Y-116642303D01*
X70801414Y-116647274D01*
X70801415Y-116647275D01*
X70902320Y-116714444D01*
X70901352Y-116715898D01*
X70930628Y-116738194D01*
X71345885Y-117217259D01*
X71375389Y-117281835D01*
X71365298Y-117352111D01*
X71345874Y-117382330D01*
X69334125Y-119702542D01*
X69274386Y-119740907D01*
X69238926Y-119746000D01*
X65726000Y-119746000D01*
X65657879Y-119725998D01*
X65611386Y-119672342D01*
X65600000Y-119620000D01*
X65600000Y-109925984D01*
X65620002Y-109857863D01*
X65673658Y-109811370D01*
X65725982Y-109799984D01*
X69190428Y-109799555D01*
X69258552Y-109819549D01*
G37*
%TD.AperFunction*%
%TD*%
%TA.AperFunction,Conductor*%
%TO.N,/ELEC1*%
G36*
X122522954Y-109799710D02*
G01*
X122591071Y-109819723D01*
X122618085Y-109843113D01*
X124678559Y-112216779D01*
X124708110Y-112281334D01*
X124698068Y-112351617D01*
X124678625Y-112381897D01*
X123763433Y-113437899D01*
X123703704Y-113476277D01*
X123632707Y-113476271D01*
X123572765Y-113437626D01*
X123558338Y-113420883D01*
X123449089Y-113350072D01*
X123324358Y-113312770D01*
X123315382Y-113312715D01*
X123315381Y-113312715D01*
X123262166Y-113312390D01*
X123194171Y-113311974D01*
X123068993Y-113347750D01*
X122958888Y-113417221D01*
X122872707Y-113514803D01*
X122868892Y-113522928D01*
X122868891Y-113522930D01*
X122821193Y-113624525D01*
X122817378Y-113632651D01*
X122797348Y-113761290D01*
X122798512Y-113770192D01*
X122798512Y-113770195D01*
X122813065Y-113881482D01*
X122814229Y-113890381D01*
X122866662Y-114009545D01*
X122950434Y-114109203D01*
X122957904Y-114114176D01*
X122957908Y-114114179D01*
X122977952Y-114127522D01*
X123023574Y-114181920D01*
X123032544Y-114252347D01*
X123003349Y-114314929D01*
X122695886Y-114669699D01*
X122695649Y-114669972D01*
X122635920Y-114708350D01*
X122564923Y-114708344D01*
X122504981Y-114669700D01*
X122491438Y-114653983D01*
X122382189Y-114583172D01*
X122257458Y-114545870D01*
X122248482Y-114545815D01*
X122248481Y-114545815D01*
X122195266Y-114545490D01*
X122127271Y-114545074D01*
X122002093Y-114580850D01*
X121891988Y-114650321D01*
X121805807Y-114747903D01*
X121750478Y-114865751D01*
X121730448Y-114994390D01*
X121731612Y-115003292D01*
X121731612Y-115003295D01*
X121746165Y-115114582D01*
X121747329Y-115123481D01*
X121799762Y-115242645D01*
X121883534Y-115342303D01*
X121891002Y-115347274D01*
X121891003Y-115347275D01*
X121984438Y-115409472D01*
X121984441Y-115409473D01*
X121991908Y-115414444D01*
X122000475Y-115417120D01*
X122000476Y-115417121D01*
X122021759Y-115423770D01*
X122116175Y-115453267D01*
X122125148Y-115453431D01*
X122125151Y-115453432D01*
X122182378Y-115454481D01*
X122246343Y-115455653D01*
X122298505Y-115441432D01*
X122363289Y-115423770D01*
X122363291Y-115423769D01*
X122371948Y-115421409D01*
X122482894Y-115353288D01*
X122488918Y-115346633D01*
X122564232Y-115263427D01*
X122564233Y-115263426D01*
X122570260Y-115256767D01*
X122627025Y-115139604D01*
X122627274Y-115138127D01*
X122664933Y-115082431D01*
X122730185Y-115054454D01*
X122800204Y-115066195D01*
X122840410Y-115097027D01*
X124453500Y-116957984D01*
X124678389Y-117217430D01*
X124707893Y-117282006D01*
X124697802Y-117352282D01*
X124678378Y-117382501D01*
X122666777Y-119702542D01*
X122607038Y-119740907D01*
X122571578Y-119746000D01*
X118573594Y-119746000D01*
X118505473Y-119725998D01*
X118458980Y-119672342D01*
X118448876Y-119602068D01*
X118478348Y-119537513D01*
X119153456Y-118757984D01*
X119468345Y-118394390D01*
X120963548Y-118394390D01*
X120964712Y-118403292D01*
X120964712Y-118403295D01*
X120979265Y-118514582D01*
X120980429Y-118523481D01*
X121032862Y-118642645D01*
X121116634Y-118742303D01*
X121124102Y-118747274D01*
X121124103Y-118747275D01*
X121217538Y-118809472D01*
X121217541Y-118809473D01*
X121225008Y-118814444D01*
X121233575Y-118817120D01*
X121233576Y-118817121D01*
X121254859Y-118823770D01*
X121349275Y-118853267D01*
X121358248Y-118853431D01*
X121358251Y-118853432D01*
X121415478Y-118854481D01*
X121479443Y-118855653D01*
X121531605Y-118841432D01*
X121596389Y-118823770D01*
X121596391Y-118823769D01*
X121605048Y-118821409D01*
X121715994Y-118753288D01*
X121803360Y-118656767D01*
X121860125Y-118539604D01*
X121881725Y-118411219D01*
X121881862Y-118400000D01*
X121863406Y-118271125D01*
X121809520Y-118152610D01*
X121724538Y-118053983D01*
X121615289Y-117983172D01*
X121490558Y-117945870D01*
X121481582Y-117945815D01*
X121481581Y-117945815D01*
X121428366Y-117945490D01*
X121360371Y-117945074D01*
X121235193Y-117980850D01*
X121125088Y-118050321D01*
X121038907Y-118147903D01*
X120983578Y-118265751D01*
X120963548Y-118394390D01*
X119468345Y-118394390D01*
X120417014Y-117298988D01*
X120378468Y-117254536D01*
X120348952Y-117189969D01*
X120359030Y-117119691D01*
X120405503Y-117066018D01*
X120473616Y-117045991D01*
X120498644Y-117049804D01*
X120498749Y-117049155D01*
X120507605Y-117050590D01*
X120516175Y-117053267D01*
X120525148Y-117053431D01*
X120525151Y-117053432D01*
X120582378Y-117054481D01*
X120646343Y-117055653D01*
X120698505Y-117041432D01*
X120763289Y-117023770D01*
X120763291Y-117023769D01*
X120771948Y-117021409D01*
X120882894Y-116953288D01*
X120970260Y-116856767D01*
X121027025Y-116739604D01*
X121048625Y-116611219D01*
X121048762Y-116600000D01*
X121047959Y-116594390D01*
X121730448Y-116594390D01*
X121731612Y-116603292D01*
X121731612Y-116603295D01*
X121746165Y-116714582D01*
X121747329Y-116723481D01*
X121799762Y-116842645D01*
X121883534Y-116942303D01*
X121891002Y-116947274D01*
X121891003Y-116947275D01*
X121984438Y-117009472D01*
X121984441Y-117009473D01*
X121991908Y-117014444D01*
X122000475Y-117017120D01*
X122000476Y-117017121D01*
X122021759Y-117023770D01*
X122116175Y-117053267D01*
X122125148Y-117053431D01*
X122125151Y-117053432D01*
X122182378Y-117054481D01*
X122246343Y-117055653D01*
X122298505Y-117041432D01*
X122363289Y-117023770D01*
X122363291Y-117023769D01*
X122371948Y-117021409D01*
X122482894Y-116953288D01*
X122570260Y-116856767D01*
X122627025Y-116739604D01*
X122648625Y-116611219D01*
X122648762Y-116600000D01*
X122630306Y-116471125D01*
X122576420Y-116352610D01*
X122491438Y-116253983D01*
X122382189Y-116183172D01*
X122257458Y-116145870D01*
X122248482Y-116145815D01*
X122248481Y-116145815D01*
X122195266Y-116145490D01*
X122127271Y-116145074D01*
X122002093Y-116180850D01*
X121891988Y-116250321D01*
X121805807Y-116347903D01*
X121750478Y-116465751D01*
X121730448Y-116594390D01*
X121047959Y-116594390D01*
X121030306Y-116471125D01*
X120976420Y-116352610D01*
X120891438Y-116253983D01*
X120782189Y-116183172D01*
X120657458Y-116145870D01*
X120648482Y-116145815D01*
X120648481Y-116145815D01*
X120595266Y-116145490D01*
X120527271Y-116145074D01*
X120402093Y-116180850D01*
X120291988Y-116250321D01*
X120205807Y-116347903D01*
X120150478Y-116465751D01*
X120130448Y-116594390D01*
X120132649Y-116611219D01*
X120133742Y-116619577D01*
X120122742Y-116689717D01*
X120075569Y-116742775D01*
X120007198Y-116761906D01*
X119939338Y-116741036D01*
X119913616Y-116718467D01*
X119211329Y-115908588D01*
X119181813Y-115844020D01*
X119181041Y-115815282D01*
X119181725Y-115811219D01*
X119181862Y-115800000D01*
X119163406Y-115671125D01*
X119109520Y-115552610D01*
X119024538Y-115453983D01*
X118915289Y-115383172D01*
X118790558Y-115345870D01*
X118781583Y-115345815D01*
X118781582Y-115345815D01*
X118780994Y-115345812D01*
X118780059Y-115345806D01*
X118778613Y-115345371D01*
X118772702Y-115344488D01*
X118772829Y-115343635D01*
X118712062Y-115325389D01*
X118685636Y-115302357D01*
X118418583Y-114994390D01*
X120130448Y-114994390D01*
X120131612Y-115003292D01*
X120131612Y-115003295D01*
X120146165Y-115114582D01*
X120147329Y-115123481D01*
X120199762Y-115242645D01*
X120283534Y-115342303D01*
X120291002Y-115347274D01*
X120291003Y-115347275D01*
X120384438Y-115409472D01*
X120384441Y-115409473D01*
X120391908Y-115414444D01*
X120400475Y-115417120D01*
X120400476Y-115417121D01*
X120421759Y-115423770D01*
X120516175Y-115453267D01*
X120525148Y-115453431D01*
X120525151Y-115453432D01*
X120582378Y-115454481D01*
X120646343Y-115455653D01*
X120698505Y-115441432D01*
X120763289Y-115423770D01*
X120763291Y-115423769D01*
X120771948Y-115421409D01*
X120882894Y-115353288D01*
X120888918Y-115346633D01*
X120964232Y-115263427D01*
X120964233Y-115263426D01*
X120970260Y-115256767D01*
X121023110Y-115147686D01*
X121023110Y-115147684D01*
X121027025Y-115139604D01*
X121048625Y-115011219D01*
X121048762Y-115000000D01*
X121030306Y-114871125D01*
X120976420Y-114752610D01*
X120891438Y-114653983D01*
X120782189Y-114583172D01*
X120657458Y-114545870D01*
X120648482Y-114545815D01*
X120648481Y-114545815D01*
X120595266Y-114545490D01*
X120527271Y-114545074D01*
X120402093Y-114580850D01*
X120291988Y-114650321D01*
X120205807Y-114747903D01*
X120150478Y-114865751D01*
X120130448Y-114994390D01*
X118418583Y-114994390D01*
X118321570Y-114882514D01*
X118292053Y-114817944D01*
X118302131Y-114747667D01*
X118321547Y-114717446D01*
X119034859Y-113894390D01*
X119663548Y-113894390D01*
X119664712Y-113903292D01*
X119664712Y-113903295D01*
X119679265Y-114014582D01*
X119680429Y-114023481D01*
X119732862Y-114142645D01*
X119816634Y-114242303D01*
X119824102Y-114247274D01*
X119824103Y-114247275D01*
X119917538Y-114309472D01*
X119917541Y-114309473D01*
X119925008Y-114314444D01*
X119933575Y-114317120D01*
X119933576Y-114317121D01*
X119954859Y-114323770D01*
X120049275Y-114353267D01*
X120058248Y-114353431D01*
X120058251Y-114353432D01*
X120115478Y-114354481D01*
X120179443Y-114355653D01*
X120231605Y-114341432D01*
X120296389Y-114323770D01*
X120296391Y-114323769D01*
X120305048Y-114321409D01*
X120415994Y-114253288D01*
X120443814Y-114222553D01*
X120497332Y-114163427D01*
X120497333Y-114163426D01*
X120503360Y-114156767D01*
X120521083Y-114120188D01*
X120556210Y-114047685D01*
X120556210Y-114047684D01*
X120560125Y-114039604D01*
X120581725Y-113911219D01*
X120581862Y-113900000D01*
X120563406Y-113771125D01*
X120509520Y-113652610D01*
X120424538Y-113553983D01*
X120315289Y-113483172D01*
X120190558Y-113445870D01*
X120181582Y-113445815D01*
X120181581Y-113445815D01*
X120128366Y-113445490D01*
X120060371Y-113445074D01*
X119935193Y-113480850D01*
X119825088Y-113550321D01*
X119738907Y-113647903D01*
X119683578Y-113765751D01*
X119682197Y-113774620D01*
X119665558Y-113881482D01*
X119663548Y-113894390D01*
X119034859Y-113894390D01*
X120404798Y-112313683D01*
X120404799Y-112313682D01*
X120416663Y-112299992D01*
X118431503Y-110007561D01*
X118402031Y-109942973D01*
X118412157Y-109872702D01*
X118458666Y-109819061D01*
X118526774Y-109799080D01*
X122522954Y-109799710D01*
G37*
%TD.AperFunction*%
%TD*%
%TA.AperFunction,Conductor*%
%TO.N,/ELEC5*%
G36*
X97514109Y-109798157D02*
G01*
X97582227Y-109818170D01*
X97610539Y-109843081D01*
X97688168Y-109935431D01*
X97688174Y-109935436D01*
X97693946Y-109942303D01*
X97701414Y-109947274D01*
X97701415Y-109947275D01*
X97794850Y-110009472D01*
X97794853Y-110009473D01*
X97802320Y-110014444D01*
X97810887Y-110017120D01*
X97810888Y-110017121D01*
X97832171Y-110023770D01*
X97926587Y-110053267D01*
X97935560Y-110053431D01*
X97935563Y-110053432D01*
X97992790Y-110054481D01*
X98056755Y-110055653D01*
X98108917Y-110041432D01*
X98173701Y-110023770D01*
X98173703Y-110023769D01*
X98182360Y-110021409D01*
X98293306Y-109953288D01*
X98380672Y-109856767D01*
X98382742Y-109852494D01*
X98435780Y-109808562D01*
X98485581Y-109798310D01*
X100681229Y-109798657D01*
X101190112Y-109798737D01*
X101258229Y-109818750D01*
X101285243Y-109842140D01*
X103345717Y-112215805D01*
X103375268Y-112280360D01*
X103365226Y-112350643D01*
X103345783Y-112380923D01*
X103216823Y-112529725D01*
X103156231Y-112568353D01*
X103112505Y-112580850D01*
X103002400Y-112650321D01*
X102996458Y-112657049D01*
X102996457Y-112657050D01*
X102969349Y-112687744D01*
X102916219Y-112747903D01*
X102860890Y-112865751D01*
X102859509Y-112874618D01*
X102859509Y-112874619D01*
X102852287Y-112921002D01*
X102823004Y-112984137D01*
X101295472Y-114746694D01*
X101250110Y-114799035D01*
X101256291Y-114806166D01*
X103345547Y-117216457D01*
X103375051Y-117281033D01*
X103364960Y-117351309D01*
X103345536Y-117381528D01*
X101333092Y-119702542D01*
X101273353Y-119740907D01*
X101237893Y-119746000D01*
X97239909Y-119746000D01*
X97171788Y-119725998D01*
X97125295Y-119672342D01*
X97115191Y-119602068D01*
X97144662Y-119537515D01*
X99084172Y-117298015D01*
X97833285Y-115855488D01*
X97433444Y-115394390D01*
X98840860Y-115394390D01*
X98842024Y-115403292D01*
X98842024Y-115403295D01*
X98856577Y-115514582D01*
X98857741Y-115523481D01*
X98910174Y-115642645D01*
X98993946Y-115742303D01*
X99001414Y-115747274D01*
X99001415Y-115747275D01*
X99094850Y-115809472D01*
X99094853Y-115809473D01*
X99102320Y-115814444D01*
X99110887Y-115817120D01*
X99110888Y-115817121D01*
X99132171Y-115823770D01*
X99226587Y-115853267D01*
X99235560Y-115853431D01*
X99235563Y-115853432D01*
X99292790Y-115854481D01*
X99356755Y-115855653D01*
X99408917Y-115841432D01*
X99473701Y-115823770D01*
X99473703Y-115823769D01*
X99482360Y-115821409D01*
X99593306Y-115753288D01*
X99680672Y-115656767D01*
X99688988Y-115639604D01*
X99733522Y-115547685D01*
X99733522Y-115547684D01*
X99737437Y-115539604D01*
X99759037Y-115411219D01*
X99759174Y-115400000D01*
X99740718Y-115271125D01*
X99686832Y-115152610D01*
X99601850Y-115053983D01*
X99492601Y-114983172D01*
X99367870Y-114945870D01*
X99358894Y-114945815D01*
X99358893Y-114945815D01*
X99305678Y-114945490D01*
X99237683Y-114945074D01*
X99112505Y-114980850D01*
X99002400Y-115050321D01*
X98916219Y-115147903D01*
X98912404Y-115156028D01*
X98912403Y-115156030D01*
X98867060Y-115252610D01*
X98860890Y-115265751D01*
X98859509Y-115274620D01*
X98844483Y-115371125D01*
X98840860Y-115394390D01*
X97433444Y-115394390D01*
X96988728Y-114881541D01*
X96959211Y-114816972D01*
X96969289Y-114746694D01*
X96988705Y-114716473D01*
X97874506Y-113694390D01*
X98640860Y-113694390D01*
X98642024Y-113703292D01*
X98642024Y-113703295D01*
X98656577Y-113814582D01*
X98657741Y-113823481D01*
X98710174Y-113942645D01*
X98793946Y-114042303D01*
X98801414Y-114047274D01*
X98801415Y-114047275D01*
X98894850Y-114109472D01*
X98894853Y-114109473D01*
X98902320Y-114114444D01*
X98910887Y-114117120D01*
X98910888Y-114117121D01*
X98932171Y-114123770D01*
X99026587Y-114153267D01*
X99035560Y-114153431D01*
X99035563Y-114153432D01*
X99092790Y-114154481D01*
X99156755Y-114155653D01*
X99208917Y-114141432D01*
X99273701Y-114123770D01*
X99273703Y-114123769D01*
X99282360Y-114121409D01*
X99393306Y-114053288D01*
X99480672Y-113956767D01*
X99537437Y-113839604D01*
X99559037Y-113711219D01*
X99559174Y-113700000D01*
X99540718Y-113571125D01*
X99486832Y-113452610D01*
X99401850Y-113353983D01*
X99292601Y-113283172D01*
X99167870Y-113245870D01*
X99158894Y-113245815D01*
X99158893Y-113245815D01*
X99105678Y-113245490D01*
X99037683Y-113245074D01*
X98912505Y-113280850D01*
X98802400Y-113350321D01*
X98716219Y-113447903D01*
X98660890Y-113565751D01*
X98640860Y-113694390D01*
X97874506Y-113694390D01*
X99071956Y-112312710D01*
X99071957Y-112312709D01*
X99083821Y-112299019D01*
X99011761Y-112215805D01*
X97098662Y-110006589D01*
X97069189Y-109941999D01*
X97079315Y-109871728D01*
X97125824Y-109818087D01*
X97193930Y-109798107D01*
X97514109Y-109798157D01*
G37*
%TD.AperFunction*%
%TD*%
%TA.AperFunction,Conductor*%
%TO.N,/ELEC3*%
G36*
X111855408Y-109799416D02*
G01*
X111923525Y-109819429D01*
X111950539Y-109842819D01*
X114011013Y-112216485D01*
X114040564Y-112281040D01*
X114030522Y-112351323D01*
X114011080Y-112381601D01*
X111915406Y-114799714D01*
X111921587Y-114806845D01*
X114010843Y-117217136D01*
X114040347Y-117281712D01*
X114030256Y-117351988D01*
X114010832Y-117382207D01*
X113163438Y-118359532D01*
X113103699Y-118397897D01*
X113032703Y-118397875D01*
X112972989Y-118359473D01*
X112943516Y-118294883D01*
X112948205Y-118238678D01*
X112948522Y-118237684D01*
X112952437Y-118229604D01*
X112974037Y-118101219D01*
X112974174Y-118090000D01*
X112955718Y-117961125D01*
X112901832Y-117842610D01*
X112816850Y-117743983D01*
X112707601Y-117673172D01*
X112582870Y-117635870D01*
X112573894Y-117635815D01*
X112573893Y-117635815D01*
X112520678Y-117635490D01*
X112452683Y-117635074D01*
X112327505Y-117670850D01*
X112217400Y-117740321D01*
X112131219Y-117837903D01*
X112075890Y-117955751D01*
X112055860Y-118084390D01*
X112057024Y-118093292D01*
X112057024Y-118093295D01*
X112071577Y-118204582D01*
X112072741Y-118213481D01*
X112125174Y-118332645D01*
X112208946Y-118432303D01*
X112216414Y-118437274D01*
X112216415Y-118437275D01*
X112309850Y-118499472D01*
X112309853Y-118499473D01*
X112317320Y-118504444D01*
X112325887Y-118507120D01*
X112325888Y-118507121D01*
X112347171Y-118513770D01*
X112441587Y-118543267D01*
X112450560Y-118543431D01*
X112450563Y-118543432D01*
X112507790Y-118544481D01*
X112571755Y-118545653D01*
X112623917Y-118531432D01*
X112688701Y-118513770D01*
X112688703Y-118513769D01*
X112697360Y-118511409D01*
X112715745Y-118500121D01*
X112784261Y-118481523D01*
X112851956Y-118502919D01*
X112897337Y-118557519D01*
X112905996Y-118627985D01*
X112876872Y-118690038D01*
X111998976Y-119702542D01*
X111939237Y-119740907D01*
X111903777Y-119746000D01*
X107905793Y-119746000D01*
X107837672Y-119725998D01*
X107791179Y-119672342D01*
X107781075Y-119602068D01*
X107810546Y-119537515D01*
X109749468Y-117298694D01*
X108146885Y-115450589D01*
X107751292Y-114994390D01*
X109340860Y-114994390D01*
X109342024Y-115003292D01*
X109342024Y-115003295D01*
X109356577Y-115114582D01*
X109357741Y-115123481D01*
X109410174Y-115242645D01*
X109493946Y-115342303D01*
X109501414Y-115347274D01*
X109501415Y-115347275D01*
X109594850Y-115409472D01*
X109594853Y-115409473D01*
X109602320Y-115414444D01*
X109610887Y-115417120D01*
X109610888Y-115417121D01*
X109632171Y-115423770D01*
X109726587Y-115453267D01*
X109735560Y-115453431D01*
X109735563Y-115453432D01*
X109792790Y-115454481D01*
X109856755Y-115455653D01*
X109908917Y-115441432D01*
X109973701Y-115423770D01*
X109973703Y-115423769D01*
X109982360Y-115421409D01*
X110093306Y-115353288D01*
X110180672Y-115256767D01*
X110237437Y-115139604D01*
X110259037Y-115011219D01*
X110259174Y-115000000D01*
X110240718Y-114871125D01*
X110186832Y-114752610D01*
X110101850Y-114653983D01*
X109992601Y-114583172D01*
X109867870Y-114545870D01*
X109858894Y-114545815D01*
X109858893Y-114545815D01*
X109805678Y-114545490D01*
X109737683Y-114545074D01*
X109612505Y-114580850D01*
X109502400Y-114650321D01*
X109416219Y-114747903D01*
X109412404Y-114756028D01*
X109412403Y-114756030D01*
X109364705Y-114857625D01*
X109360890Y-114865751D01*
X109340860Y-114994390D01*
X107751292Y-114994390D01*
X107654024Y-114882220D01*
X107624507Y-114817651D01*
X107634585Y-114747373D01*
X107654001Y-114717152D01*
X109737252Y-112313389D01*
X109737253Y-112313388D01*
X109749117Y-112299698D01*
X107763957Y-110007267D01*
X107734485Y-109942679D01*
X107744611Y-109872408D01*
X107791120Y-109818767D01*
X107859228Y-109798786D01*
X111855408Y-109799416D01*
G37*
%TD.AperFunction*%
%TD*%
%TA.AperFunction,Conductor*%
%TO.N,/ELEC4*%
G36*
X106522062Y-109799497D02*
G01*
X106590179Y-109819510D01*
X106617193Y-109842900D01*
X108677667Y-112216566D01*
X108707218Y-112281121D01*
X108697176Y-112351404D01*
X108677734Y-112381682D01*
X106582060Y-114799795D01*
X106588241Y-114806926D01*
X108677497Y-117217217D01*
X108707001Y-117281793D01*
X108696910Y-117352069D01*
X108677486Y-117382288D01*
X106665701Y-119702542D01*
X106605962Y-119740907D01*
X106570502Y-119746000D01*
X102572517Y-119746000D01*
X102504396Y-119725998D01*
X102457903Y-119672342D01*
X102447799Y-119602068D01*
X102477269Y-119537515D01*
X104416122Y-117298775D01*
X103072683Y-115749516D01*
X102851451Y-115494390D01*
X103640860Y-115494390D01*
X103642024Y-115503292D01*
X103642024Y-115503295D01*
X103656577Y-115614582D01*
X103657741Y-115623481D01*
X103710174Y-115742645D01*
X103793946Y-115842303D01*
X103801414Y-115847274D01*
X103801415Y-115847275D01*
X103894850Y-115909472D01*
X103894853Y-115909473D01*
X103902320Y-115914444D01*
X103910887Y-115917120D01*
X103910888Y-115917121D01*
X103932171Y-115923770D01*
X104026587Y-115953267D01*
X104035560Y-115953431D01*
X104035563Y-115953432D01*
X104092790Y-115954481D01*
X104156755Y-115955653D01*
X104208917Y-115941432D01*
X104273701Y-115923770D01*
X104273703Y-115923769D01*
X104282360Y-115921409D01*
X104393306Y-115853288D01*
X104480672Y-115756767D01*
X104537437Y-115639604D01*
X104559037Y-115511219D01*
X104559174Y-115500000D01*
X104540718Y-115371125D01*
X104486832Y-115252610D01*
X104401850Y-115153983D01*
X104292601Y-115083172D01*
X104167870Y-115045870D01*
X104158894Y-115045815D01*
X104158893Y-115045815D01*
X104105678Y-115045490D01*
X104037683Y-115045074D01*
X103912505Y-115080850D01*
X103802400Y-115150321D01*
X103716219Y-115247903D01*
X103660890Y-115365751D01*
X103640860Y-115494390D01*
X102851451Y-115494390D01*
X102320678Y-114882301D01*
X102291161Y-114817732D01*
X102301239Y-114747454D01*
X102320655Y-114717233D01*
X103406635Y-113464172D01*
X103468713Y-113425130D01*
X103482360Y-113421409D01*
X103593306Y-113353288D01*
X103620024Y-113323770D01*
X103674644Y-113263427D01*
X103674645Y-113263426D01*
X103680672Y-113256767D01*
X103737437Y-113139604D01*
X103743495Y-113103597D01*
X103772532Y-113041982D01*
X103899757Y-112895183D01*
X103925571Y-112865398D01*
X103985299Y-112827020D01*
X104056296Y-112827026D01*
X104116019Y-112865415D01*
X104145723Y-112931581D01*
X104156577Y-113014582D01*
X104157741Y-113023481D01*
X104210174Y-113142645D01*
X104293946Y-113242303D01*
X104301414Y-113247274D01*
X104301415Y-113247275D01*
X104394850Y-113309472D01*
X104394853Y-113309473D01*
X104402320Y-113314444D01*
X104410887Y-113317120D01*
X104410888Y-113317121D01*
X104432171Y-113323770D01*
X104526587Y-113353267D01*
X104535560Y-113353431D01*
X104535563Y-113353432D01*
X104592790Y-113354481D01*
X104656755Y-113355653D01*
X104708917Y-113341432D01*
X104773701Y-113323770D01*
X104773703Y-113323769D01*
X104782360Y-113321409D01*
X104893306Y-113253288D01*
X104980672Y-113156767D01*
X104985073Y-113147685D01*
X105033522Y-113047685D01*
X105033522Y-113047684D01*
X105037437Y-113039604D01*
X105059037Y-112911219D01*
X105059174Y-112900000D01*
X105040718Y-112771125D01*
X104986832Y-112652610D01*
X104901850Y-112553983D01*
X104792601Y-112483172D01*
X104667870Y-112445870D01*
X104658894Y-112445815D01*
X104658893Y-112445815D01*
X104630843Y-112445644D01*
X104539094Y-112445083D01*
X104471098Y-112424665D01*
X104424934Y-112370726D01*
X104420024Y-112335031D01*
X104415768Y-112335643D01*
X104411348Y-112304882D01*
X104415771Y-112299779D01*
X102430611Y-110007348D01*
X102401139Y-109942760D01*
X102411265Y-109872489D01*
X102457774Y-109818848D01*
X102525882Y-109798867D01*
X106522062Y-109799497D01*
G37*
%TD.AperFunction*%
%TD*%
%TA.AperFunction,Conductor*%
%TO.N,/ELEC0*%
G36*
X129274016Y-109799112D02*
G01*
X129342133Y-109819122D01*
X129388620Y-109872783D01*
X129400000Y-109925112D01*
X129400000Y-119620000D01*
X129379998Y-119688121D01*
X129326342Y-119734614D01*
X129274000Y-119746000D01*
X123906057Y-119746000D01*
X123837936Y-119725998D01*
X123791443Y-119672342D01*
X123781339Y-119602068D01*
X123810811Y-119537513D01*
X125738131Y-117312090D01*
X125738132Y-117312088D01*
X125749990Y-117298396D01*
X123654546Y-114881922D01*
X123625029Y-114817353D01*
X123635107Y-114747075D01*
X123654523Y-114716854D01*
X125737774Y-112313091D01*
X125737775Y-112313090D01*
X125749639Y-112299400D01*
X125743457Y-112292261D01*
X123764471Y-110006959D01*
X123734998Y-109942369D01*
X123745124Y-109872098D01*
X123791633Y-109818457D01*
X123859735Y-109798476D01*
X129274016Y-109799112D01*
G37*
%TD.AperFunction*%
%TD*%
%TA.AperFunction,Conductor*%
%TO.N,/ELEC2*%
G36*
X117189013Y-109799202D02*
G01*
X117257130Y-109819215D01*
X117284144Y-109842605D01*
X119344618Y-112216271D01*
X119374169Y-112280826D01*
X119364127Y-112351109D01*
X119344685Y-112381387D01*
X117249011Y-114799500D01*
X117255192Y-114806631D01*
X119344448Y-117216922D01*
X119373952Y-117281498D01*
X119363861Y-117351774D01*
X119344437Y-117381993D01*
X117332396Y-119702542D01*
X117272657Y-119740907D01*
X117237197Y-119746000D01*
X113239213Y-119746000D01*
X113171092Y-119725998D01*
X113124599Y-119672342D01*
X113114495Y-119602068D01*
X113143967Y-119537513D01*
X115071213Y-117312174D01*
X115083073Y-117298480D01*
X114022962Y-116075956D01*
X112998368Y-114894390D01*
X115150448Y-114894390D01*
X115151612Y-114903292D01*
X115151612Y-114903295D01*
X115166165Y-115014582D01*
X115167329Y-115023481D01*
X115219762Y-115142645D01*
X115303534Y-115242303D01*
X115311002Y-115247274D01*
X115311003Y-115247275D01*
X115404438Y-115309472D01*
X115404441Y-115309473D01*
X115411908Y-115314444D01*
X115420475Y-115317120D01*
X115420476Y-115317121D01*
X115441759Y-115323770D01*
X115536175Y-115353267D01*
X115545148Y-115353431D01*
X115545151Y-115353432D01*
X115602378Y-115354481D01*
X115666343Y-115355653D01*
X115718505Y-115341432D01*
X115783289Y-115323770D01*
X115783291Y-115323769D01*
X115791948Y-115321409D01*
X115902894Y-115253288D01*
X115990260Y-115156767D01*
X116047025Y-115039604D01*
X116068625Y-114911219D01*
X116068762Y-114900000D01*
X116050306Y-114771125D01*
X115996420Y-114652610D01*
X115911438Y-114553983D01*
X115802189Y-114483172D01*
X115677458Y-114445870D01*
X115668482Y-114445815D01*
X115668481Y-114445815D01*
X115615266Y-114445490D01*
X115547271Y-114445074D01*
X115422093Y-114480850D01*
X115311988Y-114550321D01*
X115225807Y-114647903D01*
X115170478Y-114765751D01*
X115150448Y-114894390D01*
X112998368Y-114894390D01*
X112987629Y-114882006D01*
X112958112Y-114817437D01*
X112968190Y-114747159D01*
X112987606Y-114716938D01*
X115070857Y-112313175D01*
X115070858Y-112313174D01*
X115082722Y-112299484D01*
X113097562Y-110007053D01*
X113068090Y-109942465D01*
X113078216Y-109872194D01*
X113124725Y-109818553D01*
X113192833Y-109798572D01*
X117189013Y-109799202D01*
G37*
%TD.AperFunction*%
%TD*%
%TA.AperFunction,Conductor*%
%TO.N,/ELEC9*%
G36*
X79855581Y-109799532D02*
G01*
X79923698Y-109819545D01*
X79950712Y-109842935D01*
X82011186Y-112216601D01*
X82040737Y-112281156D01*
X82030695Y-112351439D01*
X82011253Y-112381717D01*
X79915579Y-114799830D01*
X79921760Y-114806961D01*
X82011016Y-117217252D01*
X82040520Y-117281828D01*
X82030429Y-117352104D01*
X82011005Y-117382323D01*
X79999250Y-119702542D01*
X79939511Y-119740907D01*
X79904051Y-119746000D01*
X75906067Y-119746000D01*
X75837946Y-119725998D01*
X75791453Y-119672342D01*
X75781349Y-119602068D01*
X75810820Y-119537514D01*
X77749641Y-117298810D01*
X75654197Y-114882336D01*
X75624680Y-114817767D01*
X75634758Y-114747489D01*
X75654174Y-114717268D01*
X77737425Y-112313505D01*
X77737426Y-112313504D01*
X77749290Y-112299814D01*
X75764130Y-110007383D01*
X75734658Y-109942795D01*
X75744784Y-109872524D01*
X75791293Y-109818883D01*
X75859401Y-109798902D01*
X79855581Y-109799532D01*
G37*
%TD.AperFunction*%
%TD*%
%TA.AperFunction,Conductor*%
%TO.N,/ELEC7*%
G36*
X90522098Y-109799539D02*
G01*
X90590215Y-109819552D01*
X90617229Y-109842942D01*
X92677703Y-112216608D01*
X92707254Y-112281163D01*
X92697212Y-112351446D01*
X92677770Y-112381724D01*
X90582096Y-114799837D01*
X90588277Y-114806968D01*
X92014254Y-116452061D01*
X92043980Y-116518252D01*
X92057741Y-116623481D01*
X92110174Y-116742645D01*
X92193946Y-116842303D01*
X92201414Y-116847274D01*
X92201415Y-116847275D01*
X92294850Y-116909472D01*
X92294853Y-116909473D01*
X92302320Y-116914444D01*
X92310887Y-116917120D01*
X92310888Y-116917121D01*
X92361987Y-116933085D01*
X92422735Y-116952063D01*
X92480371Y-116989801D01*
X92677533Y-117217259D01*
X92707037Y-117281835D01*
X92696946Y-117352111D01*
X92677522Y-117382330D01*
X90665773Y-119702542D01*
X90606034Y-119740907D01*
X90570574Y-119746000D01*
X86572590Y-119746000D01*
X86504469Y-119725998D01*
X86457976Y-119672342D01*
X86447872Y-119602068D01*
X86477343Y-119537514D01*
X88416158Y-117298817D01*
X86883800Y-115531696D01*
X86764735Y-115394390D01*
X89340860Y-115394390D01*
X89342024Y-115403292D01*
X89342024Y-115403295D01*
X89356577Y-115514582D01*
X89357741Y-115523481D01*
X89410174Y-115642645D01*
X89493946Y-115742303D01*
X89501414Y-115747274D01*
X89501415Y-115747275D01*
X89594850Y-115809472D01*
X89594853Y-115809473D01*
X89602320Y-115814444D01*
X89610887Y-115817120D01*
X89610888Y-115817121D01*
X89632171Y-115823770D01*
X89726587Y-115853267D01*
X89735560Y-115853431D01*
X89735563Y-115853432D01*
X89792790Y-115854481D01*
X89856755Y-115855653D01*
X89908917Y-115841432D01*
X89973701Y-115823770D01*
X89973703Y-115823769D01*
X89982360Y-115821409D01*
X90093306Y-115753288D01*
X90180672Y-115656767D01*
X90237437Y-115539604D01*
X90259037Y-115411219D01*
X90259174Y-115400000D01*
X90240718Y-115271125D01*
X90186832Y-115152610D01*
X90101850Y-115053983D01*
X89992601Y-114983172D01*
X89867870Y-114945870D01*
X89858894Y-114945815D01*
X89858893Y-114945815D01*
X89805678Y-114945490D01*
X89737683Y-114945074D01*
X89612505Y-114980850D01*
X89502400Y-115050321D01*
X89416219Y-115147903D01*
X89360890Y-115265751D01*
X89340860Y-115394390D01*
X86764735Y-115394390D01*
X86320714Y-114882343D01*
X86291197Y-114817774D01*
X86301275Y-114747496D01*
X86320691Y-114717275D01*
X88403942Y-112313512D01*
X88403943Y-112313511D01*
X88415807Y-112299821D01*
X86430647Y-110007390D01*
X86401175Y-109942802D01*
X86411301Y-109872531D01*
X86457810Y-109818890D01*
X86525918Y-109798909D01*
X90522098Y-109799539D01*
G37*
%TD.AperFunction*%
%TD*%
%TA.AperFunction,Conductor*%
%TO.N,/ELEC8*%
G36*
X85188754Y-109799530D02*
G01*
X85256871Y-109819543D01*
X85283885Y-109842933D01*
X87344359Y-112216599D01*
X87373910Y-112281154D01*
X87363868Y-112351437D01*
X87344426Y-112381715D01*
X85248752Y-114799828D01*
X85254933Y-114806959D01*
X87344189Y-117217250D01*
X87373693Y-117281826D01*
X87363602Y-117352102D01*
X87344178Y-117382321D01*
X85332421Y-119702542D01*
X85272682Y-119740907D01*
X85237222Y-119746000D01*
X81239238Y-119746000D01*
X81171117Y-119725998D01*
X81124624Y-119672342D01*
X81114520Y-119602068D01*
X81143992Y-119537513D01*
X83070954Y-117312502D01*
X83082814Y-117298808D01*
X80987370Y-114882334D01*
X80957853Y-114817765D01*
X80967931Y-114747487D01*
X80987347Y-114717266D01*
X83070598Y-112313503D01*
X83070599Y-112313502D01*
X83082463Y-112299812D01*
X81097303Y-110007381D01*
X81067831Y-109942793D01*
X81077957Y-109872522D01*
X81124466Y-109818881D01*
X81192574Y-109798900D01*
X85188754Y-109799530D01*
G37*
%TD.AperFunction*%
%TD*%
M02*
