M48
; DRILL file {KiCad (6.0.0)} date Sat Apr 23 22:24:31 2022
; FORMAT={-:-/ absolute / inch / decimal}
; #@! TF.CreationDate,2022-04-23T22:24:31+01:00
; #@! TF.GenerationSoftware,Kicad,Pcbnew,(6.0.0)
; #@! TF.FileFunction,MixedPlating,1,4
FMAT,2
INCH
; #@! TA.AperFunction,Plated,PTH,ViaDrill
T1C0.0079
; #@! TA.AperFunction,Plated,PTH,ViaDrill
T2C0.0157
; #@! TA.AperFunction,Plated,PTH,ComponentDrill
T3C0.0236
; #@! TA.AperFunction,Plated,PTH,ComponentDrill
T4C0.0335
%
G90
G05
T1
X2.6575Y-4.3346
X2.7205Y-4.2047
X2.7205Y-4.2913
X2.7992Y-4.5787
X2.8465Y-4.6575
X2.8583Y-4.3307
X2.8622Y-4.4646
X2.9331Y-4.2913
X2.9332Y-4.2047
X2.9961Y-3.2244
X2.9961Y-4.4646
X3.0098Y-3.6732
X3.0295Y-3.5197
X3.0748Y-4.3307
X3.1154Y-3.563
X3.1496Y-4.2066
X3.1496Y-4.2913
X3.1681Y-3.7047
X3.1863Y-3.6761
X3.2069Y-3.7126
X3.2156Y-3.6265
X3.2323Y-3.5354
X3.2323Y-3.6504
X3.2598Y-3.6496
X3.2598Y-3.7126
X3.2717Y-3.2205
X3.2835Y-4.3307
X3.2913Y-3.5
X3.3386Y-3.5949
X3.3386Y-3.6772
X3.3465Y-3.5
X3.3465Y-3.6457
X3.3543Y-3.2756
X3.3622Y-4.2913
X3.3625Y-4.2066
X3.4244Y-3.7047
X3.4803Y-3.6032
X3.4921Y-4.3307
X3.5197Y-3.6693
X3.5354Y-4.5433
X3.5512Y-3.4016
X3.5663Y-3.6126
X3.5748Y-4.2066
X3.5748Y-4.2913
X3.5787Y-3.4055
X3.5866Y-3.7008
X3.628Y-3.2167
X3.6417Y-4.5866
X3.6457Y-3.378
X3.6549Y-3.651
X3.6575Y-3.3346
X3.6575Y-3.6145
X3.6575Y-3.6811
X3.6614Y-3.5
X3.6796Y-3.2851
X3.6838Y-3.4534
X3.7008Y-4.3307
X3.7077Y-3.2167
X3.7094Y-3.5024
X3.7102Y-3.4659
X3.7244Y-3.266
X3.741Y-3.4309
X3.752Y-3.266
X3.7598Y-3.4528
X3.7608Y-3.5882
X3.7609Y-3.6415
X3.7632Y-3.5419
X3.7785Y-3.6969
X3.7874Y-4.2066
X3.7874Y-4.2913
X3.8031Y-4.644
X3.8056Y-3.6693
X3.8075Y-3.7098
X3.8465Y-3.2677
X3.8526Y-4.4186
X3.8543Y-3.1811
X3.8583Y-3.3023
X3.8583Y-4.315
X3.8683Y-3.4288
X3.8898Y-3.264
X3.9016Y-4.4764
X3.9091Y-3.7205
X3.9094Y-3.752
X3.9094Y-4.5433
X3.9134Y-4.3307
X3.9213Y-3.563
X3.9213Y-3.6024
X3.937Y-3.3228
X3.937Y-3.4537
X3.9535Y-3.6858
X3.9799Y-3.6733
X3.985Y-3.359
X3.985Y-3.4535
X4.0Y-3.5642
X4.0Y-4.2913
X4.0001Y-4.2066
X4.0118Y-3.6929
X4.0145Y-3.6647
X4.0197Y-3.3071
X4.0247Y-3.3652
X4.0412Y-3.4582
X4.0655Y-4.2795
X4.0669Y-4.4488
X4.0678Y-3.6207
X4.0846Y-3.4537
X4.0984Y-3.6654
X4.0984Y-3.6969
X4.0984Y-4.5472
X4.0994Y-3.1811
X4.1174Y-3.4533
X4.1181Y-4.4449
X4.1263Y-4.3304
X4.1511Y-3.6299
X4.1535Y-3.4567
X4.1575Y-3.1796
X4.1693Y-3.3887
X4.2047Y-3.4267
X4.2126Y-4.2913
X4.2126Y-4.2066
X4.2321Y-3.4368
X4.2432Y-3.3743
X4.2441Y-3.4094
X4.248Y-3.5433
X4.249Y-3.3268
X4.2559Y-3.6998
X4.2598Y-3.4606
X4.2756Y-3.1796
X4.2796Y-3.6312
X4.2845Y-3.5
X4.2874Y-3.465
X4.3008Y-3.7335
X4.3057Y-3.6811
X4.3071Y-3.6103
X4.3228Y-4.5276
X4.3291Y-3.5057
X4.3307Y-4.3307
X4.3346Y-3.6043
X4.3425Y-3.2677
X4.3425Y-3.4055
X4.3504Y-3.5678
X4.3593Y-3.4972
X4.362Y-3.6378
X4.3937Y-3.6378
X4.4055Y-3.5496
X4.4094Y-3.5866
X4.4291Y-4.2066
X4.4291Y-4.2913
X4.4297Y-4.6492
X4.437Y-3.5984
X4.4582Y-3.5605
X4.4606Y-3.1732
X4.4796Y-3.267
X4.4803Y-3.4055
X4.5079Y-3.5039
X4.525Y-3.7067
X4.5394Y-4.3307
X4.5472Y-3.1823
X4.5516Y-4.5236
X4.5595Y-3.5068
X4.5771Y-3.6165
X4.5787Y-3.3346
X4.5789Y-3.3034
X4.5809Y-3.4882
X4.5827Y-3.4173
X4.5991Y-3.5947
X4.6272Y-3.5819
X4.6275Y-3.1855
X4.6299Y-3.3632
X4.6417Y-4.2913
X4.642Y-4.2066
X4.647Y-3.205
X4.6741Y-4.5591
X4.7292Y-4.4843
X4.7476Y-4.5276
X4.7476Y-4.5906
X4.752Y-4.3307
X4.7559Y-3.4882
X4.7629Y-3.3715
X4.7804Y-4.6614
X4.8031Y-3.4069
X4.8106Y-4.5276
X4.8106Y-4.5906
X4.8341Y-3.4434
X4.8526Y-4.479
X4.8543Y-4.2913
X4.8546Y-4.2062
X4.8819Y-4.1772
X4.8937Y-3.4069
X4.9805Y-3.3896
X4.9882Y-4.3346
X5.0669Y-4.2087
X5.0669Y-4.2913
T2
X3.9666Y-3.5563
X4.9646Y-3.4606
T4
X4.7441Y-3.6181
X4.9409Y-3.6181
T3
G00X4.7047Y-3.7382
M15
G01X4.7047Y-3.7106
M16
G05
G00X4.9803Y-3.7106
M15
G01X4.9803Y-3.7382
M16
G05
T0
M30
