%TF.GenerationSoftware,KiCad,Pcbnew,(6.0.0)*%
%TF.CreationDate,2022-04-23T17:17:18+01:00*%
%TF.ProjectId,BM83 prog,424d3833-2070-4726-9f67-2e6b69636164,rev?*%
%TF.SameCoordinates,Original*%
%TF.FileFunction,Legend,Top*%
%TF.FilePolarity,Positive*%
%FSLAX46Y46*%
G04 Gerber Fmt 4.6, Leading zero omitted, Abs format (unit mm)*
G04 Created by KiCad (PCBNEW (6.0.0)) date 2022-04-23 17:17:18*
%MOMM*%
%LPD*%
G01*
G04 APERTURE LIST*
%ADD10C,0.150000*%
%ADD11C,0.120000*%
G04 APERTURE END LIST*
D10*
X136047380Y-85433333D02*
X135047380Y-85433333D01*
X135047380Y-85052380D01*
X135095000Y-84957142D01*
X135142619Y-84909523D01*
X135237857Y-84861904D01*
X135380714Y-84861904D01*
X135475952Y-84909523D01*
X135523571Y-84957142D01*
X135571190Y-85052380D01*
X135571190Y-85433333D01*
X135047380Y-84528571D02*
X136047380Y-84290476D01*
X135333095Y-84100000D01*
X136047380Y-83909523D01*
X135047380Y-83671428D01*
X136047380Y-82719047D02*
X135571190Y-83052380D01*
X136047380Y-83290476D02*
X135047380Y-83290476D01*
X135047380Y-82909523D01*
X135095000Y-82814285D01*
X135142619Y-82766666D01*
X135237857Y-82719047D01*
X135380714Y-82719047D01*
X135475952Y-82766666D01*
X135523571Y-82814285D01*
X135571190Y-82909523D01*
X135571190Y-83290476D01*
X138038333Y-85742857D02*
X137990714Y-85790476D01*
X137847857Y-85885714D01*
X137752619Y-85933333D01*
X137609761Y-85980952D01*
X137371666Y-86028571D01*
X137181190Y-86028571D01*
X136943095Y-85980952D01*
X136800238Y-85933333D01*
X136705000Y-85885714D01*
X136562142Y-85790476D01*
X136514523Y-85742857D01*
X137657380Y-85361904D02*
X136657380Y-85361904D01*
X137371666Y-85028571D01*
X136657380Y-84695238D01*
X137657380Y-84695238D01*
X137133571Y-83885714D02*
X137133571Y-84219047D01*
X137657380Y-84219047D02*
X136657380Y-84219047D01*
X136657380Y-83742857D01*
X137133571Y-83028571D02*
X137181190Y-82885714D01*
X137228809Y-82838095D01*
X137324047Y-82790476D01*
X137466904Y-82790476D01*
X137562142Y-82838095D01*
X137609761Y-82885714D01*
X137657380Y-82980952D01*
X137657380Y-83361904D01*
X136657380Y-83361904D01*
X136657380Y-83028571D01*
X136705000Y-82933333D01*
X136752619Y-82885714D01*
X136847857Y-82838095D01*
X136943095Y-82838095D01*
X137038333Y-82885714D01*
X137085952Y-82933333D01*
X137133571Y-83028571D01*
X137133571Y-83361904D01*
X138038333Y-82457142D02*
X137990714Y-82409523D01*
X137847857Y-82314285D01*
X137752619Y-82266666D01*
X137609761Y-82219047D01*
X137371666Y-82171428D01*
X137181190Y-82171428D01*
X136943095Y-82219047D01*
X136800238Y-82266666D01*
X136705000Y-82314285D01*
X136562142Y-82409523D01*
X136514523Y-82457142D01*
X125752380Y-86033333D02*
X126752380Y-85700000D01*
X125752380Y-85366666D01*
X126228571Y-84700000D02*
X126276190Y-84557142D01*
X126323809Y-84509523D01*
X126419047Y-84461904D01*
X126561904Y-84461904D01*
X126657142Y-84509523D01*
X126704761Y-84557142D01*
X126752380Y-84652380D01*
X126752380Y-85033333D01*
X125752380Y-85033333D01*
X125752380Y-84700000D01*
X125800000Y-84604761D01*
X125847619Y-84557142D01*
X125942857Y-84509523D01*
X126038095Y-84509523D01*
X126133333Y-84557142D01*
X126180952Y-84604761D01*
X126228571Y-84700000D01*
X126228571Y-85033333D01*
X125752380Y-84033333D02*
X126561904Y-84033333D01*
X126657142Y-83985714D01*
X126704761Y-83938095D01*
X126752380Y-83842857D01*
X126752380Y-83652380D01*
X126704761Y-83557142D01*
X126657142Y-83509523D01*
X126561904Y-83461904D01*
X125752380Y-83461904D01*
X126704761Y-83033333D02*
X126752380Y-82890476D01*
X126752380Y-82652380D01*
X126704761Y-82557142D01*
X126657142Y-82509523D01*
X126561904Y-82461904D01*
X126466666Y-82461904D01*
X126371428Y-82509523D01*
X126323809Y-82557142D01*
X126276190Y-82652380D01*
X126228571Y-82842857D01*
X126180952Y-82938095D01*
X126133333Y-82985714D01*
X126038095Y-83033333D01*
X125942857Y-83033333D01*
X125847619Y-82985714D01*
X125800000Y-82938095D01*
X125752380Y-82842857D01*
X125752380Y-82604761D01*
X125800000Y-82461904D01*
X133300000Y-85061904D02*
X133252380Y-85157142D01*
X133252380Y-85300000D01*
X133300000Y-85442857D01*
X133395238Y-85538095D01*
X133490476Y-85585714D01*
X133680952Y-85633333D01*
X133823809Y-85633333D01*
X134014285Y-85585714D01*
X134109523Y-85538095D01*
X134204761Y-85442857D01*
X134252380Y-85300000D01*
X134252380Y-85204761D01*
X134204761Y-85061904D01*
X134157142Y-85014285D01*
X133823809Y-85014285D01*
X133823809Y-85204761D01*
X134252380Y-84585714D02*
X133252380Y-84585714D01*
X134252380Y-84014285D01*
X133252380Y-84014285D01*
X134252380Y-83538095D02*
X133252380Y-83538095D01*
X133252380Y-83300000D01*
X133300000Y-83157142D01*
X133395238Y-83061904D01*
X133490476Y-83014285D01*
X133680952Y-82966666D01*
X133823809Y-82966666D01*
X134014285Y-83014285D01*
X134109523Y-83061904D01*
X134204761Y-83157142D01*
X134252380Y-83300000D01*
X134252380Y-83538095D01*
X129171428Y-86061904D02*
X129171428Y-85300000D01*
X129552380Y-85680952D02*
X128790476Y-85680952D01*
X128552380Y-84919047D02*
X128552380Y-84300000D01*
X128933333Y-84633333D01*
X128933333Y-84490476D01*
X128980952Y-84395238D01*
X129028571Y-84347619D01*
X129123809Y-84300000D01*
X129361904Y-84300000D01*
X129457142Y-84347619D01*
X129504761Y-84395238D01*
X129552380Y-84490476D01*
X129552380Y-84776190D01*
X129504761Y-84871428D01*
X129457142Y-84919047D01*
X128552380Y-84014285D02*
X129552380Y-83680952D01*
X128552380Y-83347619D01*
X128552380Y-83109523D02*
X128552380Y-82490476D01*
X128933333Y-82823809D01*
X128933333Y-82680952D01*
X128980952Y-82585714D01*
X129028571Y-82538095D01*
X129123809Y-82490476D01*
X129361904Y-82490476D01*
X129457142Y-82538095D01*
X129504761Y-82585714D01*
X129552380Y-82680952D01*
X129552380Y-82966666D01*
X129504761Y-83061904D01*
X129457142Y-83109523D01*
X131571428Y-86061904D02*
X131571428Y-85300000D01*
X131952380Y-85680952D02*
X131190476Y-85680952D01*
X131952380Y-84300000D02*
X131952380Y-84871428D01*
X131952380Y-84585714D02*
X130952380Y-84585714D01*
X131095238Y-84680952D01*
X131190476Y-84776190D01*
X131238095Y-84871428D01*
X130952380Y-84014285D02*
X131952380Y-83680952D01*
X130952380Y-83347619D01*
X131380952Y-82871428D02*
X131333333Y-82966666D01*
X131285714Y-83014285D01*
X131190476Y-83061904D01*
X131142857Y-83061904D01*
X131047619Y-83014285D01*
X131000000Y-82966666D01*
X130952380Y-82871428D01*
X130952380Y-82680952D01*
X131000000Y-82585714D01*
X131047619Y-82538095D01*
X131142857Y-82490476D01*
X131190476Y-82490476D01*
X131285714Y-82538095D01*
X131333333Y-82585714D01*
X131380952Y-82680952D01*
X131380952Y-82871428D01*
X131428571Y-82966666D01*
X131476190Y-83014285D01*
X131571428Y-83061904D01*
X131761904Y-83061904D01*
X131857142Y-83014285D01*
X131904761Y-82966666D01*
X131952380Y-82871428D01*
X131952380Y-82680952D01*
X131904761Y-82585714D01*
X131857142Y-82538095D01*
X131761904Y-82490476D01*
X131571428Y-82490476D01*
X131476190Y-82538095D01*
X131428571Y-82585714D01*
X131380952Y-82680952D01*
X147252380Y-84961904D02*
X146252380Y-84961904D01*
X146252380Y-84723809D01*
X146300000Y-84580952D01*
X146395238Y-84485714D01*
X146490476Y-84438095D01*
X146680952Y-84390476D01*
X146823809Y-84390476D01*
X147014285Y-84438095D01*
X147109523Y-84485714D01*
X147204761Y-84580952D01*
X147252380Y-84723809D01*
X147252380Y-84961904D01*
X147252380Y-83961904D02*
X146252380Y-83961904D01*
X146252380Y-83580952D01*
X146300000Y-83485714D01*
X146347619Y-83438095D01*
X146442857Y-83390476D01*
X146585714Y-83390476D01*
X146680952Y-83438095D01*
X146728571Y-83485714D01*
X146776190Y-83580952D01*
X146776190Y-83961904D01*
X142152380Y-85119047D02*
X142152380Y-85595238D01*
X141152380Y-85595238D01*
X141628571Y-84785714D02*
X141628571Y-84452380D01*
X142152380Y-84309523D02*
X142152380Y-84785714D01*
X141152380Y-84785714D01*
X141152380Y-84309523D01*
X142152380Y-83880952D02*
X141152380Y-83880952D01*
X141152380Y-83642857D01*
X141200000Y-83500000D01*
X141295238Y-83404761D01*
X141390476Y-83357142D01*
X141580952Y-83309523D01*
X141723809Y-83309523D01*
X141914285Y-83357142D01*
X142009523Y-83404761D01*
X142104761Y-83500000D01*
X142152380Y-83642857D01*
X142152380Y-83880952D01*
X141247619Y-82928571D02*
X141200000Y-82880952D01*
X141152380Y-82785714D01*
X141152380Y-82547619D01*
X141200000Y-82452380D01*
X141247619Y-82404761D01*
X141342857Y-82357142D01*
X141438095Y-82357142D01*
X141580952Y-82404761D01*
X142152380Y-82976190D01*
X142152380Y-82357142D01*
X139852380Y-85119047D02*
X139852380Y-85595238D01*
X138852380Y-85595238D01*
X139328571Y-84785714D02*
X139328571Y-84452380D01*
X139852380Y-84309523D02*
X139852380Y-84785714D01*
X138852380Y-84785714D01*
X138852380Y-84309523D01*
X139852380Y-83880952D02*
X138852380Y-83880952D01*
X138852380Y-83642857D01*
X138900000Y-83500000D01*
X138995238Y-83404761D01*
X139090476Y-83357142D01*
X139280952Y-83309523D01*
X139423809Y-83309523D01*
X139614285Y-83357142D01*
X139709523Y-83404761D01*
X139804761Y-83500000D01*
X139852380Y-83642857D01*
X139852380Y-83880952D01*
X139852380Y-82357142D02*
X139852380Y-82928571D01*
X139852380Y-82642857D02*
X138852380Y-82642857D01*
X138995238Y-82738095D01*
X139090476Y-82833333D01*
X139138095Y-82928571D01*
X144652380Y-84785714D02*
X143652380Y-84785714D01*
X143652380Y-84547619D01*
X143700000Y-84404761D01*
X143795238Y-84309523D01*
X143890476Y-84261904D01*
X144080952Y-84214285D01*
X144223809Y-84214285D01*
X144414285Y-84261904D01*
X144509523Y-84309523D01*
X144604761Y-84404761D01*
X144652380Y-84547619D01*
X144652380Y-84785714D01*
X144652380Y-83785714D02*
X143652380Y-83785714D01*
X144652380Y-83214285D01*
X143652380Y-83214285D01*
%TO.C,J1*%
X123572380Y-88333333D02*
X124286666Y-88333333D01*
X124429523Y-88380952D01*
X124524761Y-88476190D01*
X124572380Y-88619047D01*
X124572380Y-88714285D01*
X124572380Y-87333333D02*
X124572380Y-87904761D01*
X124572380Y-87619047D02*
X123572380Y-87619047D01*
X123715238Y-87714285D01*
X123810476Y-87809523D01*
X123858095Y-87904761D01*
%TO.C,D2*%
X131361904Y-91352380D02*
X131361904Y-90352380D01*
X131600000Y-90352380D01*
X131742857Y-90400000D01*
X131838095Y-90495238D01*
X131885714Y-90590476D01*
X131933333Y-90780952D01*
X131933333Y-90923809D01*
X131885714Y-91114285D01*
X131838095Y-91209523D01*
X131742857Y-91304761D01*
X131600000Y-91352380D01*
X131361904Y-91352380D01*
X132314285Y-90447619D02*
X132361904Y-90400000D01*
X132457142Y-90352380D01*
X132695238Y-90352380D01*
X132790476Y-90400000D01*
X132838095Y-90447619D01*
X132885714Y-90542857D01*
X132885714Y-90638095D01*
X132838095Y-90780952D01*
X132266666Y-91352380D01*
X132885714Y-91352380D01*
%TO.C,J2*%
X156166666Y-87152380D02*
X156166666Y-87866666D01*
X156119047Y-88009523D01*
X156023809Y-88104761D01*
X155880952Y-88152380D01*
X155785714Y-88152380D01*
X156595238Y-87247619D02*
X156642857Y-87200000D01*
X156738095Y-87152380D01*
X156976190Y-87152380D01*
X157071428Y-87200000D01*
X157119047Y-87247619D01*
X157166666Y-87342857D01*
X157166666Y-87438095D01*
X157119047Y-87580952D01*
X156547619Y-88152380D01*
X157166666Y-88152380D01*
%TO.C,D1*%
X134002648Y-91352380D02*
X134002648Y-90352380D01*
X134240744Y-90352380D01*
X134383601Y-90400000D01*
X134478839Y-90495238D01*
X134526458Y-90590476D01*
X134574077Y-90780952D01*
X134574077Y-90923809D01*
X134526458Y-91114285D01*
X134478839Y-91209523D01*
X134383601Y-91304761D01*
X134240744Y-91352380D01*
X134002648Y-91352380D01*
X135526458Y-91352380D02*
X134955029Y-91352380D01*
X135240744Y-91352380D02*
X135240744Y-90352380D01*
X135145505Y-90495238D01*
X135050267Y-90590476D01*
X134955029Y-90638095D01*
%TO.C,MFB*%
X124888095Y-90552380D02*
X124888095Y-89552380D01*
X125221428Y-90266666D01*
X125554761Y-89552380D01*
X125554761Y-90552380D01*
X126364285Y-90028571D02*
X126030952Y-90028571D01*
X126030952Y-90552380D02*
X126030952Y-89552380D01*
X126507142Y-89552380D01*
X127221428Y-90028571D02*
X127364285Y-90076190D01*
X127411904Y-90123809D01*
X127459523Y-90219047D01*
X127459523Y-90361904D01*
X127411904Y-90457142D01*
X127364285Y-90504761D01*
X127269047Y-90552380D01*
X126888095Y-90552380D01*
X126888095Y-89552380D01*
X127221428Y-89552380D01*
X127316666Y-89600000D01*
X127364285Y-89647619D01*
X127411904Y-89742857D01*
X127411904Y-89838095D01*
X127364285Y-89933333D01*
X127316666Y-89980952D01*
X127221428Y-90028571D01*
X126888095Y-90028571D01*
%TO.C,*%
D11*
%TO.C,J1*%
X127720000Y-86670000D02*
X148100000Y-86670000D01*
X126450000Y-89330000D02*
X125120000Y-89330000D01*
X125120000Y-89330000D02*
X125120000Y-88000000D01*
X127720000Y-89330000D02*
X148100000Y-89330000D01*
X148100000Y-89330000D02*
X148100000Y-86670000D01*
X127720000Y-89330000D02*
X127720000Y-86670000D01*
%TO.C,D2*%
X131405744Y-94960000D02*
X132875744Y-94960000D01*
X131405744Y-92500000D02*
X131405744Y-94960000D01*
X132875744Y-94960000D02*
X132875744Y-92500000D01*
%TO.C,J2*%
X157200000Y-86352500D02*
X156750000Y-86352500D01*
X149400000Y-86352500D02*
X149850000Y-86352500D01*
X155000000Y-86902500D02*
X155000000Y-86452500D01*
X157200000Y-81952500D02*
X157200000Y-82202500D01*
X155000000Y-86902500D02*
X154550000Y-86902500D01*
X149400000Y-84502500D02*
X149400000Y-86352500D01*
X157200000Y-84502500D02*
X157200000Y-86352500D01*
X149400000Y-81952500D02*
X149400000Y-82202500D01*
%TO.C,D1*%
X133905744Y-92500000D02*
X133905744Y-94960000D01*
X135375744Y-94960000D02*
X135375744Y-92500000D01*
X133905744Y-94960000D02*
X135375744Y-94960000D01*
%TO.C,MFB*%
X129250000Y-90600000D02*
X129150000Y-90600000D01*
X130750000Y-95000000D02*
X130750000Y-90600000D01*
X127650000Y-90600000D02*
X127650000Y-95000000D01*
X129250000Y-95000000D02*
X129150000Y-95000000D01*
%TD*%
M02*
