%TF.GenerationSoftware,KiCad,Pcbnew,(6.0.0)*%
%TF.CreationDate,2022-04-23T17:17:18+01:00*%
%TF.ProjectId,BM83 prog,424d3833-2070-4726-9f67-2e6b69636164,rev?*%
%TF.SameCoordinates,Original*%
%TF.FileFunction,Copper,L1,Top*%
%TF.FilePolarity,Positive*%
%FSLAX46Y46*%
G04 Gerber Fmt 4.6, Leading zero omitted, Abs format (unit mm)*
G04 Created by KiCad (PCBNEW (6.0.0)) date 2022-04-23 17:17:18*
%MOMM*%
%LPD*%
G01*
G04 APERTURE LIST*
G04 Aperture macros list*
%AMRoundRect*
0 Rectangle with rounded corners*
0 $1 Rounding radius*
0 $2 $3 $4 $5 $6 $7 $8 $9 X,Y pos of 4 corners*
0 Add a 4 corners polygon primitive as box body*
4,1,4,$2,$3,$4,$5,$6,$7,$8,$9,$2,$3,0*
0 Add four circle primitives for the rounded corners*
1,1,$1+$1,$2,$3*
1,1,$1+$1,$4,$5*
1,1,$1+$1,$6,$7*
1,1,$1+$1,$8,$9*
0 Add four rect primitives between the rounded corners*
20,1,$1+$1,$2,$3,$4,$5,0*
20,1,$1+$1,$4,$5,$6,$7,0*
20,1,$1+$1,$6,$7,$8,$9,0*
20,1,$1+$1,$8,$9,$2,$3,0*%
G04 Aperture macros list end*
%TA.AperFunction,ComponentPad*%
%ADD10C,1.300000*%
%TD*%
%TA.AperFunction,ComponentPad*%
%ADD11C,5.000000*%
%TD*%
%TA.AperFunction,ComponentPad*%
%ADD12R,1.700000X1.700000*%
%TD*%
%TA.AperFunction,ComponentPad*%
%ADD13O,1.700000X1.700000*%
%TD*%
%TA.AperFunction,SMDPad,CuDef*%
%ADD14RoundRect,0.237500X0.237500X-0.287500X0.237500X0.287500X-0.237500X0.287500X-0.237500X-0.287500X0*%
%TD*%
%TA.AperFunction,SMDPad,CuDef*%
%ADD15R,0.400000X1.350000*%
%TD*%
%TA.AperFunction,SMDPad,CuDef*%
%ADD16R,1.200000X1.900000*%
%TD*%
%TA.AperFunction,ComponentPad*%
%ADD17C,1.450000*%
%TD*%
%TA.AperFunction,SMDPad,CuDef*%
%ADD18R,1.500000X1.900000*%
%TD*%
%TA.AperFunction,ComponentPad*%
%ADD19O,1.200000X1.900000*%
%TD*%
%TA.AperFunction,SMDPad,CuDef*%
%ADD20R,1.000000X0.900000*%
%TD*%
%TA.AperFunction,ViaPad*%
%ADD21C,0.800000*%
%TD*%
%TA.AperFunction,Conductor*%
%ADD22C,0.200000*%
%TD*%
G04 APERTURE END LIST*
D10*
%TO.P,TP34,1,1*%
%TO.N,/DP*%
X141500000Y-91144000D03*
%TD*%
%TO.P,TP31,1,1*%
%TO.N,/LED1*%
X141500000Y-94744000D03*
%TD*%
%TO.P,TP70,1,1*%
%TO.N,VBUS*%
X143500000Y-91144000D03*
%TD*%
D11*
%TO.P,REF\u002A\u002A,1*%
%TO.N,GND*%
X154700000Y-93100000D03*
%TD*%
D12*
%TO.P,J1,1,Pin_1*%
%TO.N,VBUS*%
X126450000Y-88000000D03*
D13*
%TO.P,J1,2,Pin_2*%
%TO.N,+3V3*%
X128990000Y-88000000D03*
%TO.P,J1,3,Pin_3*%
%TO.N,+1V8*%
X131530000Y-88000000D03*
%TO.P,J1,4,Pin_4*%
%TO.N,GND*%
X134070000Y-88000000D03*
%TO.P,J1,5,Pin_5*%
%TO.N,/PWR(MFB)*%
X136610000Y-88000000D03*
%TO.P,J1,6,Pin_6*%
%TO.N,/LED1*%
X139150000Y-88000000D03*
%TO.P,J1,7,Pin_7*%
%TO.N,/LED2*%
X141690000Y-88000000D03*
%TO.P,J1,8,Pin_8*%
%TO.N,/DN*%
X144230000Y-88000000D03*
%TO.P,J1,9,Pin_9*%
%TO.N,/DP*%
X146770000Y-88000000D03*
%TD*%
D14*
%TO.P,D2,1,K*%
%TO.N,/LED2*%
X132140744Y-94175000D03*
%TO.P,D2,2,A*%
%TO.N,+3V3*%
X132140744Y-92425000D03*
%TD*%
D10*
%TO.P,TP71,1,1*%
%TO.N,+3V3*%
X138400000Y-92944000D03*
%TD*%
D15*
%TO.P,J2,1,VBUS*%
%TO.N,VBUS*%
X154600000Y-86052500D03*
%TO.P,J2,2,D-*%
%TO.N,/DN*%
X153950000Y-86052500D03*
%TO.P,J2,3,D+*%
%TO.N,/DP*%
X153300000Y-86052500D03*
%TO.P,J2,4,ID*%
%TO.N,unconnected-(J2-Pad4)*%
X152650000Y-86052500D03*
%TO.P,J2,5,GND*%
%TO.N,GND*%
X152000000Y-86052500D03*
D16*
%TO.P,J2,6,Shield*%
X156200000Y-83352500D03*
D17*
X150800000Y-86052500D03*
D16*
X150400000Y-83352500D03*
D18*
X154300000Y-83352500D03*
D19*
X156800000Y-83352500D03*
X149800000Y-83352500D03*
D18*
X152300000Y-83352500D03*
D17*
X155800000Y-86052500D03*
%TD*%
D14*
%TO.P,D1,1,K*%
%TO.N,/LED1*%
X134640744Y-94175000D03*
%TO.P,D1,2,A*%
%TO.N,+3V3*%
X134640744Y-92425000D03*
%TD*%
D20*
%TO.P,MFB,1,1*%
%TO.N,/PWR(MFB)*%
X128400000Y-94850000D03*
X128400000Y-90750000D03*
%TO.P,MFB,2,2*%
%TO.N,+3V3*%
X130000000Y-90750000D03*
X130000000Y-94850000D03*
%TD*%
D10*
%TO.P,TP73,1,1*%
%TO.N,GND*%
X137300000Y-91144000D03*
%TD*%
%TO.P,TP72,1,1*%
%TO.N,+1V8*%
X140450000Y-92944000D03*
%TD*%
%TO.P,TP33,1,1*%
%TO.N,/DN*%
X139366666Y-91144000D03*
%TD*%
%TO.P,TP32,1,1*%
%TO.N,/LED2*%
X139400000Y-94744000D03*
%TD*%
D11*
%TO.P,,1*%
%TO.N,GND*%
X124000000Y-93100000D03*
%TD*%
D10*
%TO.P,TP30,1,1*%
%TO.N,/PWR(MFB)*%
X142500000Y-92944000D03*
%TD*%
D21*
%TO.N,VBUS*%
X154700000Y-87400000D03*
%TO.N,GND*%
X145500000Y-85700000D03*
X127750000Y-92850000D03*
X151700000Y-88700000D03*
X151250000Y-95300000D03*
X121900000Y-88550000D03*
X127600000Y-85700000D03*
X145500000Y-82950000D03*
X132550000Y-85700000D03*
X126800000Y-95300000D03*
X132550000Y-82950000D03*
X130250000Y-92850000D03*
X126600000Y-89900000D03*
X147750000Y-93000000D03*
X133150000Y-89950000D03*
X151250000Y-92950000D03*
X147750000Y-95300000D03*
X135200000Y-89950000D03*
X121900000Y-82950000D03*
X127600000Y-82950000D03*
X142950000Y-82950000D03*
X138250000Y-85700000D03*
X143950000Y-95300000D03*
X149550000Y-88700000D03*
X138250000Y-82950000D03*
X121900000Y-85700000D03*
X144450000Y-93000000D03*
X142950000Y-85700000D03*
X156600000Y-88650000D03*
%TO.N,/DN*%
X147300000Y-90925000D03*
%TO.N,/DP*%
X147300000Y-89875000D03*
%TD*%
D22*
%TO.N,+3V3*%
X130000000Y-89010000D02*
X128990000Y-88000000D01*
X130000000Y-90750000D02*
X130000000Y-89010000D01*
%TO.N,/LED1*%
X139792218Y-93793406D02*
X138893406Y-93793406D01*
X138893406Y-93793406D02*
X138511812Y-94175000D01*
X138511812Y-94175000D02*
X134640744Y-94175000D01*
X140742812Y-94744000D02*
X139792218Y-93793406D01*
X141500000Y-94744000D02*
X140742812Y-94744000D01*
%TO.N,+3V3*%
X132140744Y-92425000D02*
X131675000Y-92425000D01*
X132140744Y-92425000D02*
X134640744Y-92425000D01*
X131675000Y-92425000D02*
X130000000Y-90750000D01*
X135159744Y-92944000D02*
X138400000Y-92944000D01*
X135159744Y-92944000D02*
X134640744Y-92425000D01*
%TO.N,/LED2*%
X138750001Y-95393999D02*
X133359743Y-95393999D01*
X133359743Y-95393999D02*
X132140744Y-94175000D01*
X139400000Y-94744000D02*
X138750001Y-95393999D01*
%TO.N,VBUS*%
X154600000Y-86052500D02*
X154600000Y-87300000D01*
X154600000Y-87300000D02*
X154700000Y-87400000D01*
%TO.N,+1V8*%
X131530000Y-89974994D02*
X133155006Y-91600000D01*
X135898812Y-92100000D02*
X135398812Y-91600000D01*
X133155006Y-91600000D02*
X133250000Y-91600000D01*
X131530000Y-88000000D02*
X131530000Y-89974994D01*
X138894489Y-91994489D02*
X139844000Y-92944000D01*
X137900594Y-92100594D02*
X136900594Y-92100594D01*
X135398812Y-91600000D02*
X133250000Y-91600000D01*
X139844000Y-92944000D02*
X140450000Y-92944000D01*
X136900594Y-92100594D02*
X135899406Y-92100594D01*
X138006699Y-91994489D02*
X138894489Y-91994489D01*
X137900594Y-92100594D02*
X138006699Y-91994489D01*
X135899406Y-92100594D02*
X135898812Y-92100000D01*
%TO.N,GND*%
X152000000Y-86052500D02*
X150800000Y-86052500D01*
X152000000Y-86052500D02*
X152000000Y-87400000D01*
X134156000Y-88000000D02*
X134070000Y-88000000D01*
%TO.N,/PWR(MFB)*%
X127700000Y-87664345D02*
X127700000Y-90050000D01*
X127700000Y-87664345D02*
X128513856Y-86850489D01*
X128400000Y-94850000D02*
X129343519Y-95793519D01*
X135460489Y-86850489D02*
X136610000Y-88000000D01*
X128513856Y-86850489D02*
X135460489Y-86850489D01*
X142500000Y-95400000D02*
X142500000Y-92944000D01*
X129343519Y-95793519D02*
X142106481Y-95793519D01*
X127700000Y-90050000D02*
X128400000Y-90750000D01*
X142106481Y-95793519D02*
X142500000Y-95400000D01*
%TO.N,/DN*%
X153850000Y-87165001D02*
X153950000Y-87065001D01*
X153850000Y-89118200D02*
X152343199Y-90625001D01*
X142035511Y-90194489D02*
X144230000Y-88000000D01*
X147599999Y-90625001D02*
X147300000Y-90925000D01*
X139366666Y-91144000D02*
X140316177Y-90194489D01*
X140316177Y-90194489D02*
X142035511Y-90194489D01*
X153950000Y-87065001D02*
X153950000Y-86052500D01*
X152343199Y-90625001D02*
X147599999Y-90625001D01*
X153850000Y-87165001D02*
X153850000Y-89118200D01*
%TO.N,/DP*%
X141856000Y-91144000D02*
X143850489Y-89149511D01*
X153400000Y-88931800D02*
X152156801Y-90174999D01*
X153400000Y-87165001D02*
X153300000Y-87065001D01*
X153300000Y-87065001D02*
X153300000Y-86052500D01*
X141500000Y-91144000D02*
X141856000Y-91144000D01*
X145620489Y-89149511D02*
X146770000Y-88000000D01*
X153400000Y-87165001D02*
X153400000Y-88931800D01*
X152156801Y-90174999D02*
X147599999Y-90174999D01*
X143850489Y-89149511D02*
X145620489Y-89149511D01*
X147599999Y-90174999D02*
X147300000Y-89875000D01*
%TD*%
%TA.AperFunction,Conductor*%
%TO.N,GND*%
G36*
X127746319Y-82326944D02*
G01*
X148668700Y-82383186D01*
X148736764Y-82403372D01*
X148783113Y-82457152D01*
X148793028Y-82527453D01*
X148785225Y-82556284D01*
X148735039Y-82680811D01*
X148731645Y-82692270D01*
X148693143Y-82889428D01*
X148692066Y-82898291D01*
X148692000Y-82901000D01*
X148692000Y-83080385D01*
X148696475Y-83095624D01*
X148697865Y-83096829D01*
X148705548Y-83098500D01*
X157222000Y-83098500D01*
X157290121Y-83118502D01*
X157336614Y-83172158D01*
X157348000Y-83224500D01*
X157348000Y-83480500D01*
X157327998Y-83548621D01*
X157274342Y-83595114D01*
X157222000Y-83606500D01*
X157072115Y-83606500D01*
X157056876Y-83610975D01*
X157055671Y-83612365D01*
X157054000Y-83620048D01*
X157054000Y-84762902D01*
X157057973Y-84776433D01*
X157067399Y-84777788D01*
X157156537Y-84756306D01*
X157167836Y-84752415D01*
X157200903Y-84737381D01*
X157271194Y-84727395D01*
X157335725Y-84756996D01*
X157374008Y-84816786D01*
X157379052Y-84852633D01*
X157342929Y-93093384D01*
X157342679Y-93150308D01*
X157341176Y-93169165D01*
X157338660Y-93185304D01*
X157338660Y-93185307D01*
X157337278Y-93194173D01*
X157338440Y-93203072D01*
X157339624Y-93212139D01*
X157340486Y-93235539D01*
X157326200Y-93489206D01*
X157324616Y-93503246D01*
X157279186Y-93770384D01*
X157277312Y-93781402D01*
X157274167Y-93795169D01*
X157226064Y-93962055D01*
X157196022Y-94066280D01*
X157191355Y-94079611D01*
X157163801Y-94146109D01*
X157083346Y-94340276D01*
X157077214Y-94353004D01*
X156940709Y-94599925D01*
X156933191Y-94611887D01*
X156769897Y-94841978D01*
X156761087Y-94853023D01*
X156573065Y-95063382D01*
X156563074Y-95073371D01*
X156352678Y-95261363D01*
X156341632Y-95270172D01*
X156111506Y-95433432D01*
X156099547Y-95440945D01*
X155949683Y-95523761D01*
X155852602Y-95577409D01*
X155839873Y-95583538D01*
X155579201Y-95691499D01*
X155565866Y-95696165D01*
X155294735Y-95774268D01*
X155280961Y-95777411D01*
X155002799Y-95824667D01*
X154988779Y-95826247D01*
X154856088Y-95833698D01*
X154742382Y-95840083D01*
X154715936Y-95838781D01*
X154715149Y-95838659D01*
X154715145Y-95838659D01*
X154706270Y-95837277D01*
X154697369Y-95838441D01*
X154697364Y-95838441D01*
X154674741Y-95841400D01*
X154658404Y-95842464D01*
X148116450Y-95842520D01*
X143163895Y-95842562D01*
X143095774Y-95822561D01*
X143049281Y-95768905D01*
X143039176Y-95698631D01*
X143047485Y-95668344D01*
X143089678Y-95566481D01*
X143089679Y-95566478D01*
X143092838Y-95558851D01*
X143097430Y-95523971D01*
X143108500Y-95439885D01*
X143108500Y-95439880D01*
X143113750Y-95400000D01*
X143109578Y-95368307D01*
X143108500Y-95351864D01*
X143108500Y-94003193D01*
X143128502Y-93935072D01*
X143159344Y-93903261D01*
X143158993Y-93902840D01*
X143162914Y-93899579D01*
X143322693Y-93766693D01*
X143458840Y-93602993D01*
X143562876Y-93417223D01*
X143631316Y-93215605D01*
X143633134Y-93203072D01*
X143661337Y-93008561D01*
X143661337Y-93008559D01*
X143661869Y-93004891D01*
X143663463Y-92944000D01*
X143643981Y-92731976D01*
X143586186Y-92527052D01*
X143559405Y-92472745D01*
X143547215Y-92402803D01*
X143574775Y-92337373D01*
X143633333Y-92297230D01*
X143654330Y-92292321D01*
X143765890Y-92276145D01*
X143765894Y-92276144D01*
X143771605Y-92275316D01*
X143973223Y-92206876D01*
X144158993Y-92102840D01*
X144322693Y-91966693D01*
X144458840Y-91802993D01*
X144562876Y-91617223D01*
X144631316Y-91415605D01*
X144633247Y-91402293D01*
X144661337Y-91208561D01*
X144661337Y-91208559D01*
X144661869Y-91204891D01*
X144663463Y-91144000D01*
X144650890Y-91007162D01*
X144644510Y-90937730D01*
X144644509Y-90937727D01*
X144643981Y-90931976D01*
X144586186Y-90727052D01*
X144575055Y-90704479D01*
X144494570Y-90541273D01*
X144492015Y-90536092D01*
X144475757Y-90514319D01*
X144368074Y-90370114D01*
X144364622Y-90365491D01*
X144208271Y-90220963D01*
X144028201Y-90107347D01*
X144009277Y-90099797D01*
X143953419Y-90055974D01*
X143930121Y-89988909D01*
X143946779Y-89919894D01*
X143966876Y-89893673D01*
X144065633Y-89794916D01*
X144127945Y-89760890D01*
X144154728Y-89758011D01*
X145572353Y-89758011D01*
X145588796Y-89759089D01*
X145620489Y-89763261D01*
X145628678Y-89762183D01*
X145660363Y-89758012D01*
X145660373Y-89758011D01*
X145660374Y-89758011D01*
X145759946Y-89744902D01*
X145771153Y-89743427D01*
X145771155Y-89743426D01*
X145779340Y-89742349D01*
X145927365Y-89681035D01*
X145947611Y-89665500D01*
X146022561Y-89607988D01*
X146022564Y-89607985D01*
X146047926Y-89588524D01*
X146054476Y-89583498D01*
X146073947Y-89558124D01*
X146084805Y-89545744D01*
X146257676Y-89372873D01*
X146319988Y-89338847D01*
X146390803Y-89343912D01*
X146447639Y-89386459D01*
X146472450Y-89452979D01*
X146463694Y-89502866D01*
X146465473Y-89503444D01*
X146406458Y-89685072D01*
X146405768Y-89691633D01*
X146405768Y-89691635D01*
X146394166Y-89802023D01*
X146386496Y-89875000D01*
X146387186Y-89881565D01*
X146402674Y-90028922D01*
X146406458Y-90064928D01*
X146465473Y-90246556D01*
X146468776Y-90252278D01*
X146468777Y-90252279D01*
X146517691Y-90337000D01*
X146534429Y-90405995D01*
X146517691Y-90463000D01*
X146476278Y-90534730D01*
X146465473Y-90553444D01*
X146406458Y-90735072D01*
X146405768Y-90741633D01*
X146405768Y-90741635D01*
X146401779Y-90779592D01*
X146386496Y-90925000D01*
X146387186Y-90931565D01*
X146403153Y-91083478D01*
X146406458Y-91114928D01*
X146465473Y-91296556D01*
X146560960Y-91461944D01*
X146688747Y-91603866D01*
X146843248Y-91716118D01*
X146849276Y-91718802D01*
X146849278Y-91718803D01*
X147005662Y-91788429D01*
X147017712Y-91793794D01*
X147081869Y-91807431D01*
X147198056Y-91832128D01*
X147198061Y-91832128D01*
X147204513Y-91833500D01*
X147395487Y-91833500D01*
X147401939Y-91832128D01*
X147401944Y-91832128D01*
X147518131Y-91807431D01*
X147582288Y-91793794D01*
X147594338Y-91788429D01*
X147750722Y-91718803D01*
X147750724Y-91718802D01*
X147756752Y-91716118D01*
X147911253Y-91603866D01*
X148039040Y-91461944D01*
X148134527Y-91296556D01*
X148137337Y-91298178D01*
X148173763Y-91254672D01*
X148243670Y-91233501D01*
X152295063Y-91233501D01*
X152311506Y-91234579D01*
X152343199Y-91238751D01*
X152351388Y-91237673D01*
X152383073Y-91233502D01*
X152383083Y-91233501D01*
X152383084Y-91233501D01*
X152482656Y-91220392D01*
X152493863Y-91218917D01*
X152493865Y-91218916D01*
X152502050Y-91217839D01*
X152650075Y-91156525D01*
X152671214Y-91140305D01*
X152745271Y-91083478D01*
X152745274Y-91083475D01*
X152770633Y-91064016D01*
X152777186Y-91058988D01*
X152782216Y-91052433D01*
X152796651Y-91033622D01*
X152807518Y-91021231D01*
X154246234Y-89582515D01*
X154258625Y-89571648D01*
X154277437Y-89557213D01*
X154283987Y-89552187D01*
X154308474Y-89520275D01*
X154308477Y-89520272D01*
X154381523Y-89425076D01*
X154381524Y-89425075D01*
X154411572Y-89352534D01*
X154439678Y-89284679D01*
X154442838Y-89277050D01*
X154445176Y-89259295D01*
X154458500Y-89158085D01*
X154458500Y-89158078D01*
X154462672Y-89126388D01*
X154463750Y-89118200D01*
X154459578Y-89086507D01*
X154458500Y-89070064D01*
X154458500Y-88432397D01*
X154478502Y-88364276D01*
X154532158Y-88317783D01*
X154597668Y-88307087D01*
X154598058Y-88307128D01*
X154604513Y-88308500D01*
X154795487Y-88308500D01*
X154801939Y-88307128D01*
X154801944Y-88307128D01*
X154915741Y-88282939D01*
X154982288Y-88268794D01*
X154988319Y-88266109D01*
X155150722Y-88193803D01*
X155150724Y-88193802D01*
X155156752Y-88191118D01*
X155311253Y-88078866D01*
X155439040Y-87936944D01*
X155528196Y-87782522D01*
X155531223Y-87777279D01*
X155531224Y-87777278D01*
X155534527Y-87771556D01*
X155593542Y-87589928D01*
X155595641Y-87569962D01*
X155613504Y-87400000D01*
X155616064Y-87400269D01*
X155632816Y-87343218D01*
X155686472Y-87296725D01*
X155749795Y-87285818D01*
X155794524Y-87289731D01*
X155805475Y-87289731D01*
X156009446Y-87271885D01*
X156020241Y-87269982D01*
X156218012Y-87216990D01*
X156228304Y-87213244D01*
X156413868Y-87126714D01*
X156423363Y-87121231D01*
X156459197Y-87096140D01*
X156467573Y-87085661D01*
X156460505Y-87072215D01*
X155529885Y-86141595D01*
X155495859Y-86079283D01*
X155497694Y-86053632D01*
X156164408Y-86053632D01*
X156164539Y-86055465D01*
X156168790Y-86062080D01*
X156820436Y-86713726D01*
X156832211Y-86720156D01*
X156844226Y-86710860D01*
X156868731Y-86675863D01*
X156874214Y-86666368D01*
X156960744Y-86480804D01*
X156964490Y-86470512D01*
X157017482Y-86272741D01*
X157019385Y-86261946D01*
X157037231Y-86057975D01*
X157037231Y-86047025D01*
X157019385Y-85843054D01*
X157017482Y-85832259D01*
X156964490Y-85634488D01*
X156960744Y-85624196D01*
X156874214Y-85438632D01*
X156868731Y-85429137D01*
X156843640Y-85393303D01*
X156833161Y-85384927D01*
X156819715Y-85391995D01*
X156172022Y-86039688D01*
X156164408Y-86053632D01*
X155497694Y-86053632D01*
X155500924Y-86008468D01*
X155529885Y-85963405D01*
X156461226Y-85032064D01*
X156467656Y-85020290D01*
X156459493Y-85009739D01*
X156433630Y-84943621D01*
X156447618Y-84874016D01*
X156497017Y-84823023D01*
X156523652Y-84811742D01*
X156543124Y-84806025D01*
X156544329Y-84804634D01*
X156546000Y-84796951D01*
X156546000Y-83624615D01*
X156541525Y-83609376D01*
X156540135Y-83608171D01*
X156532452Y-83606500D01*
X150072115Y-83606500D01*
X150056876Y-83610975D01*
X150055671Y-83612365D01*
X150054000Y-83620048D01*
X150054000Y-84792385D01*
X150058475Y-84807624D01*
X150059865Y-84808829D01*
X150066587Y-84810291D01*
X150128900Y-84844316D01*
X150162925Y-84906628D01*
X150157861Y-84977443D01*
X150138227Y-85012083D01*
X150132427Y-85019339D01*
X150139495Y-85032785D01*
X151070115Y-85963405D01*
X151104141Y-86025717D01*
X151099076Y-86096532D01*
X151070115Y-86141595D01*
X150138774Y-87072936D01*
X150132344Y-87084711D01*
X150141640Y-87096726D01*
X150176637Y-87121231D01*
X150186132Y-87126714D01*
X150371696Y-87213244D01*
X150381988Y-87216990D01*
X150579759Y-87269982D01*
X150590554Y-87271885D01*
X150794525Y-87289731D01*
X150805475Y-87289731D01*
X151009446Y-87271885D01*
X151020241Y-87269982D01*
X151218012Y-87216990D01*
X151228304Y-87213244D01*
X151389641Y-87138011D01*
X151459833Y-87127350D01*
X151518455Y-87151379D01*
X151546352Y-87172286D01*
X151561946Y-87180824D01*
X151682394Y-87225978D01*
X151697649Y-87229605D01*
X151748514Y-87235131D01*
X151755328Y-87235500D01*
X151781885Y-87235500D01*
X151797124Y-87231025D01*
X151798329Y-87229635D01*
X151800000Y-87221952D01*
X151800000Y-87086384D01*
X151820002Y-87018263D01*
X151873658Y-86971770D01*
X151943932Y-86961666D01*
X152008512Y-86991160D01*
X152026825Y-87010817D01*
X152086739Y-87090761D01*
X152149785Y-87138011D01*
X152150760Y-87138742D01*
X152193275Y-87195601D01*
X152196091Y-87204070D01*
X152204475Y-87232623D01*
X152205865Y-87233828D01*
X152213548Y-87235499D01*
X152244669Y-87235499D01*
X152251490Y-87235129D01*
X152310207Y-87228752D01*
X152310505Y-87231498D01*
X152339446Y-87231440D01*
X152339684Y-87229245D01*
X152393867Y-87235131D01*
X152401866Y-87236000D01*
X152628003Y-87236000D01*
X152696124Y-87256002D01*
X152744412Y-87313781D01*
X152768476Y-87371877D01*
X152773503Y-87378428D01*
X152774620Y-87380363D01*
X152791500Y-87443362D01*
X152791500Y-88627561D01*
X152771498Y-88695682D01*
X152754595Y-88716656D01*
X151941657Y-89529594D01*
X151879345Y-89563620D01*
X151852562Y-89566499D01*
X148243670Y-89566499D01*
X148175549Y-89546497D01*
X148137443Y-89501760D01*
X148134527Y-89503444D01*
X148105391Y-89452979D01*
X148039040Y-89338056D01*
X148033911Y-89332359D01*
X147915675Y-89201045D01*
X147915674Y-89201044D01*
X147911253Y-89196134D01*
X147789708Y-89107826D01*
X147746355Y-89051603D01*
X147740280Y-88980867D01*
X147774830Y-88916639D01*
X147804435Y-88887137D01*
X147808096Y-88883489D01*
X147938453Y-88702077D01*
X147951995Y-88674678D01*
X148035136Y-88506453D01*
X148035137Y-88506451D01*
X148037430Y-88501811D01*
X148069900Y-88394940D01*
X148100865Y-88293023D01*
X148100865Y-88293021D01*
X148102370Y-88288069D01*
X148131529Y-88066590D01*
X148133156Y-88000000D01*
X148114852Y-87777361D01*
X148060431Y-87560702D01*
X147971354Y-87355840D01*
X147889137Y-87228752D01*
X147852822Y-87172617D01*
X147852820Y-87172614D01*
X147850014Y-87168277D01*
X147699670Y-87003051D01*
X147695619Y-86999852D01*
X147695615Y-86999848D01*
X147528414Y-86867800D01*
X147528410Y-86867798D01*
X147524359Y-86864598D01*
X147328789Y-86756638D01*
X147323920Y-86754914D01*
X147323916Y-86754912D01*
X147123087Y-86683795D01*
X147123083Y-86683794D01*
X147118212Y-86682069D01*
X147113119Y-86681162D01*
X147113116Y-86681161D01*
X146903373Y-86643800D01*
X146903367Y-86643799D01*
X146898284Y-86642894D01*
X146824452Y-86641992D01*
X146680081Y-86640228D01*
X146680079Y-86640228D01*
X146674911Y-86640165D01*
X146454091Y-86673955D01*
X146241756Y-86743357D01*
X146043607Y-86846507D01*
X146039474Y-86849610D01*
X146039471Y-86849612D01*
X145869100Y-86977530D01*
X145864965Y-86980635D01*
X145829007Y-87018263D01*
X145725369Y-87126714D01*
X145710629Y-87142138D01*
X145603201Y-87299621D01*
X145548293Y-87344621D01*
X145477768Y-87352792D01*
X145414021Y-87321538D01*
X145393324Y-87297054D01*
X145312822Y-87172617D01*
X145312820Y-87172614D01*
X145310014Y-87168277D01*
X145159670Y-87003051D01*
X145155619Y-86999852D01*
X145155615Y-86999848D01*
X144988414Y-86867800D01*
X144988410Y-86867798D01*
X144984359Y-86864598D01*
X144788789Y-86756638D01*
X144783920Y-86754914D01*
X144783916Y-86754912D01*
X144583087Y-86683795D01*
X144583083Y-86683794D01*
X144578212Y-86682069D01*
X144573119Y-86681162D01*
X144573116Y-86681161D01*
X144363373Y-86643800D01*
X144363367Y-86643799D01*
X144358284Y-86642894D01*
X144284452Y-86641992D01*
X144140081Y-86640228D01*
X144140079Y-86640228D01*
X144134911Y-86640165D01*
X143914091Y-86673955D01*
X143701756Y-86743357D01*
X143503607Y-86846507D01*
X143499474Y-86849610D01*
X143499471Y-86849612D01*
X143329100Y-86977530D01*
X143324965Y-86980635D01*
X143289007Y-87018263D01*
X143185369Y-87126714D01*
X143170629Y-87142138D01*
X143063201Y-87299621D01*
X143008293Y-87344621D01*
X142937768Y-87352792D01*
X142874021Y-87321538D01*
X142853324Y-87297054D01*
X142772822Y-87172617D01*
X142772820Y-87172614D01*
X142770014Y-87168277D01*
X142619670Y-87003051D01*
X142615619Y-86999852D01*
X142615615Y-86999848D01*
X142448414Y-86867800D01*
X142448410Y-86867798D01*
X142444359Y-86864598D01*
X142248789Y-86756638D01*
X142243920Y-86754914D01*
X142243916Y-86754912D01*
X142043087Y-86683795D01*
X142043083Y-86683794D01*
X142038212Y-86682069D01*
X142033119Y-86681162D01*
X142033116Y-86681161D01*
X141823373Y-86643800D01*
X141823367Y-86643799D01*
X141818284Y-86642894D01*
X141744452Y-86641992D01*
X141600081Y-86640228D01*
X141600079Y-86640228D01*
X141594911Y-86640165D01*
X141374091Y-86673955D01*
X141161756Y-86743357D01*
X140963607Y-86846507D01*
X140959474Y-86849610D01*
X140959471Y-86849612D01*
X140789100Y-86977530D01*
X140784965Y-86980635D01*
X140749007Y-87018263D01*
X140645369Y-87126714D01*
X140630629Y-87142138D01*
X140523201Y-87299621D01*
X140468293Y-87344621D01*
X140397768Y-87352792D01*
X140334021Y-87321538D01*
X140313324Y-87297054D01*
X140232822Y-87172617D01*
X140232820Y-87172614D01*
X140230014Y-87168277D01*
X140079670Y-87003051D01*
X140075619Y-86999852D01*
X140075615Y-86999848D01*
X139908414Y-86867800D01*
X139908410Y-86867798D01*
X139904359Y-86864598D01*
X139708789Y-86756638D01*
X139703920Y-86754914D01*
X139703916Y-86754912D01*
X139503087Y-86683795D01*
X139503083Y-86683794D01*
X139498212Y-86682069D01*
X139493119Y-86681162D01*
X139493116Y-86681161D01*
X139283373Y-86643800D01*
X139283367Y-86643799D01*
X139278284Y-86642894D01*
X139204452Y-86641992D01*
X139060081Y-86640228D01*
X139060079Y-86640228D01*
X139054911Y-86640165D01*
X138834091Y-86673955D01*
X138621756Y-86743357D01*
X138423607Y-86846507D01*
X138419474Y-86849610D01*
X138419471Y-86849612D01*
X138249100Y-86977530D01*
X138244965Y-86980635D01*
X138209007Y-87018263D01*
X138105369Y-87126714D01*
X138090629Y-87142138D01*
X137983201Y-87299621D01*
X137928293Y-87344621D01*
X137857768Y-87352792D01*
X137794021Y-87321538D01*
X137773324Y-87297054D01*
X137692822Y-87172617D01*
X137692820Y-87172614D01*
X137690014Y-87168277D01*
X137539670Y-87003051D01*
X137535619Y-86999852D01*
X137535615Y-86999848D01*
X137368414Y-86867800D01*
X137368410Y-86867798D01*
X137364359Y-86864598D01*
X137168789Y-86756638D01*
X137163920Y-86754914D01*
X137163916Y-86754912D01*
X136963087Y-86683795D01*
X136963083Y-86683794D01*
X136958212Y-86682069D01*
X136953119Y-86681162D01*
X136953116Y-86681161D01*
X136743373Y-86643800D01*
X136743367Y-86643799D01*
X136738284Y-86642894D01*
X136664452Y-86641992D01*
X136520081Y-86640228D01*
X136520079Y-86640228D01*
X136514911Y-86640165D01*
X136367627Y-86662703D01*
X136299200Y-86673173D01*
X136299197Y-86673174D01*
X136294091Y-86673955D01*
X136289176Y-86675562D01*
X136289174Y-86675562D01*
X136254890Y-86686768D01*
X136183927Y-86688921D01*
X136126648Y-86656099D01*
X135924804Y-86454255D01*
X135913937Y-86441864D01*
X135899502Y-86423052D01*
X135894476Y-86416502D01*
X135862564Y-86392015D01*
X135862561Y-86392012D01*
X135767365Y-86318965D01*
X135619340Y-86257651D01*
X135611153Y-86256573D01*
X135611152Y-86256573D01*
X135599947Y-86255098D01*
X135568751Y-86250991D01*
X135500374Y-86241989D01*
X135500371Y-86241989D01*
X135500363Y-86241988D01*
X135468678Y-86237817D01*
X135460489Y-86236739D01*
X135428796Y-86240911D01*
X135412353Y-86241989D01*
X128561992Y-86241989D01*
X128545546Y-86240911D01*
X128522044Y-86237817D01*
X128513856Y-86236739D01*
X128505668Y-86237817D01*
X128473985Y-86241988D01*
X128473976Y-86241989D01*
X128473971Y-86241989D01*
X128355006Y-86257651D01*
X128347379Y-86260810D01*
X128347376Y-86260811D01*
X128318575Y-86272741D01*
X128268294Y-86293568D01*
X128206980Y-86318965D01*
X128111784Y-86392012D01*
X128111781Y-86392015D01*
X128079869Y-86416502D01*
X128074839Y-86423057D01*
X128060404Y-86441868D01*
X128049537Y-86454259D01*
X127771256Y-86732540D01*
X127708944Y-86766566D01*
X127638129Y-86761501D01*
X127606596Y-86744271D01*
X127546705Y-86699385D01*
X127410316Y-86648255D01*
X127348134Y-86641500D01*
X125551866Y-86641500D01*
X125489684Y-86648255D01*
X125353295Y-86699385D01*
X125236739Y-86786739D01*
X125149385Y-86903295D01*
X125098255Y-87039684D01*
X125091500Y-87101866D01*
X125091500Y-88898134D01*
X125098255Y-88960316D01*
X125149385Y-89096705D01*
X125236739Y-89213261D01*
X125353295Y-89300615D01*
X125489684Y-89351745D01*
X125551866Y-89358500D01*
X126965500Y-89358500D01*
X127033621Y-89378502D01*
X127080114Y-89432158D01*
X127091500Y-89484500D01*
X127091500Y-90001864D01*
X127090422Y-90018307D01*
X127086250Y-90050000D01*
X127091500Y-90089880D01*
X127091500Y-90089885D01*
X127093518Y-90105209D01*
X127103611Y-90181874D01*
X127103611Y-90181876D01*
X127105969Y-90199785D01*
X127107162Y-90208851D01*
X127168476Y-90356876D01*
X127173503Y-90363427D01*
X127173504Y-90363429D01*
X127241520Y-90452069D01*
X127241526Y-90452075D01*
X127266013Y-90483987D01*
X127272568Y-90489017D01*
X127291379Y-90503452D01*
X127303770Y-90514319D01*
X127354595Y-90565144D01*
X127388621Y-90627456D01*
X127391500Y-90654239D01*
X127391500Y-91248134D01*
X127398255Y-91310316D01*
X127449385Y-91446705D01*
X127536739Y-91563261D01*
X127653295Y-91650615D01*
X127789684Y-91701745D01*
X127851866Y-91708500D01*
X128948134Y-91708500D01*
X129010316Y-91701745D01*
X129057586Y-91684024D01*
X129138301Y-91653766D01*
X129138304Y-91653764D01*
X129146705Y-91650615D01*
X129147024Y-91651466D01*
X129208849Y-91637945D01*
X129253166Y-91650958D01*
X129253295Y-91650615D01*
X129257981Y-91652372D01*
X129257985Y-91652373D01*
X129261696Y-91653764D01*
X129261699Y-91653766D01*
X129342414Y-91684024D01*
X129389684Y-91701745D01*
X129451866Y-91708500D01*
X130045761Y-91708500D01*
X130113882Y-91728502D01*
X130134856Y-91745405D01*
X131126289Y-92736838D01*
X131160315Y-92799150D01*
X131162520Y-92812926D01*
X131168037Y-92866093D01*
X131170218Y-92872629D01*
X131170218Y-92872631D01*
X131213107Y-93001184D01*
X131223090Y-93031107D01*
X131258671Y-93088605D01*
X131302650Y-93159674D01*
X131314628Y-93179031D01*
X131346531Y-93210879D01*
X131380610Y-93273159D01*
X131375607Y-93343979D01*
X131346687Y-93389067D01*
X131324039Y-93411755D01*
X131313815Y-93421997D01*
X131309975Y-93428227D01*
X131309974Y-93428228D01*
X131227108Y-93562662D01*
X131222535Y-93570080D01*
X131167770Y-93735191D01*
X131157244Y-93837928D01*
X131157244Y-94050781D01*
X131137242Y-94118902D01*
X131083586Y-94165395D01*
X131013312Y-94175499D01*
X130948732Y-94146005D01*
X130930418Y-94126346D01*
X130868643Y-94043920D01*
X130868642Y-94043919D01*
X130863261Y-94036739D01*
X130746705Y-93949385D01*
X130610316Y-93898255D01*
X130548134Y-93891500D01*
X129451866Y-93891500D01*
X129389684Y-93898255D01*
X129377454Y-93902840D01*
X129261699Y-93946234D01*
X129261696Y-93946236D01*
X129253295Y-93949385D01*
X129252976Y-93948534D01*
X129191151Y-93962055D01*
X129146834Y-93949042D01*
X129146705Y-93949385D01*
X129142019Y-93947628D01*
X129142015Y-93947627D01*
X129138304Y-93946236D01*
X129138301Y-93946234D01*
X129022546Y-93902840D01*
X129010316Y-93898255D01*
X128948134Y-93891500D01*
X127851866Y-93891500D01*
X127789684Y-93898255D01*
X127653295Y-93949385D01*
X127536739Y-94036739D01*
X127449385Y-94153295D01*
X127398255Y-94289684D01*
X127391500Y-94351866D01*
X127391500Y-95348134D01*
X127398255Y-95410316D01*
X127449385Y-95546705D01*
X127520155Y-95641132D01*
X127545002Y-95707637D01*
X127529949Y-95777019D01*
X127479775Y-95827250D01*
X127419329Y-95842696D01*
X124380531Y-95842722D01*
X123839946Y-95842727D01*
X123820545Y-95841224D01*
X123796926Y-95837543D01*
X123788027Y-95838705D01*
X123778960Y-95839889D01*
X123755560Y-95840751D01*
X123501892Y-95826465D01*
X123487853Y-95824881D01*
X123474211Y-95822561D01*
X123209692Y-95777576D01*
X123195930Y-95774432D01*
X122924815Y-95696286D01*
X122911488Y-95691620D01*
X122834314Y-95659643D01*
X122650823Y-95583611D01*
X122638095Y-95577479D01*
X122391174Y-95440974D01*
X122379212Y-95433456D01*
X122149121Y-95270162D01*
X122138076Y-95261352D01*
X121927717Y-95073330D01*
X121917728Y-95063339D01*
X121729736Y-94852943D01*
X121720927Y-94841897D01*
X121557667Y-94611771D01*
X121550151Y-94599807D01*
X121541706Y-94584524D01*
X121413690Y-94352867D01*
X121407561Y-94340138D01*
X121299600Y-94079466D01*
X121294934Y-94066131D01*
X121216831Y-93795000D01*
X121213688Y-93781226D01*
X121205649Y-93733907D01*
X121166432Y-93503064D01*
X121164851Y-93489035D01*
X121164696Y-93486259D01*
X121156706Y-93343979D01*
X121151016Y-93242647D01*
X121152318Y-93216201D01*
X121152440Y-93215414D01*
X121152440Y-93215410D01*
X121153822Y-93206535D01*
X121149915Y-93176660D01*
X121148854Y-93159674D01*
X121149200Y-93093384D01*
X121179099Y-87351492D01*
X121185835Y-86057975D01*
X149562769Y-86057975D01*
X149580615Y-86261946D01*
X149582518Y-86272741D01*
X149635510Y-86470512D01*
X149639256Y-86480804D01*
X149725786Y-86666368D01*
X149731269Y-86675863D01*
X149756360Y-86711697D01*
X149766839Y-86720073D01*
X149780285Y-86713005D01*
X150427978Y-86065312D01*
X150435592Y-86051368D01*
X150435461Y-86049535D01*
X150431210Y-86042920D01*
X149779564Y-85391274D01*
X149767789Y-85384844D01*
X149755774Y-85394140D01*
X149731269Y-85429137D01*
X149725786Y-85438632D01*
X149639256Y-85624196D01*
X149635510Y-85634488D01*
X149582518Y-85832259D01*
X149580615Y-85843054D01*
X149562769Y-86047025D01*
X149562769Y-86057975D01*
X121185835Y-86057975D01*
X121197841Y-83752332D01*
X148692000Y-83752332D01*
X148692285Y-83758308D01*
X148706471Y-83906994D01*
X148708730Y-83918728D01*
X148764872Y-84110099D01*
X148769302Y-84121175D01*
X148860619Y-84298478D01*
X148867069Y-84308524D01*
X148990262Y-84465357D01*
X148998499Y-84474006D01*
X149149123Y-84604712D01*
X149158847Y-84611647D01*
X149331467Y-84711510D01*
X149342331Y-84716484D01*
X149530727Y-84781907D01*
X149531716Y-84782148D01*
X149542008Y-84780680D01*
X149546000Y-84767115D01*
X149546000Y-83624615D01*
X149541525Y-83609376D01*
X149540135Y-83608171D01*
X149532452Y-83606500D01*
X148710115Y-83606500D01*
X148694876Y-83610975D01*
X148693671Y-83612365D01*
X148692000Y-83620048D01*
X148692000Y-83752332D01*
X121197841Y-83752332D01*
X121204700Y-82435043D01*
X121225056Y-82367027D01*
X121278953Y-82320814D01*
X121331037Y-82309699D01*
X127746319Y-82326944D01*
G37*
%TD.AperFunction*%
%TA.AperFunction,Conductor*%
G36*
X134266121Y-87766002D02*
G01*
X134312614Y-87819658D01*
X134324000Y-87872000D01*
X134324000Y-89318517D01*
X134328064Y-89332359D01*
X134341478Y-89334393D01*
X134348184Y-89333534D01*
X134358262Y-89331392D01*
X134562255Y-89270191D01*
X134571842Y-89266433D01*
X134763095Y-89172739D01*
X134771945Y-89167464D01*
X134945328Y-89043792D01*
X134953200Y-89037139D01*
X135104052Y-88886812D01*
X135110730Y-88878965D01*
X135238022Y-88701819D01*
X135239279Y-88702722D01*
X135286373Y-88659362D01*
X135356311Y-88647145D01*
X135421751Y-88674678D01*
X135449579Y-88706511D01*
X135509987Y-88805088D01*
X135656250Y-88973938D01*
X135828126Y-89116632D01*
X136021000Y-89229338D01*
X136025825Y-89231180D01*
X136025826Y-89231181D01*
X136098612Y-89258975D01*
X136229692Y-89309030D01*
X136234760Y-89310061D01*
X136234763Y-89310062D01*
X136329862Y-89329410D01*
X136448597Y-89353567D01*
X136453772Y-89353757D01*
X136453774Y-89353757D01*
X136666673Y-89361564D01*
X136666677Y-89361564D01*
X136671837Y-89361753D01*
X136676957Y-89361097D01*
X136676959Y-89361097D01*
X136888288Y-89334025D01*
X136888289Y-89334025D01*
X136893416Y-89333368D01*
X136898366Y-89331883D01*
X137102429Y-89270661D01*
X137102434Y-89270659D01*
X137107384Y-89269174D01*
X137307994Y-89170896D01*
X137489860Y-89041173D01*
X137526695Y-89004467D01*
X137633400Y-88898134D01*
X137648096Y-88883489D01*
X137778453Y-88702077D01*
X137779776Y-88703028D01*
X137826645Y-88659857D01*
X137896580Y-88647625D01*
X137962026Y-88675144D01*
X137989875Y-88706994D01*
X138049987Y-88805088D01*
X138196250Y-88973938D01*
X138368126Y-89116632D01*
X138561000Y-89229338D01*
X138565825Y-89231180D01*
X138565826Y-89231181D01*
X138638612Y-89258975D01*
X138769692Y-89309030D01*
X138774760Y-89310061D01*
X138774763Y-89310062D01*
X138869862Y-89329410D01*
X138988597Y-89353567D01*
X138993772Y-89353757D01*
X138993774Y-89353757D01*
X139206673Y-89361564D01*
X139206677Y-89361564D01*
X139211837Y-89361753D01*
X139216957Y-89361097D01*
X139216959Y-89361097D01*
X139428288Y-89334025D01*
X139428289Y-89334025D01*
X139433416Y-89333368D01*
X139438366Y-89331883D01*
X139642429Y-89270661D01*
X139642434Y-89270659D01*
X139647384Y-89269174D01*
X139847994Y-89170896D01*
X140029860Y-89041173D01*
X140066695Y-89004467D01*
X140173400Y-88898134D01*
X140188096Y-88883489D01*
X140318453Y-88702077D01*
X140319776Y-88703028D01*
X140366645Y-88659857D01*
X140436580Y-88647625D01*
X140502026Y-88675144D01*
X140529875Y-88706994D01*
X140589987Y-88805088D01*
X140736250Y-88973938D01*
X140908126Y-89116632D01*
X141101000Y-89229338D01*
X141105825Y-89231180D01*
X141105826Y-89231181D01*
X141178612Y-89258975D01*
X141309692Y-89309030D01*
X141356322Y-89318517D01*
X141444803Y-89336519D01*
X141507569Y-89369700D01*
X141542431Y-89431548D01*
X141538322Y-89502425D01*
X141496545Y-89559830D01*
X141430366Y-89585535D01*
X141419683Y-89585989D01*
X140364313Y-89585989D01*
X140347867Y-89584911D01*
X140324365Y-89581817D01*
X140316177Y-89580739D01*
X140307989Y-89581817D01*
X140276306Y-89585988D01*
X140276297Y-89585989D01*
X140276292Y-89585989D01*
X140157327Y-89601651D01*
X140009302Y-89662965D01*
X140009300Y-89662966D01*
X140009301Y-89662966D01*
X139914105Y-89736012D01*
X139914102Y-89736015D01*
X139882190Y-89760502D01*
X139877160Y-89767057D01*
X139862725Y-89785868D01*
X139851858Y-89798259D01*
X139681807Y-89968310D01*
X139619495Y-90002336D01*
X139568131Y-90002794D01*
X139493948Y-89988038D01*
X139493945Y-89988038D01*
X139488281Y-89986911D01*
X139482506Y-89986835D01*
X139482502Y-89986835D01*
X139375827Y-89985439D01*
X139275382Y-89984124D01*
X139269685Y-89985103D01*
X139269684Y-89985103D01*
X139071230Y-90019203D01*
X139071227Y-90019204D01*
X139065540Y-90020181D01*
X138865782Y-90093875D01*
X138843138Y-90107347D01*
X138717871Y-90181874D01*
X138682800Y-90202739D01*
X138522720Y-90343125D01*
X138519153Y-90347650D01*
X138519148Y-90347655D01*
X138413682Y-90481439D01*
X138355801Y-90522552D01*
X138305593Y-90529101D01*
X138282179Y-90527398D01*
X138268176Y-90535034D01*
X137389095Y-91414115D01*
X137326783Y-91448141D01*
X137255968Y-91443076D01*
X137210905Y-91414115D01*
X136331520Y-90534730D01*
X136319140Y-90527970D01*
X136313174Y-90532436D01*
X136228257Y-90693836D01*
X136223848Y-90704479D01*
X136164167Y-90896684D01*
X136161773Y-90907946D01*
X136138117Y-91107821D01*
X136137816Y-91119324D01*
X136141110Y-91169589D01*
X136125606Y-91238872D01*
X136075105Y-91288774D01*
X136005643Y-91303452D01*
X135939271Y-91278246D01*
X135926285Y-91266924D01*
X135863127Y-91203766D01*
X135852260Y-91191375D01*
X135837825Y-91172563D01*
X135832799Y-91166013D01*
X135800887Y-91141526D01*
X135800884Y-91141523D01*
X135766225Y-91114928D01*
X135712241Y-91073504D01*
X135712239Y-91073503D01*
X135705688Y-91068476D01*
X135557663Y-91007162D01*
X135549476Y-91006084D01*
X135549475Y-91006084D01*
X135538270Y-91004609D01*
X135507074Y-91000502D01*
X135438697Y-90991500D01*
X135438694Y-90991500D01*
X135438686Y-90991499D01*
X135407001Y-90987328D01*
X135398812Y-90986250D01*
X135367119Y-90990422D01*
X135350676Y-90991500D01*
X133459245Y-90991500D01*
X133391124Y-90971498D01*
X133370150Y-90954595D01*
X132581751Y-90166196D01*
X136686307Y-90166196D01*
X136689793Y-90174583D01*
X137287188Y-90771978D01*
X137301132Y-90779592D01*
X137302965Y-90779461D01*
X137309580Y-90775210D01*
X137906533Y-90178257D01*
X137913293Y-90165877D01*
X137907263Y-90157822D01*
X137832857Y-90110875D01*
X137822609Y-90105654D01*
X137635663Y-90031070D01*
X137624635Y-90027803D01*
X137427230Y-89988537D01*
X137415784Y-89987334D01*
X137214537Y-89984700D01*
X137203057Y-89985603D01*
X137004701Y-90019687D01*
X136993581Y-90022667D01*
X136804748Y-90092331D01*
X136794370Y-90097281D01*
X136695906Y-90155861D01*
X136686307Y-90166196D01*
X132581751Y-90166196D01*
X132175405Y-89759850D01*
X132141379Y-89697538D01*
X132138500Y-89670755D01*
X132138500Y-89293319D01*
X132158502Y-89225198D01*
X132209068Y-89180168D01*
X132219033Y-89175286D01*
X132223353Y-89173170D01*
X132223357Y-89173168D01*
X132227994Y-89170896D01*
X132232198Y-89167898D01*
X132232202Y-89167895D01*
X132321932Y-89103891D01*
X132409860Y-89041173D01*
X132446695Y-89004467D01*
X132553400Y-88898134D01*
X132568096Y-88883489D01*
X132698453Y-88702077D01*
X132699640Y-88702930D01*
X132746960Y-88659362D01*
X132816897Y-88647145D01*
X132882338Y-88674678D01*
X132910166Y-88706511D01*
X132967694Y-88800388D01*
X132973777Y-88808699D01*
X133113213Y-88969667D01*
X133120580Y-88976883D01*
X133284434Y-89112916D01*
X133292881Y-89118831D01*
X133476756Y-89226279D01*
X133486042Y-89230729D01*
X133685001Y-89306703D01*
X133694899Y-89309579D01*
X133798250Y-89330606D01*
X133812299Y-89329410D01*
X133816000Y-89319065D01*
X133816000Y-87872000D01*
X133836002Y-87803879D01*
X133889658Y-87757386D01*
X133942000Y-87746000D01*
X134198000Y-87746000D01*
X134266121Y-87766002D01*
G37*
%TD.AperFunction*%
%TD*%
M02*
