%TF.GenerationSoftware,KiCad,Pcbnew,(6.0.0)*%
%TF.CreationDate,2022-04-23T17:17:18+01:00*%
%TF.ProjectId,BM83 prog,424d3833-2070-4726-9f67-2e6b69636164,rev?*%
%TF.SameCoordinates,Original*%
%TF.FileFunction,Soldermask,Top*%
%TF.FilePolarity,Negative*%
%FSLAX46Y46*%
G04 Gerber Fmt 4.6, Leading zero omitted, Abs format (unit mm)*
G04 Created by KiCad (PCBNEW (6.0.0)) date 2022-04-23 17:17:18*
%MOMM*%
%LPD*%
G01*
G04 APERTURE LIST*
G04 Aperture macros list*
%AMRoundRect*
0 Rectangle with rounded corners*
0 $1 Rounding radius*
0 $2 $3 $4 $5 $6 $7 $8 $9 X,Y pos of 4 corners*
0 Add a 4 corners polygon primitive as box body*
4,1,4,$2,$3,$4,$5,$6,$7,$8,$9,$2,$3,0*
0 Add four circle primitives for the rounded corners*
1,1,$1+$1,$2,$3*
1,1,$1+$1,$4,$5*
1,1,$1+$1,$6,$7*
1,1,$1+$1,$8,$9*
0 Add four rect primitives between the rounded corners*
20,1,$1+$1,$2,$3,$4,$5,0*
20,1,$1+$1,$4,$5,$6,$7,0*
20,1,$1+$1,$6,$7,$8,$9,0*
20,1,$1+$1,$8,$9,$2,$3,0*%
G04 Aperture macros list end*
%ADD10C,1.300000*%
%ADD11C,5.000000*%
%ADD12R,1.700000X1.700000*%
%ADD13O,1.700000X1.700000*%
%ADD14RoundRect,0.237500X0.237500X-0.287500X0.237500X0.287500X-0.237500X0.287500X-0.237500X-0.287500X0*%
%ADD15R,0.400000X1.350000*%
%ADD16R,1.200000X1.900000*%
%ADD17C,1.450000*%
%ADD18R,1.500000X1.900000*%
%ADD19O,1.200000X1.900000*%
%ADD20R,1.000000X0.900000*%
G04 APERTURE END LIST*
D10*
%TO.C,TP34*%
X141500000Y-91144000D03*
%TD*%
%TO.C,TP31*%
X141500000Y-94744000D03*
%TD*%
%TO.C,TP70*%
X143500000Y-91144000D03*
%TD*%
D11*
%TO.C,REF\u002A\u002A*%
X154700000Y-93100000D03*
%TD*%
D12*
%TO.C,J1*%
X126450000Y-88000000D03*
D13*
X128990000Y-88000000D03*
X131530000Y-88000000D03*
X134070000Y-88000000D03*
X136610000Y-88000000D03*
X139150000Y-88000000D03*
X141690000Y-88000000D03*
X144230000Y-88000000D03*
X146770000Y-88000000D03*
%TD*%
D14*
%TO.C,D2*%
X132140744Y-94175000D03*
X132140744Y-92425000D03*
%TD*%
D10*
%TO.C,TP71*%
X138400000Y-92944000D03*
%TD*%
D15*
%TO.C,J2*%
X154600000Y-86052500D03*
X153950000Y-86052500D03*
X153300000Y-86052500D03*
X152650000Y-86052500D03*
X152000000Y-86052500D03*
D16*
X156200000Y-83352500D03*
D17*
X150800000Y-86052500D03*
D16*
X150400000Y-83352500D03*
D18*
X154300000Y-83352500D03*
D19*
X156800000Y-83352500D03*
X149800000Y-83352500D03*
D18*
X152300000Y-83352500D03*
D17*
X155800000Y-86052500D03*
%TD*%
D14*
%TO.C,D1*%
X134640744Y-94175000D03*
X134640744Y-92425000D03*
%TD*%
D20*
%TO.C,MFB*%
X128400000Y-94850000D03*
X128400000Y-90750000D03*
X130000000Y-90750000D03*
X130000000Y-94850000D03*
%TD*%
D10*
%TO.C,TP73*%
X137300000Y-91144000D03*
%TD*%
%TO.C,TP72*%
X140450000Y-92944000D03*
%TD*%
%TO.C,TP33*%
X139366666Y-91144000D03*
%TD*%
%TO.C,TP32*%
X139400000Y-94744000D03*
%TD*%
D11*
%TO.C,*%
X124000000Y-93100000D03*
%TD*%
D10*
%TO.C,TP30*%
X142500000Y-92944000D03*
%TD*%
M02*
