M48
; DRILL file {KiCad (6.0.0)} date Sat Apr 23 17:18:38 2022
; FORMAT={-:-/ absolute / inch / decimal}
; #@! TF.CreationDate,2022-04-23T17:18:38+01:00
; #@! TF.GenerationSoftware,Kicad,Pcbnew,(6.0.0)
; #@! TF.FileFunction,MixedPlating,1,2
FMAT,2
INCH
; #@! TA.AperFunction,Plated,PTH,ViaDrill
T1C0.0157
; #@! TA.AperFunction,Plated,PTH,ComponentDrill
T2C0.0236
; #@! TA.AperFunction,Plated,PTH,ComponentDrill
T3C0.0256
; #@! TA.AperFunction,Plated,PTH,ComponentDrill
T4C0.0335
; #@! TA.AperFunction,Plated,PTH,ComponentDrill
T5C0.0394
; #@! TA.AperFunction,Plated,PTH,ComponentDrill
T6C0.0984
%
G90
G05
T1
X4.7992Y-3.2657
X4.7992Y-3.374
X4.7992Y-3.4862
X4.9843Y-3.5394
X4.9921Y-3.752
X5.0236Y-3.2657
X5.0236Y-3.374
X5.0295Y-3.6555
X5.128Y-3.6555
X5.2185Y-3.2657
X5.2185Y-3.374
X5.2421Y-3.5413
X5.3228Y-3.5413
X5.4429Y-3.2657
X5.4429Y-3.374
X5.628Y-3.2657
X5.628Y-3.374
X5.6673Y-3.752
X5.687Y-3.6614
X5.7283Y-3.2657
X5.7283Y-3.374
X5.7992Y-3.5384
X5.7992Y-3.5797
X5.8169Y-3.6614
X5.8169Y-3.752
X5.8878Y-3.4921
X5.9547Y-3.6594
X5.9547Y-3.752
X5.9724Y-3.4921
X6.0906Y-3.4409
X6.1654Y-3.4902
T3
X5.4055Y-3.5883
X5.4488Y-3.6592
X5.4869Y-3.5883
X5.4882Y-3.7301
X5.5295Y-3.6592
X5.5709Y-3.5883
X5.5709Y-3.7301
X5.6102Y-3.6592
X5.6496Y-3.5883
T4
X5.937Y-3.3879
X6.1339Y-3.3879
T5
X4.9783Y-3.4646
X5.0783Y-3.4646
X5.1783Y-3.4646
X5.2783Y-3.4646
X5.3783Y-3.4646
X5.4783Y-3.4646
X5.5783Y-3.4646
X5.6783Y-3.4646
X5.7783Y-3.4646
T6
X4.8819Y-3.6654
X6.0906Y-3.6654
T2
G00X5.8976Y-3.2954
M15
G01X5.8976Y-3.2678
M16
G05
G00X6.1732Y-3.2678
M15
G01X6.1732Y-3.2954
M16
G05
T0
M30
