<?xml version="1.0" standalone="yes"?>
<!-- SVG graphic -->
<svg xmlns='http://www.w3.org/2000/svg' xmlns:xlink='http://www.w3.org/1999/xlink'
 version="1.1">
<rect x="0" y="5.17242" width="6" height="194.828" stroke="black" stroke-width="1" fill="blue" tooltip="enable"><title>(0,113)</title></rect><rect x="6" y="0" width="6" height="200" stroke="black" stroke-width="1" fill="blue" tooltip="enable"><title>(0.0286438,116)</title></rect><rect x="12" y="8.6207" width="6" height="191.379" stroke="black" stroke-width="1" fill="blue" tooltip="enable"><title>(0.0572876,111)</title></rect><rect x="18" y="43.1035" width="6" height="156.897" stroke="black" stroke-width="1" fill="blue" tooltip="enable"><title>(0.0859315,91)</title></rect><rect x="24" y="70.6897" width="6" height="129.31" stroke="black" stroke-width="1" fill="blue" tooltip="enable"><title>(0.114575,75)</title></rect><rect x="30" y="70.6897" width="6" height="129.31" stroke="black" stroke-width="1" fill="blue" tooltip="enable"><title>(0.143219,75)</title></rect><rect x="36" y="70.6897" width="6" height="129.31" stroke="black" stroke-width="1" fill="blue" tooltip="enable"><title>(0.171863,75)</title></rect><rect x="42" y="68.9655" width="6" height="131.034" stroke="black" stroke-width="1" fill="blue" tooltip="enable"><title>(0.200507,76)</title></rect><rect x="48" y="110.345" width="6" height="89.6552" stroke="black" stroke-width="1" fill="blue" tooltip="enable"><title>(0.229151,52)</title></rect><rect x="54" y="110.345" width="6" height="89.6552" stroke="black" stroke-width="1" fill="blue" tooltip="enable"><title>(0.257794,52)</title></rect><rect x="60" y="101.724" width="6" height="98.2759" stroke="black" stroke-width="1" fill="blue" tooltip="enable"><title>(0.286438,57)</title></rect><rect x="66" y="136.207" width="6" height="63.7931" stroke="black" stroke-width="1" fill="blue" tooltip="enable"><title>(0.315082,37)</title></rect><rect x="72" y="141.379" width="6" height="58.6207" stroke="black" stroke-width="1" fill="blue" tooltip="enable"><title>(0.343726,34)</title></rect><rect x="78" y="131.034" width="6" height="68.9655" stroke="black" stroke-width="1" fill="blue" tooltip="enable"><title>(0.37237,40)</title></rect><rect x="84" y="136.207" width="6" height="63.7931" stroke="black" stroke-width="1" fill="blue" tooltip="enable"><title>(0.401013,37)</title></rect><rect x="90" y="146.552" width="6" height="53.4483" stroke="black" stroke-width="1" fill="blue" tooltip="enable"><title>(0.429657,31)</title></rect><rect x="96" y="156.897" width="6" height="43.1034" stroke="black" stroke-width="1" fill="blue" tooltip="enable"><title>(0.458301,25)</title></rect><rect x="102" y="150" width="6" height="50" stroke="black" stroke-width="1" fill="blue" tooltip="enable"><title>(0.486945,29)</title></rect><rect x="108" y="158.621" width="6" height="41.3793" stroke="black" stroke-width="1" fill="blue" tooltip="enable"><title>(0.515589,24)</title></rect><rect x="114" y="167.241" width="6" height="32.7586" stroke="black" stroke-width="1" fill="blue" tooltip="enable"><title>(0.544233,19)</title></rect><rect x="120" y="162.069" width="6" height="37.931" stroke="black" stroke-width="1" fill="blue" tooltip="enable"><title>(0.572876,22)</title></rect><rect x="126" y="168.966" width="6" height="31.0345" stroke="black" stroke-width="1" fill="blue" tooltip="enable"><title>(0.60152,18)</title></rect><rect x="132" y="172.414" width="6" height="27.5862" stroke="black" stroke-width="1" fill="blue" tooltip="enable"><title>(0.630164,16)</title></rect><rect x="138" y="182.759" width="6" height="17.2414" stroke="black" stroke-width="1" fill="blue" tooltip="enable"><title>(0.658808,10)</title></rect><rect x="144" y="162.069" width="6" height="37.931" stroke="black" stroke-width="1" fill="blue" tooltip="enable"><title>(0.687452,22)</title></rect><rect x="150" y="182.759" width="6" height="17.2414" stroke="black" stroke-width="1" fill="blue" tooltip="enable"><title>(0.716095,10)</title></rect><rect x="156" y="174.138" width="6" height="25.8621" stroke="black" stroke-width="1" fill="blue" tooltip="enable"><title>(0.744739,15)</title></rect><rect x="162" y="179.31" width="6" height="20.6897" stroke="black" stroke-width="1" fill="blue" tooltip="enable"><title>(0.773383,12)</title></rect><rect x="168" y="179.31" width="6" height="20.6897" stroke="black" stroke-width="1" fill="blue" tooltip="enable"><title>(0.802027,12)</title></rect><rect x="174" y="175.862" width="6" height="24.1379" stroke="black" stroke-width="1" fill="blue" tooltip="enable"><title>(0.830671,14)</title></rect><rect x="180" y="177.586" width="6" height="22.4138" stroke="black" stroke-width="1" fill="blue" tooltip="enable"><title>(0.859315,13)</title></rect><rect x="186" y="186.207" width="6" height="13.7931" stroke="black" stroke-width="1" fill="blue" tooltip="enable"><title>(0.887958,8)</title></rect><rect x="192" y="189.655" width="6" height="10.3448" stroke="black" stroke-width="1" fill="blue" tooltip="enable"><title>(0.916602,6)</title></rect><rect x="198" y="194.828" width="6" height="5.17241" stroke="black" stroke-width="1" fill="blue" tooltip="enable"><title>(0.945246,3)</title></rect><rect x="204" y="181.034" width="6" height="18.9655" stroke="black" stroke-width="1" fill="blue" tooltip="enable"><title>(0.97389,11)</title></rect><rect x="210" y="194.828" width="6" height="5.17241" stroke="black" stroke-width="1" fill="blue" tooltip="enable"><title>(1.00253,3)</title></rect><rect x="216" y="187.931" width="6" height="12.069" stroke="black" stroke-width="1" fill="blue" tooltip="enable"><title>(1.03118,7)</title></rect><rect x="222" y="193.103" width="6" height="6.89655" stroke="black" stroke-width="1" fill="blue" tooltip="enable"><title>(1.05982,4)</title></rect><rect x="228" y="198.276" width="6" height="1.72414" stroke="black" stroke-width="1" fill="blue" tooltip="enable"><title>(1.08847,1)</title></rect><rect x="234" y="193.103" width="6" height="6.89655" stroke="black" stroke-width="1" fill="blue" tooltip="enable"><title>(1.11711,4)</title></rect><rect x="240" y="194.828" width="6" height="5.17241" stroke="black" stroke-width="1" fill="blue" tooltip="enable"><title>(1.14575,3)</title></rect><rect x="246" y="194.828" width="6" height="5.17241" stroke="black" stroke-width="1" fill="blue" tooltip="enable"><title>(1.1744,3)</title></rect><rect x="252" y="189.655" width="6" height="10.3448" stroke="black" stroke-width="1" fill="blue" tooltip="enable"><title>(1.20304,6)</title></rect><rect x="258" y="198.276" width="6" height="1.72414" stroke="black" stroke-width="1" fill="blue" tooltip="enable"><title>(1.23168,1)</title></rect><rect x="264" y="193.103" width="6" height="6.89655" stroke="black" stroke-width="1" fill="blue" tooltip="enable"><title>(1.26033,4)</title></rect><rect x="270" y="189.655" width="6" height="10.3448" stroke="black" stroke-width="1" fill="blue" tooltip="enable"><title>(1.28897,6)</title></rect><rect x="276" y="198.276" width="6" height="1.72414" stroke="black" stroke-width="1" fill="blue" tooltip="enable"><title>(1.31762,1)</title></rect><rect x="282" y="198.276" width="6" height="1.72414" stroke="black" stroke-width="1" fill="blue" tooltip="enable"><title>(1.34626,1)</title></rect><rect x="288" y="200" width="6" height="0" stroke="black" stroke-width="1" fill="blue" tooltip="enable"><title>(1.3749,0)</title></rect><rect x="294" y="194.828" width="6" height="5.17241" stroke="black" stroke-width="1" fill="blue" tooltip="enable"><title>(1.40355,3)</title></rect><rect x="300" y="196.552" width="6" height="3.44828" stroke="black" stroke-width="1" fill="blue" tooltip="enable"><title>(1.43219,2)</title></rect><rect x="306" y="193.103" width="6" height="6.89655" stroke="black" stroke-width="1" fill="blue" tooltip="enable"><title>(1.46083,4)</title></rect><rect x="312" y="196.552" width="6" height="3.44828" stroke="black" stroke-width="1" fill="blue" tooltip="enable"><title>(1.48948,2)</title></rect><rect x="318" y="194.828" width="6" height="5.17241" stroke="black" stroke-width="1" fill="blue" tooltip="enable"><title>(1.51812,3)</title></rect><rect x="324" y="196.552" width="6" height="3.44828" stroke="black" stroke-width="1" fill="blue" tooltip="enable"><title>(1.54677,2)</title></rect><rect x="330" y="200" width="6" height="0" stroke="black" stroke-width="1" fill="blue" tooltip="enable"><title>(1.57541,0)</title></rect><rect x="336" y="196.552" width="6" height="3.44828" stroke="black" stroke-width="1" fill="blue" tooltip="enable"><title>(1.60405,2)</title></rect><rect x="342" y="196.552" width="6" height="3.44828" stroke="black" stroke-width="1" fill="blue" tooltip="enable"><title>(1.6327,2)</title></rect><rect x="348" y="200" width="6" height="0" stroke="black" stroke-width="1" fill="blue" tooltip="enable"><title>(1.66134,0)</title></rect><rect x="354" y="200" width="6" height="0" stroke="black" stroke-width="1" fill="blue" tooltip="enable"><title>(1.68999,0)</title></rect><rect x="360" y="200" width="6" height="0" stroke="black" stroke-width="1" fill="blue" tooltip="enable"><title>(1.71863,0)</title></rect><rect x="366" y="198.276" width="6" height="1.72414" stroke="black" stroke-width="1" fill="blue" tooltip="enable"><title>(1.74727,1)</title></rect><rect x="372" y="200" width="6" height="0" stroke="black" stroke-width="1" fill="blue" tooltip="enable"><title>(1.77592,0)</title></rect><rect x="378" y="198.276" width="6" height="1.72414" stroke="black" stroke-width="1" fill="blue" tooltip="enable"><title>(1.80456,1)</title></rect><rect x="384" y="200" width="6" height="0" stroke="black" stroke-width="1" fill="blue" tooltip="enable"><title>(1.8332,0)</title></rect><rect x="390" y="200" width="6" height="0" stroke="black" stroke-width="1" fill="blue" tooltip="enable"><title>(1.86185,0)</title></rect><rect x="396" y="200" width="6" height="0" stroke="black" stroke-width="1" fill="blue" tooltip="enable"><title>(1.89049,0)</title></rect><rect x="402" y="194.828" width="6" height="5.17241" stroke="black" stroke-width="1" fill="blue" tooltip="enable"><title>(1.91914,3)</title></rect><rect x="408" y="200" width="6" height="0" stroke="black" stroke-width="1" fill="blue" tooltip="enable"><title>(1.94778,0)</title></rect><rect x="414" y="200" width="6" height="0" stroke="black" stroke-width="1" fill="blue" tooltip="enable"><title>(1.97642,0)</title></rect><rect x="420" y="198.276" width="6" height="1.72414" stroke="black" stroke-width="1" fill="blue" tooltip="enable"><title>(2.00507,1)</title></rect><rect x="426" y="200" width="6" height="0" stroke="black" stroke-width="1" fill="blue" tooltip="enable"><title>(2.03371,0)</title></rect><rect x="432" y="200" width="6" height="0" stroke="black" stroke-width="1" fill="blue" tooltip="enable"><title>(2.06236,0)</title></rect><rect x="438" y="200" width="6" height="0" stroke="black" stroke-width="1" fill="blue" tooltip="enable"><title>(2.091,0)</title></rect><rect x="444" y="200" width="6" height="0" stroke="black" stroke-width="1" fill="blue" tooltip="enable"><title>(2.11964,0)</title></rect><rect x="450" y="200" width="6" height="0" stroke="black" stroke-width="1" fill="blue" tooltip="enable"><title>(2.14829,0)</title></rect><rect x="456" y="200" width="6" height="0" stroke="black" stroke-width="1" fill="blue" tooltip="enable"><title>(2.17693,0)</title></rect><rect x="462" y="200" width="6" height="0" stroke="black" stroke-width="1" fill="blue" tooltip="enable"><title>(2.20557,0)</title></rect><rect x="468" y="196.552" width="6" height="3.44828" stroke="black" stroke-width="1" fill="blue" tooltip="enable"><title>(2.23422,2)</title></rect><rect x="474" y="200" width="6" height="0" stroke="black" stroke-width="1" fill="blue" tooltip="enable"><title>(2.26286,0)</title></rect><rect x="480" y="200" width="6" height="0" stroke="black" stroke-width="1" fill="blue" tooltip="enable"><title>(2.29151,0)</title></rect><rect x="486" y="200" width="6" height="0" stroke="black" stroke-width="1" fill="blue" tooltip="enable"><title>(2.32015,0)</title></rect><rect x="492" y="200" width="6" height="0" stroke="black" stroke-width="1" fill="blue" tooltip="enable"><title>(2.34879,0)</title></rect><rect x="498" y="200" width="6" height="0" stroke="black" stroke-width="1" fill="blue" tooltip="enable"><title>(2.37744,0)</title></rect><rect x="504" y="200" width="6" height="0" stroke="black" stroke-width="1" fill="blue" tooltip="enable"><title>(2.40608,0)</title></rect><rect x="510" y="200" width="6" height="0" stroke="black" stroke-width="1" fill="blue" tooltip="enable"><title>(2.43472,0)</title></rect><rect x="516" y="200" width="6" height="0" stroke="black" stroke-width="1" fill="blue" tooltip="enable"><title>(2.46337,0)</title></rect><rect x="522" y="200" width="6" height="0" stroke="black" stroke-width="1" fill="blue" tooltip="enable"><title>(2.49201,0)</title></rect><rect x="528" y="200" width="6" height="0" stroke="black" stroke-width="1" fill="blue" tooltip="enable"><title>(2.52066,0)</title></rect><rect x="534" y="200" width="6" height="0" stroke="black" stroke-width="1" fill="blue" tooltip="enable"><title>(2.5493,0)</title></rect><rect x="540" y="198.276" width="6" height="1.72414" stroke="black" stroke-width="1" fill="blue" tooltip="enable"><title>(2.57794,1)</title></rect><rect x="546" y="200" width="6" height="0" stroke="black" stroke-width="1" fill="blue" tooltip="enable"><title>(2.60659,0)</title></rect><rect x="552" y="200" width="6" height="0" stroke="black" stroke-width="1" fill="blue" tooltip="enable"><title>(2.63523,0)</title></rect><rect x="558" y="200" width="6" height="0" stroke="black" stroke-width="1" fill="blue" tooltip="enable"><title>(2.66388,0)</title></rect><rect x="564" y="200" width="6" height="0" stroke="black" stroke-width="1" fill="blue" tooltip="enable"><title>(2.69252,0)</title></rect><rect x="570" y="200" width="6" height="0" stroke="black" stroke-width="1" fill="blue" tooltip="enable"><title>(2.72116,0)</title></rect><rect x="576" y="198.276" width="6" height="1.72414" stroke="black" stroke-width="1" fill="blue" tooltip="enable"><title>(2.74981,1)</title></rect><rect x="582" y="200" width="6" height="0" stroke="black" stroke-width="1" fill="blue" tooltip="enable"><title>(2.77845,0)</title></rect><rect x="588" y="200" width="6" height="0" stroke="black" stroke-width="1" fill="blue" tooltip="enable"><title>(2.80709,0)</title></rect><rect x="594" y="198.276" width="6" height="1.72414" stroke="black" stroke-width="1" fill="blue" tooltip="enable"><title>(2.83574,1)</title></rect><text x="30" y="240" font-size="20" fill="black">0</text>
<text x="600" y="240" font-size="20" fill="black">2.86438</text>
<polyline points="0,220,600,220" stroke="black" stroke-width="1" fill="none"/>
<text x="720" y="20" font-size="20" fill="black">116</text>
<text x="720" y="200" font-size="20" fill="black">0</text>
<polyline points="660,0,660,200" stroke="black" stroke-width="1" fill="none"/>
</svg>