%TF.GenerationSoftware,KiCad,Pcbnew,(5.1.9)-1*%
%TF.CreationDate,2021-08-08T21:49:21+01:00*%
%TF.ProjectId,glassphones - main pcb,676c6173-7370-4686-9f6e-6573202d206d,rev?*%
%TF.SameCoordinates,Original*%
%TF.FileFunction,Paste,Bot*%
%TF.FilePolarity,Positive*%
%FSLAX46Y46*%
G04 Gerber Fmt 4.6, Leading zero omitted, Abs format (unit mm)*
G04 Created by KiCad (PCBNEW (5.1.9)-1) date 2021-08-08 21:49:21*
%MOMM*%
%LPD*%
G01*
G04 APERTURE LIST*
%ADD10C,0.100000*%
%ADD11R,1.041400X1.549400*%
%ADD12R,1.549400X1.041400*%
%ADD13R,0.838200X1.549400*%
%ADD14R,1.498600X1.498600*%
%ADD15R,0.762000X1.803400*%
%ADD16R,3.352800X3.352800*%
%ADD17R,0.254000X0.965200*%
%ADD18R,0.965200X0.254000*%
G04 APERTURE END LIST*
D10*
%TO.C,U2*%
G36*
X176326400Y-49923600D02*
G01*
X176326400Y-51400000D01*
X174850000Y-51400000D01*
X174850000Y-49923600D01*
X176326400Y-49923600D01*
G37*
X176326400Y-49923600D02*
X176326400Y-51400000D01*
X174850000Y-51400000D01*
X174850000Y-49923600D01*
X176326400Y-49923600D01*
G36*
X176326400Y-51600000D02*
G01*
X176326400Y-53076400D01*
X174850000Y-53076400D01*
X174850000Y-51600000D01*
X176326400Y-51600000D01*
G37*
X176326400Y-51600000D02*
X176326400Y-53076400D01*
X174850000Y-53076400D01*
X174850000Y-51600000D01*
X176326400Y-51600000D01*
G36*
X174650000Y-49923600D02*
G01*
X174650000Y-51400000D01*
X173173600Y-51400000D01*
X173173600Y-49923600D01*
X174650000Y-49923600D01*
G37*
X174650000Y-49923600D02*
X174650000Y-51400000D01*
X173173600Y-51400000D01*
X173173600Y-49923600D01*
X174650000Y-49923600D01*
G36*
X174650000Y-51600000D02*
G01*
X174650000Y-53076400D01*
X173173600Y-53076400D01*
X173173600Y-51600000D01*
X174650000Y-51600000D01*
G37*
X174650000Y-51600000D02*
X174650000Y-53076400D01*
X173173600Y-53076400D01*
X173173600Y-51600000D01*
X174650000Y-51600000D01*
%TD*%
D11*
%TO.C,J2*%
X157804294Y-49381298D03*
D12*
X146650316Y-48060300D03*
D13*
X158205208Y-46956299D03*
X146294792Y-46306298D03*
D14*
X157875000Y-39481699D03*
X146625000Y-39481699D03*
D15*
X155800712Y-39329299D03*
X154700711Y-39329299D03*
X153600711Y-39329299D03*
X152500711Y-39329299D03*
X151400713Y-39329299D03*
X150300713Y-39329299D03*
X149200712Y-39329299D03*
X148100712Y-39329299D03*
%TD*%
D16*
%TO.C,U2*%
X174750000Y-51500000D03*
D17*
X176250000Y-49125100D03*
X175750001Y-49125100D03*
X175249999Y-49125100D03*
X174750000Y-49125100D03*
X174250001Y-49125100D03*
X173749999Y-49125100D03*
X173250000Y-49125100D03*
D18*
X172375100Y-50000000D03*
X172375100Y-50499999D03*
X172375100Y-51000001D03*
X172375100Y-51500000D03*
X172375100Y-51999999D03*
X172375100Y-52500001D03*
X172375100Y-53000000D03*
D17*
X173250000Y-53874900D03*
X173749999Y-53874900D03*
X174250001Y-53874900D03*
X174750000Y-53874900D03*
X175249999Y-53874900D03*
X175750001Y-53874900D03*
X176250000Y-53874900D03*
D18*
X177124900Y-53000000D03*
X177124900Y-52500001D03*
X177124900Y-51999999D03*
X177124900Y-51500000D03*
X177124900Y-51000001D03*
X177124900Y-50499999D03*
X177124900Y-50000000D03*
%TD*%
%TO.C,R12*%
G36*
G01*
X186575000Y-41725000D02*
X186575000Y-42275000D01*
G75*
G02*
X186375000Y-42475000I-200000J0D01*
G01*
X185975000Y-42475000D01*
G75*
G02*
X185775000Y-42275000I0J200000D01*
G01*
X185775000Y-41725000D01*
G75*
G02*
X185975000Y-41525000I200000J0D01*
G01*
X186375000Y-41525000D01*
G75*
G02*
X186575000Y-41725000I0J-200000D01*
G01*
G37*
G36*
G01*
X188225000Y-41725000D02*
X188225000Y-42275000D01*
G75*
G02*
X188025000Y-42475000I-200000J0D01*
G01*
X187625000Y-42475000D01*
G75*
G02*
X187425000Y-42275000I0J200000D01*
G01*
X187425000Y-41725000D01*
G75*
G02*
X187625000Y-41525000I200000J0D01*
G01*
X188025000Y-41525000D01*
G75*
G02*
X188225000Y-41725000I0J-200000D01*
G01*
G37*
%TD*%
%TO.C,R11*%
G36*
G01*
X187425000Y-59275000D02*
X187425000Y-58725000D01*
G75*
G02*
X187625000Y-58525000I200000J0D01*
G01*
X188025000Y-58525000D01*
G75*
G02*
X188225000Y-58725000I0J-200000D01*
G01*
X188225000Y-59275000D01*
G75*
G02*
X188025000Y-59475000I-200000J0D01*
G01*
X187625000Y-59475000D01*
G75*
G02*
X187425000Y-59275000I0J200000D01*
G01*
G37*
G36*
G01*
X185775000Y-59275000D02*
X185775000Y-58725000D01*
G75*
G02*
X185975000Y-58525000I200000J0D01*
G01*
X186375000Y-58525000D01*
G75*
G02*
X186575000Y-58725000I0J-200000D01*
G01*
X186575000Y-59275000D01*
G75*
G02*
X186375000Y-59475000I-200000J0D01*
G01*
X185975000Y-59475000D01*
G75*
G02*
X185775000Y-59275000I0J200000D01*
G01*
G37*
%TD*%
%TO.C,R10*%
G36*
G01*
X187425000Y-55025000D02*
X187425000Y-54475000D01*
G75*
G02*
X187625000Y-54275000I200000J0D01*
G01*
X188025000Y-54275000D01*
G75*
G02*
X188225000Y-54475000I0J-200000D01*
G01*
X188225000Y-55025000D01*
G75*
G02*
X188025000Y-55225000I-200000J0D01*
G01*
X187625000Y-55225000D01*
G75*
G02*
X187425000Y-55025000I0J200000D01*
G01*
G37*
G36*
G01*
X185775000Y-55025000D02*
X185775000Y-54475000D01*
G75*
G02*
X185975000Y-54275000I200000J0D01*
G01*
X186375000Y-54275000D01*
G75*
G02*
X186575000Y-54475000I0J-200000D01*
G01*
X186575000Y-55025000D01*
G75*
G02*
X186375000Y-55225000I-200000J0D01*
G01*
X185975000Y-55225000D01*
G75*
G02*
X185775000Y-55025000I0J200000D01*
G01*
G37*
%TD*%
%TO.C,R9*%
G36*
G01*
X187425000Y-50775000D02*
X187425000Y-50225000D01*
G75*
G02*
X187625000Y-50025000I200000J0D01*
G01*
X188025000Y-50025000D01*
G75*
G02*
X188225000Y-50225000I0J-200000D01*
G01*
X188225000Y-50775000D01*
G75*
G02*
X188025000Y-50975000I-200000J0D01*
G01*
X187625000Y-50975000D01*
G75*
G02*
X187425000Y-50775000I0J200000D01*
G01*
G37*
G36*
G01*
X185775000Y-50775000D02*
X185775000Y-50225000D01*
G75*
G02*
X185975000Y-50025000I200000J0D01*
G01*
X186375000Y-50025000D01*
G75*
G02*
X186575000Y-50225000I0J-200000D01*
G01*
X186575000Y-50775000D01*
G75*
G02*
X186375000Y-50975000I-200000J0D01*
G01*
X185975000Y-50975000D01*
G75*
G02*
X185775000Y-50775000I0J200000D01*
G01*
G37*
%TD*%
%TO.C,R8*%
G36*
G01*
X187425000Y-46525000D02*
X187425000Y-45975000D01*
G75*
G02*
X187625000Y-45775000I200000J0D01*
G01*
X188025000Y-45775000D01*
G75*
G02*
X188225000Y-45975000I0J-200000D01*
G01*
X188225000Y-46525000D01*
G75*
G02*
X188025000Y-46725000I-200000J0D01*
G01*
X187625000Y-46725000D01*
G75*
G02*
X187425000Y-46525000I0J200000D01*
G01*
G37*
G36*
G01*
X185775000Y-46525000D02*
X185775000Y-45975000D01*
G75*
G02*
X185975000Y-45775000I200000J0D01*
G01*
X186375000Y-45775000D01*
G75*
G02*
X186575000Y-45975000I0J-200000D01*
G01*
X186575000Y-46525000D01*
G75*
G02*
X186375000Y-46725000I-200000J0D01*
G01*
X185975000Y-46725000D01*
G75*
G02*
X185775000Y-46525000I0J200000D01*
G01*
G37*
%TD*%
%TO.C,C8*%
G36*
G01*
X179750000Y-52075000D02*
X180250000Y-52075000D01*
G75*
G02*
X180475000Y-52300000I0J-225000D01*
G01*
X180475000Y-52750000D01*
G75*
G02*
X180250000Y-52975000I-225000J0D01*
G01*
X179750000Y-52975000D01*
G75*
G02*
X179525000Y-52750000I0J225000D01*
G01*
X179525000Y-52300000D01*
G75*
G02*
X179750000Y-52075000I225000J0D01*
G01*
G37*
G36*
G01*
X179750000Y-50525000D02*
X180250000Y-50525000D01*
G75*
G02*
X180475000Y-50750000I0J-225000D01*
G01*
X180475000Y-51200000D01*
G75*
G02*
X180250000Y-51425000I-225000J0D01*
G01*
X179750000Y-51425000D01*
G75*
G02*
X179525000Y-51200000I0J225000D01*
G01*
X179525000Y-50750000D01*
G75*
G02*
X179750000Y-50525000I225000J0D01*
G01*
G37*
%TD*%
%TO.C,C7*%
G36*
G01*
X177825000Y-47250000D02*
X177825000Y-46750000D01*
G75*
G02*
X178050000Y-46525000I225000J0D01*
G01*
X178500000Y-46525000D01*
G75*
G02*
X178725000Y-46750000I0J-225000D01*
G01*
X178725000Y-47250000D01*
G75*
G02*
X178500000Y-47475000I-225000J0D01*
G01*
X178050000Y-47475000D01*
G75*
G02*
X177825000Y-47250000I0J225000D01*
G01*
G37*
G36*
G01*
X176275000Y-47250000D02*
X176275000Y-46750000D01*
G75*
G02*
X176500000Y-46525000I225000J0D01*
G01*
X176950000Y-46525000D01*
G75*
G02*
X177175000Y-46750000I0J-225000D01*
G01*
X177175000Y-47250000D01*
G75*
G02*
X176950000Y-47475000I-225000J0D01*
G01*
X176500000Y-47475000D01*
G75*
G02*
X176275000Y-47250000I0J225000D01*
G01*
G37*
%TD*%
%TO.C,C6*%
G36*
G01*
X167675000Y-49750000D02*
X167675000Y-50250000D01*
G75*
G02*
X167450000Y-50475000I-225000J0D01*
G01*
X167000000Y-50475000D01*
G75*
G02*
X166775000Y-50250000I0J225000D01*
G01*
X166775000Y-49750000D01*
G75*
G02*
X167000000Y-49525000I225000J0D01*
G01*
X167450000Y-49525000D01*
G75*
G02*
X167675000Y-49750000I0J-225000D01*
G01*
G37*
G36*
G01*
X169225000Y-49750000D02*
X169225000Y-50250000D01*
G75*
G02*
X169000000Y-50475000I-225000J0D01*
G01*
X168550000Y-50475000D01*
G75*
G02*
X168325000Y-50250000I0J225000D01*
G01*
X168325000Y-49750000D01*
G75*
G02*
X168550000Y-49525000I225000J0D01*
G01*
X169000000Y-49525000D01*
G75*
G02*
X169225000Y-49750000I0J-225000D01*
G01*
G37*
%TD*%
%TO.C,C5*%
G36*
G01*
X168325000Y-55500000D02*
X168325000Y-55000000D01*
G75*
G02*
X168550000Y-54775000I225000J0D01*
G01*
X169000000Y-54775000D01*
G75*
G02*
X169225000Y-55000000I0J-225000D01*
G01*
X169225000Y-55500000D01*
G75*
G02*
X169000000Y-55725000I-225000J0D01*
G01*
X168550000Y-55725000D01*
G75*
G02*
X168325000Y-55500000I0J225000D01*
G01*
G37*
G36*
G01*
X166775000Y-55500000D02*
X166775000Y-55000000D01*
G75*
G02*
X167000000Y-54775000I225000J0D01*
G01*
X167450000Y-54775000D01*
G75*
G02*
X167675000Y-55000000I0J-225000D01*
G01*
X167675000Y-55500000D01*
G75*
G02*
X167450000Y-55725000I-225000J0D01*
G01*
X167000000Y-55725000D01*
G75*
G02*
X166775000Y-55500000I0J225000D01*
G01*
G37*
%TD*%
%TO.C,C4*%
G36*
G01*
X168325000Y-52000000D02*
X168325000Y-51500000D01*
G75*
G02*
X168550000Y-51275000I225000J0D01*
G01*
X169000000Y-51275000D01*
G75*
G02*
X169225000Y-51500000I0J-225000D01*
G01*
X169225000Y-52000000D01*
G75*
G02*
X169000000Y-52225000I-225000J0D01*
G01*
X168550000Y-52225000D01*
G75*
G02*
X168325000Y-52000000I0J225000D01*
G01*
G37*
G36*
G01*
X166775000Y-52000000D02*
X166775000Y-51500000D01*
G75*
G02*
X167000000Y-51275000I225000J0D01*
G01*
X167450000Y-51275000D01*
G75*
G02*
X167675000Y-51500000I0J-225000D01*
G01*
X167675000Y-52000000D01*
G75*
G02*
X167450000Y-52225000I-225000J0D01*
G01*
X167000000Y-52225000D01*
G75*
G02*
X166775000Y-52000000I0J225000D01*
G01*
G37*
%TD*%
%TO.C,C3*%
G36*
G01*
X168325000Y-53750000D02*
X168325000Y-53250000D01*
G75*
G02*
X168550000Y-53025000I225000J0D01*
G01*
X169000000Y-53025000D01*
G75*
G02*
X169225000Y-53250000I0J-225000D01*
G01*
X169225000Y-53750000D01*
G75*
G02*
X169000000Y-53975000I-225000J0D01*
G01*
X168550000Y-53975000D01*
G75*
G02*
X168325000Y-53750000I0J225000D01*
G01*
G37*
G36*
G01*
X166775000Y-53750000D02*
X166775000Y-53250000D01*
G75*
G02*
X167000000Y-53025000I225000J0D01*
G01*
X167450000Y-53025000D01*
G75*
G02*
X167675000Y-53250000I0J-225000D01*
G01*
X167675000Y-53750000D01*
G75*
G02*
X167450000Y-53975000I-225000J0D01*
G01*
X167000000Y-53975000D01*
G75*
G02*
X166775000Y-53750000I0J225000D01*
G01*
G37*
%TD*%
%TO.C,C2*%
G36*
G01*
X171325000Y-47250000D02*
X171325000Y-46750000D01*
G75*
G02*
X171550000Y-46525000I225000J0D01*
G01*
X172000000Y-46525000D01*
G75*
G02*
X172225000Y-46750000I0J-225000D01*
G01*
X172225000Y-47250000D01*
G75*
G02*
X172000000Y-47475000I-225000J0D01*
G01*
X171550000Y-47475000D01*
G75*
G02*
X171325000Y-47250000I0J225000D01*
G01*
G37*
G36*
G01*
X169775000Y-47250000D02*
X169775000Y-46750000D01*
G75*
G02*
X170000000Y-46525000I225000J0D01*
G01*
X170450000Y-46525000D01*
G75*
G02*
X170675000Y-46750000I0J-225000D01*
G01*
X170675000Y-47250000D01*
G75*
G02*
X170450000Y-47475000I-225000J0D01*
G01*
X170000000Y-47475000D01*
G75*
G02*
X169775000Y-47250000I0J225000D01*
G01*
G37*
%TD*%
%TO.C,C1*%
G36*
G01*
X173925000Y-46750000D02*
X173925000Y-47250000D01*
G75*
G02*
X173700000Y-47475000I-225000J0D01*
G01*
X173250000Y-47475000D01*
G75*
G02*
X173025000Y-47250000I0J225000D01*
G01*
X173025000Y-46750000D01*
G75*
G02*
X173250000Y-46525000I225000J0D01*
G01*
X173700000Y-46525000D01*
G75*
G02*
X173925000Y-46750000I0J-225000D01*
G01*
G37*
G36*
G01*
X175475000Y-46750000D02*
X175475000Y-47250000D01*
G75*
G02*
X175250000Y-47475000I-225000J0D01*
G01*
X174800000Y-47475000D01*
G75*
G02*
X174575000Y-47250000I0J225000D01*
G01*
X174575000Y-46750000D01*
G75*
G02*
X174800000Y-46525000I225000J0D01*
G01*
X175250000Y-46525000D01*
G75*
G02*
X175475000Y-46750000I0J-225000D01*
G01*
G37*
%TD*%
%TO.C,D5*%
G36*
G01*
X186650000Y-39993750D02*
X186650000Y-40506250D01*
G75*
G02*
X186431250Y-40725000I-218750J0D01*
G01*
X185993750Y-40725000D01*
G75*
G02*
X185775000Y-40506250I0J218750D01*
G01*
X185775000Y-39993750D01*
G75*
G02*
X185993750Y-39775000I218750J0D01*
G01*
X186431250Y-39775000D01*
G75*
G02*
X186650000Y-39993750I0J-218750D01*
G01*
G37*
G36*
G01*
X188225000Y-39993750D02*
X188225000Y-40506250D01*
G75*
G02*
X188006250Y-40725000I-218750J0D01*
G01*
X187568750Y-40725000D01*
G75*
G02*
X187350000Y-40506250I0J218750D01*
G01*
X187350000Y-39993750D01*
G75*
G02*
X187568750Y-39775000I218750J0D01*
G01*
X188006250Y-39775000D01*
G75*
G02*
X188225000Y-39993750I0J-218750D01*
G01*
G37*
%TD*%
%TO.C,D4*%
G36*
G01*
X186650000Y-56993750D02*
X186650000Y-57506250D01*
G75*
G02*
X186431250Y-57725000I-218750J0D01*
G01*
X185993750Y-57725000D01*
G75*
G02*
X185775000Y-57506250I0J218750D01*
G01*
X185775000Y-56993750D01*
G75*
G02*
X185993750Y-56775000I218750J0D01*
G01*
X186431250Y-56775000D01*
G75*
G02*
X186650000Y-56993750I0J-218750D01*
G01*
G37*
G36*
G01*
X188225000Y-56993750D02*
X188225000Y-57506250D01*
G75*
G02*
X188006250Y-57725000I-218750J0D01*
G01*
X187568750Y-57725000D01*
G75*
G02*
X187350000Y-57506250I0J218750D01*
G01*
X187350000Y-56993750D01*
G75*
G02*
X187568750Y-56775000I218750J0D01*
G01*
X188006250Y-56775000D01*
G75*
G02*
X188225000Y-56993750I0J-218750D01*
G01*
G37*
%TD*%
%TO.C,D3*%
G36*
G01*
X186650000Y-52743750D02*
X186650000Y-53256250D01*
G75*
G02*
X186431250Y-53475000I-218750J0D01*
G01*
X185993750Y-53475000D01*
G75*
G02*
X185775000Y-53256250I0J218750D01*
G01*
X185775000Y-52743750D01*
G75*
G02*
X185993750Y-52525000I218750J0D01*
G01*
X186431250Y-52525000D01*
G75*
G02*
X186650000Y-52743750I0J-218750D01*
G01*
G37*
G36*
G01*
X188225000Y-52743750D02*
X188225000Y-53256250D01*
G75*
G02*
X188006250Y-53475000I-218750J0D01*
G01*
X187568750Y-53475000D01*
G75*
G02*
X187350000Y-53256250I0J218750D01*
G01*
X187350000Y-52743750D01*
G75*
G02*
X187568750Y-52525000I218750J0D01*
G01*
X188006250Y-52525000D01*
G75*
G02*
X188225000Y-52743750I0J-218750D01*
G01*
G37*
%TD*%
%TO.C,D2*%
G36*
G01*
X186650000Y-48493750D02*
X186650000Y-49006250D01*
G75*
G02*
X186431250Y-49225000I-218750J0D01*
G01*
X185993750Y-49225000D01*
G75*
G02*
X185775000Y-49006250I0J218750D01*
G01*
X185775000Y-48493750D01*
G75*
G02*
X185993750Y-48275000I218750J0D01*
G01*
X186431250Y-48275000D01*
G75*
G02*
X186650000Y-48493750I0J-218750D01*
G01*
G37*
G36*
G01*
X188225000Y-48493750D02*
X188225000Y-49006250D01*
G75*
G02*
X188006250Y-49225000I-218750J0D01*
G01*
X187568750Y-49225000D01*
G75*
G02*
X187350000Y-49006250I0J218750D01*
G01*
X187350000Y-48493750D01*
G75*
G02*
X187568750Y-48275000I218750J0D01*
G01*
X188006250Y-48275000D01*
G75*
G02*
X188225000Y-48493750I0J-218750D01*
G01*
G37*
%TD*%
%TO.C,D1*%
G36*
G01*
X186650000Y-44243750D02*
X186650000Y-44756250D01*
G75*
G02*
X186431250Y-44975000I-218750J0D01*
G01*
X185993750Y-44975000D01*
G75*
G02*
X185775000Y-44756250I0J218750D01*
G01*
X185775000Y-44243750D01*
G75*
G02*
X185993750Y-44025000I218750J0D01*
G01*
X186431250Y-44025000D01*
G75*
G02*
X186650000Y-44243750I0J-218750D01*
G01*
G37*
G36*
G01*
X188225000Y-44243750D02*
X188225000Y-44756250D01*
G75*
G02*
X188006250Y-44975000I-218750J0D01*
G01*
X187568750Y-44975000D01*
G75*
G02*
X187350000Y-44756250I0J218750D01*
G01*
X187350000Y-44243750D01*
G75*
G02*
X187568750Y-44025000I218750J0D01*
G01*
X188006250Y-44025000D01*
G75*
G02*
X188225000Y-44243750I0J-218750D01*
G01*
G37*
%TD*%
M02*
