%TF.GenerationSoftware,KiCad,Pcbnew,(5.1.9)-1*%
%TF.CreationDate,2021-08-08T21:49:21+01:00*%
%TF.ProjectId,glassphones - main pcb,676c6173-7370-4686-9f6e-6573202d206d,rev?*%
%TF.SameCoordinates,Original*%
%TF.FileFunction,Copper,L1,Top*%
%TF.FilePolarity,Positive*%
%FSLAX46Y46*%
G04 Gerber Fmt 4.6, Leading zero omitted, Abs format (unit mm)*
G04 Created by KiCad (PCBNEW (5.1.9)-1) date 2021-08-08 21:49:21*
%MOMM*%
%LPD*%
G01*
G04 APERTURE LIST*
%TA.AperFunction,EtchedComponent*%
%ADD10C,0.100000*%
%TD*%
%TA.AperFunction,SMDPad,CuDef*%
%ADD11R,1.219200X0.939800*%
%TD*%
%TA.AperFunction,SMDPad,CuDef*%
%ADD12R,0.508000X0.939800*%
%TD*%
%TA.AperFunction,SMDPad,CuDef*%
%ADD13R,0.400000X0.600000*%
%TD*%
%TA.AperFunction,SMDPad,CuDef*%
%ADD14C,0.100000*%
%TD*%
%TA.AperFunction,ComponentPad*%
%ADD15C,0.500000*%
%TD*%
%TA.AperFunction,SMDPad,CuDef*%
%ADD16R,1.000000X0.750000*%
%TD*%
%TA.AperFunction,SMDPad,CuDef*%
%ADD17R,0.750000X1.000000*%
%TD*%
%TA.AperFunction,SMDPad,CuDef*%
%ADD18R,1.200000X1.900000*%
%TD*%
%TA.AperFunction,ComponentPad*%
%ADD19O,1.200000X1.900000*%
%TD*%
%TA.AperFunction,SMDPad,CuDef*%
%ADD20R,1.500000X1.900000*%
%TD*%
%TA.AperFunction,ComponentPad*%
%ADD21C,1.450000*%
%TD*%
%TA.AperFunction,SMDPad,CuDef*%
%ADD22R,0.400000X1.350000*%
%TD*%
%TA.AperFunction,SMDPad,CuDef*%
%ADD23R,1.000000X1.200000*%
%TD*%
%TA.AperFunction,SMDPad,CuDef*%
%ADD24R,1.200000X1.000000*%
%TD*%
%TA.AperFunction,SMDPad,CuDef*%
%ADD25C,0.500000*%
%TD*%
%TA.AperFunction,ViaPad*%
%ADD26C,0.600000*%
%TD*%
%TA.AperFunction,Conductor*%
%ADD27C,0.127000*%
%TD*%
%TA.AperFunction,Conductor*%
%ADD28C,0.250000*%
%TD*%
%TA.AperFunction,Conductor*%
%ADD29C,0.254000*%
%TD*%
%TA.AperFunction,Conductor*%
%ADD30C,0.100000*%
%TD*%
G04 APERTURE END LIST*
D10*
%TO.C,NT1*%
G36*
X170250000Y-52750000D02*
G01*
X170250000Y-53750000D01*
X169750000Y-53750000D01*
X169750000Y-52750000D01*
X170250000Y-52750000D01*
G37*
%TD*%
%TO.P,J5,1*%
%TO.N,GND*%
%TA.AperFunction,SMDPad,CuDef*%
G36*
G01*
X186765000Y-43600000D02*
X186015000Y-43600000D01*
G75*
G02*
X185890000Y-43475000I0J125000D01*
G01*
X185890000Y-43225000D01*
G75*
G02*
X186015000Y-43100000I125000J0D01*
G01*
X186765000Y-43100000D01*
G75*
G02*
X186890000Y-43225000I0J-125000D01*
G01*
X186890000Y-43475000D01*
G75*
G02*
X186765000Y-43600000I-125000J0D01*
G01*
G37*
%TD.AperFunction*%
%TO.P,J5,2*%
%TO.N,GNDA*%
%TA.AperFunction,SMDPad,CuDef*%
G36*
G01*
X186765000Y-42800000D02*
X186015000Y-42800000D01*
G75*
G02*
X185890000Y-42675000I0J125000D01*
G01*
X185890000Y-42425000D01*
G75*
G02*
X186015000Y-42300000I125000J0D01*
G01*
X186765000Y-42300000D01*
G75*
G02*
X186890000Y-42425000I0J-125000D01*
G01*
X186890000Y-42675000D01*
G75*
G02*
X186765000Y-42800000I-125000J0D01*
G01*
G37*
%TD.AperFunction*%
%TO.P,J5,3*%
%TO.N,L_Audio*%
%TA.AperFunction,SMDPad,CuDef*%
G36*
G01*
X186765000Y-42000000D02*
X186015000Y-42000000D01*
G75*
G02*
X185890000Y-41875000I0J125000D01*
G01*
X185890000Y-41625000D01*
G75*
G02*
X186015000Y-41500000I125000J0D01*
G01*
X186765000Y-41500000D01*
G75*
G02*
X186890000Y-41625000I0J-125000D01*
G01*
X186890000Y-41875000D01*
G75*
G02*
X186765000Y-42000000I-125000J0D01*
G01*
G37*
%TD.AperFunction*%
%TO.P,J5,4*%
%TO.N,Net-(left_connector1-Pad4)*%
%TA.AperFunction,SMDPad,CuDef*%
G36*
G01*
X186765000Y-41200000D02*
X186015000Y-41200000D01*
G75*
G02*
X185890000Y-41075000I0J125000D01*
G01*
X185890000Y-40825000D01*
G75*
G02*
X186015000Y-40700000I125000J0D01*
G01*
X186765000Y-40700000D01*
G75*
G02*
X186890000Y-40825000I0J-125000D01*
G01*
X186890000Y-41075000D01*
G75*
G02*
X186765000Y-41200000I-125000J0D01*
G01*
G37*
%TD.AperFunction*%
%TO.P,J5,5*%
%TO.N,V_BAT*%
%TA.AperFunction,SMDPad,CuDef*%
G36*
G01*
X186765000Y-40400000D02*
X186015000Y-40400000D01*
G75*
G02*
X185890000Y-40275000I0J125000D01*
G01*
X185890000Y-40025000D01*
G75*
G02*
X186015000Y-39900000I125000J0D01*
G01*
X186765000Y-39900000D01*
G75*
G02*
X186890000Y-40025000I0J-125000D01*
G01*
X186890000Y-40275000D01*
G75*
G02*
X186765000Y-40400000I-125000J0D01*
G01*
G37*
%TD.AperFunction*%
%TO.P,J5,MP*%
%TO.N,GND*%
%TA.AperFunction,SMDPad,CuDef*%
G36*
G01*
X188885000Y-45050000D02*
X187735000Y-45050000D01*
G75*
G02*
X187510000Y-44825000I0J225000D01*
G01*
X187510000Y-44375000D01*
G75*
G02*
X187735000Y-44150000I225000J0D01*
G01*
X188885000Y-44150000D01*
G75*
G02*
X189110000Y-44375000I0J-225000D01*
G01*
X189110000Y-44825000D01*
G75*
G02*
X188885000Y-45050000I-225000J0D01*
G01*
G37*
%TD.AperFunction*%
%TA.AperFunction,SMDPad,CuDef*%
G36*
G01*
X188885000Y-39350000D02*
X187735000Y-39350000D01*
G75*
G02*
X187510000Y-39125000I0J225000D01*
G01*
X187510000Y-38675000D01*
G75*
G02*
X187735000Y-38450000I225000J0D01*
G01*
X188885000Y-38450000D01*
G75*
G02*
X189110000Y-38675000I0J-225000D01*
G01*
X189110000Y-39125000D01*
G75*
G02*
X188885000Y-39350000I-225000J0D01*
G01*
G37*
%TD.AperFunction*%
%TD*%
D11*
%TO.P,R2,8*%
%TO.N,BOOT+SD_PULLUP*%
X172950600Y-42136400D03*
D12*
%TO.P,R2,7*%
X174106201Y-42136400D03*
%TO.P,R2,6*%
X174906199Y-42136400D03*
D11*
%TO.P,R2,5*%
X176049400Y-42136400D03*
%TO.P,R2,4*%
%TO.N,SD_DAT3*%
X176049400Y-43863600D03*
D12*
%TO.P,R2,3*%
%TO.N,SD_DAT2*%
X174906199Y-43863600D03*
%TO.P,R2,2*%
%TO.N,SD_DAT1*%
X174106201Y-43863600D03*
D11*
%TO.P,R2,1*%
%TO.N,SD_DAT0*%
X172950600Y-43863600D03*
%TD*%
D13*
%TO.P,U3,2*%
%TO.N,GND*%
X182700000Y-41900000D03*
%TO.P,U3,6*%
%TO.N,BCLK*%
X182700000Y-44050000D03*
%TO.P,U3,3*%
%TO.N,+3V3*%
X182050000Y-41900000D03*
%TO.P,U3,5*%
%TO.N,LRCLK*%
X182050000Y-44050000D03*
%TO.P,U3,1*%
%TO.N,+3V3*%
X183350000Y-41900000D03*
%TO.P,U3,7*%
%TO.N,MIC_DATA*%
X183350000Y-44050000D03*
%TA.AperFunction,SMDPad,CuDef*%
D14*
%TO.P,U3,4*%
%TO.N,GND*%
G36*
X180648947Y-43786071D02*
G01*
X180569541Y-43770276D01*
X180492066Y-43746774D01*
X180417267Y-43715791D01*
X180345865Y-43677626D01*
X180278548Y-43632646D01*
X180215964Y-43581285D01*
X180158715Y-43524036D01*
X180107354Y-43461452D01*
X180062374Y-43394135D01*
X180024209Y-43322733D01*
X179993226Y-43247934D01*
X179969724Y-43170459D01*
X179953929Y-43091053D01*
X179945994Y-43010481D01*
X179945994Y-42929519D01*
X179953929Y-42848947D01*
X179969724Y-42769541D01*
X179993226Y-42692066D01*
X180024209Y-42617267D01*
X180062374Y-42545865D01*
X180107354Y-42478548D01*
X180158715Y-42415964D01*
X180215964Y-42358715D01*
X180278548Y-42307354D01*
X180345865Y-42262374D01*
X180417267Y-42224209D01*
X180492066Y-42193226D01*
X180569541Y-42169724D01*
X180648947Y-42153929D01*
X180729519Y-42145994D01*
X180810481Y-42145994D01*
X180891053Y-42153929D01*
X180970459Y-42169724D01*
X181047934Y-42193226D01*
X181122733Y-42224209D01*
X181194135Y-42262374D01*
X181261452Y-42307354D01*
X181324036Y-42358715D01*
X181381285Y-42415964D01*
X181432646Y-42478548D01*
X181477626Y-42545865D01*
X181515791Y-42617267D01*
X181546774Y-42692066D01*
X181570276Y-42769541D01*
X181586071Y-42848947D01*
X181593069Y-42920000D01*
X181600000Y-42920000D01*
X181600000Y-42995761D01*
X181294368Y-42995761D01*
X181294368Y-42944239D01*
X181289318Y-42892967D01*
X181279266Y-42842435D01*
X181264311Y-42793133D01*
X181244594Y-42745534D01*
X181220308Y-42700096D01*
X181191684Y-42657258D01*
X181158999Y-42617432D01*
X181122568Y-42581001D01*
X181082742Y-42548316D01*
X181039904Y-42519692D01*
X180994466Y-42495406D01*
X180946867Y-42475689D01*
X180897565Y-42460734D01*
X180847033Y-42450682D01*
X180795761Y-42445632D01*
X180744239Y-42445632D01*
X180692967Y-42450682D01*
X180642435Y-42460734D01*
X180593133Y-42475689D01*
X180545534Y-42495406D01*
X180500096Y-42519692D01*
X180457258Y-42548316D01*
X180417432Y-42581001D01*
X180381001Y-42617432D01*
X180348316Y-42657258D01*
X180319692Y-42700096D01*
X180295406Y-42745534D01*
X180275689Y-42793133D01*
X180260734Y-42842435D01*
X180250682Y-42892967D01*
X180245632Y-42944239D01*
X180245632Y-42995761D01*
X180250682Y-43047033D01*
X180260734Y-43097565D01*
X180275689Y-43146867D01*
X180295406Y-43194466D01*
X180319692Y-43239904D01*
X180348316Y-43282742D01*
X180381001Y-43322568D01*
X180417432Y-43358999D01*
X180457258Y-43391684D01*
X180500096Y-43420308D01*
X180545534Y-43444594D01*
X180593133Y-43464311D01*
X180642435Y-43479266D01*
X180692967Y-43489318D01*
X180744239Y-43494368D01*
X180795761Y-43494368D01*
X180847033Y-43489318D01*
X180897565Y-43479266D01*
X180946867Y-43464311D01*
X180994466Y-43444594D01*
X181039904Y-43420308D01*
X181082742Y-43391684D01*
X181122568Y-43358999D01*
X181158999Y-43322568D01*
X181191684Y-43282742D01*
X181220308Y-43239904D01*
X181244594Y-43194466D01*
X181264311Y-43146867D01*
X181279266Y-43097565D01*
X181289318Y-43047033D01*
X181294368Y-42995761D01*
X181600000Y-42995761D01*
X181600000Y-43020000D01*
X181593069Y-43020000D01*
X181586071Y-43091053D01*
X181570276Y-43170459D01*
X181546774Y-43247934D01*
X181515791Y-43322733D01*
X181477626Y-43394135D01*
X181432646Y-43461452D01*
X181381285Y-43524036D01*
X181324036Y-43581285D01*
X181261452Y-43632646D01*
X181194135Y-43677626D01*
X181122733Y-43715791D01*
X181047934Y-43746774D01*
X180970459Y-43770276D01*
X180891053Y-43786071D01*
X180810481Y-43794006D01*
X180729519Y-43794006D01*
X180648947Y-43786071D01*
G37*
%TD.AperFunction*%
D15*
%TO.P,U3,12*%
%TO.N,N/C*%
X180775000Y-42975000D03*
%TD*%
D16*
%TO.P,RST1,2*%
%TO.N,RST*%
X145692987Y-45307263D03*
X141192987Y-45307263D03*
%TO.P,RST1,1*%
%TO.N,GND*%
X141192987Y-43157263D03*
X145692987Y-43157263D03*
%TD*%
D17*
%TO.P,Ba1,2*%
%TO.N,row2*%
X149771697Y-39801022D03*
X149771697Y-44301022D03*
%TO.P,Ba1,1*%
%TO.N,Bcol3*%
X147621697Y-44301022D03*
X147621697Y-39801022D03*
%TD*%
D16*
%TO.P,Bu1,2*%
%TO.N,row1*%
X159948978Y-42071697D03*
X155448978Y-42071697D03*
%TO.P,Bu1,1*%
%TO.N,Bcol1*%
X155448978Y-39921697D03*
X159948978Y-39921697D03*
%TD*%
D17*
%TO.P,Br1,2*%
%TO.N,row1*%
X161178303Y-47698978D03*
X161178303Y-43198978D03*
%TO.P,Br1,1*%
%TO.N,Bcol3*%
X163328303Y-43198978D03*
X163328303Y-47698978D03*
%TD*%
D16*
%TO.P,BOOT1,2*%
%TO.N,BOOT+SD_PULLUP*%
X141201022Y-39678303D03*
X145701022Y-39678303D03*
%TO.P,BOOT1,1*%
%TO.N,GND*%
X145701022Y-41828303D03*
X141201022Y-41828303D03*
%TD*%
D17*
%TO.P,Bl1,2*%
%TO.N,row2*%
X152178303Y-47698978D03*
X152178303Y-43198978D03*
%TO.P,Bl1,1*%
%TO.N,Bcol1*%
X154328303Y-43198978D03*
X154328303Y-47698978D03*
%TD*%
D16*
%TO.P,Bd1,2*%
%TO.N,row1*%
X155551022Y-48928303D03*
X160051022Y-48928303D03*
%TO.P,Bd1,1*%
%TO.N,Bcol2*%
X160051022Y-51078303D03*
X155551022Y-51078303D03*
%TD*%
D17*
%TO.P,Bb1,2*%
%TO.N,row2*%
X149771697Y-46801022D03*
X149771697Y-51301022D03*
%TO.P,Bb1,1*%
%TO.N,Bcol2*%
X147621697Y-51301022D03*
X147621697Y-46801022D03*
%TD*%
D18*
%TO.P,J1,6*%
%TO.N,GND*%
X154700000Y-58500000D03*
X160500000Y-58500000D03*
D19*
X161100000Y-58500000D03*
X154100000Y-58500000D03*
D20*
X156600000Y-58500000D03*
D21*
X160100000Y-55800000D03*
D22*
%TO.P,J1,3*%
%TO.N,usb_d+*%
X157600000Y-55800000D03*
%TO.P,J1,4*%
%TO.N,Net-(J1-Pad4)*%
X158250000Y-55800000D03*
%TO.P,J1,5*%
%TO.N,GND*%
X158900000Y-55800000D03*
%TO.P,J1,1*%
%TO.N,usb_5v*%
X156300000Y-55800000D03*
%TO.P,J1,2*%
%TO.N,usb_d-*%
X156950000Y-55800000D03*
D21*
%TO.P,J1,6*%
%TO.N,GND*%
X155100000Y-55800000D03*
D20*
X158600000Y-58500000D03*
%TD*%
%TA.AperFunction,SMDPad,CuDef*%
D14*
%TO.P,U1,2*%
%TO.N,GND*%
G36*
X183900010Y-49699951D02*
G01*
X183900019Y-49699954D01*
X183900028Y-49699958D01*
X186020042Y-51819972D01*
X186020046Y-51819981D01*
X186020049Y-51819990D01*
X186020050Y-51820000D01*
X186020050Y-52490000D01*
X186020049Y-52490010D01*
X186020046Y-52490019D01*
X186020042Y-52490028D01*
X186020035Y-52490035D01*
X184220035Y-54280035D01*
X184220028Y-54280042D01*
X184220019Y-54280046D01*
X184220010Y-54280049D01*
X184220000Y-54280050D01*
X184219990Y-54280049D01*
X184219981Y-54280046D01*
X184219972Y-54280041D01*
X184219965Y-54280035D01*
X181769965Y-51820035D01*
X181769958Y-51820028D01*
X181769954Y-51820019D01*
X181769951Y-51820010D01*
X181769950Y-51820000D01*
X181769951Y-51819990D01*
X181769954Y-51819981D01*
X181769958Y-51819972D01*
X181769965Y-51819965D01*
X183899965Y-49699965D01*
X183899972Y-49699958D01*
X183899981Y-49699954D01*
X183899990Y-49699951D01*
X183900000Y-49699950D01*
X183900010Y-49699951D01*
G37*
%TD.AperFunction*%
D23*
%TO.P,U1,23*%
%TO.N,DAC_DATA*%
X171025200Y-58800000D03*
%TO.P,U1,24*%
%TO.N,SCL*%
X172295200Y-58800000D03*
%TO.P,U1,25*%
%TO.N,SDA*%
X173565200Y-58800000D03*
%TO.P,U1,26*%
%TO.N,row1*%
X174835200Y-58800000D03*
%TO.P,U1,27*%
%TO.N,MIC_DATA*%
X176105200Y-58800000D03*
%TO.P,U1,28*%
%TO.N,MCLK*%
X177375200Y-58800000D03*
%TO.P,U1,29*%
%TO.N,BOOT+SD_PULLUP*%
X178645200Y-58800000D03*
%TO.P,U1,30*%
%TO.N,row2*%
X179915200Y-58800000D03*
%TO.P,U1,31*%
%TO.N,Net-(U1-Pad31)*%
X181185200Y-58800000D03*
%TO.P,U1,32*%
%TO.N,Net-(U1-Pad32)*%
X182455200Y-58800000D03*
%TO.P,U1,33*%
%TO.N,Bcol3*%
X183725200Y-58800000D03*
%TO.P,U1,34*%
%TO.N,Bcol2*%
X184995200Y-58800000D03*
%TO.P,U1,35*%
%TO.N,Bcol1*%
X186265200Y-58800000D03*
%TO.P,U1,36*%
%TO.N,BAT_sense*%
X187535200Y-58800000D03*
%TO.P,U1,9*%
%TO.N,V_BAT*%
X171013900Y-46460000D03*
%TO.P,U1,10*%
%TO.N,SD_DAT0*%
X172283900Y-46460000D03*
%TO.P,U1,11*%
%TO.N,SD_DAT1*%
X173553900Y-46460000D03*
%TO.P,U1,12*%
%TO.N,SD_DAT2*%
X174823900Y-46460000D03*
%TO.P,U1,13*%
%TO.N,SD_DAT3*%
X176093900Y-46460000D03*
%TO.P,U1,14*%
%TO.N,SD_CLK*%
X177363900Y-46460000D03*
%TO.P,U1,15*%
%TO.N,SD_CMD*%
X178633900Y-46460000D03*
%TO.P,U1,16*%
%TO.N,LRCLK*%
X179903900Y-46460000D03*
%TO.P,U1,17*%
%TO.N,BCLK*%
X181173900Y-46460000D03*
%TO.P,U1,18*%
%TO.N,Lcol1*%
X182443900Y-46460000D03*
%TO.P,U1,19*%
%TO.N,Lcol2*%
X183713900Y-46460000D03*
%TO.P,U1,20*%
%TO.N,Net-(U1-Pad20)*%
X184983900Y-46460000D03*
%TO.P,U1,21*%
%TO.N,Net-(U1-Pad21)*%
X186253900Y-46460000D03*
%TO.P,U1,22*%
%TO.N,Net-(U1-Pad22)*%
X187523900Y-46460000D03*
D24*
%TO.P,U1,8*%
%TO.N,+3V3*%
X166350000Y-48175000D03*
%TO.P,U1,7*%
%TO.N,RST*%
X166350000Y-49445000D03*
%TO.P,U1,6*%
%TO.N,usb_d+*%
X166350000Y-50715000D03*
%TO.P,U1,5*%
%TO.N,usb_d-*%
X166350000Y-51985000D03*
%TO.P,U1,4*%
%TO.N,usb_5v*%
X166350000Y-53255000D03*
%TO.P,U1,3*%
%TO.N,RST*%
X166350000Y-54525000D03*
%TO.P,U1,2*%
%TO.N,GND*%
X166350000Y-55795000D03*
%TO.P,U1,1*%
%TO.N,Net-(R12-Pad1)*%
X166350000Y-57065000D03*
%TD*%
D25*
%TO.P,NT1,1*%
%TO.N,GND*%
X170000000Y-52750000D03*
%TO.P,NT1,2*%
%TO.N,GNDA*%
X170000000Y-53750000D03*
%TD*%
%TO.P,R7,1*%
%TO.N,Bcol3*%
%TA.AperFunction,SMDPad,CuDef*%
G36*
G01*
X167275000Y-44225000D02*
X166725000Y-44225000D01*
G75*
G02*
X166525000Y-44025000I0J200000D01*
G01*
X166525000Y-43625000D01*
G75*
G02*
X166725000Y-43425000I200000J0D01*
G01*
X167275000Y-43425000D01*
G75*
G02*
X167475000Y-43625000I0J-200000D01*
G01*
X167475000Y-44025000D01*
G75*
G02*
X167275000Y-44225000I-200000J0D01*
G01*
G37*
%TD.AperFunction*%
%TO.P,R7,2*%
%TO.N,+3V3*%
%TA.AperFunction,SMDPad,CuDef*%
G36*
G01*
X167275000Y-42575000D02*
X166725000Y-42575000D01*
G75*
G02*
X166525000Y-42375000I0J200000D01*
G01*
X166525000Y-41975000D01*
G75*
G02*
X166725000Y-41775000I200000J0D01*
G01*
X167275000Y-41775000D01*
G75*
G02*
X167475000Y-41975000I0J-200000D01*
G01*
X167475000Y-42375000D01*
G75*
G02*
X167275000Y-42575000I-200000J0D01*
G01*
G37*
%TD.AperFunction*%
%TD*%
%TO.P,R6,1*%
%TO.N,Bcol2*%
%TA.AperFunction,SMDPad,CuDef*%
G36*
G01*
X169025000Y-44225000D02*
X168475000Y-44225000D01*
G75*
G02*
X168275000Y-44025000I0J200000D01*
G01*
X168275000Y-43625000D01*
G75*
G02*
X168475000Y-43425000I200000J0D01*
G01*
X169025000Y-43425000D01*
G75*
G02*
X169225000Y-43625000I0J-200000D01*
G01*
X169225000Y-44025000D01*
G75*
G02*
X169025000Y-44225000I-200000J0D01*
G01*
G37*
%TD.AperFunction*%
%TO.P,R6,2*%
%TO.N,+3V3*%
%TA.AperFunction,SMDPad,CuDef*%
G36*
G01*
X169025000Y-42575000D02*
X168475000Y-42575000D01*
G75*
G02*
X168275000Y-42375000I0J200000D01*
G01*
X168275000Y-41975000D01*
G75*
G02*
X168475000Y-41775000I200000J0D01*
G01*
X169025000Y-41775000D01*
G75*
G02*
X169225000Y-41975000I0J-200000D01*
G01*
X169225000Y-42375000D01*
G75*
G02*
X169025000Y-42575000I-200000J0D01*
G01*
G37*
%TD.AperFunction*%
%TD*%
%TO.P,R5,2*%
%TO.N,+3V3*%
%TA.AperFunction,SMDPad,CuDef*%
G36*
G01*
X170775000Y-42575000D02*
X170225000Y-42575000D01*
G75*
G02*
X170025000Y-42375000I0J200000D01*
G01*
X170025000Y-41975000D01*
G75*
G02*
X170225000Y-41775000I200000J0D01*
G01*
X170775000Y-41775000D01*
G75*
G02*
X170975000Y-41975000I0J-200000D01*
G01*
X170975000Y-42375000D01*
G75*
G02*
X170775000Y-42575000I-200000J0D01*
G01*
G37*
%TD.AperFunction*%
%TO.P,R5,1*%
%TO.N,Bcol1*%
%TA.AperFunction,SMDPad,CuDef*%
G36*
G01*
X170775000Y-44225000D02*
X170225000Y-44225000D01*
G75*
G02*
X170025000Y-44025000I0J200000D01*
G01*
X170025000Y-43625000D01*
G75*
G02*
X170225000Y-43425000I200000J0D01*
G01*
X170775000Y-43425000D01*
G75*
G02*
X170975000Y-43625000I0J-200000D01*
G01*
X170975000Y-44025000D01*
G75*
G02*
X170775000Y-44225000I-200000J0D01*
G01*
G37*
%TD.AperFunction*%
%TD*%
%TO.P,R4,2*%
%TO.N,GND*%
%TA.AperFunction,SMDPad,CuDef*%
G36*
G01*
X166825000Y-40225000D02*
X166825000Y-40775000D01*
G75*
G02*
X166625000Y-40975000I-200000J0D01*
G01*
X166225000Y-40975000D01*
G75*
G02*
X166025000Y-40775000I0J200000D01*
G01*
X166025000Y-40225000D01*
G75*
G02*
X166225000Y-40025000I200000J0D01*
G01*
X166625000Y-40025000D01*
G75*
G02*
X166825000Y-40225000I0J-200000D01*
G01*
G37*
%TD.AperFunction*%
%TO.P,R4,1*%
%TO.N,BAT_sense*%
%TA.AperFunction,SMDPad,CuDef*%
G36*
G01*
X168475000Y-40225000D02*
X168475000Y-40775000D01*
G75*
G02*
X168275000Y-40975000I-200000J0D01*
G01*
X167875000Y-40975000D01*
G75*
G02*
X167675000Y-40775000I0J200000D01*
G01*
X167675000Y-40225000D01*
G75*
G02*
X167875000Y-40025000I200000J0D01*
G01*
X168275000Y-40025000D01*
G75*
G02*
X168475000Y-40225000I0J-200000D01*
G01*
G37*
%TD.AperFunction*%
%TD*%
%TO.P,R3,2*%
%TO.N,BAT_sense*%
%TA.AperFunction,SMDPad,CuDef*%
G36*
G01*
X169825000Y-40225000D02*
X169825000Y-40775000D01*
G75*
G02*
X169625000Y-40975000I-200000J0D01*
G01*
X169225000Y-40975000D01*
G75*
G02*
X169025000Y-40775000I0J200000D01*
G01*
X169025000Y-40225000D01*
G75*
G02*
X169225000Y-40025000I200000J0D01*
G01*
X169625000Y-40025000D01*
G75*
G02*
X169825000Y-40225000I0J-200000D01*
G01*
G37*
%TD.AperFunction*%
%TO.P,R3,1*%
%TO.N,V_BAT*%
%TA.AperFunction,SMDPad,CuDef*%
G36*
G01*
X171475000Y-40225000D02*
X171475000Y-40775000D01*
G75*
G02*
X171275000Y-40975000I-200000J0D01*
G01*
X170875000Y-40975000D01*
G75*
G02*
X170675000Y-40775000I0J200000D01*
G01*
X170675000Y-40225000D01*
G75*
G02*
X170875000Y-40025000I200000J0D01*
G01*
X171275000Y-40025000D01*
G75*
G02*
X171475000Y-40225000I0J-200000D01*
G01*
G37*
%TD.AperFunction*%
%TD*%
%TO.P,R1,2*%
%TO.N,SD_CMD*%
%TA.AperFunction,SMDPad,CuDef*%
G36*
G01*
X177725000Y-43425000D02*
X178275000Y-43425000D01*
G75*
G02*
X178475000Y-43625000I0J-200000D01*
G01*
X178475000Y-44025000D01*
G75*
G02*
X178275000Y-44225000I-200000J0D01*
G01*
X177725000Y-44225000D01*
G75*
G02*
X177525000Y-44025000I0J200000D01*
G01*
X177525000Y-43625000D01*
G75*
G02*
X177725000Y-43425000I200000J0D01*
G01*
G37*
%TD.AperFunction*%
%TO.P,R1,1*%
%TO.N,BOOT+SD_PULLUP*%
%TA.AperFunction,SMDPad,CuDef*%
G36*
G01*
X177725000Y-41775000D02*
X178275000Y-41775000D01*
G75*
G02*
X178475000Y-41975000I0J-200000D01*
G01*
X178475000Y-42375000D01*
G75*
G02*
X178275000Y-42575000I-200000J0D01*
G01*
X177725000Y-42575000D01*
G75*
G02*
X177525000Y-42375000I0J200000D01*
G01*
X177525000Y-41975000D01*
G75*
G02*
X177725000Y-41775000I200000J0D01*
G01*
G37*
%TD.AperFunction*%
%TD*%
%TO.P,C9,2*%
%TO.N,GND*%
%TA.AperFunction,SMDPad,CuDef*%
G36*
G01*
X181925000Y-40250000D02*
X181925000Y-40750000D01*
G75*
G02*
X181700000Y-40975000I-225000J0D01*
G01*
X181250000Y-40975000D01*
G75*
G02*
X181025000Y-40750000I0J225000D01*
G01*
X181025000Y-40250000D01*
G75*
G02*
X181250000Y-40025000I225000J0D01*
G01*
X181700000Y-40025000D01*
G75*
G02*
X181925000Y-40250000I0J-225000D01*
G01*
G37*
%TD.AperFunction*%
%TO.P,C9,1*%
%TO.N,+3V3*%
%TA.AperFunction,SMDPad,CuDef*%
G36*
G01*
X183475000Y-40250000D02*
X183475000Y-40750000D01*
G75*
G02*
X183250000Y-40975000I-225000J0D01*
G01*
X182800000Y-40975000D01*
G75*
G02*
X182575000Y-40750000I0J225000D01*
G01*
X182575000Y-40250000D01*
G75*
G02*
X182800000Y-40025000I225000J0D01*
G01*
X183250000Y-40025000D01*
G75*
G02*
X183475000Y-40250000I0J-225000D01*
G01*
G37*
%TD.AperFunction*%
%TD*%
D26*
%TO.N,row2*%
X151500000Y-45490500D03*
X160750000Y-45500000D03*
X182250000Y-57750000D03*
%TO.N,Bcol2*%
X168500000Y-45250000D03*
X168500000Y-45250000D03*
X165000000Y-45490500D03*
%TO.N,Bcol3*%
X149750000Y-45400000D03*
X162750000Y-46750000D03*
%TO.N,row1*%
X186500000Y-51750000D03*
X174750000Y-57750000D03*
X184000000Y-55000000D03*
%TO.N,BOOT+SD_PULLUP*%
X178500000Y-57750000D03*
X179750000Y-44250000D03*
X161250000Y-39750000D03*
X175250000Y-40250000D03*
%TO.N,GND*%
X182750000Y-52000000D03*
X174000000Y-52250000D03*
X175500000Y-52250000D03*
X174000000Y-50750000D03*
X175500000Y-50750000D03*
X162250000Y-48500000D03*
X174250000Y-48000000D03*
X173250000Y-48000000D03*
X178250000Y-48000000D03*
X153750000Y-40750000D03*
X152200000Y-44250000D03*
X190000000Y-39000000D03*
X186500000Y-39000000D03*
X180000000Y-53750000D03*
X175000000Y-55000000D03*
X169750000Y-59000000D03*
X169750000Y-58000000D03*
X192750000Y-49500000D03*
X189200000Y-49500000D03*
X172950000Y-39400000D03*
X173950000Y-39400000D03*
X179250000Y-41750000D03*
X184750000Y-41500000D03*
X153750000Y-49250000D03*
X158750000Y-52000000D03*
X137000000Y-39000000D03*
X137000000Y-41500000D03*
X150750000Y-55500000D03*
X140000000Y-44750000D03*
X146600000Y-51200000D03*
X143500000Y-48250000D03*
X164750000Y-54000000D03*
X170000000Y-39250000D03*
X169000000Y-39250000D03*
X164250000Y-39250000D03*
X163250000Y-39250000D03*
X164500000Y-48500000D03*
X170750000Y-49750000D03*
X170750000Y-48750000D03*
X180000000Y-54750000D03*
X179250000Y-39500000D03*
X184750000Y-40000000D03*
X192750000Y-45750000D03*
X192750000Y-41750000D03*
X189200000Y-46000000D03*
X156750000Y-52000000D03*
X156750000Y-47000000D03*
X159500000Y-47000000D03*
X182250000Y-47750000D03*
X171250000Y-55000000D03*
X165750000Y-59000000D03*
X149500000Y-42800000D03*
X147750000Y-42200000D03*
X152250000Y-51250000D03*
X148750000Y-48000000D03*
X144000000Y-43250000D03*
X164500000Y-50500000D03*
X162250000Y-50500000D03*
X181000000Y-44000000D03*
X187000000Y-47750000D03*
X182750000Y-54000000D03*
X144600000Y-39000000D03*
X162250000Y-54000000D03*
X152250000Y-52750000D03*
X189200000Y-41800000D03*
X182750000Y-43000000D03*
X192750000Y-39000000D03*
%TO.N,Bcol1*%
X170000000Y-44750000D03*
X155000000Y-43948000D03*
%TO.N,+3V3*%
X151500000Y-40750000D03*
X153000000Y-44500000D03*
X166272990Y-46272990D03*
X181000000Y-41500000D03*
X162500000Y-44438500D03*
X170000000Y-51250000D03*
X169750000Y-48250000D03*
%TO.N,Lcol1*%
X185330481Y-45382019D03*
%TO.N,Lcol2*%
X186074990Y-47500000D03*
%TO.N,usb_d+*%
X157200000Y-53600000D03*
X161250000Y-51250000D03*
%TO.N,usb_5v*%
X161250000Y-40750000D03*
%TO.N,usb_d-*%
X157000000Y-54400000D03*
X161250000Y-52250000D03*
%TO.N,SD_DAT1*%
X173600000Y-45200000D03*
X156600000Y-40800000D03*
X157200000Y-43016012D03*
%TO.N,SD_DAT0*%
X172600000Y-45200000D03*
X155800000Y-40800000D03*
X156400000Y-43016012D03*
%TO.N,SD_CLK*%
X177200000Y-45200000D03*
X153000000Y-41781001D03*
X152400000Y-40800000D03*
%TO.N,SD_CMD*%
X178400000Y-45200000D03*
%TO.N,SD_DAT3*%
X176000000Y-45200000D03*
%TO.N,SD_DAT2*%
X174800000Y-45200000D03*
%TO.N,L_Audio*%
X171427685Y-50855628D03*
X183250000Y-49500000D03*
X184982522Y-43982522D03*
%TO.N,Net-(R12-Pad1)*%
X182750000Y-55969151D03*
X170000000Y-55489450D03*
X167500000Y-57000000D03*
%TO.N,RST*%
X148750000Y-45500000D03*
X165250000Y-47250000D03*
%TO.N,DAC_DATA*%
X171000000Y-57750000D03*
X178250000Y-53750000D03*
X178250000Y-50948000D03*
%TO.N,SCL*%
X172250000Y-57750000D03*
X176750000Y-48190501D03*
X184750000Y-48250000D03*
%TO.N,SDA*%
X173500000Y-57750000D03*
X177250000Y-49000000D03*
X184242047Y-49157613D03*
%TO.N,MIC_DATA*%
X176000000Y-57750000D03*
X181750000Y-55715141D03*
X177500000Y-55489452D03*
X183750000Y-44750000D03*
%TO.N,MCLK*%
X177250000Y-57750000D03*
%TO.N,BCLK*%
X180250000Y-47500000D03*
%TO.N,LRCLK*%
X179250000Y-47500000D03*
%TO.N,GNDA*%
X182500000Y-50250000D03*
X170000000Y-53750000D03*
X185250000Y-43000000D03*
%TD*%
D27*
%TO.N,row2*%
X174085166Y-57250000D02*
X179092200Y-57250000D01*
X173831156Y-56995990D02*
X174085166Y-57250000D01*
X167758019Y-55867243D02*
X168886765Y-56995989D01*
X167758020Y-45898796D02*
X167758019Y-55867243D01*
X168886765Y-56995989D02*
X173831156Y-56995990D01*
X166859224Y-45000000D02*
X167758020Y-45898796D01*
X161250001Y-44999999D02*
X166859224Y-45000000D01*
X160750000Y-45500000D02*
X161250001Y-44999999D01*
X180238200Y-57750000D02*
X182250000Y-57750000D01*
X179915200Y-58073000D02*
X180238200Y-57750000D01*
X179915200Y-58073000D02*
X179092200Y-57250000D01*
X179915200Y-58800000D02*
X179915200Y-58073000D01*
X150669653Y-47698978D02*
X149771697Y-46801022D01*
X152178303Y-47698978D02*
X150669653Y-47698978D01*
X150961175Y-45490500D02*
X149771697Y-44301022D01*
X151500000Y-45490500D02*
X150961175Y-45490500D01*
X151500000Y-43877281D02*
X152178303Y-43198978D01*
X151500000Y-45490500D02*
X151500000Y-43877281D01*
%TO.N,Bcol2*%
X168750000Y-44000000D02*
X168750000Y-43825000D01*
X168750000Y-45000000D02*
X168500000Y-45250000D01*
X168750000Y-43825000D02*
X168750000Y-45000000D01*
X168500000Y-45674264D02*
X168266040Y-45908224D01*
X168500000Y-45250000D02*
X168500000Y-45674264D01*
X168266040Y-45908224D02*
X168266040Y-55656816D01*
X168266040Y-55656816D02*
X169097194Y-56487970D01*
X184995200Y-58073000D02*
X184995200Y-58800000D01*
X184995200Y-58073000D02*
X183889871Y-56967671D01*
X179528319Y-56967671D02*
X179302628Y-56741980D01*
X183889871Y-56967671D02*
X179528319Y-56967671D01*
X174041584Y-56487970D02*
X169097194Y-56487970D01*
X174295594Y-56741980D02*
X174041584Y-56487970D01*
X179302628Y-56741980D02*
X174295594Y-56741980D01*
X159360521Y-50387802D02*
X160051022Y-51078303D01*
X159360521Y-48298858D02*
X159360521Y-50387802D01*
X162168879Y-45490500D02*
X159360521Y-48298858D01*
X165000000Y-45490500D02*
X162168879Y-45490500D01*
X148312198Y-51991523D02*
X147621697Y-51301022D01*
X154637802Y-51991523D02*
X148312198Y-51991523D01*
X155551022Y-51078303D02*
X154637802Y-51991523D01*
%TO.N,Bcol3*%
X163328303Y-47328303D02*
X162750000Y-46750000D01*
X163328303Y-47698978D02*
X163328303Y-47328303D01*
X166373978Y-43198978D02*
X167000000Y-43825000D01*
X166373978Y-43198978D02*
X163328303Y-43198978D01*
X183725200Y-58627098D02*
X183725200Y-58800000D01*
X168012030Y-55762030D02*
X168991980Y-56741980D01*
X168012030Y-45793582D02*
X168012030Y-55762030D01*
X167000000Y-44781552D02*
X168012030Y-45793582D01*
X167000000Y-43825000D02*
X167000000Y-44781552D01*
X183725200Y-58073000D02*
X182902200Y-57250000D01*
X183725200Y-58800000D02*
X183725200Y-58073000D01*
X179451424Y-57250000D02*
X179197414Y-56995990D01*
X182902200Y-57250000D02*
X179451424Y-57250000D01*
X173936370Y-56741980D02*
X168991980Y-56741980D01*
X174190380Y-56995990D02*
X173936370Y-56741980D01*
X179197414Y-56995990D02*
X174190380Y-56995990D01*
X149341523Y-44991523D02*
X149750000Y-45400000D01*
X148312198Y-44991523D02*
X149341523Y-44991523D01*
X147621697Y-44301022D02*
X148312198Y-44991523D01*
%TO.N,row1*%
X160051022Y-42071697D02*
X161178303Y-43198978D01*
X159948978Y-42071697D02*
X160051022Y-42071697D01*
X161178303Y-47801022D02*
X160051022Y-48928303D01*
X161178303Y-47698978D02*
X161178303Y-47801022D01*
X168781550Y-57249998D02*
X173725940Y-57249998D01*
X167504010Y-55972458D02*
X168781550Y-57249998D01*
X167504010Y-46004010D02*
X167504010Y-55972458D01*
X174835200Y-58359258D02*
X174835200Y-58800000D01*
X174750000Y-58714800D02*
X174835200Y-58800000D01*
X174750000Y-57750000D02*
X174750000Y-58714800D01*
X174750000Y-57750000D02*
X174225942Y-57750000D01*
X174225942Y-57750000D02*
X173725940Y-57249998D01*
X161178303Y-47071978D02*
X161178303Y-47698978D01*
X164956943Y-46259499D02*
X161990782Y-46259499D01*
X165433953Y-45782489D02*
X164956943Y-46259499D01*
X161990782Y-46259499D02*
X161178303Y-47071978D01*
X167282489Y-45782489D02*
X165433953Y-45782489D01*
X167504010Y-46004010D02*
X167282489Y-45782489D01*
X186500000Y-51750000D02*
X186500000Y-53750000D01*
X185250000Y-55000000D02*
X184000000Y-55000000D01*
X186500000Y-53750000D02*
X185250000Y-55000000D01*
%TO.N,BOOT+SD_PULLUP*%
X172950600Y-42136400D02*
X174106201Y-42136400D01*
X174106201Y-42136400D02*
X174906199Y-42136400D01*
X174906199Y-42136400D02*
X176049400Y-42136400D01*
X177961400Y-42136400D02*
X178000000Y-42175000D01*
X176049400Y-42136400D02*
X177961400Y-42136400D01*
X178645200Y-57895200D02*
X178500000Y-57750000D01*
X178645200Y-58800000D02*
X178645200Y-57895200D01*
X178000000Y-42500000D02*
X179750000Y-44250000D01*
X178000000Y-42175000D02*
X178000000Y-42500000D01*
X176049400Y-41049400D02*
X175250000Y-40250000D01*
X176049400Y-42136400D02*
X176049400Y-41049400D01*
X146268804Y-39110521D02*
X145701022Y-39678303D01*
X160610521Y-39110521D02*
X146268804Y-39110521D01*
X161250000Y-39750000D02*
X160610521Y-39110521D01*
D28*
%TO.N,GND*%
X174250000Y-48000000D02*
X173250000Y-48000000D01*
X153750000Y-40750000D02*
X153701302Y-40798698D01*
D27*
X182700000Y-41900000D02*
X182700000Y-42092902D01*
D28*
X170875684Y-50374316D02*
X173250000Y-48000000D01*
X170875684Y-51874316D02*
X170875684Y-50374316D01*
X170000000Y-52750000D02*
X170875684Y-51874316D01*
X170000000Y-52750000D02*
X170000000Y-52250000D01*
X170000000Y-52750000D02*
X169750000Y-52500000D01*
X169750000Y-52500000D02*
X169750000Y-52250000D01*
X169750000Y-52500000D02*
X169500000Y-52500000D01*
X170000000Y-52750000D02*
X169500000Y-52750000D01*
X174250000Y-48000000D02*
X174750000Y-47500000D01*
X177750000Y-47500000D02*
X178250000Y-48000000D01*
X174750000Y-47500000D02*
X177750000Y-47500000D01*
X188310000Y-45560000D02*
X188750000Y-46000000D01*
X188310000Y-44600000D02*
X188310000Y-45560000D01*
D27*
%TO.N,Bcol1*%
X154328303Y-41042372D02*
X155448978Y-39921697D01*
X154328303Y-43198978D02*
X154328303Y-41042372D01*
X154328303Y-43276303D02*
X155000000Y-43948000D01*
X154328303Y-43198978D02*
X154328303Y-43276303D01*
X170500000Y-44250000D02*
X170000000Y-44750000D01*
X170500000Y-43825000D02*
X170500000Y-44250000D01*
X186265200Y-58627098D02*
X186265200Y-58800000D01*
X168520050Y-55520050D02*
X168520050Y-46229950D01*
X174146798Y-56233960D02*
X169233960Y-56233960D01*
X174400808Y-56487970D02*
X174146798Y-56233960D01*
X179407842Y-56487970D02*
X174400808Y-56487970D01*
X168520050Y-46229950D02*
X170000000Y-44750000D01*
X179633533Y-56713661D02*
X179407842Y-56487970D01*
X169233960Y-56233960D02*
X168520050Y-55520050D01*
X184905861Y-56713661D02*
X179633533Y-56713661D01*
X186265200Y-58073000D02*
X184905861Y-56713661D01*
X186265200Y-58800000D02*
X186265200Y-58073000D01*
%TO.N,+3V3*%
X167000000Y-42175000D02*
X168750000Y-42175000D01*
X168750000Y-42175000D02*
X170500000Y-42175000D01*
D28*
X166275000Y-48250000D02*
X166350000Y-48175000D01*
X151500000Y-41192073D02*
X151500000Y-40750000D01*
X153000000Y-42692073D02*
X151500000Y-41192073D01*
X153000000Y-44500000D02*
X153000000Y-42692073D01*
D27*
X162825000Y-42175000D02*
X167000000Y-42175000D01*
D28*
X166350000Y-46350000D02*
X166272990Y-46272990D01*
X166350000Y-48175000D02*
X166350000Y-46350000D01*
X181025000Y-41475000D02*
X181000000Y-41500000D01*
D27*
X183350000Y-40825000D02*
X183350000Y-41900000D01*
X183025000Y-40500000D02*
X183350000Y-40825000D01*
D28*
X182050000Y-41475000D02*
X182050000Y-41900000D01*
X183025000Y-40500000D02*
X182050000Y-41475000D01*
X181650000Y-41500000D02*
X182050000Y-41900000D01*
X181000000Y-41500000D02*
X181650000Y-41500000D01*
D27*
X162500000Y-42500000D02*
X162500000Y-44438500D01*
X162825000Y-42175000D02*
X162500000Y-42500000D01*
D28*
X170000000Y-48500000D02*
X169750000Y-48250000D01*
X170000000Y-51250000D02*
X170000000Y-48500000D01*
D27*
%TO.N,Lcol1*%
X185198462Y-45250000D02*
X185330481Y-45382019D01*
X183348979Y-45382019D02*
X182443900Y-46287098D01*
X182443900Y-46287098D02*
X182443900Y-46460000D01*
X185330481Y-45382019D02*
X183348979Y-45382019D01*
%TO.N,Lcol2*%
X184026900Y-47500000D02*
X183713900Y-47187000D01*
X183713900Y-47187000D02*
X183713900Y-46460000D01*
X186074990Y-47500000D02*
X184026900Y-47500000D01*
%TO.N,usb_d+*%
X157600000Y-54000000D02*
X157200000Y-53600000D01*
X157600000Y-55800000D02*
X157600000Y-54000000D01*
X165815000Y-51250000D02*
X166350000Y-50715000D01*
X161250000Y-51250000D02*
X165815000Y-51250000D01*
%TO.N,usb_5v*%
X166204499Y-53109499D02*
X166350000Y-53255000D01*
D28*
X166142999Y-53047999D02*
X166350000Y-53255000D01*
X156300000Y-53683038D02*
X156935039Y-53047999D01*
X156300000Y-55800000D02*
X156300000Y-53683038D01*
D27*
X160052773Y-40750000D02*
X161250000Y-40750000D01*
X157797999Y-43004774D02*
X160052773Y-40750000D01*
X157797999Y-53047999D02*
X157797999Y-43004774D01*
D28*
X156935039Y-53047999D02*
X157797999Y-53047999D01*
X157797999Y-53047999D02*
X166142999Y-53047999D01*
D27*
%TO.N,usb_d-*%
X156950000Y-54450000D02*
X157000000Y-54400000D01*
X156950000Y-55800000D02*
X156950000Y-54450000D01*
X161515000Y-51985000D02*
X161250000Y-52250000D01*
X166350000Y-51985000D02*
X161515000Y-51985000D01*
%TO.N,SD_DAT1*%
X173553900Y-45246100D02*
X173600000Y-45200000D01*
X173553900Y-46460000D02*
X173553900Y-45246100D01*
X174106201Y-44693799D02*
X174106201Y-43863600D01*
X173600000Y-45200000D02*
X174106201Y-44693799D01*
X156600000Y-42200000D02*
X156600000Y-40800000D01*
X156600000Y-42416012D02*
X156600000Y-42200000D01*
X157200000Y-43016012D02*
X156600000Y-42416012D01*
%TO.N,SD_DAT0*%
X172283900Y-45516100D02*
X172600000Y-45200000D01*
X172283900Y-46460000D02*
X172283900Y-45516100D01*
X172600000Y-44214200D02*
X172950600Y-43863600D01*
X172600000Y-45200000D02*
X172600000Y-44214200D01*
X156345990Y-42962002D02*
X156400000Y-43016012D01*
X156345990Y-41345990D02*
X156345990Y-42962002D01*
X155800000Y-40800000D02*
X156345990Y-41345990D01*
%TO.N,SD_CLK*%
X177363900Y-45363900D02*
X177200000Y-45200000D01*
X177363900Y-46460000D02*
X177363900Y-45363900D01*
X152400000Y-41181001D02*
X153000000Y-41781001D01*
X152400000Y-40800000D02*
X152400000Y-41181001D01*
%TO.N,SD_CMD*%
X178633900Y-45433900D02*
X178400000Y-45200000D01*
X178633900Y-46460000D02*
X178633900Y-45433900D01*
X178400000Y-44225000D02*
X178000000Y-43825000D01*
X178400000Y-45200000D02*
X178400000Y-44225000D01*
%TO.N,SD_DAT3*%
X176093900Y-45293900D02*
X176000000Y-45200000D01*
X176093900Y-46460000D02*
X176093900Y-45293900D01*
X176000000Y-43913000D02*
X176049400Y-43863600D01*
X176000000Y-45200000D02*
X176000000Y-43913000D01*
%TO.N,SD_DAT2*%
X174823900Y-45223900D02*
X174800000Y-45200000D01*
X174823900Y-46460000D02*
X174823900Y-45223900D01*
X174800000Y-43969799D02*
X174906199Y-43863600D01*
X174800000Y-45200000D02*
X174800000Y-43969799D01*
%TO.N,L_Audio*%
X172783313Y-49500000D02*
X171427685Y-50855628D01*
X183250000Y-49500000D02*
X172783313Y-49500000D01*
X185890000Y-41750000D02*
X186390000Y-41750000D01*
X184982522Y-43982522D02*
X184682523Y-43682523D01*
X185774058Y-41750000D02*
X186390000Y-41750000D01*
X184682523Y-42841535D02*
X185774058Y-41750000D01*
X184682523Y-43682523D02*
X184682523Y-42841535D01*
D28*
%TO.N,V_BAT*%
X171275000Y-46198900D02*
X171013900Y-46460000D01*
X171013900Y-46176398D02*
X171013900Y-46460000D01*
X171815510Y-45374788D02*
X171013900Y-46176398D01*
X171815510Y-40840510D02*
X171815510Y-45374788D01*
X171475000Y-40500000D02*
X171815510Y-40840510D01*
X171075000Y-40500000D02*
X171475000Y-40500000D01*
X184840000Y-38600000D02*
X186390000Y-40150000D01*
X172600000Y-38600000D02*
X184840000Y-38600000D01*
X171075000Y-40125000D02*
X172600000Y-38600000D01*
X171075000Y-40500000D02*
X171075000Y-40125000D01*
D27*
%TO.N,BAT_sense*%
X168075000Y-40500000D02*
X169425000Y-40500000D01*
X169675000Y-40500000D02*
X169750000Y-40500000D01*
X179738747Y-56459651D02*
X185921851Y-56459651D01*
X187535200Y-58073000D02*
X187535200Y-58800000D01*
X174506022Y-56233960D02*
X179513057Y-56233961D01*
X174252013Y-55979951D02*
X174506022Y-56233960D01*
X185921851Y-56459651D02*
X187535200Y-58073000D01*
X169339174Y-55979950D02*
X174252013Y-55979951D01*
X168774060Y-55414836D02*
X169339174Y-55979950D01*
X179513057Y-56233961D02*
X179738747Y-56459651D01*
X171500000Y-44000000D02*
X168774060Y-46725940D01*
X171500000Y-42147736D02*
X171500000Y-44000000D01*
X168774060Y-46725940D02*
X168774060Y-55414836D01*
X169852264Y-40500000D02*
X171500000Y-42147736D01*
X169425000Y-40500000D02*
X169852264Y-40500000D01*
%TO.N,Net-(R12-Pad1)*%
X182750000Y-56000000D02*
X182544359Y-56205641D01*
X182750000Y-55969151D02*
X182750000Y-56000000D01*
X179843961Y-56205641D02*
X179618272Y-55979952D01*
X182544359Y-56205641D02*
X179843961Y-56205641D01*
X174611238Y-55979952D02*
X174357226Y-55725942D01*
X179618272Y-55979952D02*
X174611238Y-55979952D01*
X174357226Y-55725942D02*
X171475942Y-55725942D01*
X170236492Y-55725942D02*
X170000000Y-55489450D01*
X171475942Y-55725942D02*
X170236492Y-55725942D01*
X166415000Y-57000000D02*
X166350000Y-57065000D01*
X167500000Y-57000000D02*
X166415000Y-57000000D01*
%TO.N,RST*%
X167077000Y-49445000D02*
X167250000Y-49618000D01*
X166350000Y-49445000D02*
X167077000Y-49445000D01*
X167077000Y-54525000D02*
X166350000Y-54525000D01*
X167250000Y-54352000D02*
X167077000Y-54525000D01*
X167250000Y-49618000D02*
X167250000Y-54352000D01*
X166350000Y-49445000D02*
X166301196Y-49493804D01*
X165250000Y-49072000D02*
X165623000Y-49445000D01*
X165623000Y-49445000D02*
X166350000Y-49445000D01*
X165250000Y-47250000D02*
X165250000Y-49072000D01*
X145885724Y-45500000D02*
X145692987Y-45307263D01*
X148750000Y-45500000D02*
X145885724Y-45500000D01*
%TO.N,DAC_DATA*%
X171025200Y-57775200D02*
X171000000Y-57750000D01*
X171025200Y-58800000D02*
X171025200Y-57775200D01*
X178250000Y-50948000D02*
X178250000Y-53750000D01*
%TO.N,SCL*%
X172295200Y-57795200D02*
X172250000Y-57750000D01*
X172295200Y-58800000D02*
X172295200Y-57795200D01*
X184509499Y-48490501D02*
X184750000Y-48250000D01*
X177050000Y-48490501D02*
X184509499Y-48490501D01*
X176750000Y-48190501D02*
X177050000Y-48490501D01*
%TO.N,SDA*%
X173565200Y-57815200D02*
X173500000Y-57750000D01*
X173565200Y-58800000D02*
X173565200Y-57815200D01*
X184084434Y-49000000D02*
X184242047Y-49157613D01*
X177250000Y-49000000D02*
X184084434Y-49000000D01*
%TO.N,MIC_DATA*%
X176105200Y-57855200D02*
X176000000Y-57750000D01*
X176105200Y-58800000D02*
X176105200Y-57855200D01*
X181750000Y-55750000D02*
X181548369Y-55951631D01*
X181750000Y-55715141D02*
X181750000Y-55750000D01*
X181548369Y-55951631D02*
X180750000Y-55951631D01*
X179949175Y-55951631D02*
X179723486Y-55725942D01*
X180750000Y-55951631D02*
X179949175Y-55951631D01*
X177736490Y-55725942D02*
X177500000Y-55489452D01*
X179723486Y-55725942D02*
X177736490Y-55725942D01*
X183350000Y-44050000D02*
X183450000Y-44050000D01*
X183750000Y-44450000D02*
X183350000Y-44050000D01*
X183750000Y-44750000D02*
X183750000Y-44450000D01*
%TO.N,MCLK*%
X177375200Y-57875200D02*
X177250000Y-57750000D01*
X177375200Y-58800000D02*
X177375200Y-57875200D01*
%TO.N,BCLK*%
X181173900Y-46576100D02*
X180250000Y-47500000D01*
X181173900Y-46460000D02*
X181173900Y-46576100D01*
X182700000Y-44477000D02*
X181173900Y-46003100D01*
X181173900Y-46003100D02*
X181173900Y-46460000D01*
X182700000Y-44050000D02*
X182700000Y-44477000D01*
%TO.N,LRCLK*%
X179903900Y-46196100D02*
X179903900Y-46460000D01*
X182050000Y-44050000D02*
X179903900Y-46196100D01*
X179903900Y-46846100D02*
X179250000Y-47500000D01*
X179903900Y-46460000D02*
X179903900Y-46846100D01*
%TO.N,GNDA*%
X182500000Y-50250000D02*
X182004010Y-49754010D01*
X173995990Y-49754010D02*
X170000000Y-53750000D01*
X182004010Y-49754010D02*
X173995990Y-49754010D01*
X186131670Y-42550000D02*
X186390000Y-42550000D01*
X185700000Y-42550000D02*
X186390000Y-42550000D01*
X185250000Y-43000000D02*
X185700000Y-42550000D01*
%TD*%
D29*
%TO.N,GND*%
X170840491Y-39649575D02*
X170762077Y-39657298D01*
X170653494Y-39690236D01*
X170553423Y-39743725D01*
X170465710Y-39815710D01*
X170393725Y-39903423D01*
X170340236Y-40003494D01*
X170307298Y-40112077D01*
X170296176Y-40225000D01*
X170296176Y-40320952D01*
X170203824Y-40228600D01*
X170203824Y-40225000D01*
X170192702Y-40112077D01*
X170159764Y-40003494D01*
X170106275Y-39903423D01*
X170034290Y-39815710D01*
X169946577Y-39743725D01*
X169846506Y-39690236D01*
X169737923Y-39657298D01*
X169625000Y-39646176D01*
X169225000Y-39646176D01*
X169112077Y-39657298D01*
X169003494Y-39690236D01*
X168903423Y-39743725D01*
X168815710Y-39815710D01*
X168750000Y-39895777D01*
X168684290Y-39815710D01*
X168596577Y-39743725D01*
X168496506Y-39690236D01*
X168387923Y-39657298D01*
X168275000Y-39646176D01*
X167875000Y-39646176D01*
X167762077Y-39657298D01*
X167653494Y-39690236D01*
X167553423Y-39743725D01*
X167465710Y-39815710D01*
X167393725Y-39903423D01*
X167340236Y-40003494D01*
X167307298Y-40112077D01*
X167296176Y-40225000D01*
X167296176Y-40775000D01*
X167307298Y-40887923D01*
X167340236Y-40996506D01*
X167393725Y-41096577D01*
X167465710Y-41184290D01*
X167553423Y-41256275D01*
X167653494Y-41309764D01*
X167762077Y-41342702D01*
X167875000Y-41353824D01*
X168275000Y-41353824D01*
X168387923Y-41342702D01*
X168496506Y-41309764D01*
X168596577Y-41256275D01*
X168684290Y-41184290D01*
X168750000Y-41104223D01*
X168815710Y-41184290D01*
X168903423Y-41256275D01*
X169003494Y-41309764D01*
X169112077Y-41342702D01*
X169225000Y-41353824D01*
X169625000Y-41353824D01*
X169737923Y-41342702D01*
X169846506Y-41309764D01*
X169946577Y-41256275D01*
X169967998Y-41238695D01*
X170134403Y-41405099D01*
X170112077Y-41407298D01*
X170003494Y-41440236D01*
X169903423Y-41493725D01*
X169815710Y-41565710D01*
X169743725Y-41653423D01*
X169700388Y-41734500D01*
X169549612Y-41734500D01*
X169506275Y-41653423D01*
X169434290Y-41565710D01*
X169346577Y-41493725D01*
X169246506Y-41440236D01*
X169137923Y-41407298D01*
X169025000Y-41396176D01*
X168475000Y-41396176D01*
X168362077Y-41407298D01*
X168253494Y-41440236D01*
X168153423Y-41493725D01*
X168065710Y-41565710D01*
X167993725Y-41653423D01*
X167950388Y-41734500D01*
X167799612Y-41734500D01*
X167756275Y-41653423D01*
X167684290Y-41565710D01*
X167596577Y-41493725D01*
X167496506Y-41440236D01*
X167387923Y-41407298D01*
X167275000Y-41396176D01*
X166725000Y-41396176D01*
X166612077Y-41407298D01*
X166503494Y-41440236D01*
X166403423Y-41493725D01*
X166315710Y-41565710D01*
X166243725Y-41653423D01*
X166200388Y-41734500D01*
X162846625Y-41734500D01*
X162824999Y-41732370D01*
X162803373Y-41734500D01*
X162803364Y-41734500D01*
X162738647Y-41740874D01*
X162655612Y-41766062D01*
X162579087Y-41806966D01*
X162548625Y-41831966D01*
X162529478Y-41847680D01*
X162512013Y-41862013D01*
X162498222Y-41878817D01*
X162203821Y-42173218D01*
X162187013Y-42187013D01*
X162131966Y-42254088D01*
X162091062Y-42330613D01*
X162065874Y-42413648D01*
X162059500Y-42478365D01*
X162059500Y-42478371D01*
X162057370Y-42500000D01*
X162059500Y-42521629D01*
X162059501Y-43921576D01*
X161974140Y-44006937D01*
X161900050Y-44117820D01*
X161849016Y-44241026D01*
X161823000Y-44371821D01*
X161823000Y-44505179D01*
X161833805Y-44559499D01*
X161271626Y-44559499D01*
X161250000Y-44557369D01*
X161228374Y-44559499D01*
X161228366Y-44559499D01*
X161163649Y-44565873D01*
X161115057Y-44580613D01*
X161080613Y-44591061D01*
X161004088Y-44631965D01*
X160953819Y-44673220D01*
X160953813Y-44673226D01*
X160937015Y-44687012D01*
X160923229Y-44703810D01*
X160804039Y-44823000D01*
X160683321Y-44823000D01*
X160552526Y-44849016D01*
X160429320Y-44900050D01*
X160318437Y-44974140D01*
X160224140Y-45068437D01*
X160150050Y-45179320D01*
X160099016Y-45302526D01*
X160073000Y-45433321D01*
X160073000Y-45566679D01*
X160099016Y-45697474D01*
X160150050Y-45820680D01*
X160224140Y-45931563D01*
X160318437Y-46025860D01*
X160429320Y-46099950D01*
X160552526Y-46150984D01*
X160683321Y-46177000D01*
X160816679Y-46177000D01*
X160870030Y-46166388D01*
X159064343Y-47972076D01*
X159047534Y-47985871D01*
X158992487Y-48052946D01*
X158951583Y-48129471D01*
X158926395Y-48212506D01*
X158920021Y-48277223D01*
X158920021Y-48277229D01*
X158917891Y-48298858D01*
X158920021Y-48320487D01*
X158920022Y-50366163D01*
X158917891Y-50387802D01*
X158926395Y-50474154D01*
X158951583Y-50557189D01*
X158992487Y-50633714D01*
X159021746Y-50669365D01*
X159047535Y-50700789D01*
X159064338Y-50714579D01*
X159172198Y-50822439D01*
X159172198Y-51453303D01*
X159179477Y-51527208D01*
X159201034Y-51598273D01*
X159236041Y-51663766D01*
X159283153Y-51721172D01*
X159340559Y-51768284D01*
X159406052Y-51803291D01*
X159477117Y-51824848D01*
X159551022Y-51832127D01*
X160551022Y-51832127D01*
X160624927Y-51824848D01*
X160695992Y-51803291D01*
X160761485Y-51768284D01*
X160788605Y-51746028D01*
X160792577Y-51750000D01*
X160724140Y-51818437D01*
X160650050Y-51929320D01*
X160599016Y-52052526D01*
X160573000Y-52183321D01*
X160573000Y-52316679D01*
X160599016Y-52447474D01*
X160639827Y-52545999D01*
X158238499Y-52545999D01*
X158238499Y-43187234D01*
X159070154Y-42355579D01*
X159070154Y-42446697D01*
X159077433Y-42520602D01*
X159098990Y-42591667D01*
X159133997Y-42657160D01*
X159181109Y-42714566D01*
X159238515Y-42761678D01*
X159304008Y-42796685D01*
X159375073Y-42818242D01*
X159448978Y-42825521D01*
X160181886Y-42825521D01*
X160424479Y-43068115D01*
X160424479Y-43698978D01*
X160431758Y-43772883D01*
X160453315Y-43843948D01*
X160488322Y-43909441D01*
X160535434Y-43966847D01*
X160592840Y-44013959D01*
X160658333Y-44048966D01*
X160729398Y-44070523D01*
X160803303Y-44077802D01*
X161553303Y-44077802D01*
X161627208Y-44070523D01*
X161698273Y-44048966D01*
X161763766Y-44013959D01*
X161821172Y-43966847D01*
X161868284Y-43909441D01*
X161903291Y-43843948D01*
X161924848Y-43772883D01*
X161932127Y-43698978D01*
X161932127Y-42698978D01*
X161924848Y-42625073D01*
X161903291Y-42554008D01*
X161868284Y-42488515D01*
X161821172Y-42431109D01*
X161763766Y-42383997D01*
X161698273Y-42348990D01*
X161627208Y-42327433D01*
X161553303Y-42320154D01*
X160922439Y-42320154D01*
X160827802Y-42225517D01*
X160827802Y-41696697D01*
X160820523Y-41622792D01*
X160798966Y-41551727D01*
X160763959Y-41486234D01*
X160716847Y-41428828D01*
X160659441Y-41381716D01*
X160593948Y-41346709D01*
X160522883Y-41325152D01*
X160448978Y-41317873D01*
X160107861Y-41317873D01*
X160235234Y-41190500D01*
X160733077Y-41190500D01*
X160818437Y-41275860D01*
X160929320Y-41349950D01*
X161052526Y-41400984D01*
X161183321Y-41427000D01*
X161316679Y-41427000D01*
X161447474Y-41400984D01*
X161570680Y-41349950D01*
X161681563Y-41275860D01*
X161775860Y-41181563D01*
X161849950Y-41070680D01*
X161889582Y-40975000D01*
X165696418Y-40975000D01*
X165702732Y-41039103D01*
X165721430Y-41100743D01*
X165751794Y-41157550D01*
X165792657Y-41207343D01*
X165842450Y-41248206D01*
X165899257Y-41278570D01*
X165960897Y-41297268D01*
X166025000Y-41303582D01*
X166216250Y-41302000D01*
X166298000Y-41220250D01*
X166298000Y-40627000D01*
X166552000Y-40627000D01*
X166552000Y-41220250D01*
X166633750Y-41302000D01*
X166825000Y-41303582D01*
X166889103Y-41297268D01*
X166950743Y-41278570D01*
X167007550Y-41248206D01*
X167057343Y-41207343D01*
X167098206Y-41157550D01*
X167128570Y-41100743D01*
X167147268Y-41039103D01*
X167153582Y-40975000D01*
X167152000Y-40708750D01*
X167070250Y-40627000D01*
X166552000Y-40627000D01*
X166298000Y-40627000D01*
X165779750Y-40627000D01*
X165698000Y-40708750D01*
X165696418Y-40975000D01*
X161889582Y-40975000D01*
X161900984Y-40947474D01*
X161927000Y-40816679D01*
X161927000Y-40683321D01*
X161900984Y-40552526D01*
X161849950Y-40429320D01*
X161775860Y-40318437D01*
X161707423Y-40250000D01*
X161775860Y-40181563D01*
X161849950Y-40070680D01*
X161868871Y-40025000D01*
X165696418Y-40025000D01*
X165698000Y-40291250D01*
X165779750Y-40373000D01*
X166298000Y-40373000D01*
X166298000Y-39779750D01*
X166552000Y-39779750D01*
X166552000Y-40373000D01*
X167070250Y-40373000D01*
X167152000Y-40291250D01*
X167153582Y-40025000D01*
X167147268Y-39960897D01*
X167128570Y-39899257D01*
X167098206Y-39842450D01*
X167057343Y-39792657D01*
X167007550Y-39751794D01*
X166950743Y-39721430D01*
X166889103Y-39702732D01*
X166825000Y-39696418D01*
X166633750Y-39698000D01*
X166552000Y-39779750D01*
X166298000Y-39779750D01*
X166216250Y-39698000D01*
X166025000Y-39696418D01*
X165960897Y-39702732D01*
X165899257Y-39721430D01*
X165842450Y-39751794D01*
X165792657Y-39792657D01*
X165751794Y-39842450D01*
X165721430Y-39899257D01*
X165702732Y-39960897D01*
X165696418Y-40025000D01*
X161868871Y-40025000D01*
X161900984Y-39947474D01*
X161927000Y-39816679D01*
X161927000Y-39683321D01*
X161900984Y-39552526D01*
X161849950Y-39429320D01*
X161775860Y-39318437D01*
X161681563Y-39224140D01*
X161570680Y-39150050D01*
X161447474Y-39099016D01*
X161316679Y-39073000D01*
X161195960Y-39073000D01*
X160937303Y-38814343D01*
X160923508Y-38797534D01*
X160856434Y-38742487D01*
X160779909Y-38701583D01*
X160696874Y-38676395D01*
X160632157Y-38670021D01*
X160632150Y-38670021D01*
X160610521Y-38667891D01*
X160588892Y-38670021D01*
X146290432Y-38670021D01*
X146268803Y-38667891D01*
X146247174Y-38670021D01*
X146247168Y-38670021D01*
X146182451Y-38676395D01*
X146099416Y-38701583D01*
X146022891Y-38742487D01*
X145955817Y-38797534D01*
X145942026Y-38814338D01*
X145831885Y-38924479D01*
X145201022Y-38924479D01*
X145127117Y-38931758D01*
X145056052Y-38953315D01*
X144990559Y-38988322D01*
X144933153Y-39035434D01*
X144886041Y-39092840D01*
X144851034Y-39158333D01*
X144829477Y-39229398D01*
X144822198Y-39303303D01*
X144822198Y-40053303D01*
X144829477Y-40127208D01*
X144851034Y-40198273D01*
X144886041Y-40263766D01*
X144933153Y-40321172D01*
X144990559Y-40368284D01*
X145056052Y-40403291D01*
X145127117Y-40424848D01*
X145201022Y-40432127D01*
X146201022Y-40432127D01*
X146274927Y-40424848D01*
X146345992Y-40403291D01*
X146411485Y-40368284D01*
X146468891Y-40321172D01*
X146516003Y-40263766D01*
X146551010Y-40198273D01*
X146572567Y-40127208D01*
X146579846Y-40053303D01*
X146579846Y-39551021D01*
X146867873Y-39551021D01*
X146867873Y-40301022D01*
X146875152Y-40374927D01*
X146896709Y-40445992D01*
X146931716Y-40511485D01*
X146978828Y-40568891D01*
X147036234Y-40616003D01*
X147101727Y-40651010D01*
X147172792Y-40672567D01*
X147246697Y-40679846D01*
X147996697Y-40679846D01*
X148070602Y-40672567D01*
X148141667Y-40651010D01*
X148207160Y-40616003D01*
X148264566Y-40568891D01*
X148311678Y-40511485D01*
X148346685Y-40445992D01*
X148368242Y-40374927D01*
X148375521Y-40301022D01*
X148375521Y-39551021D01*
X149017873Y-39551021D01*
X149017873Y-40301022D01*
X149025152Y-40374927D01*
X149046709Y-40445992D01*
X149081716Y-40511485D01*
X149128828Y-40568891D01*
X149186234Y-40616003D01*
X149251727Y-40651010D01*
X149322792Y-40672567D01*
X149396697Y-40679846D01*
X150146697Y-40679846D01*
X150220602Y-40672567D01*
X150291667Y-40651010D01*
X150357160Y-40616003D01*
X150414566Y-40568891D01*
X150461678Y-40511485D01*
X150496685Y-40445992D01*
X150518242Y-40374927D01*
X150525521Y-40301022D01*
X150525521Y-39551021D01*
X154570154Y-39551021D01*
X154570154Y-40177561D01*
X154032120Y-40715595D01*
X154015317Y-40729385D01*
X154001527Y-40746188D01*
X154001524Y-40746191D01*
X153960269Y-40796460D01*
X153919365Y-40872985D01*
X153894177Y-40956020D01*
X153885673Y-41042372D01*
X153887804Y-41064011D01*
X153887803Y-42326605D01*
X153879398Y-42327433D01*
X153808333Y-42348990D01*
X153742840Y-42383997D01*
X153685434Y-42431109D01*
X153638322Y-42488515D01*
X153603315Y-42554008D01*
X153581758Y-42625073D01*
X153574479Y-42698978D01*
X153574479Y-43698978D01*
X153581758Y-43772883D01*
X153603315Y-43843948D01*
X153638322Y-43909441D01*
X153685434Y-43966847D01*
X153742840Y-44013959D01*
X153808333Y-44048966D01*
X153879398Y-44070523D01*
X153953303Y-44077802D01*
X154335556Y-44077802D01*
X154349016Y-44145474D01*
X154400050Y-44268680D01*
X154474140Y-44379563D01*
X154568437Y-44473860D01*
X154679320Y-44547950D01*
X154802526Y-44598984D01*
X154933321Y-44625000D01*
X155066679Y-44625000D01*
X155197474Y-44598984D01*
X155320680Y-44547950D01*
X155431563Y-44473860D01*
X155525860Y-44379563D01*
X155599950Y-44268680D01*
X155650984Y-44145474D01*
X155677000Y-44014679D01*
X155677000Y-43881321D01*
X155650984Y-43750526D01*
X155599950Y-43627320D01*
X155525860Y-43516437D01*
X155431563Y-43422140D01*
X155320680Y-43348050D01*
X155197474Y-43297016D01*
X155082127Y-43274073D01*
X155082127Y-42825521D01*
X155747627Y-42825521D01*
X155723000Y-42949333D01*
X155723000Y-43082691D01*
X155749016Y-43213486D01*
X155800050Y-43336692D01*
X155874140Y-43447575D01*
X155968437Y-43541872D01*
X156079320Y-43615962D01*
X156202526Y-43666996D01*
X156333321Y-43693012D01*
X156466679Y-43693012D01*
X156597474Y-43666996D01*
X156720680Y-43615962D01*
X156800000Y-43562962D01*
X156879320Y-43615962D01*
X157002526Y-43666996D01*
X157133321Y-43693012D01*
X157266679Y-43693012D01*
X157357500Y-43674947D01*
X157357499Y-52545999D01*
X156959682Y-52545999D01*
X156935039Y-52543572D01*
X156910396Y-52545999D01*
X156910386Y-52545999D01*
X156836630Y-52553263D01*
X156742003Y-52581968D01*
X156705491Y-52601484D01*
X156654793Y-52628582D01*
X156597503Y-52675599D01*
X156597495Y-52675607D01*
X156578355Y-52691315D01*
X156562646Y-52710456D01*
X155962462Y-53310641D01*
X155943317Y-53326354D01*
X155927604Y-53345500D01*
X155927601Y-53345503D01*
X155880584Y-53402793D01*
X155833970Y-53490002D01*
X155805265Y-53584629D01*
X155795573Y-53683038D01*
X155798001Y-53707691D01*
X155798000Y-54898719D01*
X155785019Y-54914537D01*
X155758407Y-54964325D01*
X155757237Y-54963155D01*
X155693994Y-55026398D01*
X155614096Y-54876342D01*
X155424021Y-54793795D01*
X155221494Y-54749915D01*
X155014298Y-54746390D01*
X154810395Y-54783355D01*
X154617622Y-54859389D01*
X154585904Y-54876342D01*
X154506005Y-55026400D01*
X155100000Y-55620395D01*
X155114143Y-55606253D01*
X155293748Y-55785858D01*
X155279605Y-55800000D01*
X155293748Y-55814143D01*
X155114143Y-55993748D01*
X155100000Y-55979605D01*
X154506005Y-56573600D01*
X154585904Y-56723658D01*
X154775979Y-56806205D01*
X154978506Y-56850085D01*
X155185702Y-56853610D01*
X155389605Y-56816645D01*
X155582378Y-56740611D01*
X155614096Y-56723658D01*
X155693994Y-56573602D01*
X155757237Y-56636845D01*
X155758407Y-56635675D01*
X155785019Y-56685463D01*
X155832131Y-56742869D01*
X155889537Y-56789981D01*
X155955030Y-56824988D01*
X156026095Y-56846545D01*
X156100000Y-56853824D01*
X156500000Y-56853824D01*
X156573905Y-56846545D01*
X156625000Y-56831046D01*
X156676095Y-56846545D01*
X156750000Y-56853824D01*
X157150000Y-56853824D01*
X157223905Y-56846545D01*
X157275000Y-56831046D01*
X157326095Y-56846545D01*
X157400000Y-56853824D01*
X157800000Y-56853824D01*
X157873905Y-56846545D01*
X157925000Y-56831046D01*
X157976095Y-56846545D01*
X158050000Y-56853824D01*
X158450000Y-56853824D01*
X158523905Y-56846545D01*
X158594970Y-56824988D01*
X158645129Y-56798177D01*
X158700000Y-56803582D01*
X158745250Y-56802000D01*
X158827000Y-56720250D01*
X158827000Y-56493519D01*
X158828824Y-56475000D01*
X158828824Y-55125000D01*
X158827000Y-55106481D01*
X158827000Y-54879750D01*
X158973000Y-54879750D01*
X158973000Y-55673000D01*
X159047000Y-55673000D01*
X159047000Y-55849847D01*
X159046390Y-55885702D01*
X159047000Y-55889067D01*
X159047000Y-55927000D01*
X158973000Y-55927000D01*
X158973000Y-56720250D01*
X159054750Y-56802000D01*
X159100000Y-56803582D01*
X159164103Y-56797268D01*
X159225743Y-56778570D01*
X159282550Y-56748206D01*
X159332343Y-56707343D01*
X159373206Y-56657550D01*
X159403570Y-56600743D01*
X159404289Y-56598371D01*
X159442763Y-56636845D01*
X159506006Y-56573602D01*
X159585904Y-56723658D01*
X159775979Y-56806205D01*
X159978506Y-56850085D01*
X160185702Y-56853610D01*
X160389605Y-56816645D01*
X160582378Y-56740611D01*
X160614096Y-56723658D01*
X160693995Y-56573600D01*
X160100000Y-55979605D01*
X160085858Y-55993748D01*
X159906253Y-55814143D01*
X159920395Y-55800000D01*
X160279605Y-55800000D01*
X160873600Y-56393995D01*
X161023658Y-56314096D01*
X161106205Y-56124021D01*
X161150085Y-55921494D01*
X161153610Y-55714298D01*
X161116645Y-55510395D01*
X161040611Y-55317622D01*
X161023658Y-55285904D01*
X160873600Y-55206005D01*
X160279605Y-55800000D01*
X159920395Y-55800000D01*
X159906253Y-55785858D01*
X160085858Y-55606253D01*
X160100000Y-55620395D01*
X160693995Y-55026400D01*
X160614096Y-54876342D01*
X160424021Y-54793795D01*
X160221494Y-54749915D01*
X160014298Y-54746390D01*
X159810395Y-54783355D01*
X159617622Y-54859389D01*
X159585904Y-54876342D01*
X159506006Y-55026398D01*
X159442763Y-54963155D01*
X159404289Y-55001629D01*
X159403570Y-54999257D01*
X159373206Y-54942450D01*
X159332343Y-54892657D01*
X159282550Y-54851794D01*
X159225743Y-54821430D01*
X159164103Y-54802732D01*
X159100000Y-54796418D01*
X159054750Y-54798000D01*
X158973000Y-54879750D01*
X158827000Y-54879750D01*
X158745250Y-54798000D01*
X158700000Y-54796418D01*
X158645129Y-54801823D01*
X158594970Y-54775012D01*
X158523905Y-54753455D01*
X158450000Y-54746176D01*
X158050000Y-54746176D01*
X158040500Y-54747112D01*
X158040500Y-54021625D01*
X158042630Y-53999999D01*
X158040500Y-53978373D01*
X158040500Y-53978364D01*
X158034126Y-53913647D01*
X158008938Y-53830612D01*
X157968034Y-53754087D01*
X157912987Y-53687013D01*
X157896183Y-53673222D01*
X157877000Y-53654039D01*
X157877000Y-53549999D01*
X165371176Y-53549999D01*
X165371176Y-53755000D01*
X165378455Y-53828905D01*
X165396988Y-53890000D01*
X165378455Y-53951095D01*
X165371176Y-54025000D01*
X165371176Y-55025000D01*
X165378455Y-55098905D01*
X165400012Y-55169970D01*
X165429487Y-55225113D01*
X165427732Y-55230897D01*
X165421418Y-55295000D01*
X165423000Y-55586250D01*
X165504750Y-55668000D01*
X166223000Y-55668000D01*
X166223000Y-55648000D01*
X166477000Y-55648000D01*
X166477000Y-55668000D01*
X166497000Y-55668000D01*
X166497000Y-55922000D01*
X166477000Y-55922000D01*
X166477000Y-55942000D01*
X166223000Y-55942000D01*
X166223000Y-55922000D01*
X165504750Y-55922000D01*
X165423000Y-56003750D01*
X165421418Y-56295000D01*
X165427732Y-56359103D01*
X165429487Y-56364887D01*
X165400012Y-56420030D01*
X165378455Y-56491095D01*
X165371176Y-56565000D01*
X165371176Y-57565000D01*
X165378455Y-57638905D01*
X165400012Y-57709970D01*
X165435019Y-57775463D01*
X165482131Y-57832869D01*
X165539537Y-57879981D01*
X165605030Y-57914988D01*
X165676095Y-57936545D01*
X165750000Y-57943824D01*
X166950000Y-57943824D01*
X167023905Y-57936545D01*
X167094970Y-57914988D01*
X167160463Y-57879981D01*
X167217869Y-57832869D01*
X167264981Y-57775463D01*
X167299988Y-57709970D01*
X167317007Y-57653864D01*
X167433321Y-57677000D01*
X167566679Y-57677000D01*
X167697474Y-57650984D01*
X167820680Y-57599950D01*
X167931563Y-57525860D01*
X168025860Y-57431563D01*
X168099950Y-57320680D01*
X168137828Y-57229236D01*
X168454770Y-57546179D01*
X168468563Y-57562985D01*
X168485366Y-57576775D01*
X168485368Y-57576777D01*
X168488100Y-57579019D01*
X168535637Y-57618032D01*
X168612162Y-57658936D01*
X168695197Y-57684124D01*
X168759914Y-57690498D01*
X168759923Y-57690498D01*
X168781549Y-57692628D01*
X168803175Y-57690498D01*
X170323000Y-57690498D01*
X170323000Y-57816679D01*
X170334493Y-57874459D01*
X170314737Y-57885019D01*
X170257331Y-57932131D01*
X170210219Y-57989537D01*
X170175212Y-58055030D01*
X170153655Y-58126095D01*
X170146376Y-58200000D01*
X170146376Y-59400000D01*
X170151104Y-59448000D01*
X161816597Y-59448000D01*
X161907835Y-59322080D01*
X161984411Y-59155408D01*
X162027000Y-58977000D01*
X162027000Y-58627000D01*
X159654750Y-58627000D01*
X159625000Y-58656750D01*
X159595250Y-58627000D01*
X158727000Y-58627000D01*
X158727000Y-58647000D01*
X158473000Y-58647000D01*
X158473000Y-58627000D01*
X157604750Y-58627000D01*
X157600000Y-58631750D01*
X157595250Y-58627000D01*
X156727000Y-58627000D01*
X156727000Y-58647000D01*
X156473000Y-58647000D01*
X156473000Y-58627000D01*
X155604750Y-58627000D01*
X155575000Y-58656750D01*
X155545250Y-58627000D01*
X153173000Y-58627000D01*
X153173000Y-58737927D01*
X152475725Y-58023000D01*
X153173000Y-58023000D01*
X153173000Y-58373000D01*
X155545250Y-58373000D01*
X155575000Y-58343250D01*
X155604750Y-58373000D01*
X156473000Y-58373000D01*
X156473000Y-57304750D01*
X156727000Y-57304750D01*
X156727000Y-58373000D01*
X157595250Y-58373000D01*
X157600000Y-58368250D01*
X157604750Y-58373000D01*
X158473000Y-58373000D01*
X158473000Y-57304750D01*
X158727000Y-57304750D01*
X158727000Y-58373000D01*
X159595250Y-58373000D01*
X159625000Y-58343250D01*
X159654750Y-58373000D01*
X162027000Y-58373000D01*
X162027000Y-58023000D01*
X161984411Y-57844592D01*
X161907835Y-57677920D01*
X161800214Y-57529390D01*
X161665685Y-57404710D01*
X161509417Y-57308671D01*
X161369084Y-57262913D01*
X161297299Y-57288898D01*
X161282550Y-57276794D01*
X161227002Y-57247103D01*
X161227002Y-57223000D01*
X161116061Y-57223000D01*
X161100000Y-57221418D01*
X160708750Y-57223000D01*
X160627000Y-57304750D01*
X160627000Y-57347748D01*
X160534315Y-57404710D01*
X160399786Y-57529390D01*
X160373000Y-57566358D01*
X160373000Y-57304750D01*
X160291250Y-57223000D01*
X159900000Y-57221418D01*
X159835897Y-57227732D01*
X159774257Y-57246430D01*
X159717450Y-57276794D01*
X159667657Y-57317657D01*
X159626794Y-57367450D01*
X159625000Y-57370806D01*
X159623206Y-57367450D01*
X159582343Y-57317657D01*
X159532550Y-57276794D01*
X159475743Y-57246430D01*
X159414103Y-57227732D01*
X159350000Y-57221418D01*
X158808750Y-57223000D01*
X158727000Y-57304750D01*
X158473000Y-57304750D01*
X158391250Y-57223000D01*
X157850000Y-57221418D01*
X157785897Y-57227732D01*
X157724257Y-57246430D01*
X157667450Y-57276794D01*
X157617657Y-57317657D01*
X157600000Y-57339173D01*
X157582343Y-57317657D01*
X157532550Y-57276794D01*
X157475743Y-57246430D01*
X157414103Y-57227732D01*
X157350000Y-57221418D01*
X156808750Y-57223000D01*
X156727000Y-57304750D01*
X156473000Y-57304750D01*
X156391250Y-57223000D01*
X155850000Y-57221418D01*
X155785897Y-57227732D01*
X155724257Y-57246430D01*
X155667450Y-57276794D01*
X155617657Y-57317657D01*
X155576794Y-57367450D01*
X155575000Y-57370806D01*
X155573206Y-57367450D01*
X155532343Y-57317657D01*
X155482550Y-57276794D01*
X155425743Y-57246430D01*
X155364103Y-57227732D01*
X155300000Y-57221418D01*
X154908750Y-57223000D01*
X154827000Y-57304750D01*
X154827000Y-57566358D01*
X154800214Y-57529390D01*
X154665685Y-57404710D01*
X154573000Y-57347748D01*
X154573000Y-57304750D01*
X154491250Y-57223000D01*
X154100000Y-57221418D01*
X154083939Y-57223000D01*
X153972998Y-57223000D01*
X153972998Y-57247103D01*
X153917450Y-57276794D01*
X153902701Y-57288898D01*
X153830916Y-57262913D01*
X153690583Y-57308671D01*
X153534315Y-57404710D01*
X153399786Y-57529390D01*
X153292165Y-57677920D01*
X153215589Y-57844592D01*
X153173000Y-58023000D01*
X152475725Y-58023000D01*
X150391196Y-55885702D01*
X154046390Y-55885702D01*
X154083355Y-56089605D01*
X154159389Y-56282378D01*
X154176342Y-56314096D01*
X154326400Y-56393995D01*
X154920395Y-55800000D01*
X154326400Y-55206005D01*
X154176342Y-55285904D01*
X154093795Y-55475979D01*
X154049915Y-55678506D01*
X154046390Y-55885702D01*
X150391196Y-55885702D01*
X145432052Y-50801022D01*
X146867873Y-50801022D01*
X146867873Y-51801022D01*
X146875152Y-51874927D01*
X146896709Y-51945992D01*
X146931716Y-52011485D01*
X146978828Y-52068891D01*
X147036234Y-52116003D01*
X147101727Y-52151010D01*
X147172792Y-52172567D01*
X147246697Y-52179846D01*
X147877560Y-52179846D01*
X147985420Y-52287706D01*
X147999211Y-52304510D01*
X148066285Y-52359557D01*
X148142810Y-52400461D01*
X148225845Y-52425649D01*
X148290562Y-52432023D01*
X148290569Y-52432023D01*
X148312198Y-52434153D01*
X148333827Y-52432023D01*
X154616173Y-52432023D01*
X154637802Y-52434153D01*
X154659431Y-52432023D01*
X154659438Y-52432023D01*
X154724155Y-52425649D01*
X154807190Y-52400461D01*
X154883715Y-52359557D01*
X154950789Y-52304510D01*
X154964584Y-52287701D01*
X155420159Y-51832127D01*
X156051022Y-51832127D01*
X156124927Y-51824848D01*
X156195992Y-51803291D01*
X156261485Y-51768284D01*
X156318891Y-51721172D01*
X156366003Y-51663766D01*
X156401010Y-51598273D01*
X156422567Y-51527208D01*
X156429846Y-51453303D01*
X156429846Y-50703303D01*
X156422567Y-50629398D01*
X156401010Y-50558333D01*
X156366003Y-50492840D01*
X156318891Y-50435434D01*
X156261485Y-50388322D01*
X156195992Y-50353315D01*
X156124927Y-50331758D01*
X156051022Y-50324479D01*
X155051022Y-50324479D01*
X154977117Y-50331758D01*
X154906052Y-50353315D01*
X154840559Y-50388322D01*
X154783153Y-50435434D01*
X154736041Y-50492840D01*
X154701034Y-50558333D01*
X154679477Y-50629398D01*
X154672198Y-50703303D01*
X154672198Y-51334167D01*
X154455342Y-51551023D01*
X150525521Y-51551023D01*
X150525521Y-50801022D01*
X150518242Y-50727117D01*
X150496685Y-50656052D01*
X150461678Y-50590559D01*
X150414566Y-50533153D01*
X150357160Y-50486041D01*
X150291667Y-50451034D01*
X150220602Y-50429477D01*
X150146697Y-50422198D01*
X149396697Y-50422198D01*
X149322792Y-50429477D01*
X149251727Y-50451034D01*
X149186234Y-50486041D01*
X149128828Y-50533153D01*
X149081716Y-50590559D01*
X149046709Y-50656052D01*
X149025152Y-50727117D01*
X149017873Y-50801022D01*
X149017873Y-51551023D01*
X148494659Y-51551023D01*
X148375521Y-51431885D01*
X148375521Y-50801022D01*
X148368242Y-50727117D01*
X148346685Y-50656052D01*
X148311678Y-50590559D01*
X148264566Y-50533153D01*
X148207160Y-50486041D01*
X148141667Y-50451034D01*
X148070602Y-50429477D01*
X147996697Y-50422198D01*
X147246697Y-50422198D01*
X147172792Y-50429477D01*
X147101727Y-50451034D01*
X147036234Y-50486041D01*
X146978828Y-50533153D01*
X146931716Y-50590559D01*
X146896709Y-50656052D01*
X146875152Y-50727117D01*
X146867873Y-50801022D01*
X145432052Y-50801022D01*
X140809142Y-46061087D01*
X141692987Y-46061087D01*
X141766892Y-46053808D01*
X141837957Y-46032251D01*
X141903450Y-45997244D01*
X141960856Y-45950132D01*
X142007968Y-45892726D01*
X142042975Y-45827233D01*
X142064532Y-45756168D01*
X142071811Y-45682263D01*
X142071811Y-44932263D01*
X144814163Y-44932263D01*
X144814163Y-45682263D01*
X144821442Y-45756168D01*
X144842999Y-45827233D01*
X144878006Y-45892726D01*
X144925118Y-45950132D01*
X144982524Y-45997244D01*
X145048017Y-46032251D01*
X145119082Y-46053808D01*
X145192987Y-46061087D01*
X146192987Y-46061087D01*
X146266892Y-46053808D01*
X146337957Y-46032251D01*
X146403450Y-45997244D01*
X146460856Y-45950132D01*
X146468761Y-45940500D01*
X147136453Y-45940500D01*
X147101727Y-45951034D01*
X147036234Y-45986041D01*
X146978828Y-46033153D01*
X146931716Y-46090559D01*
X146896709Y-46156052D01*
X146875152Y-46227117D01*
X146867873Y-46301022D01*
X146867873Y-47301022D01*
X146875152Y-47374927D01*
X146896709Y-47445992D01*
X146931716Y-47511485D01*
X146978828Y-47568891D01*
X147036234Y-47616003D01*
X147101727Y-47651010D01*
X147172792Y-47672567D01*
X147246697Y-47679846D01*
X147996697Y-47679846D01*
X148070602Y-47672567D01*
X148141667Y-47651010D01*
X148207160Y-47616003D01*
X148264566Y-47568891D01*
X148311678Y-47511485D01*
X148346685Y-47445992D01*
X148368242Y-47374927D01*
X148375521Y-47301022D01*
X148375521Y-46301022D01*
X148368242Y-46227117D01*
X148346685Y-46156052D01*
X148311678Y-46090559D01*
X148264566Y-46033153D01*
X148207160Y-45986041D01*
X148141667Y-45951034D01*
X148106941Y-45940500D01*
X148233077Y-45940500D01*
X148318437Y-46025860D01*
X148429320Y-46099950D01*
X148552526Y-46150984D01*
X148683321Y-46177000D01*
X148816679Y-46177000D01*
X148947474Y-46150984D01*
X149070680Y-46099950D01*
X149080039Y-46093697D01*
X149046709Y-46156052D01*
X149025152Y-46227117D01*
X149017873Y-46301022D01*
X149017873Y-47301022D01*
X149025152Y-47374927D01*
X149046709Y-47445992D01*
X149081716Y-47511485D01*
X149128828Y-47568891D01*
X149186234Y-47616003D01*
X149251727Y-47651010D01*
X149322792Y-47672567D01*
X149396697Y-47679846D01*
X150027560Y-47679846D01*
X150342875Y-47995161D01*
X150356666Y-48011965D01*
X150373469Y-48025755D01*
X150373471Y-48025757D01*
X150406601Y-48052946D01*
X150423740Y-48067012D01*
X150500265Y-48107916D01*
X150583300Y-48133104D01*
X150648017Y-48139478D01*
X150648024Y-48139478D01*
X150669653Y-48141608D01*
X150691282Y-48139478D01*
X151424479Y-48139478D01*
X151424479Y-48198978D01*
X151431758Y-48272883D01*
X151453315Y-48343948D01*
X151488322Y-48409441D01*
X151535434Y-48466847D01*
X151592840Y-48513959D01*
X151658333Y-48548966D01*
X151729398Y-48570523D01*
X151803303Y-48577802D01*
X152553303Y-48577802D01*
X152627208Y-48570523D01*
X152698273Y-48548966D01*
X152763766Y-48513959D01*
X152821172Y-48466847D01*
X152868284Y-48409441D01*
X152903291Y-48343948D01*
X152924848Y-48272883D01*
X152932127Y-48198978D01*
X152932127Y-47198978D01*
X153574479Y-47198978D01*
X153574479Y-48198978D01*
X153581758Y-48272883D01*
X153603315Y-48343948D01*
X153638322Y-48409441D01*
X153685434Y-48466847D01*
X153742840Y-48513959D01*
X153808333Y-48548966D01*
X153879398Y-48570523D01*
X153953303Y-48577802D01*
X154672198Y-48577802D01*
X154672198Y-49303303D01*
X154679477Y-49377208D01*
X154701034Y-49448273D01*
X154736041Y-49513766D01*
X154783153Y-49571172D01*
X154840559Y-49618284D01*
X154906052Y-49653291D01*
X154977117Y-49674848D01*
X155051022Y-49682127D01*
X156051022Y-49682127D01*
X156124927Y-49674848D01*
X156195992Y-49653291D01*
X156261485Y-49618284D01*
X156318891Y-49571172D01*
X156366003Y-49513766D01*
X156401010Y-49448273D01*
X156422567Y-49377208D01*
X156429846Y-49303303D01*
X156429846Y-48553303D01*
X156422567Y-48479398D01*
X156401010Y-48408333D01*
X156366003Y-48342840D01*
X156318891Y-48285434D01*
X156261485Y-48238322D01*
X156195992Y-48203315D01*
X156124927Y-48181758D01*
X156051022Y-48174479D01*
X155082127Y-48174479D01*
X155082127Y-47198978D01*
X155074848Y-47125073D01*
X155053291Y-47054008D01*
X155018284Y-46988515D01*
X154971172Y-46931109D01*
X154913766Y-46883997D01*
X154848273Y-46848990D01*
X154777208Y-46827433D01*
X154703303Y-46820154D01*
X153953303Y-46820154D01*
X153879398Y-46827433D01*
X153808333Y-46848990D01*
X153742840Y-46883997D01*
X153685434Y-46931109D01*
X153638322Y-46988515D01*
X153603315Y-47054008D01*
X153581758Y-47125073D01*
X153574479Y-47198978D01*
X152932127Y-47198978D01*
X152924848Y-47125073D01*
X152903291Y-47054008D01*
X152868284Y-46988515D01*
X152821172Y-46931109D01*
X152763766Y-46883997D01*
X152698273Y-46848990D01*
X152627208Y-46827433D01*
X152553303Y-46820154D01*
X151803303Y-46820154D01*
X151729398Y-46827433D01*
X151658333Y-46848990D01*
X151592840Y-46883997D01*
X151535434Y-46931109D01*
X151488322Y-46988515D01*
X151453315Y-47054008D01*
X151431758Y-47125073D01*
X151424479Y-47198978D01*
X151424479Y-47258478D01*
X150852114Y-47258478D01*
X150525521Y-46931886D01*
X150525521Y-46301022D01*
X150518242Y-46227117D01*
X150496685Y-46156052D01*
X150461678Y-46090559D01*
X150414566Y-46033153D01*
X150357160Y-45986041D01*
X150291667Y-45951034D01*
X150220602Y-45929477D01*
X150181771Y-45925652D01*
X150275860Y-45831563D01*
X150349950Y-45720680D01*
X150400984Y-45597474D01*
X150408318Y-45560604D01*
X150634396Y-45786682D01*
X150648188Y-45803487D01*
X150664991Y-45817277D01*
X150664993Y-45817279D01*
X150705547Y-45850561D01*
X150715262Y-45858534D01*
X150791787Y-45899438D01*
X150874822Y-45924626D01*
X150939539Y-45931000D01*
X150939546Y-45931000D01*
X150961175Y-45933130D01*
X150982804Y-45931000D01*
X150983077Y-45931000D01*
X151068437Y-46016360D01*
X151179320Y-46090450D01*
X151302526Y-46141484D01*
X151433321Y-46167500D01*
X151566679Y-46167500D01*
X151697474Y-46141484D01*
X151820680Y-46090450D01*
X151931563Y-46016360D01*
X152025860Y-45922063D01*
X152099950Y-45811180D01*
X152150984Y-45687974D01*
X152177000Y-45557179D01*
X152177000Y-45423821D01*
X152150984Y-45293026D01*
X152099950Y-45169820D01*
X152025860Y-45058937D01*
X151940500Y-44973577D01*
X151940500Y-44077802D01*
X152467882Y-44077802D01*
X152400050Y-44179320D01*
X152349016Y-44302526D01*
X152323000Y-44433321D01*
X152323000Y-44566679D01*
X152349016Y-44697474D01*
X152400050Y-44820680D01*
X152474140Y-44931563D01*
X152568437Y-45025860D01*
X152679320Y-45099950D01*
X152802526Y-45150984D01*
X152933321Y-45177000D01*
X153066679Y-45177000D01*
X153197474Y-45150984D01*
X153320680Y-45099950D01*
X153431563Y-45025860D01*
X153525860Y-44931563D01*
X153599950Y-44820680D01*
X153650984Y-44697474D01*
X153677000Y-44566679D01*
X153677000Y-44433321D01*
X153650984Y-44302526D01*
X153599950Y-44179320D01*
X153525860Y-44068437D01*
X153502000Y-44044577D01*
X153502000Y-42716715D01*
X153504427Y-42692072D01*
X153502000Y-42667429D01*
X153502000Y-42667420D01*
X153494736Y-42593664D01*
X153466031Y-42499037D01*
X153419417Y-42411828D01*
X153403739Y-42392725D01*
X153372399Y-42354537D01*
X153372397Y-42354535D01*
X153368082Y-42349278D01*
X153431563Y-42306861D01*
X153525860Y-42212564D01*
X153599950Y-42101681D01*
X153650984Y-41978475D01*
X153677000Y-41847680D01*
X153677000Y-41714322D01*
X153650984Y-41583527D01*
X153599950Y-41460321D01*
X153525860Y-41349438D01*
X153431563Y-41255141D01*
X153320680Y-41181051D01*
X153197474Y-41130017D01*
X153066679Y-41104001D01*
X153006859Y-41104001D01*
X153050984Y-40997474D01*
X153077000Y-40866679D01*
X153077000Y-40733321D01*
X153050984Y-40602526D01*
X152999950Y-40479320D01*
X152925860Y-40368437D01*
X152831563Y-40274140D01*
X152720680Y-40200050D01*
X152597474Y-40149016D01*
X152466679Y-40123000D01*
X152333321Y-40123000D01*
X152202526Y-40149016D01*
X152079320Y-40200050D01*
X151976305Y-40268882D01*
X151931563Y-40224140D01*
X151820680Y-40150050D01*
X151697474Y-40099016D01*
X151566679Y-40073000D01*
X151433321Y-40073000D01*
X151302526Y-40099016D01*
X151179320Y-40150050D01*
X151068437Y-40224140D01*
X150974140Y-40318437D01*
X150900050Y-40429320D01*
X150849016Y-40552526D01*
X150823000Y-40683321D01*
X150823000Y-40816679D01*
X150849016Y-40947474D01*
X150900050Y-41070680D01*
X150974140Y-41181563D01*
X150996766Y-41204189D01*
X150998000Y-41216716D01*
X150998000Y-41216725D01*
X151005264Y-41290481D01*
X151033969Y-41385108D01*
X151080583Y-41472318D01*
X151143316Y-41548757D01*
X151162467Y-41564474D01*
X151918146Y-42320154D01*
X151803303Y-42320154D01*
X151729398Y-42327433D01*
X151658333Y-42348990D01*
X151592840Y-42383997D01*
X151535434Y-42431109D01*
X151488322Y-42488515D01*
X151453315Y-42554008D01*
X151431758Y-42625073D01*
X151424479Y-42698978D01*
X151424479Y-43329842D01*
X151203817Y-43550504D01*
X151187014Y-43564294D01*
X151173224Y-43581097D01*
X151173221Y-43581100D01*
X151131966Y-43631369D01*
X151091062Y-43707894D01*
X151065874Y-43790929D01*
X151057370Y-43877281D01*
X151059501Y-43898920D01*
X151059500Y-44965865D01*
X150525521Y-44431886D01*
X150525521Y-43801022D01*
X150518242Y-43727117D01*
X150496685Y-43656052D01*
X150461678Y-43590559D01*
X150414566Y-43533153D01*
X150357160Y-43486041D01*
X150291667Y-43451034D01*
X150220602Y-43429477D01*
X150146697Y-43422198D01*
X149396697Y-43422198D01*
X149322792Y-43429477D01*
X149251727Y-43451034D01*
X149186234Y-43486041D01*
X149128828Y-43533153D01*
X149081716Y-43590559D01*
X149046709Y-43656052D01*
X149025152Y-43727117D01*
X149017873Y-43801022D01*
X149017873Y-44551023D01*
X148494659Y-44551023D01*
X148375521Y-44431885D01*
X148375521Y-43801022D01*
X148368242Y-43727117D01*
X148346685Y-43656052D01*
X148311678Y-43590559D01*
X148264566Y-43533153D01*
X148207160Y-43486041D01*
X148141667Y-43451034D01*
X148070602Y-43429477D01*
X147996697Y-43422198D01*
X147246697Y-43422198D01*
X147172792Y-43429477D01*
X147101727Y-43451034D01*
X147036234Y-43486041D01*
X146978828Y-43533153D01*
X146931716Y-43590559D01*
X146896709Y-43656052D01*
X146875152Y-43727117D01*
X146867873Y-43801022D01*
X146867873Y-44801022D01*
X146875152Y-44874927D01*
X146896709Y-44945992D01*
X146931716Y-45011485D01*
X146971121Y-45059500D01*
X146571811Y-45059500D01*
X146571811Y-44932263D01*
X146564532Y-44858358D01*
X146542975Y-44787293D01*
X146507968Y-44721800D01*
X146460856Y-44664394D01*
X146403450Y-44617282D01*
X146337957Y-44582275D01*
X146266892Y-44560718D01*
X146192987Y-44553439D01*
X145192987Y-44553439D01*
X145119082Y-44560718D01*
X145048017Y-44582275D01*
X144982524Y-44617282D01*
X144925118Y-44664394D01*
X144878006Y-44721800D01*
X144842999Y-44787293D01*
X144821442Y-44858358D01*
X144814163Y-44932263D01*
X142071811Y-44932263D01*
X142064532Y-44858358D01*
X142042975Y-44787293D01*
X142007968Y-44721800D01*
X141960856Y-44664394D01*
X141903450Y-44617282D01*
X141837957Y-44582275D01*
X141766892Y-44560718D01*
X141692987Y-44553439D01*
X140692987Y-44553439D01*
X140619082Y-44560718D01*
X140548017Y-44582275D01*
X140482524Y-44617282D01*
X140425118Y-44664394D01*
X140378006Y-44721800D01*
X140342999Y-44787293D01*
X140321442Y-44858358D01*
X140314163Y-44932263D01*
X140314163Y-45553578D01*
X138342753Y-43532263D01*
X140364405Y-43532263D01*
X140370719Y-43596366D01*
X140389417Y-43658006D01*
X140419781Y-43714813D01*
X140460644Y-43764606D01*
X140510437Y-43805469D01*
X140567244Y-43835833D01*
X140628884Y-43854531D01*
X140692987Y-43860845D01*
X140984237Y-43859263D01*
X141065987Y-43777513D01*
X141065987Y-43284263D01*
X141319987Y-43284263D01*
X141319987Y-43777513D01*
X141401737Y-43859263D01*
X141692987Y-43860845D01*
X141757090Y-43854531D01*
X141818730Y-43835833D01*
X141875537Y-43805469D01*
X141925330Y-43764606D01*
X141966193Y-43714813D01*
X141996557Y-43658006D01*
X142015255Y-43596366D01*
X142021569Y-43532263D01*
X144864405Y-43532263D01*
X144870719Y-43596366D01*
X144889417Y-43658006D01*
X144919781Y-43714813D01*
X144960644Y-43764606D01*
X145010437Y-43805469D01*
X145067244Y-43835833D01*
X145128884Y-43854531D01*
X145192987Y-43860845D01*
X145484237Y-43859263D01*
X145565987Y-43777513D01*
X145565987Y-43284263D01*
X145819987Y-43284263D01*
X145819987Y-43777513D01*
X145901737Y-43859263D01*
X146192987Y-43860845D01*
X146257090Y-43854531D01*
X146318730Y-43835833D01*
X146375537Y-43805469D01*
X146425330Y-43764606D01*
X146466193Y-43714813D01*
X146496557Y-43658006D01*
X146515255Y-43596366D01*
X146521569Y-43532263D01*
X146519987Y-43366013D01*
X146438237Y-43284263D01*
X145819987Y-43284263D01*
X145565987Y-43284263D01*
X144947737Y-43284263D01*
X144865987Y-43366013D01*
X144864405Y-43532263D01*
X142021569Y-43532263D01*
X142019987Y-43366013D01*
X141938237Y-43284263D01*
X141319987Y-43284263D01*
X141065987Y-43284263D01*
X140447737Y-43284263D01*
X140365987Y-43366013D01*
X140364405Y-43532263D01*
X138342753Y-43532263D01*
X137611270Y-42782263D01*
X140364405Y-42782263D01*
X140365987Y-42948513D01*
X140447737Y-43030263D01*
X141065987Y-43030263D01*
X141065987Y-42537013D01*
X141319987Y-42537013D01*
X141319987Y-43030263D01*
X141938237Y-43030263D01*
X142019987Y-42948513D01*
X142021569Y-42782263D01*
X144864405Y-42782263D01*
X144865987Y-42948513D01*
X144947737Y-43030263D01*
X145565987Y-43030263D01*
X145565987Y-42537013D01*
X145819987Y-42537013D01*
X145819987Y-43030263D01*
X146438237Y-43030263D01*
X146519987Y-42948513D01*
X146521569Y-42782263D01*
X146515255Y-42718160D01*
X146496557Y-42656520D01*
X146466193Y-42599713D01*
X146425330Y-42549920D01*
X146375537Y-42509057D01*
X146349108Y-42494930D01*
X146383572Y-42476509D01*
X146433365Y-42435646D01*
X146474228Y-42385853D01*
X146504592Y-42329046D01*
X146523290Y-42267406D01*
X146529604Y-42203303D01*
X146528022Y-42037053D01*
X146446272Y-41955303D01*
X145828022Y-41955303D01*
X145828022Y-42448553D01*
X145868235Y-42488766D01*
X145819987Y-42537013D01*
X145565987Y-42537013D01*
X145525775Y-42496801D01*
X145574022Y-42448553D01*
X145574022Y-41955303D01*
X144955772Y-41955303D01*
X144874022Y-42037053D01*
X144872440Y-42203303D01*
X144878754Y-42267406D01*
X144897452Y-42329046D01*
X144927816Y-42385853D01*
X144968679Y-42435646D01*
X145018472Y-42476509D01*
X145044901Y-42490636D01*
X145010437Y-42509057D01*
X144960644Y-42549920D01*
X144919781Y-42599713D01*
X144889417Y-42656520D01*
X144870719Y-42718160D01*
X144864405Y-42782263D01*
X142021569Y-42782263D01*
X142015255Y-42718160D01*
X141996557Y-42656520D01*
X141966193Y-42599713D01*
X141925330Y-42549920D01*
X141875537Y-42509057D01*
X141849108Y-42494930D01*
X141883572Y-42476509D01*
X141933365Y-42435646D01*
X141974228Y-42385853D01*
X142004592Y-42329046D01*
X142023290Y-42267406D01*
X142029604Y-42203303D01*
X142028022Y-42037053D01*
X141946272Y-41955303D01*
X141328022Y-41955303D01*
X141328022Y-42448553D01*
X141368235Y-42488766D01*
X141319987Y-42537013D01*
X141065987Y-42537013D01*
X141025775Y-42496801D01*
X141074022Y-42448553D01*
X141074022Y-41955303D01*
X140455772Y-41955303D01*
X140374022Y-42037053D01*
X140372440Y-42203303D01*
X140378754Y-42267406D01*
X140397452Y-42329046D01*
X140427816Y-42385853D01*
X140468679Y-42435646D01*
X140518472Y-42476509D01*
X140544901Y-42490636D01*
X140510437Y-42509057D01*
X140460644Y-42549920D01*
X140419781Y-42599713D01*
X140389417Y-42656520D01*
X140370719Y-42718160D01*
X140364405Y-42782263D01*
X137611270Y-42782263D01*
X136627000Y-41773077D01*
X136627000Y-41453303D01*
X140372440Y-41453303D01*
X140374022Y-41619553D01*
X140455772Y-41701303D01*
X141074022Y-41701303D01*
X141074022Y-41208053D01*
X141328022Y-41208053D01*
X141328022Y-41701303D01*
X141946272Y-41701303D01*
X142028022Y-41619553D01*
X142029604Y-41453303D01*
X144872440Y-41453303D01*
X144874022Y-41619553D01*
X144955772Y-41701303D01*
X145574022Y-41701303D01*
X145574022Y-41208053D01*
X145828022Y-41208053D01*
X145828022Y-41701303D01*
X146446272Y-41701303D01*
X146528022Y-41619553D01*
X146529604Y-41453303D01*
X146523290Y-41389200D01*
X146504592Y-41327560D01*
X146474228Y-41270753D01*
X146433365Y-41220960D01*
X146383572Y-41180097D01*
X146326765Y-41149733D01*
X146265125Y-41131035D01*
X146201022Y-41124721D01*
X145909772Y-41126303D01*
X145828022Y-41208053D01*
X145574022Y-41208053D01*
X145492272Y-41126303D01*
X145201022Y-41124721D01*
X145136919Y-41131035D01*
X145075279Y-41149733D01*
X145018472Y-41180097D01*
X144968679Y-41220960D01*
X144927816Y-41270753D01*
X144897452Y-41327560D01*
X144878754Y-41389200D01*
X144872440Y-41453303D01*
X142029604Y-41453303D01*
X142023290Y-41389200D01*
X142004592Y-41327560D01*
X141974228Y-41270753D01*
X141933365Y-41220960D01*
X141883572Y-41180097D01*
X141826765Y-41149733D01*
X141765125Y-41131035D01*
X141701022Y-41124721D01*
X141409772Y-41126303D01*
X141328022Y-41208053D01*
X141074022Y-41208053D01*
X140992272Y-41126303D01*
X140701022Y-41124721D01*
X140636919Y-41131035D01*
X140575279Y-41149733D01*
X140518472Y-41180097D01*
X140468679Y-41220960D01*
X140427816Y-41270753D01*
X140397452Y-41327560D01*
X140378754Y-41389200D01*
X140372440Y-41453303D01*
X136627000Y-41453303D01*
X136627000Y-39303303D01*
X140322198Y-39303303D01*
X140322198Y-40053303D01*
X140329477Y-40127208D01*
X140351034Y-40198273D01*
X140386041Y-40263766D01*
X140433153Y-40321172D01*
X140490559Y-40368284D01*
X140556052Y-40403291D01*
X140627117Y-40424848D01*
X140701022Y-40432127D01*
X141701022Y-40432127D01*
X141774927Y-40424848D01*
X141845992Y-40403291D01*
X141911485Y-40368284D01*
X141968891Y-40321172D01*
X142016003Y-40263766D01*
X142051010Y-40198273D01*
X142072567Y-40127208D01*
X142079846Y-40053303D01*
X142079846Y-39303303D01*
X142072567Y-39229398D01*
X142051010Y-39158333D01*
X142016003Y-39092840D01*
X141968891Y-39035434D01*
X141911485Y-38988322D01*
X141845992Y-38953315D01*
X141774927Y-38931758D01*
X141701022Y-38924479D01*
X140701022Y-38924479D01*
X140627117Y-38931758D01*
X140556052Y-38953315D01*
X140490559Y-38988322D01*
X140433153Y-39035434D01*
X140386041Y-39092840D01*
X140351034Y-39158333D01*
X140329477Y-39229398D01*
X140322198Y-39303303D01*
X136627000Y-39303303D01*
X136627000Y-38552000D01*
X171938064Y-38552000D01*
X170840491Y-39649575D01*
%TA.AperFunction,Conductor*%
D30*
G36*
X170840491Y-39649575D02*
G01*
X170762077Y-39657298D01*
X170653494Y-39690236D01*
X170553423Y-39743725D01*
X170465710Y-39815710D01*
X170393725Y-39903423D01*
X170340236Y-40003494D01*
X170307298Y-40112077D01*
X170296176Y-40225000D01*
X170296176Y-40320952D01*
X170203824Y-40228600D01*
X170203824Y-40225000D01*
X170192702Y-40112077D01*
X170159764Y-40003494D01*
X170106275Y-39903423D01*
X170034290Y-39815710D01*
X169946577Y-39743725D01*
X169846506Y-39690236D01*
X169737923Y-39657298D01*
X169625000Y-39646176D01*
X169225000Y-39646176D01*
X169112077Y-39657298D01*
X169003494Y-39690236D01*
X168903423Y-39743725D01*
X168815710Y-39815710D01*
X168750000Y-39895777D01*
X168684290Y-39815710D01*
X168596577Y-39743725D01*
X168496506Y-39690236D01*
X168387923Y-39657298D01*
X168275000Y-39646176D01*
X167875000Y-39646176D01*
X167762077Y-39657298D01*
X167653494Y-39690236D01*
X167553423Y-39743725D01*
X167465710Y-39815710D01*
X167393725Y-39903423D01*
X167340236Y-40003494D01*
X167307298Y-40112077D01*
X167296176Y-40225000D01*
X167296176Y-40775000D01*
X167307298Y-40887923D01*
X167340236Y-40996506D01*
X167393725Y-41096577D01*
X167465710Y-41184290D01*
X167553423Y-41256275D01*
X167653494Y-41309764D01*
X167762077Y-41342702D01*
X167875000Y-41353824D01*
X168275000Y-41353824D01*
X168387923Y-41342702D01*
X168496506Y-41309764D01*
X168596577Y-41256275D01*
X168684290Y-41184290D01*
X168750000Y-41104223D01*
X168815710Y-41184290D01*
X168903423Y-41256275D01*
X169003494Y-41309764D01*
X169112077Y-41342702D01*
X169225000Y-41353824D01*
X169625000Y-41353824D01*
X169737923Y-41342702D01*
X169846506Y-41309764D01*
X169946577Y-41256275D01*
X169967998Y-41238695D01*
X170134403Y-41405099D01*
X170112077Y-41407298D01*
X170003494Y-41440236D01*
X169903423Y-41493725D01*
X169815710Y-41565710D01*
X169743725Y-41653423D01*
X169700388Y-41734500D01*
X169549612Y-41734500D01*
X169506275Y-41653423D01*
X169434290Y-41565710D01*
X169346577Y-41493725D01*
X169246506Y-41440236D01*
X169137923Y-41407298D01*
X169025000Y-41396176D01*
X168475000Y-41396176D01*
X168362077Y-41407298D01*
X168253494Y-41440236D01*
X168153423Y-41493725D01*
X168065710Y-41565710D01*
X167993725Y-41653423D01*
X167950388Y-41734500D01*
X167799612Y-41734500D01*
X167756275Y-41653423D01*
X167684290Y-41565710D01*
X167596577Y-41493725D01*
X167496506Y-41440236D01*
X167387923Y-41407298D01*
X167275000Y-41396176D01*
X166725000Y-41396176D01*
X166612077Y-41407298D01*
X166503494Y-41440236D01*
X166403423Y-41493725D01*
X166315710Y-41565710D01*
X166243725Y-41653423D01*
X166200388Y-41734500D01*
X162846625Y-41734500D01*
X162824999Y-41732370D01*
X162803373Y-41734500D01*
X162803364Y-41734500D01*
X162738647Y-41740874D01*
X162655612Y-41766062D01*
X162579087Y-41806966D01*
X162548625Y-41831966D01*
X162529478Y-41847680D01*
X162512013Y-41862013D01*
X162498222Y-41878817D01*
X162203821Y-42173218D01*
X162187013Y-42187013D01*
X162131966Y-42254088D01*
X162091062Y-42330613D01*
X162065874Y-42413648D01*
X162059500Y-42478365D01*
X162059500Y-42478371D01*
X162057370Y-42500000D01*
X162059500Y-42521629D01*
X162059501Y-43921576D01*
X161974140Y-44006937D01*
X161900050Y-44117820D01*
X161849016Y-44241026D01*
X161823000Y-44371821D01*
X161823000Y-44505179D01*
X161833805Y-44559499D01*
X161271626Y-44559499D01*
X161250000Y-44557369D01*
X161228374Y-44559499D01*
X161228366Y-44559499D01*
X161163649Y-44565873D01*
X161115057Y-44580613D01*
X161080613Y-44591061D01*
X161004088Y-44631965D01*
X160953819Y-44673220D01*
X160953813Y-44673226D01*
X160937015Y-44687012D01*
X160923229Y-44703810D01*
X160804039Y-44823000D01*
X160683321Y-44823000D01*
X160552526Y-44849016D01*
X160429320Y-44900050D01*
X160318437Y-44974140D01*
X160224140Y-45068437D01*
X160150050Y-45179320D01*
X160099016Y-45302526D01*
X160073000Y-45433321D01*
X160073000Y-45566679D01*
X160099016Y-45697474D01*
X160150050Y-45820680D01*
X160224140Y-45931563D01*
X160318437Y-46025860D01*
X160429320Y-46099950D01*
X160552526Y-46150984D01*
X160683321Y-46177000D01*
X160816679Y-46177000D01*
X160870030Y-46166388D01*
X159064343Y-47972076D01*
X159047534Y-47985871D01*
X158992487Y-48052946D01*
X158951583Y-48129471D01*
X158926395Y-48212506D01*
X158920021Y-48277223D01*
X158920021Y-48277229D01*
X158917891Y-48298858D01*
X158920021Y-48320487D01*
X158920022Y-50366163D01*
X158917891Y-50387802D01*
X158926395Y-50474154D01*
X158951583Y-50557189D01*
X158992487Y-50633714D01*
X159021746Y-50669365D01*
X159047535Y-50700789D01*
X159064338Y-50714579D01*
X159172198Y-50822439D01*
X159172198Y-51453303D01*
X159179477Y-51527208D01*
X159201034Y-51598273D01*
X159236041Y-51663766D01*
X159283153Y-51721172D01*
X159340559Y-51768284D01*
X159406052Y-51803291D01*
X159477117Y-51824848D01*
X159551022Y-51832127D01*
X160551022Y-51832127D01*
X160624927Y-51824848D01*
X160695992Y-51803291D01*
X160761485Y-51768284D01*
X160788605Y-51746028D01*
X160792577Y-51750000D01*
X160724140Y-51818437D01*
X160650050Y-51929320D01*
X160599016Y-52052526D01*
X160573000Y-52183321D01*
X160573000Y-52316679D01*
X160599016Y-52447474D01*
X160639827Y-52545999D01*
X158238499Y-52545999D01*
X158238499Y-43187234D01*
X159070154Y-42355579D01*
X159070154Y-42446697D01*
X159077433Y-42520602D01*
X159098990Y-42591667D01*
X159133997Y-42657160D01*
X159181109Y-42714566D01*
X159238515Y-42761678D01*
X159304008Y-42796685D01*
X159375073Y-42818242D01*
X159448978Y-42825521D01*
X160181886Y-42825521D01*
X160424479Y-43068115D01*
X160424479Y-43698978D01*
X160431758Y-43772883D01*
X160453315Y-43843948D01*
X160488322Y-43909441D01*
X160535434Y-43966847D01*
X160592840Y-44013959D01*
X160658333Y-44048966D01*
X160729398Y-44070523D01*
X160803303Y-44077802D01*
X161553303Y-44077802D01*
X161627208Y-44070523D01*
X161698273Y-44048966D01*
X161763766Y-44013959D01*
X161821172Y-43966847D01*
X161868284Y-43909441D01*
X161903291Y-43843948D01*
X161924848Y-43772883D01*
X161932127Y-43698978D01*
X161932127Y-42698978D01*
X161924848Y-42625073D01*
X161903291Y-42554008D01*
X161868284Y-42488515D01*
X161821172Y-42431109D01*
X161763766Y-42383997D01*
X161698273Y-42348990D01*
X161627208Y-42327433D01*
X161553303Y-42320154D01*
X160922439Y-42320154D01*
X160827802Y-42225517D01*
X160827802Y-41696697D01*
X160820523Y-41622792D01*
X160798966Y-41551727D01*
X160763959Y-41486234D01*
X160716847Y-41428828D01*
X160659441Y-41381716D01*
X160593948Y-41346709D01*
X160522883Y-41325152D01*
X160448978Y-41317873D01*
X160107861Y-41317873D01*
X160235234Y-41190500D01*
X160733077Y-41190500D01*
X160818437Y-41275860D01*
X160929320Y-41349950D01*
X161052526Y-41400984D01*
X161183321Y-41427000D01*
X161316679Y-41427000D01*
X161447474Y-41400984D01*
X161570680Y-41349950D01*
X161681563Y-41275860D01*
X161775860Y-41181563D01*
X161849950Y-41070680D01*
X161889582Y-40975000D01*
X165696418Y-40975000D01*
X165702732Y-41039103D01*
X165721430Y-41100743D01*
X165751794Y-41157550D01*
X165792657Y-41207343D01*
X165842450Y-41248206D01*
X165899257Y-41278570D01*
X165960897Y-41297268D01*
X166025000Y-41303582D01*
X166216250Y-41302000D01*
X166298000Y-41220250D01*
X166298000Y-40627000D01*
X166552000Y-40627000D01*
X166552000Y-41220250D01*
X166633750Y-41302000D01*
X166825000Y-41303582D01*
X166889103Y-41297268D01*
X166950743Y-41278570D01*
X167007550Y-41248206D01*
X167057343Y-41207343D01*
X167098206Y-41157550D01*
X167128570Y-41100743D01*
X167147268Y-41039103D01*
X167153582Y-40975000D01*
X167152000Y-40708750D01*
X167070250Y-40627000D01*
X166552000Y-40627000D01*
X166298000Y-40627000D01*
X165779750Y-40627000D01*
X165698000Y-40708750D01*
X165696418Y-40975000D01*
X161889582Y-40975000D01*
X161900984Y-40947474D01*
X161927000Y-40816679D01*
X161927000Y-40683321D01*
X161900984Y-40552526D01*
X161849950Y-40429320D01*
X161775860Y-40318437D01*
X161707423Y-40250000D01*
X161775860Y-40181563D01*
X161849950Y-40070680D01*
X161868871Y-40025000D01*
X165696418Y-40025000D01*
X165698000Y-40291250D01*
X165779750Y-40373000D01*
X166298000Y-40373000D01*
X166298000Y-39779750D01*
X166552000Y-39779750D01*
X166552000Y-40373000D01*
X167070250Y-40373000D01*
X167152000Y-40291250D01*
X167153582Y-40025000D01*
X167147268Y-39960897D01*
X167128570Y-39899257D01*
X167098206Y-39842450D01*
X167057343Y-39792657D01*
X167007550Y-39751794D01*
X166950743Y-39721430D01*
X166889103Y-39702732D01*
X166825000Y-39696418D01*
X166633750Y-39698000D01*
X166552000Y-39779750D01*
X166298000Y-39779750D01*
X166216250Y-39698000D01*
X166025000Y-39696418D01*
X165960897Y-39702732D01*
X165899257Y-39721430D01*
X165842450Y-39751794D01*
X165792657Y-39792657D01*
X165751794Y-39842450D01*
X165721430Y-39899257D01*
X165702732Y-39960897D01*
X165696418Y-40025000D01*
X161868871Y-40025000D01*
X161900984Y-39947474D01*
X161927000Y-39816679D01*
X161927000Y-39683321D01*
X161900984Y-39552526D01*
X161849950Y-39429320D01*
X161775860Y-39318437D01*
X161681563Y-39224140D01*
X161570680Y-39150050D01*
X161447474Y-39099016D01*
X161316679Y-39073000D01*
X161195960Y-39073000D01*
X160937303Y-38814343D01*
X160923508Y-38797534D01*
X160856434Y-38742487D01*
X160779909Y-38701583D01*
X160696874Y-38676395D01*
X160632157Y-38670021D01*
X160632150Y-38670021D01*
X160610521Y-38667891D01*
X160588892Y-38670021D01*
X146290432Y-38670021D01*
X146268803Y-38667891D01*
X146247174Y-38670021D01*
X146247168Y-38670021D01*
X146182451Y-38676395D01*
X146099416Y-38701583D01*
X146022891Y-38742487D01*
X145955817Y-38797534D01*
X145942026Y-38814338D01*
X145831885Y-38924479D01*
X145201022Y-38924479D01*
X145127117Y-38931758D01*
X145056052Y-38953315D01*
X144990559Y-38988322D01*
X144933153Y-39035434D01*
X144886041Y-39092840D01*
X144851034Y-39158333D01*
X144829477Y-39229398D01*
X144822198Y-39303303D01*
X144822198Y-40053303D01*
X144829477Y-40127208D01*
X144851034Y-40198273D01*
X144886041Y-40263766D01*
X144933153Y-40321172D01*
X144990559Y-40368284D01*
X145056052Y-40403291D01*
X145127117Y-40424848D01*
X145201022Y-40432127D01*
X146201022Y-40432127D01*
X146274927Y-40424848D01*
X146345992Y-40403291D01*
X146411485Y-40368284D01*
X146468891Y-40321172D01*
X146516003Y-40263766D01*
X146551010Y-40198273D01*
X146572567Y-40127208D01*
X146579846Y-40053303D01*
X146579846Y-39551021D01*
X146867873Y-39551021D01*
X146867873Y-40301022D01*
X146875152Y-40374927D01*
X146896709Y-40445992D01*
X146931716Y-40511485D01*
X146978828Y-40568891D01*
X147036234Y-40616003D01*
X147101727Y-40651010D01*
X147172792Y-40672567D01*
X147246697Y-40679846D01*
X147996697Y-40679846D01*
X148070602Y-40672567D01*
X148141667Y-40651010D01*
X148207160Y-40616003D01*
X148264566Y-40568891D01*
X148311678Y-40511485D01*
X148346685Y-40445992D01*
X148368242Y-40374927D01*
X148375521Y-40301022D01*
X148375521Y-39551021D01*
X149017873Y-39551021D01*
X149017873Y-40301022D01*
X149025152Y-40374927D01*
X149046709Y-40445992D01*
X149081716Y-40511485D01*
X149128828Y-40568891D01*
X149186234Y-40616003D01*
X149251727Y-40651010D01*
X149322792Y-40672567D01*
X149396697Y-40679846D01*
X150146697Y-40679846D01*
X150220602Y-40672567D01*
X150291667Y-40651010D01*
X150357160Y-40616003D01*
X150414566Y-40568891D01*
X150461678Y-40511485D01*
X150496685Y-40445992D01*
X150518242Y-40374927D01*
X150525521Y-40301022D01*
X150525521Y-39551021D01*
X154570154Y-39551021D01*
X154570154Y-40177561D01*
X154032120Y-40715595D01*
X154015317Y-40729385D01*
X154001527Y-40746188D01*
X154001524Y-40746191D01*
X153960269Y-40796460D01*
X153919365Y-40872985D01*
X153894177Y-40956020D01*
X153885673Y-41042372D01*
X153887804Y-41064011D01*
X153887803Y-42326605D01*
X153879398Y-42327433D01*
X153808333Y-42348990D01*
X153742840Y-42383997D01*
X153685434Y-42431109D01*
X153638322Y-42488515D01*
X153603315Y-42554008D01*
X153581758Y-42625073D01*
X153574479Y-42698978D01*
X153574479Y-43698978D01*
X153581758Y-43772883D01*
X153603315Y-43843948D01*
X153638322Y-43909441D01*
X153685434Y-43966847D01*
X153742840Y-44013959D01*
X153808333Y-44048966D01*
X153879398Y-44070523D01*
X153953303Y-44077802D01*
X154335556Y-44077802D01*
X154349016Y-44145474D01*
X154400050Y-44268680D01*
X154474140Y-44379563D01*
X154568437Y-44473860D01*
X154679320Y-44547950D01*
X154802526Y-44598984D01*
X154933321Y-44625000D01*
X155066679Y-44625000D01*
X155197474Y-44598984D01*
X155320680Y-44547950D01*
X155431563Y-44473860D01*
X155525860Y-44379563D01*
X155599950Y-44268680D01*
X155650984Y-44145474D01*
X155677000Y-44014679D01*
X155677000Y-43881321D01*
X155650984Y-43750526D01*
X155599950Y-43627320D01*
X155525860Y-43516437D01*
X155431563Y-43422140D01*
X155320680Y-43348050D01*
X155197474Y-43297016D01*
X155082127Y-43274073D01*
X155082127Y-42825521D01*
X155747627Y-42825521D01*
X155723000Y-42949333D01*
X155723000Y-43082691D01*
X155749016Y-43213486D01*
X155800050Y-43336692D01*
X155874140Y-43447575D01*
X155968437Y-43541872D01*
X156079320Y-43615962D01*
X156202526Y-43666996D01*
X156333321Y-43693012D01*
X156466679Y-43693012D01*
X156597474Y-43666996D01*
X156720680Y-43615962D01*
X156800000Y-43562962D01*
X156879320Y-43615962D01*
X157002526Y-43666996D01*
X157133321Y-43693012D01*
X157266679Y-43693012D01*
X157357500Y-43674947D01*
X157357499Y-52545999D01*
X156959682Y-52545999D01*
X156935039Y-52543572D01*
X156910396Y-52545999D01*
X156910386Y-52545999D01*
X156836630Y-52553263D01*
X156742003Y-52581968D01*
X156705491Y-52601484D01*
X156654793Y-52628582D01*
X156597503Y-52675599D01*
X156597495Y-52675607D01*
X156578355Y-52691315D01*
X156562646Y-52710456D01*
X155962462Y-53310641D01*
X155943317Y-53326354D01*
X155927604Y-53345500D01*
X155927601Y-53345503D01*
X155880584Y-53402793D01*
X155833970Y-53490002D01*
X155805265Y-53584629D01*
X155795573Y-53683038D01*
X155798001Y-53707691D01*
X155798000Y-54898719D01*
X155785019Y-54914537D01*
X155758407Y-54964325D01*
X155757237Y-54963155D01*
X155693994Y-55026398D01*
X155614096Y-54876342D01*
X155424021Y-54793795D01*
X155221494Y-54749915D01*
X155014298Y-54746390D01*
X154810395Y-54783355D01*
X154617622Y-54859389D01*
X154585904Y-54876342D01*
X154506005Y-55026400D01*
X155100000Y-55620395D01*
X155114143Y-55606253D01*
X155293748Y-55785858D01*
X155279605Y-55800000D01*
X155293748Y-55814143D01*
X155114143Y-55993748D01*
X155100000Y-55979605D01*
X154506005Y-56573600D01*
X154585904Y-56723658D01*
X154775979Y-56806205D01*
X154978506Y-56850085D01*
X155185702Y-56853610D01*
X155389605Y-56816645D01*
X155582378Y-56740611D01*
X155614096Y-56723658D01*
X155693994Y-56573602D01*
X155757237Y-56636845D01*
X155758407Y-56635675D01*
X155785019Y-56685463D01*
X155832131Y-56742869D01*
X155889537Y-56789981D01*
X155955030Y-56824988D01*
X156026095Y-56846545D01*
X156100000Y-56853824D01*
X156500000Y-56853824D01*
X156573905Y-56846545D01*
X156625000Y-56831046D01*
X156676095Y-56846545D01*
X156750000Y-56853824D01*
X157150000Y-56853824D01*
X157223905Y-56846545D01*
X157275000Y-56831046D01*
X157326095Y-56846545D01*
X157400000Y-56853824D01*
X157800000Y-56853824D01*
X157873905Y-56846545D01*
X157925000Y-56831046D01*
X157976095Y-56846545D01*
X158050000Y-56853824D01*
X158450000Y-56853824D01*
X158523905Y-56846545D01*
X158594970Y-56824988D01*
X158645129Y-56798177D01*
X158700000Y-56803582D01*
X158745250Y-56802000D01*
X158827000Y-56720250D01*
X158827000Y-56493519D01*
X158828824Y-56475000D01*
X158828824Y-55125000D01*
X158827000Y-55106481D01*
X158827000Y-54879750D01*
X158973000Y-54879750D01*
X158973000Y-55673000D01*
X159047000Y-55673000D01*
X159047000Y-55849847D01*
X159046390Y-55885702D01*
X159047000Y-55889067D01*
X159047000Y-55927000D01*
X158973000Y-55927000D01*
X158973000Y-56720250D01*
X159054750Y-56802000D01*
X159100000Y-56803582D01*
X159164103Y-56797268D01*
X159225743Y-56778570D01*
X159282550Y-56748206D01*
X159332343Y-56707343D01*
X159373206Y-56657550D01*
X159403570Y-56600743D01*
X159404289Y-56598371D01*
X159442763Y-56636845D01*
X159506006Y-56573602D01*
X159585904Y-56723658D01*
X159775979Y-56806205D01*
X159978506Y-56850085D01*
X160185702Y-56853610D01*
X160389605Y-56816645D01*
X160582378Y-56740611D01*
X160614096Y-56723658D01*
X160693995Y-56573600D01*
X160100000Y-55979605D01*
X160085858Y-55993748D01*
X159906253Y-55814143D01*
X159920395Y-55800000D01*
X160279605Y-55800000D01*
X160873600Y-56393995D01*
X161023658Y-56314096D01*
X161106205Y-56124021D01*
X161150085Y-55921494D01*
X161153610Y-55714298D01*
X161116645Y-55510395D01*
X161040611Y-55317622D01*
X161023658Y-55285904D01*
X160873600Y-55206005D01*
X160279605Y-55800000D01*
X159920395Y-55800000D01*
X159906253Y-55785858D01*
X160085858Y-55606253D01*
X160100000Y-55620395D01*
X160693995Y-55026400D01*
X160614096Y-54876342D01*
X160424021Y-54793795D01*
X160221494Y-54749915D01*
X160014298Y-54746390D01*
X159810395Y-54783355D01*
X159617622Y-54859389D01*
X159585904Y-54876342D01*
X159506006Y-55026398D01*
X159442763Y-54963155D01*
X159404289Y-55001629D01*
X159403570Y-54999257D01*
X159373206Y-54942450D01*
X159332343Y-54892657D01*
X159282550Y-54851794D01*
X159225743Y-54821430D01*
X159164103Y-54802732D01*
X159100000Y-54796418D01*
X159054750Y-54798000D01*
X158973000Y-54879750D01*
X158827000Y-54879750D01*
X158745250Y-54798000D01*
X158700000Y-54796418D01*
X158645129Y-54801823D01*
X158594970Y-54775012D01*
X158523905Y-54753455D01*
X158450000Y-54746176D01*
X158050000Y-54746176D01*
X158040500Y-54747112D01*
X158040500Y-54021625D01*
X158042630Y-53999999D01*
X158040500Y-53978373D01*
X158040500Y-53978364D01*
X158034126Y-53913647D01*
X158008938Y-53830612D01*
X157968034Y-53754087D01*
X157912987Y-53687013D01*
X157896183Y-53673222D01*
X157877000Y-53654039D01*
X157877000Y-53549999D01*
X165371176Y-53549999D01*
X165371176Y-53755000D01*
X165378455Y-53828905D01*
X165396988Y-53890000D01*
X165378455Y-53951095D01*
X165371176Y-54025000D01*
X165371176Y-55025000D01*
X165378455Y-55098905D01*
X165400012Y-55169970D01*
X165429487Y-55225113D01*
X165427732Y-55230897D01*
X165421418Y-55295000D01*
X165423000Y-55586250D01*
X165504750Y-55668000D01*
X166223000Y-55668000D01*
X166223000Y-55648000D01*
X166477000Y-55648000D01*
X166477000Y-55668000D01*
X166497000Y-55668000D01*
X166497000Y-55922000D01*
X166477000Y-55922000D01*
X166477000Y-55942000D01*
X166223000Y-55942000D01*
X166223000Y-55922000D01*
X165504750Y-55922000D01*
X165423000Y-56003750D01*
X165421418Y-56295000D01*
X165427732Y-56359103D01*
X165429487Y-56364887D01*
X165400012Y-56420030D01*
X165378455Y-56491095D01*
X165371176Y-56565000D01*
X165371176Y-57565000D01*
X165378455Y-57638905D01*
X165400012Y-57709970D01*
X165435019Y-57775463D01*
X165482131Y-57832869D01*
X165539537Y-57879981D01*
X165605030Y-57914988D01*
X165676095Y-57936545D01*
X165750000Y-57943824D01*
X166950000Y-57943824D01*
X167023905Y-57936545D01*
X167094970Y-57914988D01*
X167160463Y-57879981D01*
X167217869Y-57832869D01*
X167264981Y-57775463D01*
X167299988Y-57709970D01*
X167317007Y-57653864D01*
X167433321Y-57677000D01*
X167566679Y-57677000D01*
X167697474Y-57650984D01*
X167820680Y-57599950D01*
X167931563Y-57525860D01*
X168025860Y-57431563D01*
X168099950Y-57320680D01*
X168137828Y-57229236D01*
X168454770Y-57546179D01*
X168468563Y-57562985D01*
X168485366Y-57576775D01*
X168485368Y-57576777D01*
X168488100Y-57579019D01*
X168535637Y-57618032D01*
X168612162Y-57658936D01*
X168695197Y-57684124D01*
X168759914Y-57690498D01*
X168759923Y-57690498D01*
X168781549Y-57692628D01*
X168803175Y-57690498D01*
X170323000Y-57690498D01*
X170323000Y-57816679D01*
X170334493Y-57874459D01*
X170314737Y-57885019D01*
X170257331Y-57932131D01*
X170210219Y-57989537D01*
X170175212Y-58055030D01*
X170153655Y-58126095D01*
X170146376Y-58200000D01*
X170146376Y-59400000D01*
X170151104Y-59448000D01*
X161816597Y-59448000D01*
X161907835Y-59322080D01*
X161984411Y-59155408D01*
X162027000Y-58977000D01*
X162027000Y-58627000D01*
X159654750Y-58627000D01*
X159625000Y-58656750D01*
X159595250Y-58627000D01*
X158727000Y-58627000D01*
X158727000Y-58647000D01*
X158473000Y-58647000D01*
X158473000Y-58627000D01*
X157604750Y-58627000D01*
X157600000Y-58631750D01*
X157595250Y-58627000D01*
X156727000Y-58627000D01*
X156727000Y-58647000D01*
X156473000Y-58647000D01*
X156473000Y-58627000D01*
X155604750Y-58627000D01*
X155575000Y-58656750D01*
X155545250Y-58627000D01*
X153173000Y-58627000D01*
X153173000Y-58737927D01*
X152475725Y-58023000D01*
X153173000Y-58023000D01*
X153173000Y-58373000D01*
X155545250Y-58373000D01*
X155575000Y-58343250D01*
X155604750Y-58373000D01*
X156473000Y-58373000D01*
X156473000Y-57304750D01*
X156727000Y-57304750D01*
X156727000Y-58373000D01*
X157595250Y-58373000D01*
X157600000Y-58368250D01*
X157604750Y-58373000D01*
X158473000Y-58373000D01*
X158473000Y-57304750D01*
X158727000Y-57304750D01*
X158727000Y-58373000D01*
X159595250Y-58373000D01*
X159625000Y-58343250D01*
X159654750Y-58373000D01*
X162027000Y-58373000D01*
X162027000Y-58023000D01*
X161984411Y-57844592D01*
X161907835Y-57677920D01*
X161800214Y-57529390D01*
X161665685Y-57404710D01*
X161509417Y-57308671D01*
X161369084Y-57262913D01*
X161297299Y-57288898D01*
X161282550Y-57276794D01*
X161227002Y-57247103D01*
X161227002Y-57223000D01*
X161116061Y-57223000D01*
X161100000Y-57221418D01*
X160708750Y-57223000D01*
X160627000Y-57304750D01*
X160627000Y-57347748D01*
X160534315Y-57404710D01*
X160399786Y-57529390D01*
X160373000Y-57566358D01*
X160373000Y-57304750D01*
X160291250Y-57223000D01*
X159900000Y-57221418D01*
X159835897Y-57227732D01*
X159774257Y-57246430D01*
X159717450Y-57276794D01*
X159667657Y-57317657D01*
X159626794Y-57367450D01*
X159625000Y-57370806D01*
X159623206Y-57367450D01*
X159582343Y-57317657D01*
X159532550Y-57276794D01*
X159475743Y-57246430D01*
X159414103Y-57227732D01*
X159350000Y-57221418D01*
X158808750Y-57223000D01*
X158727000Y-57304750D01*
X158473000Y-57304750D01*
X158391250Y-57223000D01*
X157850000Y-57221418D01*
X157785897Y-57227732D01*
X157724257Y-57246430D01*
X157667450Y-57276794D01*
X157617657Y-57317657D01*
X157600000Y-57339173D01*
X157582343Y-57317657D01*
X157532550Y-57276794D01*
X157475743Y-57246430D01*
X157414103Y-57227732D01*
X157350000Y-57221418D01*
X156808750Y-57223000D01*
X156727000Y-57304750D01*
X156473000Y-57304750D01*
X156391250Y-57223000D01*
X155850000Y-57221418D01*
X155785897Y-57227732D01*
X155724257Y-57246430D01*
X155667450Y-57276794D01*
X155617657Y-57317657D01*
X155576794Y-57367450D01*
X155575000Y-57370806D01*
X155573206Y-57367450D01*
X155532343Y-57317657D01*
X155482550Y-57276794D01*
X155425743Y-57246430D01*
X155364103Y-57227732D01*
X155300000Y-57221418D01*
X154908750Y-57223000D01*
X154827000Y-57304750D01*
X154827000Y-57566358D01*
X154800214Y-57529390D01*
X154665685Y-57404710D01*
X154573000Y-57347748D01*
X154573000Y-57304750D01*
X154491250Y-57223000D01*
X154100000Y-57221418D01*
X154083939Y-57223000D01*
X153972998Y-57223000D01*
X153972998Y-57247103D01*
X153917450Y-57276794D01*
X153902701Y-57288898D01*
X153830916Y-57262913D01*
X153690583Y-57308671D01*
X153534315Y-57404710D01*
X153399786Y-57529390D01*
X153292165Y-57677920D01*
X153215589Y-57844592D01*
X153173000Y-58023000D01*
X152475725Y-58023000D01*
X150391196Y-55885702D01*
X154046390Y-55885702D01*
X154083355Y-56089605D01*
X154159389Y-56282378D01*
X154176342Y-56314096D01*
X154326400Y-56393995D01*
X154920395Y-55800000D01*
X154326400Y-55206005D01*
X154176342Y-55285904D01*
X154093795Y-55475979D01*
X154049915Y-55678506D01*
X154046390Y-55885702D01*
X150391196Y-55885702D01*
X145432052Y-50801022D01*
X146867873Y-50801022D01*
X146867873Y-51801022D01*
X146875152Y-51874927D01*
X146896709Y-51945992D01*
X146931716Y-52011485D01*
X146978828Y-52068891D01*
X147036234Y-52116003D01*
X147101727Y-52151010D01*
X147172792Y-52172567D01*
X147246697Y-52179846D01*
X147877560Y-52179846D01*
X147985420Y-52287706D01*
X147999211Y-52304510D01*
X148066285Y-52359557D01*
X148142810Y-52400461D01*
X148225845Y-52425649D01*
X148290562Y-52432023D01*
X148290569Y-52432023D01*
X148312198Y-52434153D01*
X148333827Y-52432023D01*
X154616173Y-52432023D01*
X154637802Y-52434153D01*
X154659431Y-52432023D01*
X154659438Y-52432023D01*
X154724155Y-52425649D01*
X154807190Y-52400461D01*
X154883715Y-52359557D01*
X154950789Y-52304510D01*
X154964584Y-52287701D01*
X155420159Y-51832127D01*
X156051022Y-51832127D01*
X156124927Y-51824848D01*
X156195992Y-51803291D01*
X156261485Y-51768284D01*
X156318891Y-51721172D01*
X156366003Y-51663766D01*
X156401010Y-51598273D01*
X156422567Y-51527208D01*
X156429846Y-51453303D01*
X156429846Y-50703303D01*
X156422567Y-50629398D01*
X156401010Y-50558333D01*
X156366003Y-50492840D01*
X156318891Y-50435434D01*
X156261485Y-50388322D01*
X156195992Y-50353315D01*
X156124927Y-50331758D01*
X156051022Y-50324479D01*
X155051022Y-50324479D01*
X154977117Y-50331758D01*
X154906052Y-50353315D01*
X154840559Y-50388322D01*
X154783153Y-50435434D01*
X154736041Y-50492840D01*
X154701034Y-50558333D01*
X154679477Y-50629398D01*
X154672198Y-50703303D01*
X154672198Y-51334167D01*
X154455342Y-51551023D01*
X150525521Y-51551023D01*
X150525521Y-50801022D01*
X150518242Y-50727117D01*
X150496685Y-50656052D01*
X150461678Y-50590559D01*
X150414566Y-50533153D01*
X150357160Y-50486041D01*
X150291667Y-50451034D01*
X150220602Y-50429477D01*
X150146697Y-50422198D01*
X149396697Y-50422198D01*
X149322792Y-50429477D01*
X149251727Y-50451034D01*
X149186234Y-50486041D01*
X149128828Y-50533153D01*
X149081716Y-50590559D01*
X149046709Y-50656052D01*
X149025152Y-50727117D01*
X149017873Y-50801022D01*
X149017873Y-51551023D01*
X148494659Y-51551023D01*
X148375521Y-51431885D01*
X148375521Y-50801022D01*
X148368242Y-50727117D01*
X148346685Y-50656052D01*
X148311678Y-50590559D01*
X148264566Y-50533153D01*
X148207160Y-50486041D01*
X148141667Y-50451034D01*
X148070602Y-50429477D01*
X147996697Y-50422198D01*
X147246697Y-50422198D01*
X147172792Y-50429477D01*
X147101727Y-50451034D01*
X147036234Y-50486041D01*
X146978828Y-50533153D01*
X146931716Y-50590559D01*
X146896709Y-50656052D01*
X146875152Y-50727117D01*
X146867873Y-50801022D01*
X145432052Y-50801022D01*
X140809142Y-46061087D01*
X141692987Y-46061087D01*
X141766892Y-46053808D01*
X141837957Y-46032251D01*
X141903450Y-45997244D01*
X141960856Y-45950132D01*
X142007968Y-45892726D01*
X142042975Y-45827233D01*
X142064532Y-45756168D01*
X142071811Y-45682263D01*
X142071811Y-44932263D01*
X144814163Y-44932263D01*
X144814163Y-45682263D01*
X144821442Y-45756168D01*
X144842999Y-45827233D01*
X144878006Y-45892726D01*
X144925118Y-45950132D01*
X144982524Y-45997244D01*
X145048017Y-46032251D01*
X145119082Y-46053808D01*
X145192987Y-46061087D01*
X146192987Y-46061087D01*
X146266892Y-46053808D01*
X146337957Y-46032251D01*
X146403450Y-45997244D01*
X146460856Y-45950132D01*
X146468761Y-45940500D01*
X147136453Y-45940500D01*
X147101727Y-45951034D01*
X147036234Y-45986041D01*
X146978828Y-46033153D01*
X146931716Y-46090559D01*
X146896709Y-46156052D01*
X146875152Y-46227117D01*
X146867873Y-46301022D01*
X146867873Y-47301022D01*
X146875152Y-47374927D01*
X146896709Y-47445992D01*
X146931716Y-47511485D01*
X146978828Y-47568891D01*
X147036234Y-47616003D01*
X147101727Y-47651010D01*
X147172792Y-47672567D01*
X147246697Y-47679846D01*
X147996697Y-47679846D01*
X148070602Y-47672567D01*
X148141667Y-47651010D01*
X148207160Y-47616003D01*
X148264566Y-47568891D01*
X148311678Y-47511485D01*
X148346685Y-47445992D01*
X148368242Y-47374927D01*
X148375521Y-47301022D01*
X148375521Y-46301022D01*
X148368242Y-46227117D01*
X148346685Y-46156052D01*
X148311678Y-46090559D01*
X148264566Y-46033153D01*
X148207160Y-45986041D01*
X148141667Y-45951034D01*
X148106941Y-45940500D01*
X148233077Y-45940500D01*
X148318437Y-46025860D01*
X148429320Y-46099950D01*
X148552526Y-46150984D01*
X148683321Y-46177000D01*
X148816679Y-46177000D01*
X148947474Y-46150984D01*
X149070680Y-46099950D01*
X149080039Y-46093697D01*
X149046709Y-46156052D01*
X149025152Y-46227117D01*
X149017873Y-46301022D01*
X149017873Y-47301022D01*
X149025152Y-47374927D01*
X149046709Y-47445992D01*
X149081716Y-47511485D01*
X149128828Y-47568891D01*
X149186234Y-47616003D01*
X149251727Y-47651010D01*
X149322792Y-47672567D01*
X149396697Y-47679846D01*
X150027560Y-47679846D01*
X150342875Y-47995161D01*
X150356666Y-48011965D01*
X150373469Y-48025755D01*
X150373471Y-48025757D01*
X150406601Y-48052946D01*
X150423740Y-48067012D01*
X150500265Y-48107916D01*
X150583300Y-48133104D01*
X150648017Y-48139478D01*
X150648024Y-48139478D01*
X150669653Y-48141608D01*
X150691282Y-48139478D01*
X151424479Y-48139478D01*
X151424479Y-48198978D01*
X151431758Y-48272883D01*
X151453315Y-48343948D01*
X151488322Y-48409441D01*
X151535434Y-48466847D01*
X151592840Y-48513959D01*
X151658333Y-48548966D01*
X151729398Y-48570523D01*
X151803303Y-48577802D01*
X152553303Y-48577802D01*
X152627208Y-48570523D01*
X152698273Y-48548966D01*
X152763766Y-48513959D01*
X152821172Y-48466847D01*
X152868284Y-48409441D01*
X152903291Y-48343948D01*
X152924848Y-48272883D01*
X152932127Y-48198978D01*
X152932127Y-47198978D01*
X153574479Y-47198978D01*
X153574479Y-48198978D01*
X153581758Y-48272883D01*
X153603315Y-48343948D01*
X153638322Y-48409441D01*
X153685434Y-48466847D01*
X153742840Y-48513959D01*
X153808333Y-48548966D01*
X153879398Y-48570523D01*
X153953303Y-48577802D01*
X154672198Y-48577802D01*
X154672198Y-49303303D01*
X154679477Y-49377208D01*
X154701034Y-49448273D01*
X154736041Y-49513766D01*
X154783153Y-49571172D01*
X154840559Y-49618284D01*
X154906052Y-49653291D01*
X154977117Y-49674848D01*
X155051022Y-49682127D01*
X156051022Y-49682127D01*
X156124927Y-49674848D01*
X156195992Y-49653291D01*
X156261485Y-49618284D01*
X156318891Y-49571172D01*
X156366003Y-49513766D01*
X156401010Y-49448273D01*
X156422567Y-49377208D01*
X156429846Y-49303303D01*
X156429846Y-48553303D01*
X156422567Y-48479398D01*
X156401010Y-48408333D01*
X156366003Y-48342840D01*
X156318891Y-48285434D01*
X156261485Y-48238322D01*
X156195992Y-48203315D01*
X156124927Y-48181758D01*
X156051022Y-48174479D01*
X155082127Y-48174479D01*
X155082127Y-47198978D01*
X155074848Y-47125073D01*
X155053291Y-47054008D01*
X155018284Y-46988515D01*
X154971172Y-46931109D01*
X154913766Y-46883997D01*
X154848273Y-46848990D01*
X154777208Y-46827433D01*
X154703303Y-46820154D01*
X153953303Y-46820154D01*
X153879398Y-46827433D01*
X153808333Y-46848990D01*
X153742840Y-46883997D01*
X153685434Y-46931109D01*
X153638322Y-46988515D01*
X153603315Y-47054008D01*
X153581758Y-47125073D01*
X153574479Y-47198978D01*
X152932127Y-47198978D01*
X152924848Y-47125073D01*
X152903291Y-47054008D01*
X152868284Y-46988515D01*
X152821172Y-46931109D01*
X152763766Y-46883997D01*
X152698273Y-46848990D01*
X152627208Y-46827433D01*
X152553303Y-46820154D01*
X151803303Y-46820154D01*
X151729398Y-46827433D01*
X151658333Y-46848990D01*
X151592840Y-46883997D01*
X151535434Y-46931109D01*
X151488322Y-46988515D01*
X151453315Y-47054008D01*
X151431758Y-47125073D01*
X151424479Y-47198978D01*
X151424479Y-47258478D01*
X150852114Y-47258478D01*
X150525521Y-46931886D01*
X150525521Y-46301022D01*
X150518242Y-46227117D01*
X150496685Y-46156052D01*
X150461678Y-46090559D01*
X150414566Y-46033153D01*
X150357160Y-45986041D01*
X150291667Y-45951034D01*
X150220602Y-45929477D01*
X150181771Y-45925652D01*
X150275860Y-45831563D01*
X150349950Y-45720680D01*
X150400984Y-45597474D01*
X150408318Y-45560604D01*
X150634396Y-45786682D01*
X150648188Y-45803487D01*
X150664991Y-45817277D01*
X150664993Y-45817279D01*
X150705547Y-45850561D01*
X150715262Y-45858534D01*
X150791787Y-45899438D01*
X150874822Y-45924626D01*
X150939539Y-45931000D01*
X150939546Y-45931000D01*
X150961175Y-45933130D01*
X150982804Y-45931000D01*
X150983077Y-45931000D01*
X151068437Y-46016360D01*
X151179320Y-46090450D01*
X151302526Y-46141484D01*
X151433321Y-46167500D01*
X151566679Y-46167500D01*
X151697474Y-46141484D01*
X151820680Y-46090450D01*
X151931563Y-46016360D01*
X152025860Y-45922063D01*
X152099950Y-45811180D01*
X152150984Y-45687974D01*
X152177000Y-45557179D01*
X152177000Y-45423821D01*
X152150984Y-45293026D01*
X152099950Y-45169820D01*
X152025860Y-45058937D01*
X151940500Y-44973577D01*
X151940500Y-44077802D01*
X152467882Y-44077802D01*
X152400050Y-44179320D01*
X152349016Y-44302526D01*
X152323000Y-44433321D01*
X152323000Y-44566679D01*
X152349016Y-44697474D01*
X152400050Y-44820680D01*
X152474140Y-44931563D01*
X152568437Y-45025860D01*
X152679320Y-45099950D01*
X152802526Y-45150984D01*
X152933321Y-45177000D01*
X153066679Y-45177000D01*
X153197474Y-45150984D01*
X153320680Y-45099950D01*
X153431563Y-45025860D01*
X153525860Y-44931563D01*
X153599950Y-44820680D01*
X153650984Y-44697474D01*
X153677000Y-44566679D01*
X153677000Y-44433321D01*
X153650984Y-44302526D01*
X153599950Y-44179320D01*
X153525860Y-44068437D01*
X153502000Y-44044577D01*
X153502000Y-42716715D01*
X153504427Y-42692072D01*
X153502000Y-42667429D01*
X153502000Y-42667420D01*
X153494736Y-42593664D01*
X153466031Y-42499037D01*
X153419417Y-42411828D01*
X153403739Y-42392725D01*
X153372399Y-42354537D01*
X153372397Y-42354535D01*
X153368082Y-42349278D01*
X153431563Y-42306861D01*
X153525860Y-42212564D01*
X153599950Y-42101681D01*
X153650984Y-41978475D01*
X153677000Y-41847680D01*
X153677000Y-41714322D01*
X153650984Y-41583527D01*
X153599950Y-41460321D01*
X153525860Y-41349438D01*
X153431563Y-41255141D01*
X153320680Y-41181051D01*
X153197474Y-41130017D01*
X153066679Y-41104001D01*
X153006859Y-41104001D01*
X153050984Y-40997474D01*
X153077000Y-40866679D01*
X153077000Y-40733321D01*
X153050984Y-40602526D01*
X152999950Y-40479320D01*
X152925860Y-40368437D01*
X152831563Y-40274140D01*
X152720680Y-40200050D01*
X152597474Y-40149016D01*
X152466679Y-40123000D01*
X152333321Y-40123000D01*
X152202526Y-40149016D01*
X152079320Y-40200050D01*
X151976305Y-40268882D01*
X151931563Y-40224140D01*
X151820680Y-40150050D01*
X151697474Y-40099016D01*
X151566679Y-40073000D01*
X151433321Y-40073000D01*
X151302526Y-40099016D01*
X151179320Y-40150050D01*
X151068437Y-40224140D01*
X150974140Y-40318437D01*
X150900050Y-40429320D01*
X150849016Y-40552526D01*
X150823000Y-40683321D01*
X150823000Y-40816679D01*
X150849016Y-40947474D01*
X150900050Y-41070680D01*
X150974140Y-41181563D01*
X150996766Y-41204189D01*
X150998000Y-41216716D01*
X150998000Y-41216725D01*
X151005264Y-41290481D01*
X151033969Y-41385108D01*
X151080583Y-41472318D01*
X151143316Y-41548757D01*
X151162467Y-41564474D01*
X151918146Y-42320154D01*
X151803303Y-42320154D01*
X151729398Y-42327433D01*
X151658333Y-42348990D01*
X151592840Y-42383997D01*
X151535434Y-42431109D01*
X151488322Y-42488515D01*
X151453315Y-42554008D01*
X151431758Y-42625073D01*
X151424479Y-42698978D01*
X151424479Y-43329842D01*
X151203817Y-43550504D01*
X151187014Y-43564294D01*
X151173224Y-43581097D01*
X151173221Y-43581100D01*
X151131966Y-43631369D01*
X151091062Y-43707894D01*
X151065874Y-43790929D01*
X151057370Y-43877281D01*
X151059501Y-43898920D01*
X151059500Y-44965865D01*
X150525521Y-44431886D01*
X150525521Y-43801022D01*
X150518242Y-43727117D01*
X150496685Y-43656052D01*
X150461678Y-43590559D01*
X150414566Y-43533153D01*
X150357160Y-43486041D01*
X150291667Y-43451034D01*
X150220602Y-43429477D01*
X150146697Y-43422198D01*
X149396697Y-43422198D01*
X149322792Y-43429477D01*
X149251727Y-43451034D01*
X149186234Y-43486041D01*
X149128828Y-43533153D01*
X149081716Y-43590559D01*
X149046709Y-43656052D01*
X149025152Y-43727117D01*
X149017873Y-43801022D01*
X149017873Y-44551023D01*
X148494659Y-44551023D01*
X148375521Y-44431885D01*
X148375521Y-43801022D01*
X148368242Y-43727117D01*
X148346685Y-43656052D01*
X148311678Y-43590559D01*
X148264566Y-43533153D01*
X148207160Y-43486041D01*
X148141667Y-43451034D01*
X148070602Y-43429477D01*
X147996697Y-43422198D01*
X147246697Y-43422198D01*
X147172792Y-43429477D01*
X147101727Y-43451034D01*
X147036234Y-43486041D01*
X146978828Y-43533153D01*
X146931716Y-43590559D01*
X146896709Y-43656052D01*
X146875152Y-43727117D01*
X146867873Y-43801022D01*
X146867873Y-44801022D01*
X146875152Y-44874927D01*
X146896709Y-44945992D01*
X146931716Y-45011485D01*
X146971121Y-45059500D01*
X146571811Y-45059500D01*
X146571811Y-44932263D01*
X146564532Y-44858358D01*
X146542975Y-44787293D01*
X146507968Y-44721800D01*
X146460856Y-44664394D01*
X146403450Y-44617282D01*
X146337957Y-44582275D01*
X146266892Y-44560718D01*
X146192987Y-44553439D01*
X145192987Y-44553439D01*
X145119082Y-44560718D01*
X145048017Y-44582275D01*
X144982524Y-44617282D01*
X144925118Y-44664394D01*
X144878006Y-44721800D01*
X144842999Y-44787293D01*
X144821442Y-44858358D01*
X144814163Y-44932263D01*
X142071811Y-44932263D01*
X142064532Y-44858358D01*
X142042975Y-44787293D01*
X142007968Y-44721800D01*
X141960856Y-44664394D01*
X141903450Y-44617282D01*
X141837957Y-44582275D01*
X141766892Y-44560718D01*
X141692987Y-44553439D01*
X140692987Y-44553439D01*
X140619082Y-44560718D01*
X140548017Y-44582275D01*
X140482524Y-44617282D01*
X140425118Y-44664394D01*
X140378006Y-44721800D01*
X140342999Y-44787293D01*
X140321442Y-44858358D01*
X140314163Y-44932263D01*
X140314163Y-45553578D01*
X138342753Y-43532263D01*
X140364405Y-43532263D01*
X140370719Y-43596366D01*
X140389417Y-43658006D01*
X140419781Y-43714813D01*
X140460644Y-43764606D01*
X140510437Y-43805469D01*
X140567244Y-43835833D01*
X140628884Y-43854531D01*
X140692987Y-43860845D01*
X140984237Y-43859263D01*
X141065987Y-43777513D01*
X141065987Y-43284263D01*
X141319987Y-43284263D01*
X141319987Y-43777513D01*
X141401737Y-43859263D01*
X141692987Y-43860845D01*
X141757090Y-43854531D01*
X141818730Y-43835833D01*
X141875537Y-43805469D01*
X141925330Y-43764606D01*
X141966193Y-43714813D01*
X141996557Y-43658006D01*
X142015255Y-43596366D01*
X142021569Y-43532263D01*
X144864405Y-43532263D01*
X144870719Y-43596366D01*
X144889417Y-43658006D01*
X144919781Y-43714813D01*
X144960644Y-43764606D01*
X145010437Y-43805469D01*
X145067244Y-43835833D01*
X145128884Y-43854531D01*
X145192987Y-43860845D01*
X145484237Y-43859263D01*
X145565987Y-43777513D01*
X145565987Y-43284263D01*
X145819987Y-43284263D01*
X145819987Y-43777513D01*
X145901737Y-43859263D01*
X146192987Y-43860845D01*
X146257090Y-43854531D01*
X146318730Y-43835833D01*
X146375537Y-43805469D01*
X146425330Y-43764606D01*
X146466193Y-43714813D01*
X146496557Y-43658006D01*
X146515255Y-43596366D01*
X146521569Y-43532263D01*
X146519987Y-43366013D01*
X146438237Y-43284263D01*
X145819987Y-43284263D01*
X145565987Y-43284263D01*
X144947737Y-43284263D01*
X144865987Y-43366013D01*
X144864405Y-43532263D01*
X142021569Y-43532263D01*
X142019987Y-43366013D01*
X141938237Y-43284263D01*
X141319987Y-43284263D01*
X141065987Y-43284263D01*
X140447737Y-43284263D01*
X140365987Y-43366013D01*
X140364405Y-43532263D01*
X138342753Y-43532263D01*
X137611270Y-42782263D01*
X140364405Y-42782263D01*
X140365987Y-42948513D01*
X140447737Y-43030263D01*
X141065987Y-43030263D01*
X141065987Y-42537013D01*
X141319987Y-42537013D01*
X141319987Y-43030263D01*
X141938237Y-43030263D01*
X142019987Y-42948513D01*
X142021569Y-42782263D01*
X144864405Y-42782263D01*
X144865987Y-42948513D01*
X144947737Y-43030263D01*
X145565987Y-43030263D01*
X145565987Y-42537013D01*
X145819987Y-42537013D01*
X145819987Y-43030263D01*
X146438237Y-43030263D01*
X146519987Y-42948513D01*
X146521569Y-42782263D01*
X146515255Y-42718160D01*
X146496557Y-42656520D01*
X146466193Y-42599713D01*
X146425330Y-42549920D01*
X146375537Y-42509057D01*
X146349108Y-42494930D01*
X146383572Y-42476509D01*
X146433365Y-42435646D01*
X146474228Y-42385853D01*
X146504592Y-42329046D01*
X146523290Y-42267406D01*
X146529604Y-42203303D01*
X146528022Y-42037053D01*
X146446272Y-41955303D01*
X145828022Y-41955303D01*
X145828022Y-42448553D01*
X145868235Y-42488766D01*
X145819987Y-42537013D01*
X145565987Y-42537013D01*
X145525775Y-42496801D01*
X145574022Y-42448553D01*
X145574022Y-41955303D01*
X144955772Y-41955303D01*
X144874022Y-42037053D01*
X144872440Y-42203303D01*
X144878754Y-42267406D01*
X144897452Y-42329046D01*
X144927816Y-42385853D01*
X144968679Y-42435646D01*
X145018472Y-42476509D01*
X145044901Y-42490636D01*
X145010437Y-42509057D01*
X144960644Y-42549920D01*
X144919781Y-42599713D01*
X144889417Y-42656520D01*
X144870719Y-42718160D01*
X144864405Y-42782263D01*
X142021569Y-42782263D01*
X142015255Y-42718160D01*
X141996557Y-42656520D01*
X141966193Y-42599713D01*
X141925330Y-42549920D01*
X141875537Y-42509057D01*
X141849108Y-42494930D01*
X141883572Y-42476509D01*
X141933365Y-42435646D01*
X141974228Y-42385853D01*
X142004592Y-42329046D01*
X142023290Y-42267406D01*
X142029604Y-42203303D01*
X142028022Y-42037053D01*
X141946272Y-41955303D01*
X141328022Y-41955303D01*
X141328022Y-42448553D01*
X141368235Y-42488766D01*
X141319987Y-42537013D01*
X141065987Y-42537013D01*
X141025775Y-42496801D01*
X141074022Y-42448553D01*
X141074022Y-41955303D01*
X140455772Y-41955303D01*
X140374022Y-42037053D01*
X140372440Y-42203303D01*
X140378754Y-42267406D01*
X140397452Y-42329046D01*
X140427816Y-42385853D01*
X140468679Y-42435646D01*
X140518472Y-42476509D01*
X140544901Y-42490636D01*
X140510437Y-42509057D01*
X140460644Y-42549920D01*
X140419781Y-42599713D01*
X140389417Y-42656520D01*
X140370719Y-42718160D01*
X140364405Y-42782263D01*
X137611270Y-42782263D01*
X136627000Y-41773077D01*
X136627000Y-41453303D01*
X140372440Y-41453303D01*
X140374022Y-41619553D01*
X140455772Y-41701303D01*
X141074022Y-41701303D01*
X141074022Y-41208053D01*
X141328022Y-41208053D01*
X141328022Y-41701303D01*
X141946272Y-41701303D01*
X142028022Y-41619553D01*
X142029604Y-41453303D01*
X144872440Y-41453303D01*
X144874022Y-41619553D01*
X144955772Y-41701303D01*
X145574022Y-41701303D01*
X145574022Y-41208053D01*
X145828022Y-41208053D01*
X145828022Y-41701303D01*
X146446272Y-41701303D01*
X146528022Y-41619553D01*
X146529604Y-41453303D01*
X146523290Y-41389200D01*
X146504592Y-41327560D01*
X146474228Y-41270753D01*
X146433365Y-41220960D01*
X146383572Y-41180097D01*
X146326765Y-41149733D01*
X146265125Y-41131035D01*
X146201022Y-41124721D01*
X145909772Y-41126303D01*
X145828022Y-41208053D01*
X145574022Y-41208053D01*
X145492272Y-41126303D01*
X145201022Y-41124721D01*
X145136919Y-41131035D01*
X145075279Y-41149733D01*
X145018472Y-41180097D01*
X144968679Y-41220960D01*
X144927816Y-41270753D01*
X144897452Y-41327560D01*
X144878754Y-41389200D01*
X144872440Y-41453303D01*
X142029604Y-41453303D01*
X142023290Y-41389200D01*
X142004592Y-41327560D01*
X141974228Y-41270753D01*
X141933365Y-41220960D01*
X141883572Y-41180097D01*
X141826765Y-41149733D01*
X141765125Y-41131035D01*
X141701022Y-41124721D01*
X141409772Y-41126303D01*
X141328022Y-41208053D01*
X141074022Y-41208053D01*
X140992272Y-41126303D01*
X140701022Y-41124721D01*
X140636919Y-41131035D01*
X140575279Y-41149733D01*
X140518472Y-41180097D01*
X140468679Y-41220960D01*
X140427816Y-41270753D01*
X140397452Y-41327560D01*
X140378754Y-41389200D01*
X140372440Y-41453303D01*
X136627000Y-41453303D01*
X136627000Y-39303303D01*
X140322198Y-39303303D01*
X140322198Y-40053303D01*
X140329477Y-40127208D01*
X140351034Y-40198273D01*
X140386041Y-40263766D01*
X140433153Y-40321172D01*
X140490559Y-40368284D01*
X140556052Y-40403291D01*
X140627117Y-40424848D01*
X140701022Y-40432127D01*
X141701022Y-40432127D01*
X141774927Y-40424848D01*
X141845992Y-40403291D01*
X141911485Y-40368284D01*
X141968891Y-40321172D01*
X142016003Y-40263766D01*
X142051010Y-40198273D01*
X142072567Y-40127208D01*
X142079846Y-40053303D01*
X142079846Y-39303303D01*
X142072567Y-39229398D01*
X142051010Y-39158333D01*
X142016003Y-39092840D01*
X141968891Y-39035434D01*
X141911485Y-38988322D01*
X141845992Y-38953315D01*
X141774927Y-38931758D01*
X141701022Y-38924479D01*
X140701022Y-38924479D01*
X140627117Y-38931758D01*
X140556052Y-38953315D01*
X140490559Y-38988322D01*
X140433153Y-39035434D01*
X140386041Y-39092840D01*
X140351034Y-39158333D01*
X140329477Y-39229398D01*
X140322198Y-39303303D01*
X136627000Y-39303303D01*
X136627000Y-38552000D01*
X171938064Y-38552000D01*
X170840491Y-39649575D01*
G37*
%TD.AperFunction*%
D29*
X187183000Y-38691250D02*
X187264750Y-38773000D01*
X188183000Y-38773000D01*
X188183000Y-38753000D01*
X188437000Y-38753000D01*
X188437000Y-38773000D01*
X189355250Y-38773000D01*
X189437000Y-38691250D01*
X189437913Y-38552000D01*
X193223000Y-38552000D01*
X193223001Y-49873000D01*
X188500000Y-49873000D01*
X188475224Y-49875440D01*
X188451399Y-49882667D01*
X188429443Y-49894403D01*
X188410197Y-49910197D01*
X188394403Y-49929443D01*
X188382667Y-49951399D01*
X188375440Y-49975224D01*
X188373000Y-50000000D01*
X188373000Y-58032228D01*
X188350181Y-57989537D01*
X188303069Y-57932131D01*
X188245663Y-57885019D01*
X188180170Y-57850012D01*
X188109105Y-57828455D01*
X188035200Y-57821176D01*
X187898383Y-57821176D01*
X187894692Y-57816679D01*
X187861979Y-57776818D01*
X187861977Y-57776816D01*
X187848187Y-57760013D01*
X187831385Y-57746224D01*
X186248633Y-56163473D01*
X186234838Y-56146664D01*
X186167764Y-56091617D01*
X186091239Y-56050713D01*
X186008204Y-56025525D01*
X185943487Y-56019151D01*
X185943480Y-56019151D01*
X185921851Y-56017021D01*
X185900222Y-56019151D01*
X183427000Y-56019151D01*
X183427000Y-55902472D01*
X183400984Y-55771677D01*
X183349950Y-55648471D01*
X183275860Y-55537588D01*
X183181563Y-55443291D01*
X183070680Y-55369201D01*
X182947474Y-55318167D01*
X182816679Y-55292151D01*
X182683321Y-55292151D01*
X182552526Y-55318167D01*
X182429320Y-55369201D01*
X182358960Y-55416214D01*
X182349950Y-55394461D01*
X182275860Y-55283578D01*
X182181563Y-55189281D01*
X182070680Y-55115191D01*
X181947474Y-55064157D01*
X181816679Y-55038141D01*
X181683321Y-55038141D01*
X181552526Y-55064157D01*
X181429320Y-55115191D01*
X181318437Y-55189281D01*
X181224140Y-55283578D01*
X181150050Y-55394461D01*
X181101723Y-55511131D01*
X180131635Y-55511131D01*
X180050268Y-55429764D01*
X180036473Y-55412955D01*
X179969399Y-55357908D01*
X179892874Y-55317004D01*
X179809839Y-55291816D01*
X179745122Y-55285442D01*
X179745115Y-55285442D01*
X179723486Y-55283312D01*
X179701857Y-55285442D01*
X178148277Y-55285442D01*
X178099950Y-55168772D01*
X178025860Y-55057889D01*
X177931563Y-54963592D01*
X177886260Y-54933321D01*
X183323000Y-54933321D01*
X183323000Y-55066679D01*
X183349016Y-55197474D01*
X183400050Y-55320680D01*
X183474140Y-55431563D01*
X183568437Y-55525860D01*
X183679320Y-55599950D01*
X183802526Y-55650984D01*
X183933321Y-55677000D01*
X184066679Y-55677000D01*
X184197474Y-55650984D01*
X184320680Y-55599950D01*
X184431563Y-55525860D01*
X184516923Y-55440500D01*
X185228371Y-55440500D01*
X185250000Y-55442630D01*
X185271629Y-55440500D01*
X185271636Y-55440500D01*
X185336353Y-55434126D01*
X185419388Y-55408938D01*
X185495913Y-55368034D01*
X185562987Y-55312987D01*
X185576782Y-55296178D01*
X186796184Y-54076777D01*
X186812987Y-54062987D01*
X186832081Y-54039722D01*
X186868034Y-53995913D01*
X186908938Y-53919388D01*
X186934126Y-53836353D01*
X186934691Y-53830612D01*
X186940500Y-53771636D01*
X186940500Y-53771629D01*
X186942630Y-53750000D01*
X186940500Y-53728371D01*
X186940500Y-52266923D01*
X187025860Y-52181563D01*
X187099950Y-52070680D01*
X187150984Y-51947474D01*
X187177000Y-51816679D01*
X187177000Y-51683321D01*
X187150984Y-51552526D01*
X187099950Y-51429320D01*
X187025860Y-51318437D01*
X186931563Y-51224140D01*
X186820680Y-51150050D01*
X186697474Y-51099016D01*
X186566679Y-51073000D01*
X186433321Y-51073000D01*
X186302526Y-51099016D01*
X186179320Y-51150050D01*
X186068437Y-51224140D01*
X185974140Y-51318437D01*
X185900050Y-51429320D01*
X185849016Y-51552526D01*
X185823000Y-51683321D01*
X185823000Y-51816679D01*
X185849016Y-51947474D01*
X185900050Y-52070680D01*
X185974140Y-52181563D01*
X186059500Y-52266923D01*
X186059501Y-53567538D01*
X185067540Y-54559500D01*
X184516923Y-54559500D01*
X184431563Y-54474140D01*
X184320680Y-54400050D01*
X184197474Y-54349016D01*
X184066679Y-54323000D01*
X183933321Y-54323000D01*
X183802526Y-54349016D01*
X183679320Y-54400050D01*
X183568437Y-54474140D01*
X183474140Y-54568437D01*
X183400050Y-54679320D01*
X183349016Y-54802526D01*
X183323000Y-54933321D01*
X177886260Y-54933321D01*
X177820680Y-54889502D01*
X177697474Y-54838468D01*
X177566679Y-54812452D01*
X177433321Y-54812452D01*
X177302526Y-54838468D01*
X177179320Y-54889502D01*
X177068437Y-54963592D01*
X176974140Y-55057889D01*
X176900050Y-55168772D01*
X176849016Y-55291978D01*
X176823000Y-55422773D01*
X176823000Y-55539452D01*
X174793697Y-55539452D01*
X174684007Y-55429763D01*
X174670213Y-55412955D01*
X174603139Y-55357908D01*
X174526614Y-55317004D01*
X174443579Y-55291816D01*
X174378862Y-55285442D01*
X174378853Y-55285442D01*
X174357225Y-55283312D01*
X174335599Y-55285442D01*
X170648278Y-55285442D01*
X170599950Y-55168770D01*
X170525860Y-55057887D01*
X170431563Y-54963590D01*
X170320680Y-54889500D01*
X170197474Y-54838466D01*
X170066679Y-54812450D01*
X169933321Y-54812450D01*
X169802526Y-54838466D01*
X169679320Y-54889500D01*
X169568437Y-54963590D01*
X169474140Y-55057887D01*
X169400050Y-55168770D01*
X169349016Y-55291976D01*
X169336597Y-55354413D01*
X169214560Y-55232376D01*
X169214560Y-48667226D01*
X169224140Y-48681563D01*
X169318437Y-48775860D01*
X169429320Y-48849950D01*
X169498001Y-48878399D01*
X169498000Y-50794577D01*
X169474140Y-50818437D01*
X169400050Y-50929320D01*
X169349016Y-51052526D01*
X169323000Y-51183321D01*
X169323000Y-51316679D01*
X169349016Y-51447474D01*
X169400050Y-51570680D01*
X169474140Y-51681563D01*
X169568437Y-51775860D01*
X169679320Y-51849950D01*
X169802526Y-51900984D01*
X169933321Y-51927000D01*
X170066679Y-51927000D01*
X170197474Y-51900984D01*
X170320680Y-51849950D01*
X170431563Y-51775860D01*
X170525860Y-51681563D01*
X170599950Y-51570680D01*
X170650984Y-51447474D01*
X170677000Y-51316679D01*
X170677000Y-51183321D01*
X170650984Y-51052526D01*
X170599950Y-50929320D01*
X170525860Y-50818437D01*
X170502000Y-50794577D01*
X170502000Y-48524642D01*
X170504427Y-48499999D01*
X170502000Y-48475356D01*
X170502000Y-48475347D01*
X170494736Y-48401591D01*
X170466031Y-48306964D01*
X170427000Y-48233942D01*
X170427000Y-48183321D01*
X170400984Y-48052526D01*
X170349950Y-47929320D01*
X170275860Y-47818437D01*
X170181563Y-47724140D01*
X170070680Y-47650050D01*
X169947474Y-47599016D01*
X169816679Y-47573000D01*
X169683321Y-47573000D01*
X169552526Y-47599016D01*
X169429320Y-47650050D01*
X169318437Y-47724140D01*
X169224140Y-47818437D01*
X169214560Y-47832774D01*
X169214560Y-46908400D01*
X170135076Y-45987884D01*
X170135076Y-47060000D01*
X170142355Y-47133905D01*
X170163912Y-47204970D01*
X170198919Y-47270463D01*
X170246031Y-47327869D01*
X170303437Y-47374981D01*
X170368930Y-47409988D01*
X170439995Y-47431545D01*
X170513900Y-47438824D01*
X171513900Y-47438824D01*
X171587805Y-47431545D01*
X171648900Y-47413012D01*
X171709995Y-47431545D01*
X171783900Y-47438824D01*
X172783900Y-47438824D01*
X172857805Y-47431545D01*
X172918900Y-47413012D01*
X172979995Y-47431545D01*
X173053900Y-47438824D01*
X174053900Y-47438824D01*
X174127805Y-47431545D01*
X174188900Y-47413012D01*
X174249995Y-47431545D01*
X174323900Y-47438824D01*
X175323900Y-47438824D01*
X175397805Y-47431545D01*
X175458900Y-47413012D01*
X175519995Y-47431545D01*
X175593900Y-47438824D01*
X176593900Y-47438824D01*
X176667805Y-47431545D01*
X176728900Y-47413012D01*
X176789995Y-47431545D01*
X176863900Y-47438824D01*
X177863900Y-47438824D01*
X177937805Y-47431545D01*
X177998900Y-47413012D01*
X178059995Y-47431545D01*
X178133900Y-47438824D01*
X178573000Y-47438824D01*
X178573000Y-47566679D01*
X178599016Y-47697474D01*
X178650050Y-47820680D01*
X178724140Y-47931563D01*
X178818437Y-48025860D01*
X178854566Y-48050001D01*
X177412317Y-48050001D01*
X177400984Y-47993027D01*
X177349950Y-47869821D01*
X177275860Y-47758938D01*
X177181563Y-47664641D01*
X177070680Y-47590551D01*
X176947474Y-47539517D01*
X176816679Y-47513501D01*
X176683321Y-47513501D01*
X176552526Y-47539517D01*
X176429320Y-47590551D01*
X176318437Y-47664641D01*
X176224140Y-47758938D01*
X176150050Y-47869821D01*
X176099016Y-47993027D01*
X176073000Y-48123822D01*
X176073000Y-48257180D01*
X176099016Y-48387975D01*
X176150050Y-48511181D01*
X176224140Y-48622064D01*
X176318437Y-48716361D01*
X176429320Y-48790451D01*
X176552526Y-48841485D01*
X176589792Y-48848898D01*
X176573000Y-48933321D01*
X176573000Y-49059500D01*
X172804942Y-49059500D01*
X172783313Y-49057370D01*
X172761684Y-49059500D01*
X172761677Y-49059500D01*
X172696960Y-49065874D01*
X172613925Y-49091062D01*
X172537400Y-49131966D01*
X172491802Y-49169388D01*
X172470326Y-49187013D01*
X172456536Y-49203816D01*
X171481725Y-50178628D01*
X171361006Y-50178628D01*
X171230211Y-50204644D01*
X171107005Y-50255678D01*
X170996122Y-50329768D01*
X170901825Y-50424065D01*
X170827735Y-50534948D01*
X170776701Y-50658154D01*
X170750685Y-50788949D01*
X170750685Y-50922307D01*
X170776701Y-51053102D01*
X170827735Y-51176308D01*
X170901825Y-51287191D01*
X170996122Y-51381488D01*
X171107005Y-51455578D01*
X171230211Y-51506612D01*
X171361006Y-51532628D01*
X171494364Y-51532628D01*
X171619253Y-51507787D01*
X170571643Y-52555396D01*
X170565460Y-52543569D01*
X170564632Y-52542540D01*
X170564011Y-52541371D01*
X170541572Y-52513858D01*
X170519356Y-52486227D01*
X170518343Y-52485377D01*
X170517508Y-52484353D01*
X170490194Y-52461757D01*
X170462993Y-52438932D01*
X170461833Y-52438294D01*
X170460816Y-52437453D01*
X170429660Y-52420607D01*
X170398516Y-52403486D01*
X170397254Y-52403086D01*
X170396093Y-52402458D01*
X170362262Y-52391985D01*
X170328383Y-52381238D01*
X170327067Y-52381090D01*
X170325806Y-52380700D01*
X170290512Y-52376990D01*
X170255264Y-52373037D01*
X170252729Y-52373019D01*
X170252632Y-52373009D01*
X170252535Y-52373018D01*
X170250000Y-52373000D01*
X169750000Y-52373000D01*
X169714692Y-52376462D01*
X169679357Y-52379678D01*
X169678090Y-52380051D01*
X169676774Y-52380180D01*
X169642775Y-52390445D01*
X169608773Y-52400452D01*
X169607604Y-52401063D01*
X169606336Y-52401446D01*
X169574966Y-52418126D01*
X169543569Y-52434540D01*
X169542540Y-52435368D01*
X169541371Y-52435989D01*
X169513858Y-52458428D01*
X169486227Y-52480644D01*
X169485377Y-52481657D01*
X169484353Y-52482492D01*
X169461757Y-52509806D01*
X169438932Y-52537007D01*
X169438294Y-52538167D01*
X169437453Y-52539184D01*
X169420607Y-52570340D01*
X169403486Y-52601484D01*
X169403086Y-52602746D01*
X169402458Y-52603907D01*
X169391985Y-52637738D01*
X169381238Y-52671617D01*
X169381090Y-52672933D01*
X169380700Y-52674194D01*
X169376990Y-52709488D01*
X169373037Y-52744736D01*
X169373019Y-52747271D01*
X169373009Y-52747368D01*
X169373018Y-52747465D01*
X169373000Y-52750000D01*
X169373000Y-53494624D01*
X169349016Y-53552526D01*
X169323000Y-53683321D01*
X169323000Y-53816679D01*
X169349016Y-53947474D01*
X169400050Y-54070680D01*
X169474140Y-54181563D01*
X169568437Y-54275860D01*
X169679320Y-54349950D01*
X169802526Y-54400984D01*
X169933321Y-54427000D01*
X170066679Y-54427000D01*
X170197474Y-54400984D01*
X170320680Y-54349950D01*
X170431563Y-54275860D01*
X170525860Y-54181563D01*
X170599950Y-54070680D01*
X170650984Y-53947474D01*
X170677000Y-53816679D01*
X170677000Y-53695960D01*
X173491639Y-50881321D01*
X177573000Y-50881321D01*
X177573000Y-51014679D01*
X177599016Y-51145474D01*
X177650050Y-51268680D01*
X177724140Y-51379563D01*
X177809500Y-51464923D01*
X177809501Y-53233076D01*
X177724140Y-53318437D01*
X177650050Y-53429320D01*
X177599016Y-53552526D01*
X177573000Y-53683321D01*
X177573000Y-53816679D01*
X177599016Y-53947474D01*
X177650050Y-54070680D01*
X177724140Y-54181563D01*
X177818437Y-54275860D01*
X177929320Y-54349950D01*
X178052526Y-54400984D01*
X178183321Y-54427000D01*
X178316679Y-54427000D01*
X178447474Y-54400984D01*
X178570680Y-54349950D01*
X178681563Y-54275860D01*
X178775860Y-54181563D01*
X178849950Y-54070680D01*
X178900984Y-53947474D01*
X178927000Y-53816679D01*
X178927000Y-53683321D01*
X178900984Y-53552526D01*
X178849950Y-53429320D01*
X178775860Y-53318437D01*
X178690500Y-53233077D01*
X178690500Y-51464923D01*
X178775860Y-51379563D01*
X178849950Y-51268680D01*
X178900984Y-51145474D01*
X178927000Y-51014679D01*
X178927000Y-50881321D01*
X178900984Y-50750526D01*
X178849950Y-50627320D01*
X178775860Y-50516437D01*
X178681563Y-50422140D01*
X178570680Y-50348050D01*
X178447474Y-50297016D01*
X178316679Y-50271000D01*
X178183321Y-50271000D01*
X178052526Y-50297016D01*
X177929320Y-50348050D01*
X177818437Y-50422140D01*
X177724140Y-50516437D01*
X177650050Y-50627320D01*
X177599016Y-50750526D01*
X177573000Y-50881321D01*
X173491639Y-50881321D01*
X174178451Y-50194510D01*
X181821550Y-50194510D01*
X181823000Y-50195960D01*
X181823000Y-50316679D01*
X181849016Y-50447474D01*
X181900050Y-50570680D01*
X181974140Y-50681563D01*
X182068437Y-50775860D01*
X182179320Y-50849950D01*
X182302526Y-50900984D01*
X182433321Y-50927000D01*
X182566679Y-50927000D01*
X182697474Y-50900984D01*
X182820680Y-50849950D01*
X182931563Y-50775860D01*
X183025860Y-50681563D01*
X183099950Y-50570680D01*
X183150984Y-50447474D01*
X183177000Y-50316679D01*
X183177000Y-50183321D01*
X183175431Y-50175431D01*
X183183321Y-50177000D01*
X183316679Y-50177000D01*
X183447474Y-50150984D01*
X183570680Y-50099950D01*
X183681563Y-50025860D01*
X183775860Y-49931563D01*
X183849950Y-49820680D01*
X183885908Y-49733870D01*
X183921367Y-49757563D01*
X184044573Y-49808597D01*
X184175368Y-49834613D01*
X184308726Y-49834613D01*
X184439521Y-49808597D01*
X184562727Y-49757563D01*
X184673610Y-49683473D01*
X184767907Y-49589176D01*
X184841997Y-49478293D01*
X184893031Y-49355087D01*
X184919047Y-49224292D01*
X184919047Y-49090934D01*
X184893031Y-48960139D01*
X184874537Y-48915492D01*
X184947474Y-48900984D01*
X185070680Y-48849950D01*
X185181563Y-48775860D01*
X185275860Y-48681563D01*
X185349950Y-48570680D01*
X185400984Y-48447474D01*
X185427000Y-48316679D01*
X185427000Y-48183321D01*
X185400984Y-48052526D01*
X185354581Y-47940500D01*
X185558067Y-47940500D01*
X185643427Y-48025860D01*
X185754310Y-48099950D01*
X185877516Y-48150984D01*
X186008311Y-48177000D01*
X186141669Y-48177000D01*
X186272464Y-48150984D01*
X186395670Y-48099950D01*
X186506553Y-48025860D01*
X186600850Y-47931563D01*
X186674940Y-47820680D01*
X186725974Y-47697474D01*
X186751990Y-47566679D01*
X186751990Y-47438824D01*
X186753900Y-47438824D01*
X186827805Y-47431545D01*
X186888900Y-47413012D01*
X186949995Y-47431545D01*
X187023900Y-47438824D01*
X188023900Y-47438824D01*
X188097805Y-47431545D01*
X188168870Y-47409988D01*
X188234363Y-47374981D01*
X188291769Y-47327869D01*
X188338881Y-47270463D01*
X188373888Y-47204970D01*
X188395445Y-47133905D01*
X188402724Y-47060000D01*
X188402724Y-45860000D01*
X188395445Y-45786095D01*
X188373888Y-45715030D01*
X188338881Y-45649537D01*
X188291769Y-45592131D01*
X188234363Y-45545019D01*
X188168870Y-45510012D01*
X188097805Y-45488455D01*
X188023900Y-45481176D01*
X187023900Y-45481176D01*
X186949995Y-45488455D01*
X186888900Y-45506988D01*
X186827805Y-45488455D01*
X186753900Y-45481176D01*
X186001021Y-45481176D01*
X186007481Y-45448698D01*
X186007481Y-45315340D01*
X185981465Y-45184545D01*
X185930431Y-45061339D01*
X185922855Y-45050000D01*
X187181418Y-45050000D01*
X187187732Y-45114103D01*
X187206430Y-45175743D01*
X187236794Y-45232550D01*
X187277657Y-45282343D01*
X187327450Y-45323206D01*
X187384257Y-45353570D01*
X187445897Y-45372268D01*
X187510000Y-45378582D01*
X188101250Y-45377000D01*
X188183000Y-45295250D01*
X188183000Y-44727000D01*
X188437000Y-44727000D01*
X188437000Y-45295250D01*
X188518750Y-45377000D01*
X189110000Y-45378582D01*
X189174103Y-45372268D01*
X189235743Y-45353570D01*
X189292550Y-45323206D01*
X189342343Y-45282343D01*
X189383206Y-45232550D01*
X189413570Y-45175743D01*
X189432268Y-45114103D01*
X189438582Y-45050000D01*
X189437000Y-44808750D01*
X189355250Y-44727000D01*
X188437000Y-44727000D01*
X188183000Y-44727000D01*
X187264750Y-44727000D01*
X187183000Y-44808750D01*
X187181418Y-45050000D01*
X185922855Y-45050000D01*
X185856341Y-44950456D01*
X185762044Y-44856159D01*
X185651161Y-44782069D01*
X185527955Y-44731035D01*
X185397160Y-44705019D01*
X185263802Y-44705019D01*
X185133007Y-44731035D01*
X185009801Y-44782069D01*
X184898918Y-44856159D01*
X184813558Y-44941519D01*
X184402168Y-44941519D01*
X184427000Y-44816679D01*
X184427000Y-44683321D01*
X184400984Y-44552526D01*
X184349950Y-44429320D01*
X184275860Y-44318437D01*
X184181563Y-44224140D01*
X184077337Y-44154498D01*
X184076779Y-44153818D01*
X184076777Y-44153816D01*
X184062987Y-44137013D01*
X184046183Y-44123222D01*
X183928824Y-44005863D01*
X183928824Y-43750000D01*
X183921545Y-43676095D01*
X183899988Y-43605030D01*
X183864981Y-43539537D01*
X183817869Y-43482131D01*
X183760463Y-43435019D01*
X183694970Y-43400012D01*
X183623905Y-43378455D01*
X183550000Y-43371176D01*
X183150000Y-43371176D01*
X183076095Y-43378455D01*
X183025000Y-43393954D01*
X182973905Y-43378455D01*
X182900000Y-43371176D01*
X182500000Y-43371176D01*
X182426095Y-43378455D01*
X182375000Y-43393954D01*
X182323905Y-43378455D01*
X182250000Y-43371176D01*
X181850000Y-43371176D01*
X181776095Y-43378455D01*
X181705030Y-43400012D01*
X181639537Y-43435019D01*
X181582131Y-43482131D01*
X181535019Y-43539537D01*
X181500012Y-43605030D01*
X181478455Y-43676095D01*
X181471176Y-43750000D01*
X181471176Y-44005863D01*
X179995864Y-45481176D01*
X179403900Y-45481176D01*
X179329995Y-45488455D01*
X179268900Y-45506988D01*
X179207805Y-45488455D01*
X179133900Y-45481176D01*
X179074400Y-45481176D01*
X179074400Y-45455529D01*
X179076530Y-45433900D01*
X179074400Y-45412271D01*
X179074400Y-45412264D01*
X179068026Y-45347547D01*
X179063731Y-45333388D01*
X179077000Y-45266679D01*
X179077000Y-45133321D01*
X179050984Y-45002526D01*
X178999950Y-44879320D01*
X178925860Y-44768437D01*
X178840500Y-44683077D01*
X178840500Y-44246625D01*
X178842630Y-44224999D01*
X178840500Y-44203373D01*
X178840500Y-44203364D01*
X178836174Y-44159443D01*
X178842702Y-44137923D01*
X178853824Y-44025000D01*
X178853824Y-43976785D01*
X179073000Y-44195961D01*
X179073000Y-44316679D01*
X179099016Y-44447474D01*
X179150050Y-44570680D01*
X179224140Y-44681563D01*
X179318437Y-44775860D01*
X179429320Y-44849950D01*
X179552526Y-44900984D01*
X179683321Y-44927000D01*
X179816679Y-44927000D01*
X179947474Y-44900984D01*
X180070680Y-44849950D01*
X180181563Y-44775860D01*
X180275860Y-44681563D01*
X180349950Y-44570680D01*
X180400984Y-44447474D01*
X180427000Y-44316679D01*
X180427000Y-44183321D01*
X180400984Y-44052526D01*
X180349950Y-43929320D01*
X180275860Y-43818437D01*
X180181563Y-43724140D01*
X180070680Y-43650050D01*
X179947474Y-43599016D01*
X179816679Y-43573000D01*
X179695961Y-43573000D01*
X179036207Y-42913246D01*
X180148000Y-42913246D01*
X180148000Y-43036754D01*
X180172095Y-43157889D01*
X180219360Y-43271996D01*
X180287977Y-43374689D01*
X180375311Y-43462023D01*
X180478004Y-43530640D01*
X180592111Y-43577905D01*
X180713246Y-43602000D01*
X180836754Y-43602000D01*
X180957889Y-43577905D01*
X181071996Y-43530640D01*
X181174689Y-43462023D01*
X181262023Y-43374689D01*
X181330640Y-43271996D01*
X181377905Y-43157889D01*
X181402000Y-43036754D01*
X181402000Y-42913246D01*
X181377905Y-42792111D01*
X181330640Y-42678004D01*
X181262023Y-42575311D01*
X181174689Y-42487977D01*
X181071996Y-42419360D01*
X180957889Y-42372095D01*
X180836754Y-42348000D01*
X180713246Y-42348000D01*
X180592111Y-42372095D01*
X180478004Y-42419360D01*
X180375311Y-42487977D01*
X180287977Y-42575311D01*
X180219360Y-42678004D01*
X180172095Y-42792111D01*
X180148000Y-42913246D01*
X179036207Y-42913246D01*
X178778311Y-42655351D01*
X178809764Y-42596506D01*
X178842702Y-42487923D01*
X178853824Y-42375000D01*
X178853824Y-41975000D01*
X178842702Y-41862077D01*
X178809764Y-41753494D01*
X178756275Y-41653423D01*
X178684290Y-41565710D01*
X178596577Y-41493725D01*
X178496506Y-41440236D01*
X178473711Y-41433321D01*
X180323000Y-41433321D01*
X180323000Y-41566679D01*
X180349016Y-41697474D01*
X180400050Y-41820680D01*
X180474140Y-41931563D01*
X180568437Y-42025860D01*
X180679320Y-42099950D01*
X180802526Y-42150984D01*
X180933321Y-42177000D01*
X181066679Y-42177000D01*
X181197474Y-42150984D01*
X181320680Y-42099950D01*
X181431563Y-42025860D01*
X181448744Y-42008679D01*
X181471176Y-42031110D01*
X181471176Y-42200000D01*
X181478455Y-42273905D01*
X181500012Y-42344970D01*
X181535019Y-42410463D01*
X181582131Y-42467869D01*
X181639537Y-42514981D01*
X181705030Y-42549988D01*
X181776095Y-42571545D01*
X181850000Y-42578824D01*
X182250000Y-42578824D01*
X182323905Y-42571545D01*
X182394970Y-42549988D01*
X182445129Y-42523177D01*
X182500000Y-42528582D01*
X182545250Y-42527000D01*
X182627000Y-42445250D01*
X182627000Y-42218519D01*
X182628824Y-42200000D01*
X182628824Y-41753000D01*
X182771176Y-41753000D01*
X182771176Y-42200000D01*
X182773000Y-42218519D01*
X182773000Y-42445250D01*
X182854750Y-42527000D01*
X182900000Y-42528582D01*
X182954871Y-42523177D01*
X183005030Y-42549988D01*
X183076095Y-42571545D01*
X183150000Y-42578824D01*
X183550000Y-42578824D01*
X183623905Y-42571545D01*
X183694970Y-42549988D01*
X183760463Y-42514981D01*
X183817869Y-42467869D01*
X183864981Y-42410463D01*
X183899988Y-42344970D01*
X183921545Y-42273905D01*
X183928824Y-42200000D01*
X183928824Y-41600000D01*
X183921545Y-41526095D01*
X183899988Y-41455030D01*
X183864981Y-41389537D01*
X183817869Y-41332131D01*
X183790500Y-41309670D01*
X183790500Y-41013553D01*
X183807861Y-40981073D01*
X183842222Y-40867800D01*
X183853824Y-40750000D01*
X183853824Y-40250000D01*
X183842222Y-40132200D01*
X183807861Y-40018927D01*
X183752061Y-39914533D01*
X183676968Y-39823032D01*
X183585467Y-39747939D01*
X183481073Y-39692139D01*
X183367800Y-39657778D01*
X183250000Y-39646176D01*
X182800000Y-39646176D01*
X182682200Y-39657778D01*
X182568927Y-39692139D01*
X182464533Y-39747939D01*
X182373032Y-39823032D01*
X182297939Y-39914533D01*
X182251296Y-40001795D01*
X182247268Y-39960897D01*
X182228570Y-39899257D01*
X182198206Y-39842450D01*
X182157343Y-39792657D01*
X182107550Y-39751794D01*
X182050743Y-39721430D01*
X181989103Y-39702732D01*
X181925000Y-39696418D01*
X181683750Y-39698000D01*
X181602000Y-39779750D01*
X181602000Y-40373000D01*
X181622000Y-40373000D01*
X181622000Y-40627000D01*
X181602000Y-40627000D01*
X181602000Y-40647000D01*
X181348000Y-40647000D01*
X181348000Y-40627000D01*
X180779750Y-40627000D01*
X180698000Y-40708750D01*
X180696907Y-40892765D01*
X180679320Y-40900050D01*
X180568437Y-40974140D01*
X180474140Y-41068437D01*
X180400050Y-41179320D01*
X180349016Y-41302526D01*
X180323000Y-41433321D01*
X178473711Y-41433321D01*
X178387923Y-41407298D01*
X178275000Y-41396176D01*
X177725000Y-41396176D01*
X177612077Y-41407298D01*
X177503494Y-41440236D01*
X177403423Y-41493725D01*
X177315710Y-41565710D01*
X177243725Y-41653423D01*
X177221021Y-41695900D01*
X177037824Y-41695900D01*
X177037824Y-41666500D01*
X177030545Y-41592595D01*
X177008988Y-41521530D01*
X176973981Y-41456037D01*
X176926869Y-41398631D01*
X176869463Y-41351519D01*
X176803970Y-41316512D01*
X176732905Y-41294955D01*
X176659000Y-41287676D01*
X176489900Y-41287676D01*
X176489900Y-41071025D01*
X176492030Y-41049399D01*
X176489900Y-41027773D01*
X176489900Y-41027764D01*
X176483526Y-40963047D01*
X176458338Y-40880012D01*
X176417434Y-40803487D01*
X176362387Y-40736413D01*
X176345583Y-40722622D01*
X175927000Y-40304040D01*
X175927000Y-40183321D01*
X175900984Y-40052526D01*
X175889583Y-40025000D01*
X180696418Y-40025000D01*
X180698000Y-40291250D01*
X180779750Y-40373000D01*
X181348000Y-40373000D01*
X181348000Y-39779750D01*
X181266250Y-39698000D01*
X181025000Y-39696418D01*
X180960897Y-39702732D01*
X180899257Y-39721430D01*
X180842450Y-39751794D01*
X180792657Y-39792657D01*
X180751794Y-39842450D01*
X180721430Y-39899257D01*
X180702732Y-39960897D01*
X180696418Y-40025000D01*
X175889583Y-40025000D01*
X175849950Y-39929320D01*
X175775860Y-39818437D01*
X175681563Y-39724140D01*
X175570680Y-39650050D01*
X175447474Y-39599016D01*
X175316679Y-39573000D01*
X175183321Y-39573000D01*
X175052526Y-39599016D01*
X174929320Y-39650050D01*
X174818437Y-39724140D01*
X174724140Y-39818437D01*
X174650050Y-39929320D01*
X174599016Y-40052526D01*
X174573000Y-40183321D01*
X174573000Y-40316679D01*
X174599016Y-40447474D01*
X174650050Y-40570680D01*
X174724140Y-40681563D01*
X174818437Y-40775860D01*
X174929320Y-40849950D01*
X175052526Y-40900984D01*
X175183321Y-40927000D01*
X175304040Y-40927000D01*
X175608901Y-41231862D01*
X175608901Y-41287676D01*
X175439800Y-41287676D01*
X175365895Y-41294955D01*
X175299999Y-41314944D01*
X175234104Y-41294955D01*
X175160199Y-41287676D01*
X174652199Y-41287676D01*
X174578294Y-41294955D01*
X174507229Y-41316512D01*
X174506200Y-41317062D01*
X174505171Y-41316512D01*
X174434106Y-41294955D01*
X174360201Y-41287676D01*
X173852201Y-41287676D01*
X173778296Y-41294955D01*
X173707231Y-41316512D01*
X173706201Y-41317063D01*
X173705170Y-41316512D01*
X173634105Y-41294955D01*
X173560200Y-41287676D01*
X172341000Y-41287676D01*
X172317510Y-41289990D01*
X172317510Y-40865153D01*
X172319937Y-40840510D01*
X172317510Y-40815867D01*
X172317510Y-40815857D01*
X172310246Y-40742101D01*
X172281541Y-40647474D01*
X172234927Y-40560265D01*
X172228576Y-40552526D01*
X172187910Y-40502974D01*
X172187902Y-40502966D01*
X172172194Y-40483826D01*
X172153053Y-40468117D01*
X171847694Y-40162760D01*
X171842702Y-40112077D01*
X171832265Y-40077670D01*
X172807936Y-39102000D01*
X184632066Y-39102000D01*
X185515111Y-39985046D01*
X185511176Y-40025000D01*
X185511176Y-40275000D01*
X185520857Y-40373291D01*
X185549527Y-40467805D01*
X185593462Y-40550000D01*
X185549527Y-40632195D01*
X185520857Y-40726709D01*
X185511176Y-40825000D01*
X185511176Y-41075000D01*
X185520857Y-41173291D01*
X185549527Y-41267805D01*
X185592236Y-41347708D01*
X185528145Y-41381966D01*
X185484928Y-41417434D01*
X185461071Y-41437013D01*
X185447281Y-41453817D01*
X184386340Y-42514758D01*
X184369537Y-42528548D01*
X184355747Y-42545351D01*
X184355744Y-42545354D01*
X184314489Y-42595623D01*
X184273585Y-42672148D01*
X184248397Y-42755183D01*
X184239893Y-42841535D01*
X184242024Y-42863173D01*
X184242023Y-43660894D01*
X184239893Y-43682523D01*
X184242023Y-43704152D01*
X184242023Y-43704158D01*
X184248397Y-43768875D01*
X184273585Y-43851910D01*
X184306129Y-43912794D01*
X184305522Y-43915843D01*
X184305522Y-44049201D01*
X184331538Y-44179996D01*
X184382572Y-44303202D01*
X184456662Y-44414085D01*
X184550959Y-44508382D01*
X184661842Y-44582472D01*
X184785048Y-44633506D01*
X184915843Y-44659522D01*
X185049201Y-44659522D01*
X185179996Y-44633506D01*
X185303202Y-44582472D01*
X185414085Y-44508382D01*
X185508382Y-44414085D01*
X185582472Y-44303202D01*
X185633506Y-44179996D01*
X185639472Y-44150000D01*
X187181418Y-44150000D01*
X187183000Y-44391250D01*
X187264750Y-44473000D01*
X188183000Y-44473000D01*
X188183000Y-43904750D01*
X188437000Y-43904750D01*
X188437000Y-44473000D01*
X189355250Y-44473000D01*
X189437000Y-44391250D01*
X189438582Y-44150000D01*
X189432268Y-44085897D01*
X189413570Y-44024257D01*
X189383206Y-43967450D01*
X189342343Y-43917657D01*
X189292550Y-43876794D01*
X189235743Y-43846430D01*
X189174103Y-43827732D01*
X189110000Y-43821418D01*
X188518750Y-43823000D01*
X188437000Y-43904750D01*
X188183000Y-43904750D01*
X188101250Y-43823000D01*
X187510000Y-43821418D01*
X187445897Y-43827732D01*
X187384257Y-43846430D01*
X187327450Y-43876794D01*
X187277657Y-43917657D01*
X187236794Y-43967450D01*
X187206430Y-44024257D01*
X187187732Y-44085897D01*
X187181418Y-44150000D01*
X185639472Y-44150000D01*
X185659522Y-44049201D01*
X185659522Y-43915843D01*
X185638197Y-43808630D01*
X185657657Y-43832343D01*
X185707450Y-43873206D01*
X185764257Y-43903570D01*
X185825897Y-43922268D01*
X185890000Y-43928582D01*
X186181250Y-43927000D01*
X186263000Y-43845250D01*
X186263000Y-43473000D01*
X186517000Y-43473000D01*
X186517000Y-43845250D01*
X186598750Y-43927000D01*
X186890000Y-43928582D01*
X186954103Y-43922268D01*
X187015743Y-43903570D01*
X187072550Y-43873206D01*
X187122343Y-43832343D01*
X187163206Y-43782550D01*
X187193570Y-43725743D01*
X187212268Y-43664103D01*
X187218582Y-43600000D01*
X187217000Y-43554750D01*
X187135250Y-43473000D01*
X186517000Y-43473000D01*
X186263000Y-43473000D01*
X186243000Y-43473000D01*
X186243000Y-43227000D01*
X186263000Y-43227000D01*
X186263000Y-43203000D01*
X186517000Y-43203000D01*
X186517000Y-43227000D01*
X187135250Y-43227000D01*
X187217000Y-43145250D01*
X187218582Y-43100000D01*
X187212268Y-43035897D01*
X187193570Y-42974257D01*
X187183499Y-42955416D01*
X187183914Y-42954910D01*
X187230473Y-42867805D01*
X187259143Y-42773291D01*
X187268824Y-42675000D01*
X187268824Y-42425000D01*
X187259143Y-42326709D01*
X187230473Y-42232195D01*
X187186538Y-42150000D01*
X187230473Y-42067805D01*
X187259143Y-41973291D01*
X187268824Y-41875000D01*
X187268824Y-41625000D01*
X187259143Y-41526709D01*
X187230473Y-41432195D01*
X187186538Y-41350000D01*
X187230473Y-41267805D01*
X187259143Y-41173291D01*
X187268824Y-41075000D01*
X187268824Y-40825000D01*
X187259143Y-40726709D01*
X187230473Y-40632195D01*
X187186538Y-40550000D01*
X187230473Y-40467805D01*
X187259143Y-40373291D01*
X187268824Y-40275000D01*
X187268824Y-40025000D01*
X187259143Y-39926709D01*
X187230473Y-39832195D01*
X187183914Y-39745090D01*
X187121257Y-39668743D01*
X187044910Y-39606086D01*
X186957805Y-39559527D01*
X186863291Y-39530857D01*
X186765000Y-39521176D01*
X186471111Y-39521176D01*
X186299935Y-39350000D01*
X187181418Y-39350000D01*
X187187732Y-39414103D01*
X187206430Y-39475743D01*
X187236794Y-39532550D01*
X187277657Y-39582343D01*
X187327450Y-39623206D01*
X187384257Y-39653570D01*
X187445897Y-39672268D01*
X187510000Y-39678582D01*
X188101250Y-39677000D01*
X188183000Y-39595250D01*
X188183000Y-39027000D01*
X188437000Y-39027000D01*
X188437000Y-39595250D01*
X188518750Y-39677000D01*
X189110000Y-39678582D01*
X189174103Y-39672268D01*
X189235743Y-39653570D01*
X189292550Y-39623206D01*
X189342343Y-39582343D01*
X189383206Y-39532550D01*
X189413570Y-39475743D01*
X189432268Y-39414103D01*
X189438582Y-39350000D01*
X189437000Y-39108750D01*
X189355250Y-39027000D01*
X188437000Y-39027000D01*
X188183000Y-39027000D01*
X187264750Y-39027000D01*
X187183000Y-39108750D01*
X187181418Y-39350000D01*
X186299935Y-39350000D01*
X185501934Y-38552000D01*
X187182087Y-38552000D01*
X187183000Y-38691250D01*
%TA.AperFunction,Conductor*%
D30*
G36*
X187183000Y-38691250D02*
G01*
X187264750Y-38773000D01*
X188183000Y-38773000D01*
X188183000Y-38753000D01*
X188437000Y-38753000D01*
X188437000Y-38773000D01*
X189355250Y-38773000D01*
X189437000Y-38691250D01*
X189437913Y-38552000D01*
X193223000Y-38552000D01*
X193223001Y-49873000D01*
X188500000Y-49873000D01*
X188475224Y-49875440D01*
X188451399Y-49882667D01*
X188429443Y-49894403D01*
X188410197Y-49910197D01*
X188394403Y-49929443D01*
X188382667Y-49951399D01*
X188375440Y-49975224D01*
X188373000Y-50000000D01*
X188373000Y-58032228D01*
X188350181Y-57989537D01*
X188303069Y-57932131D01*
X188245663Y-57885019D01*
X188180170Y-57850012D01*
X188109105Y-57828455D01*
X188035200Y-57821176D01*
X187898383Y-57821176D01*
X187894692Y-57816679D01*
X187861979Y-57776818D01*
X187861977Y-57776816D01*
X187848187Y-57760013D01*
X187831385Y-57746224D01*
X186248633Y-56163473D01*
X186234838Y-56146664D01*
X186167764Y-56091617D01*
X186091239Y-56050713D01*
X186008204Y-56025525D01*
X185943487Y-56019151D01*
X185943480Y-56019151D01*
X185921851Y-56017021D01*
X185900222Y-56019151D01*
X183427000Y-56019151D01*
X183427000Y-55902472D01*
X183400984Y-55771677D01*
X183349950Y-55648471D01*
X183275860Y-55537588D01*
X183181563Y-55443291D01*
X183070680Y-55369201D01*
X182947474Y-55318167D01*
X182816679Y-55292151D01*
X182683321Y-55292151D01*
X182552526Y-55318167D01*
X182429320Y-55369201D01*
X182358960Y-55416214D01*
X182349950Y-55394461D01*
X182275860Y-55283578D01*
X182181563Y-55189281D01*
X182070680Y-55115191D01*
X181947474Y-55064157D01*
X181816679Y-55038141D01*
X181683321Y-55038141D01*
X181552526Y-55064157D01*
X181429320Y-55115191D01*
X181318437Y-55189281D01*
X181224140Y-55283578D01*
X181150050Y-55394461D01*
X181101723Y-55511131D01*
X180131635Y-55511131D01*
X180050268Y-55429764D01*
X180036473Y-55412955D01*
X179969399Y-55357908D01*
X179892874Y-55317004D01*
X179809839Y-55291816D01*
X179745122Y-55285442D01*
X179745115Y-55285442D01*
X179723486Y-55283312D01*
X179701857Y-55285442D01*
X178148277Y-55285442D01*
X178099950Y-55168772D01*
X178025860Y-55057889D01*
X177931563Y-54963592D01*
X177886260Y-54933321D01*
X183323000Y-54933321D01*
X183323000Y-55066679D01*
X183349016Y-55197474D01*
X183400050Y-55320680D01*
X183474140Y-55431563D01*
X183568437Y-55525860D01*
X183679320Y-55599950D01*
X183802526Y-55650984D01*
X183933321Y-55677000D01*
X184066679Y-55677000D01*
X184197474Y-55650984D01*
X184320680Y-55599950D01*
X184431563Y-55525860D01*
X184516923Y-55440500D01*
X185228371Y-55440500D01*
X185250000Y-55442630D01*
X185271629Y-55440500D01*
X185271636Y-55440500D01*
X185336353Y-55434126D01*
X185419388Y-55408938D01*
X185495913Y-55368034D01*
X185562987Y-55312987D01*
X185576782Y-55296178D01*
X186796184Y-54076777D01*
X186812987Y-54062987D01*
X186832081Y-54039722D01*
X186868034Y-53995913D01*
X186908938Y-53919388D01*
X186934126Y-53836353D01*
X186934691Y-53830612D01*
X186940500Y-53771636D01*
X186940500Y-53771629D01*
X186942630Y-53750000D01*
X186940500Y-53728371D01*
X186940500Y-52266923D01*
X187025860Y-52181563D01*
X187099950Y-52070680D01*
X187150984Y-51947474D01*
X187177000Y-51816679D01*
X187177000Y-51683321D01*
X187150984Y-51552526D01*
X187099950Y-51429320D01*
X187025860Y-51318437D01*
X186931563Y-51224140D01*
X186820680Y-51150050D01*
X186697474Y-51099016D01*
X186566679Y-51073000D01*
X186433321Y-51073000D01*
X186302526Y-51099016D01*
X186179320Y-51150050D01*
X186068437Y-51224140D01*
X185974140Y-51318437D01*
X185900050Y-51429320D01*
X185849016Y-51552526D01*
X185823000Y-51683321D01*
X185823000Y-51816679D01*
X185849016Y-51947474D01*
X185900050Y-52070680D01*
X185974140Y-52181563D01*
X186059500Y-52266923D01*
X186059501Y-53567538D01*
X185067540Y-54559500D01*
X184516923Y-54559500D01*
X184431563Y-54474140D01*
X184320680Y-54400050D01*
X184197474Y-54349016D01*
X184066679Y-54323000D01*
X183933321Y-54323000D01*
X183802526Y-54349016D01*
X183679320Y-54400050D01*
X183568437Y-54474140D01*
X183474140Y-54568437D01*
X183400050Y-54679320D01*
X183349016Y-54802526D01*
X183323000Y-54933321D01*
X177886260Y-54933321D01*
X177820680Y-54889502D01*
X177697474Y-54838468D01*
X177566679Y-54812452D01*
X177433321Y-54812452D01*
X177302526Y-54838468D01*
X177179320Y-54889502D01*
X177068437Y-54963592D01*
X176974140Y-55057889D01*
X176900050Y-55168772D01*
X176849016Y-55291978D01*
X176823000Y-55422773D01*
X176823000Y-55539452D01*
X174793697Y-55539452D01*
X174684007Y-55429763D01*
X174670213Y-55412955D01*
X174603139Y-55357908D01*
X174526614Y-55317004D01*
X174443579Y-55291816D01*
X174378862Y-55285442D01*
X174378853Y-55285442D01*
X174357225Y-55283312D01*
X174335599Y-55285442D01*
X170648278Y-55285442D01*
X170599950Y-55168770D01*
X170525860Y-55057887D01*
X170431563Y-54963590D01*
X170320680Y-54889500D01*
X170197474Y-54838466D01*
X170066679Y-54812450D01*
X169933321Y-54812450D01*
X169802526Y-54838466D01*
X169679320Y-54889500D01*
X169568437Y-54963590D01*
X169474140Y-55057887D01*
X169400050Y-55168770D01*
X169349016Y-55291976D01*
X169336597Y-55354413D01*
X169214560Y-55232376D01*
X169214560Y-48667226D01*
X169224140Y-48681563D01*
X169318437Y-48775860D01*
X169429320Y-48849950D01*
X169498001Y-48878399D01*
X169498000Y-50794577D01*
X169474140Y-50818437D01*
X169400050Y-50929320D01*
X169349016Y-51052526D01*
X169323000Y-51183321D01*
X169323000Y-51316679D01*
X169349016Y-51447474D01*
X169400050Y-51570680D01*
X169474140Y-51681563D01*
X169568437Y-51775860D01*
X169679320Y-51849950D01*
X169802526Y-51900984D01*
X169933321Y-51927000D01*
X170066679Y-51927000D01*
X170197474Y-51900984D01*
X170320680Y-51849950D01*
X170431563Y-51775860D01*
X170525860Y-51681563D01*
X170599950Y-51570680D01*
X170650984Y-51447474D01*
X170677000Y-51316679D01*
X170677000Y-51183321D01*
X170650984Y-51052526D01*
X170599950Y-50929320D01*
X170525860Y-50818437D01*
X170502000Y-50794577D01*
X170502000Y-48524642D01*
X170504427Y-48499999D01*
X170502000Y-48475356D01*
X170502000Y-48475347D01*
X170494736Y-48401591D01*
X170466031Y-48306964D01*
X170427000Y-48233942D01*
X170427000Y-48183321D01*
X170400984Y-48052526D01*
X170349950Y-47929320D01*
X170275860Y-47818437D01*
X170181563Y-47724140D01*
X170070680Y-47650050D01*
X169947474Y-47599016D01*
X169816679Y-47573000D01*
X169683321Y-47573000D01*
X169552526Y-47599016D01*
X169429320Y-47650050D01*
X169318437Y-47724140D01*
X169224140Y-47818437D01*
X169214560Y-47832774D01*
X169214560Y-46908400D01*
X170135076Y-45987884D01*
X170135076Y-47060000D01*
X170142355Y-47133905D01*
X170163912Y-47204970D01*
X170198919Y-47270463D01*
X170246031Y-47327869D01*
X170303437Y-47374981D01*
X170368930Y-47409988D01*
X170439995Y-47431545D01*
X170513900Y-47438824D01*
X171513900Y-47438824D01*
X171587805Y-47431545D01*
X171648900Y-47413012D01*
X171709995Y-47431545D01*
X171783900Y-47438824D01*
X172783900Y-47438824D01*
X172857805Y-47431545D01*
X172918900Y-47413012D01*
X172979995Y-47431545D01*
X173053900Y-47438824D01*
X174053900Y-47438824D01*
X174127805Y-47431545D01*
X174188900Y-47413012D01*
X174249995Y-47431545D01*
X174323900Y-47438824D01*
X175323900Y-47438824D01*
X175397805Y-47431545D01*
X175458900Y-47413012D01*
X175519995Y-47431545D01*
X175593900Y-47438824D01*
X176593900Y-47438824D01*
X176667805Y-47431545D01*
X176728900Y-47413012D01*
X176789995Y-47431545D01*
X176863900Y-47438824D01*
X177863900Y-47438824D01*
X177937805Y-47431545D01*
X177998900Y-47413012D01*
X178059995Y-47431545D01*
X178133900Y-47438824D01*
X178573000Y-47438824D01*
X178573000Y-47566679D01*
X178599016Y-47697474D01*
X178650050Y-47820680D01*
X178724140Y-47931563D01*
X178818437Y-48025860D01*
X178854566Y-48050001D01*
X177412317Y-48050001D01*
X177400984Y-47993027D01*
X177349950Y-47869821D01*
X177275860Y-47758938D01*
X177181563Y-47664641D01*
X177070680Y-47590551D01*
X176947474Y-47539517D01*
X176816679Y-47513501D01*
X176683321Y-47513501D01*
X176552526Y-47539517D01*
X176429320Y-47590551D01*
X176318437Y-47664641D01*
X176224140Y-47758938D01*
X176150050Y-47869821D01*
X176099016Y-47993027D01*
X176073000Y-48123822D01*
X176073000Y-48257180D01*
X176099016Y-48387975D01*
X176150050Y-48511181D01*
X176224140Y-48622064D01*
X176318437Y-48716361D01*
X176429320Y-48790451D01*
X176552526Y-48841485D01*
X176589792Y-48848898D01*
X176573000Y-48933321D01*
X176573000Y-49059500D01*
X172804942Y-49059500D01*
X172783313Y-49057370D01*
X172761684Y-49059500D01*
X172761677Y-49059500D01*
X172696960Y-49065874D01*
X172613925Y-49091062D01*
X172537400Y-49131966D01*
X172491802Y-49169388D01*
X172470326Y-49187013D01*
X172456536Y-49203816D01*
X171481725Y-50178628D01*
X171361006Y-50178628D01*
X171230211Y-50204644D01*
X171107005Y-50255678D01*
X170996122Y-50329768D01*
X170901825Y-50424065D01*
X170827735Y-50534948D01*
X170776701Y-50658154D01*
X170750685Y-50788949D01*
X170750685Y-50922307D01*
X170776701Y-51053102D01*
X170827735Y-51176308D01*
X170901825Y-51287191D01*
X170996122Y-51381488D01*
X171107005Y-51455578D01*
X171230211Y-51506612D01*
X171361006Y-51532628D01*
X171494364Y-51532628D01*
X171619253Y-51507787D01*
X170571643Y-52555396D01*
X170565460Y-52543569D01*
X170564632Y-52542540D01*
X170564011Y-52541371D01*
X170541572Y-52513858D01*
X170519356Y-52486227D01*
X170518343Y-52485377D01*
X170517508Y-52484353D01*
X170490194Y-52461757D01*
X170462993Y-52438932D01*
X170461833Y-52438294D01*
X170460816Y-52437453D01*
X170429660Y-52420607D01*
X170398516Y-52403486D01*
X170397254Y-52403086D01*
X170396093Y-52402458D01*
X170362262Y-52391985D01*
X170328383Y-52381238D01*
X170327067Y-52381090D01*
X170325806Y-52380700D01*
X170290512Y-52376990D01*
X170255264Y-52373037D01*
X170252729Y-52373019D01*
X170252632Y-52373009D01*
X170252535Y-52373018D01*
X170250000Y-52373000D01*
X169750000Y-52373000D01*
X169714692Y-52376462D01*
X169679357Y-52379678D01*
X169678090Y-52380051D01*
X169676774Y-52380180D01*
X169642775Y-52390445D01*
X169608773Y-52400452D01*
X169607604Y-52401063D01*
X169606336Y-52401446D01*
X169574966Y-52418126D01*
X169543569Y-52434540D01*
X169542540Y-52435368D01*
X169541371Y-52435989D01*
X169513858Y-52458428D01*
X169486227Y-52480644D01*
X169485377Y-52481657D01*
X169484353Y-52482492D01*
X169461757Y-52509806D01*
X169438932Y-52537007D01*
X169438294Y-52538167D01*
X169437453Y-52539184D01*
X169420607Y-52570340D01*
X169403486Y-52601484D01*
X169403086Y-52602746D01*
X169402458Y-52603907D01*
X169391985Y-52637738D01*
X169381238Y-52671617D01*
X169381090Y-52672933D01*
X169380700Y-52674194D01*
X169376990Y-52709488D01*
X169373037Y-52744736D01*
X169373019Y-52747271D01*
X169373009Y-52747368D01*
X169373018Y-52747465D01*
X169373000Y-52750000D01*
X169373000Y-53494624D01*
X169349016Y-53552526D01*
X169323000Y-53683321D01*
X169323000Y-53816679D01*
X169349016Y-53947474D01*
X169400050Y-54070680D01*
X169474140Y-54181563D01*
X169568437Y-54275860D01*
X169679320Y-54349950D01*
X169802526Y-54400984D01*
X169933321Y-54427000D01*
X170066679Y-54427000D01*
X170197474Y-54400984D01*
X170320680Y-54349950D01*
X170431563Y-54275860D01*
X170525860Y-54181563D01*
X170599950Y-54070680D01*
X170650984Y-53947474D01*
X170677000Y-53816679D01*
X170677000Y-53695960D01*
X173491639Y-50881321D01*
X177573000Y-50881321D01*
X177573000Y-51014679D01*
X177599016Y-51145474D01*
X177650050Y-51268680D01*
X177724140Y-51379563D01*
X177809500Y-51464923D01*
X177809501Y-53233076D01*
X177724140Y-53318437D01*
X177650050Y-53429320D01*
X177599016Y-53552526D01*
X177573000Y-53683321D01*
X177573000Y-53816679D01*
X177599016Y-53947474D01*
X177650050Y-54070680D01*
X177724140Y-54181563D01*
X177818437Y-54275860D01*
X177929320Y-54349950D01*
X178052526Y-54400984D01*
X178183321Y-54427000D01*
X178316679Y-54427000D01*
X178447474Y-54400984D01*
X178570680Y-54349950D01*
X178681563Y-54275860D01*
X178775860Y-54181563D01*
X178849950Y-54070680D01*
X178900984Y-53947474D01*
X178927000Y-53816679D01*
X178927000Y-53683321D01*
X178900984Y-53552526D01*
X178849950Y-53429320D01*
X178775860Y-53318437D01*
X178690500Y-53233077D01*
X178690500Y-51464923D01*
X178775860Y-51379563D01*
X178849950Y-51268680D01*
X178900984Y-51145474D01*
X178927000Y-51014679D01*
X178927000Y-50881321D01*
X178900984Y-50750526D01*
X178849950Y-50627320D01*
X178775860Y-50516437D01*
X178681563Y-50422140D01*
X178570680Y-50348050D01*
X178447474Y-50297016D01*
X178316679Y-50271000D01*
X178183321Y-50271000D01*
X178052526Y-50297016D01*
X177929320Y-50348050D01*
X177818437Y-50422140D01*
X177724140Y-50516437D01*
X177650050Y-50627320D01*
X177599016Y-50750526D01*
X177573000Y-50881321D01*
X173491639Y-50881321D01*
X174178451Y-50194510D01*
X181821550Y-50194510D01*
X181823000Y-50195960D01*
X181823000Y-50316679D01*
X181849016Y-50447474D01*
X181900050Y-50570680D01*
X181974140Y-50681563D01*
X182068437Y-50775860D01*
X182179320Y-50849950D01*
X182302526Y-50900984D01*
X182433321Y-50927000D01*
X182566679Y-50927000D01*
X182697474Y-50900984D01*
X182820680Y-50849950D01*
X182931563Y-50775860D01*
X183025860Y-50681563D01*
X183099950Y-50570680D01*
X183150984Y-50447474D01*
X183177000Y-50316679D01*
X183177000Y-50183321D01*
X183175431Y-50175431D01*
X183183321Y-50177000D01*
X183316679Y-50177000D01*
X183447474Y-50150984D01*
X183570680Y-50099950D01*
X183681563Y-50025860D01*
X183775860Y-49931563D01*
X183849950Y-49820680D01*
X183885908Y-49733870D01*
X183921367Y-49757563D01*
X184044573Y-49808597D01*
X184175368Y-49834613D01*
X184308726Y-49834613D01*
X184439521Y-49808597D01*
X184562727Y-49757563D01*
X184673610Y-49683473D01*
X184767907Y-49589176D01*
X184841997Y-49478293D01*
X184893031Y-49355087D01*
X184919047Y-49224292D01*
X184919047Y-49090934D01*
X184893031Y-48960139D01*
X184874537Y-48915492D01*
X184947474Y-48900984D01*
X185070680Y-48849950D01*
X185181563Y-48775860D01*
X185275860Y-48681563D01*
X185349950Y-48570680D01*
X185400984Y-48447474D01*
X185427000Y-48316679D01*
X185427000Y-48183321D01*
X185400984Y-48052526D01*
X185354581Y-47940500D01*
X185558067Y-47940500D01*
X185643427Y-48025860D01*
X185754310Y-48099950D01*
X185877516Y-48150984D01*
X186008311Y-48177000D01*
X186141669Y-48177000D01*
X186272464Y-48150984D01*
X186395670Y-48099950D01*
X186506553Y-48025860D01*
X186600850Y-47931563D01*
X186674940Y-47820680D01*
X186725974Y-47697474D01*
X186751990Y-47566679D01*
X186751990Y-47438824D01*
X186753900Y-47438824D01*
X186827805Y-47431545D01*
X186888900Y-47413012D01*
X186949995Y-47431545D01*
X187023900Y-47438824D01*
X188023900Y-47438824D01*
X188097805Y-47431545D01*
X188168870Y-47409988D01*
X188234363Y-47374981D01*
X188291769Y-47327869D01*
X188338881Y-47270463D01*
X188373888Y-47204970D01*
X188395445Y-47133905D01*
X188402724Y-47060000D01*
X188402724Y-45860000D01*
X188395445Y-45786095D01*
X188373888Y-45715030D01*
X188338881Y-45649537D01*
X188291769Y-45592131D01*
X188234363Y-45545019D01*
X188168870Y-45510012D01*
X188097805Y-45488455D01*
X188023900Y-45481176D01*
X187023900Y-45481176D01*
X186949995Y-45488455D01*
X186888900Y-45506988D01*
X186827805Y-45488455D01*
X186753900Y-45481176D01*
X186001021Y-45481176D01*
X186007481Y-45448698D01*
X186007481Y-45315340D01*
X185981465Y-45184545D01*
X185930431Y-45061339D01*
X185922855Y-45050000D01*
X187181418Y-45050000D01*
X187187732Y-45114103D01*
X187206430Y-45175743D01*
X187236794Y-45232550D01*
X187277657Y-45282343D01*
X187327450Y-45323206D01*
X187384257Y-45353570D01*
X187445897Y-45372268D01*
X187510000Y-45378582D01*
X188101250Y-45377000D01*
X188183000Y-45295250D01*
X188183000Y-44727000D01*
X188437000Y-44727000D01*
X188437000Y-45295250D01*
X188518750Y-45377000D01*
X189110000Y-45378582D01*
X189174103Y-45372268D01*
X189235743Y-45353570D01*
X189292550Y-45323206D01*
X189342343Y-45282343D01*
X189383206Y-45232550D01*
X189413570Y-45175743D01*
X189432268Y-45114103D01*
X189438582Y-45050000D01*
X189437000Y-44808750D01*
X189355250Y-44727000D01*
X188437000Y-44727000D01*
X188183000Y-44727000D01*
X187264750Y-44727000D01*
X187183000Y-44808750D01*
X187181418Y-45050000D01*
X185922855Y-45050000D01*
X185856341Y-44950456D01*
X185762044Y-44856159D01*
X185651161Y-44782069D01*
X185527955Y-44731035D01*
X185397160Y-44705019D01*
X185263802Y-44705019D01*
X185133007Y-44731035D01*
X185009801Y-44782069D01*
X184898918Y-44856159D01*
X184813558Y-44941519D01*
X184402168Y-44941519D01*
X184427000Y-44816679D01*
X184427000Y-44683321D01*
X184400984Y-44552526D01*
X184349950Y-44429320D01*
X184275860Y-44318437D01*
X184181563Y-44224140D01*
X184077337Y-44154498D01*
X184076779Y-44153818D01*
X184076777Y-44153816D01*
X184062987Y-44137013D01*
X184046183Y-44123222D01*
X183928824Y-44005863D01*
X183928824Y-43750000D01*
X183921545Y-43676095D01*
X183899988Y-43605030D01*
X183864981Y-43539537D01*
X183817869Y-43482131D01*
X183760463Y-43435019D01*
X183694970Y-43400012D01*
X183623905Y-43378455D01*
X183550000Y-43371176D01*
X183150000Y-43371176D01*
X183076095Y-43378455D01*
X183025000Y-43393954D01*
X182973905Y-43378455D01*
X182900000Y-43371176D01*
X182500000Y-43371176D01*
X182426095Y-43378455D01*
X182375000Y-43393954D01*
X182323905Y-43378455D01*
X182250000Y-43371176D01*
X181850000Y-43371176D01*
X181776095Y-43378455D01*
X181705030Y-43400012D01*
X181639537Y-43435019D01*
X181582131Y-43482131D01*
X181535019Y-43539537D01*
X181500012Y-43605030D01*
X181478455Y-43676095D01*
X181471176Y-43750000D01*
X181471176Y-44005863D01*
X179995864Y-45481176D01*
X179403900Y-45481176D01*
X179329995Y-45488455D01*
X179268900Y-45506988D01*
X179207805Y-45488455D01*
X179133900Y-45481176D01*
X179074400Y-45481176D01*
X179074400Y-45455529D01*
X179076530Y-45433900D01*
X179074400Y-45412271D01*
X179074400Y-45412264D01*
X179068026Y-45347547D01*
X179063731Y-45333388D01*
X179077000Y-45266679D01*
X179077000Y-45133321D01*
X179050984Y-45002526D01*
X178999950Y-44879320D01*
X178925860Y-44768437D01*
X178840500Y-44683077D01*
X178840500Y-44246625D01*
X178842630Y-44224999D01*
X178840500Y-44203373D01*
X178840500Y-44203364D01*
X178836174Y-44159443D01*
X178842702Y-44137923D01*
X178853824Y-44025000D01*
X178853824Y-43976785D01*
X179073000Y-44195961D01*
X179073000Y-44316679D01*
X179099016Y-44447474D01*
X179150050Y-44570680D01*
X179224140Y-44681563D01*
X179318437Y-44775860D01*
X179429320Y-44849950D01*
X179552526Y-44900984D01*
X179683321Y-44927000D01*
X179816679Y-44927000D01*
X179947474Y-44900984D01*
X180070680Y-44849950D01*
X180181563Y-44775860D01*
X180275860Y-44681563D01*
X180349950Y-44570680D01*
X180400984Y-44447474D01*
X180427000Y-44316679D01*
X180427000Y-44183321D01*
X180400984Y-44052526D01*
X180349950Y-43929320D01*
X180275860Y-43818437D01*
X180181563Y-43724140D01*
X180070680Y-43650050D01*
X179947474Y-43599016D01*
X179816679Y-43573000D01*
X179695961Y-43573000D01*
X179036207Y-42913246D01*
X180148000Y-42913246D01*
X180148000Y-43036754D01*
X180172095Y-43157889D01*
X180219360Y-43271996D01*
X180287977Y-43374689D01*
X180375311Y-43462023D01*
X180478004Y-43530640D01*
X180592111Y-43577905D01*
X180713246Y-43602000D01*
X180836754Y-43602000D01*
X180957889Y-43577905D01*
X181071996Y-43530640D01*
X181174689Y-43462023D01*
X181262023Y-43374689D01*
X181330640Y-43271996D01*
X181377905Y-43157889D01*
X181402000Y-43036754D01*
X181402000Y-42913246D01*
X181377905Y-42792111D01*
X181330640Y-42678004D01*
X181262023Y-42575311D01*
X181174689Y-42487977D01*
X181071996Y-42419360D01*
X180957889Y-42372095D01*
X180836754Y-42348000D01*
X180713246Y-42348000D01*
X180592111Y-42372095D01*
X180478004Y-42419360D01*
X180375311Y-42487977D01*
X180287977Y-42575311D01*
X180219360Y-42678004D01*
X180172095Y-42792111D01*
X180148000Y-42913246D01*
X179036207Y-42913246D01*
X178778311Y-42655351D01*
X178809764Y-42596506D01*
X178842702Y-42487923D01*
X178853824Y-42375000D01*
X178853824Y-41975000D01*
X178842702Y-41862077D01*
X178809764Y-41753494D01*
X178756275Y-41653423D01*
X178684290Y-41565710D01*
X178596577Y-41493725D01*
X178496506Y-41440236D01*
X178473711Y-41433321D01*
X180323000Y-41433321D01*
X180323000Y-41566679D01*
X180349016Y-41697474D01*
X180400050Y-41820680D01*
X180474140Y-41931563D01*
X180568437Y-42025860D01*
X180679320Y-42099950D01*
X180802526Y-42150984D01*
X180933321Y-42177000D01*
X181066679Y-42177000D01*
X181197474Y-42150984D01*
X181320680Y-42099950D01*
X181431563Y-42025860D01*
X181448744Y-42008679D01*
X181471176Y-42031110D01*
X181471176Y-42200000D01*
X181478455Y-42273905D01*
X181500012Y-42344970D01*
X181535019Y-42410463D01*
X181582131Y-42467869D01*
X181639537Y-42514981D01*
X181705030Y-42549988D01*
X181776095Y-42571545D01*
X181850000Y-42578824D01*
X182250000Y-42578824D01*
X182323905Y-42571545D01*
X182394970Y-42549988D01*
X182445129Y-42523177D01*
X182500000Y-42528582D01*
X182545250Y-42527000D01*
X182627000Y-42445250D01*
X182627000Y-42218519D01*
X182628824Y-42200000D01*
X182628824Y-41753000D01*
X182771176Y-41753000D01*
X182771176Y-42200000D01*
X182773000Y-42218519D01*
X182773000Y-42445250D01*
X182854750Y-42527000D01*
X182900000Y-42528582D01*
X182954871Y-42523177D01*
X183005030Y-42549988D01*
X183076095Y-42571545D01*
X183150000Y-42578824D01*
X183550000Y-42578824D01*
X183623905Y-42571545D01*
X183694970Y-42549988D01*
X183760463Y-42514981D01*
X183817869Y-42467869D01*
X183864981Y-42410463D01*
X183899988Y-42344970D01*
X183921545Y-42273905D01*
X183928824Y-42200000D01*
X183928824Y-41600000D01*
X183921545Y-41526095D01*
X183899988Y-41455030D01*
X183864981Y-41389537D01*
X183817869Y-41332131D01*
X183790500Y-41309670D01*
X183790500Y-41013553D01*
X183807861Y-40981073D01*
X183842222Y-40867800D01*
X183853824Y-40750000D01*
X183853824Y-40250000D01*
X183842222Y-40132200D01*
X183807861Y-40018927D01*
X183752061Y-39914533D01*
X183676968Y-39823032D01*
X183585467Y-39747939D01*
X183481073Y-39692139D01*
X183367800Y-39657778D01*
X183250000Y-39646176D01*
X182800000Y-39646176D01*
X182682200Y-39657778D01*
X182568927Y-39692139D01*
X182464533Y-39747939D01*
X182373032Y-39823032D01*
X182297939Y-39914533D01*
X182251296Y-40001795D01*
X182247268Y-39960897D01*
X182228570Y-39899257D01*
X182198206Y-39842450D01*
X182157343Y-39792657D01*
X182107550Y-39751794D01*
X182050743Y-39721430D01*
X181989103Y-39702732D01*
X181925000Y-39696418D01*
X181683750Y-39698000D01*
X181602000Y-39779750D01*
X181602000Y-40373000D01*
X181622000Y-40373000D01*
X181622000Y-40627000D01*
X181602000Y-40627000D01*
X181602000Y-40647000D01*
X181348000Y-40647000D01*
X181348000Y-40627000D01*
X180779750Y-40627000D01*
X180698000Y-40708750D01*
X180696907Y-40892765D01*
X180679320Y-40900050D01*
X180568437Y-40974140D01*
X180474140Y-41068437D01*
X180400050Y-41179320D01*
X180349016Y-41302526D01*
X180323000Y-41433321D01*
X178473711Y-41433321D01*
X178387923Y-41407298D01*
X178275000Y-41396176D01*
X177725000Y-41396176D01*
X177612077Y-41407298D01*
X177503494Y-41440236D01*
X177403423Y-41493725D01*
X177315710Y-41565710D01*
X177243725Y-41653423D01*
X177221021Y-41695900D01*
X177037824Y-41695900D01*
X177037824Y-41666500D01*
X177030545Y-41592595D01*
X177008988Y-41521530D01*
X176973981Y-41456037D01*
X176926869Y-41398631D01*
X176869463Y-41351519D01*
X176803970Y-41316512D01*
X176732905Y-41294955D01*
X176659000Y-41287676D01*
X176489900Y-41287676D01*
X176489900Y-41071025D01*
X176492030Y-41049399D01*
X176489900Y-41027773D01*
X176489900Y-41027764D01*
X176483526Y-40963047D01*
X176458338Y-40880012D01*
X176417434Y-40803487D01*
X176362387Y-40736413D01*
X176345583Y-40722622D01*
X175927000Y-40304040D01*
X175927000Y-40183321D01*
X175900984Y-40052526D01*
X175889583Y-40025000D01*
X180696418Y-40025000D01*
X180698000Y-40291250D01*
X180779750Y-40373000D01*
X181348000Y-40373000D01*
X181348000Y-39779750D01*
X181266250Y-39698000D01*
X181025000Y-39696418D01*
X180960897Y-39702732D01*
X180899257Y-39721430D01*
X180842450Y-39751794D01*
X180792657Y-39792657D01*
X180751794Y-39842450D01*
X180721430Y-39899257D01*
X180702732Y-39960897D01*
X180696418Y-40025000D01*
X175889583Y-40025000D01*
X175849950Y-39929320D01*
X175775860Y-39818437D01*
X175681563Y-39724140D01*
X175570680Y-39650050D01*
X175447474Y-39599016D01*
X175316679Y-39573000D01*
X175183321Y-39573000D01*
X175052526Y-39599016D01*
X174929320Y-39650050D01*
X174818437Y-39724140D01*
X174724140Y-39818437D01*
X174650050Y-39929320D01*
X174599016Y-40052526D01*
X174573000Y-40183321D01*
X174573000Y-40316679D01*
X174599016Y-40447474D01*
X174650050Y-40570680D01*
X174724140Y-40681563D01*
X174818437Y-40775860D01*
X174929320Y-40849950D01*
X175052526Y-40900984D01*
X175183321Y-40927000D01*
X175304040Y-40927000D01*
X175608901Y-41231862D01*
X175608901Y-41287676D01*
X175439800Y-41287676D01*
X175365895Y-41294955D01*
X175299999Y-41314944D01*
X175234104Y-41294955D01*
X175160199Y-41287676D01*
X174652199Y-41287676D01*
X174578294Y-41294955D01*
X174507229Y-41316512D01*
X174506200Y-41317062D01*
X174505171Y-41316512D01*
X174434106Y-41294955D01*
X174360201Y-41287676D01*
X173852201Y-41287676D01*
X173778296Y-41294955D01*
X173707231Y-41316512D01*
X173706201Y-41317063D01*
X173705170Y-41316512D01*
X173634105Y-41294955D01*
X173560200Y-41287676D01*
X172341000Y-41287676D01*
X172317510Y-41289990D01*
X172317510Y-40865153D01*
X172319937Y-40840510D01*
X172317510Y-40815867D01*
X172317510Y-40815857D01*
X172310246Y-40742101D01*
X172281541Y-40647474D01*
X172234927Y-40560265D01*
X172228576Y-40552526D01*
X172187910Y-40502974D01*
X172187902Y-40502966D01*
X172172194Y-40483826D01*
X172153053Y-40468117D01*
X171847694Y-40162760D01*
X171842702Y-40112077D01*
X171832265Y-40077670D01*
X172807936Y-39102000D01*
X184632066Y-39102000D01*
X185515111Y-39985046D01*
X185511176Y-40025000D01*
X185511176Y-40275000D01*
X185520857Y-40373291D01*
X185549527Y-40467805D01*
X185593462Y-40550000D01*
X185549527Y-40632195D01*
X185520857Y-40726709D01*
X185511176Y-40825000D01*
X185511176Y-41075000D01*
X185520857Y-41173291D01*
X185549527Y-41267805D01*
X185592236Y-41347708D01*
X185528145Y-41381966D01*
X185484928Y-41417434D01*
X185461071Y-41437013D01*
X185447281Y-41453817D01*
X184386340Y-42514758D01*
X184369537Y-42528548D01*
X184355747Y-42545351D01*
X184355744Y-42545354D01*
X184314489Y-42595623D01*
X184273585Y-42672148D01*
X184248397Y-42755183D01*
X184239893Y-42841535D01*
X184242024Y-42863173D01*
X184242023Y-43660894D01*
X184239893Y-43682523D01*
X184242023Y-43704152D01*
X184242023Y-43704158D01*
X184248397Y-43768875D01*
X184273585Y-43851910D01*
X184306129Y-43912794D01*
X184305522Y-43915843D01*
X184305522Y-44049201D01*
X184331538Y-44179996D01*
X184382572Y-44303202D01*
X184456662Y-44414085D01*
X184550959Y-44508382D01*
X184661842Y-44582472D01*
X184785048Y-44633506D01*
X184915843Y-44659522D01*
X185049201Y-44659522D01*
X185179996Y-44633506D01*
X185303202Y-44582472D01*
X185414085Y-44508382D01*
X185508382Y-44414085D01*
X185582472Y-44303202D01*
X185633506Y-44179996D01*
X185639472Y-44150000D01*
X187181418Y-44150000D01*
X187183000Y-44391250D01*
X187264750Y-44473000D01*
X188183000Y-44473000D01*
X188183000Y-43904750D01*
X188437000Y-43904750D01*
X188437000Y-44473000D01*
X189355250Y-44473000D01*
X189437000Y-44391250D01*
X189438582Y-44150000D01*
X189432268Y-44085897D01*
X189413570Y-44024257D01*
X189383206Y-43967450D01*
X189342343Y-43917657D01*
X189292550Y-43876794D01*
X189235743Y-43846430D01*
X189174103Y-43827732D01*
X189110000Y-43821418D01*
X188518750Y-43823000D01*
X188437000Y-43904750D01*
X188183000Y-43904750D01*
X188101250Y-43823000D01*
X187510000Y-43821418D01*
X187445897Y-43827732D01*
X187384257Y-43846430D01*
X187327450Y-43876794D01*
X187277657Y-43917657D01*
X187236794Y-43967450D01*
X187206430Y-44024257D01*
X187187732Y-44085897D01*
X187181418Y-44150000D01*
X185639472Y-44150000D01*
X185659522Y-44049201D01*
X185659522Y-43915843D01*
X185638197Y-43808630D01*
X185657657Y-43832343D01*
X185707450Y-43873206D01*
X185764257Y-43903570D01*
X185825897Y-43922268D01*
X185890000Y-43928582D01*
X186181250Y-43927000D01*
X186263000Y-43845250D01*
X186263000Y-43473000D01*
X186517000Y-43473000D01*
X186517000Y-43845250D01*
X186598750Y-43927000D01*
X186890000Y-43928582D01*
X186954103Y-43922268D01*
X187015743Y-43903570D01*
X187072550Y-43873206D01*
X187122343Y-43832343D01*
X187163206Y-43782550D01*
X187193570Y-43725743D01*
X187212268Y-43664103D01*
X187218582Y-43600000D01*
X187217000Y-43554750D01*
X187135250Y-43473000D01*
X186517000Y-43473000D01*
X186263000Y-43473000D01*
X186243000Y-43473000D01*
X186243000Y-43227000D01*
X186263000Y-43227000D01*
X186263000Y-43203000D01*
X186517000Y-43203000D01*
X186517000Y-43227000D01*
X187135250Y-43227000D01*
X187217000Y-43145250D01*
X187218582Y-43100000D01*
X187212268Y-43035897D01*
X187193570Y-42974257D01*
X187183499Y-42955416D01*
X187183914Y-42954910D01*
X187230473Y-42867805D01*
X187259143Y-42773291D01*
X187268824Y-42675000D01*
X187268824Y-42425000D01*
X187259143Y-42326709D01*
X187230473Y-42232195D01*
X187186538Y-42150000D01*
X187230473Y-42067805D01*
X187259143Y-41973291D01*
X187268824Y-41875000D01*
X187268824Y-41625000D01*
X187259143Y-41526709D01*
X187230473Y-41432195D01*
X187186538Y-41350000D01*
X187230473Y-41267805D01*
X187259143Y-41173291D01*
X187268824Y-41075000D01*
X187268824Y-40825000D01*
X187259143Y-40726709D01*
X187230473Y-40632195D01*
X187186538Y-40550000D01*
X187230473Y-40467805D01*
X187259143Y-40373291D01*
X187268824Y-40275000D01*
X187268824Y-40025000D01*
X187259143Y-39926709D01*
X187230473Y-39832195D01*
X187183914Y-39745090D01*
X187121257Y-39668743D01*
X187044910Y-39606086D01*
X186957805Y-39559527D01*
X186863291Y-39530857D01*
X186765000Y-39521176D01*
X186471111Y-39521176D01*
X186299935Y-39350000D01*
X187181418Y-39350000D01*
X187187732Y-39414103D01*
X187206430Y-39475743D01*
X187236794Y-39532550D01*
X187277657Y-39582343D01*
X187327450Y-39623206D01*
X187384257Y-39653570D01*
X187445897Y-39672268D01*
X187510000Y-39678582D01*
X188101250Y-39677000D01*
X188183000Y-39595250D01*
X188183000Y-39027000D01*
X188437000Y-39027000D01*
X188437000Y-39595250D01*
X188518750Y-39677000D01*
X189110000Y-39678582D01*
X189174103Y-39672268D01*
X189235743Y-39653570D01*
X189292550Y-39623206D01*
X189342343Y-39582343D01*
X189383206Y-39532550D01*
X189413570Y-39475743D01*
X189432268Y-39414103D01*
X189438582Y-39350000D01*
X189437000Y-39108750D01*
X189355250Y-39027000D01*
X188437000Y-39027000D01*
X188183000Y-39027000D01*
X187264750Y-39027000D01*
X187183000Y-39108750D01*
X187181418Y-39350000D01*
X186299935Y-39350000D01*
X185501934Y-38552000D01*
X187182087Y-38552000D01*
X187183000Y-38691250D01*
G37*
%TD.AperFunction*%
D29*
X164818437Y-46724140D02*
X164724140Y-46818437D01*
X164650050Y-46929320D01*
X164599016Y-47052526D01*
X164573000Y-47183321D01*
X164573000Y-47316679D01*
X164599016Y-47447474D01*
X164650050Y-47570680D01*
X164724140Y-47681563D01*
X164809500Y-47766923D01*
X164809501Y-49050361D01*
X164807370Y-49072000D01*
X164815874Y-49158352D01*
X164841062Y-49241387D01*
X164881966Y-49317912D01*
X164923101Y-49368034D01*
X164937014Y-49384987D01*
X164953817Y-49398777D01*
X165296220Y-49741181D01*
X165310013Y-49757987D01*
X165371176Y-49808183D01*
X165371176Y-49945000D01*
X165378455Y-50018905D01*
X165396988Y-50080000D01*
X165378455Y-50141095D01*
X165371176Y-50215000D01*
X165371176Y-50809500D01*
X161766923Y-50809500D01*
X161681563Y-50724140D01*
X161570680Y-50650050D01*
X161447474Y-50599016D01*
X161316679Y-50573000D01*
X161183321Y-50573000D01*
X161052526Y-50599016D01*
X160929320Y-50650050D01*
X160924892Y-50653008D01*
X160922567Y-50629398D01*
X160901010Y-50558333D01*
X160866003Y-50492840D01*
X160818891Y-50435434D01*
X160761485Y-50388322D01*
X160695992Y-50353315D01*
X160624927Y-50331758D01*
X160551022Y-50324479D01*
X159920158Y-50324479D01*
X159801021Y-50205342D01*
X159801021Y-49682127D01*
X160551022Y-49682127D01*
X160624927Y-49674848D01*
X160695992Y-49653291D01*
X160761485Y-49618284D01*
X160818891Y-49571172D01*
X160866003Y-49513766D01*
X160901010Y-49448273D01*
X160922567Y-49377208D01*
X160929846Y-49303303D01*
X160929846Y-48672440D01*
X161024484Y-48577802D01*
X161553303Y-48577802D01*
X161627208Y-48570523D01*
X161698273Y-48548966D01*
X161763766Y-48513959D01*
X161821172Y-48466847D01*
X161868284Y-48409441D01*
X161903291Y-48343948D01*
X161924848Y-48272883D01*
X161932127Y-48198978D01*
X161932127Y-47198978D01*
X161924848Y-47125073D01*
X161903291Y-47054008D01*
X161874011Y-46999230D01*
X162073000Y-46800242D01*
X162073000Y-46816679D01*
X162099016Y-46947474D01*
X162150050Y-47070680D01*
X162224140Y-47181563D01*
X162318437Y-47275860D01*
X162429320Y-47349950D01*
X162552526Y-47400984D01*
X162574479Y-47405351D01*
X162574479Y-48198978D01*
X162581758Y-48272883D01*
X162603315Y-48343948D01*
X162638322Y-48409441D01*
X162685434Y-48466847D01*
X162742840Y-48513959D01*
X162808333Y-48548966D01*
X162879398Y-48570523D01*
X162953303Y-48577802D01*
X163703303Y-48577802D01*
X163777208Y-48570523D01*
X163848273Y-48548966D01*
X163913766Y-48513959D01*
X163971172Y-48466847D01*
X164018284Y-48409441D01*
X164053291Y-48343948D01*
X164074848Y-48272883D01*
X164082127Y-48198978D01*
X164082127Y-47198978D01*
X164074848Y-47125073D01*
X164053291Y-47054008D01*
X164018284Y-46988515D01*
X163971172Y-46931109D01*
X163913766Y-46883997D01*
X163848273Y-46848990D01*
X163777208Y-46827433D01*
X163703303Y-46820154D01*
X163443115Y-46820154D01*
X163427000Y-46804039D01*
X163427000Y-46699999D01*
X164854566Y-46699999D01*
X164818437Y-46724140D01*
%TA.AperFunction,Conductor*%
D30*
G36*
X164818437Y-46724140D02*
G01*
X164724140Y-46818437D01*
X164650050Y-46929320D01*
X164599016Y-47052526D01*
X164573000Y-47183321D01*
X164573000Y-47316679D01*
X164599016Y-47447474D01*
X164650050Y-47570680D01*
X164724140Y-47681563D01*
X164809500Y-47766923D01*
X164809501Y-49050361D01*
X164807370Y-49072000D01*
X164815874Y-49158352D01*
X164841062Y-49241387D01*
X164881966Y-49317912D01*
X164923101Y-49368034D01*
X164937014Y-49384987D01*
X164953817Y-49398777D01*
X165296220Y-49741181D01*
X165310013Y-49757987D01*
X165371176Y-49808183D01*
X165371176Y-49945000D01*
X165378455Y-50018905D01*
X165396988Y-50080000D01*
X165378455Y-50141095D01*
X165371176Y-50215000D01*
X165371176Y-50809500D01*
X161766923Y-50809500D01*
X161681563Y-50724140D01*
X161570680Y-50650050D01*
X161447474Y-50599016D01*
X161316679Y-50573000D01*
X161183321Y-50573000D01*
X161052526Y-50599016D01*
X160929320Y-50650050D01*
X160924892Y-50653008D01*
X160922567Y-50629398D01*
X160901010Y-50558333D01*
X160866003Y-50492840D01*
X160818891Y-50435434D01*
X160761485Y-50388322D01*
X160695992Y-50353315D01*
X160624927Y-50331758D01*
X160551022Y-50324479D01*
X159920158Y-50324479D01*
X159801021Y-50205342D01*
X159801021Y-49682127D01*
X160551022Y-49682127D01*
X160624927Y-49674848D01*
X160695992Y-49653291D01*
X160761485Y-49618284D01*
X160818891Y-49571172D01*
X160866003Y-49513766D01*
X160901010Y-49448273D01*
X160922567Y-49377208D01*
X160929846Y-49303303D01*
X160929846Y-48672440D01*
X161024484Y-48577802D01*
X161553303Y-48577802D01*
X161627208Y-48570523D01*
X161698273Y-48548966D01*
X161763766Y-48513959D01*
X161821172Y-48466847D01*
X161868284Y-48409441D01*
X161903291Y-48343948D01*
X161924848Y-48272883D01*
X161932127Y-48198978D01*
X161932127Y-47198978D01*
X161924848Y-47125073D01*
X161903291Y-47054008D01*
X161874011Y-46999230D01*
X162073000Y-46800242D01*
X162073000Y-46816679D01*
X162099016Y-46947474D01*
X162150050Y-47070680D01*
X162224140Y-47181563D01*
X162318437Y-47275860D01*
X162429320Y-47349950D01*
X162552526Y-47400984D01*
X162574479Y-47405351D01*
X162574479Y-48198978D01*
X162581758Y-48272883D01*
X162603315Y-48343948D01*
X162638322Y-48409441D01*
X162685434Y-48466847D01*
X162742840Y-48513959D01*
X162808333Y-48548966D01*
X162879398Y-48570523D01*
X162953303Y-48577802D01*
X163703303Y-48577802D01*
X163777208Y-48570523D01*
X163848273Y-48548966D01*
X163913766Y-48513959D01*
X163971172Y-48466847D01*
X164018284Y-48409441D01*
X164053291Y-48343948D01*
X164074848Y-48272883D01*
X164082127Y-48198978D01*
X164082127Y-47198978D01*
X164074848Y-47125073D01*
X164053291Y-47054008D01*
X164018284Y-46988515D01*
X163971172Y-46931109D01*
X163913766Y-46883997D01*
X163848273Y-46848990D01*
X163777208Y-46827433D01*
X163703303Y-46820154D01*
X163443115Y-46820154D01*
X163427000Y-46804039D01*
X163427000Y-46699999D01*
X164854566Y-46699999D01*
X164818437Y-46724140D01*
G37*
%TD.AperFunction*%
D29*
X183139995Y-47431545D02*
X183213900Y-47438824D01*
X183350718Y-47438824D01*
X183400913Y-47499987D01*
X183417721Y-47513782D01*
X183700122Y-47796183D01*
X183713913Y-47812987D01*
X183730716Y-47826777D01*
X183730718Y-47826779D01*
X183748122Y-47841062D01*
X183780987Y-47868034D01*
X183857512Y-47908938D01*
X183940547Y-47934126D01*
X184005264Y-47940500D01*
X184005271Y-47940500D01*
X184026900Y-47942630D01*
X184048529Y-47940500D01*
X184145419Y-47940500D01*
X184100062Y-48050001D01*
X180645434Y-48050001D01*
X180681563Y-48025860D01*
X180775860Y-47931563D01*
X180849950Y-47820680D01*
X180900984Y-47697474D01*
X180927000Y-47566679D01*
X180927000Y-47445960D01*
X180934136Y-47438824D01*
X181673900Y-47438824D01*
X181747805Y-47431545D01*
X181808900Y-47413012D01*
X181869995Y-47431545D01*
X181943900Y-47438824D01*
X182943900Y-47438824D01*
X183017805Y-47431545D01*
X183078900Y-47413012D01*
X183139995Y-47431545D01*
%TA.AperFunction,Conductor*%
D30*
G36*
X183139995Y-47431545D02*
G01*
X183213900Y-47438824D01*
X183350718Y-47438824D01*
X183400913Y-47499987D01*
X183417721Y-47513782D01*
X183700122Y-47796183D01*
X183713913Y-47812987D01*
X183730716Y-47826777D01*
X183730718Y-47826779D01*
X183748122Y-47841062D01*
X183780987Y-47868034D01*
X183857512Y-47908938D01*
X183940547Y-47934126D01*
X184005264Y-47940500D01*
X184005271Y-47940500D01*
X184026900Y-47942630D01*
X184048529Y-47940500D01*
X184145419Y-47940500D01*
X184100062Y-48050001D01*
X180645434Y-48050001D01*
X180681563Y-48025860D01*
X180775860Y-47931563D01*
X180849950Y-47820680D01*
X180900984Y-47697474D01*
X180927000Y-47566679D01*
X180927000Y-47445960D01*
X180934136Y-47438824D01*
X181673900Y-47438824D01*
X181747805Y-47431545D01*
X181808900Y-47413012D01*
X181869995Y-47431545D01*
X181943900Y-47438824D01*
X182943900Y-47438824D01*
X183017805Y-47431545D01*
X183078900Y-47413012D01*
X183139995Y-47431545D01*
G37*
%TD.AperFunction*%
%TD*%
M02*
