M48
; DRILL file {KiCad (5.1.9)-1} date 08/08/21 21:49:57
; FORMAT={-:-/ absolute / inch / decimal}
; #@! TF.CreationDate,2021-08-08T21:49:57+01:00
; #@! TF.GenerationSoftware,Kicad,Pcbnew,(5.1.9)-1
FMAT,2
INCH
T1C0.0118
T2C0.0197
T3C0.0236
T4C0.0335
%
G90
G05
T1
X5.3937Y-1.5354
X5.3937Y-1.6339
X5.5118Y-1.7618
X5.6496Y-1.8996
X5.6693Y-1.7028
X5.6929Y-1.5354
X5.7717Y-2.0157
X5.8169Y-1.6614
X5.8563Y-1.7913
X5.8563Y-1.8898
X5.8858Y-1.685
X5.8957Y-1.7874
X5.935Y-2.185
X5.9646Y-1.6043
X5.9646Y-1.791
X5.9921Y-1.7421
X5.9941Y-2.0177
X5.9941Y-2.0768
X6.0Y-1.6063
X6.0236Y-1.6449
X6.0236Y-1.752
X6.0531Y-1.6043
X6.0531Y-1.939
X6.1024Y-1.7302
X6.1339Y-1.6063
X6.1575Y-1.6935
X6.1654Y-1.6063
X6.1713Y-1.8504
X6.1713Y-2.0472
X6.1811Y-2.1417
X6.189Y-1.6935
X6.189Y-2.1102
X6.25Y-2.0472
X6.2795Y-1.8504
X6.3287Y-1.7913
X6.3484Y-1.565
X6.3484Y-1.6043
X6.3484Y-2.0177
X6.3484Y-2.0571
X6.3878Y-1.9094
X6.3878Y-1.9882
X6.3878Y-2.126
X6.3976Y-1.7495
X6.4075Y-1.8406
X6.4272Y-1.5453
X6.4665Y-1.5453
X6.4764Y-1.9094
X6.4764Y-1.9882
X6.4862Y-2.126
X6.4961Y-1.791
X6.5059Y-1.8602
X6.5256Y-2.3228
X6.5462Y-1.8218
X6.5945Y-2.2441
X6.6339Y-1.7815
X6.6339Y-1.7815
X6.6535Y-1.5453
X6.6831Y-1.8996
X6.6831Y-2.2835
X6.6831Y-2.3228
X6.6929Y-1.5453
X6.6929Y-1.7618
X6.6929Y-2.0177
X6.6929Y-2.1161
X6.6929Y-2.1846
X6.7224Y-1.9193
X6.7224Y-1.9587
X6.7323Y-2.2736
X6.7421Y-2.1654
X6.7491Y-2.0022
X6.7815Y-2.2736
X6.7953Y-1.7795
X6.8091Y-1.5512
X6.8209Y-1.8898
X6.8307Y-2.2736
X6.8346Y-1.7795
X6.8484Y-1.5512
X6.8504Y-1.998
X6.8504Y-2.0571
X6.8602Y-1.8898
X6.8799Y-2.2736
X6.8819Y-1.7795
X6.8898Y-2.1654
X6.8996Y-1.5846
X6.9094Y-1.998
X6.9094Y-2.0571
X6.9291Y-1.7795
X6.9291Y-2.2736
X6.9587Y-1.8973
X6.9764Y-1.7795
X6.9783Y-1.9291
X6.9783Y-2.2736
X6.9882Y-2.1846
X7.0177Y-1.8898
X7.0177Y-2.0058
X7.0177Y-2.1161
X7.0236Y-1.7795
X7.0276Y-2.2736
X7.0571Y-1.5551
X7.0571Y-1.6437
X7.0571Y-1.8701
X7.0768Y-1.7421
X7.0866Y-2.1161
X7.0866Y-2.1555
X7.0965Y-1.8701
X7.126Y-1.6339
X7.126Y-1.7323
X7.1555Y-2.1935
X7.1752Y-1.8799
X7.1752Y-2.2736
X7.185Y-1.9783
X7.1949Y-1.6929
X7.1949Y-2.0472
X7.1949Y-2.126
X7.1949Y-2.2035
X7.2146Y-1.9488
X7.2343Y-1.7618
X7.2441Y-2.1654
X7.2536Y-1.9353
X7.2736Y-1.5748
X7.2736Y-1.6339
X7.2736Y-1.8996
X7.2828Y-1.7316
X7.2933Y-1.6929
X7.2965Y-1.7867
X7.3258Y-1.8701
X7.3425Y-1.5354
X7.3425Y-2.0374
X7.3622Y-1.8799
X7.4488Y-1.6457
X7.4488Y-1.811
X7.4488Y-1.9488
X7.4803Y-1.5354
X7.5886Y-1.5354
X7.5886Y-1.6437
X7.5886Y-1.8012
X7.5886Y-1.9488
T2
X7.1171Y-1.6919
T4
X6.1063Y-2.1969
X6.3031Y-2.1969
T3
G00X6.0669Y-2.3169
M15
G01X6.0669Y-2.2894
M16
G05
G00X6.3425Y-2.2894
M15
G01X6.3425Y-2.3169
M16
G05
T0
M30
