%TF.GenerationSoftware,KiCad,Pcbnew,(5.1.9)-1*%
%TF.CreationDate,2021-08-08T21:49:21+01:00*%
%TF.ProjectId,glassphones - main pcb,676c6173-7370-4686-9f6e-6573202d206d,rev?*%
%TF.SameCoordinates,Original*%
%TF.FileFunction,Legend,Top*%
%TF.FilePolarity,Positive*%
%FSLAX46Y46*%
G04 Gerber Fmt 4.6, Leading zero omitted, Abs format (unit mm)*
G04 Created by KiCad (PCBNEW (5.1.9)-1) date 2021-08-08 21:49:21*
%MOMM*%
%LPD*%
G01*
G04 APERTURE LIST*
%ADD10C,0.120000*%
%ADD11C,0.050000*%
%ADD12C,0.153000*%
%ADD13C,0.150000*%
%ADD14C,0.100000*%
G04 APERTURE END LIST*
D10*
%TO.C,J2*%
X144655400Y-39329299D02*
G75*
G03*
X144655400Y-39329299I-381000J0D01*
G01*
%TO.C,J5*%
X187250000Y-44960000D02*
X186130000Y-44960000D01*
X186130000Y-44960000D02*
X186130000Y-43860000D01*
X186130000Y-43860000D02*
X185890000Y-43860000D01*
X187250000Y-38540000D02*
X186130000Y-38540000D01*
X186130000Y-38540000D02*
X186130000Y-39640000D01*
X189120000Y-43890000D02*
X189120000Y-39610000D01*
X185036447Y-43600000D02*
X185390000Y-43350000D01*
X185390000Y-43350000D02*
X185036447Y-43100000D01*
X185036447Y-43100000D02*
X185036447Y-43600000D01*
D11*
%TO.C,U3*%
X183675000Y-41475000D02*
X179675000Y-41475000D01*
X179675000Y-44475000D02*
X179675000Y-41475000D01*
X183675000Y-44475000D02*
X183675000Y-41475000D01*
X183675000Y-44475000D02*
X179675000Y-44475000D01*
D10*
%TO.C,J1*%
X155900000Y-54950000D02*
X155900000Y-55400000D01*
X155900000Y-54950000D02*
X156350000Y-54950000D01*
X161500000Y-55500000D02*
X161050000Y-55500000D01*
X161500000Y-57350000D02*
X161500000Y-55500000D01*
X153700000Y-59900000D02*
X153700000Y-59650000D01*
X161500000Y-59900000D02*
X161500000Y-59650000D01*
X153700000Y-57350000D02*
X153700000Y-55500000D01*
X153700000Y-55500000D02*
X154150000Y-55500000D01*
%TO.C,R7*%
X167522500Y-43237258D02*
X167522500Y-42762742D01*
X166477500Y-43237258D02*
X166477500Y-42762742D01*
%TO.C,R6*%
X169272500Y-43237258D02*
X169272500Y-42762742D01*
X168227500Y-43237258D02*
X168227500Y-42762742D01*
%TO.C,R5*%
X169977500Y-43237258D02*
X169977500Y-42762742D01*
X171022500Y-43237258D02*
X171022500Y-42762742D01*
%TO.C,R4*%
X167487258Y-41022500D02*
X167012742Y-41022500D01*
X167487258Y-39977500D02*
X167012742Y-39977500D01*
%TO.C,R3*%
X170487258Y-41022500D02*
X170012742Y-41022500D01*
X170487258Y-39977500D02*
X170012742Y-39977500D01*
%TO.C,R1*%
X178522500Y-42762742D02*
X178522500Y-43237258D01*
X177477500Y-42762742D02*
X177477500Y-43237258D01*
%TO.C,C9*%
X182390580Y-41010000D02*
X182109420Y-41010000D01*
X182390580Y-39990000D02*
X182109420Y-39990000D01*
%TO.C,J5*%
D12*
X183983333Y-41561904D02*
X183983333Y-42133333D01*
X183945238Y-42247619D01*
X183869047Y-42323809D01*
X183754761Y-42361904D01*
X183678571Y-42361904D01*
X184745238Y-41561904D02*
X184364285Y-41561904D01*
X184326190Y-41942857D01*
X184364285Y-41904761D01*
X184440476Y-41866666D01*
X184630952Y-41866666D01*
X184707142Y-41904761D01*
X184745238Y-41942857D01*
X184783333Y-42019047D01*
X184783333Y-42209523D01*
X184745238Y-42285714D01*
X184707142Y-42323809D01*
X184630952Y-42361904D01*
X184440476Y-42361904D01*
X184364285Y-42323809D01*
X184326190Y-42285714D01*
%TO.C,R2*%
X174366666Y-45611904D02*
X174100000Y-45230952D01*
X173909523Y-45611904D02*
X173909523Y-44811904D01*
X174214285Y-44811904D01*
X174290476Y-44850000D01*
X174328571Y-44888095D01*
X174366666Y-44964285D01*
X174366666Y-45078571D01*
X174328571Y-45154761D01*
X174290476Y-45192857D01*
X174214285Y-45230952D01*
X173909523Y-45230952D01*
X174671428Y-44888095D02*
X174709523Y-44850000D01*
X174785714Y-44811904D01*
X174976190Y-44811904D01*
X175052380Y-44850000D01*
X175090476Y-44888095D01*
X175128571Y-44964285D01*
X175128571Y-45040476D01*
X175090476Y-45154761D01*
X174633333Y-45611904D01*
X175128571Y-45611904D01*
X172652380Y-41111904D02*
X172195238Y-41111904D01*
X172423809Y-41111904D02*
X172423809Y-40311904D01*
X172347619Y-40426190D01*
X172271428Y-40502380D01*
X172195238Y-40540476D01*
X173147619Y-40311904D02*
X173223809Y-40311904D01*
X173300000Y-40350000D01*
X173338095Y-40388095D01*
X173376190Y-40464285D01*
X173414285Y-40616666D01*
X173414285Y-40807142D01*
X173376190Y-40959523D01*
X173338095Y-41035714D01*
X173300000Y-41073809D01*
X173223809Y-41111904D01*
X173147619Y-41111904D01*
X173071428Y-41073809D01*
X173033333Y-41035714D01*
X172995238Y-40959523D01*
X172957142Y-40807142D01*
X172957142Y-40616666D01*
X172995238Y-40464285D01*
X173033333Y-40388095D01*
X173071428Y-40350000D01*
X173147619Y-40311904D01*
X173757142Y-41111904D02*
X173757142Y-40311904D01*
X173833333Y-40807142D02*
X174061904Y-41111904D01*
X174061904Y-40578571D02*
X173757142Y-40883333D01*
X174938095Y-40311904D02*
X175471428Y-41111904D01*
X175471428Y-40311904D02*
X174938095Y-41111904D01*
X176728571Y-40578571D02*
X176728571Y-41111904D01*
X176538095Y-40273809D02*
X176347619Y-40845238D01*
X176842857Y-40845238D01*
D13*
X171539380Y-44257300D02*
X171777476Y-44257300D01*
X171682238Y-44495395D02*
X171777476Y-44257300D01*
X171682238Y-44019204D01*
X171967952Y-44400157D02*
X171777476Y-44257300D01*
X171967952Y-44114442D01*
X171539380Y-44257300D02*
X171777476Y-44257300D01*
X171682238Y-44495395D02*
X171777476Y-44257300D01*
X171682238Y-44019204D01*
X171967952Y-44400157D02*
X171777476Y-44257300D01*
X171967952Y-44114442D01*
%TO.C,U3*%
D12*
X181064807Y-44749902D02*
X181064807Y-45397521D01*
X181102902Y-45473712D01*
X181140997Y-45511807D01*
X181217188Y-45549902D01*
X181369569Y-45549902D01*
X181445759Y-45511807D01*
X181483854Y-45473712D01*
X181521950Y-45397521D01*
X181521950Y-44749902D01*
X181826711Y-44749902D02*
X182321950Y-44749902D01*
X182055283Y-45054664D01*
X182169569Y-45054664D01*
X182245759Y-45092759D01*
X182283854Y-45130855D01*
X182321950Y-45207045D01*
X182321950Y-45397521D01*
X182283854Y-45473712D01*
X182245759Y-45511807D01*
X182169569Y-45549902D01*
X181940997Y-45549902D01*
X181864807Y-45511807D01*
X181826711Y-45473712D01*
%TO.C,RST1*%
D14*
X142982104Y-46661756D02*
X142815437Y-46423661D01*
X142696389Y-46661756D02*
X142696389Y-46161756D01*
X142886866Y-46161756D01*
X142934485Y-46185566D01*
X142958294Y-46209375D01*
X142982104Y-46256994D01*
X142982104Y-46328423D01*
X142958294Y-46376042D01*
X142934485Y-46399851D01*
X142886866Y-46423661D01*
X142696389Y-46423661D01*
X143172580Y-46637946D02*
X143244009Y-46661756D01*
X143363056Y-46661756D01*
X143410675Y-46637946D01*
X143434485Y-46614137D01*
X143458294Y-46566518D01*
X143458294Y-46518899D01*
X143434485Y-46471280D01*
X143410675Y-46447470D01*
X143363056Y-46423661D01*
X143267818Y-46399851D01*
X143220199Y-46376042D01*
X143196389Y-46352232D01*
X143172580Y-46304613D01*
X143172580Y-46256994D01*
X143196389Y-46209375D01*
X143220199Y-46185566D01*
X143267818Y-46161756D01*
X143386866Y-46161756D01*
X143458294Y-46185566D01*
X143601151Y-46161756D02*
X143886866Y-46161756D01*
X143744009Y-46661756D02*
X143744009Y-46161756D01*
X144315437Y-46661756D02*
X144029723Y-46661756D01*
X144172580Y-46661756D02*
X144172580Y-46161756D01*
X144124961Y-46233185D01*
X144077342Y-46280804D01*
X144029723Y-46304613D01*
%TO.C,Ba1*%
X150864285Y-42428571D02*
X150888095Y-42357142D01*
X150911904Y-42333333D01*
X150959523Y-42309523D01*
X151030952Y-42309523D01*
X151078571Y-42333333D01*
X151102380Y-42357142D01*
X151126190Y-42404761D01*
X151126190Y-42595238D01*
X150626190Y-42595238D01*
X150626190Y-42428571D01*
X150650000Y-42380952D01*
X150673809Y-42357142D01*
X150721428Y-42333333D01*
X150769047Y-42333333D01*
X150816666Y-42357142D01*
X150840476Y-42380952D01*
X150864285Y-42428571D01*
X150864285Y-42595238D01*
X151126190Y-41880952D02*
X150864285Y-41880952D01*
X150816666Y-41904761D01*
X150792857Y-41952380D01*
X150792857Y-42047619D01*
X150816666Y-42095238D01*
X151102380Y-41880952D02*
X151126190Y-41928571D01*
X151126190Y-42047619D01*
X151102380Y-42095238D01*
X151054761Y-42119047D01*
X151007142Y-42119047D01*
X150959523Y-42095238D01*
X150935714Y-42047619D01*
X150935714Y-41928571D01*
X150911904Y-41880952D01*
X151126190Y-41380952D02*
X151126190Y-41666666D01*
X151126190Y-41523809D02*
X150626190Y-41523809D01*
X150697619Y-41571428D01*
X150745238Y-41619047D01*
X150769047Y-41666666D01*
%TO.C,Bu1*%
X157321428Y-43164285D02*
X157392857Y-43188095D01*
X157416666Y-43211904D01*
X157440476Y-43259523D01*
X157440476Y-43330952D01*
X157416666Y-43378571D01*
X157392857Y-43402380D01*
X157345238Y-43426190D01*
X157154761Y-43426190D01*
X157154761Y-42926190D01*
X157321428Y-42926190D01*
X157369047Y-42950000D01*
X157392857Y-42973809D01*
X157416666Y-43021428D01*
X157416666Y-43069047D01*
X157392857Y-43116666D01*
X157369047Y-43140476D01*
X157321428Y-43164285D01*
X157154761Y-43164285D01*
X157869047Y-43092857D02*
X157869047Y-43426190D01*
X157654761Y-43092857D02*
X157654761Y-43354761D01*
X157678571Y-43402380D01*
X157726190Y-43426190D01*
X157797619Y-43426190D01*
X157845238Y-43402380D01*
X157869047Y-43378571D01*
X158369047Y-43426190D02*
X158083333Y-43426190D01*
X158226190Y-43426190D02*
X158226190Y-42926190D01*
X158178571Y-42997619D01*
X158130952Y-43045238D01*
X158083333Y-43069047D01*
%TO.C,Br1*%
X160014285Y-45857142D02*
X160038095Y-45785714D01*
X160061904Y-45761904D01*
X160109523Y-45738095D01*
X160180952Y-45738095D01*
X160228571Y-45761904D01*
X160252380Y-45785714D01*
X160276190Y-45833333D01*
X160276190Y-46023809D01*
X159776190Y-46023809D01*
X159776190Y-45857142D01*
X159800000Y-45809523D01*
X159823809Y-45785714D01*
X159871428Y-45761904D01*
X159919047Y-45761904D01*
X159966666Y-45785714D01*
X159990476Y-45809523D01*
X160014285Y-45857142D01*
X160014285Y-46023809D01*
X160276190Y-45523809D02*
X159942857Y-45523809D01*
X160038095Y-45523809D02*
X159990476Y-45500000D01*
X159966666Y-45476190D01*
X159942857Y-45428571D01*
X159942857Y-45380952D01*
X160276190Y-44952380D02*
X160276190Y-45238095D01*
X160276190Y-45095238D02*
X159776190Y-45095238D01*
X159847619Y-45142857D01*
X159895238Y-45190476D01*
X159919047Y-45238095D01*
%TO.C,BOOT1*%
X142483333Y-38514285D02*
X142554761Y-38538095D01*
X142578571Y-38561904D01*
X142602380Y-38609523D01*
X142602380Y-38680952D01*
X142578571Y-38728571D01*
X142554761Y-38752380D01*
X142507142Y-38776190D01*
X142316666Y-38776190D01*
X142316666Y-38276190D01*
X142483333Y-38276190D01*
X142530952Y-38300000D01*
X142554761Y-38323809D01*
X142578571Y-38371428D01*
X142578571Y-38419047D01*
X142554761Y-38466666D01*
X142530952Y-38490476D01*
X142483333Y-38514285D01*
X142316666Y-38514285D01*
X142911904Y-38276190D02*
X143007142Y-38276190D01*
X143054761Y-38300000D01*
X143102380Y-38347619D01*
X143126190Y-38442857D01*
X143126190Y-38609523D01*
X143102380Y-38704761D01*
X143054761Y-38752380D01*
X143007142Y-38776190D01*
X142911904Y-38776190D01*
X142864285Y-38752380D01*
X142816666Y-38704761D01*
X142792857Y-38609523D01*
X142792857Y-38442857D01*
X142816666Y-38347619D01*
X142864285Y-38300000D01*
X142911904Y-38276190D01*
X143435714Y-38276190D02*
X143530952Y-38276190D01*
X143578571Y-38300000D01*
X143626190Y-38347619D01*
X143650000Y-38442857D01*
X143650000Y-38609523D01*
X143626190Y-38704761D01*
X143578571Y-38752380D01*
X143530952Y-38776190D01*
X143435714Y-38776190D01*
X143388095Y-38752380D01*
X143340476Y-38704761D01*
X143316666Y-38609523D01*
X143316666Y-38442857D01*
X143340476Y-38347619D01*
X143388095Y-38300000D01*
X143435714Y-38276190D01*
X143792857Y-38276190D02*
X144078571Y-38276190D01*
X143935714Y-38776190D02*
X143935714Y-38276190D01*
X144507142Y-38776190D02*
X144221428Y-38776190D01*
X144364285Y-38776190D02*
X144364285Y-38276190D01*
X144316666Y-38347619D01*
X144269047Y-38395238D01*
X144221428Y-38419047D01*
%TO.C,Bl1*%
X155464285Y-45833333D02*
X155488095Y-45761904D01*
X155511904Y-45738095D01*
X155559523Y-45714285D01*
X155630952Y-45714285D01*
X155678571Y-45738095D01*
X155702380Y-45761904D01*
X155726190Y-45809523D01*
X155726190Y-46000000D01*
X155226190Y-46000000D01*
X155226190Y-45833333D01*
X155250000Y-45785714D01*
X155273809Y-45761904D01*
X155321428Y-45738095D01*
X155369047Y-45738095D01*
X155416666Y-45761904D01*
X155440476Y-45785714D01*
X155464285Y-45833333D01*
X155464285Y-46000000D01*
X155726190Y-45428571D02*
X155702380Y-45476190D01*
X155654761Y-45500000D01*
X155226190Y-45500000D01*
X155726190Y-44976190D02*
X155726190Y-45261904D01*
X155726190Y-45119047D02*
X155226190Y-45119047D01*
X155297619Y-45166666D01*
X155345238Y-45214285D01*
X155369047Y-45261904D01*
%TO.C,Bd1*%
X157321428Y-47764285D02*
X157392857Y-47788095D01*
X157416666Y-47811904D01*
X157440476Y-47859523D01*
X157440476Y-47930952D01*
X157416666Y-47978571D01*
X157392857Y-48002380D01*
X157345238Y-48026190D01*
X157154761Y-48026190D01*
X157154761Y-47526190D01*
X157321428Y-47526190D01*
X157369047Y-47550000D01*
X157392857Y-47573809D01*
X157416666Y-47621428D01*
X157416666Y-47669047D01*
X157392857Y-47716666D01*
X157369047Y-47740476D01*
X157321428Y-47764285D01*
X157154761Y-47764285D01*
X157869047Y-48026190D02*
X157869047Y-47526190D01*
X157869047Y-48002380D02*
X157821428Y-48026190D01*
X157726190Y-48026190D01*
X157678571Y-48002380D01*
X157654761Y-47978571D01*
X157630952Y-47930952D01*
X157630952Y-47788095D01*
X157654761Y-47740476D01*
X157678571Y-47716666D01*
X157726190Y-47692857D01*
X157821428Y-47692857D01*
X157869047Y-47716666D01*
X158369047Y-48026190D02*
X158083333Y-48026190D01*
X158226190Y-48026190D02*
X158226190Y-47526190D01*
X158178571Y-47597619D01*
X158130952Y-47645238D01*
X158083333Y-47669047D01*
%TO.C,Bb1*%
X150864285Y-49428571D02*
X150888095Y-49357142D01*
X150911904Y-49333333D01*
X150959523Y-49309523D01*
X151030952Y-49309523D01*
X151078571Y-49333333D01*
X151102380Y-49357142D01*
X151126190Y-49404761D01*
X151126190Y-49595238D01*
X150626190Y-49595238D01*
X150626190Y-49428571D01*
X150650000Y-49380952D01*
X150673809Y-49357142D01*
X150721428Y-49333333D01*
X150769047Y-49333333D01*
X150816666Y-49357142D01*
X150840476Y-49380952D01*
X150864285Y-49428571D01*
X150864285Y-49595238D01*
X151126190Y-49095238D02*
X150626190Y-49095238D01*
X150816666Y-49095238D02*
X150792857Y-49047619D01*
X150792857Y-48952380D01*
X150816666Y-48904761D01*
X150840476Y-48880952D01*
X150888095Y-48857142D01*
X151030952Y-48857142D01*
X151078571Y-48880952D01*
X151102380Y-48904761D01*
X151126190Y-48952380D01*
X151126190Y-49047619D01*
X151102380Y-49095238D01*
X151126190Y-48380952D02*
X151126190Y-48666666D01*
X151126190Y-48523809D02*
X150626190Y-48523809D01*
X150697619Y-48571428D01*
X150745238Y-48619047D01*
X150769047Y-48666666D01*
%TO.C,J1*%
D12*
X157333333Y-53711904D02*
X157333333Y-54283333D01*
X157295238Y-54397619D01*
X157219047Y-54473809D01*
X157104761Y-54511904D01*
X157028571Y-54511904D01*
X158133333Y-54511904D02*
X157676190Y-54511904D01*
X157904761Y-54511904D02*
X157904761Y-53711904D01*
X157828571Y-53826190D01*
X157752380Y-53902380D01*
X157676190Y-53940476D01*
%TO.C,R7*%
X166866666Y-45611904D02*
X166600000Y-45230952D01*
X166409523Y-45611904D02*
X166409523Y-44811904D01*
X166714285Y-44811904D01*
X166790476Y-44850000D01*
X166828571Y-44888095D01*
X166866666Y-44964285D01*
X166866666Y-45078571D01*
X166828571Y-45154761D01*
X166790476Y-45192857D01*
X166714285Y-45230952D01*
X166409523Y-45230952D01*
X167133333Y-44811904D02*
X167666666Y-44811904D01*
X167323809Y-45611904D01*
%TO.C,R6*%
X168616666Y-45611904D02*
X168350000Y-45230952D01*
X168159523Y-45611904D02*
X168159523Y-44811904D01*
X168464285Y-44811904D01*
X168540476Y-44850000D01*
X168578571Y-44888095D01*
X168616666Y-44964285D01*
X168616666Y-45078571D01*
X168578571Y-45154761D01*
X168540476Y-45192857D01*
X168464285Y-45230952D01*
X168159523Y-45230952D01*
X169302380Y-44811904D02*
X169150000Y-44811904D01*
X169073809Y-44850000D01*
X169035714Y-44888095D01*
X168959523Y-45002380D01*
X168921428Y-45154761D01*
X168921428Y-45459523D01*
X168959523Y-45535714D01*
X168997619Y-45573809D01*
X169073809Y-45611904D01*
X169226190Y-45611904D01*
X169302380Y-45573809D01*
X169340476Y-45535714D01*
X169378571Y-45459523D01*
X169378571Y-45269047D01*
X169340476Y-45192857D01*
X169302380Y-45154761D01*
X169226190Y-45116666D01*
X169073809Y-45116666D01*
X168997619Y-45154761D01*
X168959523Y-45192857D01*
X168921428Y-45269047D01*
%TO.C,R5*%
X170366666Y-45611904D02*
X170100000Y-45230952D01*
X169909523Y-45611904D02*
X169909523Y-44811904D01*
X170214285Y-44811904D01*
X170290476Y-44850000D01*
X170328571Y-44888095D01*
X170366666Y-44964285D01*
X170366666Y-45078571D01*
X170328571Y-45154761D01*
X170290476Y-45192857D01*
X170214285Y-45230952D01*
X169909523Y-45230952D01*
X171090476Y-44811904D02*
X170709523Y-44811904D01*
X170671428Y-45192857D01*
X170709523Y-45154761D01*
X170785714Y-45116666D01*
X170976190Y-45116666D01*
X171052380Y-45154761D01*
X171090476Y-45192857D01*
X171128571Y-45269047D01*
X171128571Y-45459523D01*
X171090476Y-45535714D01*
X171052380Y-45573809D01*
X170976190Y-45611904D01*
X170785714Y-45611904D01*
X170709523Y-45573809D01*
X170671428Y-45535714D01*
%TO.C,R4*%
X167116666Y-39541904D02*
X166850000Y-39160952D01*
X166659523Y-39541904D02*
X166659523Y-38741904D01*
X166964285Y-38741904D01*
X167040476Y-38780000D01*
X167078571Y-38818095D01*
X167116666Y-38894285D01*
X167116666Y-39008571D01*
X167078571Y-39084761D01*
X167040476Y-39122857D01*
X166964285Y-39160952D01*
X166659523Y-39160952D01*
X167802380Y-39008571D02*
X167802380Y-39541904D01*
X167611904Y-38703809D02*
X167421428Y-39275238D01*
X167916666Y-39275238D01*
%TO.C,R3*%
X170116666Y-39541904D02*
X169850000Y-39160952D01*
X169659523Y-39541904D02*
X169659523Y-38741904D01*
X169964285Y-38741904D01*
X170040476Y-38780000D01*
X170078571Y-38818095D01*
X170116666Y-38894285D01*
X170116666Y-39008571D01*
X170078571Y-39084761D01*
X170040476Y-39122857D01*
X169964285Y-39160952D01*
X169659523Y-39160952D01*
X170383333Y-38741904D02*
X170878571Y-38741904D01*
X170611904Y-39046666D01*
X170726190Y-39046666D01*
X170802380Y-39084761D01*
X170840476Y-39122857D01*
X170878571Y-39199047D01*
X170878571Y-39389523D01*
X170840476Y-39465714D01*
X170802380Y-39503809D01*
X170726190Y-39541904D01*
X170497619Y-39541904D01*
X170421428Y-39503809D01*
X170383333Y-39465714D01*
%TO.C,R1*%
X177866666Y-45611904D02*
X177600000Y-45230952D01*
X177409523Y-45611904D02*
X177409523Y-44811904D01*
X177714285Y-44811904D01*
X177790476Y-44850000D01*
X177828571Y-44888095D01*
X177866666Y-44964285D01*
X177866666Y-45078571D01*
X177828571Y-45154761D01*
X177790476Y-45192857D01*
X177714285Y-45230952D01*
X177409523Y-45230952D01*
X178628571Y-45611904D02*
X178171428Y-45611904D01*
X178400000Y-45611904D02*
X178400000Y-44811904D01*
X178323809Y-44926190D01*
X178247619Y-45002380D01*
X178171428Y-45040476D01*
%TO.C,C9*%
D13*
X179333333Y-40857142D02*
X179285714Y-40904761D01*
X179142857Y-40952380D01*
X179047619Y-40952380D01*
X178904761Y-40904761D01*
X178809523Y-40809523D01*
X178761904Y-40714285D01*
X178714285Y-40523809D01*
X178714285Y-40380952D01*
X178761904Y-40190476D01*
X178809523Y-40095238D01*
X178904761Y-40000000D01*
X179047619Y-39952380D01*
X179142857Y-39952380D01*
X179285714Y-40000000D01*
X179333333Y-40047619D01*
X179809523Y-40952380D02*
X180000000Y-40952380D01*
X180095238Y-40904761D01*
X180142857Y-40857142D01*
X180238095Y-40714285D01*
X180285714Y-40523809D01*
X180285714Y-40142857D01*
X180238095Y-40047619D01*
X180190476Y-40000000D01*
X180095238Y-39952380D01*
X179904761Y-39952380D01*
X179809523Y-40000000D01*
X179761904Y-40047619D01*
X179714285Y-40142857D01*
X179714285Y-40380952D01*
X179761904Y-40476190D01*
X179809523Y-40523809D01*
X179904761Y-40571428D01*
X180095238Y-40571428D01*
X180190476Y-40523809D01*
X180238095Y-40476190D01*
X180285714Y-40380952D01*
%TD*%
M02*
