%TF.GenerationSoftware,KiCad,Pcbnew,(6.0.0)*%
%TF.CreationDate,2022-04-23T18:16:10+01:00*%
%TF.ProjectId,pcb I,70636220-492e-46b6-9963-61645f706362,rev?*%
%TF.SameCoordinates,Original*%
%TF.FileFunction,Legend,Top*%
%TF.FilePolarity,Positive*%
%FSLAX46Y46*%
G04 Gerber Fmt 4.6, Leading zero omitted, Abs format (unit mm)*
G04 Created by KiCad (PCBNEW (6.0.0)) date 2022-04-23 18:16:10*
%MOMM*%
%LPD*%
G01*
G04 APERTURE LIST*
%ADD10C,0.150000*%
%ADD11C,0.120000*%
%ADD12C,0.127000*%
G04 APERTURE END LIST*
D10*
X108000000Y-92000000D02*
X108000000Y-94800000D01*
X107700000Y-80300000D02*
X107500000Y-80400000D01*
X109500000Y-91700000D02*
X109100000Y-92400000D01*
X111700000Y-91850000D02*
X112700000Y-91850000D01*
X108000000Y-92000000D02*
X108800000Y-92000000D01*
X110900000Y-94600000D02*
X110700000Y-94800000D01*
X107700000Y-83400000D02*
X107500000Y-83500000D01*
X110900000Y-94600000D02*
X110900000Y-92550000D01*
X107700000Y-81400000D02*
X107500000Y-81500000D01*
X107700000Y-85300000D02*
X107500000Y-85400000D01*
X107700000Y-80000000D02*
X107700000Y-85300000D01*
X110900000Y-92550000D02*
X111700000Y-91850000D01*
%TO.C,R20*%
X111452380Y-90942857D02*
X110976190Y-91276190D01*
X111452380Y-91514285D02*
X110452380Y-91514285D01*
X110452380Y-91133333D01*
X110500000Y-91038095D01*
X110547619Y-90990476D01*
X110642857Y-90942857D01*
X110785714Y-90942857D01*
X110880952Y-90990476D01*
X110928571Y-91038095D01*
X110976190Y-91133333D01*
X110976190Y-91514285D01*
X110547619Y-90561904D02*
X110500000Y-90514285D01*
X110452380Y-90419047D01*
X110452380Y-90180952D01*
X110500000Y-90085714D01*
X110547619Y-90038095D01*
X110642857Y-89990476D01*
X110738095Y-89990476D01*
X110880952Y-90038095D01*
X111452380Y-90609523D01*
X111452380Y-89990476D01*
X110452380Y-89371428D02*
X110452380Y-89276190D01*
X110500000Y-89180952D01*
X110547619Y-89133333D01*
X110642857Y-89085714D01*
X110833333Y-89038095D01*
X111071428Y-89038095D01*
X111261904Y-89085714D01*
X111357142Y-89133333D01*
X111404761Y-89180952D01*
X111452380Y-89276190D01*
X111452380Y-89371428D01*
X111404761Y-89466666D01*
X111357142Y-89514285D01*
X111261904Y-89561904D01*
X111071428Y-89609523D01*
X110833333Y-89609523D01*
X110642857Y-89561904D01*
X110547619Y-89514285D01*
X110500000Y-89466666D01*
X110452380Y-89371428D01*
%TO.C,C75*%
X108757142Y-91042857D02*
X108804761Y-91090476D01*
X108852380Y-91233333D01*
X108852380Y-91328571D01*
X108804761Y-91471428D01*
X108709523Y-91566666D01*
X108614285Y-91614285D01*
X108423809Y-91661904D01*
X108280952Y-91661904D01*
X108090476Y-91614285D01*
X107995238Y-91566666D01*
X107900000Y-91471428D01*
X107852380Y-91328571D01*
X107852380Y-91233333D01*
X107900000Y-91090476D01*
X107947619Y-91042857D01*
X107852380Y-90709523D02*
X107852380Y-90042857D01*
X108852380Y-90471428D01*
X107852380Y-89185714D02*
X107852380Y-89661904D01*
X108328571Y-89709523D01*
X108280952Y-89661904D01*
X108233333Y-89566666D01*
X108233333Y-89328571D01*
X108280952Y-89233333D01*
X108328571Y-89185714D01*
X108423809Y-89138095D01*
X108661904Y-89138095D01*
X108757142Y-89185714D01*
X108804761Y-89233333D01*
X108852380Y-89328571D01*
X108852380Y-89566666D01*
X108804761Y-89661904D01*
X108757142Y-89709523D01*
%TO.C,U3*%
X65988095Y-94052380D02*
X65988095Y-94861904D01*
X66035714Y-94957142D01*
X66083333Y-95004761D01*
X66178571Y-95052380D01*
X66369047Y-95052380D01*
X66464285Y-95004761D01*
X66511904Y-94957142D01*
X66559523Y-94861904D01*
X66559523Y-94052380D01*
X66940476Y-94052380D02*
X67559523Y-94052380D01*
X67226190Y-94433333D01*
X67369047Y-94433333D01*
X67464285Y-94480952D01*
X67511904Y-94528571D01*
X67559523Y-94623809D01*
X67559523Y-94861904D01*
X67511904Y-94957142D01*
X67464285Y-95004761D01*
X67369047Y-95052380D01*
X67083333Y-95052380D01*
X66988095Y-95004761D01*
X66940476Y-94957142D01*
%TO.C,CN20*%
X126633333Y-82757142D02*
X126585714Y-82804761D01*
X126442857Y-82852380D01*
X126347619Y-82852380D01*
X126204761Y-82804761D01*
X126109523Y-82709523D01*
X126061904Y-82614285D01*
X126014285Y-82423809D01*
X126014285Y-82280952D01*
X126061904Y-82090476D01*
X126109523Y-81995238D01*
X126204761Y-81900000D01*
X126347619Y-81852380D01*
X126442857Y-81852380D01*
X126585714Y-81900000D01*
X126633333Y-81947619D01*
X127061904Y-82852380D02*
X127061904Y-81852380D01*
X127633333Y-82852380D01*
X127633333Y-81852380D01*
X128061904Y-81947619D02*
X128109523Y-81900000D01*
X128204761Y-81852380D01*
X128442857Y-81852380D01*
X128538095Y-81900000D01*
X128585714Y-81947619D01*
X128633333Y-82042857D01*
X128633333Y-82138095D01*
X128585714Y-82280952D01*
X128014285Y-82852380D01*
X128633333Y-82852380D01*
X129252380Y-81852380D02*
X129347619Y-81852380D01*
X129442857Y-81900000D01*
X129490476Y-81947619D01*
X129538095Y-82042857D01*
X129585714Y-82233333D01*
X129585714Y-82471428D01*
X129538095Y-82661904D01*
X129490476Y-82757142D01*
X129442857Y-82804761D01*
X129347619Y-82852380D01*
X129252380Y-82852380D01*
X129157142Y-82804761D01*
X129109523Y-82757142D01*
X129061904Y-82661904D01*
X129014285Y-82471428D01*
X129014285Y-82233333D01*
X129061904Y-82042857D01*
X129109523Y-81947619D01*
X129157142Y-81900000D01*
X129252380Y-81852380D01*
%TO.C,R21*%
X110152380Y-90842857D02*
X109676190Y-91176190D01*
X110152380Y-91414285D02*
X109152380Y-91414285D01*
X109152380Y-91033333D01*
X109200000Y-90938095D01*
X109247619Y-90890476D01*
X109342857Y-90842857D01*
X109485714Y-90842857D01*
X109580952Y-90890476D01*
X109628571Y-90938095D01*
X109676190Y-91033333D01*
X109676190Y-91414285D01*
X109247619Y-90461904D02*
X109200000Y-90414285D01*
X109152380Y-90319047D01*
X109152380Y-90080952D01*
X109200000Y-89985714D01*
X109247619Y-89938095D01*
X109342857Y-89890476D01*
X109438095Y-89890476D01*
X109580952Y-89938095D01*
X110152380Y-90509523D01*
X110152380Y-89890476D01*
X110152380Y-88938095D02*
X110152380Y-89509523D01*
X110152380Y-89223809D02*
X109152380Y-89223809D01*
X109295238Y-89319047D01*
X109390476Y-89414285D01*
X109438095Y-89509523D01*
%TO.C,SW1*%
X113904761Y-95433333D02*
X113952380Y-95290476D01*
X113952380Y-95052380D01*
X113904761Y-94957142D01*
X113857142Y-94909523D01*
X113761904Y-94861904D01*
X113666666Y-94861904D01*
X113571428Y-94909523D01*
X113523809Y-94957142D01*
X113476190Y-95052380D01*
X113428571Y-95242857D01*
X113380952Y-95338095D01*
X113333333Y-95385714D01*
X113238095Y-95433333D01*
X113142857Y-95433333D01*
X113047619Y-95385714D01*
X113000000Y-95338095D01*
X112952380Y-95242857D01*
X112952380Y-95004761D01*
X113000000Y-94861904D01*
X112952380Y-94528571D02*
X113952380Y-94290476D01*
X113238095Y-94100000D01*
X113952380Y-93909523D01*
X112952380Y-93671428D01*
X113952380Y-92766666D02*
X113952380Y-93338095D01*
X113952380Y-93052380D02*
X112952380Y-93052380D01*
X113095238Y-93147619D01*
X113190476Y-93242857D01*
X113238095Y-93338095D01*
%TO.C,U2*%
X97838095Y-85652380D02*
X97838095Y-86461904D01*
X97885714Y-86557142D01*
X97933333Y-86604761D01*
X98028571Y-86652380D01*
X98219047Y-86652380D01*
X98314285Y-86604761D01*
X98361904Y-86557142D01*
X98409523Y-86461904D01*
X98409523Y-85652380D01*
X98838095Y-85747619D02*
X98885714Y-85700000D01*
X98980952Y-85652380D01*
X99219047Y-85652380D01*
X99314285Y-85700000D01*
X99361904Y-85747619D01*
X99409523Y-85842857D01*
X99409523Y-85938095D01*
X99361904Y-86080952D01*
X98790476Y-86652380D01*
X99409523Y-86652380D01*
%TO.C,X10*%
X103084568Y-85668039D02*
X104025790Y-85040558D01*
X103084568Y-85040558D02*
X104025790Y-85668039D01*
X104025790Y-84188976D02*
X104025790Y-84726817D01*
X104025790Y-84457897D02*
X103084568Y-84457897D01*
X103219029Y-84547537D01*
X103308669Y-84637177D01*
X103353489Y-84726817D01*
X103084568Y-83606315D02*
X103084568Y-83516675D01*
X103129389Y-83427034D01*
X103174209Y-83382214D01*
X103263849Y-83337394D01*
X103443129Y-83292574D01*
X103667230Y-83292574D01*
X103846510Y-83337394D01*
X103936150Y-83382214D01*
X103980970Y-83427034D01*
X104025790Y-83516675D01*
X104025790Y-83606315D01*
X103980970Y-83695955D01*
X103936150Y-83740775D01*
X103846510Y-83785595D01*
X103667230Y-83830415D01*
X103443129Y-83830415D01*
X103263849Y-83785595D01*
X103174209Y-83740775D01*
X103129389Y-83695955D01*
X103084568Y-83606315D01*
%TO.C,C21*%
X112657142Y-90842857D02*
X112704761Y-90890476D01*
X112752380Y-91033333D01*
X112752380Y-91128571D01*
X112704761Y-91271428D01*
X112609523Y-91366666D01*
X112514285Y-91414285D01*
X112323809Y-91461904D01*
X112180952Y-91461904D01*
X111990476Y-91414285D01*
X111895238Y-91366666D01*
X111800000Y-91271428D01*
X111752380Y-91128571D01*
X111752380Y-91033333D01*
X111800000Y-90890476D01*
X111847619Y-90842857D01*
X111847619Y-90461904D02*
X111800000Y-90414285D01*
X111752380Y-90319047D01*
X111752380Y-90080952D01*
X111800000Y-89985714D01*
X111847619Y-89938095D01*
X111942857Y-89890476D01*
X112038095Y-89890476D01*
X112180952Y-89938095D01*
X112752380Y-90509523D01*
X112752380Y-89890476D01*
X112752380Y-88938095D02*
X112752380Y-89509523D01*
X112752380Y-89223809D02*
X111752380Y-89223809D01*
X111895238Y-89319047D01*
X111990476Y-89414285D01*
X112038095Y-89509523D01*
%TO.C,D10*%
X113285714Y-90447380D02*
X113285714Y-89447380D01*
X113523809Y-89447380D01*
X113666666Y-89495000D01*
X113761904Y-89590238D01*
X113809523Y-89685476D01*
X113857142Y-89875952D01*
X113857142Y-90018809D01*
X113809523Y-90209285D01*
X113761904Y-90304523D01*
X113666666Y-90399761D01*
X113523809Y-90447380D01*
X113285714Y-90447380D01*
X114809523Y-90447380D02*
X114238095Y-90447380D01*
X114523809Y-90447380D02*
X114523809Y-89447380D01*
X114428571Y-89590238D01*
X114333333Y-89685476D01*
X114238095Y-89733095D01*
X115428571Y-89447380D02*
X115523809Y-89447380D01*
X115619047Y-89495000D01*
X115666666Y-89542619D01*
X115714285Y-89637857D01*
X115761904Y-89828333D01*
X115761904Y-90066428D01*
X115714285Y-90256904D01*
X115666666Y-90352142D01*
X115619047Y-90399761D01*
X115523809Y-90447380D01*
X115428571Y-90447380D01*
X115333333Y-90399761D01*
X115285714Y-90352142D01*
X115238095Y-90256904D01*
X115190476Y-90066428D01*
X115190476Y-89828333D01*
X115238095Y-89637857D01*
X115285714Y-89542619D01*
X115333333Y-89495000D01*
X115428571Y-89447380D01*
%TO.C,U1*%
X116338095Y-81852380D02*
X116338095Y-82661904D01*
X116385714Y-82757142D01*
X116433333Y-82804761D01*
X116528571Y-82852380D01*
X116719047Y-82852380D01*
X116814285Y-82804761D01*
X116861904Y-82757142D01*
X116909523Y-82661904D01*
X116909523Y-81852380D01*
X117909523Y-82852380D02*
X117338095Y-82852380D01*
X117623809Y-82852380D02*
X117623809Y-81852380D01*
X117528571Y-81995238D01*
X117433333Y-82090476D01*
X117338095Y-82138095D01*
D11*
%TO.C,R20*%
X110455000Y-92671359D02*
X110455000Y-92978641D01*
X109695000Y-92671359D02*
X109695000Y-92978641D01*
%TO.C,TP71*%
X99700000Y-82600000D02*
G75*
G03*
X99700000Y-82600000I-700000J0D01*
G01*
%TO.C,TP32*%
X100700000Y-84400000D02*
G75*
G03*
X100700000Y-84400000I-700000J0D01*
G01*
%TO.C,TP30*%
X103800000Y-82600000D02*
G75*
G03*
X103800000Y-82600000I-700000J0D01*
G01*
%TO.C,C76*%
X107360000Y-85892164D02*
X107360000Y-86107836D01*
X106640000Y-85892164D02*
X106640000Y-86107836D01*
%TO.C,TP33*%
X100666666Y-80800000D02*
G75*
G03*
X100666666Y-80800000I-700000J0D01*
G01*
%TO.C,C13*%
X107185000Y-83917164D02*
X107185000Y-84132836D01*
X106465000Y-83917164D02*
X106465000Y-84132836D01*
%TO.C,C75*%
X107742164Y-94915000D02*
X107957836Y-94915000D01*
X107742164Y-95635000D02*
X107957836Y-95635000D01*
%TO.C,TP34*%
X102733332Y-80800000D02*
G75*
G03*
X102733332Y-80800000I-700000J0D01*
G01*
%TO.C,TP70*%
X104800000Y-80800000D02*
G75*
G03*
X104800000Y-80800000I-700000J0D01*
G01*
%TO.C,U3*%
X65000000Y-95500000D02*
X65000000Y-80500000D01*
X79000000Y-86600000D02*
X79000000Y-81600000D01*
X65000000Y-80500000D02*
X97000000Y-80500000D01*
X97000000Y-95500000D02*
X65000000Y-95500000D01*
X79000000Y-81600000D02*
X75000000Y-81600000D01*
X75000000Y-86600000D02*
X79000000Y-86600000D01*
X75000000Y-95500000D02*
X75000000Y-80500000D01*
X97000000Y-80500000D02*
X97000000Y-95500000D01*
X71500000Y-95500000D02*
G75*
G03*
X70500000Y-95500000I-500000J0D01*
G01*
X75200000Y-96100000D02*
G75*
G03*
X75200000Y-96100000I-200000J0D01*
G01*
%TO.C,CN20*%
X116645000Y-95285000D02*
X116645000Y-93475000D01*
X116755000Y-95285000D02*
X116645000Y-95285000D01*
X116645000Y-91575000D02*
X116645000Y-85275000D01*
X129515000Y-90875000D02*
X129515000Y-85275000D01*
X129515000Y-94125000D02*
X129515000Y-95285000D01*
X129515000Y-95285000D02*
X118255000Y-95285000D01*
%TO.C,R21*%
X108420000Y-93346359D02*
X108420000Y-93653641D01*
X109180000Y-93346359D02*
X109180000Y-93653641D01*
%TO.C,TP31*%
X102800000Y-84400000D02*
G75*
G03*
X102800000Y-84400000I-700000J0D01*
G01*
%TO.C,SW1*%
X115800000Y-92600000D02*
X111400000Y-92600000D01*
X111400000Y-95700000D02*
X115800000Y-95700000D01*
X115800000Y-94200000D02*
X115800000Y-94100000D01*
X111400000Y-94200000D02*
X111400000Y-94100000D01*
%TO.C,C10*%
X106707836Y-80215000D02*
X106492164Y-80215000D01*
X106707836Y-80935000D02*
X106492164Y-80935000D01*
%TO.C,C30*%
X98140000Y-94892164D02*
X98140000Y-95107836D01*
X98860000Y-94892164D02*
X98860000Y-95107836D01*
%TO.C,U2*%
X105910000Y-94360000D02*
X106360000Y-94360000D01*
X99140000Y-87590000D02*
X97850000Y-87590000D01*
X106360000Y-87140000D02*
X106360000Y-87590000D01*
X99140000Y-87140000D02*
X99140000Y-87590000D01*
X99590000Y-87140000D02*
X99140000Y-87140000D01*
X99140000Y-94360000D02*
X99140000Y-93910000D01*
X99590000Y-94360000D02*
X99140000Y-94360000D01*
X106360000Y-94360000D02*
X106360000Y-93910000D01*
X105910000Y-87140000D02*
X106360000Y-87140000D01*
D12*
%TO.C,X10*%
X105500000Y-82600000D02*
X105500000Y-84600000D01*
X105300000Y-84900000D02*
X105000000Y-84900000D01*
X104400000Y-84976400D02*
X104400000Y-82316200D01*
X105000000Y-82300000D02*
X105200000Y-82300000D01*
X104716200Y-82000000D02*
X105517200Y-82000000D01*
X104700000Y-84700000D02*
X104700000Y-82600000D01*
X105517200Y-85200000D02*
X104623600Y-85200000D01*
X105800000Y-82282800D02*
X105800000Y-84917200D01*
X105499999Y-82600001D02*
G75*
G03*
X105200000Y-82300000I-300000J1D01*
G01*
X105800000Y-82282800D02*
G75*
G03*
X105517200Y-82000000I-282799J1D01*
G01*
X105517200Y-85200000D02*
G75*
G03*
X105800000Y-84917200I1J282799D01*
G01*
X104400000Y-84976400D02*
G75*
G03*
X104623600Y-85200000I223600J0D01*
G01*
X104700001Y-84699999D02*
G75*
G03*
X105000000Y-84900000I249932J49897D01*
G01*
X104716200Y-82000000D02*
G75*
G03*
X104400000Y-82316200I1J-316201D01*
G01*
X105299999Y-84900000D02*
G75*
G03*
X105500000Y-84600000I-49999J250000D01*
G01*
X105000000Y-82300000D02*
G75*
G03*
X104700000Y-82600000I99J-300099D01*
G01*
D11*
%TO.C,TP73*%
X98600000Y-80800000D02*
G75*
G03*
X98600000Y-80800000I-700000J0D01*
G01*
%TO.C,C12*%
X106465000Y-82157836D02*
X106465000Y-81942164D01*
X107185000Y-82157836D02*
X107185000Y-81942164D01*
%TO.C,C21*%
X110435000Y-94742164D02*
X110435000Y-94957836D01*
X109715000Y-94742164D02*
X109715000Y-94957836D01*
%TO.C,D10*%
X113015000Y-92160000D02*
X115300000Y-92160000D01*
X113015000Y-90690000D02*
X113015000Y-92160000D01*
X115300000Y-90690000D02*
X113015000Y-90690000D01*
%TO.C,TP72*%
X101750000Y-82600000D02*
G75*
G03*
X101750000Y-82600000I-700000J0D01*
G01*
%TO.C,U1*%
X115160000Y-81127500D02*
X115635000Y-81127500D01*
X115635000Y-81127500D02*
X115635000Y-81602500D01*
X108890000Y-81127500D02*
X108415000Y-81127500D01*
X115635000Y-88347500D02*
X115635000Y-87872500D01*
X108890000Y-88347500D02*
X108415000Y-88347500D01*
X108415000Y-88347500D02*
X108415000Y-87872500D01*
X115160000Y-88347500D02*
X115635000Y-88347500D01*
%TD*%
M02*
