%TF.GenerationSoftware,KiCad,Pcbnew,(6.0.0)*%
%TF.CreationDate,2022-04-23T18:16:10+01:00*%
%TF.ProjectId,pcb I,70636220-492e-46b6-9963-61645f706362,rev?*%
%TF.SameCoordinates,Original*%
%TF.FileFunction,Paste,Top*%
%TF.FilePolarity,Positive*%
%FSLAX46Y46*%
G04 Gerber Fmt 4.6, Leading zero omitted, Abs format (unit mm)*
G04 Created by KiCad (PCBNEW (6.0.0)) date 2022-04-23 18:16:10*
%MOMM*%
%LPD*%
G01*
G04 APERTURE LIST*
G04 Aperture macros list*
%AMRoundRect*
0 Rectangle with rounded corners*
0 $1 Rounding radius*
0 $2 $3 $4 $5 $6 $7 $8 $9 X,Y pos of 4 corners*
0 Add a 4 corners polygon primitive as box body*
4,1,4,$2,$3,$4,$5,$6,$7,$8,$9,$2,$3,0*
0 Add four circle primitives for the rounded corners*
1,1,$1+$1,$2,$3*
1,1,$1+$1,$4,$5*
1,1,$1+$1,$6,$7*
1,1,$1+$1,$8,$9*
0 Add four rect primitives between the rounded corners*
20,1,$1+$1,$2,$3,$4,$5,0*
20,1,$1+$1,$4,$5,$6,$7,0*
20,1,$1+$1,$6,$7,$8,$9,0*
20,1,$1+$1,$8,$9,$2,$3,0*%
G04 Aperture macros list end*
%ADD10RoundRect,0.135000X-0.185000X0.135000X-0.185000X-0.135000X0.185000X-0.135000X0.185000X0.135000X0*%
%ADD11RoundRect,0.140000X-0.170000X0.140000X-0.170000X-0.140000X0.170000X-0.140000X0.170000X0.140000X0*%
%ADD12RoundRect,0.140000X-0.140000X-0.170000X0.140000X-0.170000X0.140000X0.170000X-0.140000X0.170000X0*%
%ADD13R,0.600000X1.500000*%
%ADD14R,1.500000X0.600000*%
%ADD15R,0.760000X2.790000*%
%ADD16R,1.780000X1.780000*%
%ADD17R,0.700000X1.750000*%
%ADD18R,1.450000X1.000000*%
%ADD19R,1.000000X1.550000*%
%ADD20R,0.800000X1.400000*%
%ADD21R,1.500000X1.500000*%
%ADD22R,1.300000X1.500000*%
%ADD23R,0.800000X1.500000*%
%ADD24R,0.900000X1.000000*%
%ADD25RoundRect,0.140000X0.140000X0.170000X-0.140000X0.170000X-0.140000X-0.170000X0.140000X-0.170000X0*%
%ADD26RoundRect,0.075000X-0.662500X-0.075000X0.662500X-0.075000X0.662500X0.075000X-0.662500X0.075000X0*%
%ADD27RoundRect,0.075000X-0.075000X-0.662500X0.075000X-0.662500X0.075000X0.662500X-0.075000X0.662500X0*%
%ADD28R,1.900000X1.100000*%
%ADD29RoundRect,0.140000X0.170000X-0.140000X0.170000X0.140000X-0.170000X0.140000X-0.170000X-0.140000X0*%
%ADD30RoundRect,0.218750X-0.218750X-0.256250X0.218750X-0.256250X0.218750X0.256250X-0.218750X0.256250X0*%
%ADD31RoundRect,0.250000X-0.435000X-0.435000X0.435000X-0.435000X0.435000X0.435000X-0.435000X0.435000X0*%
%ADD32RoundRect,0.062500X-0.375000X-0.062500X0.375000X-0.062500X0.375000X0.062500X-0.375000X0.062500X0*%
%ADD33RoundRect,0.062500X-0.062500X-0.375000X0.062500X-0.375000X0.062500X0.375000X-0.062500X0.375000X0*%
G04 APERTURE END LIST*
D10*
%TO.C,R20*%
X110075000Y-92315000D03*
X110075000Y-93335000D03*
%TD*%
D11*
%TO.C,C76*%
X107000000Y-85520000D03*
X107000000Y-86480000D03*
%TD*%
%TO.C,C13*%
X106825000Y-83545000D03*
X106825000Y-84505000D03*
%TD*%
D12*
%TO.C,C75*%
X107370000Y-95275000D03*
X108330000Y-95275000D03*
%TD*%
D13*
%TO.C,U3*%
X76100000Y-95250000D03*
X77100000Y-95250000D03*
X78100000Y-95250000D03*
X79100000Y-95250000D03*
X80100000Y-95250000D03*
X81100000Y-95250000D03*
X82100000Y-95250000D03*
X83100000Y-95250000D03*
X84100000Y-95250000D03*
X85100000Y-95250000D03*
X86100000Y-95250000D03*
X87100000Y-95250000D03*
X88100000Y-95250000D03*
X89100000Y-95250000D03*
X90100000Y-95250000D03*
X91100000Y-95250000D03*
X92100000Y-95250000D03*
X93100000Y-95250000D03*
X94100000Y-95250000D03*
X95100000Y-95250000D03*
D14*
X96750000Y-92500000D03*
X96750000Y-91500000D03*
X96750000Y-90500000D03*
X96750000Y-89500000D03*
X96750000Y-88500000D03*
X96750000Y-87500000D03*
X96750000Y-86500000D03*
X96750000Y-85500000D03*
X96750000Y-84500000D03*
X96750000Y-83500000D03*
D13*
X95100000Y-80750000D03*
X94100000Y-80750000D03*
X93100000Y-80750000D03*
X92100000Y-80750000D03*
X91100000Y-80750000D03*
X90100000Y-80750000D03*
X89100000Y-80750000D03*
X88100000Y-80750000D03*
X87100000Y-80750000D03*
X86100000Y-80750000D03*
X85100000Y-80750000D03*
X84100000Y-80750000D03*
X83100000Y-80750000D03*
X82100000Y-80750000D03*
X81100000Y-80750000D03*
X80100000Y-80750000D03*
X79100000Y-80750000D03*
X78100000Y-80750000D03*
X77100000Y-80750000D03*
D15*
X76420000Y-91540000D03*
D13*
X76100000Y-80750000D03*
D16*
X86530000Y-83480000D03*
%TD*%
D17*
%TO.C,CN20*%
X119905000Y-84150000D03*
X121005000Y-84150000D03*
X122105000Y-84150000D03*
X123205000Y-84150000D03*
X124305000Y-84150000D03*
X125405000Y-84150000D03*
X126505000Y-84150000D03*
X127605000Y-84150000D03*
D18*
X128730000Y-93375000D03*
D19*
X117505000Y-94950000D03*
D20*
X117105000Y-92525000D03*
D21*
X117455000Y-84275000D03*
D22*
X128805000Y-84275000D03*
D23*
X129055000Y-91875000D03*
%TD*%
D10*
%TO.C,R21*%
X108800000Y-92990000D03*
X108800000Y-94010000D03*
%TD*%
D24*
%TO.C,SW1*%
X111550000Y-93350000D03*
X115650000Y-93350000D03*
X115650000Y-94950000D03*
X111550000Y-94950000D03*
%TD*%
D25*
%TO.C,C10*%
X107080000Y-80575000D03*
X106120000Y-80575000D03*
%TD*%
D11*
%TO.C,C30*%
X98500000Y-94520000D03*
X98500000Y-95480000D03*
%TD*%
D26*
%TO.C,U2*%
X98587500Y-88000000D03*
X98587500Y-88500000D03*
X98587500Y-89000000D03*
X98587500Y-89500000D03*
X98587500Y-90000000D03*
X98587500Y-90500000D03*
X98587500Y-91000000D03*
X98587500Y-91500000D03*
X98587500Y-92000000D03*
X98587500Y-92500000D03*
X98587500Y-93000000D03*
X98587500Y-93500000D03*
D27*
X100000000Y-94912500D03*
X100500000Y-94912500D03*
X101000000Y-94912500D03*
X101500000Y-94912500D03*
X102000000Y-94912500D03*
X102500000Y-94912500D03*
X103000000Y-94912500D03*
X103500000Y-94912500D03*
X104000000Y-94912500D03*
X104500000Y-94912500D03*
X105000000Y-94912500D03*
X105500000Y-94912500D03*
D26*
X106912500Y-93500000D03*
X106912500Y-93000000D03*
X106912500Y-92500000D03*
X106912500Y-92000000D03*
X106912500Y-91500000D03*
X106912500Y-91000000D03*
X106912500Y-90500000D03*
X106912500Y-90000000D03*
X106912500Y-89500000D03*
X106912500Y-89000000D03*
X106912500Y-88500000D03*
X106912500Y-88000000D03*
D27*
X105500000Y-86587500D03*
X105000000Y-86587500D03*
X104500000Y-86587500D03*
X104000000Y-86587500D03*
X103500000Y-86587500D03*
X103000000Y-86587500D03*
X102500000Y-86587500D03*
X102000000Y-86587500D03*
X101500000Y-86587500D03*
X101000000Y-86587500D03*
X100500000Y-86587500D03*
X100000000Y-86587500D03*
%TD*%
D28*
%TO.C,X10*%
X105100000Y-82400000D03*
X105100000Y-84800000D03*
%TD*%
D29*
%TO.C,C12*%
X106825000Y-82530000D03*
X106825000Y-81570000D03*
%TD*%
D11*
%TO.C,C21*%
X110075000Y-94370000D03*
X110075000Y-95330000D03*
%TD*%
D30*
%TO.C,D10*%
X113712500Y-91425000D03*
X115287500Y-91425000D03*
%TD*%
D31*
%TO.C,U1*%
X112025000Y-86437500D03*
X110325000Y-84737500D03*
X112025000Y-84737500D03*
X113725000Y-86437500D03*
X112025000Y-83037500D03*
X110325000Y-86437500D03*
X110325000Y-83037500D03*
X113725000Y-84737500D03*
X113725000Y-83037500D03*
D32*
X108587500Y-81987500D03*
X108587500Y-82487500D03*
X108587500Y-82987500D03*
X108587500Y-83487500D03*
X108587500Y-83987500D03*
X108587500Y-84487500D03*
X108587500Y-84987500D03*
X108587500Y-85487500D03*
X108587500Y-85987500D03*
X108587500Y-86487500D03*
X108587500Y-86987500D03*
X108587500Y-87487500D03*
D33*
X109275000Y-88175000D03*
X109775000Y-88175000D03*
X110275000Y-88175000D03*
X110775000Y-88175000D03*
X111275000Y-88175000D03*
X111775000Y-88175000D03*
X112275000Y-88175000D03*
X112775000Y-88175000D03*
X113275000Y-88175000D03*
X113775000Y-88175000D03*
X114275000Y-88175000D03*
X114775000Y-88175000D03*
D32*
X115462500Y-87487500D03*
X115462500Y-86987500D03*
X115462500Y-86487500D03*
X115462500Y-85987500D03*
X115462500Y-85487500D03*
X115462500Y-84987500D03*
X115462500Y-84487500D03*
X115462500Y-83987500D03*
X115462500Y-83487500D03*
X115462500Y-82987500D03*
X115462500Y-82487500D03*
X115462500Y-81987500D03*
D33*
X114775000Y-81300000D03*
X114275000Y-81300000D03*
X113775000Y-81300000D03*
X113275000Y-81300000D03*
X112775000Y-81300000D03*
X112275000Y-81300000D03*
X111775000Y-81300000D03*
X111275000Y-81300000D03*
X110775000Y-81300000D03*
X110275000Y-81300000D03*
X109775000Y-81300000D03*
X109275000Y-81300000D03*
%TD*%
M02*
