%TF.GenerationSoftware,KiCad,Pcbnew,(6.0.0)*%
%TF.CreationDate,2022-04-23T18:16:10+01:00*%
%TF.ProjectId,pcb I,70636220-492e-46b6-9963-61645f706362,rev?*%
%TF.SameCoordinates,Original*%
%TF.FileFunction,Copper,L4,Bot*%
%TF.FilePolarity,Positive*%
%FSLAX46Y46*%
G04 Gerber Fmt 4.6, Leading zero omitted, Abs format (unit mm)*
G04 Created by KiCad (PCBNEW (6.0.0)) date 2022-04-23 18:16:10*
%MOMM*%
%LPD*%
G01*
G04 APERTURE LIST*
G04 Aperture macros list*
%AMRoundRect*
0 Rectangle with rounded corners*
0 $1 Rounding radius*
0 $2 $3 $4 $5 $6 $7 $8 $9 X,Y pos of 4 corners*
0 Add a 4 corners polygon primitive as box body*
4,1,4,$2,$3,$4,$5,$6,$7,$8,$9,$2,$3,0*
0 Add four circle primitives for the rounded corners*
1,1,$1+$1,$2,$3*
1,1,$1+$1,$4,$5*
1,1,$1+$1,$6,$7*
1,1,$1+$1,$8,$9*
0 Add four rect primitives between the rounded corners*
20,1,$1+$1,$2,$3,$4,$5,0*
20,1,$1+$1,$4,$5,$6,$7,0*
20,1,$1+$1,$6,$7,$8,$9,0*
20,1,$1+$1,$8,$9,$2,$3,0*%
G04 Aperture macros list end*
%TA.AperFunction,SMDPad,CuDef*%
%ADD10RoundRect,0.218750X-0.218750X-0.256250X0.218750X-0.256250X0.218750X0.256250X-0.218750X0.256250X0*%
%TD*%
%TA.AperFunction,SMDPad,CuDef*%
%ADD11RoundRect,0.250000X-0.262500X-0.450000X0.262500X-0.450000X0.262500X0.450000X-0.262500X0.450000X0*%
%TD*%
%TA.AperFunction,SMDPad,CuDef*%
%ADD12R,1.400000X1.200000*%
%TD*%
%TA.AperFunction,SMDPad,CuDef*%
%ADD13RoundRect,0.135000X0.185000X-0.135000X0.185000X0.135000X-0.185000X0.135000X-0.185000X-0.135000X0*%
%TD*%
%TA.AperFunction,SMDPad,CuDef*%
%ADD14RoundRect,0.140000X0.170000X-0.140000X0.170000X0.140000X-0.170000X0.140000X-0.170000X-0.140000X0*%
%TD*%
%TA.AperFunction,SMDPad,CuDef*%
%ADD15RoundRect,0.135000X-0.135000X-0.185000X0.135000X-0.185000X0.135000X0.185000X-0.135000X0.185000X0*%
%TD*%
%TA.AperFunction,SMDPad,CuDef*%
%ADD16RoundRect,0.135000X-0.185000X0.135000X-0.185000X-0.135000X0.185000X-0.135000X0.185000X0.135000X0*%
%TD*%
%TA.AperFunction,SMDPad,CuDef*%
%ADD17R,0.900000X1.200000*%
%TD*%
%TA.AperFunction,SMDPad,CuDef*%
%ADD18R,0.400000X1.350000*%
%TD*%
%TA.AperFunction,SMDPad,CuDef*%
%ADD19R,1.500000X1.900000*%
%TD*%
%TA.AperFunction,ComponentPad*%
%ADD20C,1.450000*%
%TD*%
%TA.AperFunction,SMDPad,CuDef*%
%ADD21R,1.200000X1.900000*%
%TD*%
%TA.AperFunction,ComponentPad*%
%ADD22O,1.200000X1.900000*%
%TD*%
%TA.AperFunction,SMDPad,CuDef*%
%ADD23RoundRect,0.250000X0.262500X0.450000X-0.262500X0.450000X-0.262500X-0.450000X0.262500X-0.450000X0*%
%TD*%
%TA.AperFunction,SMDPad,CuDef*%
%ADD24RoundRect,0.140000X-0.170000X0.140000X-0.170000X-0.140000X0.170000X-0.140000X0.170000X0.140000X0*%
%TD*%
%TA.AperFunction,SMDPad,CuDef*%
%ADD25R,0.406400X0.939800*%
%TD*%
%TA.AperFunction,SMDPad,CuDef*%
%ADD26R,1.295400X0.355600*%
%TD*%
%TA.AperFunction,SMDPad,CuDef*%
%ADD27R,0.355600X2.311400*%
%TD*%
%TA.AperFunction,SMDPad,CuDef*%
%ADD28RoundRect,0.140000X-0.140000X-0.170000X0.140000X-0.170000X0.140000X0.170000X-0.140000X0.170000X0*%
%TD*%
%TA.AperFunction,SMDPad,CuDef*%
%ADD29RoundRect,0.150000X0.512500X0.150000X-0.512500X0.150000X-0.512500X-0.150000X0.512500X-0.150000X0*%
%TD*%
%TA.AperFunction,SMDPad,CuDef*%
%ADD30RoundRect,0.150000X-0.512500X-0.150000X0.512500X-0.150000X0.512500X0.150000X-0.512500X0.150000X0*%
%TD*%
%TA.AperFunction,SMDPad,CuDef*%
%ADD31R,1.600000X0.300000*%
%TD*%
%TA.AperFunction,SMDPad,CuDef*%
%ADD32RoundRect,0.140000X0.140000X0.170000X-0.140000X0.170000X-0.140000X-0.170000X0.140000X-0.170000X0*%
%TD*%
%TA.AperFunction,ViaPad*%
%ADD33C,0.400000*%
%TD*%
%TA.AperFunction,ViaPad*%
%ADD34C,0.800000*%
%TD*%
%TA.AperFunction,Conductor*%
%ADD35C,0.127000*%
%TD*%
%TA.AperFunction,Conductor*%
%ADD36C,0.254000*%
%TD*%
%TA.AperFunction,Conductor*%
%ADD37C,0.508000*%
%TD*%
%TA.AperFunction,Conductor*%
%ADD38C,0.200000*%
%TD*%
G04 APERTURE END LIST*
D10*
%TO.P,CHG1,1,C*%
%TO.N,Net-(CHG1-Pad1)*%
X89212500Y-95200000D03*
%TO.P,CHG1,2,A*%
%TO.N,/CHRG_STAT*%
X90787500Y-95200000D03*
%TD*%
D11*
%TO.P,FB70,1,P$1*%
%TO.N,GND*%
X100000000Y-88720000D03*
%TO.P,FB70,2,P$2*%
%TO.N,GNDA*%
X101825000Y-88720000D03*
%TD*%
D12*
%TO.P,X20,1,1*%
%TO.N,Net-(C22-Pad1)*%
X105200000Y-94800000D03*
%TO.P,X20,2,2*%
%TO.N,Net-(C23-Pad1)*%
X103000000Y-93200000D03*
%TO.P,X20,GND1*%
%TO.N,N/C*%
X105200000Y-93200000D03*
%TO.P,X20,GND2*%
X103000000Y-94800000D03*
%TD*%
D13*
%TO.P,R25,1,1*%
%TO.N,GND*%
X110290000Y-94160000D03*
%TO.P,R25,2,2*%
%TO.N,/GPIO0*%
X110290000Y-93140000D03*
%TD*%
D14*
%TO.P,C22,1,1*%
%TO.N,Net-(C22-Pad1)*%
X106600000Y-94780000D03*
%TO.P,C22,2,2*%
%TO.N,GND*%
X106600000Y-93820000D03*
%TD*%
D13*
%TO.P,R26,1,1*%
%TO.N,GND*%
X111450000Y-94160000D03*
%TO.P,R26,2,2*%
%TO.N,/GPIO1*%
X111450000Y-93140000D03*
%TD*%
D15*
%TO.P,R72,1,1*%
%TO.N,+3V3*%
X89190000Y-93800000D03*
%TO.P,R72,2,2*%
%TO.N,/CHRG_STAT*%
X90210000Y-93800000D03*
%TD*%
D16*
%TO.P,R70,1,1*%
%TO.N,/A4*%
X87700000Y-94180000D03*
%TO.P,R70,2,2*%
%TO.N,GND*%
X87700000Y-95200000D03*
%TD*%
D14*
%TO.P,C74,1,1*%
%TO.N,+3V3*%
X82100000Y-91380000D03*
%TO.P,C74,2,2*%
%TO.N,GND*%
X82100000Y-90420000D03*
%TD*%
D17*
%TO.P,D71,1,C*%
%TO.N,VBUS*%
X92150000Y-88300000D03*
%TO.P,D71,2,A*%
%TO.N,+BATT*%
X88850000Y-88300000D03*
%TD*%
D18*
%TO.P,CN70,1,VBUS*%
%TO.N,Net-(CN70-Pad1)*%
X124300000Y-91900000D03*
%TO.P,CN70,2,D+*%
%TO.N,/D+*%
X123650000Y-91900000D03*
%TO.P,CN70,3,D-*%
%TO.N,/D-*%
X123000000Y-91900000D03*
%TO.P,CN70,4,ID*%
%TO.N,unconnected-(CN70-Pad4)*%
X122350000Y-91900000D03*
%TO.P,CN70,5,GND*%
%TO.N,GND*%
X121700000Y-91900000D03*
D19*
%TO.P,CN70,6,GND*%
X122000000Y-94600000D03*
D20*
X120500000Y-91900000D03*
D21*
X120100000Y-94600000D03*
D19*
X124000000Y-94600000D03*
D22*
X119500000Y-94600000D03*
D20*
X125500000Y-91900000D03*
D22*
X126500000Y-94600000D03*
D21*
X125900000Y-94600000D03*
%TD*%
D13*
%TO.P,R24,1,1*%
%TO.N,+3.3VA*%
X114150000Y-94160000D03*
%TO.P,R24,2,2*%
%TO.N,/D5*%
X114150000Y-93140000D03*
%TD*%
D16*
%TO.P,R73,1,1*%
%TO.N,Net-(R73-Pad1)*%
X92200000Y-93790000D03*
%TO.P,R73,2,2*%
%TO.N,GND*%
X92200000Y-94810000D03*
%TD*%
D23*
%TO.P,FB71,1,P$1*%
%TO.N,+3.3VA*%
X107425000Y-88900000D03*
%TO.P,FB71,2,P$2*%
%TO.N,VDDA*%
X105600000Y-88900000D03*
%TD*%
D24*
%TO.P,C71,1,1*%
%TO.N,VBUS*%
X87500000Y-88120000D03*
%TO.P,C71,2,2*%
%TO.N,GND*%
X87500000Y-89080000D03*
%TD*%
D13*
%TO.P,R23,1,1*%
%TO.N,+3.3VA*%
X113020000Y-94160000D03*
%TO.P,R23,2,2*%
%TO.N,/D6*%
X113020000Y-93140000D03*
%TD*%
D25*
%TO.P,U9,1,VDD*%
%TO.N,+3V3*%
X78214792Y-94176275D03*
%TO.P,U9,2,LR*%
X78214792Y-92823725D03*
%TO.P,U9,3,CLK*%
%TO.N,/DMIC1_CLK*%
X79116492Y-92823725D03*
%TO.P,U9,4,DOUT*%
%TO.N,/DMIC1_L*%
X79116492Y-94176275D03*
D26*
%TO.P,U9,5,GND*%
%TO.N,GND*%
X78665642Y-95227200D03*
%TO.P,U9,6,GND*%
X78665642Y-91772800D03*
D27*
%TO.P,U9,7,GND*%
X77440092Y-93500000D03*
%TO.P,U9,8,GND*%
X79891192Y-93500000D03*
%TD*%
D17*
%TO.P,D72,1,C*%
%TO.N,VBUS*%
X127850000Y-88400000D03*
%TO.P,D72,2,A*%
%TO.N,Net-(CN70-Pad1)*%
X124550000Y-88400000D03*
%TD*%
D24*
%TO.P,C23,1,1*%
%TO.N,Net-(C23-Pad1)*%
X100000000Y-94420000D03*
%TO.P,C23,2,2*%
%TO.N,GND*%
X100000000Y-95380000D03*
%TD*%
D28*
%TO.P,C90,1,1*%
%TO.N,+3V3*%
X77685642Y-89400000D03*
%TO.P,C90,2,2*%
%TO.N,GND*%
X78645642Y-89400000D03*
%TD*%
D29*
%TO.P,U70,1,IN*%
%TO.N,VBUS*%
X85937500Y-87950000D03*
%TO.P,U70,2,GND*%
%TO.N,GND*%
X85937500Y-88900000D03*
%TO.P,U70,3,EN*%
%TO.N,VBUS*%
X85937500Y-89850000D03*
%TO.P,U70,4,P4*%
%TO.N,unconnected-(U70-Pad4)*%
X83662500Y-89850000D03*
%TO.P,U70,5,OUT*%
%TO.N,+3V3*%
X83662500Y-87950000D03*
%TD*%
D30*
%TO.P,U72,1,STAT*%
%TO.N,Net-(CHG1-Pad1)*%
X89462500Y-92350000D03*
%TO.P,U72,2,VSS*%
%TO.N,GND*%
X89462500Y-91400000D03*
%TO.P,U72,3,VBAT*%
%TO.N,+BATT*%
X89462500Y-90450000D03*
%TO.P,U72,4,VDD*%
%TO.N,VBUS*%
X91737500Y-90450000D03*
%TO.P,U72,5,PROG*%
%TO.N,Net-(R73-Pad1)*%
X91737500Y-92350000D03*
%TD*%
D24*
%TO.P,C24,1,1*%
%TO.N,+3.3VA*%
X121700000Y-88220000D03*
%TO.P,C24,2,2*%
%TO.N,GND*%
X121700000Y-89180000D03*
%TD*%
D14*
%TO.P,C11,1,1*%
%TO.N,+3V3*%
X112900000Y-88980000D03*
%TO.P,C11,2,2*%
%TO.N,GND*%
X112900000Y-88020000D03*
%TD*%
D13*
%TO.P,R22,1,1*%
%TO.N,Net-(C22-Pad1)*%
X101300000Y-95410000D03*
%TO.P,R22,2,2*%
%TO.N,Net-(C23-Pad1)*%
X101300000Y-94390000D03*
%TD*%
D14*
%TO.P,C77,1,1*%
%TO.N,+BATT*%
X87700000Y-91080000D03*
%TO.P,C77,2,2*%
%TO.N,GND*%
X87700000Y-90120000D03*
%TD*%
D29*
%TO.P,U71,1,VOUT2*%
%TO.N,+3.3VA*%
X85937500Y-91650000D03*
%TO.P,U71,2,GND*%
%TO.N,GND*%
X85937500Y-92600000D03*
%TO.P,U71,3,EN2*%
%TO.N,/D4*%
X85937500Y-93550000D03*
%TO.P,U71,4,EN1*%
%TO.N,+3V3*%
X83662500Y-93550000D03*
%TO.P,U71,5,VIN*%
X83662500Y-92600000D03*
%TO.P,U71,6,VOUT1*%
%TO.N,+1V8*%
X83662500Y-91650000D03*
%TD*%
D16*
%TO.P,R71,1,1*%
%TO.N,+BATT*%
X87700000Y-92120000D03*
%TO.P,R71,2,2*%
%TO.N,/A4*%
X87700000Y-93140000D03*
%TD*%
D28*
%TO.P,C20,1,1*%
%TO.N,Net-(C20-Pad1)*%
X103232500Y-88400000D03*
%TO.P,C20,2,2*%
%TO.N,GNDA*%
X104192500Y-88400000D03*
%TD*%
%TO.P,C91,1,1*%
%TO.N,+3V3*%
X77685642Y-90500000D03*
%TO.P,C91,2,2*%
%TO.N,GND*%
X78645642Y-90500000D03*
%TD*%
D31*
%TO.P,J10,1,Pin_1*%
%TO.N,/vs1053_LEFT*%
X94250000Y-93950000D03*
%TO.P,J10,2,Pin_2*%
%TO.N,/vs1053_RIGHT*%
X94250000Y-93450000D03*
%TO.P,J10,3,Pin_3*%
%TO.N,/AOHPL*%
X94250000Y-92950000D03*
%TO.P,J10,4,Pin_4*%
%TO.N,/AOHPR*%
X94250000Y-92450000D03*
%TO.P,J10,5,Pin_5*%
%TO.N,GNDA*%
X94250000Y-91950000D03*
%TO.P,J10,6,Pin_6*%
%TO.N,/D7*%
X94250000Y-91450000D03*
%TO.P,J10,7,Pin_7*%
%TO.N,+BATT*%
X94250000Y-90950000D03*
%TO.P,J10,8,Pin_8*%
X94250000Y-90450000D03*
%TO.P,J10,9,Pin_9*%
%TO.N,VBUS*%
X94250000Y-89950000D03*
%TO.P,J10,10,Pin_10*%
X94250000Y-89450000D03*
%TO.P,J10,11,Pin_11*%
%TO.N,+1V8*%
X97850000Y-93950000D03*
%TO.P,J10,12,Pin_12*%
%TO.N,/SDA*%
X97850000Y-93450000D03*
%TO.P,J10,13,Pin_13*%
%TO.N,/SCL*%
X97850000Y-92950000D03*
%TO.P,J10,14,Pin_14*%
%TO.N,/D3*%
X97850000Y-92450000D03*
%TO.P,J10,15,Pin_15*%
%TO.N,+3V3*%
X97850000Y-91950000D03*
%TO.P,J10,16,Pin_16*%
%TO.N,/A3*%
X97850000Y-91450000D03*
%TO.P,J10,17,Pin_17*%
%TO.N,/D2*%
X97850000Y-90950000D03*
%TO.P,J10,18,Pin_18*%
%TO.N,/D11*%
X97850000Y-90450000D03*
%TO.P,J10,19,Pin_19*%
%TO.N,GND*%
X97850000Y-89950000D03*
%TO.P,J10,20,Pin_20*%
X97850000Y-89450000D03*
%TD*%
D24*
%TO.P,C72,1,1*%
%TO.N,+3V3*%
X82100000Y-88220000D03*
%TO.P,C72,2,2*%
%TO.N,GND*%
X82100000Y-89180000D03*
%TD*%
D32*
%TO.P,C70,1,1*%
%TO.N,VDDA*%
X104192500Y-89600000D03*
%TO.P,C70,2,2*%
%TO.N,GNDA*%
X103232500Y-89600000D03*
%TD*%
D16*
%TO.P,R10,1,1*%
%TO.N,/D13*%
X115730000Y-93160000D03*
%TO.P,R10,2,2*%
%TO.N,Net-(D10-Pad2)*%
X115730000Y-94180000D03*
%TD*%
D33*
%TO.N,GND*%
X79132003Y-90500000D03*
X101089163Y-93302621D03*
X105600000Y-80763000D03*
X76100000Y-81900000D03*
X85000000Y-92600000D03*
X110300000Y-86500000D03*
X104100000Y-93900000D03*
X76450000Y-93300000D03*
X85000000Y-88900000D03*
X91100000Y-94000000D03*
X100000000Y-87724500D03*
X113781250Y-82981250D03*
X120800000Y-88600000D03*
X106800000Y-87037011D03*
D34*
X100752637Y-90330920D03*
D33*
X110300000Y-83000000D03*
X109240000Y-94830000D03*
X82100000Y-89800000D03*
X113800000Y-86500000D03*
X85200000Y-83200000D03*
X97900000Y-80800000D03*
D34*
X126100000Y-87900000D03*
D33*
X90584423Y-91759073D03*
X99300000Y-95300000D03*
%TO.N,Net-(C20-Pad1)*%
X102645499Y-87839545D03*
%TO.N,GNDA*%
X103750000Y-87725000D03*
X95527595Y-92493646D03*
X105900000Y-86073989D03*
X101219399Y-85317553D03*
%TO.N,/~{RESET}*%
X83100000Y-81800000D03*
X113300000Y-80600000D03*
X109365892Y-93500017D03*
X103322740Y-91964840D03*
%TO.N,Net-(C22-Pad1)*%
X101900000Y-93800000D03*
%TO.N,Net-(C23-Pad1)*%
X101967561Y-93084032D03*
%TO.N,+3.3VA*%
X86980500Y-94100498D03*
X122785880Y-87463000D03*
X104100000Y-93100000D03*
X99600000Y-90500000D03*
X107900000Y-90000000D03*
X100419666Y-93619666D03*
X108100000Y-93973989D03*
%TO.N,+3V3*%
X111900000Y-90159700D03*
X98800000Y-82906060D03*
X110100000Y-91548711D03*
X76950000Y-89400000D03*
X107925000Y-84500000D03*
X89400000Y-93200000D03*
X108600000Y-80763000D03*
X82800000Y-92700000D03*
X83600000Y-88900000D03*
X96663104Y-93199565D03*
X115500000Y-80831011D03*
%TO.N,VDDA*%
X105500000Y-87800000D03*
X102226162Y-85475221D03*
%TO.N,VBUS*%
X104125000Y-80800000D03*
X94220000Y-88960000D03*
%TO.N,+1V8*%
X101600000Y-90530920D03*
X98254369Y-87090849D03*
X84800000Y-91310480D03*
X96710000Y-94230000D03*
%TO.N,/MISO*%
X110500931Y-90622700D03*
X113238000Y-90437000D03*
X126505000Y-86095000D03*
%TO.N,/SCLK*%
X124300000Y-86536480D03*
X108701608Y-92231489D03*
X112700000Y-91400000D03*
%TO.N,/MOSI*%
X109400931Y-91700931D03*
X122000000Y-86536480D03*
X112000000Y-91100000D03*
%TO.N,/D5*%
X116259517Y-91859517D03*
X120977967Y-85634958D03*
X115810862Y-89073480D03*
%TO.N,/D13*%
X116816826Y-91305571D03*
%TO.N,/GPIO1*%
X111600000Y-92400000D03*
%TO.N,/D6*%
X105437000Y-92200498D03*
X117529621Y-90979051D03*
%TO.N,/GPIO0*%
X110794500Y-92400000D03*
%TO.N,/SCL*%
X116303119Y-83906021D03*
%TO.N,/SDA*%
X116300000Y-84700000D03*
%TO.N,/D2*%
X94238503Y-88033989D03*
X114500000Y-89000000D03*
X95300000Y-82956604D03*
%TO.N,/CHRG_STAT*%
X92600000Y-85800000D03*
X95973500Y-93900000D03*
X107495210Y-87295210D03*
%TO.N,/A4*%
X90200000Y-86400000D03*
X88400500Y-91520949D03*
X107800000Y-86600000D03*
%TO.N,/vs1053_RIGHT*%
X95021962Y-87145007D03*
X104582417Y-87713502D03*
X95524234Y-91140347D03*
%TO.N,/vs1053_LEFT*%
X95584287Y-89963046D03*
X101219594Y-87718396D03*
X95500000Y-87700000D03*
%TO.N,/AOHPR*%
X81454173Y-94299989D03*
X81675919Y-92112023D03*
X92834598Y-92734598D03*
%TO.N,/AOHPL*%
X82100000Y-92720949D03*
X92900000Y-93500000D03*
X82800000Y-94300000D03*
%TO.N,/LED1*%
X94175000Y-81704084D03*
X102100000Y-84000000D03*
%TO.N,/LED2*%
X100000000Y-84400000D03*
X92150000Y-81704084D03*
%TO.N,/D9*%
X108200000Y-87900000D03*
X99600000Y-91500000D03*
%TO.N,/D4*%
X84800000Y-93400000D03*
X90900000Y-86500000D03*
X108900000Y-88012000D03*
%TO.N,/D3*%
X108826011Y-88900000D03*
%TO.N,/BM83_UART_RX*%
X109958987Y-89043649D03*
X98000000Y-83877880D03*
%TO.N,/BM83_UART_TX*%
X110726967Y-88828112D03*
X97700000Y-83000000D03*
%TO.N,/D11*%
X94600000Y-82956604D03*
X116353826Y-88600000D03*
X93569077Y-87716831D03*
%TO.N,/D10*%
X99290500Y-94500000D03*
X116400000Y-86800000D03*
%TO.N,/D7*%
X93461279Y-83440543D03*
X92900000Y-91808587D03*
X117600000Y-85424502D03*
%TO.N,/D-*%
X118033623Y-81407894D03*
%TO.N,/D+*%
X117538647Y-80912918D03*
%TO.N,/DMIC1_CLK*%
X80468494Y-94100000D03*
%TO.N,/DMIC1_L*%
X80931494Y-93373989D03*
%TO.N,Net-(D10-Pad2)*%
X114936180Y-94150000D03*
%TO.N,/A3*%
X93000000Y-88900000D03*
X92900000Y-84700000D03*
X107778315Y-85707885D03*
%TD*%
D35*
%TO.N,GND*%
X112900000Y-88020000D02*
X112900000Y-87400000D01*
D36*
X103200000Y-94800000D02*
X103000000Y-94800000D01*
X77440092Y-93500000D02*
X76650000Y-93500000D01*
X77727200Y-95227200D02*
X78665642Y-95227200D01*
D35*
X106600000Y-93500000D02*
X106200000Y-93100000D01*
D36*
X87500000Y-89080000D02*
X87500000Y-89920000D01*
X90225350Y-91400000D02*
X90584423Y-91759073D01*
X78665642Y-95227200D02*
X78747173Y-95308731D01*
D35*
X121700000Y-89180000D02*
X121380000Y-89180000D01*
D37*
X100000000Y-88720000D02*
X100000000Y-89578283D01*
D36*
X87591269Y-95308731D02*
X78747173Y-95308731D01*
D35*
X78665642Y-91772800D02*
X78665642Y-90520000D01*
D36*
X87500000Y-89920000D02*
X87700000Y-90120000D01*
D37*
X120500000Y-91900000D02*
X121696489Y-91900000D01*
D36*
X85937500Y-88900000D02*
X87320000Y-88900000D01*
X82100000Y-90420000D02*
X82100000Y-89800000D01*
X99920000Y-95300000D02*
X100000000Y-95380000D01*
D35*
X78645642Y-90500000D02*
X79132003Y-90500000D01*
D36*
X87591269Y-95308731D02*
X87700000Y-95200000D01*
X85937500Y-92600000D02*
X85000000Y-92600000D01*
D35*
X78645642Y-90500000D02*
X78645642Y-89400000D01*
X112900000Y-87400000D02*
X113800000Y-86500000D01*
X111450000Y-94160000D02*
X110290000Y-94160000D01*
X106600000Y-93820000D02*
X106600000Y-93500000D01*
D36*
X76650000Y-93500000D02*
X76450000Y-93300000D01*
X89462500Y-91400000D02*
X90225350Y-91400000D01*
X92200000Y-94810000D02*
X91910000Y-94810000D01*
X104800000Y-93200000D02*
X105200000Y-93200000D01*
D35*
X121380000Y-89180000D02*
X120800000Y-88600000D01*
D36*
X99300000Y-95300000D02*
X99920000Y-95300000D01*
X77440092Y-93500000D02*
X77440092Y-94940092D01*
X104100000Y-93900000D02*
X104800000Y-93200000D01*
D37*
X99980000Y-88720000D02*
X99000000Y-89700000D01*
D36*
X85937500Y-88900000D02*
X85000000Y-88900000D01*
X104100000Y-93900000D02*
X103200000Y-94800000D01*
D35*
X109910000Y-94160000D02*
X110290000Y-94160000D01*
D37*
X99000000Y-89700000D02*
X97300000Y-89700000D01*
D36*
X105200000Y-93100000D02*
X104854008Y-93100000D01*
X100000000Y-87724500D02*
X100000000Y-88720000D01*
X82100000Y-89180000D02*
X82100000Y-89800000D01*
D35*
X106200000Y-93100000D02*
X105200000Y-93100000D01*
D36*
X87320000Y-88900000D02*
X87500000Y-89080000D01*
X91910000Y-94810000D02*
X91100000Y-94000000D01*
D35*
X78665642Y-90520000D02*
X78645642Y-90500000D01*
D36*
X77440092Y-94940092D02*
X77727200Y-95227200D01*
D37*
X100000000Y-89578283D02*
X100752637Y-90330920D01*
D35*
X109240000Y-94830000D02*
X109910000Y-94160000D01*
D36*
%TO.N,Net-(C20-Pad1)*%
X103205954Y-88400000D02*
X102645499Y-87839545D01*
X103232500Y-88400000D02*
X103205954Y-88400000D01*
%TO.N,GNDA*%
X102725000Y-89600000D02*
X101825000Y-88700000D01*
X94250000Y-91950000D02*
X95353022Y-91950000D01*
X103750000Y-87725000D02*
X104192500Y-88167500D01*
X104192500Y-88167500D02*
X104192500Y-88400000D01*
X103232500Y-89590242D02*
X104192500Y-88630242D01*
X95353022Y-91950000D02*
X95527595Y-92124573D01*
X103232500Y-89600000D02*
X102725000Y-89600000D01*
X95527595Y-92124573D02*
X95527595Y-92493646D01*
D35*
%TO.N,/~{RESET}*%
X103322740Y-91964840D02*
X105017860Y-91964840D01*
X105017860Y-91964840D02*
X105243749Y-91738951D01*
X109365892Y-93345892D02*
X109365892Y-93500017D01*
X105243749Y-91737487D02*
X106627487Y-91737487D01*
X107650000Y-92760000D02*
X108780000Y-92760000D01*
X113000000Y-80300000D02*
X113300000Y-80600000D01*
X105243749Y-91738951D02*
X105243749Y-91737487D01*
X83100000Y-81800000D02*
X84600000Y-80300000D01*
X106627487Y-91737487D02*
X107650000Y-92760000D01*
X108780000Y-92760000D02*
X109365892Y-93345892D01*
X84600000Y-80300000D02*
X113000000Y-80300000D01*
%TO.N,Net-(C22-Pad1)*%
X101920999Y-95520999D02*
X102100000Y-95700000D01*
X105200000Y-94800000D02*
X104300000Y-95700000D01*
X104300000Y-95700000D02*
X102100000Y-95700000D01*
X101920999Y-93820999D02*
X101920999Y-95520999D01*
X102100000Y-95700000D02*
X101590000Y-95700000D01*
X106580000Y-94800000D02*
X106600000Y-94780000D01*
X105200000Y-94800000D02*
X106580000Y-94800000D01*
X101590000Y-95700000D02*
X101300000Y-95410000D01*
X101900000Y-93800000D02*
X101920999Y-93820999D01*
%TO.N,Net-(C23-Pad1)*%
X102984032Y-93084032D02*
X103000000Y-93100000D01*
X101967561Y-93084032D02*
X102984032Y-93084032D01*
X101436989Y-94253011D02*
X101300000Y-94390000D01*
X101436989Y-93608213D02*
X101436989Y-94253011D01*
X101967561Y-93084032D02*
X101961170Y-93084032D01*
X101300000Y-94390000D02*
X100030000Y-94390000D01*
X100030000Y-94390000D02*
X100000000Y-94420000D01*
X101961170Y-93084032D02*
X101436989Y-93608213D01*
%TO.N,+3.3VA*%
X108100000Y-94806568D02*
X108912963Y-95619531D01*
X121160539Y-87463000D02*
X122785880Y-87463000D01*
X108912963Y-95619531D02*
X111660469Y-95619531D01*
X122785880Y-87463000D02*
X122028880Y-88220000D01*
X111660469Y-95619531D02*
X113020000Y-94260000D01*
D36*
X85937500Y-91650000D02*
X86750000Y-91650000D01*
D35*
X116561770Y-94720000D02*
X118107487Y-93174283D01*
D36*
X86750000Y-91650000D02*
X86980500Y-91880500D01*
D35*
X113020000Y-94160000D02*
X114150000Y-94160000D01*
D36*
X86980500Y-91880500D02*
X86980500Y-94100498D01*
D35*
X114150000Y-94160000D02*
X114710000Y-94720000D01*
X122028880Y-88220000D02*
X121700000Y-88220000D01*
D36*
X107425000Y-89525000D02*
X107900000Y-90000000D01*
X107425000Y-88900000D02*
X107425000Y-89525000D01*
D35*
X113020000Y-94260000D02*
X113020000Y-94160000D01*
X118107487Y-90516051D02*
X121160539Y-87463000D01*
X108100000Y-93973989D02*
X108100000Y-94806568D01*
X118107487Y-93174283D02*
X118107487Y-90516051D01*
X114710000Y-94720000D02*
X116561770Y-94720000D01*
%TO.N,+3V3*%
X78214792Y-92547500D02*
X77685642Y-92018350D01*
D36*
X83662500Y-87950000D02*
X82370000Y-87950000D01*
D35*
X112900000Y-88980000D02*
X112900000Y-89159700D01*
X89190000Y-93800000D02*
X89190000Y-93410000D01*
X77685642Y-92018350D02*
X77685642Y-90500000D01*
D36*
X82100000Y-91800000D02*
X82100000Y-91380000D01*
D35*
X78214792Y-94176275D02*
X78214792Y-92823725D01*
X77685642Y-89400000D02*
X76950000Y-89400000D01*
D36*
X97850000Y-91950000D02*
X96746978Y-91950000D01*
D35*
X112900000Y-89159700D02*
X111900000Y-90159700D01*
X77685642Y-89400000D02*
X77685642Y-90500000D01*
D36*
X82900000Y-92600000D02*
X82800000Y-92700000D01*
X83662500Y-92600000D02*
X82900000Y-92600000D01*
X96723489Y-91973489D02*
X96723489Y-93139180D01*
X82900000Y-92600000D02*
X82100000Y-91800000D01*
D35*
X78214792Y-92823725D02*
X78214792Y-92547500D01*
D36*
X82370000Y-87950000D02*
X82100000Y-88220000D01*
X96746978Y-91950000D02*
X96723489Y-91973489D01*
X83662500Y-88837500D02*
X83600000Y-88900000D01*
X83662500Y-93550000D02*
X83662500Y-92600000D01*
X96723489Y-93139180D02*
X96663104Y-93199565D01*
X83662500Y-87950000D02*
X83662500Y-88837500D01*
D35*
X89190000Y-93410000D02*
X89400000Y-93200000D01*
D36*
%TO.N,VDDA*%
X105600000Y-87900000D02*
X105500000Y-87800000D01*
X104192500Y-89600000D02*
X105000000Y-89600000D01*
X105600000Y-88900000D02*
X105600000Y-87900000D01*
X105000000Y-89600000D02*
X105600000Y-89000000D01*
D37*
%TO.N,VBUS*%
X92500000Y-89700000D02*
X94240000Y-89700000D01*
D36*
X84473489Y-89118089D02*
X84473489Y-88681911D01*
X126534405Y-81934405D02*
X117565595Y-81934405D01*
X85205400Y-89850000D02*
X84473489Y-89118089D01*
X94220000Y-88960000D02*
X94220000Y-89680000D01*
X104100000Y-81400000D02*
X104100000Y-80825000D01*
X107900000Y-81400000D02*
X104100000Y-81400000D01*
D37*
X94240000Y-89700000D02*
X94800000Y-89700000D01*
X94800000Y-89700000D02*
X94653511Y-89846489D01*
D36*
X87500000Y-87100000D02*
X86787500Y-87100000D01*
X117031190Y-81400000D02*
X107900000Y-81400000D01*
X104100000Y-81400000D02*
X96300000Y-81400000D01*
X89500000Y-87100000D02*
X87500000Y-87100000D01*
D37*
X91750000Y-90450000D02*
X92500000Y-89700000D01*
D36*
X92150000Y-88300000D02*
X90950000Y-87100000D01*
X86787500Y-87100000D02*
X85937500Y-87950000D01*
X104100000Y-80825000D02*
X104125000Y-80800000D01*
X96300000Y-81400000D02*
X96077573Y-81177573D01*
D37*
X92150000Y-89350000D02*
X92150000Y-88300000D01*
D36*
X117565595Y-81934405D02*
X117031190Y-81400000D01*
X85205400Y-87950000D02*
X85937500Y-87950000D01*
X89400000Y-87000000D02*
X89500000Y-87100000D01*
X127850000Y-83250000D02*
X126534405Y-81934405D01*
X84473489Y-88681911D02*
X85205400Y-87950000D01*
X91022427Y-81177573D02*
X89400000Y-82800000D01*
X85937500Y-89850000D02*
X85205400Y-89850000D01*
X127850000Y-88400000D02*
X127850000Y-83250000D01*
X89400000Y-82800000D02*
X89400000Y-87000000D01*
X87500000Y-88120000D02*
X87500000Y-87100000D01*
D37*
X91737500Y-90450000D02*
X91750000Y-90450000D01*
D36*
X94220000Y-89680000D02*
X94240000Y-89700000D01*
X96077573Y-81177573D02*
X91022427Y-81177573D01*
D37*
X92500000Y-89700000D02*
X92150000Y-89350000D01*
D36*
X90950000Y-87100000D02*
X89500000Y-87100000D01*
D37*
X94653511Y-89846489D02*
X94250000Y-89846489D01*
D35*
%TO.N,+1V8*%
X101600000Y-90530920D02*
X101600000Y-90240643D01*
X101600000Y-90240643D02*
X100775520Y-89416163D01*
X84460480Y-91650000D02*
X83662500Y-91650000D01*
X97850000Y-93950000D02*
X96990000Y-93950000D01*
X100756583Y-87356583D02*
X100490849Y-87090849D01*
X100775520Y-87918937D02*
X100756583Y-87900000D01*
X100490849Y-87090849D02*
X98254369Y-87090849D01*
X96990000Y-93950000D02*
X96710000Y-94230000D01*
X100756583Y-87900000D02*
X100756583Y-87356583D01*
X100775520Y-89416163D02*
X100775520Y-87918937D01*
X84800000Y-91310480D02*
X84460480Y-91650000D01*
D36*
%TO.N,+BATT*%
X88205562Y-90994438D02*
X88750000Y-90450000D01*
D37*
X89200000Y-88300000D02*
X89462500Y-88562500D01*
X89462500Y-88562500D02*
X89462500Y-90450000D01*
D36*
X87785562Y-90994438D02*
X88205562Y-90994438D01*
X87700000Y-91080000D02*
X87785562Y-90994438D01*
D37*
X90175031Y-90450000D02*
X90928551Y-91203520D01*
D36*
X87700000Y-92120000D02*
X87700000Y-91080000D01*
X88750000Y-90450000D02*
X89462500Y-90450000D01*
D37*
X88850000Y-88300000D02*
X89200000Y-88300000D01*
X90928551Y-91203520D02*
X92621480Y-91203520D01*
X93125000Y-90700000D02*
X94800000Y-90700000D01*
X89462500Y-90450000D02*
X90175031Y-90450000D01*
X92621480Y-91203520D02*
X93125000Y-90700000D01*
D35*
%TO.N,/MISO*%
X116217177Y-89400000D02*
X117800000Y-89400000D01*
X113238000Y-90437000D02*
X112363000Y-90437000D01*
X126483480Y-86073480D02*
X126505000Y-86095000D01*
X117800000Y-89400000D02*
X121126520Y-86073480D01*
X115180174Y-90437000D02*
X116217177Y-89400000D01*
X110500931Y-90622700D02*
X112177300Y-90622700D01*
X113238000Y-90437000D02*
X115180174Y-90437000D01*
X121126520Y-86073480D02*
X126483480Y-86073480D01*
X112363000Y-90437000D02*
X112177300Y-90622700D01*
%TO.N,/SCLK*%
X115140712Y-91400000D02*
X116351182Y-90189531D01*
X112700000Y-91400000D02*
X115140712Y-91400000D01*
X117972238Y-90189531D02*
X121161769Y-87000000D01*
X110072020Y-92231489D02*
X110738509Y-91565000D01*
X123836480Y-87000000D02*
X124300000Y-86536480D01*
X121161769Y-87000000D02*
X123836480Y-87000000D01*
X112535000Y-91565000D02*
X110738509Y-91565000D01*
X116351182Y-90189531D02*
X117972238Y-90189531D01*
X112535000Y-91565000D02*
X112700000Y-91400000D01*
X108701608Y-92231489D02*
X110072020Y-92231489D01*
%TO.N,/MOSI*%
X121163520Y-86536480D02*
X122000000Y-86536480D01*
X116215934Y-89863011D02*
X117836989Y-89863011D01*
X112000000Y-91100000D02*
X112345202Y-91100000D01*
X109400931Y-91507919D02*
X109823139Y-91085711D01*
X112545202Y-90900000D02*
X115178943Y-90900000D01*
X112345202Y-91100000D02*
X112545202Y-90900000D01*
X117836989Y-89863011D02*
X121163520Y-86536480D01*
X109400931Y-91700931D02*
X109400931Y-91507919D01*
X109823139Y-91085711D02*
X111985711Y-91085711D01*
X111985711Y-91085711D02*
X112000000Y-91100000D01*
X115178943Y-90900000D02*
X116215934Y-89863011D01*
%TO.N,/D5*%
X120977967Y-85722033D02*
X120977967Y-85634958D01*
X120800000Y-85900000D02*
X117626520Y-89073480D01*
X114580000Y-93140000D02*
X115860483Y-91859517D01*
X115860483Y-91859517D02*
X116259517Y-91859517D01*
X114150000Y-93140000D02*
X114580000Y-93140000D01*
X117626520Y-89073480D02*
X115810862Y-89073480D01*
X120800000Y-85900000D02*
X120977967Y-85722033D01*
%TO.N,/D13*%
X116816826Y-91305571D02*
X116816826Y-92073174D01*
X116816826Y-92073174D02*
X115730000Y-93160000D01*
%TO.N,/GPIO1*%
X111450000Y-93140000D02*
X111450000Y-92550000D01*
X111450000Y-92550000D02*
X111600000Y-92400000D01*
%TO.N,/D6*%
X108750000Y-93969191D02*
X108254787Y-93473978D01*
X112210000Y-94570000D02*
X112210000Y-93360000D01*
X112430000Y-93140000D02*
X113020000Y-93140000D01*
X107300000Y-93473978D02*
X106026022Y-92200000D01*
X112210000Y-93360000D02*
X112430000Y-93140000D01*
X108254787Y-93473978D02*
X107300000Y-93473978D01*
X108750000Y-94994798D02*
X108750000Y-93969191D01*
X106026022Y-92200000D02*
X106025524Y-92200498D01*
X117393130Y-90842560D02*
X116297440Y-90842560D01*
X117529621Y-90979051D02*
X117393130Y-90842560D01*
X106025524Y-92200498D02*
X105437000Y-92200498D01*
X116297440Y-90842560D02*
X114860000Y-92280000D01*
X111486989Y-95293011D02*
X112210000Y-94570000D01*
X109048213Y-95293011D02*
X108750000Y-94994798D01*
X113880000Y-92280000D02*
X113020000Y-93140000D01*
X111486989Y-95293011D02*
X109048213Y-95293011D01*
X114860000Y-92280000D02*
X113880000Y-92280000D01*
%TO.N,/GPIO0*%
X110290000Y-93140000D02*
X110290000Y-92904500D01*
X110290000Y-92904500D02*
X110794500Y-92400000D01*
%TO.N,/SCL*%
X104769908Y-90826060D02*
X102883198Y-90826060D01*
X104952908Y-90643060D02*
X104769908Y-90826060D01*
X102062298Y-91646960D02*
X100814052Y-91646960D01*
X116303119Y-83906021D02*
X112293979Y-83906021D01*
X107437716Y-91116051D02*
X106964724Y-90643060D01*
X111313011Y-89013011D02*
X110819362Y-89506660D01*
X108407489Y-91116051D02*
X107437716Y-91116051D01*
X102883198Y-90826060D02*
X102062298Y-91646960D01*
X106964724Y-90643060D02*
X104952908Y-90643060D01*
X99511010Y-92950000D02*
X97850000Y-92950000D01*
X110819362Y-89506660D02*
X110016879Y-89506660D01*
X112293979Y-83906021D02*
X111313011Y-84886989D01*
X110016879Y-89506660D02*
X108407489Y-91116051D01*
X100814052Y-91646960D02*
X99511010Y-92950000D01*
X111313011Y-84886989D02*
X111313011Y-89013011D01*
%TO.N,/SDA*%
X100949301Y-91973480D02*
X99472780Y-93450000D01*
X111961770Y-84700000D02*
X111639531Y-85022239D01*
X102197548Y-91973480D02*
X100949301Y-91973480D01*
X111639531Y-89235249D02*
X111041600Y-89833180D01*
X105088144Y-90969580D02*
X104905144Y-91152580D01*
X111639531Y-85022239D02*
X111639531Y-89235249D01*
X103018448Y-91152580D02*
X102197548Y-91973480D01*
X104905144Y-91152580D02*
X103018448Y-91152580D01*
X116300000Y-84700000D02*
X111961770Y-84700000D01*
X111041600Y-89833180D02*
X110152128Y-89833180D01*
X108542739Y-91442571D02*
X107302467Y-91442571D01*
X107302467Y-91442571D02*
X106829476Y-90969580D01*
X99472780Y-93450000D02*
X97850000Y-93450000D01*
X106829476Y-90969580D02*
X105088144Y-90969580D01*
X110152128Y-89833180D02*
X108542739Y-91442571D01*
%TO.N,/D2*%
X96400000Y-82116540D02*
X96140064Y-82116540D01*
X115516540Y-82116540D02*
X96400000Y-82116540D01*
X114500000Y-89000000D02*
X115363011Y-88136989D01*
X117501241Y-88136989D02*
X118100000Y-87538230D01*
X96912208Y-90950000D02*
X97850000Y-90950000D01*
X94410557Y-88033989D02*
X95087037Y-88710469D01*
X115630205Y-82116540D02*
X115516540Y-82116540D01*
X95087037Y-88710469D02*
X95448261Y-88710469D01*
X96140064Y-82116540D02*
X95300000Y-82956604D01*
X96456460Y-89718668D02*
X96456460Y-90494251D01*
X95448261Y-88710469D02*
X96456460Y-89718668D01*
X115363011Y-88136989D02*
X117501241Y-88136989D01*
X94238503Y-88033989D02*
X94410557Y-88033989D01*
X118100000Y-84586335D02*
X115630205Y-82116540D01*
X96456460Y-90494251D02*
X96912208Y-90950000D01*
X118100000Y-87538230D02*
X118100000Y-84586335D01*
%TO.N,/CHRG_STAT*%
X101784066Y-86536989D02*
X100894036Y-85646960D01*
X107495210Y-87295210D02*
X107495210Y-87077423D01*
X90787500Y-95200000D02*
X90930520Y-95343020D01*
X90210000Y-94622500D02*
X90787500Y-95200000D01*
X100894036Y-85646960D02*
X92753040Y-85646960D01*
X90210000Y-93800000D02*
X90210000Y-94622500D01*
X107495210Y-87077423D02*
X106954776Y-86536989D01*
X92753040Y-85646960D02*
X92600000Y-85800000D01*
X106954776Y-86536989D02*
X101784066Y-86536989D01*
X94530480Y-95343020D02*
X95973500Y-93900000D01*
X90930520Y-95343020D02*
X94530480Y-95343020D01*
%TO.N,Net-(R73-Pad1)*%
X91737500Y-93327500D02*
X91737500Y-92450000D01*
X92200000Y-93790000D02*
X91737500Y-93327500D01*
%TO.N,/A4*%
X106500000Y-85400000D02*
X102890916Y-85400000D01*
X88400000Y-92500000D02*
X87760000Y-93140000D01*
X102890916Y-85400000D02*
X102345458Y-84854542D01*
X87760000Y-93140000D02*
X87700000Y-93140000D01*
X91279560Y-85320440D02*
X90200000Y-86400000D01*
X100561714Y-85320440D02*
X91279560Y-85320440D01*
X101027612Y-84854542D02*
X100561714Y-85320440D01*
D36*
X87700000Y-94180000D02*
X87700000Y-93140000D01*
D35*
X107755686Y-86600000D02*
X106555686Y-85400000D01*
X107800000Y-86600000D02*
X107755686Y-86600000D01*
X106555686Y-85400000D02*
X106500000Y-85400000D01*
X88400000Y-92500000D02*
X88400000Y-91521449D01*
X88400000Y-91521449D02*
X88400500Y-91520949D01*
X102345458Y-84854542D02*
X101027612Y-84854542D01*
%TO.N,/vs1053_RIGHT*%
X104582417Y-87713502D02*
X104130904Y-87261989D01*
X100623538Y-86300000D02*
X95638728Y-86300000D01*
X95021962Y-86916766D02*
X95021962Y-87145007D01*
X95638728Y-86300000D02*
X95021962Y-86916766D01*
X101585527Y-87261989D02*
X100623538Y-86300000D01*
X96006949Y-92669073D02*
X96006949Y-91450000D01*
X104130904Y-87261989D02*
X101585527Y-87261989D01*
X95697296Y-91140347D02*
X95524234Y-91140347D01*
X94250000Y-93450000D02*
X95226022Y-93450000D01*
X95226022Y-93450000D02*
X96006949Y-92669073D01*
X96006949Y-91450000D02*
X95697296Y-91140347D01*
%TO.N,/vs1053_LEFT*%
X95663046Y-89963046D02*
X95803420Y-90103420D01*
X95187791Y-93950000D02*
X94250000Y-93950000D01*
X95500000Y-86900498D02*
X95772660Y-86627838D01*
X95584287Y-89963046D02*
X95663046Y-89963046D01*
X95500000Y-87700000D02*
X95500000Y-86900498D01*
X96333469Y-91294801D02*
X96333469Y-92804322D01*
X100489607Y-86627838D02*
X101219594Y-87357825D01*
X101219594Y-87357825D02*
X101219594Y-87718396D01*
X95803420Y-90764752D02*
X96333469Y-91294801D01*
X96333469Y-92804322D02*
X95187791Y-93950000D01*
X95803420Y-90103420D02*
X95803420Y-90764752D01*
X95772660Y-86627838D02*
X100489607Y-86627838D01*
%TO.N,/AOHPR*%
X81454173Y-92333769D02*
X81675919Y-92112023D01*
X81454173Y-94299989D02*
X81454173Y-92333769D01*
X94250000Y-92450000D02*
X93119196Y-92450000D01*
X93119196Y-92450000D02*
X92834598Y-92734598D01*
%TO.N,/AOHPL*%
X92900000Y-93323978D02*
X92900000Y-93500000D01*
X94250000Y-92950000D02*
X93273978Y-92950000D01*
X82500000Y-94300000D02*
X82100000Y-93900000D01*
X82100000Y-93900000D02*
X82100000Y-92720949D01*
X82800000Y-94300000D02*
X82500000Y-94300000D01*
X93273978Y-92950000D02*
X92900000Y-93323978D01*
%TO.N,/LED1*%
X93706818Y-84340880D02*
X92900000Y-83534062D01*
X92900000Y-82979084D02*
X94175000Y-81704084D01*
X99803891Y-83936989D02*
X99400000Y-84340880D01*
X99400000Y-84340880D02*
X93706818Y-84340880D01*
X92900000Y-83534062D02*
X92900000Y-82979084D01*
X102100000Y-84000000D02*
X102036989Y-83936989D01*
X102036989Y-83936989D02*
X99803891Y-83936989D01*
%TO.N,/LED2*%
X100000000Y-84400000D02*
X99732600Y-84667400D01*
X99732600Y-84667400D02*
X93567400Y-84667400D01*
X93567400Y-84667400D02*
X92150000Y-83250000D01*
X92150000Y-83250000D02*
X92150000Y-81704084D01*
%TO.N,/D9*%
X107708213Y-90463011D02*
X107235222Y-89990020D01*
X108200000Y-87900000D02*
X108363011Y-88063011D01*
X101791789Y-90993929D02*
X100106071Y-90993929D01*
X108363011Y-90236989D02*
X108136989Y-90463011D01*
X108136989Y-90463011D02*
X107708213Y-90463011D01*
X104682436Y-89990020D02*
X104499436Y-90173020D01*
X100106071Y-90993929D02*
X99600000Y-91500000D01*
X108363011Y-88063011D02*
X108363011Y-90236989D01*
X104499436Y-90173020D02*
X102612698Y-90173020D01*
X107235222Y-89990020D02*
X104682436Y-89990020D01*
X102612698Y-90173020D02*
X101791789Y-90993929D01*
%TO.N,/D4*%
X84950000Y-93550000D02*
X84800000Y-93400000D01*
X94226520Y-85973480D02*
X93700000Y-86500000D01*
X108354798Y-87400000D02*
X108045202Y-87400000D01*
X108900000Y-87945202D02*
X108354798Y-87400000D01*
X107645202Y-87800000D02*
X106200000Y-87800000D01*
X108045202Y-87400000D02*
X107645202Y-87800000D01*
X106200000Y-87800000D02*
X105650491Y-87250491D01*
X105650491Y-87250491D02*
X104581176Y-87250491D01*
X93700000Y-86500000D02*
X90900000Y-86500000D01*
X100758787Y-85973480D02*
X94226520Y-85973480D01*
X85937500Y-93550000D02*
X84950000Y-93550000D01*
X104266153Y-86935469D02*
X101720777Y-86935469D01*
X101720777Y-86935469D02*
X100758787Y-85973480D01*
X108900000Y-88012000D02*
X108900000Y-87945202D01*
X104581176Y-87250491D02*
X104266153Y-86935469D01*
%TO.N,/D3*%
X101927048Y-91320440D02*
X100678800Y-91320440D01*
X108826011Y-88900000D02*
X108689531Y-89036480D01*
X102747948Y-90499540D02*
X101927048Y-91320440D01*
X100678800Y-91320440D02*
X99549240Y-92450000D01*
X99549240Y-92450000D02*
X97850000Y-92450000D01*
X108272239Y-90789531D02*
X107572964Y-90789531D01*
X108689531Y-89036480D02*
X108689531Y-90372239D01*
X107099973Y-90316540D02*
X104817672Y-90316540D01*
X104634672Y-90499540D02*
X102747948Y-90499540D01*
X104817672Y-90316540D02*
X104634672Y-90499540D01*
X107572964Y-90789531D02*
X107099973Y-90316540D01*
X108689531Y-90372239D02*
X108272239Y-90789531D01*
%TO.N,/BM83_UART_RX*%
X108546100Y-83096100D02*
X99900000Y-83096100D01*
X99726528Y-83096100D02*
X99127036Y-83695591D01*
X98182289Y-83695591D02*
X98000000Y-83877880D01*
X99127036Y-83695591D02*
X98182289Y-83695591D01*
X109958987Y-89043649D02*
X109836989Y-88921651D01*
X99900000Y-83096100D02*
X99726528Y-83096100D01*
X109276520Y-83826520D02*
X108546100Y-83096100D01*
X109836989Y-84386989D02*
X109276520Y-83826520D01*
X109836989Y-88921651D02*
X109836989Y-84386989D01*
%TO.N,/BM83_UART_TX*%
X110850000Y-88705079D02*
X110726967Y-88828112D01*
X110850000Y-84938231D02*
X110850000Y-88705079D01*
X108681349Y-82769580D02*
X110850000Y-84938231D01*
X99591278Y-82769580D02*
X108681349Y-82769580D01*
X98991787Y-83369071D02*
X99591278Y-82769580D01*
X97700000Y-83000000D02*
X98069071Y-83369071D01*
X98069071Y-83369071D02*
X98991787Y-83369071D01*
%TO.N,/D11*%
X115765455Y-81790020D02*
X115590020Y-81790020D01*
X115590020Y-81790020D02*
X96400000Y-81790020D01*
X96782980Y-90359002D02*
X96782980Y-89583418D01*
X96400000Y-81790020D02*
X95766584Y-81790020D01*
X95583511Y-88383949D02*
X95243261Y-88383949D01*
X95243261Y-88383949D02*
X94430290Y-87570978D01*
X96873978Y-90450000D02*
X96782980Y-90359002D01*
X96782980Y-89583418D02*
X95583511Y-88383949D01*
X118426520Y-84451085D02*
X115765455Y-81790020D01*
X94430290Y-87570978D02*
X93714930Y-87570978D01*
X93714930Y-87570978D02*
X93569077Y-87716831D01*
X95766584Y-81790020D02*
X94600000Y-82956604D01*
X97850000Y-90450000D02*
X96873978Y-90450000D01*
X116353826Y-88600000D02*
X117500000Y-88600000D01*
X118426520Y-87673479D02*
X118426520Y-84451085D01*
X117500000Y-88600000D02*
X118426520Y-87673479D01*
%TO.N,/D10*%
X111240300Y-90159700D02*
X112200000Y-89200000D01*
X103153698Y-91479100D02*
X105040393Y-91479100D01*
X108677989Y-91769091D02*
X110287380Y-90159700D01*
X101084550Y-92300000D02*
X102332798Y-92300000D01*
X99290500Y-94094049D02*
X101084550Y-92300000D01*
X110287380Y-90159700D02*
X111240300Y-90159700D01*
X115636989Y-86036989D02*
X116400000Y-86800000D01*
X102332798Y-92300000D02*
X103153698Y-91479100D01*
X112363011Y-86036989D02*
X115636989Y-86036989D01*
X112200000Y-86200000D02*
X112363011Y-86036989D01*
X112200000Y-89200000D02*
X112200000Y-86200000D01*
X106771617Y-91373489D02*
X107167219Y-91769091D01*
X107167219Y-91769091D02*
X108677989Y-91769091D01*
X105146004Y-91373489D02*
X106771617Y-91373489D01*
X99290500Y-94500000D02*
X99290500Y-94094049D01*
X105040393Y-91479100D02*
X105146004Y-91373489D01*
%TO.N,/D7*%
X96468342Y-82443060D02*
X95500000Y-83411402D01*
X117600000Y-85424502D02*
X117600000Y-84548104D01*
X117600000Y-84548104D02*
X116494906Y-83443010D01*
X116494906Y-83443010D02*
X115494956Y-82443060D01*
X95470859Y-83440543D02*
X93461279Y-83440543D01*
X95500000Y-83411402D02*
X95470859Y-83440543D01*
X115494956Y-82443060D02*
X96600000Y-82443060D01*
X94250000Y-91450000D02*
X93258587Y-91450000D01*
X93258587Y-91450000D02*
X92900000Y-91808587D01*
X96600000Y-82443060D02*
X96468342Y-82443060D01*
D38*
%TO.N,/D-*%
X123906801Y-89974999D02*
X128306801Y-89974999D01*
X128775000Y-82393200D02*
X127606801Y-81225001D01*
X123100000Y-91325000D02*
X123100000Y-90781800D01*
X118033623Y-81231117D02*
X118033623Y-81407894D01*
X128306801Y-89974999D02*
X128775000Y-89506800D01*
X127606801Y-81225001D02*
X118039739Y-81225001D01*
X123000000Y-91900000D02*
X123000000Y-91425000D01*
X123000000Y-91425000D02*
X123100000Y-91325000D01*
X123100000Y-90781800D02*
X123906801Y-89974999D01*
X118039739Y-81225001D02*
X118033623Y-81231117D01*
X128775000Y-89506800D02*
X128775000Y-82393200D01*
%TO.N,/D+*%
X123650000Y-91425000D02*
X123550000Y-91325000D01*
X117853343Y-80774999D02*
X117715424Y-80912918D01*
X124093199Y-90425001D02*
X128493199Y-90425001D01*
X129225000Y-82206800D02*
X127793199Y-80774999D01*
X117715424Y-80912918D02*
X117538647Y-80912918D01*
X127793199Y-80774999D02*
X117853343Y-80774999D01*
X123550000Y-91325000D02*
X123550000Y-90968200D01*
X129225000Y-89693200D02*
X129225000Y-82206800D01*
X123550000Y-90968200D02*
X124093199Y-90425001D01*
X123650000Y-91900000D02*
X123650000Y-91425000D01*
X128493199Y-90425001D02*
X129225000Y-89693200D01*
D35*
%TO.N,/DMIC1_CLK*%
X80332003Y-92081289D02*
X79576353Y-92081289D01*
X80468494Y-94100000D02*
X80468494Y-92217780D01*
X79116492Y-92541150D02*
X79576353Y-92081289D01*
X80468494Y-92217780D02*
X80332003Y-92081289D01*
X79116492Y-92823725D02*
X79116492Y-92541150D01*
%TO.N,/DMIC1_L*%
X79116492Y-94442975D02*
X79592228Y-94918711D01*
X80931494Y-93373989D02*
X80931494Y-94291798D01*
X80931494Y-94291798D02*
X80304581Y-94918711D01*
X79592228Y-94918711D02*
X80304581Y-94918711D01*
X79116492Y-94176275D02*
X79116492Y-94450850D01*
X79116492Y-94176275D02*
X79116492Y-94442975D01*
%TO.N,Net-(CHG1-Pad1)*%
X88283020Y-93529480D02*
X88283020Y-94270520D01*
X89462500Y-92350000D02*
X88283020Y-93529480D01*
X88283020Y-94270520D02*
X89212500Y-95200000D01*
D36*
%TO.N,Net-(CN70-Pad1)*%
X124300000Y-91900000D02*
X124300000Y-92700000D01*
X118700000Y-91100000D02*
X119700000Y-90100000D01*
X119700000Y-90100000D02*
X122850000Y-90100000D01*
X124300000Y-92700000D02*
X123900000Y-93100000D01*
X122850000Y-90100000D02*
X124550000Y-88400000D01*
X119300000Y-93100000D02*
X118700000Y-92500000D01*
X123900000Y-93100000D02*
X119300000Y-93100000D01*
X118700000Y-92500000D02*
X118700000Y-91100000D01*
D35*
%TO.N,Net-(D10-Pad2)*%
X115730000Y-94180000D02*
X114966180Y-94180000D01*
X114966180Y-94180000D02*
X114936180Y-94150000D01*
%TO.N,/A3*%
X94411787Y-88496989D02*
X94951787Y-89036989D01*
X100865898Y-84528022D02*
X102480707Y-84528022D01*
X103026165Y-85073480D02*
X107126164Y-85073480D01*
X107778315Y-85707885D02*
X107760569Y-85707885D01*
X100406080Y-84993920D02*
X100865898Y-84534102D01*
X93403011Y-88496989D02*
X94411787Y-88496989D01*
X96129940Y-90629500D02*
X96950438Y-91450000D01*
X100865898Y-84534102D02*
X100865898Y-84528022D01*
X102480707Y-84528022D02*
X103026165Y-85073480D01*
X96129940Y-89853918D02*
X96129940Y-90629500D01*
X92900000Y-84700000D02*
X93193920Y-84993920D01*
X93000000Y-88900000D02*
X93403011Y-88496989D01*
X96950438Y-91450000D02*
X97850000Y-91450000D01*
X93193920Y-84993920D02*
X100406080Y-84993920D01*
X107760569Y-85707885D02*
X107126164Y-85073480D01*
X94951787Y-89036989D02*
X95313011Y-89036989D01*
X95313011Y-89036989D02*
X96129940Y-89853918D01*
%TD*%
M02*
