%TF.GenerationSoftware,KiCad,Pcbnew,(6.0.0)*%
%TF.CreationDate,2022-04-23T18:16:10+01:00*%
%TF.ProjectId,pcb I,70636220-492e-46b6-9963-61645f706362,rev?*%
%TF.SameCoordinates,Original*%
%TF.FileFunction,Copper,L1,Top*%
%TF.FilePolarity,Positive*%
%FSLAX46Y46*%
G04 Gerber Fmt 4.6, Leading zero omitted, Abs format (unit mm)*
G04 Created by KiCad (PCBNEW (6.0.0)) date 2022-04-23 18:16:10*
%MOMM*%
%LPD*%
G01*
G04 APERTURE LIST*
G04 Aperture macros list*
%AMRoundRect*
0 Rectangle with rounded corners*
0 $1 Rounding radius*
0 $2 $3 $4 $5 $6 $7 $8 $9 X,Y pos of 4 corners*
0 Add a 4 corners polygon primitive as box body*
4,1,4,$2,$3,$4,$5,$6,$7,$8,$9,$2,$3,0*
0 Add four circle primitives for the rounded corners*
1,1,$1+$1,$2,$3*
1,1,$1+$1,$4,$5*
1,1,$1+$1,$6,$7*
1,1,$1+$1,$8,$9*
0 Add four rect primitives between the rounded corners*
20,1,$1+$1,$2,$3,$4,$5,0*
20,1,$1+$1,$4,$5,$6,$7,0*
20,1,$1+$1,$6,$7,$8,$9,0*
20,1,$1+$1,$8,$9,$2,$3,0*%
G04 Aperture macros list end*
%TA.AperFunction,SMDPad,CuDef*%
%ADD10RoundRect,0.135000X-0.185000X0.135000X-0.185000X-0.135000X0.185000X-0.135000X0.185000X0.135000X0*%
%TD*%
%TA.AperFunction,SMDPad,CuDef*%
%ADD11C,1.000000*%
%TD*%
%TA.AperFunction,SMDPad,CuDef*%
%ADD12RoundRect,0.140000X-0.170000X0.140000X-0.170000X-0.140000X0.170000X-0.140000X0.170000X0.140000X0*%
%TD*%
%TA.AperFunction,SMDPad,CuDef*%
%ADD13RoundRect,0.140000X-0.140000X-0.170000X0.140000X-0.170000X0.140000X0.170000X-0.140000X0.170000X0*%
%TD*%
%TA.AperFunction,SMDPad,CuDef*%
%ADD14R,0.600000X1.500000*%
%TD*%
%TA.AperFunction,SMDPad,CuDef*%
%ADD15R,1.500000X0.600000*%
%TD*%
%TA.AperFunction,SMDPad,CuDef*%
%ADD16R,0.760000X2.790000*%
%TD*%
%TA.AperFunction,SMDPad,CuDef*%
%ADD17R,1.780000X1.780000*%
%TD*%
%TA.AperFunction,SMDPad,CuDef*%
%ADD18R,0.700000X1.750000*%
%TD*%
%TA.AperFunction,SMDPad,CuDef*%
%ADD19R,1.450000X1.000000*%
%TD*%
%TA.AperFunction,SMDPad,CuDef*%
%ADD20R,1.000000X1.550000*%
%TD*%
%TA.AperFunction,SMDPad,CuDef*%
%ADD21R,0.800000X1.400000*%
%TD*%
%TA.AperFunction,SMDPad,CuDef*%
%ADD22R,1.500000X1.500000*%
%TD*%
%TA.AperFunction,SMDPad,CuDef*%
%ADD23R,1.300000X1.500000*%
%TD*%
%TA.AperFunction,SMDPad,CuDef*%
%ADD24R,0.800000X1.500000*%
%TD*%
%TA.AperFunction,SMDPad,CuDef*%
%ADD25R,0.900000X1.000000*%
%TD*%
%TA.AperFunction,SMDPad,CuDef*%
%ADD26RoundRect,0.140000X0.140000X0.170000X-0.140000X0.170000X-0.140000X-0.170000X0.140000X-0.170000X0*%
%TD*%
%TA.AperFunction,SMDPad,CuDef*%
%ADD27RoundRect,0.075000X-0.662500X-0.075000X0.662500X-0.075000X0.662500X0.075000X-0.662500X0.075000X0*%
%TD*%
%TA.AperFunction,SMDPad,CuDef*%
%ADD28RoundRect,0.075000X-0.075000X-0.662500X0.075000X-0.662500X0.075000X0.662500X-0.075000X0.662500X0*%
%TD*%
%TA.AperFunction,SMDPad,CuDef*%
%ADD29R,1.900000X1.100000*%
%TD*%
%TA.AperFunction,SMDPad,CuDef*%
%ADD30RoundRect,0.140000X0.170000X-0.140000X0.170000X0.140000X-0.170000X0.140000X-0.170000X-0.140000X0*%
%TD*%
%TA.AperFunction,SMDPad,CuDef*%
%ADD31RoundRect,0.218750X-0.218750X-0.256250X0.218750X-0.256250X0.218750X0.256250X-0.218750X0.256250X0*%
%TD*%
%TA.AperFunction,SMDPad,CuDef*%
%ADD32RoundRect,0.062500X-0.375000X-0.062500X0.375000X-0.062500X0.375000X0.062500X-0.375000X0.062500X0*%
%TD*%
%TA.AperFunction,SMDPad,CuDef*%
%ADD33RoundRect,0.062500X-0.062500X-0.375000X0.062500X-0.375000X0.062500X0.375000X-0.062500X0.375000X0*%
%TD*%
%TA.AperFunction,SMDPad,CuDef*%
%ADD34R,5.100000X5.100000*%
%TD*%
%TA.AperFunction,ComponentPad*%
%ADD35C,1.450000*%
%TD*%
%TA.AperFunction,ComponentPad*%
%ADD36O,1.200000X1.900000*%
%TD*%
%TA.AperFunction,ViaPad*%
%ADD37C,0.400000*%
%TD*%
%TA.AperFunction,ViaPad*%
%ADD38C,0.800000*%
%TD*%
%TA.AperFunction,Conductor*%
%ADD39C,0.127000*%
%TD*%
%TA.AperFunction,Conductor*%
%ADD40C,0.254000*%
%TD*%
%TA.AperFunction,Conductor*%
%ADD41C,0.508000*%
%TD*%
%TA.AperFunction,Conductor*%
%ADD42C,0.200000*%
%TD*%
G04 APERTURE END LIST*
D10*
%TO.P,R20,1,1*%
%TO.N,+3V3*%
X110075000Y-92315000D03*
%TO.P,R20,2,2*%
%TO.N,/~{RESET}*%
X110075000Y-93335000D03*
%TD*%
D11*
%TO.P,TP71,1,1*%
%TO.N,+3V3*%
X99000000Y-82600000D03*
%TD*%
%TO.P,TP32,1,1*%
%TO.N,/LED2*%
X100000000Y-84400000D03*
%TD*%
%TO.P,TP30,1,1*%
%TO.N,/PWR(MFB)*%
X103100000Y-82600000D03*
%TD*%
D12*
%TO.P,C76,1,1*%
%TO.N,/AREF*%
X107000000Y-85520000D03*
%TO.P,C76,2,2*%
%TO.N,GND*%
X107000000Y-86480000D03*
%TD*%
D11*
%TO.P,TP33,1,1*%
%TO.N,/DN*%
X99966666Y-80800000D03*
%TD*%
D12*
%TO.P,C13,1,1*%
%TO.N,Net-(C13-Pad1)*%
X106825000Y-83545000D03*
%TO.P,C13,2,2*%
%TO.N,GND*%
X106825000Y-84505000D03*
%TD*%
D13*
%TO.P,C75,1,1*%
%TO.N,+1V8*%
X107370000Y-95275000D03*
%TO.P,C75,2,2*%
%TO.N,GND*%
X108330000Y-95275000D03*
%TD*%
D11*
%TO.P,TP34,1,1*%
%TO.N,/DP*%
X102033332Y-80800000D03*
%TD*%
%TO.P,TP70,1,1*%
%TO.N,VBUS*%
X104100000Y-80800000D03*
%TD*%
D14*
%TO.P,U3,1,DR1*%
%TO.N,/DR1*%
X76100000Y-95250000D03*
%TO.P,U3,2,RFS1*%
%TO.N,/RFS1*%
X77100000Y-95250000D03*
%TO.P,U3,3,SCLK1*%
%TO.N,/SCLK1*%
X78100000Y-95250000D03*
%TO.P,U3,4,DT1*%
%TO.N,/DT1*%
X79100000Y-95250000D03*
%TO.P,U3,5,MCLK1*%
%TO.N,/MCLK1*%
X80100000Y-95250000D03*
%TO.P,U3,6,AOHPR*%
%TO.N,/AOHPR*%
X81100000Y-95250000D03*
%TO.P,U3,7,AOHPM*%
%TO.N,/AOHPM*%
X82100000Y-95250000D03*
%TO.P,U3,8,AOHPL*%
%TO.N,/AOHPL*%
X83100000Y-95250000D03*
%TO.P,U3,9,MICN2*%
%TO.N,/MICN2*%
X84100000Y-95250000D03*
%TO.P,U3,10,MICP2*%
%TO.N,/MICP2*%
X85100000Y-95250000D03*
%TO.P,U3,11,AIR*%
%TO.N,/AIR*%
X86100000Y-95250000D03*
%TO.P,U3,12,AIL*%
%TO.N,/AIL*%
X87100000Y-95250000D03*
%TO.P,U3,13,MICN1*%
%TO.N,/MICN1*%
X88100000Y-95250000D03*
%TO.P,U3,14,MICP1*%
%TO.N,/MICP1*%
X89100000Y-95250000D03*
%TO.P,U3,15,MICBIAS*%
%TO.N,/MICBIAS*%
X90100000Y-95250000D03*
%TO.P,U3,16,GND*%
%TO.N,GND*%
X91100000Y-95250000D03*
%TO.P,U3,17,DMIC1_CLK*%
%TO.N,/DMIC1_CLK*%
X92100000Y-95250000D03*
%TO.P,U3,18,DMIC1_R*%
%TO.N,/DMIC1_R*%
X93100000Y-95250000D03*
%TO.P,U3,19,DMIC1_L*%
%TO.N,/DMIC1_L*%
X94100000Y-95250000D03*
%TO.P,U3,20,P3_2*%
%TO.N,/P3_2*%
X95100000Y-95250000D03*
D15*
%TO.P,U3,21,P2_6*%
%TO.N,/P2_6*%
X96750000Y-92500000D03*
%TO.P,U3,22,ADAP_IN*%
%TO.N,VBUS*%
X96750000Y-91500000D03*
%TO.P,U3,23,BAT_IN*%
%TO.N,/BAT_IN*%
X96750000Y-90500000D03*
%TO.P,U3,24,SYS_PWR*%
%TO.N,/SYS_PWR*%
X96750000Y-89500000D03*
%TO.P,U3,25,VDD_IO*%
%TO.N,/VDD_IO*%
X96750000Y-88500000D03*
%TO.P,U3,26,PWR(MFB)*%
%TO.N,/PWR(MFB)*%
X96750000Y-87500000D03*
%TO.P,U3,27,SK1_AMB_DET*%
%TO.N,/SK1_AMB_DET*%
X96750000Y-86500000D03*
%TO.P,U3,28,SK2_KEY_AD*%
%TO.N,/SK2_KEY_AD*%
X96750000Y-85500000D03*
%TO.P,U3,29,P8_6/UART_RXD*%
%TO.N,/BM83_UART_RX*%
X96750000Y-84500000D03*
%TO.P,U3,30,P8_5/UART_TXD*%
%TO.N,/BM83_UART_TX*%
X96750000Y-83500000D03*
D14*
%TO.P,U3,31,P3_4/UART_RTS*%
%TO.N,/P3_4*%
X95100000Y-80750000D03*
%TO.P,U3,32,LED1*%
%TO.N,/LED1*%
X94100000Y-80750000D03*
%TO.P,U3,33,P0_2*%
%TO.N,/P0_2*%
X93100000Y-80750000D03*
%TO.P,U3,34,LED2*%
%TO.N,/LED2*%
X92100000Y-80750000D03*
%TO.P,U3,35,P0_6*%
%TO.N,/P0_6*%
X91100000Y-80750000D03*
%TO.P,U3,36,DM*%
%TO.N,/DN*%
X90100000Y-80750000D03*
%TO.P,U3,37,DP*%
%TO.N,/DP*%
X89100000Y-80750000D03*
%TO.P,U3,38,P0_3*%
%TO.N,/P0_3*%
X88100000Y-80750000D03*
%TO.P,U3,39,P2_7*%
%TO.N,/P2_7*%
X87100000Y-80750000D03*
%TO.P,U3,40,P0_5*%
%TO.N,/P0_5*%
X86100000Y-80750000D03*
%TO.P,U3,41,P1_6/PWM1*%
%TO.N,/P1_6*%
X85100000Y-80750000D03*
%TO.P,U3,42,P2_3*%
%TO.N,/P2_3*%
X84100000Y-80750000D03*
%TO.P,U3,43,RST_N*%
%TO.N,/~{RESET}*%
X83100000Y-80750000D03*
%TO.P,U3,44,P0_1*%
%TO.N,/P0_1*%
X82100000Y-80750000D03*
%TO.P,U3,45,P0_7*%
%TO.N,/P0_7*%
X81100000Y-80750000D03*
%TO.P,U3,46,P1_2/TDI_CPU/SDL*%
%TO.N,/P1_2*%
X80100000Y-80750000D03*
%TO.P,U3,47,P1_3/TCK_CPU/SDA*%
%TO.N,/P1_3*%
X79100000Y-80750000D03*
%TO.P,U3,48,P3_7/UART_CTS*%
%TO.N,/P3_7*%
X78100000Y-80750000D03*
%TO.P,U3,49,P0_0/UART_TX_IND*%
%TO.N,/P0_0*%
X77100000Y-80750000D03*
D16*
%TO.P,U3,50,GND*%
%TO.N,GND*%
X76420000Y-91540000D03*
D14*
X76100000Y-80750000D03*
D17*
X86530000Y-83480000D03*
%TD*%
D18*
%TO.P,CN20,1,DAT2*%
%TO.N,unconnected-(CN20-Pad1)*%
X119905000Y-84150000D03*
%TO.P,CN20,2,CS*%
%TO.N,/D5*%
X121005000Y-84150000D03*
%TO.P,CN20,3,DATA_IN*%
%TO.N,/MOSI*%
X122105000Y-84150000D03*
%TO.P,CN20,4,SD_VDD*%
%TO.N,+3.3VA*%
X123205000Y-84150000D03*
%TO.P,CN20,5,SCLK*%
%TO.N,/SCLK*%
X124305000Y-84150000D03*
%TO.P,CN20,6,GND@3*%
%TO.N,GND*%
X125405000Y-84150000D03*
%TO.P,CN20,7,DATA_OUT*%
%TO.N,/MISO*%
X126505000Y-84150000D03*
%TO.P,CN20,8,DAT1*%
%TO.N,unconnected-(CN20-Pad8)*%
X127605000Y-84150000D03*
D19*
%TO.P,CN20,9*%
%TO.N,N/C*%
X128730000Y-93375000D03*
D20*
%TO.P,CN20,10*%
X117505000Y-94950000D03*
D21*
%TO.P,CN20,11*%
X117105000Y-92525000D03*
D22*
X117455000Y-84275000D03*
D23*
X128805000Y-84275000D03*
D24*
X129055000Y-91875000D03*
%TD*%
D10*
%TO.P,R21,1,1*%
%TO.N,Net-(R21-Pad1)*%
X108800000Y-92990000D03*
%TO.P,R21,2,2*%
%TO.N,+3.3VA*%
X108800000Y-94010000D03*
%TD*%
D11*
%TO.P,TP31,1,1*%
%TO.N,/LED1*%
X102100000Y-84400000D03*
%TD*%
D25*
%TO.P,SW1,1,P*%
%TO.N,/~{RESET}*%
X111550000Y-93350000D03*
X115650000Y-93350000D03*
%TO.P,SW1,2,S*%
%TO.N,GND*%
X115650000Y-94950000D03*
X111550000Y-94950000D03*
%TD*%
D26*
%TO.P,C10,1,1*%
%TO.N,Net-(C10-Pad1)*%
X107080000Y-80575000D03*
%TO.P,C10,2,2*%
%TO.N,GND*%
X106120000Y-80575000D03*
%TD*%
D12*
%TO.P,C30,1,1*%
%TO.N,VBUS*%
X98500000Y-94520000D03*
%TO.P,C30,2,2*%
%TO.N,GND*%
X98500000Y-95480000D03*
%TD*%
D27*
%TO.P,U2,1,MIC_P/LINEIN*%
%TO.N,unconnected-(U2-Pad1)*%
X98587500Y-88000000D03*
%TO.P,U2,2,MIC_N*%
%TO.N,unconnected-(U2-Pad2)*%
X98587500Y-88500000D03*
%TO.P,U2,3,XRESET*%
%TO.N,/~{RESET}*%
X98587500Y-89000000D03*
%TO.P,U2,4,DGND@0*%
%TO.N,GND*%
X98587500Y-89500000D03*
%TO.P,U2,5,CVDD@0*%
%TO.N,+1V8*%
X98587500Y-90000000D03*
%TO.P,U2,6,IOVDD@0*%
%TO.N,+3.3VA*%
X98587500Y-90500000D03*
%TO.P,U2,7,CVDD@1*%
%TO.N,+1V8*%
X98587500Y-91000000D03*
%TO.P,U2,8,DREQ*%
%TO.N,/D9*%
X98587500Y-91500000D03*
%TO.P,U2,9,GPIO2/DCLK*%
%TO.N,unconnected-(U2-Pad9)*%
X98587500Y-92000000D03*
%TO.P,U2,10,GPIO3/SDATA*%
%TO.N,unconnected-(U2-Pad10)*%
X98587500Y-92500000D03*
%TO.P,U2,11,GPIO6/I2S_SCLK*%
%TO.N,unconnected-(U2-Pad11)*%
X98587500Y-93000000D03*
%TO.P,U2,12,GPIO7/I2S_SDATA*%
%TO.N,unconnected-(U2-Pad12)*%
X98587500Y-93500000D03*
D28*
%TO.P,U2,13,XDCS/BSYNC*%
%TO.N,/D10*%
X100000000Y-94912500D03*
%TO.P,U2,14,IOVDD@1*%
%TO.N,+3.3VA*%
X100500000Y-94912500D03*
%TO.P,U2,15,VCO*%
%TO.N,/CLKOUT*%
X101000000Y-94912500D03*
%TO.P,U2,16,DGND@1*%
%TO.N,GND*%
X101500000Y-94912500D03*
%TO.P,U2,17,XTALOUT*%
%TO.N,Net-(C22-Pad1)*%
X102000000Y-94912500D03*
%TO.P,U2,18,XTALIN*%
%TO.N,Net-(C23-Pad1)*%
X102500000Y-94912500D03*
%TO.P,U2,19,IOVDD@2*%
%TO.N,+3.3VA*%
X103000000Y-94912500D03*
%TO.P,U2,20,DGND@2*%
%TO.N,GND*%
X103500000Y-94912500D03*
%TO.P,U2,21,DGND@3*%
X104000000Y-94912500D03*
%TO.P,U2,22,DGND@4*%
X104500000Y-94912500D03*
%TO.P,U2,23,XCS*%
%TO.N,/D6*%
X105000000Y-94912500D03*
%TO.P,U2,24,CVDD@2*%
%TO.N,+1V8*%
X105500000Y-94912500D03*
D27*
%TO.P,U2,25,GPIO5/I2S_MCLK*%
%TO.N,unconnected-(U2-Pad25)*%
X106912500Y-93500000D03*
%TO.P,U2,26,RX*%
%TO.N,Net-(R21-Pad1)*%
X106912500Y-93000000D03*
%TO.P,U2,27,TX*%
%TO.N,unconnected-(U2-Pad27)*%
X106912500Y-92500000D03*
%TO.P,U2,28,SCLK*%
%TO.N,/SCLK*%
X106912500Y-92000000D03*
%TO.P,U2,29,SI*%
%TO.N,/MOSI*%
X106912500Y-91500000D03*
%TO.P,U2,30,SO*%
%TO.N,/MISO*%
X106912500Y-91000000D03*
%TO.P,U2,31,CVDD@3*%
%TO.N,+1V8*%
X106912500Y-90500000D03*
%TO.P,U2,32,XTEST*%
%TO.N,+3.3VA*%
X106912500Y-90000000D03*
%TO.P,U2,33,GPIO0*%
%TO.N,/GPIO0*%
X106912500Y-89500000D03*
%TO.P,U2,34,GPIO1*%
%TO.N,/GPIO1*%
X106912500Y-89000000D03*
%TO.P,U2,35,GND*%
%TO.N,GND*%
X106912500Y-88500000D03*
%TO.P,U2,36,GPIO4/I2S_LROUT*%
%TO.N,unconnected-(U2-Pad36)*%
X106912500Y-88000000D03*
D28*
%TO.P,U2,37,AGND@0*%
%TO.N,GNDA*%
X105500000Y-86587500D03*
%TO.P,U2,38,AVDD@0*%
%TO.N,VDDA*%
X105000000Y-86587500D03*
%TO.P,U2,39,RIGHT*%
%TO.N,/vs1053_RIGHT*%
X104500000Y-86587500D03*
%TO.P,U2,40,AGND@1*%
%TO.N,GNDA*%
X104000000Y-86587500D03*
%TO.P,U2,41,AGND@2*%
X103500000Y-86587500D03*
%TO.P,U2,42,GBUF*%
%TO.N,unconnected-(U2-Pad42)*%
X103000000Y-86587500D03*
%TO.P,U2,43,AVDD@1*%
%TO.N,VDDA*%
X102500000Y-86587500D03*
%TO.P,U2,44,RCAP*%
%TO.N,Net-(C20-Pad1)*%
X102000000Y-86587500D03*
%TO.P,U2,45,AVDD@2*%
%TO.N,VDDA*%
X101500000Y-86587500D03*
%TO.P,U2,46,LEFT*%
%TO.N,/vs1053_LEFT*%
X101000000Y-86587500D03*
%TO.P,U2,47,AGND@3*%
%TO.N,GNDA*%
X100500000Y-86587500D03*
%TO.P,U2,48,LINE2*%
%TO.N,unconnected-(U2-Pad48)*%
X100000000Y-86587500D03*
%TD*%
D29*
%TO.P,X10,P$1,P$1*%
%TO.N,Net-(C12-Pad1)*%
X105100000Y-82400000D03*
%TO.P,X10,P$2,P$2*%
%TO.N,Net-(C13-Pad1)*%
X105100000Y-84800000D03*
%TD*%
D11*
%TO.P,TP73,1,1*%
%TO.N,GND*%
X97900000Y-80800000D03*
%TD*%
D30*
%TO.P,C12,1,1*%
%TO.N,Net-(C12-Pad1)*%
X106825000Y-82530000D03*
%TO.P,C12,2,2*%
%TO.N,GND*%
X106825000Y-81570000D03*
%TD*%
D12*
%TO.P,C21,1,1*%
%TO.N,/~{RESET}*%
X110075000Y-94370000D03*
%TO.P,C21,2,2*%
%TO.N,GND*%
X110075000Y-95330000D03*
%TD*%
D31*
%TO.P,D10,1,C*%
%TO.N,GND*%
X113712500Y-91425000D03*
%TO.P,D10,2,A*%
%TO.N,Net-(D10-Pad2)*%
X115287500Y-91425000D03*
%TD*%
D11*
%TO.P,TP72,1,1*%
%TO.N,+1V8*%
X101050000Y-82600000D03*
%TD*%
D32*
%TO.P,U1,1,PA00/EINT0/SERCOM1.0*%
%TO.N,Net-(C12-Pad1)*%
X108587500Y-81987500D03*
%TO.P,U1,2,PA01/EINT1/SERCOM1.1*%
%TO.N,Net-(C13-Pad1)*%
X108587500Y-82487500D03*
%TO.P,U1,3,PA02/EINT2/AIN0/Y0/VOUT*%
%TO.N,/A0*%
X108587500Y-82987500D03*
%TO.P,U1,4,PA03/EINT3/VREFA/AIN1*%
%TO.N,/AREF*%
X108587500Y-83487500D03*
%TO.P,U1,5,GNDA*%
%TO.N,GND*%
X108587500Y-83987500D03*
%TO.P,U1,6,VDDA*%
%TO.N,+3V3*%
X108587500Y-84487500D03*
%TO.P,U1,7,PB08/I8/AIN2/SERCOM4.0*%
%TO.N,/A1*%
X108587500Y-84987500D03*
%TO.P,U1,8,PB09/I9/AIN3/SERCOM4.1*%
%TO.N,/A2*%
X108587500Y-85487500D03*
%TO.P,U1,9,PA04/EINT4/VREFB/AIN4/SERCOM0.0*%
%TO.N,/A3*%
X108587500Y-85987500D03*
%TO.P,U1,10,PA05/EINT5/AIN5/SERCOM0.1*%
%TO.N,/A4*%
X108587500Y-86487500D03*
%TO.P,U1,11,PA06/EINT6/AIN6/SERCOM0.2*%
%TO.N,/CHRG_STAT*%
X108587500Y-86987500D03*
%TO.P,U1,12,PA07/I7/AIN7/SERCOM0.3/I2SD0*%
%TO.N,/D9*%
X108587500Y-87487500D03*
D33*
%TO.P,U1,13,PA08/I2C/AIN16/SERCOM0+2.0/I2SD1*%
%TO.N,/D4*%
X109275000Y-88175000D03*
%TO.P,U1,14,PA09/I2C/I9/AIN17/SERCOM0+2.1/I2SMC*%
%TO.N,/D3*%
X109775000Y-88175000D03*
%TO.P,U1,15,PA10/I10/AIN18/SERCOM0+2.2/I2SCK*%
%TO.N,/BM83_UART_RX*%
X110275000Y-88175000D03*
%TO.P,U1,16,PA11/I11/AIN19/SERCOM0+2.3/I2SF0*%
%TO.N,/BM83_UART_TX*%
X110775000Y-88175000D03*
%TO.P,U1,17,VDDIO*%
%TO.N,+3V3*%
X111275000Y-88175000D03*
%TO.P,U1,18,GND*%
%TO.N,GND*%
X111775000Y-88175000D03*
%TO.P,U1,19,PB10/I10/SERCOM4.2/I2SMC*%
%TO.N,/MOSI*%
X112275000Y-88175000D03*
%TO.P,U1,20,PB11/I11/SERCOM4.3/I2SCL*%
%TO.N,/SCLK*%
X112775000Y-88175000D03*
%TO.P,U1,21,PA12/I12/I2C/SERCOM2+4.0*%
%TO.N,/MISO*%
X113275000Y-88175000D03*
%TO.P,U1,22,PA13/I13/I2C/SERCOM2+4.1*%
%TO.N,unconnected-(U1-Pad22)*%
X113775000Y-88175000D03*
%TO.P,U1,23,PA14/I14/SERCOM2+4.2*%
%TO.N,/D2*%
X114275000Y-88175000D03*
%TO.P,U1,24,PA15/I15/SERCOM3+4.3*%
%TO.N,/D5*%
X114775000Y-88175000D03*
D32*
%TO.P,U1,25,PA16/I2C/I0/SERCOM1+3.0*%
%TO.N,/D11*%
X115462500Y-87487500D03*
%TO.P,U1,26,PA17/I2C/I1/SERCOM1+3.1*%
%TO.N,/D13*%
X115462500Y-86987500D03*
%TO.P,U1,27,PA18/I2/SERCOM1+3.2*%
%TO.N,/D10*%
X115462500Y-86487500D03*
%TO.P,U1,28,PA19/I3/SERCOM1+3.3/I2SD0*%
%TO.N,/D12*%
X115462500Y-85987500D03*
%TO.P,U1,29,PA20/I4/SERCOM3+5.2/I2SSC*%
%TO.N,/D6*%
X115462500Y-85487500D03*
%TO.P,U1,30,PA21/I5/SERCOM3+5.3/I2SFS0*%
%TO.N,/D7*%
X115462500Y-84987500D03*
%TO.P,U1,31,PA22/I2C/I6/SERCOM3+5.0*%
%TO.N,/SDA*%
X115462500Y-84487500D03*
%TO.P,U1,32,PA23/I2C/I7/SERCOM3+5.1/SOF*%
%TO.N,/SCL*%
X115462500Y-83987500D03*
%TO.P,U1,33,PA24/I12/SERCOM3+5.2/D-*%
%TO.N,/D-*%
X115462500Y-83487500D03*
%TO.P,U1,34,PA25/I13/SERCOM3+5.3/D+*%
%TO.N,/D+*%
X115462500Y-82987500D03*
%TO.P,U1,35,GND*%
%TO.N,GND*%
X115462500Y-82487500D03*
%TO.P,U1,36,VDDIO*%
%TO.N,+3V3*%
X115462500Y-81987500D03*
D33*
%TO.P,U1,37,PB22/I6/SERCOM5.2*%
%TO.N,unconnected-(U1-Pad37)*%
X114775000Y-81300000D03*
%TO.P,U1,38,PB23/I7/SERCOM5.3*%
%TO.N,unconnected-(U1-Pad38)*%
X114275000Y-81300000D03*
%TO.P,U1,39,PA27/I15*%
%TO.N,unconnected-(U1-Pad39)*%
X113775000Y-81300000D03*
%TO.P,U1,40,/RESET*%
%TO.N,/~{RESET}*%
X113275000Y-81300000D03*
%TO.P,U1,41,PA28/I8*%
%TO.N,unconnected-(U1-Pad41)*%
X112775000Y-81300000D03*
%TO.P,U1,42,GND*%
%TO.N,GND*%
X112275000Y-81300000D03*
%TO.P,U1,43,VDDCORE*%
%TO.N,Net-(C10-Pad1)*%
X111775000Y-81300000D03*
%TO.P,U1,44,VDDIN*%
%TO.N,+3V3*%
X111275000Y-81300000D03*
%TO.P,U1,45,PA30/I10/SECOM1.2/SWCLK*%
%TO.N,/SWCLK*%
X110775000Y-81300000D03*
%TO.P,U1,46,PA31/I11/SECOM1.3/SWDIO*%
%TO.N,/SWDIO*%
X110275000Y-81300000D03*
%TO.P,U1,47,PB02/I2/AIN10/SERCOM5.0*%
%TO.N,/A5*%
X109775000Y-81300000D03*
%TO.P,U1,48,PB03/I3/AIN11/SERCOM5.1*%
%TO.N,unconnected-(U1-Pad48)*%
X109275000Y-81300000D03*
D34*
%TO.P,U1,49,GND*%
%TO.N,GND*%
X112025000Y-84737500D03*
%TD*%
D35*
%TO.P,CN70,6,GND*%
%TO.N,GND*%
X120500000Y-91900000D03*
D36*
X119500000Y-94600000D03*
D35*
X125500000Y-91900000D03*
D36*
X126500000Y-94600000D03*
%TD*%
D37*
%TO.N,GND*%
X79132003Y-90500000D03*
X101089163Y-93302621D03*
X105600000Y-80763000D03*
X76100000Y-81900000D03*
X85000000Y-92600000D03*
X110300000Y-86500000D03*
X104100000Y-93900000D03*
X76450000Y-93300000D03*
X85000000Y-88900000D03*
X91100000Y-94000000D03*
X100000000Y-87724500D03*
X113781250Y-82981250D03*
X120800000Y-88600000D03*
X106800000Y-87037011D03*
D38*
X100752637Y-90330920D03*
D37*
X110300000Y-83000000D03*
X109240000Y-94830000D03*
X82100000Y-89800000D03*
X113800000Y-86500000D03*
X85200000Y-83200000D03*
X97900000Y-80800000D03*
D38*
X126100000Y-87900000D03*
D37*
X90584423Y-91759073D03*
X99300000Y-95300000D03*
%TO.N,Net-(C20-Pad1)*%
X102645499Y-87839545D03*
%TO.N,GNDA*%
X103750000Y-87725000D03*
X95527595Y-92493646D03*
X105900000Y-86073989D03*
X101219399Y-85317553D03*
%TO.N,/~{RESET}*%
X83100000Y-81800000D03*
X113300000Y-80600000D03*
X109365892Y-93500017D03*
X103322740Y-91964840D03*
%TO.N,Net-(C22-Pad1)*%
X101900000Y-93800000D03*
%TO.N,Net-(C23-Pad1)*%
X101967561Y-93084032D03*
%TO.N,+3.3VA*%
X86980500Y-94100498D03*
X122785880Y-87463000D03*
X104100000Y-93100000D03*
X99600000Y-90500000D03*
X107900000Y-90000000D03*
X100419666Y-93619666D03*
X108100000Y-93973989D03*
%TO.N,+3V3*%
X111900000Y-90159700D03*
X98800000Y-82906060D03*
X110100000Y-91548711D03*
X76950000Y-89400000D03*
X107925000Y-84500000D03*
X89400000Y-93200000D03*
X108600000Y-80763000D03*
X82800000Y-92700000D03*
X83600000Y-88900000D03*
X96663104Y-93199565D03*
X115500000Y-80831011D03*
%TO.N,VDDA*%
X105500000Y-87800000D03*
X102226162Y-85475221D03*
%TO.N,VBUS*%
X104125000Y-80800000D03*
X94220000Y-88960000D03*
%TO.N,+1V8*%
X101600000Y-90530920D03*
X98254369Y-87090849D03*
X84800000Y-91310480D03*
X96710000Y-94230000D03*
%TO.N,/MISO*%
X110500931Y-90622700D03*
X113238000Y-90437000D03*
X126505000Y-86095000D03*
%TO.N,/SCLK*%
X124300000Y-86536480D03*
X108701608Y-92231489D03*
X112700000Y-91400000D03*
%TO.N,/MOSI*%
X109400931Y-91700931D03*
X122000000Y-86536480D03*
X112000000Y-91100000D03*
%TO.N,/D5*%
X116259517Y-91859517D03*
X120977967Y-85634958D03*
X115810862Y-89073480D03*
%TO.N,/D13*%
X116816826Y-91305571D03*
%TO.N,/GPIO1*%
X111600000Y-92400000D03*
%TO.N,/D6*%
X105437000Y-92200498D03*
X117529621Y-90979051D03*
%TO.N,/GPIO0*%
X110794500Y-92400000D03*
%TO.N,/SCL*%
X116303119Y-83906021D03*
%TO.N,/SDA*%
X116300000Y-84700000D03*
%TO.N,/D2*%
X94238503Y-88033989D03*
X114500000Y-89000000D03*
X95300000Y-82956604D03*
%TO.N,/CHRG_STAT*%
X92600000Y-85800000D03*
X95973500Y-93900000D03*
X107495210Y-87295210D03*
%TO.N,/A4*%
X90200000Y-86400000D03*
X88400500Y-91520949D03*
X107800000Y-86600000D03*
%TO.N,/vs1053_RIGHT*%
X95021962Y-87145007D03*
X104582417Y-87713502D03*
X95524234Y-91140347D03*
%TO.N,/vs1053_LEFT*%
X95584287Y-89963046D03*
X101219594Y-87718396D03*
X95500000Y-87700000D03*
%TO.N,/AOHPR*%
X81454173Y-94299989D03*
X81675919Y-92112023D03*
X92834598Y-92734598D03*
%TO.N,/AOHPL*%
X82100000Y-92720949D03*
X92900000Y-93500000D03*
X82800000Y-94300000D03*
%TO.N,/LED1*%
X94175000Y-81704084D03*
X102100000Y-84000000D03*
%TO.N,/LED2*%
X100000000Y-84400000D03*
X92150000Y-81704084D03*
%TO.N,/D9*%
X108200000Y-87900000D03*
X99600000Y-91500000D03*
%TO.N,/D4*%
X84800000Y-93400000D03*
X90900000Y-86500000D03*
X108900000Y-88012000D03*
%TO.N,/D3*%
X108826011Y-88900000D03*
%TO.N,/BM83_UART_RX*%
X109958987Y-89043649D03*
X98000000Y-83877880D03*
%TO.N,/BM83_UART_TX*%
X110726967Y-88828112D03*
X97700000Y-83000000D03*
%TO.N,/D11*%
X94600000Y-82956604D03*
X116353826Y-88600000D03*
X93569077Y-87716831D03*
%TO.N,/D10*%
X99290500Y-94500000D03*
X116400000Y-86800000D03*
%TO.N,/D7*%
X93461279Y-83440543D03*
X92900000Y-91808587D03*
X117600000Y-85424502D03*
%TO.N,/D-*%
X118033623Y-81407894D03*
%TO.N,/D+*%
X117538647Y-80912918D03*
%TO.N,/DMIC1_CLK*%
X80468494Y-94100000D03*
%TO.N,/DMIC1_L*%
X80931494Y-93373989D03*
%TO.N,Net-(D10-Pad2)*%
X114936180Y-94150000D03*
%TO.N,/A3*%
X93000000Y-88900000D03*
X92900000Y-84700000D03*
X107778315Y-85707885D03*
%TD*%
D39*
%TO.N,Net-(C10-Pad1)*%
X107391980Y-80263020D02*
X107080000Y-80575000D01*
X111135874Y-80263020D02*
X107391980Y-80263020D01*
X111775000Y-81300000D02*
X111775000Y-80575000D01*
X111775000Y-80575000D02*
X111463020Y-80263020D01*
X111463020Y-80263020D02*
X111063020Y-80263020D01*
%TO.N,GND*%
X105788000Y-80575000D02*
X105600000Y-80763000D01*
D40*
X103848540Y-93900000D02*
X104100000Y-93900000D01*
X115462500Y-82487500D02*
X114275000Y-82487500D01*
D41*
X86530000Y-83230000D02*
X85230000Y-83230000D01*
X76100000Y-80500000D02*
X76100000Y-81900000D01*
D39*
X106120000Y-80745000D02*
X106450000Y-81075000D01*
X101436989Y-94849489D02*
X101436989Y-93650447D01*
D40*
X103500000Y-94248540D02*
X103848540Y-93900000D01*
X76450000Y-91320000D02*
X76420000Y-91290000D01*
D39*
X107075000Y-86480000D02*
X107075000Y-86762011D01*
X106426980Y-84903020D02*
X106426980Y-85906980D01*
X110075000Y-95330000D02*
X109740000Y-95330000D01*
D40*
X98587500Y-89500000D02*
X99921717Y-89500000D01*
D41*
X125405000Y-85405000D02*
X125405000Y-87205000D01*
D40*
X104500000Y-94912500D02*
X104500000Y-94300000D01*
D39*
X111550000Y-94950000D02*
X113700000Y-92800000D01*
D40*
X104500000Y-94300000D02*
X104100000Y-93900000D01*
X104000000Y-94912500D02*
X104000000Y-94000000D01*
X111775000Y-88175000D02*
X111775000Y-84987500D01*
X103500000Y-94912500D02*
X103500000Y-94248540D01*
D41*
X85230000Y-83230000D02*
X85200000Y-83200000D01*
D39*
X113712500Y-92787500D02*
X113712500Y-91425000D01*
D40*
X91100000Y-95500000D02*
X91100000Y-94000000D01*
X114275000Y-82487500D02*
X113781250Y-82981250D01*
X98500000Y-95480000D02*
X99120000Y-95480000D01*
X99921717Y-89500000D02*
X100752637Y-90330920D01*
D41*
X125405000Y-87205000D02*
X126100000Y-87900000D01*
D39*
X109740000Y-95330000D02*
X109240000Y-94830000D01*
X107075000Y-86762011D02*
X106800000Y-87037011D01*
D40*
X113781250Y-82981250D02*
X112025000Y-84737500D01*
X112275000Y-81300000D02*
X112275000Y-84487500D01*
X104000000Y-94000000D02*
X104100000Y-93900000D01*
D39*
X101436989Y-93650447D02*
X101089163Y-93302621D01*
D40*
X108587500Y-83987500D02*
X111275000Y-83987500D01*
D39*
X106120000Y-80575000D02*
X106120000Y-80745000D01*
D40*
X112275000Y-84487500D02*
X112025000Y-84737500D01*
X99120000Y-95480000D02*
X99300000Y-95300000D01*
X76450000Y-93300000D02*
X76450000Y-91320000D01*
D39*
X111170000Y-95330000D02*
X111550000Y-94950000D01*
X108330000Y-95275000D02*
X108795000Y-95275000D01*
X101500000Y-94912500D02*
X101436989Y-94849489D01*
D40*
X102583557Y-88500000D02*
X100775500Y-88500000D01*
D39*
X106825000Y-81450000D02*
X106450000Y-81075000D01*
D40*
X111775000Y-84987500D02*
X112025000Y-84737500D01*
X102583557Y-88500000D02*
X106912500Y-88500000D01*
D39*
X107075000Y-86480000D02*
X106980000Y-86480000D01*
X113700000Y-92800000D02*
X113712500Y-92787500D01*
X106825000Y-81570000D02*
X106825000Y-81450000D01*
X108795000Y-95275000D02*
X109240000Y-94830000D01*
D40*
X100775500Y-88500000D02*
X100000000Y-87724500D01*
D39*
X110075000Y-95330000D02*
X111170000Y-95330000D01*
X106120000Y-80575000D02*
X105788000Y-80575000D01*
D41*
X125405000Y-84150000D02*
X125405000Y-85405000D01*
D40*
X111275000Y-83987500D02*
X112025000Y-84737500D01*
D39*
X106825000Y-84505000D02*
X106426980Y-84903020D01*
X106426980Y-85906980D02*
X107000000Y-86480000D01*
%TO.N,Net-(C12-Pad1)*%
X106695000Y-82400000D02*
X105100000Y-82400000D01*
X107367500Y-81987500D02*
X106825000Y-82530000D01*
X108587500Y-81987500D02*
X107367500Y-81987500D01*
X106825000Y-82530000D02*
X106695000Y-82400000D01*
%TO.N,Net-(C13-Pad1)*%
X106825000Y-83545000D02*
X107130000Y-83545000D01*
X108187500Y-82487500D02*
X108587500Y-82487500D01*
X107130000Y-83545000D02*
X108187500Y-82487500D01*
X105570000Y-84800000D02*
X106825000Y-83545000D01*
X105100000Y-84800000D02*
X105570000Y-84800000D01*
%TO.N,Net-(C20-Pad1)*%
X102000000Y-87381994D02*
X102457551Y-87839545D01*
X102457551Y-87839545D02*
X102645499Y-87839545D01*
X102000000Y-87381994D02*
X102000000Y-86587500D01*
D40*
%TO.N,GNDA*%
X100500000Y-85782165D02*
X100964612Y-85317553D01*
X100964612Y-85317553D02*
X101219399Y-85317553D01*
X100500000Y-86587500D02*
X100500000Y-85782165D01*
D39*
X105500000Y-86587500D02*
X105500000Y-86473989D01*
X105500000Y-86473989D02*
X105900000Y-86073989D01*
D41*
X103750000Y-87725000D02*
X103750000Y-86075000D01*
D39*
%TO.N,/~{RESET}*%
X118496634Y-92759388D02*
X117768011Y-93488011D01*
X117768011Y-93488011D02*
X115788011Y-93488011D01*
X109530909Y-93335000D02*
X109365892Y-93500017D01*
X113531989Y-80368011D02*
X117968011Y-80368011D01*
X113275000Y-80625000D02*
X113300000Y-80600000D01*
X115788011Y-93488011D02*
X115650000Y-93350000D01*
X110075000Y-94370000D02*
X110075000Y-93335000D01*
X110075000Y-93335000D02*
X110090000Y-93350000D01*
X113300000Y-80600000D02*
X113531989Y-80368011D01*
X103322740Y-91964840D02*
X103322740Y-91598862D01*
X118496634Y-80896634D02*
X118496634Y-92759388D01*
X117968011Y-80368011D02*
X118496634Y-80896634D01*
X103322740Y-91598862D02*
X100723878Y-89000000D01*
X100723878Y-89000000D02*
X98587500Y-89000000D01*
X113275000Y-81300000D02*
X113275000Y-80625000D01*
X110090000Y-93350000D02*
X111550000Y-93350000D01*
X83100000Y-80500000D02*
X83100000Y-81800000D01*
X110075000Y-93335000D02*
X109530909Y-93335000D01*
%TO.N,Net-(C22-Pad1)*%
X102000000Y-94912500D02*
X102000000Y-93900000D01*
X102000000Y-93900000D02*
X101900000Y-93800000D01*
%TO.N,Net-(C23-Pad1)*%
X102500000Y-93616471D02*
X101967561Y-93084032D01*
X102500000Y-94912500D02*
X102500000Y-93616471D01*
%TO.N,+3.3VA*%
X123205000Y-84150000D02*
X123205000Y-87043880D01*
X108136011Y-94010000D02*
X108100000Y-93973989D01*
X103000000Y-94196968D02*
X104096968Y-93100000D01*
D40*
X100500000Y-93700000D02*
X100419666Y-93619666D01*
X98587500Y-90500000D02*
X99600000Y-90500000D01*
X107900000Y-90000000D02*
X106912500Y-90000000D01*
D39*
X104096968Y-93100000D02*
X104100000Y-93100000D01*
X108800000Y-94010000D02*
X108136011Y-94010000D01*
X103000000Y-94912500D02*
X103000000Y-94196968D01*
X123205000Y-87043880D02*
X122785880Y-87463000D01*
D40*
X100500000Y-94912500D02*
X100500000Y-93700000D01*
D39*
%TO.N,+3V3*%
X109000520Y-80599480D02*
X108922085Y-80599480D01*
X115462500Y-80868511D02*
X115500000Y-80831011D01*
X111275000Y-89175000D02*
X111900000Y-89800000D01*
X110075000Y-92315000D02*
X110075000Y-91573711D01*
X107937500Y-84487500D02*
X107925000Y-84500000D01*
X111275000Y-81300000D02*
X111275000Y-80875000D01*
X108587500Y-84487500D02*
X107937500Y-84487500D01*
X115462500Y-81987500D02*
X115462500Y-80868511D01*
X108922085Y-80599480D02*
X108900520Y-80599480D01*
X108763520Y-80599480D02*
X108600000Y-80763000D01*
X99000000Y-82600000D02*
X99000000Y-82706060D01*
X111275000Y-80875000D02*
X110999480Y-80599480D01*
X99000000Y-82706060D02*
X98800000Y-82906060D01*
X110075000Y-91573711D02*
X110100000Y-91548711D01*
X110999480Y-80599480D02*
X109000520Y-80599480D01*
X111900000Y-89800000D02*
X111900000Y-90159700D01*
X108900520Y-80599480D02*
X108763520Y-80599480D01*
X111275000Y-88175000D02*
X111275000Y-89175000D01*
D40*
%TO.N,VDDA*%
X101523480Y-85758685D02*
X101782165Y-85500000D01*
X102217835Y-85500000D02*
X102217835Y-85483548D01*
X102217835Y-85483548D02*
X102226162Y-85475221D01*
X101512500Y-86587500D02*
X101523480Y-86576520D01*
X105407165Y-87800000D02*
X105000000Y-87392835D01*
X101523480Y-86576520D02*
X101523480Y-85758685D01*
X101500000Y-86587500D02*
X101512500Y-86587500D01*
X102217835Y-85500000D02*
X102500000Y-85782165D01*
X101782165Y-85500000D02*
X102217835Y-85500000D01*
X102500000Y-85782165D02*
X102500000Y-86587500D01*
X105000000Y-87392835D02*
X105000000Y-86587500D01*
X105500000Y-87800000D02*
X105407165Y-87800000D01*
%TO.N,VBUS*%
X96833142Y-91666858D02*
X95256858Y-91666858D01*
X94170000Y-89010000D02*
X94220000Y-88960000D01*
X95256858Y-91666858D02*
X94170000Y-90580000D01*
X94170000Y-90580000D02*
X94170000Y-89010000D01*
D39*
%TO.N,+1V8*%
X84936480Y-91446960D02*
X86670498Y-91446960D01*
X99588020Y-92488020D02*
X104494680Y-92488020D01*
X101050000Y-82600000D02*
X100100000Y-82600000D01*
X97026980Y-93913020D02*
X96710000Y-94230000D01*
X101136989Y-90993931D02*
X101600000Y-90530920D01*
X86670498Y-91446960D02*
X87207499Y-91983960D01*
X100000000Y-91000000D02*
X100063011Y-91063011D01*
X104494680Y-92488020D02*
X105245213Y-91737487D01*
X93690289Y-92271587D02*
X95818702Y-94400000D01*
X87207499Y-91983960D02*
X88781200Y-91983960D01*
X93690278Y-92271598D02*
X93690289Y-92271587D01*
X100063011Y-90936989D02*
X100063011Y-91063011D01*
X99390012Y-93913020D02*
X97026980Y-93913020D01*
X105500000Y-94912500D02*
X105900000Y-94512500D01*
X100063011Y-91691787D02*
X99588020Y-92166778D01*
X96540000Y-94400000D02*
X96710000Y-94230000D01*
X99754798Y-90000000D02*
X100063011Y-90308213D01*
X106912500Y-90500000D02*
X105900000Y-90500000D01*
X91079635Y-90643022D02*
X92708213Y-92271598D01*
X107007500Y-94912500D02*
X107370000Y-95275000D01*
X88781200Y-91983960D02*
X90122138Y-90643022D01*
X99588020Y-92488020D02*
X99588020Y-92166778D01*
X105837487Y-91737487D02*
X105900000Y-91800000D01*
X84800000Y-91310480D02*
X84936480Y-91446960D01*
X100119953Y-90993931D02*
X101136989Y-90993931D01*
X100063011Y-90308213D02*
X100063011Y-90936989D01*
X90122138Y-90643022D02*
X91079635Y-90643022D01*
X98400000Y-86945218D02*
X98254369Y-87090849D01*
X98587500Y-90000000D02*
X99754798Y-90000000D01*
X99390012Y-93913020D02*
X99588020Y-93715012D01*
X98587500Y-91000000D02*
X100000000Y-91000000D01*
X100063011Y-90936989D02*
X100119953Y-90993931D01*
X105500000Y-94912500D02*
X107007500Y-94912500D01*
X100100000Y-82600000D02*
X98400000Y-84300000D01*
X105900000Y-91800000D02*
X105900000Y-90500000D01*
X105900000Y-94512500D02*
X105900000Y-91800000D01*
X95818702Y-94400000D02*
X96540000Y-94400000D01*
X100063011Y-91063011D02*
X100063011Y-91691787D01*
X92708213Y-92271598D02*
X93690278Y-92271598D01*
X99588020Y-93715012D02*
X99588020Y-92488020D01*
X105245213Y-91737487D02*
X105837487Y-91737487D01*
X98400000Y-84300000D02*
X98400000Y-86945218D01*
%TO.N,/AREF*%
X107398020Y-84279126D02*
X108189646Y-83487500D01*
X108189646Y-83487500D02*
X108587500Y-83487500D01*
X107398020Y-85196980D02*
X107398020Y-84279126D01*
X107075000Y-85520000D02*
X107398020Y-85196980D01*
%TO.N,/MISO*%
X110123631Y-91000000D02*
X110500931Y-90622700D01*
X126505000Y-84150000D02*
X126505000Y-86095000D01*
X106912500Y-91000000D02*
X110123631Y-91000000D01*
X113275000Y-88175000D02*
X113275000Y-90400000D01*
X113275000Y-90400000D02*
X113238000Y-90437000D01*
%TO.N,/SCLK*%
X124305000Y-86531480D02*
X124305000Y-84150000D01*
X112775000Y-91325000D02*
X112775000Y-88175000D01*
X112700000Y-91400000D02*
X112775000Y-91325000D01*
X106912500Y-92000000D02*
X108470119Y-92000000D01*
X124300000Y-86536480D02*
X124305000Y-86531480D01*
X108470119Y-92000000D02*
X108701608Y-92231489D01*
%TO.N,/MOSI*%
X106912500Y-91500000D02*
X109200000Y-91500000D01*
X109200000Y-91500000D02*
X109400931Y-91700931D01*
X122105000Y-86431480D02*
X122000000Y-86536480D01*
X112275000Y-89375000D02*
X112400000Y-89500000D01*
X112400000Y-90700000D02*
X112400000Y-89500000D01*
X112000000Y-91100000D02*
X112400000Y-90700000D01*
X112275000Y-88175000D02*
X112275000Y-89375000D01*
X122105000Y-84150000D02*
X122105000Y-86431480D01*
%TO.N,/D5*%
X121005000Y-85607925D02*
X121005000Y-84150000D01*
X114775000Y-88175000D02*
X114912382Y-88175000D01*
X114912382Y-88175000D02*
X115810862Y-89073480D01*
X120977967Y-85634958D02*
X121005000Y-85607925D01*
X116259517Y-89522135D02*
X116259517Y-91859517D01*
X115810862Y-89073480D02*
X116259517Y-89522135D01*
%TO.N,/D13*%
X116816826Y-87871624D02*
X116816826Y-91305571D01*
X115462500Y-86987500D02*
X115932702Y-86987500D01*
X115932702Y-86987500D02*
X116816826Y-87871624D01*
%TO.N,/GPIO1*%
X111400000Y-90100000D02*
X110900000Y-89600000D01*
X108871213Y-89600000D02*
X110900000Y-89600000D01*
X108871213Y-89600000D02*
X108271213Y-89000000D01*
X111400000Y-92200000D02*
X111600000Y-92400000D01*
X108271213Y-89000000D02*
X106912500Y-89000000D01*
X111400000Y-90100000D02*
X111400000Y-92200000D01*
%TO.N,/D6*%
X105000000Y-92637000D02*
X105000498Y-92637000D01*
X105000000Y-94912500D02*
X105000000Y-92637000D01*
X105000498Y-92637000D02*
X105437000Y-92200498D01*
X117529621Y-90979051D02*
X117529621Y-87229621D01*
X117529621Y-87156767D02*
X117529621Y-87229621D01*
X115462500Y-85487500D02*
X115860354Y-85487500D01*
X115860354Y-85487500D02*
X117529621Y-87156767D01*
%TO.N,/GPIO0*%
X110800000Y-92395700D02*
X111073480Y-92122220D01*
X111073480Y-90235250D02*
X110764750Y-89926520D01*
X111073480Y-92122220D02*
X111073480Y-90235250D01*
X110764750Y-89926520D02*
X108735964Y-89926520D01*
X110800000Y-92400000D02*
X110800000Y-92395700D01*
X108735964Y-89926520D02*
X108309443Y-89500000D01*
X108309443Y-89500000D02*
X106912500Y-89500000D01*
X110794500Y-92400000D02*
X110800000Y-92400000D01*
%TO.N,Net-(R21-Pad1)*%
X106922500Y-92990000D02*
X106912500Y-93000000D01*
X108800000Y-92990000D02*
X106922500Y-92990000D01*
%TO.N,/SCL*%
X115462500Y-83987500D02*
X116221640Y-83987500D01*
X116221640Y-83987500D02*
X116303119Y-83906021D01*
%TO.N,/SDA*%
X116087500Y-84487500D02*
X116300000Y-84700000D01*
X115462500Y-84487500D02*
X116087500Y-84487500D01*
%TO.N,/D2*%
X95300000Y-82956604D02*
X94238503Y-84018101D01*
X114275000Y-88775000D02*
X114500000Y-89000000D01*
X94238503Y-84018101D02*
X94238503Y-88033989D01*
X114275000Y-88175000D02*
X114275000Y-88775000D01*
%TO.N,/CHRG_STAT*%
X93500000Y-88745202D02*
X92563000Y-87808202D01*
X108587500Y-86987500D02*
X108189646Y-86987500D01*
X107577146Y-87377146D02*
X107495210Y-87295210D01*
X95973500Y-93773500D02*
X93500000Y-91300000D01*
X92563000Y-85837000D02*
X92600000Y-85800000D01*
X93500000Y-91300000D02*
X93500000Y-88745202D01*
X95973500Y-93900000D02*
X95973500Y-93773500D01*
X107800000Y-87377146D02*
X107577146Y-87377146D01*
X108189646Y-86987500D02*
X107800000Y-87377146D01*
X92563000Y-87808202D02*
X92563000Y-85837000D01*
%TO.N,/A4*%
X108587500Y-86487500D02*
X107912500Y-86487500D01*
X107912500Y-86487500D02*
X107800000Y-86600000D01*
X88400500Y-88199500D02*
X90200000Y-86400000D01*
X88400500Y-91520949D02*
X88400500Y-88199500D01*
%TO.N,/vs1053_RIGHT*%
X104500000Y-87631085D02*
X104582417Y-87713502D01*
X95340347Y-91140347D02*
X95524234Y-91140347D01*
X95036989Y-90836989D02*
X95036989Y-87160034D01*
X104500000Y-86587500D02*
X104500000Y-87631085D01*
X95036989Y-87160034D02*
X95021962Y-87145007D01*
X95036989Y-90836989D02*
X95340347Y-91140347D01*
%TO.N,/vs1053_LEFT*%
X95584287Y-89963046D02*
X95584287Y-87784287D01*
X101000000Y-86587500D02*
X101000000Y-87498802D01*
X95584287Y-87784287D02*
X95500000Y-87700000D01*
X101000000Y-87498802D02*
X101219594Y-87718396D01*
%TO.N,/AOHPR*%
X92709443Y-92734598D02*
X90944386Y-90969542D01*
X87072250Y-92310480D02*
X86535249Y-91773480D01*
X90257387Y-90969542D02*
X88916449Y-92310480D01*
X90944386Y-90969542D02*
X90257387Y-90969542D01*
X86535249Y-91773480D02*
X82014462Y-91773480D01*
X82014462Y-91773480D02*
X81675919Y-92112023D01*
X81100000Y-95500000D02*
X81100000Y-94654162D01*
X92834598Y-92734598D02*
X92709443Y-92734598D01*
X88916449Y-92310480D02*
X87072250Y-92310480D01*
X81100000Y-94654162D02*
X81454173Y-94299989D01*
%TO.N,/AOHPL*%
X92900000Y-93500000D02*
X92900000Y-93454798D01*
X92900000Y-93454798D02*
X92371587Y-92926385D01*
X83100000Y-95500000D02*
X83100000Y-94700000D01*
X90809137Y-91296062D02*
X90392636Y-91296062D01*
X89051698Y-92637000D02*
X86937000Y-92637000D01*
X90392636Y-91296062D02*
X89051698Y-92637000D01*
X82720949Y-92100000D02*
X82100000Y-92720949D01*
X92371587Y-92858512D02*
X90809137Y-91296062D01*
X83100000Y-94600000D02*
X82800000Y-94300000D01*
X83100000Y-95500000D02*
X83100000Y-94600000D01*
X86937000Y-92637000D02*
X86400000Y-92100000D01*
X86400000Y-92100000D02*
X82720949Y-92100000D01*
X92371587Y-92926385D02*
X92371587Y-92858512D01*
%TO.N,/PWR(MFB)*%
X98726520Y-87273480D02*
X98726520Y-84473480D01*
X98726520Y-84473480D02*
X99836989Y-83363011D01*
X99836989Y-83363011D02*
X102336989Y-83363011D01*
X98413020Y-87586980D02*
X98726520Y-87273480D01*
X97000000Y-87500000D02*
X97086980Y-87586980D01*
X97086980Y-87586980D02*
X98413020Y-87586980D01*
X102336989Y-83363011D02*
X103100000Y-82600000D01*
%TO.N,/LED1*%
X94100000Y-81629084D02*
X94175000Y-81704084D01*
X94100000Y-80500000D02*
X94100000Y-81629084D01*
X102100000Y-84400000D02*
X102100000Y-84000000D01*
%TO.N,/LED2*%
X92100000Y-80500000D02*
X92100000Y-81654084D01*
X92100000Y-81654084D02*
X92150000Y-81704084D01*
%TO.N,/DN*%
X99259168Y-80800000D02*
X97892084Y-82167084D01*
X99966666Y-80800000D02*
X99259168Y-80800000D01*
X90941062Y-82167084D02*
X90100000Y-81326022D01*
X90100000Y-81326022D02*
X90100000Y-80500000D01*
X97892084Y-82167084D02*
X90941062Y-82167084D01*
%TO.N,/DP*%
X98027334Y-82493604D02*
X98957927Y-81563011D01*
X100411989Y-81563011D02*
X101175000Y-80800000D01*
X89100000Y-81326022D02*
X90267582Y-82493604D01*
X89100000Y-80500000D02*
X89100000Y-81326022D01*
X90267582Y-82493604D02*
X98027334Y-82493604D01*
X101175000Y-80800000D02*
X102033332Y-80800000D01*
X98957927Y-81563011D02*
X100411989Y-81563011D01*
%TO.N,/D9*%
X108587500Y-87512500D02*
X108200000Y-87900000D01*
X108587500Y-87487500D02*
X108587500Y-87512500D01*
X98587500Y-91500000D02*
X99600000Y-91500000D01*
X108600000Y-87500000D02*
X108587500Y-87487500D01*
%TO.N,/D4*%
X84583949Y-93183949D02*
X84583938Y-93183960D01*
X90900000Y-86300000D02*
X90900000Y-86500000D01*
X90500000Y-85900000D02*
X90900000Y-86300000D01*
X83100000Y-90000000D02*
X85900000Y-90000000D01*
X84583938Y-93183960D02*
X81633960Y-93183960D01*
X81000000Y-92550000D02*
X81000000Y-92100000D01*
X81633960Y-93183960D02*
X81000000Y-92550000D01*
X109063000Y-88175000D02*
X108900000Y-88012000D01*
X84800000Y-93400000D02*
X84583949Y-93183949D01*
X81000000Y-92100000D02*
X83100000Y-90000000D01*
X90000000Y-85900000D02*
X90500000Y-85900000D01*
X109275000Y-88175000D02*
X109063000Y-88175000D01*
X85900000Y-90000000D02*
X90000000Y-85900000D01*
%TO.N,/D3*%
X109775000Y-88572854D02*
X109775000Y-88175000D01*
X108826011Y-88900000D02*
X109447854Y-88900000D01*
X109447854Y-88900000D02*
X109775000Y-88572854D01*
%TO.N,/BM83_UART_RX*%
X97000000Y-84500000D02*
X97377880Y-84500000D01*
X97377880Y-84500000D02*
X98000000Y-83877880D01*
X110275000Y-88175000D02*
X110275000Y-88727636D01*
X110275000Y-88727636D02*
X109958987Y-89043649D01*
%TO.N,/BM83_UART_TX*%
X97200000Y-83500000D02*
X97700000Y-83000000D01*
X110775000Y-88175000D02*
X110775000Y-88780079D01*
X110775000Y-88780079D02*
X110726967Y-88828112D01*
X97000000Y-83500000D02*
X97200000Y-83500000D01*
%TO.N,/D11*%
X115462500Y-87708674D02*
X116353826Y-88600000D01*
X93569077Y-83987527D02*
X94600000Y-82956604D01*
X93569077Y-87716831D02*
X93569077Y-83987527D01*
X115462500Y-87487500D02*
X115462500Y-87708674D01*
%TO.N,/D10*%
X116087500Y-86487500D02*
X116400000Y-86800000D01*
X115462500Y-86487500D02*
X116087500Y-86487500D01*
X100000000Y-94912500D02*
X99703000Y-94912500D01*
X99703000Y-94912500D02*
X99290500Y-94500000D01*
%TO.N,/D7*%
X91400000Y-85000000D02*
X92959457Y-83440543D01*
X115462500Y-84987500D02*
X115860354Y-84987500D01*
X115860354Y-84987500D02*
X116286427Y-85413573D01*
X92900000Y-91808587D02*
X91400000Y-90308587D01*
X92959457Y-83440543D02*
X93461279Y-83440543D01*
X116297356Y-85424502D02*
X116286427Y-85413573D01*
X117600000Y-85424502D02*
X116297356Y-85424502D01*
X91400000Y-90308587D02*
X91400000Y-85000000D01*
D42*
%TO.N,/D-*%
X117856846Y-81407894D02*
X118033623Y-81407894D01*
X116649511Y-82886345D02*
X116649511Y-82615229D01*
X115462500Y-83487500D02*
X115487499Y-83462501D01*
X116649511Y-82615229D02*
X117856846Y-81407894D01*
X115487499Y-83462501D02*
X116073356Y-83462501D01*
X116073356Y-83462501D02*
X116649511Y-82886345D01*
%TO.N,/D+*%
X115487499Y-83012499D02*
X115886974Y-83012499D01*
X116199520Y-82699953D02*
X116199520Y-82428822D01*
X117538647Y-81089695D02*
X117538647Y-80912918D01*
X115886974Y-83012499D02*
X116199520Y-82699953D01*
X115462500Y-82987500D02*
X115487499Y-83012499D01*
X116199520Y-82428822D02*
X117538647Y-81089695D01*
D39*
%TO.N,/DMIC1_CLK*%
X91291787Y-93536989D02*
X90908213Y-93536989D01*
X90208213Y-94236989D02*
X87771789Y-94236989D01*
X86136989Y-94236989D02*
X83800000Y-94236989D01*
X83800000Y-94236989D02*
X83400000Y-93836989D01*
X80731505Y-93836989D02*
X80468494Y-94100000D01*
X90908213Y-93536989D02*
X90208213Y-94236989D01*
X80731505Y-93836989D02*
X83400000Y-93836989D01*
X87071789Y-93536989D02*
X86836989Y-93536989D01*
X92100000Y-94345202D02*
X91291787Y-93536989D01*
X92100000Y-95500000D02*
X92100000Y-94345202D01*
X86836989Y-93536989D02*
X86136989Y-94236989D01*
X87771789Y-94236989D02*
X87071789Y-93536989D01*
%TO.N,/DMIC1_L*%
X91427036Y-93210469D02*
X90772963Y-93210469D01*
X86001739Y-93910469D02*
X83935250Y-93910469D01*
X92453557Y-94236989D02*
X91427036Y-93210469D01*
X93663011Y-94236989D02*
X92453557Y-94236989D01*
X90772963Y-93210469D02*
X90072963Y-93910469D01*
X90072963Y-93910469D02*
X87907039Y-93910469D01*
X87907039Y-93910469D02*
X87196569Y-93200000D01*
X94100000Y-94673978D02*
X93663011Y-94236989D01*
X83935250Y-93910469D02*
X83535249Y-93510469D01*
X87196569Y-93200000D02*
X86712208Y-93200000D01*
X81067974Y-93510469D02*
X80931494Y-93373989D01*
X83535249Y-93510469D02*
X81067974Y-93510469D01*
X86712208Y-93200000D02*
X86001739Y-93910469D01*
X94100000Y-95500000D02*
X94100000Y-94673978D01*
%TO.N,Net-(D10-Pad2)*%
X114820000Y-91892500D02*
X115287500Y-91425000D01*
X114936180Y-94143820D02*
X114820000Y-94027640D01*
X114820000Y-94027640D02*
X114820000Y-91892500D01*
X114936180Y-94150000D02*
X114936180Y-94143820D01*
%TO.N,/A3*%
X92530400Y-84700000D02*
X92100000Y-85130400D01*
X92100000Y-85130400D02*
X92100000Y-88000000D01*
X92100000Y-88000000D02*
X93000000Y-88900000D01*
X108587500Y-85987500D02*
X108057930Y-85987500D01*
X108057930Y-85987500D02*
X107778315Y-85707885D01*
X92900000Y-84700000D02*
X92530400Y-84700000D01*
%TD*%
M02*
