%TF.GenerationSoftware,KiCad,Pcbnew,(5.1.9)-1*%
%TF.CreationDate,2021-08-08T21:49:21+01:00*%
%TF.ProjectId,glassphones - main pcb,676c6173-7370-4686-9f6e-6573202d206d,rev?*%
%TF.SameCoordinates,Original*%
%TF.FileFunction,Copper,L2,Bot*%
%TF.FilePolarity,Positive*%
%FSLAX46Y46*%
G04 Gerber Fmt 4.6, Leading zero omitted, Abs format (unit mm)*
G04 Created by KiCad (PCBNEW (5.1.9)-1) date 2021-08-08 21:49:21*
%MOMM*%
%LPD*%
G01*
G04 APERTURE LIST*
%TA.AperFunction,SMDPad,CuDef*%
%ADD10R,1.041400X1.549400*%
%TD*%
%TA.AperFunction,SMDPad,CuDef*%
%ADD11R,1.549400X1.041400*%
%TD*%
%TA.AperFunction,SMDPad,CuDef*%
%ADD12R,0.838200X1.549400*%
%TD*%
%TA.AperFunction,SMDPad,CuDef*%
%ADD13R,1.498600X1.498600*%
%TD*%
%TA.AperFunction,SMDPad,CuDef*%
%ADD14R,0.762000X1.803400*%
%TD*%
%TA.AperFunction,ComponentPad*%
%ADD15C,0.500000*%
%TD*%
%TA.AperFunction,ComponentPad*%
%ADD16O,1.200000X1.900000*%
%TD*%
%TA.AperFunction,ComponentPad*%
%ADD17C,1.450000*%
%TD*%
%TA.AperFunction,SMDPad,CuDef*%
%ADD18R,3.352800X3.352800*%
%TD*%
%TA.AperFunction,SMDPad,CuDef*%
%ADD19R,0.254000X0.965200*%
%TD*%
%TA.AperFunction,SMDPad,CuDef*%
%ADD20R,0.965200X0.254000*%
%TD*%
%TA.AperFunction,SMDPad,CuDef*%
%ADD21C,1.500000*%
%TD*%
%TA.AperFunction,ViaPad*%
%ADD22C,0.600000*%
%TD*%
%TA.AperFunction,Conductor*%
%ADD23C,0.127000*%
%TD*%
%TA.AperFunction,Conductor*%
%ADD24C,0.250000*%
%TD*%
%TA.AperFunction,Conductor*%
%ADD25C,0.254000*%
%TD*%
%TA.AperFunction,Conductor*%
%ADD26C,0.100000*%
%TD*%
G04 APERTURE END LIST*
D10*
%TO.P,J2,14*%
%TO.N,GND*%
X157804294Y-49381298D03*
D11*
%TO.P,J2,13*%
X146650316Y-48060300D03*
D12*
%TO.P,J2,12*%
X158205208Y-46956299D03*
%TO.P,J2,11*%
X146294792Y-46306298D03*
D13*
%TO.P,J2,10*%
X157875000Y-39481699D03*
%TO.P,J2,9*%
X146625000Y-39481699D03*
D14*
%TO.P,J2,8*%
%TO.N,SD_DAT1*%
X155800712Y-39329299D03*
%TO.P,J2,7*%
%TO.N,SD_DAT0*%
X154700711Y-39329299D03*
%TO.P,J2,6*%
%TO.N,GND*%
X153600711Y-39329299D03*
%TO.P,J2,5*%
%TO.N,SD_CLK*%
X152500711Y-39329299D03*
%TO.P,J2,4*%
%TO.N,+3V3*%
X151400713Y-39329299D03*
%TO.P,J2,3*%
%TO.N,SD_CMD*%
X150300713Y-39329299D03*
%TO.P,J2,2*%
%TO.N,SD_DAT3*%
X149200712Y-39329299D03*
%TO.P,J2,1*%
%TO.N,SD_DAT2*%
X148100712Y-39329299D03*
%TD*%
D15*
%TO.P,U3,12*%
%TO.N,N/C*%
X180775000Y-42975000D03*
%TD*%
D16*
%TO.P,J1,6*%
%TO.N,GND*%
X161100000Y-58500000D03*
X154100000Y-58500000D03*
D17*
X160100000Y-55800000D03*
X155100000Y-55800000D03*
%TD*%
D18*
%TO.P,U2,29*%
%TO.N,GND*%
X174750000Y-51500000D03*
D19*
%TO.P,U2,28*%
%TO.N,SDA*%
X176250000Y-49125100D03*
%TO.P,U2,27*%
%TO.N,SCL*%
X175750001Y-49125100D03*
%TO.P,U2,26*%
%TO.N,+3V3*%
X175249999Y-49125100D03*
%TO.P,U2,25*%
%TO.N,Net-(C1-Pad1)*%
X174750000Y-49125100D03*
%TO.P,U2,24*%
%TO.N,GND*%
X174250001Y-49125100D03*
%TO.P,U2,23*%
%TO.N,Net-(C1-Pad2)*%
X173749999Y-49125100D03*
%TO.P,U2,22*%
%TO.N,Net-(C2-Pad1)*%
X173250000Y-49125100D03*
D20*
%TO.P,U2,21*%
%TO.N,Net-(U2-Pad21)*%
X172375100Y-50000000D03*
%TO.P,U2,20*%
%TO.N,Net-(C2-Pad1)*%
X172375100Y-50499999D03*
%TO.P,U2,19*%
%TO.N,L_Audio*%
X172375100Y-51000001D03*
%TO.P,U2,18*%
%TO.N,R_Audio*%
X172375100Y-51500000D03*
%TO.P,U2,17*%
%TO.N,+3V3*%
X172375100Y-51999999D03*
%TO.P,U2,16*%
%TO.N,Net-(C4-Pad2)*%
X172375100Y-52500001D03*
%TO.P,U2,15*%
%TO.N,Net-(C3-Pad2)*%
X172375100Y-53000000D03*
D19*
%TO.P,U2,14*%
%TO.N,GNDA*%
X173250000Y-53874900D03*
%TO.P,U2,13*%
%TO.N,Net-(C5-Pad2)*%
X173749999Y-53874900D03*
%TO.P,U2,12*%
%TO.N,Net-(U2-Pad12)*%
X174250001Y-53874900D03*
%TO.P,U2,11*%
%TO.N,Net-(U2-Pad11)*%
X174750000Y-53874900D03*
%TO.P,U2,10*%
%TO.N,Net-(U2-Pad10)*%
X175249999Y-53874900D03*
%TO.P,U2,9*%
%TO.N,Net-(U2-Pad9)*%
X175750001Y-53874900D03*
%TO.P,U2,8*%
%TO.N,Net-(U2-Pad8)*%
X176250000Y-53874900D03*
D20*
%TO.P,U2,7*%
%TO.N,GND*%
X177124900Y-53000000D03*
%TO.P,U2,6*%
X177124900Y-52500001D03*
%TO.P,U2,5*%
%TO.N,MCLK*%
X177124900Y-51999999D03*
%TO.P,U2,4*%
%TO.N,+3V3*%
X177124900Y-51500000D03*
%TO.P,U2,3*%
%TO.N,DAC_DATA*%
X177124900Y-51000001D03*
%TO.P,U2,2*%
%TO.N,BCLK*%
X177124900Y-50499999D03*
%TO.P,U2,1*%
%TO.N,LRCLK*%
X177124900Y-50000000D03*
%TD*%
%TO.P,R12,2*%
%TO.N,Net-(D5-Pad1)*%
%TA.AperFunction,SMDPad,CuDef*%
G36*
G01*
X186575000Y-41725000D02*
X186575000Y-42275000D01*
G75*
G02*
X186375000Y-42475000I-200000J0D01*
G01*
X185975000Y-42475000D01*
G75*
G02*
X185775000Y-42275000I0J200000D01*
G01*
X185775000Y-41725000D01*
G75*
G02*
X185975000Y-41525000I200000J0D01*
G01*
X186375000Y-41525000D01*
G75*
G02*
X186575000Y-41725000I0J-200000D01*
G01*
G37*
%TD.AperFunction*%
%TO.P,R12,1*%
%TO.N,Net-(R12-Pad1)*%
%TA.AperFunction,SMDPad,CuDef*%
G36*
G01*
X188225000Y-41725000D02*
X188225000Y-42275000D01*
G75*
G02*
X188025000Y-42475000I-200000J0D01*
G01*
X187625000Y-42475000D01*
G75*
G02*
X187425000Y-42275000I0J200000D01*
G01*
X187425000Y-41725000D01*
G75*
G02*
X187625000Y-41525000I200000J0D01*
G01*
X188025000Y-41525000D01*
G75*
G02*
X188225000Y-41725000I0J-200000D01*
G01*
G37*
%TD.AperFunction*%
%TD*%
%TO.P,R11,2*%
%TO.N,Net-(D4-Pad1)*%
%TA.AperFunction,SMDPad,CuDef*%
G36*
G01*
X187425000Y-59275000D02*
X187425000Y-58725000D01*
G75*
G02*
X187625000Y-58525000I200000J0D01*
G01*
X188025000Y-58525000D01*
G75*
G02*
X188225000Y-58725000I0J-200000D01*
G01*
X188225000Y-59275000D01*
G75*
G02*
X188025000Y-59475000I-200000J0D01*
G01*
X187625000Y-59475000D01*
G75*
G02*
X187425000Y-59275000I0J200000D01*
G01*
G37*
%TD.AperFunction*%
%TO.P,R11,1*%
%TO.N,row2*%
%TA.AperFunction,SMDPad,CuDef*%
G36*
G01*
X185775000Y-59275000D02*
X185775000Y-58725000D01*
G75*
G02*
X185975000Y-58525000I200000J0D01*
G01*
X186375000Y-58525000D01*
G75*
G02*
X186575000Y-58725000I0J-200000D01*
G01*
X186575000Y-59275000D01*
G75*
G02*
X186375000Y-59475000I-200000J0D01*
G01*
X185975000Y-59475000D01*
G75*
G02*
X185775000Y-59275000I0J200000D01*
G01*
G37*
%TD.AperFunction*%
%TD*%
%TO.P,R10,2*%
%TO.N,Net-(D3-Pad1)*%
%TA.AperFunction,SMDPad,CuDef*%
G36*
G01*
X187425000Y-55025000D02*
X187425000Y-54475000D01*
G75*
G02*
X187625000Y-54275000I200000J0D01*
G01*
X188025000Y-54275000D01*
G75*
G02*
X188225000Y-54475000I0J-200000D01*
G01*
X188225000Y-55025000D01*
G75*
G02*
X188025000Y-55225000I-200000J0D01*
G01*
X187625000Y-55225000D01*
G75*
G02*
X187425000Y-55025000I0J200000D01*
G01*
G37*
%TD.AperFunction*%
%TO.P,R10,1*%
%TO.N,row2*%
%TA.AperFunction,SMDPad,CuDef*%
G36*
G01*
X185775000Y-55025000D02*
X185775000Y-54475000D01*
G75*
G02*
X185975000Y-54275000I200000J0D01*
G01*
X186375000Y-54275000D01*
G75*
G02*
X186575000Y-54475000I0J-200000D01*
G01*
X186575000Y-55025000D01*
G75*
G02*
X186375000Y-55225000I-200000J0D01*
G01*
X185975000Y-55225000D01*
G75*
G02*
X185775000Y-55025000I0J200000D01*
G01*
G37*
%TD.AperFunction*%
%TD*%
%TO.P,R9,2*%
%TO.N,Net-(D2-Pad1)*%
%TA.AperFunction,SMDPad,CuDef*%
G36*
G01*
X187425000Y-50775000D02*
X187425000Y-50225000D01*
G75*
G02*
X187625000Y-50025000I200000J0D01*
G01*
X188025000Y-50025000D01*
G75*
G02*
X188225000Y-50225000I0J-200000D01*
G01*
X188225000Y-50775000D01*
G75*
G02*
X188025000Y-50975000I-200000J0D01*
G01*
X187625000Y-50975000D01*
G75*
G02*
X187425000Y-50775000I0J200000D01*
G01*
G37*
%TD.AperFunction*%
%TO.P,R9,1*%
%TO.N,row1*%
%TA.AperFunction,SMDPad,CuDef*%
G36*
G01*
X185775000Y-50775000D02*
X185775000Y-50225000D01*
G75*
G02*
X185975000Y-50025000I200000J0D01*
G01*
X186375000Y-50025000D01*
G75*
G02*
X186575000Y-50225000I0J-200000D01*
G01*
X186575000Y-50775000D01*
G75*
G02*
X186375000Y-50975000I-200000J0D01*
G01*
X185975000Y-50975000D01*
G75*
G02*
X185775000Y-50775000I0J200000D01*
G01*
G37*
%TD.AperFunction*%
%TD*%
%TO.P,R8,2*%
%TO.N,Net-(D1-Pad1)*%
%TA.AperFunction,SMDPad,CuDef*%
G36*
G01*
X187425000Y-46525000D02*
X187425000Y-45975000D01*
G75*
G02*
X187625000Y-45775000I200000J0D01*
G01*
X188025000Y-45775000D01*
G75*
G02*
X188225000Y-45975000I0J-200000D01*
G01*
X188225000Y-46525000D01*
G75*
G02*
X188025000Y-46725000I-200000J0D01*
G01*
X187625000Y-46725000D01*
G75*
G02*
X187425000Y-46525000I0J200000D01*
G01*
G37*
%TD.AperFunction*%
%TO.P,R8,1*%
%TO.N,row1*%
%TA.AperFunction,SMDPad,CuDef*%
G36*
G01*
X185775000Y-46525000D02*
X185775000Y-45975000D01*
G75*
G02*
X185975000Y-45775000I200000J0D01*
G01*
X186375000Y-45775000D01*
G75*
G02*
X186575000Y-45975000I0J-200000D01*
G01*
X186575000Y-46525000D01*
G75*
G02*
X186375000Y-46725000I-200000J0D01*
G01*
X185975000Y-46725000D01*
G75*
G02*
X185775000Y-46525000I0J200000D01*
G01*
G37*
%TD.AperFunction*%
%TD*%
D21*
%TO.P,J4,1*%
%TO.N,GNDA*%
X139000000Y-40500000D03*
%TD*%
%TO.P,J3,1*%
%TO.N,R_Audio*%
X143000000Y-40500000D03*
%TD*%
%TO.P,C8,2*%
%TO.N,GND*%
%TA.AperFunction,SMDPad,CuDef*%
G36*
G01*
X179750000Y-52075000D02*
X180250000Y-52075000D01*
G75*
G02*
X180475000Y-52300000I0J-225000D01*
G01*
X180475000Y-52750000D01*
G75*
G02*
X180250000Y-52975000I-225000J0D01*
G01*
X179750000Y-52975000D01*
G75*
G02*
X179525000Y-52750000I0J225000D01*
G01*
X179525000Y-52300000D01*
G75*
G02*
X179750000Y-52075000I225000J0D01*
G01*
G37*
%TD.AperFunction*%
%TO.P,C8,1*%
%TO.N,+3V3*%
%TA.AperFunction,SMDPad,CuDef*%
G36*
G01*
X179750000Y-50525000D02*
X180250000Y-50525000D01*
G75*
G02*
X180475000Y-50750000I0J-225000D01*
G01*
X180475000Y-51200000D01*
G75*
G02*
X180250000Y-51425000I-225000J0D01*
G01*
X179750000Y-51425000D01*
G75*
G02*
X179525000Y-51200000I0J225000D01*
G01*
X179525000Y-50750000D01*
G75*
G02*
X179750000Y-50525000I225000J0D01*
G01*
G37*
%TD.AperFunction*%
%TD*%
%TO.P,C7,2*%
%TO.N,GND*%
%TA.AperFunction,SMDPad,CuDef*%
G36*
G01*
X177825000Y-47250000D02*
X177825000Y-46750000D01*
G75*
G02*
X178050000Y-46525000I225000J0D01*
G01*
X178500000Y-46525000D01*
G75*
G02*
X178725000Y-46750000I0J-225000D01*
G01*
X178725000Y-47250000D01*
G75*
G02*
X178500000Y-47475000I-225000J0D01*
G01*
X178050000Y-47475000D01*
G75*
G02*
X177825000Y-47250000I0J225000D01*
G01*
G37*
%TD.AperFunction*%
%TO.P,C7,1*%
%TO.N,+3V3*%
%TA.AperFunction,SMDPad,CuDef*%
G36*
G01*
X176275000Y-47250000D02*
X176275000Y-46750000D01*
G75*
G02*
X176500000Y-46525000I225000J0D01*
G01*
X176950000Y-46525000D01*
G75*
G02*
X177175000Y-46750000I0J-225000D01*
G01*
X177175000Y-47250000D01*
G75*
G02*
X176950000Y-47475000I-225000J0D01*
G01*
X176500000Y-47475000D01*
G75*
G02*
X176275000Y-47250000I0J225000D01*
G01*
G37*
%TD.AperFunction*%
%TD*%
%TO.P,C6,2*%
%TO.N,GNDA*%
%TA.AperFunction,SMDPad,CuDef*%
G36*
G01*
X167675000Y-49750000D02*
X167675000Y-50250000D01*
G75*
G02*
X167450000Y-50475000I-225000J0D01*
G01*
X167000000Y-50475000D01*
G75*
G02*
X166775000Y-50250000I0J225000D01*
G01*
X166775000Y-49750000D01*
G75*
G02*
X167000000Y-49525000I225000J0D01*
G01*
X167450000Y-49525000D01*
G75*
G02*
X167675000Y-49750000I0J-225000D01*
G01*
G37*
%TD.AperFunction*%
%TO.P,C6,1*%
%TO.N,+3V3*%
%TA.AperFunction,SMDPad,CuDef*%
G36*
G01*
X169225000Y-49750000D02*
X169225000Y-50250000D01*
G75*
G02*
X169000000Y-50475000I-225000J0D01*
G01*
X168550000Y-50475000D01*
G75*
G02*
X168325000Y-50250000I0J225000D01*
G01*
X168325000Y-49750000D01*
G75*
G02*
X168550000Y-49525000I225000J0D01*
G01*
X169000000Y-49525000D01*
G75*
G02*
X169225000Y-49750000I0J-225000D01*
G01*
G37*
%TD.AperFunction*%
%TD*%
%TO.P,C5,2*%
%TO.N,Net-(C5-Pad2)*%
%TA.AperFunction,SMDPad,CuDef*%
G36*
G01*
X168325000Y-55500000D02*
X168325000Y-55000000D01*
G75*
G02*
X168550000Y-54775000I225000J0D01*
G01*
X169000000Y-54775000D01*
G75*
G02*
X169225000Y-55000000I0J-225000D01*
G01*
X169225000Y-55500000D01*
G75*
G02*
X169000000Y-55725000I-225000J0D01*
G01*
X168550000Y-55725000D01*
G75*
G02*
X168325000Y-55500000I0J225000D01*
G01*
G37*
%TD.AperFunction*%
%TO.P,C5,1*%
%TO.N,GNDA*%
%TA.AperFunction,SMDPad,CuDef*%
G36*
G01*
X166775000Y-55500000D02*
X166775000Y-55000000D01*
G75*
G02*
X167000000Y-54775000I225000J0D01*
G01*
X167450000Y-54775000D01*
G75*
G02*
X167675000Y-55000000I0J-225000D01*
G01*
X167675000Y-55500000D01*
G75*
G02*
X167450000Y-55725000I-225000J0D01*
G01*
X167000000Y-55725000D01*
G75*
G02*
X166775000Y-55500000I0J225000D01*
G01*
G37*
%TD.AperFunction*%
%TD*%
%TO.P,C4,2*%
%TO.N,Net-(C4-Pad2)*%
%TA.AperFunction,SMDPad,CuDef*%
G36*
G01*
X168325000Y-52000000D02*
X168325000Y-51500000D01*
G75*
G02*
X168550000Y-51275000I225000J0D01*
G01*
X169000000Y-51275000D01*
G75*
G02*
X169225000Y-51500000I0J-225000D01*
G01*
X169225000Y-52000000D01*
G75*
G02*
X169000000Y-52225000I-225000J0D01*
G01*
X168550000Y-52225000D01*
G75*
G02*
X168325000Y-52000000I0J225000D01*
G01*
G37*
%TD.AperFunction*%
%TO.P,C4,1*%
%TO.N,GNDA*%
%TA.AperFunction,SMDPad,CuDef*%
G36*
G01*
X166775000Y-52000000D02*
X166775000Y-51500000D01*
G75*
G02*
X167000000Y-51275000I225000J0D01*
G01*
X167450000Y-51275000D01*
G75*
G02*
X167675000Y-51500000I0J-225000D01*
G01*
X167675000Y-52000000D01*
G75*
G02*
X167450000Y-52225000I-225000J0D01*
G01*
X167000000Y-52225000D01*
G75*
G02*
X166775000Y-52000000I0J225000D01*
G01*
G37*
%TD.AperFunction*%
%TD*%
%TO.P,C3,2*%
%TO.N,Net-(C3-Pad2)*%
%TA.AperFunction,SMDPad,CuDef*%
G36*
G01*
X168325000Y-53750000D02*
X168325000Y-53250000D01*
G75*
G02*
X168550000Y-53025000I225000J0D01*
G01*
X169000000Y-53025000D01*
G75*
G02*
X169225000Y-53250000I0J-225000D01*
G01*
X169225000Y-53750000D01*
G75*
G02*
X169000000Y-53975000I-225000J0D01*
G01*
X168550000Y-53975000D01*
G75*
G02*
X168325000Y-53750000I0J225000D01*
G01*
G37*
%TD.AperFunction*%
%TO.P,C3,1*%
%TO.N,GNDA*%
%TA.AperFunction,SMDPad,CuDef*%
G36*
G01*
X166775000Y-53750000D02*
X166775000Y-53250000D01*
G75*
G02*
X167000000Y-53025000I225000J0D01*
G01*
X167450000Y-53025000D01*
G75*
G02*
X167675000Y-53250000I0J-225000D01*
G01*
X167675000Y-53750000D01*
G75*
G02*
X167450000Y-53975000I-225000J0D01*
G01*
X167000000Y-53975000D01*
G75*
G02*
X166775000Y-53750000I0J225000D01*
G01*
G37*
%TD.AperFunction*%
%TD*%
%TO.P,C2,2*%
%TO.N,GND*%
%TA.AperFunction,SMDPad,CuDef*%
G36*
G01*
X171325000Y-47250000D02*
X171325000Y-46750000D01*
G75*
G02*
X171550000Y-46525000I225000J0D01*
G01*
X172000000Y-46525000D01*
G75*
G02*
X172225000Y-46750000I0J-225000D01*
G01*
X172225000Y-47250000D01*
G75*
G02*
X172000000Y-47475000I-225000J0D01*
G01*
X171550000Y-47475000D01*
G75*
G02*
X171325000Y-47250000I0J225000D01*
G01*
G37*
%TD.AperFunction*%
%TO.P,C2,1*%
%TO.N,Net-(C2-Pad1)*%
%TA.AperFunction,SMDPad,CuDef*%
G36*
G01*
X169775000Y-47250000D02*
X169775000Y-46750000D01*
G75*
G02*
X170000000Y-46525000I225000J0D01*
G01*
X170450000Y-46525000D01*
G75*
G02*
X170675000Y-46750000I0J-225000D01*
G01*
X170675000Y-47250000D01*
G75*
G02*
X170450000Y-47475000I-225000J0D01*
G01*
X170000000Y-47475000D01*
G75*
G02*
X169775000Y-47250000I0J225000D01*
G01*
G37*
%TD.AperFunction*%
%TD*%
%TO.P,C1,2*%
%TO.N,Net-(C1-Pad2)*%
%TA.AperFunction,SMDPad,CuDef*%
G36*
G01*
X173925000Y-46750000D02*
X173925000Y-47250000D01*
G75*
G02*
X173700000Y-47475000I-225000J0D01*
G01*
X173250000Y-47475000D01*
G75*
G02*
X173025000Y-47250000I0J225000D01*
G01*
X173025000Y-46750000D01*
G75*
G02*
X173250000Y-46525000I225000J0D01*
G01*
X173700000Y-46525000D01*
G75*
G02*
X173925000Y-46750000I0J-225000D01*
G01*
G37*
%TD.AperFunction*%
%TO.P,C1,1*%
%TO.N,Net-(C1-Pad1)*%
%TA.AperFunction,SMDPad,CuDef*%
G36*
G01*
X175475000Y-46750000D02*
X175475000Y-47250000D01*
G75*
G02*
X175250000Y-47475000I-225000J0D01*
G01*
X174800000Y-47475000D01*
G75*
G02*
X174575000Y-47250000I0J225000D01*
G01*
X174575000Y-46750000D01*
G75*
G02*
X174800000Y-46525000I225000J0D01*
G01*
X175250000Y-46525000D01*
G75*
G02*
X175475000Y-46750000I0J-225000D01*
G01*
G37*
%TD.AperFunction*%
%TD*%
%TO.P,D5,2*%
%TO.N,usb_5v*%
%TA.AperFunction,SMDPad,CuDef*%
G36*
G01*
X186650000Y-39993750D02*
X186650000Y-40506250D01*
G75*
G02*
X186431250Y-40725000I-218750J0D01*
G01*
X185993750Y-40725000D01*
G75*
G02*
X185775000Y-40506250I0J218750D01*
G01*
X185775000Y-39993750D01*
G75*
G02*
X185993750Y-39775000I218750J0D01*
G01*
X186431250Y-39775000D01*
G75*
G02*
X186650000Y-39993750I0J-218750D01*
G01*
G37*
%TD.AperFunction*%
%TO.P,D5,1*%
%TO.N,Net-(D5-Pad1)*%
%TA.AperFunction,SMDPad,CuDef*%
G36*
G01*
X188225000Y-39993750D02*
X188225000Y-40506250D01*
G75*
G02*
X188006250Y-40725000I-218750J0D01*
G01*
X187568750Y-40725000D01*
G75*
G02*
X187350000Y-40506250I0J218750D01*
G01*
X187350000Y-39993750D01*
G75*
G02*
X187568750Y-39775000I218750J0D01*
G01*
X188006250Y-39775000D01*
G75*
G02*
X188225000Y-39993750I0J-218750D01*
G01*
G37*
%TD.AperFunction*%
%TD*%
%TO.P,D4,2*%
%TO.N,Lcol2*%
%TA.AperFunction,SMDPad,CuDef*%
G36*
G01*
X186650000Y-56993750D02*
X186650000Y-57506250D01*
G75*
G02*
X186431250Y-57725000I-218750J0D01*
G01*
X185993750Y-57725000D01*
G75*
G02*
X185775000Y-57506250I0J218750D01*
G01*
X185775000Y-56993750D01*
G75*
G02*
X185993750Y-56775000I218750J0D01*
G01*
X186431250Y-56775000D01*
G75*
G02*
X186650000Y-56993750I0J-218750D01*
G01*
G37*
%TD.AperFunction*%
%TO.P,D4,1*%
%TO.N,Net-(D4-Pad1)*%
%TA.AperFunction,SMDPad,CuDef*%
G36*
G01*
X188225000Y-56993750D02*
X188225000Y-57506250D01*
G75*
G02*
X188006250Y-57725000I-218750J0D01*
G01*
X187568750Y-57725000D01*
G75*
G02*
X187350000Y-57506250I0J218750D01*
G01*
X187350000Y-56993750D01*
G75*
G02*
X187568750Y-56775000I218750J0D01*
G01*
X188006250Y-56775000D01*
G75*
G02*
X188225000Y-56993750I0J-218750D01*
G01*
G37*
%TD.AperFunction*%
%TD*%
%TO.P,D3,2*%
%TO.N,Lcol1*%
%TA.AperFunction,SMDPad,CuDef*%
G36*
G01*
X186650000Y-52743750D02*
X186650000Y-53256250D01*
G75*
G02*
X186431250Y-53475000I-218750J0D01*
G01*
X185993750Y-53475000D01*
G75*
G02*
X185775000Y-53256250I0J218750D01*
G01*
X185775000Y-52743750D01*
G75*
G02*
X185993750Y-52525000I218750J0D01*
G01*
X186431250Y-52525000D01*
G75*
G02*
X186650000Y-52743750I0J-218750D01*
G01*
G37*
%TD.AperFunction*%
%TO.P,D3,1*%
%TO.N,Net-(D3-Pad1)*%
%TA.AperFunction,SMDPad,CuDef*%
G36*
G01*
X188225000Y-52743750D02*
X188225000Y-53256250D01*
G75*
G02*
X188006250Y-53475000I-218750J0D01*
G01*
X187568750Y-53475000D01*
G75*
G02*
X187350000Y-53256250I0J218750D01*
G01*
X187350000Y-52743750D01*
G75*
G02*
X187568750Y-52525000I218750J0D01*
G01*
X188006250Y-52525000D01*
G75*
G02*
X188225000Y-52743750I0J-218750D01*
G01*
G37*
%TD.AperFunction*%
%TD*%
%TO.P,D2,2*%
%TO.N,Lcol2*%
%TA.AperFunction,SMDPad,CuDef*%
G36*
G01*
X186650000Y-48493750D02*
X186650000Y-49006250D01*
G75*
G02*
X186431250Y-49225000I-218750J0D01*
G01*
X185993750Y-49225000D01*
G75*
G02*
X185775000Y-49006250I0J218750D01*
G01*
X185775000Y-48493750D01*
G75*
G02*
X185993750Y-48275000I218750J0D01*
G01*
X186431250Y-48275000D01*
G75*
G02*
X186650000Y-48493750I0J-218750D01*
G01*
G37*
%TD.AperFunction*%
%TO.P,D2,1*%
%TO.N,Net-(D2-Pad1)*%
%TA.AperFunction,SMDPad,CuDef*%
G36*
G01*
X188225000Y-48493750D02*
X188225000Y-49006250D01*
G75*
G02*
X188006250Y-49225000I-218750J0D01*
G01*
X187568750Y-49225000D01*
G75*
G02*
X187350000Y-49006250I0J218750D01*
G01*
X187350000Y-48493750D01*
G75*
G02*
X187568750Y-48275000I218750J0D01*
G01*
X188006250Y-48275000D01*
G75*
G02*
X188225000Y-48493750I0J-218750D01*
G01*
G37*
%TD.AperFunction*%
%TD*%
%TO.P,D1,2*%
%TO.N,Lcol1*%
%TA.AperFunction,SMDPad,CuDef*%
G36*
G01*
X186650000Y-44243750D02*
X186650000Y-44756250D01*
G75*
G02*
X186431250Y-44975000I-218750J0D01*
G01*
X185993750Y-44975000D01*
G75*
G02*
X185775000Y-44756250I0J218750D01*
G01*
X185775000Y-44243750D01*
G75*
G02*
X185993750Y-44025000I218750J0D01*
G01*
X186431250Y-44025000D01*
G75*
G02*
X186650000Y-44243750I0J-218750D01*
G01*
G37*
%TD.AperFunction*%
%TO.P,D1,1*%
%TO.N,Net-(D1-Pad1)*%
%TA.AperFunction,SMDPad,CuDef*%
G36*
G01*
X188225000Y-44243750D02*
X188225000Y-44756250D01*
G75*
G02*
X188006250Y-44975000I-218750J0D01*
G01*
X187568750Y-44975000D01*
G75*
G02*
X187350000Y-44756250I0J218750D01*
G01*
X187350000Y-44243750D01*
G75*
G02*
X187568750Y-44025000I218750J0D01*
G01*
X188006250Y-44025000D01*
G75*
G02*
X188225000Y-44243750I0J-218750D01*
G01*
G37*
%TD.AperFunction*%
%TD*%
D22*
%TO.N,row2*%
X151500000Y-45490500D03*
X160750000Y-45500000D03*
X182250000Y-57750000D03*
%TO.N,Bcol2*%
X168500000Y-45250000D03*
X168500000Y-45250000D03*
X165000000Y-45490500D03*
%TO.N,Bcol3*%
X149750000Y-45400000D03*
X162750000Y-46750000D03*
%TO.N,row1*%
X186500000Y-51750000D03*
X174750000Y-57750000D03*
X184000000Y-55000000D03*
%TO.N,BOOT+SD_PULLUP*%
X178500000Y-57750000D03*
X179750000Y-44250000D03*
X161250000Y-39750000D03*
X175250000Y-40250000D03*
%TO.N,GND*%
X182750000Y-52000000D03*
X174000000Y-52250000D03*
X175500000Y-52250000D03*
X174000000Y-50750000D03*
X175500000Y-50750000D03*
X162250000Y-48500000D03*
X174250000Y-48000000D03*
X173250000Y-48000000D03*
X178250000Y-48000000D03*
X153750000Y-40750000D03*
X152200000Y-44250000D03*
X190000000Y-39000000D03*
X186500000Y-39000000D03*
X180000000Y-53750000D03*
X175000000Y-55000000D03*
X169750000Y-59000000D03*
X169750000Y-58000000D03*
X192750000Y-49500000D03*
X189200000Y-49500000D03*
X172950000Y-39400000D03*
X173950000Y-39400000D03*
X179250000Y-41750000D03*
X184750000Y-41500000D03*
X153750000Y-49250000D03*
X158750000Y-52000000D03*
X137000000Y-39000000D03*
X137000000Y-41500000D03*
X150750000Y-55500000D03*
X140000000Y-44750000D03*
X146600000Y-51200000D03*
X143500000Y-48250000D03*
X164750000Y-54000000D03*
X170000000Y-39250000D03*
X169000000Y-39250000D03*
X164250000Y-39250000D03*
X163250000Y-39250000D03*
X164500000Y-48500000D03*
X170750000Y-49750000D03*
X170750000Y-48750000D03*
X180000000Y-54750000D03*
X179250000Y-39500000D03*
X184750000Y-40000000D03*
X192750000Y-45750000D03*
X192750000Y-41750000D03*
X189200000Y-46000000D03*
X156750000Y-52000000D03*
X156750000Y-47000000D03*
X159500000Y-47000000D03*
X182250000Y-47750000D03*
X171250000Y-55000000D03*
X165750000Y-59000000D03*
X149500000Y-42800000D03*
X147750000Y-42200000D03*
X152250000Y-51250000D03*
X148750000Y-48000000D03*
X144000000Y-43250000D03*
X164500000Y-50500000D03*
X162250000Y-50500000D03*
X181000000Y-44000000D03*
X187000000Y-47750000D03*
X182750000Y-54000000D03*
X144600000Y-39000000D03*
X162250000Y-54000000D03*
X152250000Y-52750000D03*
X189200000Y-41800000D03*
X182750000Y-43000000D03*
X192750000Y-39000000D03*
%TO.N,Bcol1*%
X170000000Y-44750000D03*
X155000000Y-43948000D03*
%TO.N,+3V3*%
X151500000Y-40750000D03*
X153000000Y-44500000D03*
X166272990Y-46272990D03*
X181000000Y-41500000D03*
X162500000Y-44438500D03*
X170000000Y-51250000D03*
X169750000Y-48250000D03*
%TO.N,Lcol1*%
X185330481Y-45382019D03*
%TO.N,Lcol2*%
X186074990Y-47500000D03*
%TO.N,usb_d+*%
X157200000Y-53600000D03*
X161250000Y-51250000D03*
%TO.N,usb_5v*%
X161250000Y-40750000D03*
%TO.N,usb_d-*%
X157000000Y-54400000D03*
X161250000Y-52250000D03*
%TO.N,SD_DAT1*%
X173600000Y-45200000D03*
X156600000Y-40800000D03*
X157200000Y-43016012D03*
%TO.N,SD_DAT0*%
X172600000Y-45200000D03*
X155800000Y-40800000D03*
X156400000Y-43016012D03*
%TO.N,SD_CLK*%
X177200000Y-45200000D03*
X153000000Y-41781001D03*
X152400000Y-40800000D03*
%TO.N,SD_CMD*%
X178400000Y-45200000D03*
%TO.N,SD_DAT3*%
X176000000Y-45200000D03*
%TO.N,SD_DAT2*%
X174800000Y-45200000D03*
%TO.N,L_Audio*%
X171427685Y-50855628D03*
X183250000Y-49500000D03*
X184982522Y-43982522D03*
%TO.N,Net-(R12-Pad1)*%
X182750000Y-55969151D03*
X170000000Y-55489450D03*
X167500000Y-57000000D03*
%TO.N,RST*%
X148750000Y-45500000D03*
X165250000Y-47250000D03*
%TO.N,DAC_DATA*%
X171000000Y-57750000D03*
X178250000Y-53750000D03*
X178250000Y-50948000D03*
%TO.N,SCL*%
X172250000Y-57750000D03*
X176750000Y-48190501D03*
X184750000Y-48250000D03*
%TO.N,SDA*%
X173500000Y-57750000D03*
X177250000Y-49000000D03*
X184242047Y-49157613D03*
%TO.N,MIC_DATA*%
X176000000Y-57750000D03*
X181750000Y-55715141D03*
X177500000Y-55489452D03*
X183750000Y-44750000D03*
%TO.N,MCLK*%
X177250000Y-57750000D03*
%TO.N,BCLK*%
X180250000Y-47500000D03*
%TO.N,LRCLK*%
X179250000Y-47500000D03*
%TO.N,GNDA*%
X182500000Y-50250000D03*
X170000000Y-53750000D03*
X185250000Y-43000000D03*
%TD*%
D23*
%TO.N,row2*%
X185584490Y-58409490D02*
X186175000Y-59000000D01*
X185584490Y-55340510D02*
X185584490Y-58409490D01*
X186175000Y-54750000D02*
X185584490Y-55340510D01*
X160740500Y-45490500D02*
X160750000Y-45500000D01*
X151500000Y-45490500D02*
X160740500Y-45490500D01*
X184925000Y-57750000D02*
X186175000Y-59000000D01*
X182250000Y-57750000D02*
X184925000Y-57750000D01*
%TO.N,Bcol2*%
X168259500Y-45490500D02*
X168500000Y-45250000D01*
X165000000Y-45490500D02*
X168259500Y-45490500D01*
%TO.N,Bcol3*%
X161000000Y-45000000D02*
X162750000Y-46750000D01*
X150150000Y-45000000D02*
X161000000Y-45000000D01*
X149750000Y-45400000D02*
X150150000Y-45000000D01*
%TO.N,row1*%
X185584490Y-49909490D02*
X186175000Y-50500000D01*
X185584490Y-46840510D02*
X185584490Y-49909490D01*
X186175000Y-46250000D02*
X185584490Y-46840510D01*
X186175000Y-51425000D02*
X186500000Y-51750000D01*
X186175000Y-50500000D02*
X186175000Y-51425000D01*
X175240501Y-58240501D02*
X179009499Y-58240501D01*
X174750000Y-57750000D02*
X175240501Y-58240501D01*
X179009499Y-58240501D02*
X180315109Y-58240501D01*
X181813630Y-56741980D02*
X182789572Y-56741980D01*
X180315109Y-58240501D02*
X181813630Y-56741980D01*
X182789572Y-56741980D02*
X183140776Y-56390776D01*
X184000000Y-55531552D02*
X184000000Y-55000000D01*
X183140776Y-56390776D02*
X184000000Y-55531552D01*
%TO.N,BOOT+SD_PULLUP*%
X179750000Y-44250000D02*
X179750000Y-45225942D01*
X178500000Y-57750000D02*
X181495990Y-54754010D01*
X181495990Y-46971932D02*
X181495990Y-54754010D01*
X179750000Y-45225942D02*
X181495990Y-46971932D01*
X161750000Y-40250000D02*
X175250000Y-40250000D01*
X161250000Y-39750000D02*
X161750000Y-40250000D01*
%TO.N,GND*%
X174250001Y-48250001D02*
X174250000Y-48250000D01*
X174250000Y-49125099D02*
X174250001Y-49125100D01*
X174250000Y-48000000D02*
X174250000Y-49125099D01*
X177124900Y-52500001D02*
X177124900Y-53000000D01*
X178250000Y-47025000D02*
X178275000Y-47000000D01*
X178250000Y-48000000D02*
X178250000Y-47025000D01*
D24*
X153600711Y-40600711D02*
X153750000Y-40750000D01*
X153600711Y-39329299D02*
X153600711Y-40600711D01*
D23*
%TO.N,Bcol1*%
X169198000Y-43948000D02*
X170000000Y-44750000D01*
X155000000Y-43948000D02*
X169198000Y-43948000D01*
%TO.N,Net-(C1-Pad2)*%
X173749999Y-47274999D02*
X173749999Y-49125100D01*
X173475000Y-47000000D02*
X173749999Y-47274999D01*
%TO.N,Net-(C1-Pad1)*%
X174750000Y-47275000D02*
X174750000Y-49125100D01*
X175025000Y-47000000D02*
X174750000Y-47275000D01*
%TO.N,Net-(C2-Pad1)*%
X172350100Y-49125100D02*
X173250000Y-49125100D01*
X171612500Y-50346999D02*
X171612500Y-48387500D01*
X171765500Y-50499999D02*
X171612500Y-50346999D01*
X172375100Y-50499999D02*
X171765500Y-50499999D01*
X171612500Y-48387500D02*
X172350100Y-49125100D01*
X170225000Y-47000000D02*
X171612500Y-48387500D01*
%TO.N,Net-(C3-Pad2)*%
X169275000Y-53000000D02*
X168775000Y-53500000D01*
X172375100Y-53000000D02*
X169275000Y-53000000D01*
%TO.N,Net-(C4-Pad2)*%
X169525001Y-52500001D02*
X168775000Y-51750000D01*
X172375100Y-52500001D02*
X169525001Y-52500001D01*
%TO.N,Net-(C5-Pad2)*%
X169326723Y-54698277D02*
X168775000Y-55250000D01*
X169997922Y-54698276D02*
X170630688Y-54065510D01*
X169326723Y-54698277D02*
X169997922Y-54698276D01*
X170630688Y-54065510D02*
X172500000Y-54065510D01*
X173749999Y-54327403D02*
X173749999Y-53874900D01*
X173529401Y-54548001D02*
X173749999Y-54327403D01*
X172970599Y-54548001D02*
X173529401Y-54548001D01*
X172500000Y-54077402D02*
X172970599Y-54548001D01*
X172500000Y-54065510D02*
X172500000Y-54077402D01*
D24*
%TO.N,+3V3*%
X151400713Y-40650713D02*
X151500000Y-40750000D01*
X151400713Y-39329299D02*
X151400713Y-40650713D01*
D23*
X176725000Y-47000000D02*
X176750000Y-47000000D01*
X176504406Y-47000000D02*
X176725000Y-47000000D01*
D24*
X176553802Y-47000000D02*
X176725000Y-47000000D01*
X175249999Y-48303803D02*
X176553802Y-47000000D01*
X175249999Y-49125100D02*
X175249999Y-48303803D01*
X176725000Y-47000000D02*
X175997990Y-46272990D01*
X177452010Y-46272990D02*
X176725000Y-47000000D01*
X178143972Y-46272990D02*
X177452010Y-46272990D01*
X178952001Y-45464961D02*
X178143972Y-46272990D01*
X178952001Y-43547999D02*
X178952001Y-45464961D01*
X181000000Y-41500000D02*
X178952001Y-43547999D01*
X180802001Y-50172999D02*
X180000000Y-50975000D01*
X179464961Y-45464961D02*
X180802001Y-46802001D01*
X180802001Y-46802001D02*
X180802001Y-50172999D01*
X178952001Y-45464961D02*
X179464961Y-45464961D01*
X179475000Y-51500000D02*
X180000000Y-50975000D01*
X177124900Y-51500000D02*
X179475000Y-51500000D01*
X163131038Y-44438500D02*
X162500000Y-44438500D01*
X164965528Y-46272990D02*
X163131038Y-44438500D01*
X166272990Y-46272990D02*
X164965528Y-46272990D01*
X162438500Y-44500000D02*
X162500000Y-44438500D01*
X153000000Y-44500000D02*
X162438500Y-44500000D01*
X170749999Y-51999999D02*
X170000000Y-51250000D01*
X172375100Y-51999999D02*
X170749999Y-51999999D01*
X169450001Y-46950001D02*
X168772990Y-46272990D01*
X169450001Y-47950001D02*
X169450001Y-46950001D01*
X169750000Y-48250000D02*
X169450001Y-47950001D01*
X168772990Y-46272990D02*
X166272990Y-46272990D01*
X175997990Y-46272990D02*
X168772990Y-46272990D01*
X170000000Y-51225000D02*
X168775000Y-50000000D01*
X170000000Y-51250000D02*
X170000000Y-51225000D01*
D23*
%TO.N,Lcol1*%
X185330481Y-52117981D02*
X186212500Y-53000000D01*
X185330481Y-45382019D02*
X185330481Y-52117981D01*
X186212500Y-44500000D02*
X185481250Y-45231250D01*
X185481250Y-45231250D02*
X185330481Y-45382019D01*
%TO.N,Net-(D1-Pad1)*%
X187787500Y-46212500D02*
X187825000Y-46250000D01*
X187787500Y-44500000D02*
X187787500Y-46212500D01*
%TO.N,Lcol2*%
X186990501Y-56471999D02*
X186212500Y-57250000D01*
X186990501Y-49090501D02*
X186990501Y-56471999D01*
X186650000Y-48750000D02*
X186990501Y-49090501D01*
X186212500Y-48750000D02*
X186650000Y-48750000D01*
X186212500Y-47637510D02*
X186074990Y-47500000D01*
X186212500Y-48750000D02*
X186212500Y-47637510D01*
%TO.N,Net-(D2-Pad1)*%
X187787500Y-50462500D02*
X187825000Y-50500000D01*
X187787500Y-48750000D02*
X187787500Y-50462500D01*
%TO.N,Net-(D3-Pad1)*%
X187787500Y-54712500D02*
X187825000Y-54750000D01*
X187787500Y-53000000D02*
X187787500Y-54712500D01*
%TO.N,Net-(D4-Pad1)*%
X187787500Y-58962500D02*
X187825000Y-59000000D01*
X187787500Y-57250000D02*
X187787500Y-58962500D01*
%TO.N,Net-(D5-Pad1)*%
X187787500Y-40387500D02*
X186175000Y-42000000D01*
X187787500Y-40250000D02*
X187787500Y-40387500D01*
%TO.N,usb_d+*%
X158900000Y-53600000D02*
X161250000Y-51250000D01*
X157200000Y-53600000D02*
X158900000Y-53600000D01*
%TO.N,usb_5v*%
X185712500Y-40750000D02*
X186212500Y-40250000D01*
X161250000Y-40750000D02*
X185712500Y-40750000D01*
%TO.N,usb_d-*%
X158850000Y-54400000D02*
X157000000Y-54400000D01*
X159100000Y-54400000D02*
X158850000Y-54400000D01*
X161250000Y-52250000D02*
X159100000Y-54400000D01*
%TO.N,SD_DAT1*%
X155800712Y-39329299D02*
X155800712Y-39800712D01*
X155800712Y-40000712D02*
X156600000Y-40800000D01*
X155800712Y-39329299D02*
X155800712Y-40000712D01*
X171416012Y-43016012D02*
X157800000Y-43016012D01*
X173600000Y-45200000D02*
X171416012Y-43016012D01*
X157800000Y-43016012D02*
X157200000Y-43016012D01*
%TO.N,SD_DAT0*%
X155142712Y-40800000D02*
X155800000Y-40800000D01*
X154700711Y-40357999D02*
X155142712Y-40800000D01*
X154700711Y-39329299D02*
X154700711Y-40357999D01*
X170906513Y-43506513D02*
X172600000Y-45200000D01*
X156890501Y-43506513D02*
X170906513Y-43506513D01*
X156400000Y-43016012D02*
X156890501Y-43506513D01*
%TO.N,SD_CLK*%
X173781001Y-41781001D02*
X153000000Y-41781001D01*
X177200000Y-45200000D02*
X173781001Y-41781001D01*
X152400000Y-39430010D02*
X152500711Y-39329299D01*
X152400000Y-40800000D02*
X152400000Y-39430010D01*
%TO.N,SD_CMD*%
X151233215Y-41290501D02*
X150300713Y-40357999D01*
X174490501Y-41290501D02*
X151233215Y-41290501D01*
X150300713Y-40357999D02*
X150300713Y-39329299D01*
X178400000Y-45200000D02*
X174490501Y-41290501D01*
%TO.N,SD_DAT3*%
X149200712Y-40357999D02*
X149200712Y-39329299D01*
X151114215Y-42271502D02*
X149200712Y-40357999D01*
X173071502Y-42271502D02*
X151114215Y-42271502D01*
X176000000Y-45200000D02*
X173071502Y-42271502D01*
%TO.N,SD_DAT2*%
X148100712Y-40357999D02*
X148100712Y-39329299D01*
X150268225Y-42525512D02*
X148100712Y-40357999D01*
X172125512Y-42525512D02*
X150268225Y-42525512D01*
X174800000Y-45200000D02*
X172125512Y-42525512D01*
%TO.N,R_Audio*%
X143000000Y-40500000D02*
X152846499Y-50346499D01*
X158477395Y-50346499D02*
X152846499Y-50346499D01*
X159489404Y-49334490D02*
X158477395Y-50346499D01*
X169180605Y-49334490D02*
X159489404Y-49334490D01*
X171346115Y-51500000D02*
X169180605Y-49334490D01*
X172375100Y-51500000D02*
X171346115Y-51500000D01*
%TO.N,L_Audio*%
X171572058Y-51000001D02*
X171427685Y-50855628D01*
X172375100Y-51000001D02*
X171572058Y-51000001D01*
X183250000Y-48640776D02*
X183250000Y-49500000D01*
X184500000Y-47390776D02*
X183250000Y-48640776D01*
X184500000Y-44465044D02*
X184982522Y-43982522D01*
X184500000Y-47390776D02*
X184500000Y-44465044D01*
%TO.N,Net-(R12-Pad1)*%
X187787500Y-41962500D02*
X187825000Y-42000000D01*
X182750000Y-55524058D02*
X183751546Y-54522512D01*
X182750000Y-55969151D02*
X182750000Y-55524058D01*
X168489450Y-57000000D02*
X167500000Y-57000000D01*
X170000000Y-55489450D02*
X168489450Y-57000000D01*
X183751546Y-48498454D02*
X183751546Y-54522512D01*
X184839980Y-47410020D02*
X183751546Y-48498454D01*
X184839980Y-47410020D02*
X184839980Y-44818736D01*
X187658716Y-42000000D02*
X187825000Y-42000000D01*
X184839980Y-44818736D02*
X187658716Y-42000000D01*
%TO.N,RST*%
X149231001Y-45981001D02*
X148750000Y-45500000D01*
X160505059Y-45981001D02*
X149231001Y-45981001D01*
X161774058Y-47250000D02*
X165250000Y-47250000D01*
X160505059Y-45981001D02*
X161774058Y-47250000D01*
%TO.N,DAC_DATA*%
X171000000Y-57750000D02*
X171750000Y-57000000D01*
X171750000Y-57000000D02*
X175000000Y-57000000D01*
X175000000Y-57000000D02*
X178250000Y-53750000D01*
X177124901Y-51000000D02*
X177124900Y-51000001D01*
X178197999Y-51000001D02*
X178250000Y-50948000D01*
X177124900Y-51000001D02*
X178197999Y-51000001D01*
%TO.N,SCL*%
X175750001Y-48250001D02*
X175750000Y-48250000D01*
X176075000Y-48190501D02*
X176750000Y-48190501D01*
X175750001Y-48515500D02*
X176075000Y-48190501D01*
X175750001Y-49125100D02*
X175750001Y-48515500D01*
X182024058Y-57250000D02*
X180525539Y-58748519D01*
X183000000Y-57250000D02*
X182024058Y-57250000D01*
X184750000Y-55500000D02*
X183000000Y-57250000D01*
X184750000Y-48250000D02*
X184750000Y-55500000D01*
X173248519Y-58748519D02*
X172250000Y-57750000D01*
X180525539Y-58748519D02*
X173248519Y-58748519D01*
%TO.N,SDA*%
X176250000Y-49125100D02*
X176250000Y-48750000D01*
X177124900Y-49125100D02*
X177250000Y-49000000D01*
X176250000Y-49125100D02*
X177124900Y-49125100D01*
X180420324Y-58494510D02*
X174244510Y-58494510D01*
X181918844Y-56995990D02*
X180420324Y-58494510D01*
X182894786Y-56995990D02*
X181918844Y-56995990D01*
X184495990Y-55394786D02*
X182894786Y-56995990D01*
X174244510Y-58494510D02*
X173500000Y-57750000D01*
X184495990Y-49411556D02*
X184495990Y-55394786D01*
X184242047Y-49157613D02*
X184495990Y-49411556D01*
%TO.N,MIC_DATA*%
X176000000Y-56989452D02*
X176000000Y-57750000D01*
X177500000Y-55489452D02*
X176000000Y-56989452D01*
X181750000Y-49422328D02*
X183991980Y-47180348D01*
X181750000Y-55715141D02*
X181750000Y-49422328D01*
X183991980Y-44991980D02*
X183750000Y-44750000D01*
X183991980Y-47180348D02*
X183991980Y-44991980D01*
%TO.N,MCLK*%
X177124900Y-51999999D02*
X178249999Y-51999999D01*
X178740501Y-56259499D02*
X177250000Y-57750000D01*
X178740501Y-52490501D02*
X178740501Y-56259499D01*
X178249999Y-51999999D02*
X178740501Y-52490501D01*
%TO.N,BCLK*%
X180250000Y-47984499D02*
X180250000Y-47500000D01*
X177734500Y-50499999D02*
X180250000Y-47984499D01*
X177124900Y-50499999D02*
X177734500Y-50499999D01*
%TO.N,LRCLK*%
X177124900Y-50000000D02*
X177750000Y-50000000D01*
X179250000Y-48500000D02*
X177750000Y-50000000D01*
X179250000Y-47500000D02*
X179250000Y-48500000D01*
D24*
%TO.N,GNDA*%
X167225000Y-55250000D02*
X167225000Y-53500000D01*
X167225000Y-51750000D02*
X167225000Y-53500000D01*
X167225000Y-51750000D02*
X167225000Y-50000000D01*
D23*
X140750000Y-42250000D02*
X139000000Y-40500000D01*
X144250000Y-42250000D02*
X140750000Y-42250000D01*
X152600509Y-50600509D02*
X144250000Y-42250000D01*
D24*
X167225000Y-53975000D02*
X167632767Y-54382767D01*
X167225000Y-53500000D02*
X167225000Y-53975000D01*
X167632767Y-54382767D02*
X169867233Y-54382767D01*
X170000000Y-54250000D02*
X169867233Y-54382767D01*
X170000000Y-53750000D02*
X170000000Y-54250000D01*
D23*
X182500000Y-49031552D02*
X184245990Y-47285562D01*
X182500000Y-50250000D02*
X182500000Y-49031552D01*
D24*
X173125100Y-53750000D02*
X173250000Y-53874900D01*
X170000000Y-53750000D02*
X173125100Y-53750000D01*
D23*
X152600509Y-50600509D02*
X158582610Y-50600508D01*
X158582610Y-50600508D02*
X159594618Y-49588500D01*
X166813500Y-49588500D02*
X167225000Y-50000000D01*
X159594618Y-49588500D02*
X166813500Y-49588500D01*
X184245990Y-47285562D02*
X184245990Y-43993112D01*
X184256888Y-43993112D02*
X185250000Y-43000000D01*
X184245990Y-43993112D02*
X184256888Y-43993112D01*
%TD*%
D25*
%TO.N,GND*%
X145572130Y-38606656D02*
X145553432Y-38668296D01*
X145547118Y-38732399D01*
X145548700Y-39272949D01*
X145630450Y-39354699D01*
X146498000Y-39354699D01*
X146498000Y-39334699D01*
X146752000Y-39334699D01*
X146752000Y-39354699D01*
X146772000Y-39354699D01*
X146772000Y-39608699D01*
X146752000Y-39608699D01*
X146752000Y-40476249D01*
X146833750Y-40557999D01*
X147374300Y-40559581D01*
X147438403Y-40553267D01*
X147496613Y-40535610D01*
X147509249Y-40545980D01*
X147574742Y-40580987D01*
X147645807Y-40602544D01*
X147719712Y-40609823D01*
X147737530Y-40609823D01*
X147787725Y-40670986D01*
X147804534Y-40684781D01*
X149941445Y-42821693D01*
X149955238Y-42838499D01*
X150022312Y-42893546D01*
X150098837Y-42934450D01*
X150181872Y-42959638D01*
X150246589Y-42966012D01*
X150246598Y-42966012D01*
X150268224Y-42968142D01*
X150289850Y-42966012D01*
X155723000Y-42966012D01*
X155723000Y-43082691D01*
X155749016Y-43213486D01*
X155800050Y-43336692D01*
X155874140Y-43447575D01*
X155934065Y-43507500D01*
X155516923Y-43507500D01*
X155431563Y-43422140D01*
X155320680Y-43348050D01*
X155197474Y-43297016D01*
X155066679Y-43271000D01*
X154933321Y-43271000D01*
X154802526Y-43297016D01*
X154679320Y-43348050D01*
X154568437Y-43422140D01*
X154474140Y-43516437D01*
X154400050Y-43627320D01*
X154349016Y-43750526D01*
X154323000Y-43881321D01*
X154323000Y-43998000D01*
X153455423Y-43998000D01*
X153431563Y-43974140D01*
X153320680Y-43900050D01*
X153197474Y-43849016D01*
X153066679Y-43823000D01*
X152933321Y-43823000D01*
X152802526Y-43849016D01*
X152679320Y-43900050D01*
X152568437Y-43974140D01*
X152474140Y-44068437D01*
X152400050Y-44179320D01*
X152349016Y-44302526D01*
X152323000Y-44433321D01*
X152323000Y-44559500D01*
X150171625Y-44559500D01*
X150149999Y-44557370D01*
X150128373Y-44559500D01*
X150128364Y-44559500D01*
X150063647Y-44565874D01*
X149980612Y-44591062D01*
X149904087Y-44631966D01*
X149837013Y-44687013D01*
X149823222Y-44703817D01*
X149804039Y-44723000D01*
X149683321Y-44723000D01*
X149552526Y-44749016D01*
X149429320Y-44800050D01*
X149318437Y-44874140D01*
X149224140Y-44968437D01*
X149204802Y-44997379D01*
X149181563Y-44974140D01*
X149070680Y-44900050D01*
X148947474Y-44849016D01*
X148816679Y-44823000D01*
X148683321Y-44823000D01*
X148552526Y-44849016D01*
X148429320Y-44900050D01*
X148318437Y-44974140D01*
X148224140Y-45068437D01*
X148211025Y-45088065D01*
X144045029Y-40922069D01*
X144083690Y-40828734D01*
X144127000Y-40611000D01*
X144127000Y-40389000D01*
X144095572Y-40230999D01*
X145547118Y-40230999D01*
X145553432Y-40295102D01*
X145572130Y-40356742D01*
X145602494Y-40413549D01*
X145643357Y-40463342D01*
X145693150Y-40504205D01*
X145749957Y-40534569D01*
X145811597Y-40553267D01*
X145875700Y-40559581D01*
X146416250Y-40557999D01*
X146498000Y-40476249D01*
X146498000Y-39608699D01*
X145630450Y-39608699D01*
X145548700Y-39690449D01*
X145547118Y-40230999D01*
X144095572Y-40230999D01*
X144083690Y-40171266D01*
X143998734Y-39966165D01*
X143875398Y-39781579D01*
X143718421Y-39624602D01*
X143533835Y-39501266D01*
X143328734Y-39416310D01*
X143111000Y-39373000D01*
X142889000Y-39373000D01*
X142671266Y-39416310D01*
X142466165Y-39501266D01*
X142281579Y-39624602D01*
X142124602Y-39781579D01*
X142001266Y-39966165D01*
X141916310Y-40171266D01*
X141873000Y-40389000D01*
X141873000Y-40611000D01*
X141916310Y-40828734D01*
X142001266Y-41033835D01*
X142124602Y-41218421D01*
X142281579Y-41375398D01*
X142466165Y-41498734D01*
X142671266Y-41583690D01*
X142889000Y-41627000D01*
X143111000Y-41627000D01*
X143328734Y-41583690D01*
X143422069Y-41545029D01*
X143686540Y-41809500D01*
X140932461Y-41809500D01*
X140045029Y-40922069D01*
X140083690Y-40828734D01*
X140127000Y-40611000D01*
X140127000Y-40389000D01*
X140083690Y-40171266D01*
X139998734Y-39966165D01*
X139875398Y-39781579D01*
X139718421Y-39624602D01*
X139533835Y-39501266D01*
X139328734Y-39416310D01*
X139111000Y-39373000D01*
X138889000Y-39373000D01*
X138671266Y-39416310D01*
X138466165Y-39501266D01*
X138281579Y-39624602D01*
X138124602Y-39781579D01*
X138001266Y-39966165D01*
X137916310Y-40171266D01*
X137873000Y-40389000D01*
X137873000Y-40611000D01*
X137916310Y-40828734D01*
X138001266Y-41033835D01*
X138124602Y-41218421D01*
X138281579Y-41375398D01*
X138466165Y-41498734D01*
X138671266Y-41583690D01*
X138889000Y-41627000D01*
X139111000Y-41627000D01*
X139328734Y-41583690D01*
X139422069Y-41545029D01*
X140423220Y-42546181D01*
X140437013Y-42562987D01*
X140504087Y-42618034D01*
X140580612Y-42658938D01*
X140663647Y-42684126D01*
X140728364Y-42690500D01*
X140728371Y-42690500D01*
X140750000Y-42692630D01*
X140771629Y-42690500D01*
X144067540Y-42690500D01*
X146581055Y-45204015D01*
X146503542Y-45204598D01*
X146421792Y-45286348D01*
X146421792Y-46179298D01*
X146959142Y-46179298D01*
X147040892Y-46097548D01*
X147042101Y-45665061D01*
X152273737Y-50896698D01*
X152287523Y-50913496D01*
X152304321Y-50927282D01*
X152304327Y-50927288D01*
X152354596Y-50968543D01*
X152431121Y-51009447D01*
X152514156Y-51034635D01*
X152524296Y-51035634D01*
X152578874Y-51041009D01*
X152578879Y-51041009D01*
X152600508Y-51043139D01*
X152622137Y-51041009D01*
X158560971Y-51041007D01*
X158582610Y-51043138D01*
X158668962Y-51034634D01*
X158751997Y-51009446D01*
X158828522Y-50968542D01*
X158878791Y-50927287D01*
X158878794Y-50927284D01*
X158895597Y-50913494D01*
X158909387Y-50896691D01*
X159777079Y-50029000D01*
X166396176Y-50029000D01*
X166396176Y-50250000D01*
X166407778Y-50367800D01*
X166442139Y-50481073D01*
X166497939Y-50585467D01*
X166573032Y-50676968D01*
X166664533Y-50752061D01*
X166723001Y-50783313D01*
X166723000Y-50966687D01*
X166664533Y-50997939D01*
X166573032Y-51073032D01*
X166497939Y-51164533D01*
X166442139Y-51268927D01*
X166407778Y-51382200D01*
X166396176Y-51500000D01*
X166396176Y-52000000D01*
X166407778Y-52117800D01*
X166442139Y-52231073D01*
X166497939Y-52335467D01*
X166573032Y-52426968D01*
X166664533Y-52502061D01*
X166723000Y-52533313D01*
X166723001Y-52716687D01*
X166664533Y-52747939D01*
X166573032Y-52823032D01*
X166497939Y-52914533D01*
X166442139Y-53018927D01*
X166407778Y-53132200D01*
X166396176Y-53250000D01*
X166396176Y-53750000D01*
X166407778Y-53867800D01*
X166442139Y-53981073D01*
X166497939Y-54085467D01*
X166573032Y-54176968D01*
X166664533Y-54252061D01*
X166723001Y-54283313D01*
X166723000Y-54466687D01*
X166664533Y-54497939D01*
X166573032Y-54573032D01*
X166497939Y-54664533D01*
X166442139Y-54768927D01*
X166407778Y-54882200D01*
X166396176Y-55000000D01*
X166396176Y-55500000D01*
X166407778Y-55617800D01*
X166442139Y-55731073D01*
X166497939Y-55835467D01*
X166573032Y-55926968D01*
X166664533Y-56002061D01*
X166768927Y-56057861D01*
X166882200Y-56092222D01*
X167000000Y-56103824D01*
X167450000Y-56103824D01*
X167567800Y-56092222D01*
X167681073Y-56057861D01*
X167785467Y-56002061D01*
X167876968Y-55926968D01*
X167952061Y-55835467D01*
X168000000Y-55745780D01*
X168047939Y-55835467D01*
X168123032Y-55926968D01*
X168214533Y-56002061D01*
X168318927Y-56057861D01*
X168432200Y-56092222D01*
X168550000Y-56103824D01*
X168762666Y-56103824D01*
X168306990Y-56559500D01*
X168016923Y-56559500D01*
X167931563Y-56474140D01*
X167820680Y-56400050D01*
X167697474Y-56349016D01*
X167566679Y-56323000D01*
X167433321Y-56323000D01*
X167302526Y-56349016D01*
X167179320Y-56400050D01*
X167068437Y-56474140D01*
X166974140Y-56568437D01*
X166900050Y-56679320D01*
X166849016Y-56802526D01*
X166823000Y-56933321D01*
X166823000Y-57066679D01*
X166849016Y-57197474D01*
X166900050Y-57320680D01*
X166974140Y-57431563D01*
X167068437Y-57525860D01*
X167179320Y-57599950D01*
X167302526Y-57650984D01*
X167433321Y-57677000D01*
X167566679Y-57677000D01*
X167697474Y-57650984D01*
X167820680Y-57599950D01*
X167931563Y-57525860D01*
X168016923Y-57440500D01*
X168467821Y-57440500D01*
X168489450Y-57442630D01*
X168511079Y-57440500D01*
X168511086Y-57440500D01*
X168575803Y-57434126D01*
X168658838Y-57408938D01*
X168735363Y-57368034D01*
X168802437Y-57312987D01*
X168816232Y-57296178D01*
X169945961Y-56166450D01*
X170066679Y-56166450D01*
X170197474Y-56140434D01*
X170320680Y-56089400D01*
X170431563Y-56015310D01*
X170525860Y-55921013D01*
X170599950Y-55810130D01*
X170650984Y-55686924D01*
X170677000Y-55556129D01*
X170677000Y-55422771D01*
X170650984Y-55291976D01*
X170599950Y-55168770D01*
X170525860Y-55057887D01*
X170431563Y-54963590D01*
X170386007Y-54933151D01*
X170813149Y-54506010D01*
X172305648Y-54506010D01*
X172643821Y-54844184D01*
X172657612Y-54860988D01*
X172674415Y-54874778D01*
X172674417Y-54874780D01*
X172685862Y-54884173D01*
X172724686Y-54916035D01*
X172801211Y-54956939D01*
X172884246Y-54982127D01*
X172948963Y-54988501D01*
X172948972Y-54988501D01*
X172970598Y-54990631D01*
X172992224Y-54988501D01*
X173507772Y-54988501D01*
X173529401Y-54990631D01*
X173551030Y-54988501D01*
X173551037Y-54988501D01*
X173615754Y-54982127D01*
X173698789Y-54956939D01*
X173775314Y-54916035D01*
X173842388Y-54860988D01*
X173856183Y-54844179D01*
X173980205Y-54720157D01*
X174000000Y-54714152D01*
X174049096Y-54729045D01*
X174123001Y-54736324D01*
X174377001Y-54736324D01*
X174450906Y-54729045D01*
X174500001Y-54714153D01*
X174549095Y-54729045D01*
X174623000Y-54736324D01*
X174877000Y-54736324D01*
X174950905Y-54729045D01*
X175000000Y-54714153D01*
X175049094Y-54729045D01*
X175122999Y-54736324D01*
X175376999Y-54736324D01*
X175450904Y-54729045D01*
X175500000Y-54714152D01*
X175549096Y-54729045D01*
X175623001Y-54736324D01*
X175877001Y-54736324D01*
X175950906Y-54729045D01*
X176000001Y-54714153D01*
X176049095Y-54729045D01*
X176123000Y-54736324D01*
X176377000Y-54736324D01*
X176450905Y-54729045D01*
X176521970Y-54707488D01*
X176587463Y-54672481D01*
X176644869Y-54625369D01*
X176691981Y-54567963D01*
X176726988Y-54502470D01*
X176748545Y-54431405D01*
X176755824Y-54357500D01*
X176755824Y-53454926D01*
X176916150Y-53454000D01*
X176997900Y-53372250D01*
X176997900Y-52505823D01*
X177251900Y-52505823D01*
X177251900Y-53372250D01*
X177333650Y-53454000D01*
X177607500Y-53455582D01*
X177640519Y-53452330D01*
X177599016Y-53552526D01*
X177573000Y-53683321D01*
X177573000Y-53804039D01*
X174817540Y-56559500D01*
X171771625Y-56559500D01*
X171749999Y-56557370D01*
X171728373Y-56559500D01*
X171728364Y-56559500D01*
X171663647Y-56565874D01*
X171580612Y-56591062D01*
X171504087Y-56631966D01*
X171459648Y-56668437D01*
X171437013Y-56687013D01*
X171423222Y-56703817D01*
X171054040Y-57073000D01*
X170933321Y-57073000D01*
X170802526Y-57099016D01*
X170679320Y-57150050D01*
X170568437Y-57224140D01*
X170474140Y-57318437D01*
X170400050Y-57429320D01*
X170349016Y-57552526D01*
X170323000Y-57683321D01*
X170323000Y-57816679D01*
X170349016Y-57947474D01*
X170400050Y-58070680D01*
X170474140Y-58181563D01*
X170568437Y-58275860D01*
X170679320Y-58349950D01*
X170802526Y-58400984D01*
X170933321Y-58427000D01*
X171066679Y-58427000D01*
X171197474Y-58400984D01*
X171320680Y-58349950D01*
X171431563Y-58275860D01*
X171525860Y-58181563D01*
X171599950Y-58070680D01*
X171625000Y-58010204D01*
X171650050Y-58070680D01*
X171724140Y-58181563D01*
X171818437Y-58275860D01*
X171929320Y-58349950D01*
X172052526Y-58400984D01*
X172183321Y-58427000D01*
X172304040Y-58427000D01*
X172921742Y-59044702D01*
X172935532Y-59061506D01*
X172952335Y-59075296D01*
X172952337Y-59075298D01*
X173002606Y-59116553D01*
X173079131Y-59157457D01*
X173162166Y-59182645D01*
X173226883Y-59189019D01*
X173226889Y-59189019D01*
X173248518Y-59191149D01*
X173270147Y-59189019D01*
X180503910Y-59189019D01*
X180525539Y-59191149D01*
X180547168Y-59189019D01*
X180547175Y-59189019D01*
X180611892Y-59182645D01*
X180694927Y-59157457D01*
X180771452Y-59116553D01*
X180838526Y-59061506D01*
X180852321Y-59044697D01*
X181720662Y-58176357D01*
X181724140Y-58181563D01*
X181818437Y-58275860D01*
X181929320Y-58349950D01*
X182052526Y-58400984D01*
X182183321Y-58427000D01*
X182316679Y-58427000D01*
X182447474Y-58400984D01*
X182570680Y-58349950D01*
X182681563Y-58275860D01*
X182766923Y-58190500D01*
X184742540Y-58190500D01*
X185257716Y-58705677D01*
X185271504Y-58722477D01*
X185288304Y-58736265D01*
X185396176Y-58844137D01*
X185396176Y-59275000D01*
X185407298Y-59387923D01*
X185425522Y-59448000D01*
X161816597Y-59448000D01*
X161907835Y-59322080D01*
X161984411Y-59155408D01*
X162027000Y-58977000D01*
X162027000Y-58627000D01*
X161227000Y-58627000D01*
X161227000Y-58647000D01*
X160973000Y-58647000D01*
X160973000Y-58627000D01*
X160173000Y-58627000D01*
X160173000Y-58977000D01*
X160215589Y-59155408D01*
X160292165Y-59322080D01*
X160383403Y-59448000D01*
X154816597Y-59448000D01*
X154907835Y-59322080D01*
X154984411Y-59155408D01*
X155027000Y-58977000D01*
X155027000Y-58627000D01*
X154227000Y-58627000D01*
X154227000Y-58647000D01*
X153973000Y-58647000D01*
X153973000Y-58627000D01*
X153173000Y-58627000D01*
X153173000Y-58737927D01*
X152475725Y-58023000D01*
X153173000Y-58023000D01*
X153173000Y-58373000D01*
X153973000Y-58373000D01*
X153973000Y-57314345D01*
X154227000Y-57314345D01*
X154227000Y-58373000D01*
X155027000Y-58373000D01*
X155027000Y-58023000D01*
X160173000Y-58023000D01*
X160173000Y-58373000D01*
X160973000Y-58373000D01*
X160973000Y-57314345D01*
X161227000Y-57314345D01*
X161227000Y-58373000D01*
X162027000Y-58373000D01*
X162027000Y-58023000D01*
X161984411Y-57844592D01*
X161907835Y-57677920D01*
X161800214Y-57529390D01*
X161665685Y-57404710D01*
X161509417Y-57308671D01*
X161369084Y-57262913D01*
X161227000Y-57314345D01*
X160973000Y-57314345D01*
X160830916Y-57262913D01*
X160690583Y-57308671D01*
X160534315Y-57404710D01*
X160399786Y-57529390D01*
X160292165Y-57677920D01*
X160215589Y-57844592D01*
X160173000Y-58023000D01*
X155027000Y-58023000D01*
X154984411Y-57844592D01*
X154907835Y-57677920D01*
X154800214Y-57529390D01*
X154665685Y-57404710D01*
X154509417Y-57308671D01*
X154369084Y-57262913D01*
X154227000Y-57314345D01*
X153973000Y-57314345D01*
X153830916Y-57262913D01*
X153690583Y-57308671D01*
X153534315Y-57404710D01*
X153399786Y-57529390D01*
X153292165Y-57677920D01*
X153215589Y-57844592D01*
X153173000Y-58023000D01*
X152475725Y-58023000D01*
X151062111Y-56573600D01*
X154506005Y-56573600D01*
X154585904Y-56723658D01*
X154775979Y-56806205D01*
X154978506Y-56850085D01*
X155185702Y-56853610D01*
X155389605Y-56816645D01*
X155582378Y-56740611D01*
X155614096Y-56723658D01*
X155693995Y-56573600D01*
X159506005Y-56573600D01*
X159585904Y-56723658D01*
X159775979Y-56806205D01*
X159978506Y-56850085D01*
X160185702Y-56853610D01*
X160389605Y-56816645D01*
X160582378Y-56740611D01*
X160614096Y-56723658D01*
X160693995Y-56573600D01*
X160100000Y-55979605D01*
X159506005Y-56573600D01*
X155693995Y-56573600D01*
X155100000Y-55979605D01*
X154506005Y-56573600D01*
X151062111Y-56573600D01*
X150391196Y-55885702D01*
X154046390Y-55885702D01*
X154083355Y-56089605D01*
X154159389Y-56282378D01*
X154176342Y-56314096D01*
X154326400Y-56393995D01*
X154920395Y-55800000D01*
X155279605Y-55800000D01*
X155873600Y-56393995D01*
X156023658Y-56314096D01*
X156106205Y-56124021D01*
X156150085Y-55921494D01*
X156150693Y-55885702D01*
X159046390Y-55885702D01*
X159083355Y-56089605D01*
X159159389Y-56282378D01*
X159176342Y-56314096D01*
X159326400Y-56393995D01*
X159920395Y-55800000D01*
X160279605Y-55800000D01*
X160873600Y-56393995D01*
X161023658Y-56314096D01*
X161106205Y-56124021D01*
X161150085Y-55921494D01*
X161153610Y-55714298D01*
X161116645Y-55510395D01*
X161040611Y-55317622D01*
X161023658Y-55285904D01*
X160873600Y-55206005D01*
X160279605Y-55800000D01*
X159920395Y-55800000D01*
X159326400Y-55206005D01*
X159176342Y-55285904D01*
X159093795Y-55475979D01*
X159049915Y-55678506D01*
X159046390Y-55885702D01*
X156150693Y-55885702D01*
X156153610Y-55714298D01*
X156116645Y-55510395D01*
X156040611Y-55317622D01*
X156023658Y-55285904D01*
X155873600Y-55206005D01*
X155279605Y-55800000D01*
X154920395Y-55800000D01*
X154326400Y-55206005D01*
X154176342Y-55285904D01*
X154093795Y-55475979D01*
X154049915Y-55678506D01*
X154046390Y-55885702D01*
X150391196Y-55885702D01*
X149553110Y-55026400D01*
X154506005Y-55026400D01*
X155100000Y-55620395D01*
X155693995Y-55026400D01*
X155614096Y-54876342D01*
X155424021Y-54793795D01*
X155221494Y-54749915D01*
X155014298Y-54746390D01*
X154810395Y-54783355D01*
X154617622Y-54859389D01*
X154585904Y-54876342D01*
X154506005Y-55026400D01*
X149553110Y-55026400D01*
X148877143Y-54333321D01*
X156323000Y-54333321D01*
X156323000Y-54466679D01*
X156349016Y-54597474D01*
X156400050Y-54720680D01*
X156474140Y-54831563D01*
X156568437Y-54925860D01*
X156679320Y-54999950D01*
X156802526Y-55050984D01*
X156933321Y-55077000D01*
X157066679Y-55077000D01*
X157197474Y-55050984D01*
X157256824Y-55026400D01*
X159506005Y-55026400D01*
X160100000Y-55620395D01*
X160693995Y-55026400D01*
X160614096Y-54876342D01*
X160424021Y-54793795D01*
X160221494Y-54749915D01*
X160014298Y-54746390D01*
X159810395Y-54783355D01*
X159617622Y-54859389D01*
X159585904Y-54876342D01*
X159506005Y-55026400D01*
X157256824Y-55026400D01*
X157320680Y-54999950D01*
X157431563Y-54925860D01*
X157516923Y-54840500D01*
X159078371Y-54840500D01*
X159100000Y-54842630D01*
X159121629Y-54840500D01*
X159121636Y-54840500D01*
X159186353Y-54834126D01*
X159269388Y-54808938D01*
X159345913Y-54768034D01*
X159412987Y-54712987D01*
X159426782Y-54696178D01*
X161195961Y-52927000D01*
X161316679Y-52927000D01*
X161447474Y-52900984D01*
X161570680Y-52849950D01*
X161681563Y-52775860D01*
X161775860Y-52681563D01*
X161849950Y-52570680D01*
X161900984Y-52447474D01*
X161927000Y-52316679D01*
X161927000Y-52183321D01*
X161900984Y-52052526D01*
X161849950Y-51929320D01*
X161775860Y-51818437D01*
X161707423Y-51750000D01*
X161775860Y-51681563D01*
X161849950Y-51570680D01*
X161900984Y-51447474D01*
X161927000Y-51316679D01*
X161927000Y-51183321D01*
X161900984Y-51052526D01*
X161849950Y-50929320D01*
X161775860Y-50818437D01*
X161681563Y-50724140D01*
X161570680Y-50650050D01*
X161447474Y-50599016D01*
X161316679Y-50573000D01*
X161183321Y-50573000D01*
X161052526Y-50599016D01*
X160929320Y-50650050D01*
X160818437Y-50724140D01*
X160724140Y-50818437D01*
X160650050Y-50929320D01*
X160599016Y-51052526D01*
X160573000Y-51183321D01*
X160573000Y-51304039D01*
X158717540Y-53159500D01*
X157716923Y-53159500D01*
X157631563Y-53074140D01*
X157520680Y-53000050D01*
X157397474Y-52949016D01*
X157266679Y-52923000D01*
X157133321Y-52923000D01*
X157002526Y-52949016D01*
X156879320Y-53000050D01*
X156768437Y-53074140D01*
X156674140Y-53168437D01*
X156600050Y-53279320D01*
X156549016Y-53402526D01*
X156523000Y-53533321D01*
X156523000Y-53666679D01*
X156549016Y-53797474D01*
X156578098Y-53867684D01*
X156568437Y-53874140D01*
X156474140Y-53968437D01*
X156400050Y-54079320D01*
X156349016Y-54202526D01*
X156323000Y-54333321D01*
X148877143Y-54333321D01*
X143266841Y-48581000D01*
X145547034Y-48581000D01*
X145553348Y-48645103D01*
X145572046Y-48706743D01*
X145602410Y-48763550D01*
X145643273Y-48813343D01*
X145693066Y-48854206D01*
X145749873Y-48884570D01*
X145811513Y-48903268D01*
X145875616Y-48909582D01*
X146441566Y-48908000D01*
X146523316Y-48826250D01*
X146523316Y-48187300D01*
X146777316Y-48187300D01*
X146777316Y-48826250D01*
X146859066Y-48908000D01*
X147425016Y-48909582D01*
X147489119Y-48903268D01*
X147550759Y-48884570D01*
X147607566Y-48854206D01*
X147657359Y-48813343D01*
X147698222Y-48763550D01*
X147728586Y-48706743D01*
X147747284Y-48645103D01*
X147753598Y-48581000D01*
X147752016Y-48269050D01*
X147670266Y-48187300D01*
X146777316Y-48187300D01*
X146523316Y-48187300D01*
X145630366Y-48187300D01*
X145548616Y-48269050D01*
X145547034Y-48581000D01*
X143266841Y-48581000D01*
X142251153Y-47539600D01*
X145547034Y-47539600D01*
X145548616Y-47851550D01*
X145630366Y-47933300D01*
X146523316Y-47933300D01*
X146523316Y-47913300D01*
X146777316Y-47913300D01*
X146777316Y-47933300D01*
X147670266Y-47933300D01*
X147752016Y-47851550D01*
X147753598Y-47539600D01*
X147747284Y-47475497D01*
X147728586Y-47413857D01*
X147698222Y-47357050D01*
X147657359Y-47307257D01*
X147607566Y-47266394D01*
X147550759Y-47236030D01*
X147489119Y-47217332D01*
X147425016Y-47211018D01*
X147014563Y-47212165D01*
X147017462Y-47206741D01*
X147036160Y-47145101D01*
X147042474Y-47080998D01*
X147040892Y-46515048D01*
X146959142Y-46433298D01*
X146421792Y-46433298D01*
X146421792Y-46453298D01*
X146167792Y-46453298D01*
X146167792Y-46433298D01*
X145630442Y-46433298D01*
X145548692Y-46515048D01*
X145547110Y-47080998D01*
X145553424Y-47145101D01*
X145572122Y-47206741D01*
X145602486Y-47263548D01*
X145640815Y-47310253D01*
X145602410Y-47357050D01*
X145572046Y-47413857D01*
X145553348Y-47475497D01*
X145547034Y-47539600D01*
X142251153Y-47539600D01*
X140292727Y-45531598D01*
X145547110Y-45531598D01*
X145548692Y-46097548D01*
X145630442Y-46179298D01*
X146167792Y-46179298D01*
X146167792Y-45286348D01*
X146086042Y-45204598D01*
X145875692Y-45203016D01*
X145811589Y-45209330D01*
X145749949Y-45228028D01*
X145693142Y-45258392D01*
X145643349Y-45299255D01*
X145602486Y-45349048D01*
X145572122Y-45405855D01*
X145553424Y-45467495D01*
X145547110Y-45531598D01*
X140292727Y-45531598D01*
X136627000Y-41773077D01*
X136627000Y-38552000D01*
X145601344Y-38552000D01*
X145572130Y-38606656D01*
%TA.AperFunction,Conductor*%
D26*
G36*
X145572130Y-38606656D02*
G01*
X145553432Y-38668296D01*
X145547118Y-38732399D01*
X145548700Y-39272949D01*
X145630450Y-39354699D01*
X146498000Y-39354699D01*
X146498000Y-39334699D01*
X146752000Y-39334699D01*
X146752000Y-39354699D01*
X146772000Y-39354699D01*
X146772000Y-39608699D01*
X146752000Y-39608699D01*
X146752000Y-40476249D01*
X146833750Y-40557999D01*
X147374300Y-40559581D01*
X147438403Y-40553267D01*
X147496613Y-40535610D01*
X147509249Y-40545980D01*
X147574742Y-40580987D01*
X147645807Y-40602544D01*
X147719712Y-40609823D01*
X147737530Y-40609823D01*
X147787725Y-40670986D01*
X147804534Y-40684781D01*
X149941445Y-42821693D01*
X149955238Y-42838499D01*
X150022312Y-42893546D01*
X150098837Y-42934450D01*
X150181872Y-42959638D01*
X150246589Y-42966012D01*
X150246598Y-42966012D01*
X150268224Y-42968142D01*
X150289850Y-42966012D01*
X155723000Y-42966012D01*
X155723000Y-43082691D01*
X155749016Y-43213486D01*
X155800050Y-43336692D01*
X155874140Y-43447575D01*
X155934065Y-43507500D01*
X155516923Y-43507500D01*
X155431563Y-43422140D01*
X155320680Y-43348050D01*
X155197474Y-43297016D01*
X155066679Y-43271000D01*
X154933321Y-43271000D01*
X154802526Y-43297016D01*
X154679320Y-43348050D01*
X154568437Y-43422140D01*
X154474140Y-43516437D01*
X154400050Y-43627320D01*
X154349016Y-43750526D01*
X154323000Y-43881321D01*
X154323000Y-43998000D01*
X153455423Y-43998000D01*
X153431563Y-43974140D01*
X153320680Y-43900050D01*
X153197474Y-43849016D01*
X153066679Y-43823000D01*
X152933321Y-43823000D01*
X152802526Y-43849016D01*
X152679320Y-43900050D01*
X152568437Y-43974140D01*
X152474140Y-44068437D01*
X152400050Y-44179320D01*
X152349016Y-44302526D01*
X152323000Y-44433321D01*
X152323000Y-44559500D01*
X150171625Y-44559500D01*
X150149999Y-44557370D01*
X150128373Y-44559500D01*
X150128364Y-44559500D01*
X150063647Y-44565874D01*
X149980612Y-44591062D01*
X149904087Y-44631966D01*
X149837013Y-44687013D01*
X149823222Y-44703817D01*
X149804039Y-44723000D01*
X149683321Y-44723000D01*
X149552526Y-44749016D01*
X149429320Y-44800050D01*
X149318437Y-44874140D01*
X149224140Y-44968437D01*
X149204802Y-44997379D01*
X149181563Y-44974140D01*
X149070680Y-44900050D01*
X148947474Y-44849016D01*
X148816679Y-44823000D01*
X148683321Y-44823000D01*
X148552526Y-44849016D01*
X148429320Y-44900050D01*
X148318437Y-44974140D01*
X148224140Y-45068437D01*
X148211025Y-45088065D01*
X144045029Y-40922069D01*
X144083690Y-40828734D01*
X144127000Y-40611000D01*
X144127000Y-40389000D01*
X144095572Y-40230999D01*
X145547118Y-40230999D01*
X145553432Y-40295102D01*
X145572130Y-40356742D01*
X145602494Y-40413549D01*
X145643357Y-40463342D01*
X145693150Y-40504205D01*
X145749957Y-40534569D01*
X145811597Y-40553267D01*
X145875700Y-40559581D01*
X146416250Y-40557999D01*
X146498000Y-40476249D01*
X146498000Y-39608699D01*
X145630450Y-39608699D01*
X145548700Y-39690449D01*
X145547118Y-40230999D01*
X144095572Y-40230999D01*
X144083690Y-40171266D01*
X143998734Y-39966165D01*
X143875398Y-39781579D01*
X143718421Y-39624602D01*
X143533835Y-39501266D01*
X143328734Y-39416310D01*
X143111000Y-39373000D01*
X142889000Y-39373000D01*
X142671266Y-39416310D01*
X142466165Y-39501266D01*
X142281579Y-39624602D01*
X142124602Y-39781579D01*
X142001266Y-39966165D01*
X141916310Y-40171266D01*
X141873000Y-40389000D01*
X141873000Y-40611000D01*
X141916310Y-40828734D01*
X142001266Y-41033835D01*
X142124602Y-41218421D01*
X142281579Y-41375398D01*
X142466165Y-41498734D01*
X142671266Y-41583690D01*
X142889000Y-41627000D01*
X143111000Y-41627000D01*
X143328734Y-41583690D01*
X143422069Y-41545029D01*
X143686540Y-41809500D01*
X140932461Y-41809500D01*
X140045029Y-40922069D01*
X140083690Y-40828734D01*
X140127000Y-40611000D01*
X140127000Y-40389000D01*
X140083690Y-40171266D01*
X139998734Y-39966165D01*
X139875398Y-39781579D01*
X139718421Y-39624602D01*
X139533835Y-39501266D01*
X139328734Y-39416310D01*
X139111000Y-39373000D01*
X138889000Y-39373000D01*
X138671266Y-39416310D01*
X138466165Y-39501266D01*
X138281579Y-39624602D01*
X138124602Y-39781579D01*
X138001266Y-39966165D01*
X137916310Y-40171266D01*
X137873000Y-40389000D01*
X137873000Y-40611000D01*
X137916310Y-40828734D01*
X138001266Y-41033835D01*
X138124602Y-41218421D01*
X138281579Y-41375398D01*
X138466165Y-41498734D01*
X138671266Y-41583690D01*
X138889000Y-41627000D01*
X139111000Y-41627000D01*
X139328734Y-41583690D01*
X139422069Y-41545029D01*
X140423220Y-42546181D01*
X140437013Y-42562987D01*
X140504087Y-42618034D01*
X140580612Y-42658938D01*
X140663647Y-42684126D01*
X140728364Y-42690500D01*
X140728371Y-42690500D01*
X140750000Y-42692630D01*
X140771629Y-42690500D01*
X144067540Y-42690500D01*
X146581055Y-45204015D01*
X146503542Y-45204598D01*
X146421792Y-45286348D01*
X146421792Y-46179298D01*
X146959142Y-46179298D01*
X147040892Y-46097548D01*
X147042101Y-45665061D01*
X152273737Y-50896698D01*
X152287523Y-50913496D01*
X152304321Y-50927282D01*
X152304327Y-50927288D01*
X152354596Y-50968543D01*
X152431121Y-51009447D01*
X152514156Y-51034635D01*
X152524296Y-51035634D01*
X152578874Y-51041009D01*
X152578879Y-51041009D01*
X152600508Y-51043139D01*
X152622137Y-51041009D01*
X158560971Y-51041007D01*
X158582610Y-51043138D01*
X158668962Y-51034634D01*
X158751997Y-51009446D01*
X158828522Y-50968542D01*
X158878791Y-50927287D01*
X158878794Y-50927284D01*
X158895597Y-50913494D01*
X158909387Y-50896691D01*
X159777079Y-50029000D01*
X166396176Y-50029000D01*
X166396176Y-50250000D01*
X166407778Y-50367800D01*
X166442139Y-50481073D01*
X166497939Y-50585467D01*
X166573032Y-50676968D01*
X166664533Y-50752061D01*
X166723001Y-50783313D01*
X166723000Y-50966687D01*
X166664533Y-50997939D01*
X166573032Y-51073032D01*
X166497939Y-51164533D01*
X166442139Y-51268927D01*
X166407778Y-51382200D01*
X166396176Y-51500000D01*
X166396176Y-52000000D01*
X166407778Y-52117800D01*
X166442139Y-52231073D01*
X166497939Y-52335467D01*
X166573032Y-52426968D01*
X166664533Y-52502061D01*
X166723000Y-52533313D01*
X166723001Y-52716687D01*
X166664533Y-52747939D01*
X166573032Y-52823032D01*
X166497939Y-52914533D01*
X166442139Y-53018927D01*
X166407778Y-53132200D01*
X166396176Y-53250000D01*
X166396176Y-53750000D01*
X166407778Y-53867800D01*
X166442139Y-53981073D01*
X166497939Y-54085467D01*
X166573032Y-54176968D01*
X166664533Y-54252061D01*
X166723001Y-54283313D01*
X166723000Y-54466687D01*
X166664533Y-54497939D01*
X166573032Y-54573032D01*
X166497939Y-54664533D01*
X166442139Y-54768927D01*
X166407778Y-54882200D01*
X166396176Y-55000000D01*
X166396176Y-55500000D01*
X166407778Y-55617800D01*
X166442139Y-55731073D01*
X166497939Y-55835467D01*
X166573032Y-55926968D01*
X166664533Y-56002061D01*
X166768927Y-56057861D01*
X166882200Y-56092222D01*
X167000000Y-56103824D01*
X167450000Y-56103824D01*
X167567800Y-56092222D01*
X167681073Y-56057861D01*
X167785467Y-56002061D01*
X167876968Y-55926968D01*
X167952061Y-55835467D01*
X168000000Y-55745780D01*
X168047939Y-55835467D01*
X168123032Y-55926968D01*
X168214533Y-56002061D01*
X168318927Y-56057861D01*
X168432200Y-56092222D01*
X168550000Y-56103824D01*
X168762666Y-56103824D01*
X168306990Y-56559500D01*
X168016923Y-56559500D01*
X167931563Y-56474140D01*
X167820680Y-56400050D01*
X167697474Y-56349016D01*
X167566679Y-56323000D01*
X167433321Y-56323000D01*
X167302526Y-56349016D01*
X167179320Y-56400050D01*
X167068437Y-56474140D01*
X166974140Y-56568437D01*
X166900050Y-56679320D01*
X166849016Y-56802526D01*
X166823000Y-56933321D01*
X166823000Y-57066679D01*
X166849016Y-57197474D01*
X166900050Y-57320680D01*
X166974140Y-57431563D01*
X167068437Y-57525860D01*
X167179320Y-57599950D01*
X167302526Y-57650984D01*
X167433321Y-57677000D01*
X167566679Y-57677000D01*
X167697474Y-57650984D01*
X167820680Y-57599950D01*
X167931563Y-57525860D01*
X168016923Y-57440500D01*
X168467821Y-57440500D01*
X168489450Y-57442630D01*
X168511079Y-57440500D01*
X168511086Y-57440500D01*
X168575803Y-57434126D01*
X168658838Y-57408938D01*
X168735363Y-57368034D01*
X168802437Y-57312987D01*
X168816232Y-57296178D01*
X169945961Y-56166450D01*
X170066679Y-56166450D01*
X170197474Y-56140434D01*
X170320680Y-56089400D01*
X170431563Y-56015310D01*
X170525860Y-55921013D01*
X170599950Y-55810130D01*
X170650984Y-55686924D01*
X170677000Y-55556129D01*
X170677000Y-55422771D01*
X170650984Y-55291976D01*
X170599950Y-55168770D01*
X170525860Y-55057887D01*
X170431563Y-54963590D01*
X170386007Y-54933151D01*
X170813149Y-54506010D01*
X172305648Y-54506010D01*
X172643821Y-54844184D01*
X172657612Y-54860988D01*
X172674415Y-54874778D01*
X172674417Y-54874780D01*
X172685862Y-54884173D01*
X172724686Y-54916035D01*
X172801211Y-54956939D01*
X172884246Y-54982127D01*
X172948963Y-54988501D01*
X172948972Y-54988501D01*
X172970598Y-54990631D01*
X172992224Y-54988501D01*
X173507772Y-54988501D01*
X173529401Y-54990631D01*
X173551030Y-54988501D01*
X173551037Y-54988501D01*
X173615754Y-54982127D01*
X173698789Y-54956939D01*
X173775314Y-54916035D01*
X173842388Y-54860988D01*
X173856183Y-54844179D01*
X173980205Y-54720157D01*
X174000000Y-54714152D01*
X174049096Y-54729045D01*
X174123001Y-54736324D01*
X174377001Y-54736324D01*
X174450906Y-54729045D01*
X174500001Y-54714153D01*
X174549095Y-54729045D01*
X174623000Y-54736324D01*
X174877000Y-54736324D01*
X174950905Y-54729045D01*
X175000000Y-54714153D01*
X175049094Y-54729045D01*
X175122999Y-54736324D01*
X175376999Y-54736324D01*
X175450904Y-54729045D01*
X175500000Y-54714152D01*
X175549096Y-54729045D01*
X175623001Y-54736324D01*
X175877001Y-54736324D01*
X175950906Y-54729045D01*
X176000001Y-54714153D01*
X176049095Y-54729045D01*
X176123000Y-54736324D01*
X176377000Y-54736324D01*
X176450905Y-54729045D01*
X176521970Y-54707488D01*
X176587463Y-54672481D01*
X176644869Y-54625369D01*
X176691981Y-54567963D01*
X176726988Y-54502470D01*
X176748545Y-54431405D01*
X176755824Y-54357500D01*
X176755824Y-53454926D01*
X176916150Y-53454000D01*
X176997900Y-53372250D01*
X176997900Y-52505823D01*
X177251900Y-52505823D01*
X177251900Y-53372250D01*
X177333650Y-53454000D01*
X177607500Y-53455582D01*
X177640519Y-53452330D01*
X177599016Y-53552526D01*
X177573000Y-53683321D01*
X177573000Y-53804039D01*
X174817540Y-56559500D01*
X171771625Y-56559500D01*
X171749999Y-56557370D01*
X171728373Y-56559500D01*
X171728364Y-56559500D01*
X171663647Y-56565874D01*
X171580612Y-56591062D01*
X171504087Y-56631966D01*
X171459648Y-56668437D01*
X171437013Y-56687013D01*
X171423222Y-56703817D01*
X171054040Y-57073000D01*
X170933321Y-57073000D01*
X170802526Y-57099016D01*
X170679320Y-57150050D01*
X170568437Y-57224140D01*
X170474140Y-57318437D01*
X170400050Y-57429320D01*
X170349016Y-57552526D01*
X170323000Y-57683321D01*
X170323000Y-57816679D01*
X170349016Y-57947474D01*
X170400050Y-58070680D01*
X170474140Y-58181563D01*
X170568437Y-58275860D01*
X170679320Y-58349950D01*
X170802526Y-58400984D01*
X170933321Y-58427000D01*
X171066679Y-58427000D01*
X171197474Y-58400984D01*
X171320680Y-58349950D01*
X171431563Y-58275860D01*
X171525860Y-58181563D01*
X171599950Y-58070680D01*
X171625000Y-58010204D01*
X171650050Y-58070680D01*
X171724140Y-58181563D01*
X171818437Y-58275860D01*
X171929320Y-58349950D01*
X172052526Y-58400984D01*
X172183321Y-58427000D01*
X172304040Y-58427000D01*
X172921742Y-59044702D01*
X172935532Y-59061506D01*
X172952335Y-59075296D01*
X172952337Y-59075298D01*
X173002606Y-59116553D01*
X173079131Y-59157457D01*
X173162166Y-59182645D01*
X173226883Y-59189019D01*
X173226889Y-59189019D01*
X173248518Y-59191149D01*
X173270147Y-59189019D01*
X180503910Y-59189019D01*
X180525539Y-59191149D01*
X180547168Y-59189019D01*
X180547175Y-59189019D01*
X180611892Y-59182645D01*
X180694927Y-59157457D01*
X180771452Y-59116553D01*
X180838526Y-59061506D01*
X180852321Y-59044697D01*
X181720662Y-58176357D01*
X181724140Y-58181563D01*
X181818437Y-58275860D01*
X181929320Y-58349950D01*
X182052526Y-58400984D01*
X182183321Y-58427000D01*
X182316679Y-58427000D01*
X182447474Y-58400984D01*
X182570680Y-58349950D01*
X182681563Y-58275860D01*
X182766923Y-58190500D01*
X184742540Y-58190500D01*
X185257716Y-58705677D01*
X185271504Y-58722477D01*
X185288304Y-58736265D01*
X185396176Y-58844137D01*
X185396176Y-59275000D01*
X185407298Y-59387923D01*
X185425522Y-59448000D01*
X161816597Y-59448000D01*
X161907835Y-59322080D01*
X161984411Y-59155408D01*
X162027000Y-58977000D01*
X162027000Y-58627000D01*
X161227000Y-58627000D01*
X161227000Y-58647000D01*
X160973000Y-58647000D01*
X160973000Y-58627000D01*
X160173000Y-58627000D01*
X160173000Y-58977000D01*
X160215589Y-59155408D01*
X160292165Y-59322080D01*
X160383403Y-59448000D01*
X154816597Y-59448000D01*
X154907835Y-59322080D01*
X154984411Y-59155408D01*
X155027000Y-58977000D01*
X155027000Y-58627000D01*
X154227000Y-58627000D01*
X154227000Y-58647000D01*
X153973000Y-58647000D01*
X153973000Y-58627000D01*
X153173000Y-58627000D01*
X153173000Y-58737927D01*
X152475725Y-58023000D01*
X153173000Y-58023000D01*
X153173000Y-58373000D01*
X153973000Y-58373000D01*
X153973000Y-57314345D01*
X154227000Y-57314345D01*
X154227000Y-58373000D01*
X155027000Y-58373000D01*
X155027000Y-58023000D01*
X160173000Y-58023000D01*
X160173000Y-58373000D01*
X160973000Y-58373000D01*
X160973000Y-57314345D01*
X161227000Y-57314345D01*
X161227000Y-58373000D01*
X162027000Y-58373000D01*
X162027000Y-58023000D01*
X161984411Y-57844592D01*
X161907835Y-57677920D01*
X161800214Y-57529390D01*
X161665685Y-57404710D01*
X161509417Y-57308671D01*
X161369084Y-57262913D01*
X161227000Y-57314345D01*
X160973000Y-57314345D01*
X160830916Y-57262913D01*
X160690583Y-57308671D01*
X160534315Y-57404710D01*
X160399786Y-57529390D01*
X160292165Y-57677920D01*
X160215589Y-57844592D01*
X160173000Y-58023000D01*
X155027000Y-58023000D01*
X154984411Y-57844592D01*
X154907835Y-57677920D01*
X154800214Y-57529390D01*
X154665685Y-57404710D01*
X154509417Y-57308671D01*
X154369084Y-57262913D01*
X154227000Y-57314345D01*
X153973000Y-57314345D01*
X153830916Y-57262913D01*
X153690583Y-57308671D01*
X153534315Y-57404710D01*
X153399786Y-57529390D01*
X153292165Y-57677920D01*
X153215589Y-57844592D01*
X153173000Y-58023000D01*
X152475725Y-58023000D01*
X151062111Y-56573600D01*
X154506005Y-56573600D01*
X154585904Y-56723658D01*
X154775979Y-56806205D01*
X154978506Y-56850085D01*
X155185702Y-56853610D01*
X155389605Y-56816645D01*
X155582378Y-56740611D01*
X155614096Y-56723658D01*
X155693995Y-56573600D01*
X159506005Y-56573600D01*
X159585904Y-56723658D01*
X159775979Y-56806205D01*
X159978506Y-56850085D01*
X160185702Y-56853610D01*
X160389605Y-56816645D01*
X160582378Y-56740611D01*
X160614096Y-56723658D01*
X160693995Y-56573600D01*
X160100000Y-55979605D01*
X159506005Y-56573600D01*
X155693995Y-56573600D01*
X155100000Y-55979605D01*
X154506005Y-56573600D01*
X151062111Y-56573600D01*
X150391196Y-55885702D01*
X154046390Y-55885702D01*
X154083355Y-56089605D01*
X154159389Y-56282378D01*
X154176342Y-56314096D01*
X154326400Y-56393995D01*
X154920395Y-55800000D01*
X155279605Y-55800000D01*
X155873600Y-56393995D01*
X156023658Y-56314096D01*
X156106205Y-56124021D01*
X156150085Y-55921494D01*
X156150693Y-55885702D01*
X159046390Y-55885702D01*
X159083355Y-56089605D01*
X159159389Y-56282378D01*
X159176342Y-56314096D01*
X159326400Y-56393995D01*
X159920395Y-55800000D01*
X160279605Y-55800000D01*
X160873600Y-56393995D01*
X161023658Y-56314096D01*
X161106205Y-56124021D01*
X161150085Y-55921494D01*
X161153610Y-55714298D01*
X161116645Y-55510395D01*
X161040611Y-55317622D01*
X161023658Y-55285904D01*
X160873600Y-55206005D01*
X160279605Y-55800000D01*
X159920395Y-55800000D01*
X159326400Y-55206005D01*
X159176342Y-55285904D01*
X159093795Y-55475979D01*
X159049915Y-55678506D01*
X159046390Y-55885702D01*
X156150693Y-55885702D01*
X156153610Y-55714298D01*
X156116645Y-55510395D01*
X156040611Y-55317622D01*
X156023658Y-55285904D01*
X155873600Y-55206005D01*
X155279605Y-55800000D01*
X154920395Y-55800000D01*
X154326400Y-55206005D01*
X154176342Y-55285904D01*
X154093795Y-55475979D01*
X154049915Y-55678506D01*
X154046390Y-55885702D01*
X150391196Y-55885702D01*
X149553110Y-55026400D01*
X154506005Y-55026400D01*
X155100000Y-55620395D01*
X155693995Y-55026400D01*
X155614096Y-54876342D01*
X155424021Y-54793795D01*
X155221494Y-54749915D01*
X155014298Y-54746390D01*
X154810395Y-54783355D01*
X154617622Y-54859389D01*
X154585904Y-54876342D01*
X154506005Y-55026400D01*
X149553110Y-55026400D01*
X148877143Y-54333321D01*
X156323000Y-54333321D01*
X156323000Y-54466679D01*
X156349016Y-54597474D01*
X156400050Y-54720680D01*
X156474140Y-54831563D01*
X156568437Y-54925860D01*
X156679320Y-54999950D01*
X156802526Y-55050984D01*
X156933321Y-55077000D01*
X157066679Y-55077000D01*
X157197474Y-55050984D01*
X157256824Y-55026400D01*
X159506005Y-55026400D01*
X160100000Y-55620395D01*
X160693995Y-55026400D01*
X160614096Y-54876342D01*
X160424021Y-54793795D01*
X160221494Y-54749915D01*
X160014298Y-54746390D01*
X159810395Y-54783355D01*
X159617622Y-54859389D01*
X159585904Y-54876342D01*
X159506005Y-55026400D01*
X157256824Y-55026400D01*
X157320680Y-54999950D01*
X157431563Y-54925860D01*
X157516923Y-54840500D01*
X159078371Y-54840500D01*
X159100000Y-54842630D01*
X159121629Y-54840500D01*
X159121636Y-54840500D01*
X159186353Y-54834126D01*
X159269388Y-54808938D01*
X159345913Y-54768034D01*
X159412987Y-54712987D01*
X159426782Y-54696178D01*
X161195961Y-52927000D01*
X161316679Y-52927000D01*
X161447474Y-52900984D01*
X161570680Y-52849950D01*
X161681563Y-52775860D01*
X161775860Y-52681563D01*
X161849950Y-52570680D01*
X161900984Y-52447474D01*
X161927000Y-52316679D01*
X161927000Y-52183321D01*
X161900984Y-52052526D01*
X161849950Y-51929320D01*
X161775860Y-51818437D01*
X161707423Y-51750000D01*
X161775860Y-51681563D01*
X161849950Y-51570680D01*
X161900984Y-51447474D01*
X161927000Y-51316679D01*
X161927000Y-51183321D01*
X161900984Y-51052526D01*
X161849950Y-50929320D01*
X161775860Y-50818437D01*
X161681563Y-50724140D01*
X161570680Y-50650050D01*
X161447474Y-50599016D01*
X161316679Y-50573000D01*
X161183321Y-50573000D01*
X161052526Y-50599016D01*
X160929320Y-50650050D01*
X160818437Y-50724140D01*
X160724140Y-50818437D01*
X160650050Y-50929320D01*
X160599016Y-51052526D01*
X160573000Y-51183321D01*
X160573000Y-51304039D01*
X158717540Y-53159500D01*
X157716923Y-53159500D01*
X157631563Y-53074140D01*
X157520680Y-53000050D01*
X157397474Y-52949016D01*
X157266679Y-52923000D01*
X157133321Y-52923000D01*
X157002526Y-52949016D01*
X156879320Y-53000050D01*
X156768437Y-53074140D01*
X156674140Y-53168437D01*
X156600050Y-53279320D01*
X156549016Y-53402526D01*
X156523000Y-53533321D01*
X156523000Y-53666679D01*
X156549016Y-53797474D01*
X156578098Y-53867684D01*
X156568437Y-53874140D01*
X156474140Y-53968437D01*
X156400050Y-54079320D01*
X156349016Y-54202526D01*
X156323000Y-54333321D01*
X148877143Y-54333321D01*
X143266841Y-48581000D01*
X145547034Y-48581000D01*
X145553348Y-48645103D01*
X145572046Y-48706743D01*
X145602410Y-48763550D01*
X145643273Y-48813343D01*
X145693066Y-48854206D01*
X145749873Y-48884570D01*
X145811513Y-48903268D01*
X145875616Y-48909582D01*
X146441566Y-48908000D01*
X146523316Y-48826250D01*
X146523316Y-48187300D01*
X146777316Y-48187300D01*
X146777316Y-48826250D01*
X146859066Y-48908000D01*
X147425016Y-48909582D01*
X147489119Y-48903268D01*
X147550759Y-48884570D01*
X147607566Y-48854206D01*
X147657359Y-48813343D01*
X147698222Y-48763550D01*
X147728586Y-48706743D01*
X147747284Y-48645103D01*
X147753598Y-48581000D01*
X147752016Y-48269050D01*
X147670266Y-48187300D01*
X146777316Y-48187300D01*
X146523316Y-48187300D01*
X145630366Y-48187300D01*
X145548616Y-48269050D01*
X145547034Y-48581000D01*
X143266841Y-48581000D01*
X142251153Y-47539600D01*
X145547034Y-47539600D01*
X145548616Y-47851550D01*
X145630366Y-47933300D01*
X146523316Y-47933300D01*
X146523316Y-47913300D01*
X146777316Y-47913300D01*
X146777316Y-47933300D01*
X147670266Y-47933300D01*
X147752016Y-47851550D01*
X147753598Y-47539600D01*
X147747284Y-47475497D01*
X147728586Y-47413857D01*
X147698222Y-47357050D01*
X147657359Y-47307257D01*
X147607566Y-47266394D01*
X147550759Y-47236030D01*
X147489119Y-47217332D01*
X147425016Y-47211018D01*
X147014563Y-47212165D01*
X147017462Y-47206741D01*
X147036160Y-47145101D01*
X147042474Y-47080998D01*
X147040892Y-46515048D01*
X146959142Y-46433298D01*
X146421792Y-46433298D01*
X146421792Y-46453298D01*
X146167792Y-46453298D01*
X146167792Y-46433298D01*
X145630442Y-46433298D01*
X145548692Y-46515048D01*
X145547110Y-47080998D01*
X145553424Y-47145101D01*
X145572122Y-47206741D01*
X145602486Y-47263548D01*
X145640815Y-47310253D01*
X145602410Y-47357050D01*
X145572046Y-47413857D01*
X145553348Y-47475497D01*
X145547034Y-47539600D01*
X142251153Y-47539600D01*
X140292727Y-45531598D01*
X145547110Y-45531598D01*
X145548692Y-46097548D01*
X145630442Y-46179298D01*
X146167792Y-46179298D01*
X146167792Y-45286348D01*
X146086042Y-45204598D01*
X145875692Y-45203016D01*
X145811589Y-45209330D01*
X145749949Y-45228028D01*
X145693142Y-45258392D01*
X145643349Y-45299255D01*
X145602486Y-45349048D01*
X145572122Y-45405855D01*
X145553424Y-45467495D01*
X145547110Y-45531598D01*
X140292727Y-45531598D01*
X136627000Y-41773077D01*
X136627000Y-38552000D01*
X145601344Y-38552000D01*
X145572130Y-38606656D01*
G37*
%TD.AperFunction*%
D25*
X181055491Y-54571548D02*
X178554040Y-57073000D01*
X178549961Y-57073000D01*
X179036685Y-56586276D01*
X179053488Y-56572486D01*
X179067437Y-56555490D01*
X179108535Y-56505412D01*
X179149439Y-56428887D01*
X179174627Y-56345852D01*
X179175889Y-56333042D01*
X179181001Y-56281135D01*
X179181001Y-56281128D01*
X179183131Y-56259499D01*
X179181001Y-56237870D01*
X179181001Y-52975000D01*
X179196418Y-52975000D01*
X179202732Y-53039103D01*
X179221430Y-53100743D01*
X179251794Y-53157550D01*
X179292657Y-53207343D01*
X179342450Y-53248206D01*
X179399257Y-53278570D01*
X179460897Y-53297268D01*
X179525000Y-53303582D01*
X179791250Y-53302000D01*
X179873000Y-53220250D01*
X179873000Y-52652000D01*
X180127000Y-52652000D01*
X180127000Y-53220250D01*
X180208750Y-53302000D01*
X180475000Y-53303582D01*
X180539103Y-53297268D01*
X180600743Y-53278570D01*
X180657550Y-53248206D01*
X180707343Y-53207343D01*
X180748206Y-53157550D01*
X180778570Y-53100743D01*
X180797268Y-53039103D01*
X180803582Y-52975000D01*
X180802000Y-52733750D01*
X180720250Y-52652000D01*
X180127000Y-52652000D01*
X179873000Y-52652000D01*
X179279750Y-52652000D01*
X179198000Y-52733750D01*
X179196418Y-52975000D01*
X179181001Y-52975000D01*
X179181001Y-52512130D01*
X179183131Y-52490501D01*
X179181001Y-52468872D01*
X179181001Y-52468865D01*
X179174627Y-52404148D01*
X179149439Y-52321113D01*
X179108535Y-52244588D01*
X179075498Y-52204333D01*
X179067280Y-52194319D01*
X179067278Y-52194317D01*
X179053488Y-52177514D01*
X179036685Y-52163725D01*
X178874961Y-52002000D01*
X179205431Y-52002000D01*
X179202732Y-52010897D01*
X179196418Y-52075000D01*
X179198000Y-52316250D01*
X179279750Y-52398000D01*
X179873000Y-52398000D01*
X179873000Y-52378000D01*
X180127000Y-52378000D01*
X180127000Y-52398000D01*
X180720250Y-52398000D01*
X180802000Y-52316250D01*
X180803582Y-52075000D01*
X180797268Y-52010897D01*
X180778570Y-51949257D01*
X180748206Y-51892450D01*
X180707343Y-51842657D01*
X180657550Y-51801794D01*
X180600743Y-51771430D01*
X180539103Y-51752732D01*
X180498205Y-51748704D01*
X180585467Y-51702061D01*
X180676968Y-51626968D01*
X180752061Y-51535467D01*
X180807861Y-51431073D01*
X180842222Y-51317800D01*
X180853824Y-51200000D01*
X180853824Y-50831111D01*
X181055490Y-50629445D01*
X181055491Y-54571548D01*
%TA.AperFunction,Conductor*%
D26*
G36*
X181055491Y-54571548D02*
G01*
X178554040Y-57073000D01*
X178549961Y-57073000D01*
X179036685Y-56586276D01*
X179053488Y-56572486D01*
X179067437Y-56555490D01*
X179108535Y-56505412D01*
X179149439Y-56428887D01*
X179174627Y-56345852D01*
X179175889Y-56333042D01*
X179181001Y-56281135D01*
X179181001Y-56281128D01*
X179183131Y-56259499D01*
X179181001Y-56237870D01*
X179181001Y-52975000D01*
X179196418Y-52975000D01*
X179202732Y-53039103D01*
X179221430Y-53100743D01*
X179251794Y-53157550D01*
X179292657Y-53207343D01*
X179342450Y-53248206D01*
X179399257Y-53278570D01*
X179460897Y-53297268D01*
X179525000Y-53303582D01*
X179791250Y-53302000D01*
X179873000Y-53220250D01*
X179873000Y-52652000D01*
X180127000Y-52652000D01*
X180127000Y-53220250D01*
X180208750Y-53302000D01*
X180475000Y-53303582D01*
X180539103Y-53297268D01*
X180600743Y-53278570D01*
X180657550Y-53248206D01*
X180707343Y-53207343D01*
X180748206Y-53157550D01*
X180778570Y-53100743D01*
X180797268Y-53039103D01*
X180803582Y-52975000D01*
X180802000Y-52733750D01*
X180720250Y-52652000D01*
X180127000Y-52652000D01*
X179873000Y-52652000D01*
X179279750Y-52652000D01*
X179198000Y-52733750D01*
X179196418Y-52975000D01*
X179181001Y-52975000D01*
X179181001Y-52512130D01*
X179183131Y-52490501D01*
X179181001Y-52468872D01*
X179181001Y-52468865D01*
X179174627Y-52404148D01*
X179149439Y-52321113D01*
X179108535Y-52244588D01*
X179075498Y-52204333D01*
X179067280Y-52194319D01*
X179067278Y-52194317D01*
X179053488Y-52177514D01*
X179036685Y-52163725D01*
X178874961Y-52002000D01*
X179205431Y-52002000D01*
X179202732Y-52010897D01*
X179196418Y-52075000D01*
X179198000Y-52316250D01*
X179279750Y-52398000D01*
X179873000Y-52398000D01*
X179873000Y-52378000D01*
X180127000Y-52378000D01*
X180127000Y-52398000D01*
X180720250Y-52398000D01*
X180802000Y-52316250D01*
X180803582Y-52075000D01*
X180797268Y-52010897D01*
X180778570Y-51949257D01*
X180748206Y-51892450D01*
X180707343Y-51842657D01*
X180657550Y-51801794D01*
X180600743Y-51771430D01*
X180539103Y-51752732D01*
X180498205Y-51748704D01*
X180585467Y-51702061D01*
X180676968Y-51626968D01*
X180752061Y-51535467D01*
X180807861Y-51431073D01*
X180842222Y-51317800D01*
X180853824Y-51200000D01*
X180853824Y-50831111D01*
X181055490Y-50629445D01*
X181055491Y-54571548D01*
G37*
%TD.AperFunction*%
D25*
X183183321Y-50177000D02*
X183311046Y-50177000D01*
X183311047Y-54340050D01*
X182453817Y-55197281D01*
X182437014Y-55211071D01*
X182423224Y-55227874D01*
X182423221Y-55227877D01*
X182381966Y-55278146D01*
X182341062Y-55354671D01*
X182335536Y-55372889D01*
X182275860Y-55283578D01*
X182190500Y-55198218D01*
X182190500Y-50854581D01*
X182302526Y-50900984D01*
X182433321Y-50927000D01*
X182566679Y-50927000D01*
X182697474Y-50900984D01*
X182820680Y-50849950D01*
X182931563Y-50775860D01*
X183025860Y-50681563D01*
X183099950Y-50570680D01*
X183150984Y-50447474D01*
X183177000Y-50316679D01*
X183177000Y-50183321D01*
X183175431Y-50175431D01*
X183183321Y-50177000D01*
%TA.AperFunction,Conductor*%
D26*
G36*
X183183321Y-50177000D02*
G01*
X183311046Y-50177000D01*
X183311047Y-54340050D01*
X182453817Y-55197281D01*
X182437014Y-55211071D01*
X182423224Y-55227874D01*
X182423221Y-55227877D01*
X182381966Y-55278146D01*
X182341062Y-55354671D01*
X182335536Y-55372889D01*
X182275860Y-55283578D01*
X182190500Y-55198218D01*
X182190500Y-50854581D01*
X182302526Y-50900984D01*
X182433321Y-50927000D01*
X182566679Y-50927000D01*
X182697474Y-50900984D01*
X182820680Y-50849950D01*
X182931563Y-50775860D01*
X183025860Y-50681563D01*
X183099950Y-50570680D01*
X183150984Y-50447474D01*
X183177000Y-50316679D01*
X183177000Y-50183321D01*
X183175431Y-50175431D01*
X183183321Y-50177000D01*
G37*
%TD.AperFunction*%
D25*
X174877000Y-51373000D02*
X174897000Y-51373000D01*
X174897000Y-51627000D01*
X174877000Y-51627000D01*
X174877000Y-51647000D01*
X174623000Y-51647000D01*
X174623000Y-51627000D01*
X174603000Y-51627000D01*
X174603000Y-51373000D01*
X174623000Y-51373000D01*
X174623000Y-51353000D01*
X174877000Y-51353000D01*
X174877000Y-51373000D01*
%TA.AperFunction,Conductor*%
D26*
G36*
X174877000Y-51373000D02*
G01*
X174897000Y-51373000D01*
X174897000Y-51627000D01*
X174877000Y-51627000D01*
X174877000Y-51647000D01*
X174623000Y-51647000D01*
X174623000Y-51627000D01*
X174603000Y-51627000D01*
X174603000Y-51373000D01*
X174623000Y-51373000D01*
X174623000Y-51353000D01*
X174877000Y-51353000D01*
X174877000Y-51373000D01*
G37*
%TD.AperFunction*%
D25*
X157459108Y-46747549D02*
X157540858Y-46829299D01*
X158078208Y-46829299D01*
X158078208Y-46809299D01*
X158332208Y-46809299D01*
X158332208Y-46829299D01*
X158869558Y-46829299D01*
X158951308Y-46747549D01*
X158952219Y-46421501D01*
X160322599Y-46421501D01*
X161447281Y-47546184D01*
X161461071Y-47562987D01*
X161477874Y-47576777D01*
X161477876Y-47576779D01*
X161523807Y-47614474D01*
X161528145Y-47618034D01*
X161604670Y-47658938D01*
X161687705Y-47684126D01*
X161752422Y-47690500D01*
X161752429Y-47690500D01*
X161774058Y-47692630D01*
X161795687Y-47690500D01*
X164733077Y-47690500D01*
X164818437Y-47775860D01*
X164929320Y-47849950D01*
X165052526Y-47900984D01*
X165183321Y-47927000D01*
X165316679Y-47927000D01*
X165447474Y-47900984D01*
X165570680Y-47849950D01*
X165681563Y-47775860D01*
X165775860Y-47681563D01*
X165849950Y-47570680D01*
X165900984Y-47447474D01*
X165927000Y-47316679D01*
X165927000Y-47183321D01*
X165900984Y-47052526D01*
X165849950Y-46929320D01*
X165775860Y-46818437D01*
X165732413Y-46774990D01*
X165817567Y-46774990D01*
X165841427Y-46798850D01*
X165952310Y-46872940D01*
X166075516Y-46923974D01*
X166206311Y-46949990D01*
X166339669Y-46949990D01*
X166470464Y-46923974D01*
X166593670Y-46872940D01*
X166704553Y-46798850D01*
X166728413Y-46774990D01*
X168565056Y-46774990D01*
X168948002Y-47157937D01*
X168948001Y-47925358D01*
X168945574Y-47950001D01*
X168948001Y-47974644D01*
X168948001Y-47974653D01*
X168955265Y-48048409D01*
X168983970Y-48143036D01*
X169030584Y-48230246D01*
X169073000Y-48281929D01*
X169073000Y-48316679D01*
X169099016Y-48447474D01*
X169150050Y-48570680D01*
X169224140Y-48681563D01*
X169318437Y-48775860D01*
X169429320Y-48849950D01*
X169552526Y-48900984D01*
X169683321Y-48927000D01*
X169816679Y-48927000D01*
X169947474Y-48900984D01*
X170070680Y-48849950D01*
X170181563Y-48775860D01*
X170275860Y-48681563D01*
X170349950Y-48570680D01*
X170400984Y-48447474D01*
X170427000Y-48316679D01*
X170427000Y-48183321D01*
X170400984Y-48052526D01*
X170349950Y-47929320D01*
X170299505Y-47853824D01*
X170450000Y-47853824D01*
X170455338Y-47853298D01*
X171172001Y-48569962D01*
X171172000Y-50228756D01*
X171107005Y-50255678D01*
X170996122Y-50329768D01*
X170901825Y-50424065D01*
X170898347Y-50429271D01*
X169507387Y-49038312D01*
X169493592Y-49021503D01*
X169426518Y-48966456D01*
X169349993Y-48925552D01*
X169266958Y-48900364D01*
X169202241Y-48893990D01*
X169202234Y-48893990D01*
X169180605Y-48891860D01*
X169158976Y-48893990D01*
X159511033Y-48893990D01*
X159489404Y-48891860D01*
X159467775Y-48893990D01*
X159467768Y-48893990D01*
X159406239Y-48900050D01*
X159403051Y-48900364D01*
X159320016Y-48925552D01*
X159243491Y-48966456D01*
X159195003Y-49006250D01*
X159176417Y-49021503D01*
X159162627Y-49038307D01*
X158631440Y-49569494D01*
X158570244Y-49508298D01*
X157931294Y-49508298D01*
X157931294Y-49528298D01*
X157677294Y-49528298D01*
X157677294Y-49508298D01*
X157038344Y-49508298D01*
X156956594Y-49590048D01*
X156955711Y-49905999D01*
X153028960Y-49905999D01*
X151729559Y-48606598D01*
X156955012Y-48606598D01*
X156956594Y-49172548D01*
X157038344Y-49254298D01*
X157677294Y-49254298D01*
X157677294Y-48361348D01*
X157931294Y-48361348D01*
X157931294Y-49254298D01*
X158570244Y-49254298D01*
X158651994Y-49172548D01*
X158653576Y-48606598D01*
X158647262Y-48542495D01*
X158628564Y-48480855D01*
X158598200Y-48424048D01*
X158557337Y-48374255D01*
X158507544Y-48333392D01*
X158450737Y-48303028D01*
X158389097Y-48284330D01*
X158324994Y-48278016D01*
X158013044Y-48279598D01*
X157931294Y-48361348D01*
X157677294Y-48361348D01*
X157595544Y-48279598D01*
X157283594Y-48278016D01*
X157219491Y-48284330D01*
X157157851Y-48303028D01*
X157101044Y-48333392D01*
X157051251Y-48374255D01*
X157010388Y-48424048D01*
X156980024Y-48480855D01*
X156961326Y-48542495D01*
X156955012Y-48606598D01*
X151729559Y-48606598D01*
X150853960Y-47730999D01*
X157457526Y-47730999D01*
X157463840Y-47795102D01*
X157482538Y-47856742D01*
X157512902Y-47913549D01*
X157553765Y-47963342D01*
X157603558Y-48004205D01*
X157660365Y-48034569D01*
X157722005Y-48053267D01*
X157786108Y-48059581D01*
X157996458Y-48057999D01*
X158078208Y-47976249D01*
X158078208Y-47083299D01*
X158332208Y-47083299D01*
X158332208Y-47976249D01*
X158413958Y-48057999D01*
X158624308Y-48059581D01*
X158688411Y-48053267D01*
X158750051Y-48034569D01*
X158806858Y-48004205D01*
X158856651Y-47963342D01*
X158897514Y-47913549D01*
X158927878Y-47856742D01*
X158946576Y-47795102D01*
X158952890Y-47730999D01*
X158951308Y-47165049D01*
X158869558Y-47083299D01*
X158332208Y-47083299D01*
X158078208Y-47083299D01*
X157540858Y-47083299D01*
X157459108Y-47165049D01*
X157457526Y-47730999D01*
X150853960Y-47730999D01*
X149544462Y-46421501D01*
X157458197Y-46421501D01*
X157459108Y-46747549D01*
%TA.AperFunction,Conductor*%
D26*
G36*
X157459108Y-46747549D02*
G01*
X157540858Y-46829299D01*
X158078208Y-46829299D01*
X158078208Y-46809299D01*
X158332208Y-46809299D01*
X158332208Y-46829299D01*
X158869558Y-46829299D01*
X158951308Y-46747549D01*
X158952219Y-46421501D01*
X160322599Y-46421501D01*
X161447281Y-47546184D01*
X161461071Y-47562987D01*
X161477874Y-47576777D01*
X161477876Y-47576779D01*
X161523807Y-47614474D01*
X161528145Y-47618034D01*
X161604670Y-47658938D01*
X161687705Y-47684126D01*
X161752422Y-47690500D01*
X161752429Y-47690500D01*
X161774058Y-47692630D01*
X161795687Y-47690500D01*
X164733077Y-47690500D01*
X164818437Y-47775860D01*
X164929320Y-47849950D01*
X165052526Y-47900984D01*
X165183321Y-47927000D01*
X165316679Y-47927000D01*
X165447474Y-47900984D01*
X165570680Y-47849950D01*
X165681563Y-47775860D01*
X165775860Y-47681563D01*
X165849950Y-47570680D01*
X165900984Y-47447474D01*
X165927000Y-47316679D01*
X165927000Y-47183321D01*
X165900984Y-47052526D01*
X165849950Y-46929320D01*
X165775860Y-46818437D01*
X165732413Y-46774990D01*
X165817567Y-46774990D01*
X165841427Y-46798850D01*
X165952310Y-46872940D01*
X166075516Y-46923974D01*
X166206311Y-46949990D01*
X166339669Y-46949990D01*
X166470464Y-46923974D01*
X166593670Y-46872940D01*
X166704553Y-46798850D01*
X166728413Y-46774990D01*
X168565056Y-46774990D01*
X168948002Y-47157937D01*
X168948001Y-47925358D01*
X168945574Y-47950001D01*
X168948001Y-47974644D01*
X168948001Y-47974653D01*
X168955265Y-48048409D01*
X168983970Y-48143036D01*
X169030584Y-48230246D01*
X169073000Y-48281929D01*
X169073000Y-48316679D01*
X169099016Y-48447474D01*
X169150050Y-48570680D01*
X169224140Y-48681563D01*
X169318437Y-48775860D01*
X169429320Y-48849950D01*
X169552526Y-48900984D01*
X169683321Y-48927000D01*
X169816679Y-48927000D01*
X169947474Y-48900984D01*
X170070680Y-48849950D01*
X170181563Y-48775860D01*
X170275860Y-48681563D01*
X170349950Y-48570680D01*
X170400984Y-48447474D01*
X170427000Y-48316679D01*
X170427000Y-48183321D01*
X170400984Y-48052526D01*
X170349950Y-47929320D01*
X170299505Y-47853824D01*
X170450000Y-47853824D01*
X170455338Y-47853298D01*
X171172001Y-48569962D01*
X171172000Y-50228756D01*
X171107005Y-50255678D01*
X170996122Y-50329768D01*
X170901825Y-50424065D01*
X170898347Y-50429271D01*
X169507387Y-49038312D01*
X169493592Y-49021503D01*
X169426518Y-48966456D01*
X169349993Y-48925552D01*
X169266958Y-48900364D01*
X169202241Y-48893990D01*
X169202234Y-48893990D01*
X169180605Y-48891860D01*
X169158976Y-48893990D01*
X159511033Y-48893990D01*
X159489404Y-48891860D01*
X159467775Y-48893990D01*
X159467768Y-48893990D01*
X159406239Y-48900050D01*
X159403051Y-48900364D01*
X159320016Y-48925552D01*
X159243491Y-48966456D01*
X159195003Y-49006250D01*
X159176417Y-49021503D01*
X159162627Y-49038307D01*
X158631440Y-49569494D01*
X158570244Y-49508298D01*
X157931294Y-49508298D01*
X157931294Y-49528298D01*
X157677294Y-49528298D01*
X157677294Y-49508298D01*
X157038344Y-49508298D01*
X156956594Y-49590048D01*
X156955711Y-49905999D01*
X153028960Y-49905999D01*
X151729559Y-48606598D01*
X156955012Y-48606598D01*
X156956594Y-49172548D01*
X157038344Y-49254298D01*
X157677294Y-49254298D01*
X157677294Y-48361348D01*
X157931294Y-48361348D01*
X157931294Y-49254298D01*
X158570244Y-49254298D01*
X158651994Y-49172548D01*
X158653576Y-48606598D01*
X158647262Y-48542495D01*
X158628564Y-48480855D01*
X158598200Y-48424048D01*
X158557337Y-48374255D01*
X158507544Y-48333392D01*
X158450737Y-48303028D01*
X158389097Y-48284330D01*
X158324994Y-48278016D01*
X158013044Y-48279598D01*
X157931294Y-48361348D01*
X157677294Y-48361348D01*
X157595544Y-48279598D01*
X157283594Y-48278016D01*
X157219491Y-48284330D01*
X157157851Y-48303028D01*
X157101044Y-48333392D01*
X157051251Y-48374255D01*
X157010388Y-48424048D01*
X156980024Y-48480855D01*
X156961326Y-48542495D01*
X156955012Y-48606598D01*
X151729559Y-48606598D01*
X150853960Y-47730999D01*
X157457526Y-47730999D01*
X157463840Y-47795102D01*
X157482538Y-47856742D01*
X157512902Y-47913549D01*
X157553765Y-47963342D01*
X157603558Y-48004205D01*
X157660365Y-48034569D01*
X157722005Y-48053267D01*
X157786108Y-48059581D01*
X157996458Y-48057999D01*
X158078208Y-47976249D01*
X158078208Y-47083299D01*
X158332208Y-47083299D01*
X158332208Y-47976249D01*
X158413958Y-48057999D01*
X158624308Y-48059581D01*
X158688411Y-48053267D01*
X158750051Y-48034569D01*
X158806858Y-48004205D01*
X158856651Y-47963342D01*
X158897514Y-47913549D01*
X158927878Y-47856742D01*
X158946576Y-47795102D01*
X158952890Y-47730999D01*
X158951308Y-47165049D01*
X158869558Y-47083299D01*
X158332208Y-47083299D01*
X158078208Y-47083299D01*
X157540858Y-47083299D01*
X157459108Y-47165049D01*
X157457526Y-47730999D01*
X150853960Y-47730999D01*
X149544462Y-46421501D01*
X157458197Y-46421501D01*
X157459108Y-46747549D01*
G37*
%TD.AperFunction*%
D25*
X156822130Y-38606656D02*
X156803432Y-38668296D01*
X156797118Y-38732399D01*
X156798700Y-39272949D01*
X156880450Y-39354699D01*
X157748000Y-39354699D01*
X157748000Y-39334699D01*
X158002000Y-39334699D01*
X158002000Y-39354699D01*
X158869550Y-39354699D01*
X158951300Y-39272949D01*
X158952882Y-38732399D01*
X158946568Y-38668296D01*
X158927870Y-38606656D01*
X158898656Y-38552000D01*
X193223000Y-38552000D01*
X193223001Y-49873000D01*
X188500000Y-49873000D01*
X188482705Y-49874703D01*
X188434290Y-49815710D01*
X188346577Y-49743725D01*
X188246506Y-49690236D01*
X188228000Y-49684622D01*
X188228000Y-49560439D01*
X188234932Y-49558336D01*
X188338244Y-49503115D01*
X188428799Y-49428799D01*
X188503115Y-49338244D01*
X188558336Y-49234932D01*
X188592342Y-49122831D01*
X188603824Y-49006250D01*
X188603824Y-48493750D01*
X188592342Y-48377169D01*
X188558336Y-48265068D01*
X188503115Y-48161756D01*
X188428799Y-48071201D01*
X188338244Y-47996885D01*
X188234932Y-47941664D01*
X188122831Y-47907658D01*
X188006250Y-47896176D01*
X187568750Y-47896176D01*
X187452169Y-47907658D01*
X187340068Y-47941664D01*
X187236756Y-47996885D01*
X187146201Y-48071201D01*
X187071885Y-48161756D01*
X187016664Y-48265068D01*
X187000000Y-48320001D01*
X186983336Y-48265068D01*
X186928115Y-48161756D01*
X186853799Y-48071201D01*
X186763244Y-47996885D01*
X186659932Y-47941664D01*
X186653000Y-47939561D01*
X186653000Y-47853515D01*
X186674940Y-47820680D01*
X186725974Y-47697474D01*
X186751990Y-47566679D01*
X186751990Y-47433321D01*
X186725974Y-47302526D01*
X186674940Y-47179320D01*
X186600850Y-47068437D01*
X186593185Y-47060772D01*
X186596506Y-47059764D01*
X186696577Y-47006275D01*
X186784290Y-46934290D01*
X186856275Y-46846577D01*
X186909764Y-46746506D01*
X186942702Y-46637923D01*
X186953824Y-46525000D01*
X186953824Y-45975000D01*
X186942702Y-45862077D01*
X186909764Y-45753494D01*
X186856275Y-45653423D01*
X186784290Y-45565710D01*
X186696577Y-45493725D01*
X186596506Y-45440236D01*
X186487923Y-45407298D01*
X186375000Y-45396176D01*
X186007481Y-45396176D01*
X186007481Y-45353824D01*
X186431250Y-45353824D01*
X186547831Y-45342342D01*
X186659932Y-45308336D01*
X186763244Y-45253115D01*
X186853799Y-45178799D01*
X186928115Y-45088244D01*
X186983336Y-44984932D01*
X187000000Y-44929999D01*
X187016664Y-44984932D01*
X187071885Y-45088244D01*
X187146201Y-45178799D01*
X187236756Y-45253115D01*
X187340068Y-45308336D01*
X187347000Y-45310439D01*
X187347001Y-45470432D01*
X187303423Y-45493725D01*
X187215710Y-45565710D01*
X187143725Y-45653423D01*
X187090236Y-45753494D01*
X187057298Y-45862077D01*
X187046176Y-45975000D01*
X187046176Y-46525000D01*
X187057298Y-46637923D01*
X187090236Y-46746506D01*
X187143725Y-46846577D01*
X187215710Y-46934290D01*
X187303423Y-47006275D01*
X187403494Y-47059764D01*
X187512077Y-47092702D01*
X187625000Y-47103824D01*
X188025000Y-47103824D01*
X188137923Y-47092702D01*
X188246506Y-47059764D01*
X188346577Y-47006275D01*
X188434290Y-46934290D01*
X188506275Y-46846577D01*
X188559764Y-46746506D01*
X188592702Y-46637923D01*
X188603824Y-46525000D01*
X188603824Y-45975000D01*
X188592702Y-45862077D01*
X188559764Y-45753494D01*
X188506275Y-45653423D01*
X188434290Y-45565710D01*
X188346577Y-45493725D01*
X188246506Y-45440236D01*
X188228000Y-45434622D01*
X188228000Y-45310439D01*
X188234932Y-45308336D01*
X188338244Y-45253115D01*
X188428799Y-45178799D01*
X188503115Y-45088244D01*
X188558336Y-44984932D01*
X188592342Y-44872831D01*
X188603824Y-44756250D01*
X188603824Y-44243750D01*
X188592342Y-44127169D01*
X188558336Y-44015068D01*
X188503115Y-43911756D01*
X188428799Y-43821201D01*
X188338244Y-43746885D01*
X188234932Y-43691664D01*
X188122831Y-43657658D01*
X188006250Y-43646176D01*
X187568750Y-43646176D01*
X187452169Y-43657658D01*
X187340068Y-43691664D01*
X187236756Y-43746885D01*
X187146201Y-43821201D01*
X187071885Y-43911756D01*
X187016664Y-44015068D01*
X187000000Y-44070001D01*
X186983336Y-44015068D01*
X186928115Y-43911756D01*
X186853799Y-43821201D01*
X186763244Y-43746885D01*
X186659932Y-43691664D01*
X186606286Y-43675390D01*
X187455989Y-42825688D01*
X187512077Y-42842702D01*
X187625000Y-42853824D01*
X188025000Y-42853824D01*
X188137923Y-42842702D01*
X188246506Y-42809764D01*
X188346577Y-42756275D01*
X188434290Y-42684290D01*
X188506275Y-42596577D01*
X188559764Y-42496506D01*
X188592702Y-42387923D01*
X188603824Y-42275000D01*
X188603824Y-41725000D01*
X188592702Y-41612077D01*
X188559764Y-41503494D01*
X188506275Y-41403423D01*
X188434290Y-41315710D01*
X188346577Y-41243725D01*
X188246506Y-41190236D01*
X188137923Y-41157298D01*
X188025000Y-41146176D01*
X187651785Y-41146176D01*
X187694137Y-41103824D01*
X188006250Y-41103824D01*
X188122831Y-41092342D01*
X188234932Y-41058336D01*
X188338244Y-41003115D01*
X188428799Y-40928799D01*
X188503115Y-40838244D01*
X188558336Y-40734932D01*
X188592342Y-40622831D01*
X188603824Y-40506250D01*
X188603824Y-39993750D01*
X188592342Y-39877169D01*
X188558336Y-39765068D01*
X188503115Y-39661756D01*
X188428799Y-39571201D01*
X188338244Y-39496885D01*
X188234932Y-39441664D01*
X188122831Y-39407658D01*
X188006250Y-39396176D01*
X187568750Y-39396176D01*
X187452169Y-39407658D01*
X187340068Y-39441664D01*
X187236756Y-39496885D01*
X187146201Y-39571201D01*
X187071885Y-39661756D01*
X187016664Y-39765068D01*
X187000000Y-39820001D01*
X186983336Y-39765068D01*
X186928115Y-39661756D01*
X186853799Y-39571201D01*
X186763244Y-39496885D01*
X186659932Y-39441664D01*
X186547831Y-39407658D01*
X186431250Y-39396176D01*
X185993750Y-39396176D01*
X185877169Y-39407658D01*
X185765068Y-39441664D01*
X185661756Y-39496885D01*
X185571201Y-39571201D01*
X185496885Y-39661756D01*
X185441664Y-39765068D01*
X185407658Y-39877169D01*
X185396176Y-39993750D01*
X185396176Y-40309500D01*
X175927000Y-40309500D01*
X175927000Y-40183321D01*
X175900984Y-40052526D01*
X175849950Y-39929320D01*
X175775860Y-39818437D01*
X175681563Y-39724140D01*
X175570680Y-39650050D01*
X175447474Y-39599016D01*
X175316679Y-39573000D01*
X175183321Y-39573000D01*
X175052526Y-39599016D01*
X174929320Y-39650050D01*
X174818437Y-39724140D01*
X174733077Y-39809500D01*
X161932461Y-39809500D01*
X161927000Y-39804039D01*
X161927000Y-39683321D01*
X161900984Y-39552526D01*
X161849950Y-39429320D01*
X161775860Y-39318437D01*
X161681563Y-39224140D01*
X161570680Y-39150050D01*
X161447474Y-39099016D01*
X161316679Y-39073000D01*
X161183321Y-39073000D01*
X161052526Y-39099016D01*
X160929320Y-39150050D01*
X160818437Y-39224140D01*
X160724140Y-39318437D01*
X160650050Y-39429320D01*
X160599016Y-39552526D01*
X160573000Y-39683321D01*
X160573000Y-39816679D01*
X160599016Y-39947474D01*
X160650050Y-40070680D01*
X160724140Y-40181563D01*
X160792577Y-40250000D01*
X160724140Y-40318437D01*
X160650050Y-40429320D01*
X160599016Y-40552526D01*
X160573000Y-40683321D01*
X160573000Y-40816679D01*
X160579628Y-40850001D01*
X157277000Y-40850001D01*
X157277000Y-40733321D01*
X157250984Y-40602526D01*
X157233065Y-40559267D01*
X157666250Y-40557999D01*
X157748000Y-40476249D01*
X157748000Y-39608699D01*
X158002000Y-39608699D01*
X158002000Y-40476249D01*
X158083750Y-40557999D01*
X158624300Y-40559581D01*
X158688403Y-40553267D01*
X158750043Y-40534569D01*
X158806850Y-40504205D01*
X158856643Y-40463342D01*
X158897506Y-40413549D01*
X158927870Y-40356742D01*
X158946568Y-40295102D01*
X158952882Y-40230999D01*
X158951300Y-39690449D01*
X158869550Y-39608699D01*
X158002000Y-39608699D01*
X157748000Y-39608699D01*
X156880450Y-39608699D01*
X156798700Y-39690449D01*
X156797358Y-40148993D01*
X156666679Y-40123000D01*
X156560536Y-40123000D01*
X156560536Y-38552000D01*
X156851344Y-38552000D01*
X156822130Y-38606656D01*
%TA.AperFunction,Conductor*%
D26*
G36*
X156822130Y-38606656D02*
G01*
X156803432Y-38668296D01*
X156797118Y-38732399D01*
X156798700Y-39272949D01*
X156880450Y-39354699D01*
X157748000Y-39354699D01*
X157748000Y-39334699D01*
X158002000Y-39334699D01*
X158002000Y-39354699D01*
X158869550Y-39354699D01*
X158951300Y-39272949D01*
X158952882Y-38732399D01*
X158946568Y-38668296D01*
X158927870Y-38606656D01*
X158898656Y-38552000D01*
X193223000Y-38552000D01*
X193223001Y-49873000D01*
X188500000Y-49873000D01*
X188482705Y-49874703D01*
X188434290Y-49815710D01*
X188346577Y-49743725D01*
X188246506Y-49690236D01*
X188228000Y-49684622D01*
X188228000Y-49560439D01*
X188234932Y-49558336D01*
X188338244Y-49503115D01*
X188428799Y-49428799D01*
X188503115Y-49338244D01*
X188558336Y-49234932D01*
X188592342Y-49122831D01*
X188603824Y-49006250D01*
X188603824Y-48493750D01*
X188592342Y-48377169D01*
X188558336Y-48265068D01*
X188503115Y-48161756D01*
X188428799Y-48071201D01*
X188338244Y-47996885D01*
X188234932Y-47941664D01*
X188122831Y-47907658D01*
X188006250Y-47896176D01*
X187568750Y-47896176D01*
X187452169Y-47907658D01*
X187340068Y-47941664D01*
X187236756Y-47996885D01*
X187146201Y-48071201D01*
X187071885Y-48161756D01*
X187016664Y-48265068D01*
X187000000Y-48320001D01*
X186983336Y-48265068D01*
X186928115Y-48161756D01*
X186853799Y-48071201D01*
X186763244Y-47996885D01*
X186659932Y-47941664D01*
X186653000Y-47939561D01*
X186653000Y-47853515D01*
X186674940Y-47820680D01*
X186725974Y-47697474D01*
X186751990Y-47566679D01*
X186751990Y-47433321D01*
X186725974Y-47302526D01*
X186674940Y-47179320D01*
X186600850Y-47068437D01*
X186593185Y-47060772D01*
X186596506Y-47059764D01*
X186696577Y-47006275D01*
X186784290Y-46934290D01*
X186856275Y-46846577D01*
X186909764Y-46746506D01*
X186942702Y-46637923D01*
X186953824Y-46525000D01*
X186953824Y-45975000D01*
X186942702Y-45862077D01*
X186909764Y-45753494D01*
X186856275Y-45653423D01*
X186784290Y-45565710D01*
X186696577Y-45493725D01*
X186596506Y-45440236D01*
X186487923Y-45407298D01*
X186375000Y-45396176D01*
X186007481Y-45396176D01*
X186007481Y-45353824D01*
X186431250Y-45353824D01*
X186547831Y-45342342D01*
X186659932Y-45308336D01*
X186763244Y-45253115D01*
X186853799Y-45178799D01*
X186928115Y-45088244D01*
X186983336Y-44984932D01*
X187000000Y-44929999D01*
X187016664Y-44984932D01*
X187071885Y-45088244D01*
X187146201Y-45178799D01*
X187236756Y-45253115D01*
X187340068Y-45308336D01*
X187347000Y-45310439D01*
X187347001Y-45470432D01*
X187303423Y-45493725D01*
X187215710Y-45565710D01*
X187143725Y-45653423D01*
X187090236Y-45753494D01*
X187057298Y-45862077D01*
X187046176Y-45975000D01*
X187046176Y-46525000D01*
X187057298Y-46637923D01*
X187090236Y-46746506D01*
X187143725Y-46846577D01*
X187215710Y-46934290D01*
X187303423Y-47006275D01*
X187403494Y-47059764D01*
X187512077Y-47092702D01*
X187625000Y-47103824D01*
X188025000Y-47103824D01*
X188137923Y-47092702D01*
X188246506Y-47059764D01*
X188346577Y-47006275D01*
X188434290Y-46934290D01*
X188506275Y-46846577D01*
X188559764Y-46746506D01*
X188592702Y-46637923D01*
X188603824Y-46525000D01*
X188603824Y-45975000D01*
X188592702Y-45862077D01*
X188559764Y-45753494D01*
X188506275Y-45653423D01*
X188434290Y-45565710D01*
X188346577Y-45493725D01*
X188246506Y-45440236D01*
X188228000Y-45434622D01*
X188228000Y-45310439D01*
X188234932Y-45308336D01*
X188338244Y-45253115D01*
X188428799Y-45178799D01*
X188503115Y-45088244D01*
X188558336Y-44984932D01*
X188592342Y-44872831D01*
X188603824Y-44756250D01*
X188603824Y-44243750D01*
X188592342Y-44127169D01*
X188558336Y-44015068D01*
X188503115Y-43911756D01*
X188428799Y-43821201D01*
X188338244Y-43746885D01*
X188234932Y-43691664D01*
X188122831Y-43657658D01*
X188006250Y-43646176D01*
X187568750Y-43646176D01*
X187452169Y-43657658D01*
X187340068Y-43691664D01*
X187236756Y-43746885D01*
X187146201Y-43821201D01*
X187071885Y-43911756D01*
X187016664Y-44015068D01*
X187000000Y-44070001D01*
X186983336Y-44015068D01*
X186928115Y-43911756D01*
X186853799Y-43821201D01*
X186763244Y-43746885D01*
X186659932Y-43691664D01*
X186606286Y-43675390D01*
X187455989Y-42825688D01*
X187512077Y-42842702D01*
X187625000Y-42853824D01*
X188025000Y-42853824D01*
X188137923Y-42842702D01*
X188246506Y-42809764D01*
X188346577Y-42756275D01*
X188434290Y-42684290D01*
X188506275Y-42596577D01*
X188559764Y-42496506D01*
X188592702Y-42387923D01*
X188603824Y-42275000D01*
X188603824Y-41725000D01*
X188592702Y-41612077D01*
X188559764Y-41503494D01*
X188506275Y-41403423D01*
X188434290Y-41315710D01*
X188346577Y-41243725D01*
X188246506Y-41190236D01*
X188137923Y-41157298D01*
X188025000Y-41146176D01*
X187651785Y-41146176D01*
X187694137Y-41103824D01*
X188006250Y-41103824D01*
X188122831Y-41092342D01*
X188234932Y-41058336D01*
X188338244Y-41003115D01*
X188428799Y-40928799D01*
X188503115Y-40838244D01*
X188558336Y-40734932D01*
X188592342Y-40622831D01*
X188603824Y-40506250D01*
X188603824Y-39993750D01*
X188592342Y-39877169D01*
X188558336Y-39765068D01*
X188503115Y-39661756D01*
X188428799Y-39571201D01*
X188338244Y-39496885D01*
X188234932Y-39441664D01*
X188122831Y-39407658D01*
X188006250Y-39396176D01*
X187568750Y-39396176D01*
X187452169Y-39407658D01*
X187340068Y-39441664D01*
X187236756Y-39496885D01*
X187146201Y-39571201D01*
X187071885Y-39661756D01*
X187016664Y-39765068D01*
X187000000Y-39820001D01*
X186983336Y-39765068D01*
X186928115Y-39661756D01*
X186853799Y-39571201D01*
X186763244Y-39496885D01*
X186659932Y-39441664D01*
X186547831Y-39407658D01*
X186431250Y-39396176D01*
X185993750Y-39396176D01*
X185877169Y-39407658D01*
X185765068Y-39441664D01*
X185661756Y-39496885D01*
X185571201Y-39571201D01*
X185496885Y-39661756D01*
X185441664Y-39765068D01*
X185407658Y-39877169D01*
X185396176Y-39993750D01*
X185396176Y-40309500D01*
X175927000Y-40309500D01*
X175927000Y-40183321D01*
X175900984Y-40052526D01*
X175849950Y-39929320D01*
X175775860Y-39818437D01*
X175681563Y-39724140D01*
X175570680Y-39650050D01*
X175447474Y-39599016D01*
X175316679Y-39573000D01*
X175183321Y-39573000D01*
X175052526Y-39599016D01*
X174929320Y-39650050D01*
X174818437Y-39724140D01*
X174733077Y-39809500D01*
X161932461Y-39809500D01*
X161927000Y-39804039D01*
X161927000Y-39683321D01*
X161900984Y-39552526D01*
X161849950Y-39429320D01*
X161775860Y-39318437D01*
X161681563Y-39224140D01*
X161570680Y-39150050D01*
X161447474Y-39099016D01*
X161316679Y-39073000D01*
X161183321Y-39073000D01*
X161052526Y-39099016D01*
X160929320Y-39150050D01*
X160818437Y-39224140D01*
X160724140Y-39318437D01*
X160650050Y-39429320D01*
X160599016Y-39552526D01*
X160573000Y-39683321D01*
X160573000Y-39816679D01*
X160599016Y-39947474D01*
X160650050Y-40070680D01*
X160724140Y-40181563D01*
X160792577Y-40250000D01*
X160724140Y-40318437D01*
X160650050Y-40429320D01*
X160599016Y-40552526D01*
X160573000Y-40683321D01*
X160573000Y-40816679D01*
X160579628Y-40850001D01*
X157277000Y-40850001D01*
X157277000Y-40733321D01*
X157250984Y-40602526D01*
X157233065Y-40559267D01*
X157666250Y-40557999D01*
X157748000Y-40476249D01*
X157748000Y-39608699D01*
X158002000Y-39608699D01*
X158002000Y-40476249D01*
X158083750Y-40557999D01*
X158624300Y-40559581D01*
X158688403Y-40553267D01*
X158750043Y-40534569D01*
X158806850Y-40504205D01*
X158856643Y-40463342D01*
X158897506Y-40413549D01*
X158927870Y-40356742D01*
X158946568Y-40295102D01*
X158952882Y-40230999D01*
X158951300Y-39690449D01*
X158869550Y-39608699D01*
X158002000Y-39608699D01*
X157748000Y-39608699D01*
X156880450Y-39608699D01*
X156798700Y-39690449D01*
X156797358Y-40148993D01*
X156666679Y-40123000D01*
X156560536Y-40123000D01*
X156560536Y-38552000D01*
X156851344Y-38552000D01*
X156822130Y-38606656D01*
G37*
%TD.AperFunction*%
D25*
X178402000Y-46873000D02*
X178422000Y-46873000D01*
X178422000Y-47127000D01*
X178402000Y-47127000D01*
X178402000Y-47720250D01*
X178483750Y-47802000D01*
X178642744Y-47803043D01*
X178650050Y-47820680D01*
X178724140Y-47931563D01*
X178809501Y-48016924D01*
X178809501Y-48317538D01*
X177880773Y-49246266D01*
X177900984Y-49197474D01*
X177927000Y-49066679D01*
X177927000Y-48933321D01*
X177900984Y-48802526D01*
X177849950Y-48679320D01*
X177775860Y-48568437D01*
X177681563Y-48474140D01*
X177570680Y-48400050D01*
X177447474Y-48349016D01*
X177410208Y-48341603D01*
X177427000Y-48257180D01*
X177427000Y-48123822D01*
X177400984Y-47993027D01*
X177349950Y-47869821D01*
X177275860Y-47758938D01*
X177274725Y-47757803D01*
X177285467Y-47752061D01*
X177376968Y-47676968D01*
X177452061Y-47585467D01*
X177498704Y-47498205D01*
X177502732Y-47539103D01*
X177521430Y-47600743D01*
X177551794Y-47657550D01*
X177592657Y-47707343D01*
X177642450Y-47748206D01*
X177699257Y-47778570D01*
X177760897Y-47797268D01*
X177825000Y-47803582D01*
X178066250Y-47802000D01*
X178148000Y-47720250D01*
X178148000Y-47127000D01*
X178128000Y-47127000D01*
X178128000Y-46873000D01*
X178148000Y-46873000D01*
X178148000Y-46853000D01*
X178402000Y-46853000D01*
X178402000Y-46873000D01*
%TA.AperFunction,Conductor*%
D26*
G36*
X178402000Y-46873000D02*
G01*
X178422000Y-46873000D01*
X178422000Y-47127000D01*
X178402000Y-47127000D01*
X178402000Y-47720250D01*
X178483750Y-47802000D01*
X178642744Y-47803043D01*
X178650050Y-47820680D01*
X178724140Y-47931563D01*
X178809501Y-48016924D01*
X178809501Y-48317538D01*
X177880773Y-49246266D01*
X177900984Y-49197474D01*
X177927000Y-49066679D01*
X177927000Y-48933321D01*
X177900984Y-48802526D01*
X177849950Y-48679320D01*
X177775860Y-48568437D01*
X177681563Y-48474140D01*
X177570680Y-48400050D01*
X177447474Y-48349016D01*
X177410208Y-48341603D01*
X177427000Y-48257180D01*
X177427000Y-48123822D01*
X177400984Y-47993027D01*
X177349950Y-47869821D01*
X177275860Y-47758938D01*
X177274725Y-47757803D01*
X177285467Y-47752061D01*
X177376968Y-47676968D01*
X177452061Y-47585467D01*
X177498704Y-47498205D01*
X177502732Y-47539103D01*
X177521430Y-47600743D01*
X177551794Y-47657550D01*
X177592657Y-47707343D01*
X177642450Y-47748206D01*
X177699257Y-47778570D01*
X177760897Y-47797268D01*
X177825000Y-47803582D01*
X178066250Y-47802000D01*
X178148000Y-47720250D01*
X178148000Y-47127000D01*
X178128000Y-47127000D01*
X178128000Y-46873000D01*
X178148000Y-46873000D01*
X178148000Y-46853000D01*
X178402000Y-46853000D01*
X178402000Y-46873000D01*
G37*
%TD.AperFunction*%
D25*
X172646176Y-47250000D02*
X172657778Y-47367800D01*
X172692139Y-47481073D01*
X172747939Y-47585467D01*
X172823032Y-47676968D01*
X172914533Y-47752061D01*
X173018927Y-47807861D01*
X173132200Y-47842222D01*
X173250000Y-47853824D01*
X173309499Y-47853824D01*
X173309500Y-48263676D01*
X173123000Y-48263676D01*
X173049095Y-48270955D01*
X172978030Y-48292512D01*
X172912537Y-48327519D01*
X172855131Y-48374631D01*
X172808019Y-48432037D01*
X172773012Y-48497530D01*
X172751455Y-48568595D01*
X172744176Y-48642500D01*
X172744176Y-48684600D01*
X172532561Y-48684600D01*
X171939283Y-48091323D01*
X171939279Y-48091318D01*
X171939277Y-48091316D01*
X171925487Y-48074513D01*
X171908682Y-48060721D01*
X171608105Y-47760145D01*
X171648000Y-47720250D01*
X171648000Y-47127000D01*
X171902000Y-47127000D01*
X171902000Y-47720250D01*
X171983750Y-47802000D01*
X172225000Y-47803582D01*
X172289103Y-47797268D01*
X172350743Y-47778570D01*
X172407550Y-47748206D01*
X172457343Y-47707343D01*
X172498206Y-47657550D01*
X172528570Y-47600743D01*
X172547268Y-47539103D01*
X172553582Y-47475000D01*
X172552000Y-47208750D01*
X172470250Y-47127000D01*
X171902000Y-47127000D01*
X171648000Y-47127000D01*
X171628000Y-47127000D01*
X171628000Y-46873000D01*
X171648000Y-46873000D01*
X171648000Y-46853000D01*
X171902000Y-46853000D01*
X171902000Y-46873000D01*
X172470250Y-46873000D01*
X172552000Y-46791250D01*
X172552097Y-46774990D01*
X172646176Y-46774990D01*
X172646176Y-47250000D01*
%TA.AperFunction,Conductor*%
D26*
G36*
X172646176Y-47250000D02*
G01*
X172657778Y-47367800D01*
X172692139Y-47481073D01*
X172747939Y-47585467D01*
X172823032Y-47676968D01*
X172914533Y-47752061D01*
X173018927Y-47807861D01*
X173132200Y-47842222D01*
X173250000Y-47853824D01*
X173309499Y-47853824D01*
X173309500Y-48263676D01*
X173123000Y-48263676D01*
X173049095Y-48270955D01*
X172978030Y-48292512D01*
X172912537Y-48327519D01*
X172855131Y-48374631D01*
X172808019Y-48432037D01*
X172773012Y-48497530D01*
X172751455Y-48568595D01*
X172744176Y-48642500D01*
X172744176Y-48684600D01*
X172532561Y-48684600D01*
X171939283Y-48091323D01*
X171939279Y-48091318D01*
X171939277Y-48091316D01*
X171925487Y-48074513D01*
X171908682Y-48060721D01*
X171608105Y-47760145D01*
X171648000Y-47720250D01*
X171648000Y-47127000D01*
X171902000Y-47127000D01*
X171902000Y-47720250D01*
X171983750Y-47802000D01*
X172225000Y-47803582D01*
X172289103Y-47797268D01*
X172350743Y-47778570D01*
X172407550Y-47748206D01*
X172457343Y-47707343D01*
X172498206Y-47657550D01*
X172528570Y-47600743D01*
X172547268Y-47539103D01*
X172553582Y-47475000D01*
X172552000Y-47208750D01*
X172470250Y-47127000D01*
X171902000Y-47127000D01*
X171648000Y-47127000D01*
X171628000Y-47127000D01*
X171628000Y-46873000D01*
X171648000Y-46873000D01*
X171648000Y-46853000D01*
X171902000Y-46853000D01*
X171902000Y-46873000D01*
X172470250Y-46873000D01*
X172552000Y-46791250D01*
X172552097Y-46774990D01*
X172646176Y-46774990D01*
X172646176Y-47250000D01*
G37*
%TD.AperFunction*%
D25*
X185753494Y-41190236D02*
X185653423Y-41243725D01*
X185565710Y-41315710D01*
X185493725Y-41403423D01*
X185440236Y-41503494D01*
X185407298Y-41612077D01*
X185396176Y-41725000D01*
X185396176Y-42275000D01*
X185402587Y-42340088D01*
X185316679Y-42323000D01*
X185183321Y-42323000D01*
X185052526Y-42349016D01*
X184929320Y-42400050D01*
X184818437Y-42474140D01*
X184724140Y-42568437D01*
X184650050Y-42679320D01*
X184599016Y-42802526D01*
X184573000Y-42933321D01*
X184573000Y-43054039D01*
X184004126Y-43622914D01*
X184000077Y-43625078D01*
X183933003Y-43680125D01*
X183877956Y-43747199D01*
X183837052Y-43823724D01*
X183811864Y-43906759D01*
X183803359Y-43993112D01*
X183805491Y-44014758D01*
X183805491Y-44073000D01*
X183683321Y-44073000D01*
X183552526Y-44099016D01*
X183429320Y-44150050D01*
X183318437Y-44224140D01*
X183224140Y-44318437D01*
X183150050Y-44429320D01*
X183099016Y-44552526D01*
X183073000Y-44683321D01*
X183073000Y-44816679D01*
X183099016Y-44947474D01*
X183150050Y-45070680D01*
X183224140Y-45181563D01*
X183318437Y-45275860D01*
X183429320Y-45349950D01*
X183551481Y-45400551D01*
X183551480Y-46997887D01*
X181936490Y-48612878D01*
X181936490Y-46993561D01*
X181938620Y-46971932D01*
X181936490Y-46950303D01*
X181936490Y-46950296D01*
X181930116Y-46885579D01*
X181904928Y-46802544D01*
X181864024Y-46726019D01*
X181845619Y-46703593D01*
X181822769Y-46675750D01*
X181822767Y-46675748D01*
X181808977Y-46658945D01*
X181792175Y-46645156D01*
X180190500Y-45043482D01*
X180190500Y-44766923D01*
X180275860Y-44681563D01*
X180349950Y-44570680D01*
X180400984Y-44447474D01*
X180427000Y-44316679D01*
X180427000Y-44183321D01*
X180400984Y-44052526D01*
X180349950Y-43929320D01*
X180275860Y-43818437D01*
X180181563Y-43724140D01*
X180070680Y-43650050D01*
X179947474Y-43599016D01*
X179816679Y-43573000D01*
X179683321Y-43573000D01*
X179625417Y-43584518D01*
X180152178Y-43057757D01*
X180172095Y-43157889D01*
X180219360Y-43271996D01*
X180287977Y-43374689D01*
X180375311Y-43462023D01*
X180478004Y-43530640D01*
X180592111Y-43577905D01*
X180713246Y-43602000D01*
X180836754Y-43602000D01*
X180957889Y-43577905D01*
X181071996Y-43530640D01*
X181174689Y-43462023D01*
X181262023Y-43374689D01*
X181330640Y-43271996D01*
X181377905Y-43157889D01*
X181402000Y-43036754D01*
X181402000Y-42913246D01*
X181377905Y-42792111D01*
X181330640Y-42678004D01*
X181262023Y-42575311D01*
X181174689Y-42487977D01*
X181071996Y-42419360D01*
X180957889Y-42372095D01*
X180857757Y-42352178D01*
X181032935Y-42177000D01*
X181066679Y-42177000D01*
X181197474Y-42150984D01*
X181320680Y-42099950D01*
X181431563Y-42025860D01*
X181525860Y-41931563D01*
X181599950Y-41820680D01*
X181650984Y-41697474D01*
X181677000Y-41566679D01*
X181677000Y-41433321D01*
X181650984Y-41302526D01*
X181604581Y-41190500D01*
X185690871Y-41190500D01*
X185712500Y-41192630D01*
X185734129Y-41190500D01*
X185734136Y-41190500D01*
X185761512Y-41187804D01*
X185753494Y-41190236D01*
%TA.AperFunction,Conductor*%
D26*
G36*
X185753494Y-41190236D02*
G01*
X185653423Y-41243725D01*
X185565710Y-41315710D01*
X185493725Y-41403423D01*
X185440236Y-41503494D01*
X185407298Y-41612077D01*
X185396176Y-41725000D01*
X185396176Y-42275000D01*
X185402587Y-42340088D01*
X185316679Y-42323000D01*
X185183321Y-42323000D01*
X185052526Y-42349016D01*
X184929320Y-42400050D01*
X184818437Y-42474140D01*
X184724140Y-42568437D01*
X184650050Y-42679320D01*
X184599016Y-42802526D01*
X184573000Y-42933321D01*
X184573000Y-43054039D01*
X184004126Y-43622914D01*
X184000077Y-43625078D01*
X183933003Y-43680125D01*
X183877956Y-43747199D01*
X183837052Y-43823724D01*
X183811864Y-43906759D01*
X183803359Y-43993112D01*
X183805491Y-44014758D01*
X183805491Y-44073000D01*
X183683321Y-44073000D01*
X183552526Y-44099016D01*
X183429320Y-44150050D01*
X183318437Y-44224140D01*
X183224140Y-44318437D01*
X183150050Y-44429320D01*
X183099016Y-44552526D01*
X183073000Y-44683321D01*
X183073000Y-44816679D01*
X183099016Y-44947474D01*
X183150050Y-45070680D01*
X183224140Y-45181563D01*
X183318437Y-45275860D01*
X183429320Y-45349950D01*
X183551481Y-45400551D01*
X183551480Y-46997887D01*
X181936490Y-48612878D01*
X181936490Y-46993561D01*
X181938620Y-46971932D01*
X181936490Y-46950303D01*
X181936490Y-46950296D01*
X181930116Y-46885579D01*
X181904928Y-46802544D01*
X181864024Y-46726019D01*
X181845619Y-46703593D01*
X181822769Y-46675750D01*
X181822767Y-46675748D01*
X181808977Y-46658945D01*
X181792175Y-46645156D01*
X180190500Y-45043482D01*
X180190500Y-44766923D01*
X180275860Y-44681563D01*
X180349950Y-44570680D01*
X180400984Y-44447474D01*
X180427000Y-44316679D01*
X180427000Y-44183321D01*
X180400984Y-44052526D01*
X180349950Y-43929320D01*
X180275860Y-43818437D01*
X180181563Y-43724140D01*
X180070680Y-43650050D01*
X179947474Y-43599016D01*
X179816679Y-43573000D01*
X179683321Y-43573000D01*
X179625417Y-43584518D01*
X180152178Y-43057757D01*
X180172095Y-43157889D01*
X180219360Y-43271996D01*
X180287977Y-43374689D01*
X180375311Y-43462023D01*
X180478004Y-43530640D01*
X180592111Y-43577905D01*
X180713246Y-43602000D01*
X180836754Y-43602000D01*
X180957889Y-43577905D01*
X181071996Y-43530640D01*
X181174689Y-43462023D01*
X181262023Y-43374689D01*
X181330640Y-43271996D01*
X181377905Y-43157889D01*
X181402000Y-43036754D01*
X181402000Y-42913246D01*
X181377905Y-42792111D01*
X181330640Y-42678004D01*
X181262023Y-42575311D01*
X181174689Y-42487977D01*
X181071996Y-42419360D01*
X180957889Y-42372095D01*
X180857757Y-42352178D01*
X181032935Y-42177000D01*
X181066679Y-42177000D01*
X181197474Y-42150984D01*
X181320680Y-42099950D01*
X181431563Y-42025860D01*
X181525860Y-41931563D01*
X181599950Y-41820680D01*
X181650984Y-41697474D01*
X181677000Y-41566679D01*
X181677000Y-41433321D01*
X181650984Y-41302526D01*
X181604581Y-41190500D01*
X185690871Y-41190500D01*
X185712500Y-41192630D01*
X185734129Y-41190500D01*
X185734136Y-41190500D01*
X185761512Y-41187804D01*
X185753494Y-41190236D01*
G37*
%TD.AperFunction*%
D25*
X174297939Y-47585467D02*
X174309500Y-47599554D01*
X174309501Y-48337750D01*
X174250001Y-48397250D01*
X174190499Y-48337748D01*
X174190499Y-47599555D01*
X174202061Y-47585467D01*
X174250000Y-47495780D01*
X174297939Y-47585467D01*
%TA.AperFunction,Conductor*%
D26*
G36*
X174297939Y-47585467D02*
G01*
X174309500Y-47599554D01*
X174309501Y-48337750D01*
X174250001Y-48397250D01*
X174190499Y-48337748D01*
X174190499Y-47599555D01*
X174202061Y-47585467D01*
X174250000Y-47495780D01*
X174297939Y-47585467D01*
G37*
%TD.AperFunction*%
D25*
X180349016Y-41302526D02*
X180323000Y-41433321D01*
X180323000Y-41467065D01*
X178614468Y-43175597D01*
X178595317Y-43191315D01*
X178532584Y-43267754D01*
X178485970Y-43354964D01*
X178457265Y-43449591D01*
X178450001Y-43523347D01*
X178450001Y-43523356D01*
X178447574Y-43547999D01*
X178450001Y-43572642D01*
X178450002Y-44523000D01*
X178345961Y-44523000D01*
X175013460Y-41190500D01*
X180395419Y-41190500D01*
X180349016Y-41302526D01*
%TA.AperFunction,Conductor*%
D26*
G36*
X180349016Y-41302526D02*
G01*
X180323000Y-41433321D01*
X180323000Y-41467065D01*
X178614468Y-43175597D01*
X178595317Y-43191315D01*
X178532584Y-43267754D01*
X178485970Y-43354964D01*
X178457265Y-43449591D01*
X178450001Y-43523347D01*
X178450001Y-43523356D01*
X178447574Y-43547999D01*
X178450001Y-43572642D01*
X178450002Y-44523000D01*
X178345961Y-44523000D01*
X175013460Y-41190500D01*
X180395419Y-41190500D01*
X180349016Y-41302526D01*
G37*
%TD.AperFunction*%
D25*
X153727711Y-39202299D02*
X153747711Y-39202299D01*
X153747711Y-39456299D01*
X153727711Y-39456299D01*
X153727711Y-40476249D01*
X153809461Y-40557999D01*
X153981711Y-40559581D01*
X154045814Y-40553267D01*
X154098612Y-40537251D01*
X154109248Y-40545980D01*
X154174741Y-40580987D01*
X154245806Y-40602544D01*
X154319711Y-40609823D01*
X154337529Y-40609823D01*
X154371807Y-40651590D01*
X154387725Y-40670986D01*
X154404528Y-40684776D01*
X154569753Y-40850001D01*
X153077000Y-40850001D01*
X153077000Y-40733321D01*
X153050984Y-40602526D01*
X153039274Y-40574256D01*
X153092174Y-40545980D01*
X153102810Y-40537251D01*
X153155608Y-40553267D01*
X153219711Y-40559581D01*
X153391961Y-40557999D01*
X153473711Y-40476249D01*
X153473711Y-39456299D01*
X153453711Y-39456299D01*
X153453711Y-39202299D01*
X153473711Y-39202299D01*
X153473711Y-39182299D01*
X153727711Y-39182299D01*
X153727711Y-39202299D01*
%TA.AperFunction,Conductor*%
D26*
G36*
X153727711Y-39202299D02*
G01*
X153747711Y-39202299D01*
X153747711Y-39456299D01*
X153727711Y-39456299D01*
X153727711Y-40476249D01*
X153809461Y-40557999D01*
X153981711Y-40559581D01*
X154045814Y-40553267D01*
X154098612Y-40537251D01*
X154109248Y-40545980D01*
X154174741Y-40580987D01*
X154245806Y-40602544D01*
X154319711Y-40609823D01*
X154337529Y-40609823D01*
X154371807Y-40651590D01*
X154387725Y-40670986D01*
X154404528Y-40684776D01*
X154569753Y-40850001D01*
X153077000Y-40850001D01*
X153077000Y-40733321D01*
X153050984Y-40602526D01*
X153039274Y-40574256D01*
X153092174Y-40545980D01*
X153102810Y-40537251D01*
X153155608Y-40553267D01*
X153219711Y-40559581D01*
X153391961Y-40557999D01*
X153473711Y-40476249D01*
X153473711Y-39456299D01*
X153453711Y-39456299D01*
X153453711Y-39202299D01*
X153473711Y-39202299D01*
X153473711Y-39182299D01*
X153727711Y-39182299D01*
X153727711Y-39202299D01*
G37*
%TD.AperFunction*%
%TD*%
M02*
