%TF.GenerationSoftware,KiCad,Pcbnew,(5.1.9)-1*%
%TF.CreationDate,2021-08-08T21:49:21+01:00*%
%TF.ProjectId,glassphones - main pcb,676c6173-7370-4686-9f6e-6573202d206d,rev?*%
%TF.SameCoordinates,Original*%
%TF.FileFunction,Legend,Bot*%
%TF.FilePolarity,Positive*%
%FSLAX46Y46*%
G04 Gerber Fmt 4.6, Leading zero omitted, Abs format (unit mm)*
G04 Created by KiCad (PCBNEW (5.1.9)-1) date 2021-08-08 21:49:21*
%MOMM*%
%LPD*%
G01*
G04 APERTURE LIST*
%ADD10C,0.120000*%
%ADD11C,0.100000*%
%ADD12C,0.153000*%
%ADD13C,0.150000*%
%ADD14C,0.200000*%
G04 APERTURE END LIST*
D10*
%TO.C,J2*%
X144655400Y-39329299D02*
G75*
G03*
X144655400Y-39329299I-381000J0D01*
G01*
X158447600Y-48063739D02*
X158447600Y-48297270D01*
X146052400Y-45198858D02*
X146052400Y-40563739D01*
X146052400Y-50556300D02*
X146052400Y-48913740D01*
X158447600Y-50556300D02*
X146052400Y-50556300D01*
X158447600Y-40563739D02*
X158447600Y-45848859D01*
X156514452Y-38643700D02*
X156805000Y-38643700D01*
%TO.C,U2*%
X177429700Y-54179700D02*
X176709740Y-54179700D01*
X172070300Y-54179700D02*
X172070300Y-53459740D01*
X172070300Y-48820300D02*
X172790260Y-48820300D01*
X177429700Y-48820300D02*
X177429700Y-49540260D01*
X177429700Y-53459740D02*
X177429700Y-54179700D01*
X172790260Y-54179700D02*
X172070300Y-54179700D01*
X172070300Y-49540260D02*
X172070300Y-48820300D01*
X176709740Y-48820300D02*
X177429700Y-48820300D01*
D11*
G36*
X175440499Y-54611500D02*
G01*
X175440499Y-54865500D01*
X175059499Y-54865500D01*
X175059499Y-54611500D01*
X175440499Y-54611500D01*
G37*
X175440499Y-54611500D02*
X175440499Y-54865500D01*
X175059499Y-54865500D01*
X175059499Y-54611500D01*
X175440499Y-54611500D01*
G36*
X171384500Y-50309499D02*
G01*
X171384500Y-50690499D01*
X171638500Y-50690499D01*
X171638500Y-50309499D01*
X171384500Y-50309499D01*
G37*
X171384500Y-50309499D02*
X171384500Y-50690499D01*
X171638500Y-50690499D01*
X171638500Y-50309499D01*
X171384500Y-50309499D01*
D10*
%TO.C,R12*%
X187237258Y-41477500D02*
X186762742Y-41477500D01*
X187237258Y-42522500D02*
X186762742Y-42522500D01*
%TO.C,R11*%
X186762742Y-59522500D02*
X187237258Y-59522500D01*
X186762742Y-58477500D02*
X187237258Y-58477500D01*
%TO.C,R10*%
X186762742Y-55272500D02*
X187237258Y-55272500D01*
X186762742Y-54227500D02*
X187237258Y-54227500D01*
%TO.C,R9*%
X186762742Y-51022500D02*
X187237258Y-51022500D01*
X186762742Y-49977500D02*
X187237258Y-49977500D01*
%TO.C,R8*%
X186762742Y-46772500D02*
X187237258Y-46772500D01*
X186762742Y-45727500D02*
X187237258Y-45727500D01*
%TO.C,J4*%
X139950000Y-40500000D02*
G75*
G03*
X139950000Y-40500000I-950000J0D01*
G01*
%TO.C,J3*%
X143950000Y-40500000D02*
G75*
G03*
X143950000Y-40500000I-950000J0D01*
G01*
%TO.C,C8*%
X179490000Y-51609420D02*
X179490000Y-51890580D01*
X180510000Y-51609420D02*
X180510000Y-51890580D01*
%TO.C,C7*%
X177359420Y-47510000D02*
X177640580Y-47510000D01*
X177359420Y-46490000D02*
X177640580Y-46490000D01*
%TO.C,C6*%
X168140580Y-49490000D02*
X167859420Y-49490000D01*
X168140580Y-50510000D02*
X167859420Y-50510000D01*
%TO.C,C5*%
X167859420Y-55760000D02*
X168140580Y-55760000D01*
X167859420Y-54740000D02*
X168140580Y-54740000D01*
%TO.C,C4*%
X167859420Y-52260000D02*
X168140580Y-52260000D01*
X167859420Y-51240000D02*
X168140580Y-51240000D01*
%TO.C,C3*%
X167859420Y-54010000D02*
X168140580Y-54010000D01*
X167859420Y-52990000D02*
X168140580Y-52990000D01*
%TO.C,C2*%
X170859420Y-47510000D02*
X171140580Y-47510000D01*
X170859420Y-46490000D02*
X171140580Y-46490000D01*
%TO.C,C1*%
X174390580Y-46490000D02*
X174109420Y-46490000D01*
X174390580Y-47510000D02*
X174109420Y-47510000D01*
%TO.C,D5*%
X188485000Y-40985000D02*
X186200000Y-40985000D01*
X188485000Y-39515000D02*
X188485000Y-40985000D01*
X186200000Y-39515000D02*
X188485000Y-39515000D01*
%TO.C,D4*%
X188485000Y-57985000D02*
X186200000Y-57985000D01*
X188485000Y-56515000D02*
X188485000Y-57985000D01*
X186200000Y-56515000D02*
X188485000Y-56515000D01*
%TO.C,D3*%
X188485000Y-53735000D02*
X186200000Y-53735000D01*
X188485000Y-52265000D02*
X188485000Y-53735000D01*
X186200000Y-52265000D02*
X188485000Y-52265000D01*
%TO.C,D2*%
X188485000Y-49485000D02*
X186200000Y-49485000D01*
X188485000Y-48015000D02*
X188485000Y-49485000D01*
X186200000Y-48015000D02*
X188485000Y-48015000D01*
%TO.C,D1*%
X188485000Y-45235000D02*
X186200000Y-45235000D01*
X188485000Y-43765000D02*
X188485000Y-45235000D01*
X186200000Y-43765000D02*
X188485000Y-43765000D01*
%TO.C,J2*%
D12*
X144561904Y-44233333D02*
X145133333Y-44233333D01*
X145247619Y-44195238D01*
X145323809Y-44119047D01*
X145361904Y-44004761D01*
X145361904Y-43928571D01*
X144638095Y-44576190D02*
X144600000Y-44614285D01*
X144561904Y-44690476D01*
X144561904Y-44880952D01*
X144600000Y-44957142D01*
X144638095Y-44995238D01*
X144714285Y-45033333D01*
X144790476Y-45033333D01*
X144904761Y-44995238D01*
X145361904Y-44538095D01*
X145361904Y-45033333D01*
X160035714Y-39133333D02*
X160073809Y-39095238D01*
X160111904Y-38980952D01*
X160111904Y-38904761D01*
X160073809Y-38790476D01*
X159997619Y-38714285D01*
X159921428Y-38676190D01*
X159769047Y-38638095D01*
X159654761Y-38638095D01*
X159502380Y-38676190D01*
X159426190Y-38714285D01*
X159350000Y-38790476D01*
X159311904Y-38904761D01*
X159311904Y-38980952D01*
X159350000Y-39095238D01*
X159388095Y-39133333D01*
X159311904Y-39628571D02*
X159311904Y-39780952D01*
X159350000Y-39857142D01*
X159426190Y-39933333D01*
X159578571Y-39971428D01*
X159845238Y-39971428D01*
X159997619Y-39933333D01*
X160073809Y-39857142D01*
X160111904Y-39780952D01*
X160111904Y-39628571D01*
X160073809Y-39552380D01*
X159997619Y-39476190D01*
X159845238Y-39438095D01*
X159578571Y-39438095D01*
X159426190Y-39476190D01*
X159350000Y-39552380D01*
X159311904Y-39628571D01*
X160111904Y-40314285D02*
X159311904Y-40314285D01*
X160111904Y-40771428D01*
X159311904Y-40771428D01*
X160111904Y-41152380D02*
X159311904Y-41152380D01*
X160111904Y-41609523D01*
X159311904Y-41609523D01*
X159654761Y-42104761D02*
X159616666Y-42028571D01*
X159578571Y-41990476D01*
X159502380Y-41952380D01*
X159464285Y-41952380D01*
X159388095Y-41990476D01*
X159350000Y-42028571D01*
X159311904Y-42104761D01*
X159311904Y-42257142D01*
X159350000Y-42333333D01*
X159388095Y-42371428D01*
X159464285Y-42409523D01*
X159502380Y-42409523D01*
X159578571Y-42371428D01*
X159616666Y-42333333D01*
X159654761Y-42257142D01*
X159654761Y-42104761D01*
X159692857Y-42028571D01*
X159730952Y-41990476D01*
X159807142Y-41952380D01*
X159959523Y-41952380D01*
X160035714Y-41990476D01*
X160073809Y-42028571D01*
X160111904Y-42104761D01*
X160111904Y-42257142D01*
X160073809Y-42333333D01*
X160035714Y-42371428D01*
X159959523Y-42409523D01*
X159807142Y-42409523D01*
X159730952Y-42371428D01*
X159692857Y-42333333D01*
X159654761Y-42257142D01*
X160188095Y-42561904D02*
X160188095Y-43171428D01*
X160111904Y-43361904D02*
X159311904Y-43361904D01*
X159311904Y-43552380D01*
X159350000Y-43666666D01*
X159426190Y-43742857D01*
X159502380Y-43780952D01*
X159654761Y-43819047D01*
X159769047Y-43819047D01*
X159921428Y-43780952D01*
X159997619Y-43742857D01*
X160073809Y-43666666D01*
X160111904Y-43552380D01*
X160111904Y-43361904D01*
X160111904Y-44161904D02*
X159311904Y-44161904D01*
X159883333Y-44428571D01*
X159311904Y-44695238D01*
X160111904Y-44695238D01*
X159311904Y-45000000D02*
X159311904Y-45495238D01*
X159616666Y-45228571D01*
X159616666Y-45342857D01*
X159654761Y-45419047D01*
X159692857Y-45457142D01*
X159769047Y-45495238D01*
X159959523Y-45495238D01*
X160035714Y-45457142D01*
X160073809Y-45419047D01*
X160111904Y-45342857D01*
X160111904Y-45114285D01*
X160073809Y-45038095D01*
X160035714Y-45000000D01*
X160111904Y-45838095D02*
X159311904Y-45838095D01*
X159311904Y-46028571D01*
X159350000Y-46142857D01*
X159426190Y-46219047D01*
X159502380Y-46257142D01*
X159654761Y-46295238D01*
X159769047Y-46295238D01*
X159921428Y-46257142D01*
X159997619Y-46219047D01*
X160073809Y-46142857D01*
X160111904Y-46028571D01*
X160111904Y-45838095D01*
X159807142Y-46638095D02*
X159807142Y-47247619D01*
X160073809Y-47590476D02*
X160111904Y-47704761D01*
X160111904Y-47895238D01*
X160073809Y-47971428D01*
X160035714Y-48009523D01*
X159959523Y-48047619D01*
X159883333Y-48047619D01*
X159807142Y-48009523D01*
X159769047Y-47971428D01*
X159730952Y-47895238D01*
X159692857Y-47742857D01*
X159654761Y-47666666D01*
X159616666Y-47628571D01*
X159540476Y-47590476D01*
X159464285Y-47590476D01*
X159388095Y-47628571D01*
X159350000Y-47666666D01*
X159311904Y-47742857D01*
X159311904Y-47933333D01*
X159350000Y-48047619D01*
X159692857Y-48657142D02*
X159692857Y-48390476D01*
X160111904Y-48390476D02*
X159311904Y-48390476D01*
X159311904Y-48771428D01*
X160188095Y-48885714D02*
X160188095Y-49495238D01*
X160111904Y-49685714D02*
X159311904Y-49685714D01*
X159692857Y-49685714D02*
X159692857Y-50142857D01*
X160111904Y-50142857D02*
X159311904Y-50142857D01*
X160111904Y-50523809D02*
X159311904Y-50523809D01*
X160111904Y-51361904D02*
X159730952Y-51095238D01*
X160111904Y-50904761D02*
X159311904Y-50904761D01*
X159311904Y-51209523D01*
X159350000Y-51285714D01*
X159388095Y-51323809D01*
X159464285Y-51361904D01*
X159578571Y-51361904D01*
X159654761Y-51323809D01*
X159692857Y-51285714D01*
X159730952Y-51209523D01*
X159730952Y-50904761D01*
D13*
X152250000Y-44052380D02*
X152250000Y-44290476D01*
X152488095Y-44195238D02*
X152250000Y-44290476D01*
X152011904Y-44195238D01*
X152392857Y-44480952D02*
X152250000Y-44290476D01*
X152107142Y-44480952D01*
%TO.C,U2*%
D12*
X175859523Y-55311904D02*
X175859523Y-55959523D01*
X175821428Y-56035714D01*
X175783333Y-56073809D01*
X175707142Y-56111904D01*
X175554761Y-56111904D01*
X175478571Y-56073809D01*
X175440476Y-56035714D01*
X175402380Y-55959523D01*
X175402380Y-55311904D01*
X175059523Y-55388095D02*
X175021428Y-55350000D01*
X174945238Y-55311904D01*
X174754761Y-55311904D01*
X174678571Y-55350000D01*
X174640476Y-55388095D01*
X174602380Y-55464285D01*
X174602380Y-55540476D01*
X174640476Y-55654761D01*
X175097619Y-56111904D01*
X174602380Y-56111904D01*
X178809523Y-57611904D02*
X178809523Y-57078571D01*
X178809523Y-57154761D02*
X178771428Y-57116666D01*
X178695238Y-57078571D01*
X178580952Y-57078571D01*
X178504761Y-57116666D01*
X178466666Y-57192857D01*
X178466666Y-57611904D01*
X178466666Y-57192857D02*
X178428571Y-57116666D01*
X178352380Y-57078571D01*
X178238095Y-57078571D01*
X178161904Y-57116666D01*
X178123809Y-57192857D01*
X178123809Y-57611904D01*
X177400000Y-57611904D02*
X177400000Y-57192857D01*
X177438095Y-57116666D01*
X177514285Y-57078571D01*
X177666666Y-57078571D01*
X177742857Y-57116666D01*
X177400000Y-57573809D02*
X177476190Y-57611904D01*
X177666666Y-57611904D01*
X177742857Y-57573809D01*
X177780952Y-57497619D01*
X177780952Y-57421428D01*
X177742857Y-57345238D01*
X177666666Y-57307142D01*
X177476190Y-57307142D01*
X177400000Y-57269047D01*
X177095238Y-57611904D02*
X176676190Y-57078571D01*
X177095238Y-57078571D02*
X176676190Y-57611904D01*
X176333333Y-57611904D02*
X176180952Y-57611904D01*
X176104761Y-57573809D01*
X176066666Y-57535714D01*
X175990476Y-57421428D01*
X175952380Y-57269047D01*
X175952380Y-56964285D01*
X175990476Y-56888095D01*
X176028571Y-56850000D01*
X176104761Y-56811904D01*
X176257142Y-56811904D01*
X176333333Y-56850000D01*
X176371428Y-56888095D01*
X176409523Y-56964285D01*
X176409523Y-57154761D01*
X176371428Y-57230952D01*
X176333333Y-57269047D01*
X176257142Y-57307142D01*
X176104761Y-57307142D01*
X176028571Y-57269047D01*
X175990476Y-57230952D01*
X175952380Y-57154761D01*
X175495238Y-57154761D02*
X175571428Y-57116666D01*
X175609523Y-57078571D01*
X175647619Y-57002380D01*
X175647619Y-56964285D01*
X175609523Y-56888095D01*
X175571428Y-56850000D01*
X175495238Y-56811904D01*
X175342857Y-56811904D01*
X175266666Y-56850000D01*
X175228571Y-56888095D01*
X175190476Y-56964285D01*
X175190476Y-57002380D01*
X175228571Y-57078571D01*
X175266666Y-57116666D01*
X175342857Y-57154761D01*
X175495238Y-57154761D01*
X175571428Y-57192857D01*
X175609523Y-57230952D01*
X175647619Y-57307142D01*
X175647619Y-57459523D01*
X175609523Y-57535714D01*
X175571428Y-57573809D01*
X175495238Y-57611904D01*
X175342857Y-57611904D01*
X175266666Y-57573809D01*
X175228571Y-57535714D01*
X175190476Y-57459523D01*
X175190476Y-57307142D01*
X175228571Y-57230952D01*
X175266666Y-57192857D01*
X175342857Y-57154761D01*
X174466666Y-56811904D02*
X174847619Y-56811904D01*
X174885714Y-57192857D01*
X174847619Y-57154761D01*
X174771428Y-57116666D01*
X174580952Y-57116666D01*
X174504761Y-57154761D01*
X174466666Y-57192857D01*
X174428571Y-57269047D01*
X174428571Y-57459523D01*
X174466666Y-57535714D01*
X174504761Y-57573809D01*
X174580952Y-57611904D01*
X174771428Y-57611904D01*
X174847619Y-57573809D01*
X174885714Y-57535714D01*
X173933333Y-56811904D02*
X173857142Y-56811904D01*
X173780952Y-56850000D01*
X173742857Y-56888095D01*
X173704761Y-56964285D01*
X173666666Y-57116666D01*
X173666666Y-57307142D01*
X173704761Y-57459523D01*
X173742857Y-57535714D01*
X173780952Y-57573809D01*
X173857142Y-57611904D01*
X173933333Y-57611904D01*
X174009523Y-57573809D01*
X174047619Y-57535714D01*
X174085714Y-57459523D01*
X174123809Y-57307142D01*
X174123809Y-57116666D01*
X174085714Y-56964285D01*
X174047619Y-56888095D01*
X174009523Y-56850000D01*
X173933333Y-56811904D01*
X173019047Y-57573809D02*
X173095238Y-57611904D01*
X173247619Y-57611904D01*
X173323809Y-57573809D01*
X173361904Y-57497619D01*
X173361904Y-57192857D01*
X173323809Y-57116666D01*
X173247619Y-57078571D01*
X173095238Y-57078571D01*
X173019047Y-57116666D01*
X172980952Y-57192857D01*
X172980952Y-57269047D01*
X173361904Y-57345238D01*
X172752380Y-57078571D02*
X172447619Y-57078571D01*
X172638095Y-56811904D02*
X172638095Y-57497619D01*
X172600000Y-57573809D01*
X172523809Y-57611904D01*
X172447619Y-57611904D01*
X172180952Y-57611904D02*
X172180952Y-57078571D01*
X172180952Y-56811904D02*
X172219047Y-56850000D01*
X172180952Y-56888095D01*
X172142857Y-56850000D01*
X172180952Y-56811904D01*
X172180952Y-56888095D01*
X171800000Y-57307142D02*
X171190476Y-57307142D01*
X171495238Y-57611904D02*
X171495238Y-57002380D01*
D13*
X178242500Y-49202380D02*
X178242500Y-49440476D01*
X178480595Y-49345238D02*
X178242500Y-49440476D01*
X178004404Y-49345238D01*
X178385357Y-49630952D02*
X178242500Y-49440476D01*
X178099642Y-49630952D01*
X178242500Y-49202380D02*
X178242500Y-49440476D01*
X178480595Y-49345238D02*
X178242500Y-49440476D01*
X178004404Y-49345238D01*
X178385357Y-49630952D02*
X178242500Y-49440476D01*
X178099642Y-49630952D01*
%TO.C,R12*%
D12*
X184764285Y-42344477D02*
X185030952Y-41963525D01*
X185221428Y-42344477D02*
X185221428Y-41544477D01*
X184916666Y-41544477D01*
X184840476Y-41582573D01*
X184802380Y-41620668D01*
X184764285Y-41696858D01*
X184764285Y-41811144D01*
X184802380Y-41887334D01*
X184840476Y-41925430D01*
X184916666Y-41963525D01*
X185221428Y-41963525D01*
X184002380Y-42344477D02*
X184459523Y-42344477D01*
X184230952Y-42344477D02*
X184230952Y-41544477D01*
X184307142Y-41658763D01*
X184383333Y-41734953D01*
X184459523Y-41773049D01*
X183697619Y-41620668D02*
X183659523Y-41582573D01*
X183583333Y-41544477D01*
X183392857Y-41544477D01*
X183316666Y-41582573D01*
X183278571Y-41620668D01*
X183240476Y-41696858D01*
X183240476Y-41773049D01*
X183278571Y-41887334D01*
X183735714Y-42344477D01*
X183240476Y-42344477D01*
%TO.C,R11*%
X184717429Y-59377067D02*
X184984096Y-58996115D01*
X185174572Y-59377067D02*
X185174572Y-58577067D01*
X184869810Y-58577067D01*
X184793620Y-58615163D01*
X184755524Y-58653258D01*
X184717429Y-58729448D01*
X184717429Y-58843734D01*
X184755524Y-58919924D01*
X184793620Y-58958020D01*
X184869810Y-58996115D01*
X185174572Y-58996115D01*
X183955524Y-59377067D02*
X184412667Y-59377067D01*
X184184096Y-59377067D02*
X184184096Y-58577067D01*
X184260286Y-58691353D01*
X184336477Y-58767543D01*
X184412667Y-58805639D01*
X183193620Y-59377067D02*
X183650763Y-59377067D01*
X183422191Y-59377067D02*
X183422191Y-58577067D01*
X183498382Y-58691353D01*
X183574572Y-58767543D01*
X183650763Y-58805639D01*
%TO.C,R10*%
X184710946Y-55126867D02*
X184977613Y-54745915D01*
X185168089Y-55126867D02*
X185168089Y-54326867D01*
X184863327Y-54326867D01*
X184787137Y-54364963D01*
X184749041Y-54403058D01*
X184710946Y-54479248D01*
X184710946Y-54593534D01*
X184749041Y-54669724D01*
X184787137Y-54707820D01*
X184863327Y-54745915D01*
X185168089Y-54745915D01*
X183949041Y-55126867D02*
X184406184Y-55126867D01*
X184177613Y-55126867D02*
X184177613Y-54326867D01*
X184253803Y-54441153D01*
X184329994Y-54517343D01*
X184406184Y-54555439D01*
X183453803Y-54326867D02*
X183377613Y-54326867D01*
X183301422Y-54364963D01*
X183263327Y-54403058D01*
X183225232Y-54479248D01*
X183187137Y-54631629D01*
X183187137Y-54822105D01*
X183225232Y-54974486D01*
X183263327Y-55050677D01*
X183301422Y-55088772D01*
X183377613Y-55126867D01*
X183453803Y-55126867D01*
X183529994Y-55088772D01*
X183568089Y-55050677D01*
X183606184Y-54974486D01*
X183644280Y-54822105D01*
X183644280Y-54631629D01*
X183606184Y-54479248D01*
X183568089Y-54403058D01*
X183529994Y-54364963D01*
X183453803Y-54326867D01*
%TO.C,R9*%
X184713493Y-50877208D02*
X184980160Y-50496256D01*
X185170636Y-50877208D02*
X185170636Y-50077208D01*
X184865874Y-50077208D01*
X184789683Y-50115304D01*
X184751588Y-50153399D01*
X184713493Y-50229589D01*
X184713493Y-50343875D01*
X184751588Y-50420065D01*
X184789683Y-50458161D01*
X184865874Y-50496256D01*
X185170636Y-50496256D01*
X184332540Y-50877208D02*
X184180160Y-50877208D01*
X184103969Y-50839113D01*
X184065874Y-50801018D01*
X183989683Y-50686732D01*
X183951588Y-50534351D01*
X183951588Y-50229589D01*
X183989683Y-50153399D01*
X184027779Y-50115304D01*
X184103969Y-50077208D01*
X184256350Y-50077208D01*
X184332540Y-50115304D01*
X184370636Y-50153399D01*
X184408731Y-50229589D01*
X184408731Y-50420065D01*
X184370636Y-50496256D01*
X184332540Y-50534351D01*
X184256350Y-50572446D01*
X184103969Y-50572446D01*
X184027779Y-50534351D01*
X183989683Y-50496256D01*
X183951588Y-50420065D01*
%TO.C,R8*%
X184716621Y-46631633D02*
X184983288Y-46250681D01*
X185173764Y-46631633D02*
X185173764Y-45831633D01*
X184869002Y-45831633D01*
X184792811Y-45869729D01*
X184754716Y-45907824D01*
X184716621Y-45984014D01*
X184716621Y-46098300D01*
X184754716Y-46174490D01*
X184792811Y-46212586D01*
X184869002Y-46250681D01*
X185173764Y-46250681D01*
X184259478Y-46174490D02*
X184335668Y-46136395D01*
X184373764Y-46098300D01*
X184411859Y-46022109D01*
X184411859Y-45984014D01*
X184373764Y-45907824D01*
X184335668Y-45869729D01*
X184259478Y-45831633D01*
X184107097Y-45831633D01*
X184030907Y-45869729D01*
X183992811Y-45907824D01*
X183954716Y-45984014D01*
X183954716Y-46022109D01*
X183992811Y-46098300D01*
X184030907Y-46136395D01*
X184107097Y-46174490D01*
X184259478Y-46174490D01*
X184335668Y-46212586D01*
X184373764Y-46250681D01*
X184411859Y-46326871D01*
X184411859Y-46479252D01*
X184373764Y-46555443D01*
X184335668Y-46593538D01*
X184259478Y-46631633D01*
X184107097Y-46631633D01*
X184030907Y-46593538D01*
X183992811Y-46555443D01*
X183954716Y-46479252D01*
X183954716Y-46326871D01*
X183992811Y-46250681D01*
X184030907Y-46212586D01*
X184107097Y-46174490D01*
%TO.C,J4*%
X137516666Y-38811904D02*
X137516666Y-39383333D01*
X137554761Y-39497619D01*
X137630952Y-39573809D01*
X137745238Y-39611904D01*
X137821428Y-39611904D01*
X136792857Y-39078571D02*
X136792857Y-39611904D01*
X136983333Y-38773809D02*
X137173809Y-39345238D01*
X136678571Y-39345238D01*
X140202380Y-42100000D02*
X140278571Y-42061904D01*
X140392857Y-42061904D01*
X140507142Y-42100000D01*
X140583333Y-42176190D01*
X140621428Y-42252380D01*
X140659523Y-42404761D01*
X140659523Y-42519047D01*
X140621428Y-42671428D01*
X140583333Y-42747619D01*
X140507142Y-42823809D01*
X140392857Y-42861904D01*
X140316666Y-42861904D01*
X140202380Y-42823809D01*
X140164285Y-42785714D01*
X140164285Y-42519047D01*
X140316666Y-42519047D01*
X139821428Y-42861904D02*
X139821428Y-42061904D01*
X139364285Y-42861904D01*
X139364285Y-42061904D01*
X138983333Y-42861904D02*
X138983333Y-42061904D01*
X138792857Y-42061904D01*
X138678571Y-42100000D01*
X138602380Y-42176190D01*
X138564285Y-42252380D01*
X138526190Y-42404761D01*
X138526190Y-42519047D01*
X138564285Y-42671428D01*
X138602380Y-42747619D01*
X138678571Y-42823809D01*
X138792857Y-42861904D01*
X138983333Y-42861904D01*
X138221428Y-42633333D02*
X137840476Y-42633333D01*
X138297619Y-42861904D02*
X138030952Y-42061904D01*
X137764285Y-42861904D01*
%TO.C,J3*%
X141516666Y-38811904D02*
X141516666Y-39383333D01*
X141554761Y-39497619D01*
X141630952Y-39573809D01*
X141745238Y-39611904D01*
X141821428Y-39611904D01*
X141211904Y-38811904D02*
X140716666Y-38811904D01*
X140983333Y-39116666D01*
X140869047Y-39116666D01*
X140792857Y-39154761D01*
X140754761Y-39192857D01*
X140716666Y-39269047D01*
X140716666Y-39459523D01*
X140754761Y-39535714D01*
X140792857Y-39573809D01*
X140869047Y-39611904D01*
X141097619Y-39611904D01*
X141173809Y-39573809D01*
X141211904Y-39535714D01*
X144640476Y-42861904D02*
X144907142Y-42480952D01*
X145097619Y-42861904D02*
X145097619Y-42061904D01*
X144792857Y-42061904D01*
X144716666Y-42100000D01*
X144678571Y-42138095D01*
X144640476Y-42214285D01*
X144640476Y-42328571D01*
X144678571Y-42404761D01*
X144716666Y-42442857D01*
X144792857Y-42480952D01*
X145097619Y-42480952D01*
X143954761Y-42861904D02*
X143954761Y-42442857D01*
X143992857Y-42366666D01*
X144069047Y-42328571D01*
X144221428Y-42328571D01*
X144297619Y-42366666D01*
X143954761Y-42823809D02*
X144030952Y-42861904D01*
X144221428Y-42861904D01*
X144297619Y-42823809D01*
X144335714Y-42747619D01*
X144335714Y-42671428D01*
X144297619Y-42595238D01*
X144221428Y-42557142D01*
X144030952Y-42557142D01*
X143954761Y-42519047D01*
X143230952Y-42328571D02*
X143230952Y-42861904D01*
X143573809Y-42328571D02*
X143573809Y-42747619D01*
X143535714Y-42823809D01*
X143459523Y-42861904D01*
X143345238Y-42861904D01*
X143269047Y-42823809D01*
X143230952Y-42785714D01*
X142507142Y-42861904D02*
X142507142Y-42061904D01*
X142507142Y-42823809D02*
X142583333Y-42861904D01*
X142735714Y-42861904D01*
X142811904Y-42823809D01*
X142850000Y-42785714D01*
X142888095Y-42709523D01*
X142888095Y-42480952D01*
X142850000Y-42404761D01*
X142811904Y-42366666D01*
X142735714Y-42328571D01*
X142583333Y-42328571D01*
X142507142Y-42366666D01*
X142126190Y-42861904D02*
X142126190Y-42328571D01*
X142126190Y-42061904D02*
X142164285Y-42100000D01*
X142126190Y-42138095D01*
X142088095Y-42100000D01*
X142126190Y-42061904D01*
X142126190Y-42138095D01*
X141630952Y-42861904D02*
X141707142Y-42823809D01*
X141745238Y-42785714D01*
X141783333Y-42709523D01*
X141783333Y-42480952D01*
X141745238Y-42404761D01*
X141707142Y-42366666D01*
X141630952Y-42328571D01*
X141516666Y-42328571D01*
X141440476Y-42366666D01*
X141402380Y-42404761D01*
X141364285Y-42480952D01*
X141364285Y-42709523D01*
X141402380Y-42785714D01*
X141440476Y-42823809D01*
X141516666Y-42861904D01*
X141630952Y-42861904D01*
%TO.C,C8*%
X180133333Y-49785714D02*
X180171428Y-49823809D01*
X180285714Y-49861904D01*
X180361904Y-49861904D01*
X180476190Y-49823809D01*
X180552380Y-49747619D01*
X180590476Y-49671428D01*
X180628571Y-49519047D01*
X180628571Y-49404761D01*
X180590476Y-49252380D01*
X180552380Y-49176190D01*
X180476190Y-49100000D01*
X180361904Y-49061904D01*
X180285714Y-49061904D01*
X180171428Y-49100000D01*
X180133333Y-49138095D01*
X179676190Y-49404761D02*
X179752380Y-49366666D01*
X179790476Y-49328571D01*
X179828571Y-49252380D01*
X179828571Y-49214285D01*
X179790476Y-49138095D01*
X179752380Y-49100000D01*
X179676190Y-49061904D01*
X179523809Y-49061904D01*
X179447619Y-49100000D01*
X179409523Y-49138095D01*
X179371428Y-49214285D01*
X179371428Y-49252380D01*
X179409523Y-49328571D01*
X179447619Y-49366666D01*
X179523809Y-49404761D01*
X179676190Y-49404761D01*
X179752380Y-49442857D01*
X179790476Y-49480952D01*
X179828571Y-49557142D01*
X179828571Y-49709523D01*
X179790476Y-49785714D01*
X179752380Y-49823809D01*
X179676190Y-49861904D01*
X179523809Y-49861904D01*
X179447619Y-49823809D01*
X179409523Y-49785714D01*
X179371428Y-49709523D01*
X179371428Y-49557142D01*
X179409523Y-49480952D01*
X179447619Y-49442857D01*
X179523809Y-49404761D01*
%TO.C,C7*%
X177633333Y-45785714D02*
X177671428Y-45823809D01*
X177785714Y-45861904D01*
X177861904Y-45861904D01*
X177976190Y-45823809D01*
X178052380Y-45747619D01*
X178090476Y-45671428D01*
X178128571Y-45519047D01*
X178128571Y-45404761D01*
X178090476Y-45252380D01*
X178052380Y-45176190D01*
X177976190Y-45100000D01*
X177861904Y-45061904D01*
X177785714Y-45061904D01*
X177671428Y-45100000D01*
X177633333Y-45138095D01*
X177366666Y-45061904D02*
X176833333Y-45061904D01*
X177176190Y-45861904D01*
%TO.C,C6*%
X165633333Y-50285714D02*
X165671428Y-50323809D01*
X165785714Y-50361904D01*
X165861904Y-50361904D01*
X165976190Y-50323809D01*
X166052380Y-50247619D01*
X166090476Y-50171428D01*
X166128571Y-50019047D01*
X166128571Y-49904761D01*
X166090476Y-49752380D01*
X166052380Y-49676190D01*
X165976190Y-49600000D01*
X165861904Y-49561904D01*
X165785714Y-49561904D01*
X165671428Y-49600000D01*
X165633333Y-49638095D01*
X164947619Y-49561904D02*
X165100000Y-49561904D01*
X165176190Y-49600000D01*
X165214285Y-49638095D01*
X165290476Y-49752380D01*
X165328571Y-49904761D01*
X165328571Y-50209523D01*
X165290476Y-50285714D01*
X165252380Y-50323809D01*
X165176190Y-50361904D01*
X165023809Y-50361904D01*
X164947619Y-50323809D01*
X164909523Y-50285714D01*
X164871428Y-50209523D01*
X164871428Y-50019047D01*
X164909523Y-49942857D01*
X164947619Y-49904761D01*
X165023809Y-49866666D01*
X165176190Y-49866666D01*
X165252380Y-49904761D01*
X165290476Y-49942857D01*
X165328571Y-50019047D01*
%TO.C,C5*%
X165633333Y-55535714D02*
X165671428Y-55573809D01*
X165785714Y-55611904D01*
X165861904Y-55611904D01*
X165976190Y-55573809D01*
X166052380Y-55497619D01*
X166090476Y-55421428D01*
X166128571Y-55269047D01*
X166128571Y-55154761D01*
X166090476Y-55002380D01*
X166052380Y-54926190D01*
X165976190Y-54850000D01*
X165861904Y-54811904D01*
X165785714Y-54811904D01*
X165671428Y-54850000D01*
X165633333Y-54888095D01*
X164909523Y-54811904D02*
X165290476Y-54811904D01*
X165328571Y-55192857D01*
X165290476Y-55154761D01*
X165214285Y-55116666D01*
X165023809Y-55116666D01*
X164947619Y-55154761D01*
X164909523Y-55192857D01*
X164871428Y-55269047D01*
X164871428Y-55459523D01*
X164909523Y-55535714D01*
X164947619Y-55573809D01*
X165023809Y-55611904D01*
X165214285Y-55611904D01*
X165290476Y-55573809D01*
X165328571Y-55535714D01*
%TO.C,C4*%
X165633333Y-52035714D02*
X165671428Y-52073809D01*
X165785714Y-52111904D01*
X165861904Y-52111904D01*
X165976190Y-52073809D01*
X166052380Y-51997619D01*
X166090476Y-51921428D01*
X166128571Y-51769047D01*
X166128571Y-51654761D01*
X166090476Y-51502380D01*
X166052380Y-51426190D01*
X165976190Y-51350000D01*
X165861904Y-51311904D01*
X165785714Y-51311904D01*
X165671428Y-51350000D01*
X165633333Y-51388095D01*
X164947619Y-51578571D02*
X164947619Y-52111904D01*
X165138095Y-51273809D02*
X165328571Y-51845238D01*
X164833333Y-51845238D01*
%TO.C,C3*%
X165633333Y-53785714D02*
X165671428Y-53823809D01*
X165785714Y-53861904D01*
X165861904Y-53861904D01*
X165976190Y-53823809D01*
X166052380Y-53747619D01*
X166090476Y-53671428D01*
X166128571Y-53519047D01*
X166128571Y-53404761D01*
X166090476Y-53252380D01*
X166052380Y-53176190D01*
X165976190Y-53100000D01*
X165861904Y-53061904D01*
X165785714Y-53061904D01*
X165671428Y-53100000D01*
X165633333Y-53138095D01*
X165366666Y-53061904D02*
X164871428Y-53061904D01*
X165138095Y-53366666D01*
X165023809Y-53366666D01*
X164947619Y-53404761D01*
X164909523Y-53442857D01*
X164871428Y-53519047D01*
X164871428Y-53709523D01*
X164909523Y-53785714D01*
X164947619Y-53823809D01*
X165023809Y-53861904D01*
X165252380Y-53861904D01*
X165328571Y-53823809D01*
X165366666Y-53785714D01*
%TO.C,C2*%
X171133333Y-45785714D02*
X171171428Y-45823809D01*
X171285714Y-45861904D01*
X171361904Y-45861904D01*
X171476190Y-45823809D01*
X171552380Y-45747619D01*
X171590476Y-45671428D01*
X171628571Y-45519047D01*
X171628571Y-45404761D01*
X171590476Y-45252380D01*
X171552380Y-45176190D01*
X171476190Y-45100000D01*
X171361904Y-45061904D01*
X171285714Y-45061904D01*
X171171428Y-45100000D01*
X171133333Y-45138095D01*
X170828571Y-45138095D02*
X170790476Y-45100000D01*
X170714285Y-45061904D01*
X170523809Y-45061904D01*
X170447619Y-45100000D01*
X170409523Y-45138095D01*
X170371428Y-45214285D01*
X170371428Y-45290476D01*
X170409523Y-45404761D01*
X170866666Y-45861904D01*
X170371428Y-45861904D01*
%TO.C,C1*%
X174383333Y-45855714D02*
X174421428Y-45893809D01*
X174535714Y-45931904D01*
X174611904Y-45931904D01*
X174726190Y-45893809D01*
X174802380Y-45817619D01*
X174840476Y-45741428D01*
X174878571Y-45589047D01*
X174878571Y-45474761D01*
X174840476Y-45322380D01*
X174802380Y-45246190D01*
X174726190Y-45170000D01*
X174611904Y-45131904D01*
X174535714Y-45131904D01*
X174421428Y-45170000D01*
X174383333Y-45208095D01*
X173621428Y-45931904D02*
X174078571Y-45931904D01*
X173850000Y-45931904D02*
X173850000Y-45131904D01*
X173926190Y-45246190D01*
X174002380Y-45322380D01*
X174078571Y-45360476D01*
%TO.C,D5*%
X185183020Y-40627285D02*
X185183020Y-39827285D01*
X184992544Y-39827285D01*
X184878258Y-39865381D01*
X184802067Y-39941571D01*
X184763972Y-40017761D01*
X184725877Y-40170142D01*
X184725877Y-40284428D01*
X184763972Y-40436809D01*
X184802067Y-40513000D01*
X184878258Y-40589190D01*
X184992544Y-40627285D01*
X185183020Y-40627285D01*
X184002067Y-39827285D02*
X184383020Y-39827285D01*
X184421115Y-40208238D01*
X184383020Y-40170142D01*
X184306829Y-40132047D01*
X184116353Y-40132047D01*
X184040163Y-40170142D01*
X184002067Y-40208238D01*
X183963972Y-40284428D01*
X183963972Y-40474904D01*
X184002067Y-40551095D01*
X184040163Y-40589190D01*
X184116353Y-40627285D01*
X184306829Y-40627285D01*
X184383020Y-40589190D01*
X184421115Y-40551095D01*
D14*
X192214285Y-40587141D02*
X192261904Y-40634760D01*
X192404761Y-40682379D01*
X192500000Y-40682379D01*
X192642857Y-40634760D01*
X192738095Y-40539522D01*
X192785714Y-40444284D01*
X192833333Y-40253808D01*
X192833333Y-40110951D01*
X192785714Y-39920475D01*
X192738095Y-39825237D01*
X192642857Y-39729999D01*
X192500000Y-39682379D01*
X192404761Y-39682379D01*
X192261904Y-39729999D01*
X192214285Y-39777618D01*
X191785714Y-40682379D02*
X191785714Y-39682379D01*
X191785714Y-40158570D02*
X191214285Y-40158570D01*
X191214285Y-40682379D02*
X191214285Y-39682379D01*
X190166666Y-40682379D02*
X190500000Y-40206189D01*
X190738095Y-40682379D02*
X190738095Y-39682379D01*
X190357142Y-39682379D01*
X190261904Y-39729999D01*
X190214285Y-39777618D01*
X190166666Y-39872856D01*
X190166666Y-40015713D01*
X190214285Y-40110951D01*
X190261904Y-40158570D01*
X190357142Y-40206189D01*
X190738095Y-40206189D01*
X189214285Y-39729999D02*
X189309523Y-39682379D01*
X189452380Y-39682379D01*
X189595238Y-39729999D01*
X189690476Y-39825237D01*
X189738095Y-39920475D01*
X189785714Y-40110951D01*
X189785714Y-40253808D01*
X189738095Y-40444284D01*
X189690476Y-40539522D01*
X189595238Y-40634760D01*
X189452380Y-40682379D01*
X189357142Y-40682379D01*
X189214285Y-40634760D01*
X189166666Y-40587141D01*
X189166666Y-40253808D01*
X189357142Y-40253808D01*
%TO.C,D4*%
D12*
X185170049Y-57615064D02*
X185170049Y-56815064D01*
X184979573Y-56815064D01*
X184865287Y-56853160D01*
X184789096Y-56929350D01*
X184751001Y-57005540D01*
X184712906Y-57157921D01*
X184712906Y-57272207D01*
X184751001Y-57424588D01*
X184789096Y-57500779D01*
X184865287Y-57576969D01*
X184979573Y-57615064D01*
X185170049Y-57615064D01*
X184027192Y-57081731D02*
X184027192Y-57615064D01*
X184217668Y-56776969D02*
X184408144Y-57348398D01*
X183912906Y-57348398D01*
D14*
X192416666Y-57702380D02*
X192416666Y-56702380D01*
X192083333Y-57416666D01*
X191750000Y-56702380D01*
X191750000Y-57702380D01*
X190892857Y-57654761D02*
X190988095Y-57702380D01*
X191178571Y-57702380D01*
X191273809Y-57654761D01*
X191321428Y-57559523D01*
X191321428Y-57178571D01*
X191273809Y-57083333D01*
X191178571Y-57035714D01*
X190988095Y-57035714D01*
X190892857Y-57083333D01*
X190845238Y-57178571D01*
X190845238Y-57273809D01*
X191321428Y-57369047D01*
X190416666Y-57035714D02*
X190416666Y-57702380D01*
X190416666Y-57130952D02*
X190369047Y-57083333D01*
X190273809Y-57035714D01*
X190130952Y-57035714D01*
X190035714Y-57083333D01*
X189988095Y-57178571D01*
X189988095Y-57702380D01*
X189083333Y-57035714D02*
X189083333Y-57702380D01*
X189511904Y-57035714D02*
X189511904Y-57559523D01*
X189464285Y-57654761D01*
X189369047Y-57702380D01*
X189226190Y-57702380D01*
X189130952Y-57654761D01*
X189083333Y-57607142D01*
%TO.C,D3*%
D12*
X185169917Y-53383671D02*
X185169917Y-52583671D01*
X184979441Y-52583671D01*
X184865155Y-52621767D01*
X184788964Y-52697957D01*
X184750869Y-52774147D01*
X184712774Y-52926528D01*
X184712774Y-53040814D01*
X184750869Y-53193195D01*
X184788964Y-53269386D01*
X184865155Y-53345576D01*
X184979441Y-53383671D01*
X185169917Y-53383671D01*
X184446107Y-52583671D02*
X183950869Y-52583671D01*
X184217536Y-52888433D01*
X184103250Y-52888433D01*
X184027060Y-52926528D01*
X183988964Y-52964624D01*
X183950869Y-53040814D01*
X183950869Y-53231290D01*
X183988964Y-53307481D01*
X184027060Y-53345576D01*
X184103250Y-53383671D01*
X184331821Y-53383671D01*
X184408012Y-53345576D01*
X184446107Y-53307481D01*
D14*
X191857142Y-53432379D02*
X191857142Y-52432379D01*
X191476190Y-52432379D01*
X191380952Y-52479999D01*
X191333333Y-52527618D01*
X191285714Y-52622856D01*
X191285714Y-52765713D01*
X191333333Y-52860951D01*
X191380952Y-52908570D01*
X191476190Y-52956189D01*
X191857142Y-52956189D01*
X190714285Y-53432379D02*
X190809523Y-53384760D01*
X190857142Y-53289522D01*
X190857142Y-52432379D01*
X189904761Y-53432379D02*
X189904761Y-52908570D01*
X189952380Y-52813332D01*
X190047619Y-52765713D01*
X190238095Y-52765713D01*
X190333333Y-52813332D01*
X189904761Y-53384760D02*
X190000000Y-53432379D01*
X190238095Y-53432379D01*
X190333333Y-53384760D01*
X190380952Y-53289522D01*
X190380952Y-53194284D01*
X190333333Y-53099046D01*
X190238095Y-53051427D01*
X190000000Y-53051427D01*
X189904761Y-53003808D01*
X189523809Y-52765713D02*
X189285714Y-53432379D01*
X189047619Y-52765713D02*
X189285714Y-53432379D01*
X189380952Y-53670475D01*
X189428571Y-53718094D01*
X189523809Y-53765713D01*
%TO.C,D2*%
D12*
X185190476Y-49111904D02*
X185190476Y-48311904D01*
X185000000Y-48311904D01*
X184885714Y-48350000D01*
X184809523Y-48426190D01*
X184771428Y-48502380D01*
X184733333Y-48654761D01*
X184733333Y-48769047D01*
X184771428Y-48921428D01*
X184809523Y-48997619D01*
X184885714Y-49073809D01*
X185000000Y-49111904D01*
X185190476Y-49111904D01*
X184428571Y-48388095D02*
X184390476Y-48350000D01*
X184314285Y-48311904D01*
X184123809Y-48311904D01*
X184047619Y-48350000D01*
X184009523Y-48388095D01*
X183971428Y-48464285D01*
X183971428Y-48540476D01*
X184009523Y-48654761D01*
X184466666Y-49111904D01*
X183971428Y-49111904D01*
D14*
X191238095Y-49107142D02*
X191285714Y-49154761D01*
X191428571Y-49202380D01*
X191523809Y-49202380D01*
X191666666Y-49154761D01*
X191761904Y-49059523D01*
X191809523Y-48964285D01*
X191857142Y-48773809D01*
X191857142Y-48630952D01*
X191809523Y-48440476D01*
X191761904Y-48345238D01*
X191666666Y-48250000D01*
X191523809Y-48202380D01*
X191428571Y-48202380D01*
X191285714Y-48250000D01*
X191238095Y-48297619D01*
X190619047Y-48202380D02*
X190428571Y-48202380D01*
X190333333Y-48250000D01*
X190238095Y-48345238D01*
X190190476Y-48535714D01*
X190190476Y-48869047D01*
X190238095Y-49059523D01*
X190333333Y-49154761D01*
X190428571Y-49202380D01*
X190619047Y-49202380D01*
X190714285Y-49154761D01*
X190809523Y-49059523D01*
X190857142Y-48869047D01*
X190857142Y-48535714D01*
X190809523Y-48345238D01*
X190714285Y-48250000D01*
X190619047Y-48202380D01*
X189761904Y-49202380D02*
X189761904Y-48202380D01*
X189190476Y-49202380D01*
X189190476Y-48202380D01*
%TO.C,D1*%
D12*
X185164893Y-44884333D02*
X185164893Y-44084333D01*
X184974417Y-44084333D01*
X184860131Y-44122429D01*
X184783940Y-44198619D01*
X184745845Y-44274809D01*
X184707750Y-44427190D01*
X184707750Y-44541476D01*
X184745845Y-44693857D01*
X184783940Y-44770048D01*
X184860131Y-44846238D01*
X184974417Y-44884333D01*
X185164893Y-44884333D01*
X183945845Y-44884333D02*
X184402988Y-44884333D01*
X184174417Y-44884333D02*
X184174417Y-44084333D01*
X184250607Y-44198619D01*
X184326797Y-44274809D01*
X184402988Y-44312905D01*
D14*
X191833333Y-44932379D02*
X191833333Y-43932379D01*
X191452380Y-43932379D01*
X191357142Y-43979999D01*
X191309523Y-44027618D01*
X191261904Y-44122856D01*
X191261904Y-44265713D01*
X191309523Y-44360951D01*
X191357142Y-44408570D01*
X191452380Y-44456189D01*
X191833333Y-44456189D01*
X190928571Y-43932379D02*
X190690476Y-44932379D01*
X190500000Y-44218094D01*
X190309523Y-44932379D01*
X190071428Y-43932379D01*
X189119047Y-44932379D02*
X189452380Y-44456189D01*
X189690476Y-44932379D02*
X189690476Y-43932379D01*
X189309523Y-43932379D01*
X189214285Y-43979999D01*
X189166666Y-44027618D01*
X189119047Y-44122856D01*
X189119047Y-44265713D01*
X189166666Y-44360951D01*
X189214285Y-44408570D01*
X189309523Y-44456189D01*
X189690476Y-44456189D01*
%TD*%
M02*
